<?xml version="1.0" encoding="utf-8" standalone="no"?>
<!DOCTYPE svg PUBLIC "-//W3C//DTD SVG 1.1//EN"
  "http://www.w3.org/Graphics/SVG/1.1/DTD/svg11.dtd">
<!-- Created with matplotlib (https://matplotlib.org/) -->
<svg height="439.274375pt" version="1.1" viewBox="0 0 712.582813 439.274375" width="712.582813pt" xmlns="http://www.w3.org/2000/svg" xmlns:xlink="http://www.w3.org/1999/xlink">
 <defs>
  <style type="text/css">
*{stroke-linecap:butt;stroke-linejoin:round;}
  </style>
 </defs>
 <g id="figure_1">
  <g id="patch_1">
   <path d="M 0 439.274375 
L 712.582813 439.274375 
L 712.582813 0 
L 0 0 
z
" style="fill:#ffffff;"/>
  </g>
  <g id="axes_1">
   <g id="patch_2">
    <path d="M 48.982813 401.718125 
L 705.382812 401.718125 
L 705.382812 22.318125 
L 48.982813 22.318125 
z
" style="fill:#ffffff;"/>
   </g>
   <g id="PolyCollection_1">
    <defs>
     <path d="M 78.819176 -394.29687 
L 78.819176 -329.34607 
L 85.923072 -320.790007 
L 93.026968 -322.419935 
L 100.130864 -335.991709 
L 107.234761 -334.010888 
L 114.338657 -333.596548 
L 121.442553 -331.602629 
L 128.546449 -329.600334 
L 135.650345 -316.489336 
L 142.754241 -322.497244 
L 149.858137 -337.087673 
L 156.962033 -338.56236 
L 164.065929 -334.106459 
L 171.169825 -330.18674 
L 178.273722 -327.919117 
L 185.377618 -316.71941 
L 192.481514 -316.044343 
L 199.58541 -330.968459 
L 206.689306 -328.975891 
L 213.793202 -328.806687 
L 220.897098 -323.884514 
L 228.000994 -323.341302 
L 235.10489 -309.97649 
L 242.208787 -312.462537 
L 249.312683 -327.951424 
L 256.416579 -327.201724 
L 263.520475 -323.403178 
L 270.624371 -319.713245 
L 277.728267 -317.522307 
L 284.832163 -305.699375 
L 291.936059 -299.448879 
L 299.039955 -308.919375 
L 306.143851 -300.347784 
L 313.247748 -288.812306 
L 320.351644 -273.95881 
L 327.45554 -269.308909 
L 334.559436 -250.467002 
L 341.663332 -245.072935 
L 348.767228 -249.655683 
L 355.871124 -240.470069 
L 362.97502 -232.759946 
L 370.078916 -219.170524 
L 377.182812 -210.755441 
L 384.286709 -192.849092 
L 391.390605 -185.798175 
L 398.494501 -197.776465 
L 405.598397 -188.509273 
L 412.702293 -181.004838 
L 419.806189 -174.750959 
L 426.910085 -166.864199 
L 434.013981 -150.768851 
L 441.117877 -147.820913 
L 448.221774 -158.9522 
L 455.32567 -153.290232 
L 462.429566 -147.094951 
L 469.533462 -139.418415 
L 476.637358 -129.709509 
L 483.741254 -125.092619 
L 490.84515 -130.568371 
L 497.949046 -149.033909 
L 505.052942 -152.222201 
L 512.156838 -153.404655 
L 519.260735 -153.048074 
L 526.364631 -158.106824 
L 533.468527 -150.810541 
L 540.572423 -153.862416 
L 547.676319 -173.356918 
L 554.780215 -175.483271 
L 561.884111 -173.531788 
L 568.988007 -172.954575 
L 576.091903 -174.335487 
L 583.1958 -168.09484 
L 590.299696 -169.927509 
L 597.403592 -188.140938 
L 604.507488 -189.459045 
L 611.611384 -187.146264 
L 618.71528 -188.136552 
L 625.819176 -188.862584 
L 632.923072 -180.561231 
L 640.026968 -183.361775 
L 647.130864 -201.613293 
L 654.234761 -202.388878 
L 661.338657 -202.986693 
L 668.442553 -204.75317 
L 675.546449 -202.262567 
L 675.546449 -266.233797 
L 675.546449 -266.233797 
L 668.442553 -266.27301 
L 661.338657 -264.832189 
L 654.234761 -266.181574 
L 647.130864 -264.314414 
L 640.026968 -247.183228 
L 632.923072 -245.359408 
L 625.819176 -251.334459 
L 618.71528 -251.268618 
L 611.611384 -251.074922 
L 604.507488 -250.861745 
L 597.403592 -252.535758 
L 590.299696 -232.589414 
L 583.1958 -228.52724 
L 576.091903 -235.289541 
L 568.988007 -237.790043 
L 561.884111 -237.995771 
L 554.780215 -235.437445 
L 547.676319 -235.239859 
L 540.572423 -218.73273 
L 533.468527 -213.824285 
L 526.364631 -219.703012 
L 519.260735 -217.72961 
L 512.156838 -216.9217 
L 505.052942 -213.202495 
L 497.949046 -213.196213 
L 490.84515 -190.586886 
L 483.741254 -190.337912 
L 476.637358 -193.072737 
L 469.533462 -202.349048 
L 462.429566 -210.088662 
L 455.32567 -217.625364 
L 448.221774 -222.013176 
L 441.117877 -211.339035 
L 434.013981 -213.282322 
L 426.910085 -229.770419 
L 419.806189 -237.279007 
L 412.702293 -243.840011 
L 405.598397 -251.153679 
L 398.494501 -257.837207 
L 391.390605 -249.950895 
L 384.286709 -254.856069 
L 377.182812 -271.434884 
L 370.078916 -283.390259 
L 362.97502 -294.499301 
L 355.871124 -303.733685 
L 348.767228 -312.805273 
L 341.663332 -306.241016 
L 334.559436 -314.148269 
L 327.45554 -330.245325 
L 320.351644 -339.128219 
L 313.247748 -350.662915 
L 306.143851 -362.337309 
L 299.039955 -370.211566 
L 291.936059 -364.189854 
L 284.832163 -370.176572 
L 277.728267 -379.228568 
L 270.624371 -385.226282 
L 263.520475 -385.836053 
L 256.416579 -388.70414 
L 249.312683 -390.766715 
L 242.208787 -374.222916 
L 235.10489 -373.272722 
L 228.000994 -385.242071 
L 220.897098 -385.628014 
L 213.793202 -391.923677 
L 206.689306 -391.260419 
L 199.58541 -393.769865 
L 192.481514 -377.760902 
L 185.377618 -378.692196 
L 178.273722 -391.266451 
L 171.169825 -394.497046 
L 164.065929 -394.797298 
L 156.962033 -398.9679 
L 149.858137 -399.710795 
L 142.754241 -382.011787 
L 135.650345 -382.089104 
L 128.546449 -393.347496 
L 121.442553 -393.077851 
L 114.338657 -398.667255 
L 107.234761 -395.299935 
L 100.130864 -399.078284 
L 93.026968 -386.455279 
L 85.923072 -384.040813 
L 78.819176 -394.29687 
z
" id="mdc799b0d32" style="stroke:#0072b2;stroke-opacity:0.2;"/>
    </defs>
    <g clip-path="url(#p6a486f3ce6)">
     <use style="fill:#0072b2;fill-opacity:0.2;stroke:#0072b2;stroke-opacity:0.2;" x="0" xlink:href="#mdc799b0d32" y="439.274375"/>
    </g>
   </g>
   <g id="matplotlib.axis_1">
    <g id="xtick_1">
     <g id="line2d_1">
      <path clip-path="url(#p6a486f3ce6)" d="M 71.71528 401.718125 
L 71.71528 22.318125 
" style="fill:none;stroke:#808080;stroke-linecap:square;stroke-opacity:0.2;"/>
     </g>
     <g id="line2d_2">
      <defs>
       <path d="M 0 0 
L 0 3.5 
" id="mcdd931a30e" style="stroke:#000000;stroke-width:0.8;"/>
      </defs>
      <g>
       <use style="stroke:#000000;stroke-width:0.8;" x="71.71528" xlink:href="#mcdd931a30e" y="401.718125"/>
      </g>
     </g>
     <g id="text_1">
      <!-- 2020-02-14 -->
      <defs>
       <path d="M 19.1875 8.296875 
L 53.609375 8.296875 
L 53.609375 0 
L 7.328125 0 
L 7.328125 8.296875 
Q 12.9375 14.109375 22.625 23.890625 
Q 32.328125 33.6875 34.8125 36.53125 
Q 39.546875 41.84375 41.421875 45.53125 
Q 43.3125 49.21875 43.3125 52.78125 
Q 43.3125 58.59375 39.234375 62.25 
Q 35.15625 65.921875 28.609375 65.921875 
Q 23.96875 65.921875 18.8125 64.3125 
Q 13.671875 62.703125 7.8125 59.421875 
L 7.8125 69.390625 
Q 13.765625 71.78125 18.9375 73 
Q 24.125 74.21875 28.421875 74.21875 
Q 39.75 74.21875 46.484375 68.546875 
Q 53.21875 62.890625 53.21875 53.421875 
Q 53.21875 48.921875 51.53125 44.890625 
Q 49.859375 40.875 45.40625 35.40625 
Q 44.1875 33.984375 37.640625 27.21875 
Q 31.109375 20.453125 19.1875 8.296875 
z
" id="DejaVuSans-50"/>
       <path d="M 31.78125 66.40625 
Q 24.171875 66.40625 20.328125 58.90625 
Q 16.5 51.421875 16.5 36.375 
Q 16.5 21.390625 20.328125 13.890625 
Q 24.171875 6.390625 31.78125 6.390625 
Q 39.453125 6.390625 43.28125 13.890625 
Q 47.125 21.390625 47.125 36.375 
Q 47.125 51.421875 43.28125 58.90625 
Q 39.453125 66.40625 31.78125 66.40625 
z
M 31.78125 74.21875 
Q 44.046875 74.21875 50.515625 64.515625 
Q 56.984375 54.828125 56.984375 36.375 
Q 56.984375 17.96875 50.515625 8.265625 
Q 44.046875 -1.421875 31.78125 -1.421875 
Q 19.53125 -1.421875 13.0625 8.265625 
Q 6.59375 17.96875 6.59375 36.375 
Q 6.59375 54.828125 13.0625 64.515625 
Q 19.53125 74.21875 31.78125 74.21875 
z
" id="DejaVuSans-48"/>
       <path d="M 4.890625 31.390625 
L 31.203125 31.390625 
L 31.203125 23.390625 
L 4.890625 23.390625 
z
" id="DejaVuSans-45"/>
       <path d="M 12.40625 8.296875 
L 28.515625 8.296875 
L 28.515625 63.921875 
L 10.984375 60.40625 
L 10.984375 69.390625 
L 28.421875 72.90625 
L 38.28125 72.90625 
L 38.28125 8.296875 
L 54.390625 8.296875 
L 54.390625 0 
L 12.40625 0 
z
" id="DejaVuSans-49"/>
       <path d="M 37.796875 64.3125 
L 12.890625 25.390625 
L 37.796875 25.390625 
z
M 35.203125 72.90625 
L 47.609375 72.90625 
L 47.609375 25.390625 
L 58.015625 25.390625 
L 58.015625 17.1875 
L 47.609375 17.1875 
L 47.609375 0 
L 37.796875 0 
L 37.796875 17.1875 
L 4.890625 17.1875 
L 4.890625 26.703125 
z
" id="DejaVuSans-52"/>
      </defs>
      <g transform="translate(42.657468 416.316562)scale(0.1 -0.1)">
       <use xlink:href="#DejaVuSans-50"/>
       <use x="63.623047" xlink:href="#DejaVuSans-48"/>
       <use x="127.246094" xlink:href="#DejaVuSans-50"/>
       <use x="190.869141" xlink:href="#DejaVuSans-48"/>
       <use x="254.492188" xlink:href="#DejaVuSans-45"/>
       <use x="290.576172" xlink:href="#DejaVuSans-48"/>
       <use x="354.199219" xlink:href="#DejaVuSans-50"/>
       <use x="417.822266" xlink:href="#DejaVuSans-45"/>
       <use x="453.90625" xlink:href="#DejaVuSans-49"/>
       <use x="517.529297" xlink:href="#DejaVuSans-52"/>
      </g>
     </g>
    </g>
    <g id="xtick_2">
     <g id="line2d_3">
      <path clip-path="url(#p6a486f3ce6)" d="M 171.169825 401.718125 
L 171.169825 22.318125 
" style="fill:none;stroke:#808080;stroke-linecap:square;stroke-opacity:0.2;"/>
     </g>
     <g id="line2d_4">
      <g>
       <use style="stroke:#000000;stroke-width:0.8;" x="171.169825" xlink:href="#mcdd931a30e" y="401.718125"/>
      </g>
     </g>
     <g id="text_2">
      <!-- 2020-02-28 -->
      <defs>
       <path d="M 31.78125 34.625 
Q 24.75 34.625 20.71875 30.859375 
Q 16.703125 27.09375 16.703125 20.515625 
Q 16.703125 13.921875 20.71875 10.15625 
Q 24.75 6.390625 31.78125 6.390625 
Q 38.8125 6.390625 42.859375 10.171875 
Q 46.921875 13.96875 46.921875 20.515625 
Q 46.921875 27.09375 42.890625 30.859375 
Q 38.875 34.625 31.78125 34.625 
z
M 21.921875 38.8125 
Q 15.578125 40.375 12.03125 44.71875 
Q 8.5 49.078125 8.5 55.328125 
Q 8.5 64.0625 14.71875 69.140625 
Q 20.953125 74.21875 31.78125 74.21875 
Q 42.671875 74.21875 48.875 69.140625 
Q 55.078125 64.0625 55.078125 55.328125 
Q 55.078125 49.078125 51.53125 44.71875 
Q 48 40.375 41.703125 38.8125 
Q 48.828125 37.15625 52.796875 32.3125 
Q 56.78125 27.484375 56.78125 20.515625 
Q 56.78125 9.90625 50.3125 4.234375 
Q 43.84375 -1.421875 31.78125 -1.421875 
Q 19.734375 -1.421875 13.25 4.234375 
Q 6.78125 9.90625 6.78125 20.515625 
Q 6.78125 27.484375 10.78125 32.3125 
Q 14.796875 37.15625 21.921875 38.8125 
z
M 18.3125 54.390625 
Q 18.3125 48.734375 21.84375 45.5625 
Q 25.390625 42.390625 31.78125 42.390625 
Q 38.140625 42.390625 41.71875 45.5625 
Q 45.3125 48.734375 45.3125 54.390625 
Q 45.3125 60.0625 41.71875 63.234375 
Q 38.140625 66.40625 31.78125 66.40625 
Q 25.390625 66.40625 21.84375 63.234375 
Q 18.3125 60.0625 18.3125 54.390625 
z
" id="DejaVuSans-56"/>
      </defs>
      <g transform="translate(142.112013 416.316562)scale(0.1 -0.1)">
       <use xlink:href="#DejaVuSans-50"/>
       <use x="63.623047" xlink:href="#DejaVuSans-48"/>
       <use x="127.246094" xlink:href="#DejaVuSans-50"/>
       <use x="190.869141" xlink:href="#DejaVuSans-48"/>
       <use x="254.492188" xlink:href="#DejaVuSans-45"/>
       <use x="290.576172" xlink:href="#DejaVuSans-48"/>
       <use x="354.199219" xlink:href="#DejaVuSans-50"/>
       <use x="417.822266" xlink:href="#DejaVuSans-45"/>
       <use x="453.90625" xlink:href="#DejaVuSans-50"/>
       <use x="517.529297" xlink:href="#DejaVuSans-56"/>
      </g>
     </g>
    </g>
    <g id="xtick_3">
     <g id="line2d_5">
      <path clip-path="url(#p6a486f3ce6)" d="M 270.624371 401.718125 
L 270.624371 22.318125 
" style="fill:none;stroke:#808080;stroke-linecap:square;stroke-opacity:0.2;"/>
     </g>
     <g id="line2d_6">
      <g>
       <use style="stroke:#000000;stroke-width:0.8;" x="270.624371" xlink:href="#mcdd931a30e" y="401.718125"/>
      </g>
     </g>
     <g id="text_3">
      <!-- 2020-03-13 -->
      <defs>
       <path d="M 40.578125 39.3125 
Q 47.65625 37.796875 51.625 33 
Q 55.609375 28.21875 55.609375 21.1875 
Q 55.609375 10.40625 48.1875 4.484375 
Q 40.765625 -1.421875 27.09375 -1.421875 
Q 22.515625 -1.421875 17.65625 -0.515625 
Q 12.796875 0.390625 7.625 2.203125 
L 7.625 11.71875 
Q 11.71875 9.328125 16.59375 8.109375 
Q 21.484375 6.890625 26.8125 6.890625 
Q 36.078125 6.890625 40.9375 10.546875 
Q 45.796875 14.203125 45.796875 21.1875 
Q 45.796875 27.640625 41.28125 31.265625 
Q 36.765625 34.90625 28.71875 34.90625 
L 20.21875 34.90625 
L 20.21875 43.015625 
L 29.109375 43.015625 
Q 36.375 43.015625 40.234375 45.921875 
Q 44.09375 48.828125 44.09375 54.296875 
Q 44.09375 59.90625 40.109375 62.90625 
Q 36.140625 65.921875 28.71875 65.921875 
Q 24.65625 65.921875 20.015625 65.03125 
Q 15.375 64.15625 9.8125 62.3125 
L 9.8125 71.09375 
Q 15.4375 72.65625 20.34375 73.4375 
Q 25.25 74.21875 29.59375 74.21875 
Q 40.828125 74.21875 47.359375 69.109375 
Q 53.90625 64.015625 53.90625 55.328125 
Q 53.90625 49.265625 50.4375 45.09375 
Q 46.96875 40.921875 40.578125 39.3125 
z
" id="DejaVuSans-51"/>
      </defs>
      <g transform="translate(241.566558 416.316562)scale(0.1 -0.1)">
       <use xlink:href="#DejaVuSans-50"/>
       <use x="63.623047" xlink:href="#DejaVuSans-48"/>
       <use x="127.246094" xlink:href="#DejaVuSans-50"/>
       <use x="190.869141" xlink:href="#DejaVuSans-48"/>
       <use x="254.492188" xlink:href="#DejaVuSans-45"/>
       <use x="290.576172" xlink:href="#DejaVuSans-48"/>
       <use x="354.199219" xlink:href="#DejaVuSans-51"/>
       <use x="417.822266" xlink:href="#DejaVuSans-45"/>
       <use x="453.90625" xlink:href="#DejaVuSans-49"/>
       <use x="517.529297" xlink:href="#DejaVuSans-51"/>
      </g>
     </g>
    </g>
    <g id="xtick_4">
     <g id="line2d_7">
      <path clip-path="url(#p6a486f3ce6)" d="M 370.078916 401.718125 
L 370.078916 22.318125 
" style="fill:none;stroke:#808080;stroke-linecap:square;stroke-opacity:0.2;"/>
     </g>
     <g id="line2d_8">
      <g>
       <use style="stroke:#000000;stroke-width:0.8;" x="370.078916" xlink:href="#mcdd931a30e" y="401.718125"/>
      </g>
     </g>
     <g id="text_4">
      <!-- 2020-03-27 -->
      <defs>
       <path d="M 8.203125 72.90625 
L 55.078125 72.90625 
L 55.078125 68.703125 
L 28.609375 0 
L 18.3125 0 
L 43.21875 64.59375 
L 8.203125 64.59375 
z
" id="DejaVuSans-55"/>
      </defs>
      <g transform="translate(341.021104 416.316562)scale(0.1 -0.1)">
       <use xlink:href="#DejaVuSans-50"/>
       <use x="63.623047" xlink:href="#DejaVuSans-48"/>
       <use x="127.246094" xlink:href="#DejaVuSans-50"/>
       <use x="190.869141" xlink:href="#DejaVuSans-48"/>
       <use x="254.492188" xlink:href="#DejaVuSans-45"/>
       <use x="290.576172" xlink:href="#DejaVuSans-48"/>
       <use x="354.199219" xlink:href="#DejaVuSans-51"/>
       <use x="417.822266" xlink:href="#DejaVuSans-45"/>
       <use x="453.90625" xlink:href="#DejaVuSans-50"/>
       <use x="517.529297" xlink:href="#DejaVuSans-55"/>
      </g>
     </g>
    </g>
    <g id="xtick_5">
     <g id="line2d_9">
      <path clip-path="url(#p6a486f3ce6)" d="M 469.533462 401.718125 
L 469.533462 22.318125 
" style="fill:none;stroke:#808080;stroke-linecap:square;stroke-opacity:0.2;"/>
     </g>
     <g id="line2d_10">
      <g>
       <use style="stroke:#000000;stroke-width:0.8;" x="469.533462" xlink:href="#mcdd931a30e" y="401.718125"/>
      </g>
     </g>
     <g id="text_5">
      <!-- 2020-04-10 -->
      <g transform="translate(440.475649 416.316562)scale(0.1 -0.1)">
       <use xlink:href="#DejaVuSans-50"/>
       <use x="63.623047" xlink:href="#DejaVuSans-48"/>
       <use x="127.246094" xlink:href="#DejaVuSans-50"/>
       <use x="190.869141" xlink:href="#DejaVuSans-48"/>
       <use x="254.492188" xlink:href="#DejaVuSans-45"/>
       <use x="290.576172" xlink:href="#DejaVuSans-48"/>
       <use x="354.199219" xlink:href="#DejaVuSans-52"/>
       <use x="417.822266" xlink:href="#DejaVuSans-45"/>
       <use x="453.90625" xlink:href="#DejaVuSans-49"/>
       <use x="517.529297" xlink:href="#DejaVuSans-48"/>
      </g>
     </g>
    </g>
    <g id="xtick_6">
     <g id="line2d_11">
      <path clip-path="url(#p6a486f3ce6)" d="M 568.988007 401.718125 
L 568.988007 22.318125 
" style="fill:none;stroke:#808080;stroke-linecap:square;stroke-opacity:0.2;"/>
     </g>
     <g id="line2d_12">
      <g>
       <use style="stroke:#000000;stroke-width:0.8;" x="568.988007" xlink:href="#mcdd931a30e" y="401.718125"/>
      </g>
     </g>
     <g id="text_6">
      <!-- 2020-04-24 -->
      <g transform="translate(539.930195 416.316562)scale(0.1 -0.1)">
       <use xlink:href="#DejaVuSans-50"/>
       <use x="63.623047" xlink:href="#DejaVuSans-48"/>
       <use x="127.246094" xlink:href="#DejaVuSans-50"/>
       <use x="190.869141" xlink:href="#DejaVuSans-48"/>
       <use x="254.492188" xlink:href="#DejaVuSans-45"/>
       <use x="290.576172" xlink:href="#DejaVuSans-48"/>
       <use x="354.199219" xlink:href="#DejaVuSans-52"/>
       <use x="417.822266" xlink:href="#DejaVuSans-45"/>
       <use x="453.90625" xlink:href="#DejaVuSans-50"/>
       <use x="517.529297" xlink:href="#DejaVuSans-52"/>
      </g>
     </g>
    </g>
    <g id="xtick_7">
     <g id="line2d_13">
      <path clip-path="url(#p6a486f3ce6)" d="M 668.442553 401.718125 
L 668.442553 22.318125 
" style="fill:none;stroke:#808080;stroke-linecap:square;stroke-opacity:0.2;"/>
     </g>
     <g id="line2d_14">
      <g>
       <use style="stroke:#000000;stroke-width:0.8;" x="668.442553" xlink:href="#mcdd931a30e" y="401.718125"/>
      </g>
     </g>
     <g id="text_7">
      <!-- 2020-05-08 -->
      <defs>
       <path d="M 10.796875 72.90625 
L 49.515625 72.90625 
L 49.515625 64.59375 
L 19.828125 64.59375 
L 19.828125 46.734375 
Q 21.96875 47.46875 24.109375 47.828125 
Q 26.265625 48.1875 28.421875 48.1875 
Q 40.625 48.1875 47.75 41.5 
Q 54.890625 34.8125 54.890625 23.390625 
Q 54.890625 11.625 47.5625 5.09375 
Q 40.234375 -1.421875 26.90625 -1.421875 
Q 22.3125 -1.421875 17.546875 -0.640625 
Q 12.796875 0.140625 7.71875 1.703125 
L 7.71875 11.625 
Q 12.109375 9.234375 16.796875 8.0625 
Q 21.484375 6.890625 26.703125 6.890625 
Q 35.15625 6.890625 40.078125 11.328125 
Q 45.015625 15.765625 45.015625 23.390625 
Q 45.015625 31 40.078125 35.4375 
Q 35.15625 39.890625 26.703125 39.890625 
Q 22.75 39.890625 18.8125 39.015625 
Q 14.890625 38.140625 10.796875 36.28125 
z
" id="DejaVuSans-53"/>
      </defs>
      <g transform="translate(639.38474 416.316562)scale(0.1 -0.1)">
       <use xlink:href="#DejaVuSans-50"/>
       <use x="63.623047" xlink:href="#DejaVuSans-48"/>
       <use x="127.246094" xlink:href="#DejaVuSans-50"/>
       <use x="190.869141" xlink:href="#DejaVuSans-48"/>
       <use x="254.492188" xlink:href="#DejaVuSans-45"/>
       <use x="290.576172" xlink:href="#DejaVuSans-48"/>
       <use x="354.199219" xlink:href="#DejaVuSans-53"/>
       <use x="417.822266" xlink:href="#DejaVuSans-45"/>
       <use x="453.90625" xlink:href="#DejaVuSans-48"/>
       <use x="517.529297" xlink:href="#DejaVuSans-56"/>
      </g>
     </g>
    </g>
    <g id="text_8">
     <!-- Date -->
     <defs>
      <path d="M 19.671875 64.796875 
L 19.671875 8.109375 
L 31.59375 8.109375 
Q 46.6875 8.109375 53.6875 14.9375 
Q 60.6875 21.78125 60.6875 36.53125 
Q 60.6875 51.171875 53.6875 57.984375 
Q 46.6875 64.796875 31.59375 64.796875 
z
M 9.8125 72.90625 
L 30.078125 72.90625 
Q 51.265625 72.90625 61.171875 64.09375 
Q 71.09375 55.28125 71.09375 36.53125 
Q 71.09375 17.671875 61.125 8.828125 
Q 51.171875 0 30.078125 0 
L 9.8125 0 
z
" id="DejaVuSans-68"/>
      <path d="M 34.28125 27.484375 
Q 23.390625 27.484375 19.1875 25 
Q 14.984375 22.515625 14.984375 16.5 
Q 14.984375 11.71875 18.140625 8.90625 
Q 21.296875 6.109375 26.703125 6.109375 
Q 34.1875 6.109375 38.703125 11.40625 
Q 43.21875 16.703125 43.21875 25.484375 
L 43.21875 27.484375 
z
M 52.203125 31.203125 
L 52.203125 0 
L 43.21875 0 
L 43.21875 8.296875 
Q 40.140625 3.328125 35.546875 0.953125 
Q 30.953125 -1.421875 24.3125 -1.421875 
Q 15.921875 -1.421875 10.953125 3.296875 
Q 6 8.015625 6 15.921875 
Q 6 25.140625 12.171875 29.828125 
Q 18.359375 34.515625 30.609375 34.515625 
L 43.21875 34.515625 
L 43.21875 35.40625 
Q 43.21875 41.609375 39.140625 45 
Q 35.0625 48.390625 27.6875 48.390625 
Q 23 48.390625 18.546875 47.265625 
Q 14.109375 46.140625 10.015625 43.890625 
L 10.015625 52.203125 
Q 14.9375 54.109375 19.578125 55.046875 
Q 24.21875 56 28.609375 56 
Q 40.484375 56 46.34375 49.84375 
Q 52.203125 43.703125 52.203125 31.203125 
z
" id="DejaVuSans-97"/>
      <path d="M 18.3125 70.21875 
L 18.3125 54.6875 
L 36.8125 54.6875 
L 36.8125 47.703125 
L 18.3125 47.703125 
L 18.3125 18.015625 
Q 18.3125 11.328125 20.140625 9.421875 
Q 21.96875 7.515625 27.59375 7.515625 
L 36.8125 7.515625 
L 36.8125 0 
L 27.59375 0 
Q 17.1875 0 13.234375 3.875 
Q 9.28125 7.765625 9.28125 18.015625 
L 9.28125 47.703125 
L 2.6875 47.703125 
L 2.6875 54.6875 
L 9.28125 54.6875 
L 9.28125 70.21875 
z
" id="DejaVuSans-116"/>
      <path d="M 56.203125 29.59375 
L 56.203125 25.203125 
L 14.890625 25.203125 
Q 15.484375 15.921875 20.484375 11.0625 
Q 25.484375 6.203125 34.421875 6.203125 
Q 39.59375 6.203125 44.453125 7.46875 
Q 49.3125 8.734375 54.109375 11.28125 
L 54.109375 2.78125 
Q 49.265625 0.734375 44.1875 -0.34375 
Q 39.109375 -1.421875 33.890625 -1.421875 
Q 20.796875 -1.421875 13.15625 6.1875 
Q 5.515625 13.8125 5.515625 26.8125 
Q 5.515625 40.234375 12.765625 48.109375 
Q 20.015625 56 32.328125 56 
Q 43.359375 56 49.78125 48.890625 
Q 56.203125 41.796875 56.203125 29.59375 
z
M 47.21875 32.234375 
Q 47.125 39.59375 43.09375 43.984375 
Q 39.0625 48.390625 32.421875 48.390625 
Q 24.90625 48.390625 20.390625 44.140625 
Q 15.875 39.890625 15.1875 32.171875 
z
" id="DejaVuSans-101"/>
     </defs>
     <g transform="translate(365.232031 429.994687)scale(0.1 -0.1)">
      <use xlink:href="#DejaVuSans-68"/>
      <use x="77.001953" xlink:href="#DejaVuSans-97"/>
      <use x="138.28125" xlink:href="#DejaVuSans-116"/>
      <use x="177.490234" xlink:href="#DejaVuSans-101"/>
     </g>
    </g>
   </g>
   <g id="matplotlib.axis_2">
    <g id="ytick_1">
     <g id="line2d_15">
      <path clip-path="url(#p6a486f3ce6)" d="M 48.982813 377.850842 
L 705.382812 377.850842 
" style="fill:none;stroke:#808080;stroke-linecap:square;stroke-opacity:0.2;"/>
     </g>
     <g id="line2d_16">
      <defs>
       <path d="M 0 0 
L -3.5 0 
" id="m5283978efc" style="stroke:#000000;stroke-width:0.8;"/>
      </defs>
      <g>
       <use style="stroke:#000000;stroke-width:0.8;" x="48.982813" xlink:href="#m5283978efc" y="377.850842"/>
      </g>
     </g>
     <g id="text_9">
      <!-- −80 -->
      <defs>
       <path d="M 10.59375 35.5 
L 73.1875 35.5 
L 73.1875 27.203125 
L 10.59375 27.203125 
z
" id="DejaVuSans-8722"/>
      </defs>
      <g transform="translate(20.878125 381.650061)scale(0.1 -0.1)">
       <use xlink:href="#DejaVuSans-8722"/>
       <use x="83.789062" xlink:href="#DejaVuSans-56"/>
       <use x="147.412109" xlink:href="#DejaVuSans-48"/>
      </g>
     </g>
    </g>
    <g id="ytick_2">
     <g id="line2d_17">
      <path clip-path="url(#p6a486f3ce6)" d="M 48.982813 311.632562 
L 705.382812 311.632562 
" style="fill:none;stroke:#808080;stroke-linecap:square;stroke-opacity:0.2;"/>
     </g>
     <g id="line2d_18">
      <g>
       <use style="stroke:#000000;stroke-width:0.8;" x="48.982813" xlink:href="#m5283978efc" y="311.632562"/>
      </g>
     </g>
     <g id="text_10">
      <!-- −60 -->
      <defs>
       <path d="M 33.015625 40.375 
Q 26.375 40.375 22.484375 35.828125 
Q 18.609375 31.296875 18.609375 23.390625 
Q 18.609375 15.53125 22.484375 10.953125 
Q 26.375 6.390625 33.015625 6.390625 
Q 39.65625 6.390625 43.53125 10.953125 
Q 47.40625 15.53125 47.40625 23.390625 
Q 47.40625 31.296875 43.53125 35.828125 
Q 39.65625 40.375 33.015625 40.375 
z
M 52.59375 71.296875 
L 52.59375 62.3125 
Q 48.875 64.0625 45.09375 64.984375 
Q 41.3125 65.921875 37.59375 65.921875 
Q 27.828125 65.921875 22.671875 59.328125 
Q 17.53125 52.734375 16.796875 39.40625 
Q 19.671875 43.65625 24.015625 45.921875 
Q 28.375 48.1875 33.59375 48.1875 
Q 44.578125 48.1875 50.953125 41.515625 
Q 57.328125 34.859375 57.328125 23.390625 
Q 57.328125 12.15625 50.6875 5.359375 
Q 44.046875 -1.421875 33.015625 -1.421875 
Q 20.359375 -1.421875 13.671875 8.265625 
Q 6.984375 17.96875 6.984375 36.375 
Q 6.984375 53.65625 15.1875 63.9375 
Q 23.390625 74.21875 37.203125 74.21875 
Q 40.921875 74.21875 44.703125 73.484375 
Q 48.484375 72.75 52.59375 71.296875 
z
" id="DejaVuSans-54"/>
      </defs>
      <g transform="translate(20.878125 315.431781)scale(0.1 -0.1)">
       <use xlink:href="#DejaVuSans-8722"/>
       <use x="83.789062" xlink:href="#DejaVuSans-54"/>
       <use x="147.412109" xlink:href="#DejaVuSans-48"/>
      </g>
     </g>
    </g>
    <g id="ytick_3">
     <g id="line2d_19">
      <path clip-path="url(#p6a486f3ce6)" d="M 48.982813 245.414282 
L 705.382812 245.414282 
" style="fill:none;stroke:#808080;stroke-linecap:square;stroke-opacity:0.2;"/>
     </g>
     <g id="line2d_20">
      <g>
       <use style="stroke:#000000;stroke-width:0.8;" x="48.982813" xlink:href="#m5283978efc" y="245.414282"/>
      </g>
     </g>
     <g id="text_11">
      <!-- −40 -->
      <g transform="translate(20.878125 249.213501)scale(0.1 -0.1)">
       <use xlink:href="#DejaVuSans-8722"/>
       <use x="83.789062" xlink:href="#DejaVuSans-52"/>
       <use x="147.412109" xlink:href="#DejaVuSans-48"/>
      </g>
     </g>
    </g>
    <g id="ytick_4">
     <g id="line2d_21">
      <path clip-path="url(#p6a486f3ce6)" d="M 48.982813 179.196002 
L 705.382812 179.196002 
" style="fill:none;stroke:#808080;stroke-linecap:square;stroke-opacity:0.2;"/>
     </g>
     <g id="line2d_22">
      <g>
       <use style="stroke:#000000;stroke-width:0.8;" x="48.982813" xlink:href="#m5283978efc" y="179.196002"/>
      </g>
     </g>
     <g id="text_12">
      <!-- −20 -->
      <g transform="translate(20.878125 182.995221)scale(0.1 -0.1)">
       <use xlink:href="#DejaVuSans-8722"/>
       <use x="83.789062" xlink:href="#DejaVuSans-50"/>
       <use x="147.412109" xlink:href="#DejaVuSans-48"/>
      </g>
     </g>
    </g>
    <g id="ytick_5">
     <g id="line2d_23">
      <path clip-path="url(#p6a486f3ce6)" d="M 48.982813 112.977722 
L 705.382812 112.977722 
" style="fill:none;stroke:#808080;stroke-linecap:square;stroke-opacity:0.2;"/>
     </g>
     <g id="line2d_24">
      <g>
       <use style="stroke:#000000;stroke-width:0.8;" x="48.982813" xlink:href="#m5283978efc" y="112.977722"/>
      </g>
     </g>
     <g id="text_13">
      <!-- 0 -->
      <g transform="translate(35.620313 116.776941)scale(0.1 -0.1)">
       <use xlink:href="#DejaVuSans-48"/>
      </g>
     </g>
    </g>
    <g id="ytick_6">
     <g id="line2d_25">
      <path clip-path="url(#p6a486f3ce6)" d="M 48.982813 46.759442 
L 705.382812 46.759442 
" style="fill:none;stroke:#808080;stroke-linecap:square;stroke-opacity:0.2;"/>
     </g>
     <g id="line2d_26">
      <g>
       <use style="stroke:#000000;stroke-width:0.8;" x="48.982813" xlink:href="#m5283978efc" y="46.759442"/>
      </g>
     </g>
     <g id="text_14">
      <!-- 20 -->
      <g transform="translate(29.257813 50.558661)scale(0.1 -0.1)">
       <use xlink:href="#DejaVuSans-50"/>
       <use x="63.623047" xlink:href="#DejaVuSans-48"/>
      </g>
     </g>
    </g>
    <g id="text_15">
     <!-- Workplace Mobility -->
     <defs>
      <path d="M 3.328125 72.90625 
L 13.28125 72.90625 
L 28.609375 11.28125 
L 43.890625 72.90625 
L 54.984375 72.90625 
L 70.3125 11.28125 
L 85.59375 72.90625 
L 95.609375 72.90625 
L 77.296875 0 
L 64.890625 0 
L 49.515625 63.28125 
L 33.984375 0 
L 21.578125 0 
z
" id="DejaVuSans-87"/>
      <path d="M 30.609375 48.390625 
Q 23.390625 48.390625 19.1875 42.75 
Q 14.984375 37.109375 14.984375 27.296875 
Q 14.984375 17.484375 19.15625 11.84375 
Q 23.34375 6.203125 30.609375 6.203125 
Q 37.796875 6.203125 41.984375 11.859375 
Q 46.1875 17.53125 46.1875 27.296875 
Q 46.1875 37.015625 41.984375 42.703125 
Q 37.796875 48.390625 30.609375 48.390625 
z
M 30.609375 56 
Q 42.328125 56 49.015625 48.375 
Q 55.71875 40.765625 55.71875 27.296875 
Q 55.71875 13.875 49.015625 6.21875 
Q 42.328125 -1.421875 30.609375 -1.421875 
Q 18.84375 -1.421875 12.171875 6.21875 
Q 5.515625 13.875 5.515625 27.296875 
Q 5.515625 40.765625 12.171875 48.375 
Q 18.84375 56 30.609375 56 
z
" id="DejaVuSans-111"/>
      <path d="M 41.109375 46.296875 
Q 39.59375 47.171875 37.8125 47.578125 
Q 36.03125 48 33.890625 48 
Q 26.265625 48 22.1875 43.046875 
Q 18.109375 38.09375 18.109375 28.8125 
L 18.109375 0 
L 9.078125 0 
L 9.078125 54.6875 
L 18.109375 54.6875 
L 18.109375 46.1875 
Q 20.953125 51.171875 25.484375 53.578125 
Q 30.03125 56 36.53125 56 
Q 37.453125 56 38.578125 55.875 
Q 39.703125 55.765625 41.0625 55.515625 
z
" id="DejaVuSans-114"/>
      <path d="M 9.078125 75.984375 
L 18.109375 75.984375 
L 18.109375 31.109375 
L 44.921875 54.6875 
L 56.390625 54.6875 
L 27.390625 29.109375 
L 57.625 0 
L 45.90625 0 
L 18.109375 26.703125 
L 18.109375 0 
L 9.078125 0 
z
" id="DejaVuSans-107"/>
      <path d="M 18.109375 8.203125 
L 18.109375 -20.796875 
L 9.078125 -20.796875 
L 9.078125 54.6875 
L 18.109375 54.6875 
L 18.109375 46.390625 
Q 20.953125 51.265625 25.265625 53.625 
Q 29.59375 56 35.59375 56 
Q 45.5625 56 51.78125 48.09375 
Q 58.015625 40.1875 58.015625 27.296875 
Q 58.015625 14.40625 51.78125 6.484375 
Q 45.5625 -1.421875 35.59375 -1.421875 
Q 29.59375 -1.421875 25.265625 0.953125 
Q 20.953125 3.328125 18.109375 8.203125 
z
M 48.6875 27.296875 
Q 48.6875 37.203125 44.609375 42.84375 
Q 40.53125 48.484375 33.40625 48.484375 
Q 26.265625 48.484375 22.1875 42.84375 
Q 18.109375 37.203125 18.109375 27.296875 
Q 18.109375 17.390625 22.1875 11.75 
Q 26.265625 6.109375 33.40625 6.109375 
Q 40.53125 6.109375 44.609375 11.75 
Q 48.6875 17.390625 48.6875 27.296875 
z
" id="DejaVuSans-112"/>
      <path d="M 9.421875 75.984375 
L 18.40625 75.984375 
L 18.40625 0 
L 9.421875 0 
z
" id="DejaVuSans-108"/>
      <path d="M 48.78125 52.59375 
L 48.78125 44.1875 
Q 44.96875 46.296875 41.140625 47.34375 
Q 37.3125 48.390625 33.40625 48.390625 
Q 24.65625 48.390625 19.8125 42.84375 
Q 14.984375 37.3125 14.984375 27.296875 
Q 14.984375 17.28125 19.8125 11.734375 
Q 24.65625 6.203125 33.40625 6.203125 
Q 37.3125 6.203125 41.140625 7.25 
Q 44.96875 8.296875 48.78125 10.40625 
L 48.78125 2.09375 
Q 45.015625 0.34375 40.984375 -0.53125 
Q 36.96875 -1.421875 32.421875 -1.421875 
Q 20.0625 -1.421875 12.78125 6.34375 
Q 5.515625 14.109375 5.515625 27.296875 
Q 5.515625 40.671875 12.859375 48.328125 
Q 20.21875 56 33.015625 56 
Q 37.15625 56 41.109375 55.140625 
Q 45.0625 54.296875 48.78125 52.59375 
z
" id="DejaVuSans-99"/>
      <path id="DejaVuSans-32"/>
      <path d="M 9.8125 72.90625 
L 24.515625 72.90625 
L 43.109375 23.296875 
L 61.8125 72.90625 
L 76.515625 72.90625 
L 76.515625 0 
L 66.890625 0 
L 66.890625 64.015625 
L 48.09375 14.015625 
L 38.1875 14.015625 
L 19.390625 64.015625 
L 19.390625 0 
L 9.8125 0 
z
" id="DejaVuSans-77"/>
      <path d="M 48.6875 27.296875 
Q 48.6875 37.203125 44.609375 42.84375 
Q 40.53125 48.484375 33.40625 48.484375 
Q 26.265625 48.484375 22.1875 42.84375 
Q 18.109375 37.203125 18.109375 27.296875 
Q 18.109375 17.390625 22.1875 11.75 
Q 26.265625 6.109375 33.40625 6.109375 
Q 40.53125 6.109375 44.609375 11.75 
Q 48.6875 17.390625 48.6875 27.296875 
z
M 18.109375 46.390625 
Q 20.953125 51.265625 25.265625 53.625 
Q 29.59375 56 35.59375 56 
Q 45.5625 56 51.78125 48.09375 
Q 58.015625 40.1875 58.015625 27.296875 
Q 58.015625 14.40625 51.78125 6.484375 
Q 45.5625 -1.421875 35.59375 -1.421875 
Q 29.59375 -1.421875 25.265625 0.953125 
Q 20.953125 3.328125 18.109375 8.203125 
L 18.109375 0 
L 9.078125 0 
L 9.078125 75.984375 
L 18.109375 75.984375 
z
" id="DejaVuSans-98"/>
      <path d="M 9.421875 54.6875 
L 18.40625 54.6875 
L 18.40625 0 
L 9.421875 0 
z
M 9.421875 75.984375 
L 18.40625 75.984375 
L 18.40625 64.59375 
L 9.421875 64.59375 
z
" id="DejaVuSans-105"/>
      <path d="M 32.171875 -5.078125 
Q 28.375 -14.84375 24.75 -17.8125 
Q 21.140625 -20.796875 15.09375 -20.796875 
L 7.90625 -20.796875 
L 7.90625 -13.28125 
L 13.1875 -13.28125 
Q 16.890625 -13.28125 18.9375 -11.515625 
Q 21 -9.765625 23.484375 -3.21875 
L 25.09375 0.875 
L 2.984375 54.6875 
L 12.5 54.6875 
L 29.59375 11.921875 
L 46.6875 54.6875 
L 56.203125 54.6875 
z
" id="DejaVuSans-121"/>
     </defs>
     <g transform="translate(14.798438 259.354844)rotate(-90)scale(0.1 -0.1)">
      <use xlink:href="#DejaVuSans-87"/>
      <use x="93.001953" xlink:href="#DejaVuSans-111"/>
      <use x="154.183594" xlink:href="#DejaVuSans-114"/>
      <use x="195.296875" xlink:href="#DejaVuSans-107"/>
      <use x="253.207031" xlink:href="#DejaVuSans-112"/>
      <use x="316.683594" xlink:href="#DejaVuSans-108"/>
      <use x="344.466797" xlink:href="#DejaVuSans-97"/>
      <use x="405.746094" xlink:href="#DejaVuSans-99"/>
      <use x="460.726562" xlink:href="#DejaVuSans-101"/>
      <use x="522.25" xlink:href="#DejaVuSans-32"/>
      <use x="554.037109" xlink:href="#DejaVuSans-77"/>
      <use x="640.316406" xlink:href="#DejaVuSans-111"/>
      <use x="701.498047" xlink:href="#DejaVuSans-98"/>
      <use x="764.974609" xlink:href="#DejaVuSans-105"/>
      <use x="792.757812" xlink:href="#DejaVuSans-108"/>
      <use x="820.541016" xlink:href="#DejaVuSans-105"/>
      <use x="848.324219" xlink:href="#DejaVuSans-116"/>
      <use x="887.533203" xlink:href="#DejaVuSans-121"/>
     </g>
    </g>
   </g>
   <g id="line2d_27">
    <defs>
     <path d="M 0 1.5 
C 0.397805 1.5 0.77937 1.341951 1.06066 1.06066 
C 1.341951 0.77937 1.5 0.397805 1.5 0 
C 1.5 -0.397805 1.341951 -0.77937 1.06066 -1.06066 
C 0.77937 -1.341951 0.397805 -1.5 0 -1.5 
C -0.397805 -1.5 -0.77937 -1.341951 -1.06066 -1.06066 
C -1.341951 -0.77937 -1.5 -0.397805 -1.5 0 
C -1.5 0.397805 -1.341951 0.77937 -1.06066 1.06066 
C -0.77937 1.341951 -0.397805 1.5 0 1.5 
z
" id="m5f20301f9f" style="stroke:#000000;"/>
    </defs>
    <g clip-path="url(#p6a486f3ce6)">
     <use style="stroke:#000000;" x="78.819176" xlink:href="#m5f20301f9f" y="103.04498"/>
     <use style="stroke:#000000;" x="85.923072" xlink:href="#m5f20301f9f" y="116.288636"/>
     <use style="stroke:#000000;" x="93.026968" xlink:href="#m5f20301f9f" y="56.692184"/>
     <use style="stroke:#000000;" x="100.130864" xlink:href="#m5f20301f9f" y="66.624926"/>
     <use style="stroke:#000000;" x="107.234761" xlink:href="#m5f20301f9f" y="69.93584"/>
     <use style="stroke:#000000;" x="114.338657" xlink:href="#m5f20301f9f" y="69.93584"/>
     <use style="stroke:#000000;" x="121.442553" xlink:href="#m5f20301f9f" y="60.003098"/>
     <use style="stroke:#000000;" x="128.546449" xlink:href="#m5f20301f9f" y="103.04498"/>
     <use style="stroke:#000000;" x="135.650345" xlink:href="#m5f20301f9f" y="119.59955"/>
     <use style="stroke:#000000;" x="142.754241" xlink:href="#m5f20301f9f" y="56.692184"/>
     <use style="stroke:#000000;" x="149.858137" xlink:href="#m5f20301f9f" y="63.314012"/>
     <use style="stroke:#000000;" x="156.962033" xlink:href="#m5f20301f9f" y="66.624926"/>
     <use style="stroke:#000000;" x="164.065929" xlink:href="#m5f20301f9f" y="66.624926"/>
     <use style="stroke:#000000;" x="171.169825" xlink:href="#m5f20301f9f" y="56.692184"/>
     <use style="stroke:#000000;" x="178.273722" xlink:href="#m5f20301f9f" y="99.734066"/>
     <use style="stroke:#000000;" x="185.377618" xlink:href="#m5f20301f9f" y="116.288636"/>
     <use style="stroke:#000000;" x="192.481514" xlink:href="#m5f20301f9f" y="79.868582"/>
     <use style="stroke:#000000;" x="199.58541" xlink:href="#m5f20301f9f" y="63.314012"/>
     <use style="stroke:#000000;" x="206.689306" xlink:href="#m5f20301f9f" y="66.624926"/>
     <use style="stroke:#000000;" x="213.793202" xlink:href="#m5f20301f9f" y="69.93584"/>
     <use style="stroke:#000000;" x="220.897098" xlink:href="#m5f20301f9f" y="60.003098"/>
     <use style="stroke:#000000;" x="228.000994" xlink:href="#m5f20301f9f" y="106.355894"/>
     <use style="stroke:#000000;" x="235.10489" xlink:href="#m5f20301f9f" y="119.59955"/>
     <use style="stroke:#000000;" x="242.208787" xlink:href="#m5f20301f9f" y="159.330518"/>
     <use style="stroke:#000000;" x="249.312683" xlink:href="#m5f20301f9f" y="69.93584"/>
     <use style="stroke:#000000;" x="256.416579" xlink:href="#m5f20301f9f" y="66.624926"/>
     <use style="stroke:#000000;" x="263.520475" xlink:href="#m5f20301f9f" y="69.93584"/>
     <use style="stroke:#000000;" x="270.624371" xlink:href="#m5f20301f9f" y="66.624926"/>
     <use style="stroke:#000000;" x="277.728267" xlink:href="#m5f20301f9f" y="103.04498"/>
     <use style="stroke:#000000;" x="284.832163" xlink:href="#m5f20301f9f" y="116.288636"/>
     <use style="stroke:#000000;" x="291.936059" xlink:href="#m5f20301f9f" y="73.246754"/>
     <use style="stroke:#000000;" x="299.039955" xlink:href="#m5f20301f9f" y="96.423152"/>
     <use style="stroke:#000000;" x="306.143851" xlink:href="#m5f20301f9f" y="106.355894"/>
     <use style="stroke:#000000;" x="313.247748" xlink:href="#m5f20301f9f" y="112.977722"/>
     <use style="stroke:#000000;" x="320.351644" xlink:href="#m5f20301f9f" y="112.977722"/>
     <use style="stroke:#000000;" x="327.45554" xlink:href="#m5f20301f9f" y="126.221378"/>
     <use style="stroke:#000000;" x="334.559436" xlink:href="#m5f20301f9f" y="152.70869"/>
     <use style="stroke:#000000;" x="341.663332" xlink:href="#m5f20301f9f" y="132.843206"/>
     <use style="stroke:#000000;" x="348.767228" xlink:href="#m5f20301f9f" y="175.885088"/>
     <use style="stroke:#000000;" x="355.871124" xlink:href="#m5f20301f9f" y="189.128744"/>
     <use style="stroke:#000000;" x="362.97502" xlink:href="#m5f20301f9f" y="202.3724"/>
     <use style="stroke:#000000;" x="370.078916" xlink:href="#m5f20301f9f" y="199.061486"/>
     <use style="stroke:#000000;" x="377.182812" xlink:href="#m5f20301f9f" y="202.3724"/>
     <use style="stroke:#000000;" x="384.286709" xlink:href="#m5f20301f9f" y="222.237884"/>
     <use style="stroke:#000000;" x="391.390605" xlink:href="#m5f20301f9f" y="218.92697"/>
     <use style="stroke:#000000;" x="398.494501" xlink:href="#m5f20301f9f" y="232.170626"/>
     <use style="stroke:#000000;" x="405.598397" xlink:href="#m5f20301f9f" y="235.48154"/>
     <use style="stroke:#000000;" x="412.702293" xlink:href="#m5f20301f9f" y="238.792454"/>
     <use style="stroke:#000000;" x="419.806189" xlink:href="#m5f20301f9f" y="232.170626"/>
     <use style="stroke:#000000;" x="426.910085" xlink:href="#m5f20301f9f" y="222.237884"/>
     <use style="stroke:#000000;" x="434.013981" xlink:href="#m5f20301f9f" y="232.170626"/>
     <use style="stroke:#000000;" x="441.117877" xlink:href="#m5f20301f9f" y="235.48154"/>
     <use style="stroke:#000000;" x="448.221774" xlink:href="#m5f20301f9f" y="242.103368"/>
     <use style="stroke:#000000;" x="455.32567" xlink:href="#m5f20301f9f" y="242.103368"/>
     <use style="stroke:#000000;" x="462.429566" xlink:href="#m5f20301f9f" y="245.414282"/>
     <use style="stroke:#000000;" x="469.533462" xlink:href="#m5f20301f9f" y="384.47267"/>
     <use style="stroke:#000000;" x="476.637358" xlink:href="#m5f20301f9f" y="248.725196"/>
     <use style="stroke:#000000;" x="483.741254" xlink:href="#m5f20301f9f" y="255.347024"/>
     <use style="stroke:#000000;" x="490.84515" xlink:href="#m5f20301f9f" y="371.229014"/>
     <use style="stroke:#000000;" x="497.949046" xlink:href="#m5f20301f9f" y="252.03611"/>
     <use style="stroke:#000000;" x="505.052942" xlink:href="#m5f20301f9f" y="248.725196"/>
     <use style="stroke:#000000;" x="512.156838" xlink:href="#m5f20301f9f" y="248.725196"/>
     <use style="stroke:#000000;" x="519.260735" xlink:href="#m5f20301f9f" y="242.103368"/>
     <use style="stroke:#000000;" x="526.364631" xlink:href="#m5f20301f9f" y="212.305142"/>
     <use style="stroke:#000000;" x="533.468527" xlink:href="#m5f20301f9f" y="225.548798"/>
     <use style="stroke:#000000;" x="540.572423" xlink:href="#m5f20301f9f" y="228.859712"/>
     <use style="stroke:#000000;" x="547.676319" xlink:href="#m5f20301f9f" y="235.48154"/>
     <use style="stroke:#000000;" x="554.780215" xlink:href="#m5f20301f9f" y="235.48154"/>
     <use style="stroke:#000000;" x="561.884111" xlink:href="#m5f20301f9f" y="235.48154"/>
     <use style="stroke:#000000;" x="568.988007" xlink:href="#m5f20301f9f" y="228.859712"/>
     <use style="stroke:#000000;" x="576.091903" xlink:href="#m5f20301f9f" y="255.347024"/>
     <use style="stroke:#000000;" x="583.1958" xlink:href="#m5f20301f9f" y="218.92697"/>
     <use style="stroke:#000000;" x="590.299696" xlink:href="#m5f20301f9f" y="242.103368"/>
     <use style="stroke:#000000;" x="597.403592" xlink:href="#m5f20301f9f" y="225.548798"/>
     <use style="stroke:#000000;" x="604.507488" xlink:href="#m5f20301f9f" y="225.548798"/>
     <use style="stroke:#000000;" x="611.611384" xlink:href="#m5f20301f9f" y="225.548798"/>
     <use style="stroke:#000000;" x="618.71528" xlink:href="#m5f20301f9f" y="215.616056"/>
     <use style="stroke:#000000;" x="625.819176" xlink:href="#m5f20301f9f" y="202.3724"/>
     <use style="stroke:#000000;" x="632.923072" xlink:href="#m5f20301f9f" y="208.994228"/>
     <use style="stroke:#000000;" x="640.026968" xlink:href="#m5f20301f9f" y="248.725196"/>
     <use style="stroke:#000000;" x="647.130864" xlink:href="#m5f20301f9f" y="215.616056"/>
     <use style="stroke:#000000;" x="654.234761" xlink:href="#m5f20301f9f" y="215.616056"/>
     <use style="stroke:#000000;" x="661.338657" xlink:href="#m5f20301f9f" y="215.616056"/>
     <use style="stroke:#000000;" x="668.442553" xlink:href="#m5f20301f9f" y="205.683314"/>
     <use style="stroke:#000000;" x="675.546449" xlink:href="#m5f20301f9f" y="189.128744"/>
    </g>
   </g>
   <g id="line2d_28">
    <path clip-path="url(#p6a486f3ce6)" d="M 78.819176 78.153123 
L 85.923072 88.456714 
L 93.026968 86.88674 
L 100.130864 71.521302 
L 107.234761 72.434494 
L 114.338657 73.716339 
L 121.442553 77.48147 
L 128.546449 78.630365 
L 135.650345 88.933958 
L 142.754241 87.364067 
L 149.858137 71.998713 
L 156.962033 72.911987 
L 164.065929 74.774428 
L 171.169825 79.120154 
L 178.273722 80.850084 
L 185.377618 91.734711 
L 192.481514 90.745773 
L 199.58541 75.961557 
L 206.689306 77.45597 
L 213.793202 79.319036 
L 220.897098 83.665817 
L 228.000994 85.396362 
L 235.10489 96.281605 
L 242.208787 95.293283 
L 249.312683 80.509498 
L 256.416579 82.004341 
L 263.520475 83.867837 
L 270.624371 88.214619 
L 277.728267 89.94615 
L 284.832163 100.832378 
L 291.936059 107.432477 
L 299.039955 100.237113 
L 306.143851 109.320377 
L 313.247748 118.777324 
L 320.351644 130.717558 
L 327.45554 140.041555 
L 334.559436 158.520249 
L 341.663332 165.125379 
L 348.767228 157.935045 
L 355.871124 167.023339 
L 362.97502 176.480286 
L 370.078916 188.419982 
L 377.182812 197.743441 
L 384.286709 216.221597 
L 391.390605 221.236401 
L 398.494501 212.455741 
L 405.598397 219.953709 
L 412.702293 226.121001 
L 419.806189 234.771578 
L 426.910085 240.80573 
L 434.013981 255.994579 
L 441.117877 259.309863 
L 448.221774 248.829682 
L 455.32567 254.62813 
L 462.429566 260.795231 
L 469.533462 269.444465 
L 476.637358 275.477462 
L 483.741254 282.003498 
L 490.84515 276.655969 
L 497.949046 257.512976 
L 505.052942 254.648612 
L 512.156838 252.152901 
L 519.260735 252.140476 
L 526.364631 249.511815 
L 533.468527 256.037852 
L 540.572423 252.347064 
L 547.676319 234.860812 
L 554.780215 233.653189 
L 561.884111 232.815087 
L 568.988007 234.46027 
L 576.091903 233.489217 
L 583.1958 241.672862 
L 590.299696 237.982941 
L 597.403592 220.497557 
L 604.507488 219.290802 
L 611.611384 218.452699 
L 618.71528 220.097883 
L 625.819176 219.12683 
L 632.923072 227.310474 
L 640.026968 223.620554 
L 647.130864 206.135169 
L 654.234761 204.928414 
L 661.338657 204.090312 
L 668.442553 205.735495 
L 675.546449 204.764442 
" style="fill:none;stroke:#0072b2;stroke-linecap:square;stroke-width:1.5;"/>
   </g>
   <g id="line2d_29">
    <path clip-path="url(#p6a486f3ce6)" d="M 78.819176 78.174067 
L 85.923072 78.242243 
L 93.026968 78.31042 
L 100.130864 78.378597 
L 107.234761 78.446774 
L 114.338657 78.514952 
L 121.442553 78.58313 
L 128.546449 78.651309 
L 135.650345 78.719487 
L 142.754241 78.787747 
L 149.858137 78.856007 
L 156.962033 78.924267 
L 164.065929 79.573041 
L 171.169825 80.221814 
L 178.273722 80.871027 
L 185.377618 81.52024 
L 192.481514 82.169453 
L 199.58541 82.818852 
L 206.689306 83.46825 
L 213.793202 84.117649 
L 220.897098 84.767477 
L 228.000994 85.417305 
L 235.10489 86.067134 
L 242.208787 86.716963 
L 249.312683 87.366792 
L 256.416579 88.016621 
L 263.520475 88.66645 
L 270.624371 89.316279 
L 277.728267 89.967093 
L 284.832163 90.617907 
L 291.936059 98.856157 
L 299.039955 107.094407 
L 306.143851 115.332657 
L 313.247748 123.575937 
L 320.351644 131.819218 
L 327.45554 140.062498 
L 334.559436 148.305778 
L 341.663332 156.549059 
L 348.767228 164.792339 
L 355.871124 173.035619 
L 362.97502 181.278899 
L 370.078916 189.521641 
L 377.182812 197.764384 
L 384.286709 206.007127 
L 391.390605 212.660081 
L 398.494501 219.313035 
L 405.598397 225.96599 
L 412.702293 230.919614 
L 419.806189 235.873238 
L 426.910085 240.826673 
L 434.013981 245.780108 
L 441.117877 250.733543 
L 448.221774 255.686977 
L 455.32567 260.64041 
L 462.429566 265.593844 
L 469.533462 270.546125 
L 476.637358 275.498405 
L 483.741254 271.789027 
L 490.84515 268.079649 
L 497.949046 264.37027 
L 505.052942 260.660892 
L 512.156838 256.951514 
L 519.260735 253.242136 
L 526.364631 249.532758 
L 533.468527 245.823381 
L 540.572423 243.770744 
L 547.676319 241.718107 
L 554.780215 239.66547 
L 561.884111 237.6137 
L 568.988007 235.56193 
L 576.091903 233.510161 
L 583.1958 231.458391 
L 590.299696 229.406621 
L 597.403592 227.354852 
L 604.507488 225.303082 
L 611.611384 223.251312 
L 618.71528 221.199543 
L 625.819176 219.147773 
L 632.923072 217.096003 
L 640.026968 215.044234 
L 647.130864 212.992464 
L 654.234761 210.940694 
L 661.338657 208.888925 
L 668.442553 206.837155 
L 675.546449 204.785385 
" style="fill:none;stroke:#0000ff;stroke-linecap:square;stroke-width:1.5;"/>
   </g>
   <g id="line2d_30">
    <path clip-path="url(#p6a486f3ce6)" d="M 156.962033 401.718125 
L 156.962033 22.318125 
" style="fill:none;stroke:#0000ff;stroke-dasharray:5.55,2.4;stroke-dashoffset:0;stroke-width:1.5;"/>
   </g>
   <g id="line2d_31">
    <path clip-path="url(#p6a486f3ce6)" d="M 284.832163 401.718125 
L 284.832163 22.318125 
" style="fill:none;stroke:#0000ff;stroke-dasharray:5.55,2.4;stroke-dashoffset:0;stroke-width:1.5;"/>
   </g>
   <g id="line2d_32">
    <path clip-path="url(#p6a486f3ce6)" d="M 384.286709 401.718125 
L 384.286709 22.318125 
" style="fill:none;stroke:#0000ff;stroke-dasharray:5.55,2.4;stroke-dashoffset:0;stroke-width:1.5;"/>
   </g>
   <g id="line2d_33">
    <path clip-path="url(#p6a486f3ce6)" d="M 405.598397 401.718125 
L 405.598397 22.318125 
" style="fill:none;stroke:#0000ff;stroke-dasharray:5.55,2.4;stroke-dashoffset:0;stroke-width:1.5;"/>
   </g>
   <g id="line2d_34">
    <path clip-path="url(#p6a486f3ce6)" d="M 476.637358 401.718125 
L 476.637358 22.318125 
" style="fill:none;stroke:#0000ff;stroke-dasharray:5.55,2.4;stroke-dashoffset:0;stroke-width:1.5;"/>
   </g>
   <g id="line2d_35">
    <path clip-path="url(#p6a486f3ce6)" d="M 533.468527 401.718125 
L 533.468527 22.318125 
" style="fill:none;stroke:#0000ff;stroke-dasharray:5.55,2.4;stroke-dashoffset:0;stroke-width:1.5;"/>
   </g>
   <g id="line2d_36">
    <path clip-path="url(#p6a486f3ce6)" d="M 284.832163 401.718125 
L 284.832163 22.318125 
" style="fill:none;stroke:#ff0000;stroke-linecap:square;stroke-width:3;"/>
   </g>
   <g id="patch_3">
    <path d="M 48.982813 401.718125 
L 48.982813 22.318125 
" style="fill:none;stroke:#000000;stroke-linecap:square;stroke-linejoin:miter;stroke-width:0.8;"/>
   </g>
   <g id="patch_4">
    <path d="M 705.382812 401.718125 
L 705.382812 22.318125 
" style="fill:none;stroke:#000000;stroke-linecap:square;stroke-linejoin:miter;stroke-width:0.8;"/>
   </g>
   <g id="patch_5">
    <path d="M 48.982813 401.718125 
L 705.382812 401.718125 
" style="fill:none;stroke:#000000;stroke-linecap:square;stroke-linejoin:miter;stroke-width:0.8;"/>
   </g>
   <g id="patch_6">
    <path d="M 48.982813 22.318125 
L 705.382812 22.318125 
" style="fill:none;stroke:#000000;stroke-linecap:square;stroke-linejoin:miter;stroke-width:0.8;"/>
   </g>
   <g id="text_16">
    <!-- Workplace Mobility Graph for Australia -->
    <defs>
     <path d="M 59.515625 10.40625 
L 59.515625 29.984375 
L 43.40625 29.984375 
L 43.40625 38.09375 
L 69.28125 38.09375 
L 69.28125 6.78125 
Q 63.578125 2.734375 56.6875 0.65625 
Q 49.8125 -1.421875 42 -1.421875 
Q 24.90625 -1.421875 15.25 8.5625 
Q 5.609375 18.5625 5.609375 36.375 
Q 5.609375 54.25 15.25 64.234375 
Q 24.90625 74.21875 42 74.21875 
Q 49.125 74.21875 55.546875 72.453125 
Q 61.96875 70.703125 67.390625 67.28125 
L 67.390625 56.78125 
Q 61.921875 61.421875 55.765625 63.765625 
Q 49.609375 66.109375 42.828125 66.109375 
Q 29.4375 66.109375 22.71875 58.640625 
Q 16.015625 51.171875 16.015625 36.375 
Q 16.015625 21.625 22.71875 14.15625 
Q 29.4375 6.6875 42.828125 6.6875 
Q 48.046875 6.6875 52.140625 7.59375 
Q 56.25 8.5 59.515625 10.40625 
z
" id="DejaVuSans-71"/>
     <path d="M 54.890625 33.015625 
L 54.890625 0 
L 45.90625 0 
L 45.90625 32.71875 
Q 45.90625 40.484375 42.875 44.328125 
Q 39.84375 48.1875 33.796875 48.1875 
Q 26.515625 48.1875 22.3125 43.546875 
Q 18.109375 38.921875 18.109375 30.90625 
L 18.109375 0 
L 9.078125 0 
L 9.078125 75.984375 
L 18.109375 75.984375 
L 18.109375 46.1875 
Q 21.34375 51.125 25.703125 53.5625 
Q 30.078125 56 35.796875 56 
Q 45.21875 56 50.046875 50.171875 
Q 54.890625 44.34375 54.890625 33.015625 
z
" id="DejaVuSans-104"/>
     <path d="M 37.109375 75.984375 
L 37.109375 68.5 
L 28.515625 68.5 
Q 23.6875 68.5 21.796875 66.546875 
Q 19.921875 64.59375 19.921875 59.515625 
L 19.921875 54.6875 
L 34.71875 54.6875 
L 34.71875 47.703125 
L 19.921875 47.703125 
L 19.921875 0 
L 10.890625 0 
L 10.890625 47.703125 
L 2.296875 47.703125 
L 2.296875 54.6875 
L 10.890625 54.6875 
L 10.890625 58.5 
Q 10.890625 67.625 15.140625 71.796875 
Q 19.390625 75.984375 28.609375 75.984375 
z
" id="DejaVuSans-102"/>
     <path d="M 34.1875 63.1875 
L 20.796875 26.90625 
L 47.609375 26.90625 
z
M 28.609375 72.90625 
L 39.796875 72.90625 
L 67.578125 0 
L 57.328125 0 
L 50.6875 18.703125 
L 17.828125 18.703125 
L 11.1875 0 
L 0.78125 0 
z
" id="DejaVuSans-65"/>
     <path d="M 8.5 21.578125 
L 8.5 54.6875 
L 17.484375 54.6875 
L 17.484375 21.921875 
Q 17.484375 14.15625 20.5 10.265625 
Q 23.53125 6.390625 29.59375 6.390625 
Q 36.859375 6.390625 41.078125 11.03125 
Q 45.3125 15.671875 45.3125 23.6875 
L 45.3125 54.6875 
L 54.296875 54.6875 
L 54.296875 0 
L 45.3125 0 
L 45.3125 8.40625 
Q 42.046875 3.421875 37.71875 1 
Q 33.40625 -1.421875 27.6875 -1.421875 
Q 18.265625 -1.421875 13.375 4.4375 
Q 8.5 10.296875 8.5 21.578125 
z
M 31.109375 56 
z
" id="DejaVuSans-117"/>
     <path d="M 44.28125 53.078125 
L 44.28125 44.578125 
Q 40.484375 46.53125 36.375 47.5 
Q 32.28125 48.484375 27.875 48.484375 
Q 21.1875 48.484375 17.84375 46.4375 
Q 14.5 44.390625 14.5 40.28125 
Q 14.5 37.15625 16.890625 35.375 
Q 19.28125 33.59375 26.515625 31.984375 
L 29.59375 31.296875 
Q 39.15625 29.25 43.1875 25.515625 
Q 47.21875 21.78125 47.21875 15.09375 
Q 47.21875 7.46875 41.1875 3.015625 
Q 35.15625 -1.421875 24.609375 -1.421875 
Q 20.21875 -1.421875 15.453125 -0.5625 
Q 10.6875 0.296875 5.421875 2 
L 5.421875 11.28125 
Q 10.40625 8.6875 15.234375 7.390625 
Q 20.0625 6.109375 24.8125 6.109375 
Q 31.15625 6.109375 34.5625 8.28125 
Q 37.984375 10.453125 37.984375 14.40625 
Q 37.984375 18.0625 35.515625 20.015625 
Q 33.0625 21.96875 24.703125 23.78125 
L 21.578125 24.515625 
Q 13.234375 26.265625 9.515625 29.90625 
Q 5.8125 33.546875 5.8125 39.890625 
Q 5.8125 47.609375 11.28125 51.796875 
Q 16.75 56 26.8125 56 
Q 31.78125 56 36.171875 55.265625 
Q 40.578125 54.546875 44.28125 53.078125 
z
" id="DejaVuSans-115"/>
    </defs>
    <g transform="translate(261.465312 16.318125)scale(0.12 -0.12)">
     <use xlink:href="#DejaVuSans-87"/>
     <use x="93.001953" xlink:href="#DejaVuSans-111"/>
     <use x="154.183594" xlink:href="#DejaVuSans-114"/>
     <use x="195.296875" xlink:href="#DejaVuSans-107"/>
     <use x="253.207031" xlink:href="#DejaVuSans-112"/>
     <use x="316.683594" xlink:href="#DejaVuSans-108"/>
     <use x="344.466797" xlink:href="#DejaVuSans-97"/>
     <use x="405.746094" xlink:href="#DejaVuSans-99"/>
     <use x="460.726562" xlink:href="#DejaVuSans-101"/>
     <use x="522.25" xlink:href="#DejaVuSans-32"/>
     <use x="554.037109" xlink:href="#DejaVuSans-77"/>
     <use x="640.316406" xlink:href="#DejaVuSans-111"/>
     <use x="701.498047" xlink:href="#DejaVuSans-98"/>
     <use x="764.974609" xlink:href="#DejaVuSans-105"/>
     <use x="792.757812" xlink:href="#DejaVuSans-108"/>
     <use x="820.541016" xlink:href="#DejaVuSans-105"/>
     <use x="848.324219" xlink:href="#DejaVuSans-116"/>
     <use x="887.533203" xlink:href="#DejaVuSans-121"/>
     <use x="946.712891" xlink:href="#DejaVuSans-32"/>
     <use x="978.5" xlink:href="#DejaVuSans-71"/>
     <use x="1055.990234" xlink:href="#DejaVuSans-114"/>
     <use x="1097.103516" xlink:href="#DejaVuSans-97"/>
     <use x="1158.382812" xlink:href="#DejaVuSans-112"/>
     <use x="1221.859375" xlink:href="#DejaVuSans-104"/>
     <use x="1285.238281" xlink:href="#DejaVuSans-32"/>
     <use x="1317.025391" xlink:href="#DejaVuSans-102"/>
     <use x="1352.230469" xlink:href="#DejaVuSans-111"/>
     <use x="1413.412109" xlink:href="#DejaVuSans-114"/>
     <use x="1454.525391" xlink:href="#DejaVuSans-32"/>
     <use x="1486.3125" xlink:href="#DejaVuSans-65"/>
     <use x="1554.720703" xlink:href="#DejaVuSans-117"/>
     <use x="1618.099609" xlink:href="#DejaVuSans-115"/>
     <use x="1670.199219" xlink:href="#DejaVuSans-116"/>
     <use x="1709.408203" xlink:href="#DejaVuSans-114"/>
     <use x="1750.521484" xlink:href="#DejaVuSans-97"/>
     <use x="1811.800781" xlink:href="#DejaVuSans-108"/>
     <use x="1839.583984" xlink:href="#DejaVuSans-105"/>
     <use x="1867.367188" xlink:href="#DejaVuSans-97"/>
    </g>
   </g>
   <g id="legend_1">
    <g id="patch_7">
     <path d="M 543.907812 44.99625 
L 698.382812 44.99625 
Q 700.382812 44.99625 700.382812 42.99625 
L 700.382812 29.318125 
Q 700.382812 27.318125 698.382812 27.318125 
L 543.907812 27.318125 
Q 541.907812 27.318125 541.907812 29.318125 
L 541.907812 42.99625 
Q 541.907812 44.99625 543.907812 44.99625 
z
" style="fill:#ffffff;opacity:0.8;stroke:#cccccc;stroke-linejoin:miter;"/>
    </g>
    <g id="line2d_37">
     <path d="M 545.907812 35.416562 
L 565.907812 35.416562 
" style="fill:none;stroke:#ff0000;stroke-linecap:square;stroke-width:3;"/>
    </g>
    <g id="line2d_38"/>
    <g id="text_17">
     <!-- Effective Lockdown date -->
     <defs>
      <path d="M 9.8125 72.90625 
L 55.90625 72.90625 
L 55.90625 64.59375 
L 19.671875 64.59375 
L 19.671875 43.015625 
L 54.390625 43.015625 
L 54.390625 34.71875 
L 19.671875 34.71875 
L 19.671875 8.296875 
L 56.78125 8.296875 
L 56.78125 0 
L 9.8125 0 
z
" id="DejaVuSans-69"/>
      <path d="M 2.984375 54.6875 
L 12.5 54.6875 
L 29.59375 8.796875 
L 46.6875 54.6875 
L 56.203125 54.6875 
L 35.6875 0 
L 23.484375 0 
z
" id="DejaVuSans-118"/>
      <path d="M 9.8125 72.90625 
L 19.671875 72.90625 
L 19.671875 8.296875 
L 55.171875 8.296875 
L 55.171875 0 
L 9.8125 0 
z
" id="DejaVuSans-76"/>
      <path d="M 45.40625 46.390625 
L 45.40625 75.984375 
L 54.390625 75.984375 
L 54.390625 0 
L 45.40625 0 
L 45.40625 8.203125 
Q 42.578125 3.328125 38.25 0.953125 
Q 33.9375 -1.421875 27.875 -1.421875 
Q 17.96875 -1.421875 11.734375 6.484375 
Q 5.515625 14.40625 5.515625 27.296875 
Q 5.515625 40.1875 11.734375 48.09375 
Q 17.96875 56 27.875 56 
Q 33.9375 56 38.25 53.625 
Q 42.578125 51.265625 45.40625 46.390625 
z
M 14.796875 27.296875 
Q 14.796875 17.390625 18.875 11.75 
Q 22.953125 6.109375 30.078125 6.109375 
Q 37.203125 6.109375 41.296875 11.75 
Q 45.40625 17.390625 45.40625 27.296875 
Q 45.40625 37.203125 41.296875 42.84375 
Q 37.203125 48.484375 30.078125 48.484375 
Q 22.953125 48.484375 18.875 42.84375 
Q 14.796875 37.203125 14.796875 27.296875 
z
" id="DejaVuSans-100"/>
      <path d="M 4.203125 54.6875 
L 13.1875 54.6875 
L 24.421875 12.015625 
L 35.59375 54.6875 
L 46.1875 54.6875 
L 57.421875 12.015625 
L 68.609375 54.6875 
L 77.59375 54.6875 
L 63.28125 0 
L 52.6875 0 
L 40.921875 44.828125 
L 29.109375 0 
L 18.5 0 
z
" id="DejaVuSans-119"/>
      <path d="M 54.890625 33.015625 
L 54.890625 0 
L 45.90625 0 
L 45.90625 32.71875 
Q 45.90625 40.484375 42.875 44.328125 
Q 39.84375 48.1875 33.796875 48.1875 
Q 26.515625 48.1875 22.3125 43.546875 
Q 18.109375 38.921875 18.109375 30.90625 
L 18.109375 0 
L 9.078125 0 
L 9.078125 54.6875 
L 18.109375 54.6875 
L 18.109375 46.1875 
Q 21.34375 51.125 25.703125 53.5625 
Q 30.078125 56 35.796875 56 
Q 45.21875 56 50.046875 50.171875 
Q 54.890625 44.34375 54.890625 33.015625 
z
" id="DejaVuSans-110"/>
     </defs>
     <g transform="translate(573.907812 38.916562)scale(0.1 -0.1)">
      <use xlink:href="#DejaVuSans-69"/>
      <use x="63.183594" xlink:href="#DejaVuSans-102"/>
      <use x="98.388672" xlink:href="#DejaVuSans-102"/>
      <use x="133.59375" xlink:href="#DejaVuSans-101"/>
      <use x="195.117188" xlink:href="#DejaVuSans-99"/>
      <use x="250.097656" xlink:href="#DejaVuSans-116"/>
      <use x="289.306641" xlink:href="#DejaVuSans-105"/>
      <use x="317.089844" xlink:href="#DejaVuSans-118"/>
      <use x="376.269531" xlink:href="#DejaVuSans-101"/>
      <use x="437.792969" xlink:href="#DejaVuSans-32"/>
      <use x="469.580078" xlink:href="#DejaVuSans-76"/>
      <use x="523.542969" xlink:href="#DejaVuSans-111"/>
      <use x="584.724609" xlink:href="#DejaVuSans-99"/>
      <use x="639.705078" xlink:href="#DejaVuSans-107"/>
      <use x="697.615234" xlink:href="#DejaVuSans-100"/>
      <use x="761.091797" xlink:href="#DejaVuSans-111"/>
      <use x="822.273438" xlink:href="#DejaVuSans-119"/>
      <use x="904.060547" xlink:href="#DejaVuSans-110"/>
      <use x="967.439453" xlink:href="#DejaVuSans-32"/>
      <use x="999.226562" xlink:href="#DejaVuSans-100"/>
      <use x="1062.703125" xlink:href="#DejaVuSans-97"/>
      <use x="1123.982422" xlink:href="#DejaVuSans-116"/>
      <use x="1163.191406" xlink:href="#DejaVuSans-101"/>
     </g>
    </g>
   </g>
  </g>
 </g>
 <defs>
  <clipPath id="p6a486f3ce6">
   <rect height="379.4" width="656.4" x="48.982813" y="22.318125"/>
  </clipPath>
 </defs>
</svg>
