<?xml version="1.0" encoding="utf-8" standalone="no"?>
<!DOCTYPE svg PUBLIC "-//W3C//DTD SVG 1.1//EN"
  "http://www.w3.org/Graphics/SVG/1.1/DTD/svg11.dtd">
<!-- Created with matplotlib (https://matplotlib.org/) -->
<svg height="439.274375pt" version="1.1" viewBox="0 0 712.582813 439.274375" width="712.582813pt" xmlns="http://www.w3.org/2000/svg" xmlns:xlink="http://www.w3.org/1999/xlink">
 <defs>
  <style type="text/css">
*{stroke-linecap:butt;stroke-linejoin:round;}
  </style>
 </defs>
 <g id="figure_1">
  <g id="patch_1">
   <path d="M 0 439.274375 
L 712.582813 439.274375 
L 712.582813 0 
L 0 0 
z
" style="fill:#ffffff;"/>
  </g>
  <g id="axes_1">
   <g id="patch_2">
    <path d="M 48.982813 401.718125 
L 705.382812 401.718125 
L 705.382812 22.318125 
L 48.982813 22.318125 
z
" style="fill:#ffffff;"/>
   </g>
   <g id="PolyCollection_1">
    <defs>
     <path d="M 78.819176 -365.56955 
L 78.819176 -304.198263 
L 85.923072 -328.00532 
L 93.026968 -289.478077 
L 100.130864 -277.318062 
L 107.234761 -293.863472 
L 114.338657 -295.559922 
L 121.442553 -289.348599 
L 128.546449 -308.781783 
L 135.650345 -334.383225 
L 142.754241 -295.962949 
L 149.858137 -283.386 
L 156.962033 -297.622734 
L 164.065929 -302.630449 
L 171.169825 -299.075623 
L 178.273722 -314.654326 
L 185.377618 -339.502144 
L 192.481514 -300.720383 
L 199.58541 -282.704466 
L 206.689306 -298.010029 
L 213.793202 -297.312393 
L 220.897098 -289.595846 
L 228.000994 -304.108902 
L 235.10489 -325.30698 
L 242.208787 -279.907459 
L 249.312683 -264.319566 
L 256.416579 -273.108949 
L 263.520475 -276.19071 
L 270.624371 -267.967928 
L 277.728267 -280.412878 
L 284.832163 -302.757967 
L 291.936059 -257.086811 
L 299.039955 -240.796512 
L 306.143851 -254.116163 
L 313.247748 -234.69218 
L 320.351644 -204.696509 
L 327.45554 -199.809754 
L 334.559436 -197.665413 
L 341.663332 -136.286733 
L 348.767228 -97.671645 
L 355.871124 -88.886939 
L 362.97502 -69.671997 
L 370.078916 -66.418135 
L 377.182812 -81.953233 
L 384.286709 -106.024656 
L 391.390605 -66.663036 
L 398.494501 -54.801705 
L 405.598397 -70.12883 
L 412.702293 -73.336919 
L 419.806189 -70.377089 
L 426.910085 -85.922763 
L 434.013981 -112.011596 
L 441.117877 -75.19177 
L 448.221774 -60.435612 
L 455.32567 -75.565065 
L 462.429566 -77.133197 
L 469.533462 -76.907348 
L 476.637358 -90.827569 
L 483.741254 -117.220893 
L 490.84515 -78.360602 
L 497.949046 -66.996413 
L 505.052942 -81.252687 
L 512.156838 -85.393465 
L 519.260735 -79.979758 
L 526.364631 -97.34813 
L 533.468527 -122.480047 
L 540.572423 -85.814249 
L 547.676319 -71.394068 
L 554.780215 -91.917928 
L 561.884111 -91.083184 
L 568.988007 -87.276797 
L 576.091903 -107.128466 
L 583.1958 -132.186501 
L 590.299696 -94.920861 
L 597.403592 -82.655624 
L 604.507488 -97.384371 
L 611.611384 -102.424867 
L 618.71528 -100.525303 
L 625.819176 -116.205496 
L 632.923072 -143.689476 
L 640.026968 -105.546962 
L 647.130864 -90.430481 
L 654.234761 -110.212419 
L 661.338657 -113.321943 
L 668.442553 -110.43808 
L 675.546449 -127.150383 
L 675.546449 -185.705795 
L 675.546449 -185.705795 
L 668.442553 -172.084464 
L 661.338657 -175.719538 
L 654.234761 -171.050053 
L 647.130864 -153.442948 
L 640.026968 -166.143424 
L 632.923072 -204.169056 
L 625.819176 -175.447096 
L 618.71528 -160.671215 
L 611.611384 -163.532895 
L 604.507488 -156.701007 
L 597.403592 -143.385574 
L 590.299696 -153.127522 
L 583.1958 -193.510204 
L 576.091903 -167.586067 
L 568.988007 -149.259365 
L 561.884111 -152.897422 
L 554.780215 -148.731025 
L 547.676319 -132.26139 
L 540.572423 -146.062231 
L 533.468527 -184.763974 
L 526.364631 -157.566611 
L 519.260735 -141.481028 
L 512.156838 -147.959762 
L 505.052942 -142.981154 
L 497.949046 -123.976287 
L 490.84515 -140.255361 
L 483.741254 -177.530861 
L 476.637358 -153.106617 
L 469.533462 -136.047811 
L 462.429566 -140.982411 
L 455.32567 -137.860073 
L 448.221774 -120.697775 
L 441.117877 -134.86336 
L 434.013981 -172.723985 
L 426.910085 -148.816759 
L 419.806189 -130.444048 
L 412.702293 -135.451926 
L 405.598397 -129.328541 
L 398.494501 -114.375382 
L 391.390605 -126.365361 
L 384.286709 -165.580522 
L 377.182812 -142.061273 
L 370.078916 -128.186811 
L 362.97502 -130.582121 
L 355.871124 -151.750375 
L 348.767228 -157.384853 
L 341.663332 -196.359515 
L 334.559436 -260.416289 
L 327.45554 -257.688562 
L 320.351644 -265.110282 
L 313.247748 -293.657621 
L 306.143851 -315.286498 
L 299.039955 -301.70471 
L 291.936059 -323.650078 
L 284.832163 -360.080132 
L 277.728267 -342.242683 
L 270.624371 -328.376612 
L 263.520475 -337.7004 
L 256.416579 -337.116653 
L 249.312683 -325.585545 
L 242.208787 -341.945902 
L 235.10489 -383.904522 
L 228.000994 -364.232318 
L 220.897098 -350.178472 
L 213.793202 -361.546118 
L 206.689306 -357.659475 
L 199.58541 -343.79911 
L 192.481514 -358.327506 
L 185.377618 -399.710795 
L 178.273722 -376.504339 
L 171.169825 -356.728215 
L 164.065929 -360.828003 
L 156.962033 -357.772812 
L 149.858137 -342.819905 
L 142.754241 -356.837335 
L 135.650345 -394.783893 
L 128.546449 -371.39191 
L 121.442553 -352.6494 
L 114.338657 -355.505482 
L 107.234761 -353.686536 
L 100.130864 -337.556924 
L 93.026968 -354.802998 
L 85.923072 -391.679339 
L 78.819176 -365.56955 
z
" id="m410d22d7b8" style="stroke:#0072b2;stroke-opacity:0.2;"/>
    </defs>
    <g clip-path="url(#p36c3abd7be)">
     <use style="fill:#0072b2;fill-opacity:0.2;stroke:#0072b2;stroke-opacity:0.2;" x="0" xlink:href="#m410d22d7b8" y="439.274375"/>
    </g>
   </g>
   <g id="matplotlib.axis_1">
    <g id="xtick_1">
     <g id="line2d_1">
      <path clip-path="url(#p36c3abd7be)" d="M 71.71528 401.718125 
L 71.71528 22.318125 
" style="fill:none;stroke:#808080;stroke-linecap:square;stroke-opacity:0.2;"/>
     </g>
     <g id="line2d_2">
      <defs>
       <path d="M 0 0 
L 0 3.5 
" id="m23c0e9b9f3" style="stroke:#000000;stroke-width:0.8;"/>
      </defs>
      <g>
       <use style="stroke:#000000;stroke-width:0.8;" x="71.71528" xlink:href="#m23c0e9b9f3" y="401.718125"/>
      </g>
     </g>
     <g id="text_1">
      <!-- 2020-02-14 -->
      <defs>
       <path d="M 19.1875 8.296875 
L 53.609375 8.296875 
L 53.609375 0 
L 7.328125 0 
L 7.328125 8.296875 
Q 12.9375 14.109375 22.625 23.890625 
Q 32.328125 33.6875 34.8125 36.53125 
Q 39.546875 41.84375 41.421875 45.53125 
Q 43.3125 49.21875 43.3125 52.78125 
Q 43.3125 58.59375 39.234375 62.25 
Q 35.15625 65.921875 28.609375 65.921875 
Q 23.96875 65.921875 18.8125 64.3125 
Q 13.671875 62.703125 7.8125 59.421875 
L 7.8125 69.390625 
Q 13.765625 71.78125 18.9375 73 
Q 24.125 74.21875 28.421875 74.21875 
Q 39.75 74.21875 46.484375 68.546875 
Q 53.21875 62.890625 53.21875 53.421875 
Q 53.21875 48.921875 51.53125 44.890625 
Q 49.859375 40.875 45.40625 35.40625 
Q 44.1875 33.984375 37.640625 27.21875 
Q 31.109375 20.453125 19.1875 8.296875 
z
" id="DejaVuSans-50"/>
       <path d="M 31.78125 66.40625 
Q 24.171875 66.40625 20.328125 58.90625 
Q 16.5 51.421875 16.5 36.375 
Q 16.5 21.390625 20.328125 13.890625 
Q 24.171875 6.390625 31.78125 6.390625 
Q 39.453125 6.390625 43.28125 13.890625 
Q 47.125 21.390625 47.125 36.375 
Q 47.125 51.421875 43.28125 58.90625 
Q 39.453125 66.40625 31.78125 66.40625 
z
M 31.78125 74.21875 
Q 44.046875 74.21875 50.515625 64.515625 
Q 56.984375 54.828125 56.984375 36.375 
Q 56.984375 17.96875 50.515625 8.265625 
Q 44.046875 -1.421875 31.78125 -1.421875 
Q 19.53125 -1.421875 13.0625 8.265625 
Q 6.59375 17.96875 6.59375 36.375 
Q 6.59375 54.828125 13.0625 64.515625 
Q 19.53125 74.21875 31.78125 74.21875 
z
" id="DejaVuSans-48"/>
       <path d="M 4.890625 31.390625 
L 31.203125 31.390625 
L 31.203125 23.390625 
L 4.890625 23.390625 
z
" id="DejaVuSans-45"/>
       <path d="M 12.40625 8.296875 
L 28.515625 8.296875 
L 28.515625 63.921875 
L 10.984375 60.40625 
L 10.984375 69.390625 
L 28.421875 72.90625 
L 38.28125 72.90625 
L 38.28125 8.296875 
L 54.390625 8.296875 
L 54.390625 0 
L 12.40625 0 
z
" id="DejaVuSans-49"/>
       <path d="M 37.796875 64.3125 
L 12.890625 25.390625 
L 37.796875 25.390625 
z
M 35.203125 72.90625 
L 47.609375 72.90625 
L 47.609375 25.390625 
L 58.015625 25.390625 
L 58.015625 17.1875 
L 47.609375 17.1875 
L 47.609375 0 
L 37.796875 0 
L 37.796875 17.1875 
L 4.890625 17.1875 
L 4.890625 26.703125 
z
" id="DejaVuSans-52"/>
      </defs>
      <g transform="translate(42.657468 416.316562)scale(0.1 -0.1)">
       <use xlink:href="#DejaVuSans-50"/>
       <use x="63.623047" xlink:href="#DejaVuSans-48"/>
       <use x="127.246094" xlink:href="#DejaVuSans-50"/>
       <use x="190.869141" xlink:href="#DejaVuSans-48"/>
       <use x="254.492188" xlink:href="#DejaVuSans-45"/>
       <use x="290.576172" xlink:href="#DejaVuSans-48"/>
       <use x="354.199219" xlink:href="#DejaVuSans-50"/>
       <use x="417.822266" xlink:href="#DejaVuSans-45"/>
       <use x="453.90625" xlink:href="#DejaVuSans-49"/>
       <use x="517.529297" xlink:href="#DejaVuSans-52"/>
      </g>
     </g>
    </g>
    <g id="xtick_2">
     <g id="line2d_3">
      <path clip-path="url(#p36c3abd7be)" d="M 171.169825 401.718125 
L 171.169825 22.318125 
" style="fill:none;stroke:#808080;stroke-linecap:square;stroke-opacity:0.2;"/>
     </g>
     <g id="line2d_4">
      <g>
       <use style="stroke:#000000;stroke-width:0.8;" x="171.169825" xlink:href="#m23c0e9b9f3" y="401.718125"/>
      </g>
     </g>
     <g id="text_2">
      <!-- 2020-02-28 -->
      <defs>
       <path d="M 31.78125 34.625 
Q 24.75 34.625 20.71875 30.859375 
Q 16.703125 27.09375 16.703125 20.515625 
Q 16.703125 13.921875 20.71875 10.15625 
Q 24.75 6.390625 31.78125 6.390625 
Q 38.8125 6.390625 42.859375 10.171875 
Q 46.921875 13.96875 46.921875 20.515625 
Q 46.921875 27.09375 42.890625 30.859375 
Q 38.875 34.625 31.78125 34.625 
z
M 21.921875 38.8125 
Q 15.578125 40.375 12.03125 44.71875 
Q 8.5 49.078125 8.5 55.328125 
Q 8.5 64.0625 14.71875 69.140625 
Q 20.953125 74.21875 31.78125 74.21875 
Q 42.671875 74.21875 48.875 69.140625 
Q 55.078125 64.0625 55.078125 55.328125 
Q 55.078125 49.078125 51.53125 44.71875 
Q 48 40.375 41.703125 38.8125 
Q 48.828125 37.15625 52.796875 32.3125 
Q 56.78125 27.484375 56.78125 20.515625 
Q 56.78125 9.90625 50.3125 4.234375 
Q 43.84375 -1.421875 31.78125 -1.421875 
Q 19.734375 -1.421875 13.25 4.234375 
Q 6.78125 9.90625 6.78125 20.515625 
Q 6.78125 27.484375 10.78125 32.3125 
Q 14.796875 37.15625 21.921875 38.8125 
z
M 18.3125 54.390625 
Q 18.3125 48.734375 21.84375 45.5625 
Q 25.390625 42.390625 31.78125 42.390625 
Q 38.140625 42.390625 41.71875 45.5625 
Q 45.3125 48.734375 45.3125 54.390625 
Q 45.3125 60.0625 41.71875 63.234375 
Q 38.140625 66.40625 31.78125 66.40625 
Q 25.390625 66.40625 21.84375 63.234375 
Q 18.3125 60.0625 18.3125 54.390625 
z
" id="DejaVuSans-56"/>
      </defs>
      <g transform="translate(142.112013 416.316562)scale(0.1 -0.1)">
       <use xlink:href="#DejaVuSans-50"/>
       <use x="63.623047" xlink:href="#DejaVuSans-48"/>
       <use x="127.246094" xlink:href="#DejaVuSans-50"/>
       <use x="190.869141" xlink:href="#DejaVuSans-48"/>
       <use x="254.492188" xlink:href="#DejaVuSans-45"/>
       <use x="290.576172" xlink:href="#DejaVuSans-48"/>
       <use x="354.199219" xlink:href="#DejaVuSans-50"/>
       <use x="417.822266" xlink:href="#DejaVuSans-45"/>
       <use x="453.90625" xlink:href="#DejaVuSans-50"/>
       <use x="517.529297" xlink:href="#DejaVuSans-56"/>
      </g>
     </g>
    </g>
    <g id="xtick_3">
     <g id="line2d_5">
      <path clip-path="url(#p36c3abd7be)" d="M 270.624371 401.718125 
L 270.624371 22.318125 
" style="fill:none;stroke:#808080;stroke-linecap:square;stroke-opacity:0.2;"/>
     </g>
     <g id="line2d_6">
      <g>
       <use style="stroke:#000000;stroke-width:0.8;" x="270.624371" xlink:href="#m23c0e9b9f3" y="401.718125"/>
      </g>
     </g>
     <g id="text_3">
      <!-- 2020-03-13 -->
      <defs>
       <path d="M 40.578125 39.3125 
Q 47.65625 37.796875 51.625 33 
Q 55.609375 28.21875 55.609375 21.1875 
Q 55.609375 10.40625 48.1875 4.484375 
Q 40.765625 -1.421875 27.09375 -1.421875 
Q 22.515625 -1.421875 17.65625 -0.515625 
Q 12.796875 0.390625 7.625 2.203125 
L 7.625 11.71875 
Q 11.71875 9.328125 16.59375 8.109375 
Q 21.484375 6.890625 26.8125 6.890625 
Q 36.078125 6.890625 40.9375 10.546875 
Q 45.796875 14.203125 45.796875 21.1875 
Q 45.796875 27.640625 41.28125 31.265625 
Q 36.765625 34.90625 28.71875 34.90625 
L 20.21875 34.90625 
L 20.21875 43.015625 
L 29.109375 43.015625 
Q 36.375 43.015625 40.234375 45.921875 
Q 44.09375 48.828125 44.09375 54.296875 
Q 44.09375 59.90625 40.109375 62.90625 
Q 36.140625 65.921875 28.71875 65.921875 
Q 24.65625 65.921875 20.015625 65.03125 
Q 15.375 64.15625 9.8125 62.3125 
L 9.8125 71.09375 
Q 15.4375 72.65625 20.34375 73.4375 
Q 25.25 74.21875 29.59375 74.21875 
Q 40.828125 74.21875 47.359375 69.109375 
Q 53.90625 64.015625 53.90625 55.328125 
Q 53.90625 49.265625 50.4375 45.09375 
Q 46.96875 40.921875 40.578125 39.3125 
z
" id="DejaVuSans-51"/>
      </defs>
      <g transform="translate(241.566558 416.316562)scale(0.1 -0.1)">
       <use xlink:href="#DejaVuSans-50"/>
       <use x="63.623047" xlink:href="#DejaVuSans-48"/>
       <use x="127.246094" xlink:href="#DejaVuSans-50"/>
       <use x="190.869141" xlink:href="#DejaVuSans-48"/>
       <use x="254.492188" xlink:href="#DejaVuSans-45"/>
       <use x="290.576172" xlink:href="#DejaVuSans-48"/>
       <use x="354.199219" xlink:href="#DejaVuSans-51"/>
       <use x="417.822266" xlink:href="#DejaVuSans-45"/>
       <use x="453.90625" xlink:href="#DejaVuSans-49"/>
       <use x="517.529297" xlink:href="#DejaVuSans-51"/>
      </g>
     </g>
    </g>
    <g id="xtick_4">
     <g id="line2d_7">
      <path clip-path="url(#p36c3abd7be)" d="M 370.078916 401.718125 
L 370.078916 22.318125 
" style="fill:none;stroke:#808080;stroke-linecap:square;stroke-opacity:0.2;"/>
     </g>
     <g id="line2d_8">
      <g>
       <use style="stroke:#000000;stroke-width:0.8;" x="370.078916" xlink:href="#m23c0e9b9f3" y="401.718125"/>
      </g>
     </g>
     <g id="text_4">
      <!-- 2020-03-27 -->
      <defs>
       <path d="M 8.203125 72.90625 
L 55.078125 72.90625 
L 55.078125 68.703125 
L 28.609375 0 
L 18.3125 0 
L 43.21875 64.59375 
L 8.203125 64.59375 
z
" id="DejaVuSans-55"/>
      </defs>
      <g transform="translate(341.021104 416.316562)scale(0.1 -0.1)">
       <use xlink:href="#DejaVuSans-50"/>
       <use x="63.623047" xlink:href="#DejaVuSans-48"/>
       <use x="127.246094" xlink:href="#DejaVuSans-50"/>
       <use x="190.869141" xlink:href="#DejaVuSans-48"/>
       <use x="254.492188" xlink:href="#DejaVuSans-45"/>
       <use x="290.576172" xlink:href="#DejaVuSans-48"/>
       <use x="354.199219" xlink:href="#DejaVuSans-51"/>
       <use x="417.822266" xlink:href="#DejaVuSans-45"/>
       <use x="453.90625" xlink:href="#DejaVuSans-50"/>
       <use x="517.529297" xlink:href="#DejaVuSans-55"/>
      </g>
     </g>
    </g>
    <g id="xtick_5">
     <g id="line2d_9">
      <path clip-path="url(#p36c3abd7be)" d="M 469.533462 401.718125 
L 469.533462 22.318125 
" style="fill:none;stroke:#808080;stroke-linecap:square;stroke-opacity:0.2;"/>
     </g>
     <g id="line2d_10">
      <g>
       <use style="stroke:#000000;stroke-width:0.8;" x="469.533462" xlink:href="#m23c0e9b9f3" y="401.718125"/>
      </g>
     </g>
     <g id="text_5">
      <!-- 2020-04-10 -->
      <g transform="translate(440.475649 416.316562)scale(0.1 -0.1)">
       <use xlink:href="#DejaVuSans-50"/>
       <use x="63.623047" xlink:href="#DejaVuSans-48"/>
       <use x="127.246094" xlink:href="#DejaVuSans-50"/>
       <use x="190.869141" xlink:href="#DejaVuSans-48"/>
       <use x="254.492188" xlink:href="#DejaVuSans-45"/>
       <use x="290.576172" xlink:href="#DejaVuSans-48"/>
       <use x="354.199219" xlink:href="#DejaVuSans-52"/>
       <use x="417.822266" xlink:href="#DejaVuSans-45"/>
       <use x="453.90625" xlink:href="#DejaVuSans-49"/>
       <use x="517.529297" xlink:href="#DejaVuSans-48"/>
      </g>
     </g>
    </g>
    <g id="xtick_6">
     <g id="line2d_11">
      <path clip-path="url(#p36c3abd7be)" d="M 568.988007 401.718125 
L 568.988007 22.318125 
" style="fill:none;stroke:#808080;stroke-linecap:square;stroke-opacity:0.2;"/>
     </g>
     <g id="line2d_12">
      <g>
       <use style="stroke:#000000;stroke-width:0.8;" x="568.988007" xlink:href="#m23c0e9b9f3" y="401.718125"/>
      </g>
     </g>
     <g id="text_6">
      <!-- 2020-04-24 -->
      <g transform="translate(539.930195 416.316562)scale(0.1 -0.1)">
       <use xlink:href="#DejaVuSans-50"/>
       <use x="63.623047" xlink:href="#DejaVuSans-48"/>
       <use x="127.246094" xlink:href="#DejaVuSans-50"/>
       <use x="190.869141" xlink:href="#DejaVuSans-48"/>
       <use x="254.492188" xlink:href="#DejaVuSans-45"/>
       <use x="290.576172" xlink:href="#DejaVuSans-48"/>
       <use x="354.199219" xlink:href="#DejaVuSans-52"/>
       <use x="417.822266" xlink:href="#DejaVuSans-45"/>
       <use x="453.90625" xlink:href="#DejaVuSans-50"/>
       <use x="517.529297" xlink:href="#DejaVuSans-52"/>
      </g>
     </g>
    </g>
    <g id="xtick_7">
     <g id="line2d_13">
      <path clip-path="url(#p36c3abd7be)" d="M 668.442553 401.718125 
L 668.442553 22.318125 
" style="fill:none;stroke:#808080;stroke-linecap:square;stroke-opacity:0.2;"/>
     </g>
     <g id="line2d_14">
      <g>
       <use style="stroke:#000000;stroke-width:0.8;" x="668.442553" xlink:href="#m23c0e9b9f3" y="401.718125"/>
      </g>
     </g>
     <g id="text_7">
      <!-- 2020-05-08 -->
      <defs>
       <path d="M 10.796875 72.90625 
L 49.515625 72.90625 
L 49.515625 64.59375 
L 19.828125 64.59375 
L 19.828125 46.734375 
Q 21.96875 47.46875 24.109375 47.828125 
Q 26.265625 48.1875 28.421875 48.1875 
Q 40.625 48.1875 47.75 41.5 
Q 54.890625 34.8125 54.890625 23.390625 
Q 54.890625 11.625 47.5625 5.09375 
Q 40.234375 -1.421875 26.90625 -1.421875 
Q 22.3125 -1.421875 17.546875 -0.640625 
Q 12.796875 0.140625 7.71875 1.703125 
L 7.71875 11.625 
Q 12.109375 9.234375 16.796875 8.0625 
Q 21.484375 6.890625 26.703125 6.890625 
Q 35.15625 6.890625 40.078125 11.328125 
Q 45.015625 15.765625 45.015625 23.390625 
Q 45.015625 31 40.078125 35.4375 
Q 35.15625 39.890625 26.703125 39.890625 
Q 22.75 39.890625 18.8125 39.015625 
Q 14.890625 38.140625 10.796875 36.28125 
z
" id="DejaVuSans-53"/>
      </defs>
      <g transform="translate(639.38474 416.316562)scale(0.1 -0.1)">
       <use xlink:href="#DejaVuSans-50"/>
       <use x="63.623047" xlink:href="#DejaVuSans-48"/>
       <use x="127.246094" xlink:href="#DejaVuSans-50"/>
       <use x="190.869141" xlink:href="#DejaVuSans-48"/>
       <use x="254.492188" xlink:href="#DejaVuSans-45"/>
       <use x="290.576172" xlink:href="#DejaVuSans-48"/>
       <use x="354.199219" xlink:href="#DejaVuSans-53"/>
       <use x="417.822266" xlink:href="#DejaVuSans-45"/>
       <use x="453.90625" xlink:href="#DejaVuSans-48"/>
       <use x="517.529297" xlink:href="#DejaVuSans-56"/>
      </g>
     </g>
    </g>
    <g id="text_8">
     <!-- Date -->
     <defs>
      <path d="M 19.671875 64.796875 
L 19.671875 8.109375 
L 31.59375 8.109375 
Q 46.6875 8.109375 53.6875 14.9375 
Q 60.6875 21.78125 60.6875 36.53125 
Q 60.6875 51.171875 53.6875 57.984375 
Q 46.6875 64.796875 31.59375 64.796875 
z
M 9.8125 72.90625 
L 30.078125 72.90625 
Q 51.265625 72.90625 61.171875 64.09375 
Q 71.09375 55.28125 71.09375 36.53125 
Q 71.09375 17.671875 61.125 8.828125 
Q 51.171875 0 30.078125 0 
L 9.8125 0 
z
" id="DejaVuSans-68"/>
      <path d="M 34.28125 27.484375 
Q 23.390625 27.484375 19.1875 25 
Q 14.984375 22.515625 14.984375 16.5 
Q 14.984375 11.71875 18.140625 8.90625 
Q 21.296875 6.109375 26.703125 6.109375 
Q 34.1875 6.109375 38.703125 11.40625 
Q 43.21875 16.703125 43.21875 25.484375 
L 43.21875 27.484375 
z
M 52.203125 31.203125 
L 52.203125 0 
L 43.21875 0 
L 43.21875 8.296875 
Q 40.140625 3.328125 35.546875 0.953125 
Q 30.953125 -1.421875 24.3125 -1.421875 
Q 15.921875 -1.421875 10.953125 3.296875 
Q 6 8.015625 6 15.921875 
Q 6 25.140625 12.171875 29.828125 
Q 18.359375 34.515625 30.609375 34.515625 
L 43.21875 34.515625 
L 43.21875 35.40625 
Q 43.21875 41.609375 39.140625 45 
Q 35.0625 48.390625 27.6875 48.390625 
Q 23 48.390625 18.546875 47.265625 
Q 14.109375 46.140625 10.015625 43.890625 
L 10.015625 52.203125 
Q 14.9375 54.109375 19.578125 55.046875 
Q 24.21875 56 28.609375 56 
Q 40.484375 56 46.34375 49.84375 
Q 52.203125 43.703125 52.203125 31.203125 
z
" id="DejaVuSans-97"/>
      <path d="M 18.3125 70.21875 
L 18.3125 54.6875 
L 36.8125 54.6875 
L 36.8125 47.703125 
L 18.3125 47.703125 
L 18.3125 18.015625 
Q 18.3125 11.328125 20.140625 9.421875 
Q 21.96875 7.515625 27.59375 7.515625 
L 36.8125 7.515625 
L 36.8125 0 
L 27.59375 0 
Q 17.1875 0 13.234375 3.875 
Q 9.28125 7.765625 9.28125 18.015625 
L 9.28125 47.703125 
L 2.6875 47.703125 
L 2.6875 54.6875 
L 9.28125 54.6875 
L 9.28125 70.21875 
z
" id="DejaVuSans-116"/>
      <path d="M 56.203125 29.59375 
L 56.203125 25.203125 
L 14.890625 25.203125 
Q 15.484375 15.921875 20.484375 11.0625 
Q 25.484375 6.203125 34.421875 6.203125 
Q 39.59375 6.203125 44.453125 7.46875 
Q 49.3125 8.734375 54.109375 11.28125 
L 54.109375 2.78125 
Q 49.265625 0.734375 44.1875 -0.34375 
Q 39.109375 -1.421875 33.890625 -1.421875 
Q 20.796875 -1.421875 13.15625 6.1875 
Q 5.515625 13.8125 5.515625 26.8125 
Q 5.515625 40.234375 12.765625 48.109375 
Q 20.015625 56 32.328125 56 
Q 43.359375 56 49.78125 48.890625 
Q 56.203125 41.796875 56.203125 29.59375 
z
M 47.21875 32.234375 
Q 47.125 39.59375 43.09375 43.984375 
Q 39.0625 48.390625 32.421875 48.390625 
Q 24.90625 48.390625 20.390625 44.140625 
Q 15.875 39.890625 15.1875 32.171875 
z
" id="DejaVuSans-101"/>
     </defs>
     <g transform="translate(365.232031 429.994687)scale(0.1 -0.1)">
      <use xlink:href="#DejaVuSans-68"/>
      <use x="77.001953" xlink:href="#DejaVuSans-97"/>
      <use x="138.28125" xlink:href="#DejaVuSans-116"/>
      <use x="177.490234" xlink:href="#DejaVuSans-101"/>
     </g>
    </g>
   </g>
   <g id="matplotlib.axis_2">
    <g id="ytick_1">
     <g id="line2d_15">
      <path clip-path="url(#p36c3abd7be)" d="M 48.982813 383.960445 
L 705.382812 383.960445 
" style="fill:none;stroke:#808080;stroke-linecap:square;stroke-opacity:0.2;"/>
     </g>
     <g id="line2d_16">
      <defs>
       <path d="M 0 0 
L -3.5 0 
" id="m64aad7110e" style="stroke:#000000;stroke-width:0.8;"/>
      </defs>
      <g>
       <use style="stroke:#000000;stroke-width:0.8;" x="48.982813" xlink:href="#m64aad7110e" y="383.960445"/>
      </g>
     </g>
     <g id="text_9">
      <!-- −80 -->
      <defs>
       <path d="M 10.59375 35.5 
L 73.1875 35.5 
L 73.1875 27.203125 
L 10.59375 27.203125 
z
" id="DejaVuSans-8722"/>
      </defs>
      <g transform="translate(20.878125 387.759664)scale(0.1 -0.1)">
       <use xlink:href="#DejaVuSans-8722"/>
       <use x="83.789062" xlink:href="#DejaVuSans-56"/>
       <use x="147.412109" xlink:href="#DejaVuSans-48"/>
      </g>
     </g>
    </g>
    <g id="ytick_2">
     <g id="line2d_17">
      <path clip-path="url(#p36c3abd7be)" d="M 48.982813 316.294096 
L 705.382812 316.294096 
" style="fill:none;stroke:#808080;stroke-linecap:square;stroke-opacity:0.2;"/>
     </g>
     <g id="line2d_18">
      <g>
       <use style="stroke:#000000;stroke-width:0.8;" x="48.982813" xlink:href="#m64aad7110e" y="316.294096"/>
      </g>
     </g>
     <g id="text_10">
      <!-- −60 -->
      <defs>
       <path d="M 33.015625 40.375 
Q 26.375 40.375 22.484375 35.828125 
Q 18.609375 31.296875 18.609375 23.390625 
Q 18.609375 15.53125 22.484375 10.953125 
Q 26.375 6.390625 33.015625 6.390625 
Q 39.65625 6.390625 43.53125 10.953125 
Q 47.40625 15.53125 47.40625 23.390625 
Q 47.40625 31.296875 43.53125 35.828125 
Q 39.65625 40.375 33.015625 40.375 
z
M 52.59375 71.296875 
L 52.59375 62.3125 
Q 48.875 64.0625 45.09375 64.984375 
Q 41.3125 65.921875 37.59375 65.921875 
Q 27.828125 65.921875 22.671875 59.328125 
Q 17.53125 52.734375 16.796875 39.40625 
Q 19.671875 43.65625 24.015625 45.921875 
Q 28.375 48.1875 33.59375 48.1875 
Q 44.578125 48.1875 50.953125 41.515625 
Q 57.328125 34.859375 57.328125 23.390625 
Q 57.328125 12.15625 50.6875 5.359375 
Q 44.046875 -1.421875 33.015625 -1.421875 
Q 20.359375 -1.421875 13.671875 8.265625 
Q 6.984375 17.96875 6.984375 36.375 
Q 6.984375 53.65625 15.1875 63.9375 
Q 23.390625 74.21875 37.203125 74.21875 
Q 40.921875 74.21875 44.703125 73.484375 
Q 48.484375 72.75 52.59375 71.296875 
z
" id="DejaVuSans-54"/>
      </defs>
      <g transform="translate(20.878125 320.093315)scale(0.1 -0.1)">
       <use xlink:href="#DejaVuSans-8722"/>
       <use x="83.789062" xlink:href="#DejaVuSans-54"/>
       <use x="147.412109" xlink:href="#DejaVuSans-48"/>
      </g>
     </g>
    </g>
    <g id="ytick_3">
     <g id="line2d_19">
      <path clip-path="url(#p36c3abd7be)" d="M 48.982813 248.627747 
L 705.382812 248.627747 
" style="fill:none;stroke:#808080;stroke-linecap:square;stroke-opacity:0.2;"/>
     </g>
     <g id="line2d_20">
      <g>
       <use style="stroke:#000000;stroke-width:0.8;" x="48.982813" xlink:href="#m64aad7110e" y="248.627747"/>
      </g>
     </g>
     <g id="text_11">
      <!-- −40 -->
      <g transform="translate(20.878125 252.426966)scale(0.1 -0.1)">
       <use xlink:href="#DejaVuSans-8722"/>
       <use x="83.789062" xlink:href="#DejaVuSans-52"/>
       <use x="147.412109" xlink:href="#DejaVuSans-48"/>
      </g>
     </g>
    </g>
    <g id="ytick_4">
     <g id="line2d_21">
      <path clip-path="url(#p36c3abd7be)" d="M 48.982813 180.961398 
L 705.382812 180.961398 
" style="fill:none;stroke:#808080;stroke-linecap:square;stroke-opacity:0.2;"/>
     </g>
     <g id="line2d_22">
      <g>
       <use style="stroke:#000000;stroke-width:0.8;" x="48.982813" xlink:href="#m64aad7110e" y="180.961398"/>
      </g>
     </g>
     <g id="text_12">
      <!-- −20 -->
      <g transform="translate(20.878125 184.760617)scale(0.1 -0.1)">
       <use xlink:href="#DejaVuSans-8722"/>
       <use x="83.789062" xlink:href="#DejaVuSans-50"/>
       <use x="147.412109" xlink:href="#DejaVuSans-48"/>
      </g>
     </g>
    </g>
    <g id="ytick_5">
     <g id="line2d_23">
      <path clip-path="url(#p36c3abd7be)" d="M 48.982813 113.29505 
L 705.382812 113.29505 
" style="fill:none;stroke:#808080;stroke-linecap:square;stroke-opacity:0.2;"/>
     </g>
     <g id="line2d_24">
      <g>
       <use style="stroke:#000000;stroke-width:0.8;" x="48.982813" xlink:href="#m64aad7110e" y="113.29505"/>
      </g>
     </g>
     <g id="text_13">
      <!-- 0 -->
      <g transform="translate(35.620313 117.094268)scale(0.1 -0.1)">
       <use xlink:href="#DejaVuSans-48"/>
      </g>
     </g>
    </g>
    <g id="ytick_6">
     <g id="line2d_25">
      <path clip-path="url(#p36c3abd7be)" d="M 48.982813 45.628701 
L 705.382812 45.628701 
" style="fill:none;stroke:#808080;stroke-linecap:square;stroke-opacity:0.2;"/>
     </g>
     <g id="line2d_26">
      <g>
       <use style="stroke:#000000;stroke-width:0.8;" x="48.982813" xlink:href="#m64aad7110e" y="45.628701"/>
      </g>
     </g>
     <g id="text_14">
      <!-- 20 -->
      <g transform="translate(29.257813 49.427919)scale(0.1 -0.1)">
       <use xlink:href="#DejaVuSans-50"/>
       <use x="63.623047" xlink:href="#DejaVuSans-48"/>
      </g>
     </g>
    </g>
    <g id="text_15">
     <!-- Workplace Mobility -->
     <defs>
      <path d="M 3.328125 72.90625 
L 13.28125 72.90625 
L 28.609375 11.28125 
L 43.890625 72.90625 
L 54.984375 72.90625 
L 70.3125 11.28125 
L 85.59375 72.90625 
L 95.609375 72.90625 
L 77.296875 0 
L 64.890625 0 
L 49.515625 63.28125 
L 33.984375 0 
L 21.578125 0 
z
" id="DejaVuSans-87"/>
      <path d="M 30.609375 48.390625 
Q 23.390625 48.390625 19.1875 42.75 
Q 14.984375 37.109375 14.984375 27.296875 
Q 14.984375 17.484375 19.15625 11.84375 
Q 23.34375 6.203125 30.609375 6.203125 
Q 37.796875 6.203125 41.984375 11.859375 
Q 46.1875 17.53125 46.1875 27.296875 
Q 46.1875 37.015625 41.984375 42.703125 
Q 37.796875 48.390625 30.609375 48.390625 
z
M 30.609375 56 
Q 42.328125 56 49.015625 48.375 
Q 55.71875 40.765625 55.71875 27.296875 
Q 55.71875 13.875 49.015625 6.21875 
Q 42.328125 -1.421875 30.609375 -1.421875 
Q 18.84375 -1.421875 12.171875 6.21875 
Q 5.515625 13.875 5.515625 27.296875 
Q 5.515625 40.765625 12.171875 48.375 
Q 18.84375 56 30.609375 56 
z
" id="DejaVuSans-111"/>
      <path d="M 41.109375 46.296875 
Q 39.59375 47.171875 37.8125 47.578125 
Q 36.03125 48 33.890625 48 
Q 26.265625 48 22.1875 43.046875 
Q 18.109375 38.09375 18.109375 28.8125 
L 18.109375 0 
L 9.078125 0 
L 9.078125 54.6875 
L 18.109375 54.6875 
L 18.109375 46.1875 
Q 20.953125 51.171875 25.484375 53.578125 
Q 30.03125 56 36.53125 56 
Q 37.453125 56 38.578125 55.875 
Q 39.703125 55.765625 41.0625 55.515625 
z
" id="DejaVuSans-114"/>
      <path d="M 9.078125 75.984375 
L 18.109375 75.984375 
L 18.109375 31.109375 
L 44.921875 54.6875 
L 56.390625 54.6875 
L 27.390625 29.109375 
L 57.625 0 
L 45.90625 0 
L 18.109375 26.703125 
L 18.109375 0 
L 9.078125 0 
z
" id="DejaVuSans-107"/>
      <path d="M 18.109375 8.203125 
L 18.109375 -20.796875 
L 9.078125 -20.796875 
L 9.078125 54.6875 
L 18.109375 54.6875 
L 18.109375 46.390625 
Q 20.953125 51.265625 25.265625 53.625 
Q 29.59375 56 35.59375 56 
Q 45.5625 56 51.78125 48.09375 
Q 58.015625 40.1875 58.015625 27.296875 
Q 58.015625 14.40625 51.78125 6.484375 
Q 45.5625 -1.421875 35.59375 -1.421875 
Q 29.59375 -1.421875 25.265625 0.953125 
Q 20.953125 3.328125 18.109375 8.203125 
z
M 48.6875 27.296875 
Q 48.6875 37.203125 44.609375 42.84375 
Q 40.53125 48.484375 33.40625 48.484375 
Q 26.265625 48.484375 22.1875 42.84375 
Q 18.109375 37.203125 18.109375 27.296875 
Q 18.109375 17.390625 22.1875 11.75 
Q 26.265625 6.109375 33.40625 6.109375 
Q 40.53125 6.109375 44.609375 11.75 
Q 48.6875 17.390625 48.6875 27.296875 
z
" id="DejaVuSans-112"/>
      <path d="M 9.421875 75.984375 
L 18.40625 75.984375 
L 18.40625 0 
L 9.421875 0 
z
" id="DejaVuSans-108"/>
      <path d="M 48.78125 52.59375 
L 48.78125 44.1875 
Q 44.96875 46.296875 41.140625 47.34375 
Q 37.3125 48.390625 33.40625 48.390625 
Q 24.65625 48.390625 19.8125 42.84375 
Q 14.984375 37.3125 14.984375 27.296875 
Q 14.984375 17.28125 19.8125 11.734375 
Q 24.65625 6.203125 33.40625 6.203125 
Q 37.3125 6.203125 41.140625 7.25 
Q 44.96875 8.296875 48.78125 10.40625 
L 48.78125 2.09375 
Q 45.015625 0.34375 40.984375 -0.53125 
Q 36.96875 -1.421875 32.421875 -1.421875 
Q 20.0625 -1.421875 12.78125 6.34375 
Q 5.515625 14.109375 5.515625 27.296875 
Q 5.515625 40.671875 12.859375 48.328125 
Q 20.21875 56 33.015625 56 
Q 37.15625 56 41.109375 55.140625 
Q 45.0625 54.296875 48.78125 52.59375 
z
" id="DejaVuSans-99"/>
      <path id="DejaVuSans-32"/>
      <path d="M 9.8125 72.90625 
L 24.515625 72.90625 
L 43.109375 23.296875 
L 61.8125 72.90625 
L 76.515625 72.90625 
L 76.515625 0 
L 66.890625 0 
L 66.890625 64.015625 
L 48.09375 14.015625 
L 38.1875 14.015625 
L 19.390625 64.015625 
L 19.390625 0 
L 9.8125 0 
z
" id="DejaVuSans-77"/>
      <path d="M 48.6875 27.296875 
Q 48.6875 37.203125 44.609375 42.84375 
Q 40.53125 48.484375 33.40625 48.484375 
Q 26.265625 48.484375 22.1875 42.84375 
Q 18.109375 37.203125 18.109375 27.296875 
Q 18.109375 17.390625 22.1875 11.75 
Q 26.265625 6.109375 33.40625 6.109375 
Q 40.53125 6.109375 44.609375 11.75 
Q 48.6875 17.390625 48.6875 27.296875 
z
M 18.109375 46.390625 
Q 20.953125 51.265625 25.265625 53.625 
Q 29.59375 56 35.59375 56 
Q 45.5625 56 51.78125 48.09375 
Q 58.015625 40.1875 58.015625 27.296875 
Q 58.015625 14.40625 51.78125 6.484375 
Q 45.5625 -1.421875 35.59375 -1.421875 
Q 29.59375 -1.421875 25.265625 0.953125 
Q 20.953125 3.328125 18.109375 8.203125 
L 18.109375 0 
L 9.078125 0 
L 9.078125 75.984375 
L 18.109375 75.984375 
z
" id="DejaVuSans-98"/>
      <path d="M 9.421875 54.6875 
L 18.40625 54.6875 
L 18.40625 0 
L 9.421875 0 
z
M 9.421875 75.984375 
L 18.40625 75.984375 
L 18.40625 64.59375 
L 9.421875 64.59375 
z
" id="DejaVuSans-105"/>
      <path d="M 32.171875 -5.078125 
Q 28.375 -14.84375 24.75 -17.8125 
Q 21.140625 -20.796875 15.09375 -20.796875 
L 7.90625 -20.796875 
L 7.90625 -13.28125 
L 13.1875 -13.28125 
Q 16.890625 -13.28125 18.9375 -11.515625 
Q 21 -9.765625 23.484375 -3.21875 
L 25.09375 0.875 
L 2.984375 54.6875 
L 12.5 54.6875 
L 29.59375 11.921875 
L 46.6875 54.6875 
L 56.203125 54.6875 
z
" id="DejaVuSans-121"/>
     </defs>
     <g transform="translate(14.798438 259.354844)rotate(-90)scale(0.1 -0.1)">
      <use xlink:href="#DejaVuSans-87"/>
      <use x="93.001953" xlink:href="#DejaVuSans-111"/>
      <use x="154.183594" xlink:href="#DejaVuSans-114"/>
      <use x="195.296875" xlink:href="#DejaVuSans-107"/>
      <use x="253.207031" xlink:href="#DejaVuSans-112"/>
      <use x="316.683594" xlink:href="#DejaVuSans-108"/>
      <use x="344.466797" xlink:href="#DejaVuSans-97"/>
      <use x="405.746094" xlink:href="#DejaVuSans-99"/>
      <use x="460.726562" xlink:href="#DejaVuSans-101"/>
      <use x="522.25" xlink:href="#DejaVuSans-32"/>
      <use x="554.037109" xlink:href="#DejaVuSans-77"/>
      <use x="640.316406" xlink:href="#DejaVuSans-111"/>
      <use x="701.498047" xlink:href="#DejaVuSans-98"/>
      <use x="764.974609" xlink:href="#DejaVuSans-105"/>
      <use x="792.757812" xlink:href="#DejaVuSans-108"/>
      <use x="820.541016" xlink:href="#DejaVuSans-105"/>
      <use x="848.324219" xlink:href="#DejaVuSans-116"/>
      <use x="887.533203" xlink:href="#DejaVuSans-121"/>
     </g>
    </g>
   </g>
   <g id="line2d_27">
    <defs>
     <path d="M 0 1.5 
C 0.397805 1.5 0.77937 1.341951 1.06066 1.06066 
C 1.341951 0.77937 1.5 0.397805 1.5 0 
C 1.5 -0.397805 1.341951 -0.77937 1.06066 -1.06066 
C 0.77937 -1.341951 0.397805 -1.5 0 -1.5 
C -0.397805 -1.5 -0.77937 -1.341951 -1.06066 -1.06066 
C -1.341951 -0.77937 -1.5 -0.397805 -1.5 0 
C -1.5 0.397805 -1.341951 0.77937 -1.06066 1.06066 
C -0.77937 1.341951 -0.397805 1.5 0 1.5 
z
" id="m62020bacef" style="stroke:#000000;"/>
    </defs>
    <g clip-path="url(#p36c3abd7be)">
     <use style="stroke:#000000;" x="78.819176" xlink:href="#m62020bacef" y="96.378462"/>
     <use style="stroke:#000000;" x="85.923072" xlink:href="#m62020bacef" y="113.29505"/>
     <use style="stroke:#000000;" x="93.026968" xlink:href="#m62020bacef" y="99.76178"/>
     <use style="stroke:#000000;" x="100.130864" xlink:href="#m62020bacef" y="103.145097"/>
     <use style="stroke:#000000;" x="107.234761" xlink:href="#m62020bacef" y="99.76178"/>
     <use style="stroke:#000000;" x="114.338657" xlink:href="#m62020bacef" y="99.76178"/>
     <use style="stroke:#000000;" x="121.442553" xlink:href="#m62020bacef" y="177.578081"/>
     <use style="stroke:#000000;" x="128.546449" xlink:href="#m62020bacef" y="120.061684"/>
     <use style="stroke:#000000;" x="135.650345" xlink:href="#m62020bacef" y="106.528415"/>
     <use style="stroke:#000000;" x="142.754241" xlink:href="#m62020bacef" y="99.76178"/>
     <use style="stroke:#000000;" x="149.858137" xlink:href="#m62020bacef" y="109.911732"/>
     <use style="stroke:#000000;" x="156.962033" xlink:href="#m62020bacef" y="103.145097"/>
     <use style="stroke:#000000;" x="164.065929" xlink:href="#m62020bacef" y="99.76178"/>
     <use style="stroke:#000000;" x="171.169825" xlink:href="#m62020bacef" y="96.378462"/>
     <use style="stroke:#000000;" x="178.273722" xlink:href="#m62020bacef" y="86.22851"/>
     <use style="stroke:#000000;" x="185.377618" xlink:href="#m62020bacef" y="103.145097"/>
     <use style="stroke:#000000;" x="192.481514" xlink:href="#m62020bacef" y="96.378462"/>
     <use style="stroke:#000000;" x="199.58541" xlink:href="#m62020bacef" y="99.76178"/>
     <use style="stroke:#000000;" x="206.689306" xlink:href="#m62020bacef" y="89.611827"/>
     <use style="stroke:#000000;" x="213.793202" xlink:href="#m62020bacef" y="96.378462"/>
     <use style="stroke:#000000;" x="220.897098" xlink:href="#m62020bacef" y="96.378462"/>
     <use style="stroke:#000000;" x="228.000994" xlink:href="#m62020bacef" y="89.611827"/>
     <use style="stroke:#000000;" x="235.10489" xlink:href="#m62020bacef" y="92.995145"/>
     <use style="stroke:#000000;" x="242.208787" xlink:href="#m62020bacef" y="153.894859"/>
     <use style="stroke:#000000;" x="249.312683" xlink:href="#m62020bacef" y="262.161017"/>
     <use style="stroke:#000000;" x="256.416579" xlink:href="#m62020bacef" y="130.211637"/>
     <use style="stroke:#000000;" x="263.520475" xlink:href="#m62020bacef" y="113.29505"/>
     <use style="stroke:#000000;" x="270.624371" xlink:href="#m62020bacef" y="113.29505"/>
     <use style="stroke:#000000;" x="277.728267" xlink:href="#m62020bacef" y="133.594954"/>
     <use style="stroke:#000000;" x="284.832163" xlink:href="#m62020bacef" y="106.528415"/>
     <use style="stroke:#000000;" x="291.936059" xlink:href="#m62020bacef" y="126.828319"/>
     <use style="stroke:#000000;" x="299.039955" xlink:href="#m62020bacef" y="140.361589"/>
     <use style="stroke:#000000;" x="306.143851" xlink:href="#m62020bacef" y="140.361589"/>
     <use style="stroke:#000000;" x="313.247748" xlink:href="#m62020bacef" y="150.511541"/>
     <use style="stroke:#000000;" x="320.351644" xlink:href="#m62020bacef" y="164.044811"/>
     <use style="stroke:#000000;" x="327.45554" xlink:href="#m62020bacef" y="174.194764"/>
     <use style="stroke:#000000;" x="334.559436" xlink:href="#m62020bacef" y="279.077604"/>
     <use style="stroke:#000000;" x="341.663332" xlink:href="#m62020bacef" y="282.460922"/>
     <use style="stroke:#000000;" x="348.767228" xlink:href="#m62020bacef" y="333.210684"/>
     <use style="stroke:#000000;" x="355.871124" xlink:href="#m62020bacef" y="356.893906"/>
     <use style="stroke:#000000;" x="362.97502" xlink:href="#m62020bacef" y="350.127271"/>
     <use style="stroke:#000000;" x="370.078916" xlink:href="#m62020bacef" y="350.127271"/>
     <use style="stroke:#000000;" x="377.182812" xlink:href="#m62020bacef" y="336.594001"/>
     <use style="stroke:#000000;" x="384.286709" xlink:href="#m62020bacef" y="272.31097"/>
     <use style="stroke:#000000;" x="391.390605" xlink:href="#m62020bacef" y="343.360636"/>
     <use style="stroke:#000000;" x="398.494501" xlink:href="#m62020bacef" y="343.360636"/>
     <use style="stroke:#000000;" x="405.598397" xlink:href="#m62020bacef" y="343.360636"/>
     <use style="stroke:#000000;" x="412.702293" xlink:href="#m62020bacef" y="346.743953"/>
     <use style="stroke:#000000;" x="419.806189" xlink:href="#m62020bacef" y="339.977318"/>
     <use style="stroke:#000000;" x="426.910085" xlink:href="#m62020bacef" y="319.677414"/>
     <use style="stroke:#000000;" x="434.013981" xlink:href="#m62020bacef" y="258.7777"/>
     <use style="stroke:#000000;" x="441.117877" xlink:href="#m62020bacef" y="343.360636"/>
     <use style="stroke:#000000;" x="448.221774" xlink:href="#m62020bacef" y="339.977318"/>
     <use style="stroke:#000000;" x="455.32567" xlink:href="#m62020bacef" y="339.977318"/>
     <use style="stroke:#000000;" x="462.429566" xlink:href="#m62020bacef" y="343.360636"/>
     <use style="stroke:#000000;" x="469.533462" xlink:href="#m62020bacef" y="346.743953"/>
     <use style="stroke:#000000;" x="476.637358" xlink:href="#m62020bacef" y="329.827366"/>
     <use style="stroke:#000000;" x="483.741254" xlink:href="#m62020bacef" y="262.161017"/>
     <use style="stroke:#000000;" x="490.84515" xlink:href="#m62020bacef" y="336.594001"/>
     <use style="stroke:#000000;" x="497.949046" xlink:href="#m62020bacef" y="346.743953"/>
     <use style="stroke:#000000;" x="505.052942" xlink:href="#m62020bacef" y="329.827366"/>
     <use style="stroke:#000000;" x="512.156838" xlink:href="#m62020bacef" y="333.210684"/>
     <use style="stroke:#000000;" x="519.260735" xlink:href="#m62020bacef" y="333.210684"/>
     <use style="stroke:#000000;" x="526.364631" xlink:href="#m62020bacef" y="316.294096"/>
     <use style="stroke:#000000;" x="533.468527" xlink:href="#m62020bacef" y="255.394382"/>
     <use style="stroke:#000000;" x="540.572423" xlink:href="#m62020bacef" y="326.444049"/>
     <use style="stroke:#000000;" x="547.676319" xlink:href="#m62020bacef" y="329.827366"/>
     <use style="stroke:#000000;" x="554.780215" xlink:href="#m62020bacef" y="326.444049"/>
     <use style="stroke:#000000;" x="561.884111" xlink:href="#m62020bacef" y="329.827366"/>
     <use style="stroke:#000000;" x="568.988007" xlink:href="#m62020bacef" y="326.444049"/>
     <use style="stroke:#000000;" x="576.091903" xlink:href="#m62020bacef" y="312.910779"/>
     <use style="stroke:#000000;" x="583.1958" xlink:href="#m62020bacef" y="252.011065"/>
     <use style="stroke:#000000;" x="590.299696" xlink:href="#m62020bacef" y="323.060731"/>
     <use style="stroke:#000000;" x="597.403592" xlink:href="#m62020bacef" y="326.444049"/>
     <use style="stroke:#000000;" x="604.507488" xlink:href="#m62020bacef" y="319.677414"/>
     <use style="stroke:#000000;" x="611.611384" xlink:href="#m62020bacef" y="319.677414"/>
     <use style="stroke:#000000;" x="618.71528" xlink:href="#m62020bacef" y="329.827366"/>
     <use style="stroke:#000000;" x="625.819176" xlink:href="#m62020bacef" y="295.994192"/>
     <use style="stroke:#000000;" x="632.923072" xlink:href="#m62020bacef" y="238.477795"/>
     <use style="stroke:#000000;" x="640.026968" xlink:href="#m62020bacef" y="302.760827"/>
     <use style="stroke:#000000;" x="647.130864" xlink:href="#m62020bacef" y="302.760827"/>
     <use style="stroke:#000000;" x="654.234761" xlink:href="#m62020bacef" y="295.994192"/>
     <use style="stroke:#000000;" x="661.338657" xlink:href="#m62020bacef" y="302.760827"/>
     <use style="stroke:#000000;" x="668.442553" xlink:href="#m62020bacef" y="289.227557"/>
     <use style="stroke:#000000;" x="675.546449" xlink:href="#m62020bacef" y="279.077604"/>
    </g>
   </g>
   <g id="line2d_28">
    <path clip-path="url(#p36c3abd7be)" d="M 78.819176 103.62569 
L 85.923072 78.754158 
L 93.026968 117.42836 
L 100.130864 131.620449 
L 107.234761 115.391058 
L 114.338657 111.901621 
L 121.442553 115.963225 
L 128.546449 98.839189 
L 135.650345 73.967657 
L 142.754241 112.64186 
L 149.858137 126.833949 
L 156.962033 110.604559 
L 164.065929 107.115933 
L 171.169825 111.178348 
L 178.273722 94.055339 
L 185.377618 69.184833 
L 192.481514 107.860063 
L 199.58541 124.874127 
L 206.689306 111.466711 
L 213.793202 110.799249 
L 220.897098 118.760362 
L 228.000994 105.535834 
L 235.10489 84.563812 
L 242.208787 127.137525 
L 249.312683 145.229124 
L 256.416579 132.899243 
L 263.520475 133.309317 
L 270.624371 141.270431 
L 277.728267 128.046041 
L 284.832163 107.074155 
L 291.936059 149.649435 
L 299.039955 167.7426 
L 306.143851 155.414286 
L 313.247748 175.947115 
L 320.351644 204.030986 
L 327.45554 210.929216 
L 334.559436 210.079949 
L 341.663332 272.776418 
L 348.767228 310.990774 
L 355.871124 318.783592 
L 362.97502 339.316364 
L 370.078916 343.37645 
L 377.182812 326.250896 
L 384.286709 301.377846 
L 391.390605 340.050357 
L 398.494501 354.240753 
L 405.598397 338.00967 
L 412.702293 334.517864 
L 419.806189 338.577099 
L 426.910085 321.450632 
L 434.013981 296.576669 
L 441.117877 335.248441 
L 448.221774 349.43789 
L 455.32567 333.205859 
L 462.429566 329.713782 
L 469.533462 333.772593 
L 476.637358 316.645764 
L 483.741254 291.770359 
L 490.84515 330.440688 
L 497.949046 344.628904 
L 505.052942 328.056002 
L 512.156838 324.223054 
L 519.260735 327.941147 
L 526.364631 310.472155 
L 533.468527 285.255667 
L 540.572423 323.583469 
L 547.676319 337.429157 
L 554.780215 320.853365 
L 561.884111 316.565603 
L 568.988007 319.828882 
L 576.091903 301.90652 
L 583.1958 276.236662 
L 590.299696 314.11254 
L 597.403592 327.506304 
L 604.507488 310.478588 
L 611.611384 306.190825 
L 618.71528 309.454104 
L 625.819176 291.531742 
L 632.923072 265.861885 
L 640.026968 303.737762 
L 647.130864 317.131526 
L 654.234761 300.10381 
L 661.338657 295.816047 
L 668.442553 299.079326 
L 675.546449 281.156965 
" style="fill:none;stroke:#0072b2;stroke-linecap:square;stroke-width:1.5;"/>
   </g>
   <g id="line2d_29">
    <path clip-path="url(#p36c3abd7be)" d="M 78.819176 112.720581 
L 85.923072 112.036795 
L 93.026968 111.353009 
L 100.130864 110.669223 
L 107.234761 109.985437 
L 114.338657 109.301651 
L 121.442553 108.617865 
L 128.546449 107.93408 
L 135.650345 107.250294 
L 142.754241 106.566509 
L 149.858137 105.882723 
L 156.962033 105.198938 
L 164.065929 104.515963 
L 171.169825 103.832989 
L 178.273722 103.15023 
L 185.377618 102.467471 
L 192.481514 101.784711 
L 199.58541 103.922901 
L 206.689306 106.06109 
L 213.793202 108.199279 
L 220.897098 111.415002 
L 228.000994 114.630725 
L 235.10489 117.846449 
L 242.208787 121.062173 
L 249.312683 124.277898 
L 256.416579 127.493622 
L 263.520475 130.709347 
L 270.624371 133.925071 
L 277.728267 137.140932 
L 284.832163 140.356793 
L 291.936059 143.574083 
L 299.039955 146.791374 
L 306.143851 150.008665 
L 313.247748 173.347145 
L 320.351644 196.685626 
L 327.45554 220.024106 
L 334.559436 243.362587 
L 341.663332 266.701067 
L 348.767228 290.039548 
L 355.871124 313.377971 
L 362.97502 336.716394 
L 370.078916 336.03109 
L 377.182812 335.345787 
L 384.286709 334.660484 
L 391.390605 333.975005 
L 398.494501 333.289527 
L 405.598397 332.604049 
L 412.702293 331.917894 
L 419.806189 331.231739 
L 426.910085 330.545523 
L 434.013981 329.859306 
L 441.117877 329.17309 
L 448.221774 328.486664 
L 455.32567 327.800238 
L 462.429566 327.113812 
L 469.533462 326.427233 
L 476.637358 325.740655 
L 483.741254 325.052996 
L 490.84515 324.365337 
L 497.949046 323.677678 
L 505.052942 322.650381 
L 512.156838 321.623084 
L 519.260735 320.595787 
L 526.364631 319.567045 
L 533.468527 318.538304 
L 540.572423 317.508117 
L 547.676319 316.477931 
L 554.780215 315.447744 
L 561.884111 313.965633 
L 568.988007 312.483522 
L 576.091903 311.001411 
L 583.1958 309.5193 
L 590.299696 308.037189 
L 597.403592 306.555078 
L 604.507488 305.072966 
L 611.611384 303.590855 
L 618.71528 302.108744 
L 625.819176 300.626633 
L 632.923072 299.144522 
L 640.026968 297.662411 
L 647.130864 296.1803 
L 654.234761 294.698189 
L 661.338657 293.216077 
L 668.442553 291.733966 
L 675.546449 290.251855 
" style="fill:none;stroke:#0000ff;stroke-linecap:square;stroke-width:1.5;"/>
   </g>
   <g id="line2d_30">
    <path clip-path="url(#p36c3abd7be)" d="M 192.481514 401.718125 
L 192.481514 22.318125 
" style="fill:none;stroke:#0000ff;stroke-dasharray:5.55,2.4;stroke-dashoffset:0;stroke-width:1.5;"/>
   </g>
   <g id="line2d_31">
    <path clip-path="url(#p36c3abd7be)" d="M 213.793202 401.718125 
L 213.793202 22.318125 
" style="fill:none;stroke:#0000ff;stroke-dasharray:5.55,2.4;stroke-dashoffset:0;stroke-width:1.5;"/>
   </g>
   <g id="line2d_32">
    <path clip-path="url(#p36c3abd7be)" d="M 306.143851 401.718125 
L 306.143851 22.318125 
" style="fill:none;stroke:#0000ff;stroke-dasharray:5.55,2.4;stroke-dashoffset:0;stroke-width:1.5;"/>
   </g>
   <g id="line2d_33">
    <path clip-path="url(#p36c3abd7be)" d="M 362.97502 401.718125 
L 362.97502 22.318125 
" style="fill:none;stroke:#0000ff;stroke-dasharray:5.55,2.4;stroke-dashoffset:0;stroke-width:1.5;"/>
   </g>
   <g id="line2d_34">
    <path clip-path="url(#p36c3abd7be)" d="M 497.949046 401.718125 
L 497.949046 22.318125 
" style="fill:none;stroke:#0000ff;stroke-dasharray:5.55,2.4;stroke-dashoffset:0;stroke-width:1.5;"/>
   </g>
   <g id="line2d_35">
    <path clip-path="url(#p36c3abd7be)" d="M 554.780215 401.718125 
L 554.780215 22.318125 
" style="fill:none;stroke:#0000ff;stroke-dasharray:5.55,2.4;stroke-dashoffset:0;stroke-width:1.5;"/>
   </g>
   <g id="line2d_36">
    <path clip-path="url(#p36c3abd7be)" d="M 306.143851 401.718125 
L 306.143851 22.318125 
" style="fill:none;stroke:#ff0000;stroke-linecap:square;stroke-width:3;"/>
   </g>
   <g id="patch_3">
    <path d="M 48.982813 401.718125 
L 48.982813 22.318125 
" style="fill:none;stroke:#000000;stroke-linecap:square;stroke-linejoin:miter;stroke-width:0.8;"/>
   </g>
   <g id="patch_4">
    <path d="M 705.382812 401.718125 
L 705.382812 22.318125 
" style="fill:none;stroke:#000000;stroke-linecap:square;stroke-linejoin:miter;stroke-width:0.8;"/>
   </g>
   <g id="patch_5">
    <path d="M 48.982813 401.718125 
L 705.382812 401.718125 
" style="fill:none;stroke:#000000;stroke-linecap:square;stroke-linejoin:miter;stroke-width:0.8;"/>
   </g>
   <g id="patch_6">
    <path d="M 48.982813 22.318125 
L 705.382812 22.318125 
" style="fill:none;stroke:#000000;stroke-linecap:square;stroke-linejoin:miter;stroke-width:0.8;"/>
   </g>
   <g id="text_16">
    <!-- Workplace Mobility Graph for India -->
    <defs>
     <path d="M 59.515625 10.40625 
L 59.515625 29.984375 
L 43.40625 29.984375 
L 43.40625 38.09375 
L 69.28125 38.09375 
L 69.28125 6.78125 
Q 63.578125 2.734375 56.6875 0.65625 
Q 49.8125 -1.421875 42 -1.421875 
Q 24.90625 -1.421875 15.25 8.5625 
Q 5.609375 18.5625 5.609375 36.375 
Q 5.609375 54.25 15.25 64.234375 
Q 24.90625 74.21875 42 74.21875 
Q 49.125 74.21875 55.546875 72.453125 
Q 61.96875 70.703125 67.390625 67.28125 
L 67.390625 56.78125 
Q 61.921875 61.421875 55.765625 63.765625 
Q 49.609375 66.109375 42.828125 66.109375 
Q 29.4375 66.109375 22.71875 58.640625 
Q 16.015625 51.171875 16.015625 36.375 
Q 16.015625 21.625 22.71875 14.15625 
Q 29.4375 6.6875 42.828125 6.6875 
Q 48.046875 6.6875 52.140625 7.59375 
Q 56.25 8.5 59.515625 10.40625 
z
" id="DejaVuSans-71"/>
     <path d="M 54.890625 33.015625 
L 54.890625 0 
L 45.90625 0 
L 45.90625 32.71875 
Q 45.90625 40.484375 42.875 44.328125 
Q 39.84375 48.1875 33.796875 48.1875 
Q 26.515625 48.1875 22.3125 43.546875 
Q 18.109375 38.921875 18.109375 30.90625 
L 18.109375 0 
L 9.078125 0 
L 9.078125 75.984375 
L 18.109375 75.984375 
L 18.109375 46.1875 
Q 21.34375 51.125 25.703125 53.5625 
Q 30.078125 56 35.796875 56 
Q 45.21875 56 50.046875 50.171875 
Q 54.890625 44.34375 54.890625 33.015625 
z
" id="DejaVuSans-104"/>
     <path d="M 37.109375 75.984375 
L 37.109375 68.5 
L 28.515625 68.5 
Q 23.6875 68.5 21.796875 66.546875 
Q 19.921875 64.59375 19.921875 59.515625 
L 19.921875 54.6875 
L 34.71875 54.6875 
L 34.71875 47.703125 
L 19.921875 47.703125 
L 19.921875 0 
L 10.890625 0 
L 10.890625 47.703125 
L 2.296875 47.703125 
L 2.296875 54.6875 
L 10.890625 54.6875 
L 10.890625 58.5 
Q 10.890625 67.625 15.140625 71.796875 
Q 19.390625 75.984375 28.609375 75.984375 
z
" id="DejaVuSans-102"/>
     <path d="M 9.8125 72.90625 
L 19.671875 72.90625 
L 19.671875 0 
L 9.8125 0 
z
" id="DejaVuSans-73"/>
     <path d="M 54.890625 33.015625 
L 54.890625 0 
L 45.90625 0 
L 45.90625 32.71875 
Q 45.90625 40.484375 42.875 44.328125 
Q 39.84375 48.1875 33.796875 48.1875 
Q 26.515625 48.1875 22.3125 43.546875 
Q 18.109375 38.921875 18.109375 30.90625 
L 18.109375 0 
L 9.078125 0 
L 9.078125 54.6875 
L 18.109375 54.6875 
L 18.109375 46.1875 
Q 21.34375 51.125 25.703125 53.5625 
Q 30.078125 56 35.796875 56 
Q 45.21875 56 50.046875 50.171875 
Q 54.890625 44.34375 54.890625 33.015625 
z
" id="DejaVuSans-110"/>
     <path d="M 45.40625 46.390625 
L 45.40625 75.984375 
L 54.390625 75.984375 
L 54.390625 0 
L 45.40625 0 
L 45.40625 8.203125 
Q 42.578125 3.328125 38.25 0.953125 
Q 33.9375 -1.421875 27.875 -1.421875 
Q 17.96875 -1.421875 11.734375 6.484375 
Q 5.515625 14.40625 5.515625 27.296875 
Q 5.515625 40.1875 11.734375 48.09375 
Q 17.96875 56 27.875 56 
Q 33.9375 56 38.25 53.625 
Q 42.578125 51.265625 45.40625 46.390625 
z
M 14.796875 27.296875 
Q 14.796875 17.390625 18.875 11.75 
Q 22.953125 6.109375 30.078125 6.109375 
Q 37.203125 6.109375 41.296875 11.75 
Q 45.40625 17.390625 45.40625 27.296875 
Q 45.40625 37.203125 41.296875 42.84375 
Q 37.203125 48.484375 30.078125 48.484375 
Q 22.953125 48.484375 18.875 42.84375 
Q 14.796875 37.203125 14.796875 27.296875 
z
" id="DejaVuSans-100"/>
    </defs>
    <g transform="translate(273.27875 16.318125)scale(0.12 -0.12)">
     <use xlink:href="#DejaVuSans-87"/>
     <use x="93.001953" xlink:href="#DejaVuSans-111"/>
     <use x="154.183594" xlink:href="#DejaVuSans-114"/>
     <use x="195.296875" xlink:href="#DejaVuSans-107"/>
     <use x="253.207031" xlink:href="#DejaVuSans-112"/>
     <use x="316.683594" xlink:href="#DejaVuSans-108"/>
     <use x="344.466797" xlink:href="#DejaVuSans-97"/>
     <use x="405.746094" xlink:href="#DejaVuSans-99"/>
     <use x="460.726562" xlink:href="#DejaVuSans-101"/>
     <use x="522.25" xlink:href="#DejaVuSans-32"/>
     <use x="554.037109" xlink:href="#DejaVuSans-77"/>
     <use x="640.316406" xlink:href="#DejaVuSans-111"/>
     <use x="701.498047" xlink:href="#DejaVuSans-98"/>
     <use x="764.974609" xlink:href="#DejaVuSans-105"/>
     <use x="792.757812" xlink:href="#DejaVuSans-108"/>
     <use x="820.541016" xlink:href="#DejaVuSans-105"/>
     <use x="848.324219" xlink:href="#DejaVuSans-116"/>
     <use x="887.533203" xlink:href="#DejaVuSans-121"/>
     <use x="946.712891" xlink:href="#DejaVuSans-32"/>
     <use x="978.5" xlink:href="#DejaVuSans-71"/>
     <use x="1055.990234" xlink:href="#DejaVuSans-114"/>
     <use x="1097.103516" xlink:href="#DejaVuSans-97"/>
     <use x="1158.382812" xlink:href="#DejaVuSans-112"/>
     <use x="1221.859375" xlink:href="#DejaVuSans-104"/>
     <use x="1285.238281" xlink:href="#DejaVuSans-32"/>
     <use x="1317.025391" xlink:href="#DejaVuSans-102"/>
     <use x="1352.230469" xlink:href="#DejaVuSans-111"/>
     <use x="1413.412109" xlink:href="#DejaVuSans-114"/>
     <use x="1454.525391" xlink:href="#DejaVuSans-32"/>
     <use x="1486.3125" xlink:href="#DejaVuSans-73"/>
     <use x="1515.804688" xlink:href="#DejaVuSans-110"/>
     <use x="1579.183594" xlink:href="#DejaVuSans-100"/>
     <use x="1642.660156" xlink:href="#DejaVuSans-105"/>
     <use x="1670.443359" xlink:href="#DejaVuSans-97"/>
    </g>
   </g>
   <g id="legend_1">
    <g id="patch_7">
     <path d="M 543.907812 44.99625 
L 698.382812 44.99625 
Q 700.382812 44.99625 700.382812 42.99625 
L 700.382812 29.318125 
Q 700.382812 27.318125 698.382812 27.318125 
L 543.907812 27.318125 
Q 541.907812 27.318125 541.907812 29.318125 
L 541.907812 42.99625 
Q 541.907812 44.99625 543.907812 44.99625 
z
" style="fill:#ffffff;opacity:0.8;stroke:#cccccc;stroke-linejoin:miter;"/>
    </g>
    <g id="line2d_37">
     <path d="M 545.907812 35.416562 
L 565.907812 35.416562 
" style="fill:none;stroke:#ff0000;stroke-linecap:square;stroke-width:3;"/>
    </g>
    <g id="line2d_38"/>
    <g id="text_17">
     <!-- Effective Lockdown date -->
     <defs>
      <path d="M 9.8125 72.90625 
L 55.90625 72.90625 
L 55.90625 64.59375 
L 19.671875 64.59375 
L 19.671875 43.015625 
L 54.390625 43.015625 
L 54.390625 34.71875 
L 19.671875 34.71875 
L 19.671875 8.296875 
L 56.78125 8.296875 
L 56.78125 0 
L 9.8125 0 
z
" id="DejaVuSans-69"/>
      <path d="M 2.984375 54.6875 
L 12.5 54.6875 
L 29.59375 8.796875 
L 46.6875 54.6875 
L 56.203125 54.6875 
L 35.6875 0 
L 23.484375 0 
z
" id="DejaVuSans-118"/>
      <path d="M 9.8125 72.90625 
L 19.671875 72.90625 
L 19.671875 8.296875 
L 55.171875 8.296875 
L 55.171875 0 
L 9.8125 0 
z
" id="DejaVuSans-76"/>
      <path d="M 4.203125 54.6875 
L 13.1875 54.6875 
L 24.421875 12.015625 
L 35.59375 54.6875 
L 46.1875 54.6875 
L 57.421875 12.015625 
L 68.609375 54.6875 
L 77.59375 54.6875 
L 63.28125 0 
L 52.6875 0 
L 40.921875 44.828125 
L 29.109375 0 
L 18.5 0 
z
" id="DejaVuSans-119"/>
     </defs>
     <g transform="translate(573.907812 38.916562)scale(0.1 -0.1)">
      <use xlink:href="#DejaVuSans-69"/>
      <use x="63.183594" xlink:href="#DejaVuSans-102"/>
      <use x="98.388672" xlink:href="#DejaVuSans-102"/>
      <use x="133.59375" xlink:href="#DejaVuSans-101"/>
      <use x="195.117188" xlink:href="#DejaVuSans-99"/>
      <use x="250.097656" xlink:href="#DejaVuSans-116"/>
      <use x="289.306641" xlink:href="#DejaVuSans-105"/>
      <use x="317.089844" xlink:href="#DejaVuSans-118"/>
      <use x="376.269531" xlink:href="#DejaVuSans-101"/>
      <use x="437.792969" xlink:href="#DejaVuSans-32"/>
      <use x="469.580078" xlink:href="#DejaVuSans-76"/>
      <use x="523.542969" xlink:href="#DejaVuSans-111"/>
      <use x="584.724609" xlink:href="#DejaVuSans-99"/>
      <use x="639.705078" xlink:href="#DejaVuSans-107"/>
      <use x="697.615234" xlink:href="#DejaVuSans-100"/>
      <use x="761.091797" xlink:href="#DejaVuSans-111"/>
      <use x="822.273438" xlink:href="#DejaVuSans-119"/>
      <use x="904.060547" xlink:href="#DejaVuSans-110"/>
      <use x="967.439453" xlink:href="#DejaVuSans-32"/>
      <use x="999.226562" xlink:href="#DejaVuSans-100"/>
      <use x="1062.703125" xlink:href="#DejaVuSans-97"/>
      <use x="1123.982422" xlink:href="#DejaVuSans-116"/>
      <use x="1163.191406" xlink:href="#DejaVuSans-101"/>
     </g>
    </g>
   </g>
  </g>
 </g>
 <defs>
  <clipPath id="p36c3abd7be">
   <rect height="379.4" width="656.4" x="48.982813" y="22.318125"/>
  </clipPath>
 </defs>
</svg>
