<?xml version="1.0" encoding="utf-8" standalone="no"?>
<!DOCTYPE svg PUBLIC "-//W3C//DTD SVG 1.1//EN"
  "http://www.w3.org/Graphics/SVG/1.1/DTD/svg11.dtd">
<!-- Created with matplotlib (https://matplotlib.org/) -->
<svg height="439.274375pt" version="1.1" viewBox="0 0 712.582813 439.274375" width="712.582813pt" xmlns="http://www.w3.org/2000/svg" xmlns:xlink="http://www.w3.org/1999/xlink">
 <defs>
  <style type="text/css">
*{stroke-linecap:butt;stroke-linejoin:round;}
  </style>
 </defs>
 <g id="figure_1">
  <g id="patch_1">
   <path d="M 0 439.274375 
L 712.582813 439.274375 
L 712.582813 0 
L 0 0 
z
" style="fill:#ffffff;"/>
  </g>
  <g id="axes_1">
   <g id="patch_2">
    <path d="M 48.982813 401.718125 
L 705.382812 401.718125 
L 705.382812 22.318125 
L 48.982813 22.318125 
z
" style="fill:#ffffff;"/>
   </g>
   <g id="PolyCollection_1">
    <defs>
     <path d="M 78.819176 -394.595024 
L 78.819176 -347.950675 
L 85.923072 -355.695693 
L 93.026968 -333.781239 
L 100.130864 -334.447493 
L 107.234761 -333.135595 
L 114.338657 -325.845142 
L 121.442553 -315.621665 
L 128.546449 -328.200779 
L 135.650345 -338.306179 
L 142.754241 -315.670822 
L 149.858137 -317.637426 
L 156.962033 -316.649284 
L 164.065929 -307.477178 
L 171.169825 -298.373746 
L 178.273722 -306.959443 
L 185.377618 -319.258855 
L 192.481514 -296.36698 
L 199.58541 -297.520651 
L 206.689306 -296.606644 
L 213.793202 -289.687221 
L 220.897098 -275.013693 
L 228.000994 -285.07335 
L 235.10489 -279.897895 
L 242.208787 -243.13899 
L 249.312683 -230.210739 
L 256.416579 -213.251928 
L 263.520475 -193.454558 
L 270.624371 -166.088469 
L 277.728267 -163.772506 
L 284.832163 -159.296891 
L 291.936059 -134.676186 
L 299.039955 -134.215071 
L 306.143851 -132.492147 
L 313.247748 -122.620355 
L 320.351644 -109.27461 
L 327.45554 -122.315627 
L 334.559436 -130.577163 
L 341.663332 -105.880602 
L 348.767228 -106.41641 
L 355.871124 -105.878926 
L 362.97502 -102.498653 
L 370.078916 -95.702143 
L 377.182812 -109.9791 
L 384.286709 -123.516177 
L 391.390605 -102.378266 
L 398.494501 -107.973026 
L 405.598397 -108.622606 
L 412.702293 -104.792244 
L 419.806189 -97.845717 
L 426.910085 -111.920073 
L 434.013981 -124.546793 
L 441.117877 -105.189831 
L 448.221774 -108.942736 
L 455.32567 -110.068098 
L 462.429566 -107.284829 
L 469.533462 -98.183441 
L 476.637358 -115.507614 
L 483.741254 -126.343039 
L 490.84515 -105.801992 
L 497.949046 -111.226765 
L 505.052942 -115.70213 
L 512.156838 -111.065365 
L 519.260735 -105.504571 
L 526.364631 -121.011717 
L 533.468527 -135.437274 
L 540.572423 -117.082399 
L 547.676319 -121.596886 
L 554.780215 -124.048071 
L 561.884111 -124.776899 
L 568.988007 -120.845644 
L 576.091903 -138.799878 
L 583.1958 -154.07604 
L 590.299696 -138.263835 
L 597.403592 -146.997891 
L 604.507488 -148.845704 
L 611.611384 -148.384857 
L 618.71528 -144.469684 
L 625.819176 -163.783792 
L 632.923072 -178.998477 
L 640.026968 -163.260416 
L 647.130864 -173.091901 
L 654.234761 -176.847704 
L 661.338657 -174.852142 
L 668.442553 -169.670332 
L 675.546449 -187.058053 
L 675.546449 -233.507171 
L 675.546449 -233.507171 
L 668.442553 -215.575894 
L 661.338657 -218.529783 
L 654.234761 -221.570363 
L 647.130864 -217.195512 
L 640.026968 -208.294926 
L 632.923072 -225.739715 
L 625.819176 -208.323432 
L 618.71528 -190.377561 
L 611.611384 -195.718303 
L 604.507488 -195.547445 
L 597.403592 -192.201976 
L 590.299696 -183.426862 
L 583.1958 -199.527577 
L 576.091903 -185.119568 
L 568.988007 -164.832004 
L 561.884111 -169.476772 
L 554.780215 -170.621594 
L 547.676319 -167.70559 
L 540.572423 -161.582981 
L 533.468527 -180.419514 
L 526.364631 -166.349663 
L 519.260735 -149.644183 
L 512.156838 -157.057013 
L 505.052942 -160.521447 
L 497.949046 -155.842706 
L 490.84515 -152.453179 
L 483.741254 -172.833591 
L 476.637358 -160.736427 
L 469.533462 -144.784272 
L 462.429566 -150.325225 
L 455.32567 -157.462202 
L 448.221774 -155.112255 
L 441.117877 -151.322953 
L 434.013981 -170.515825 
L 426.910085 -157.206904 
L 419.806189 -142.036967 
L 412.702293 -151.653813 
L 405.598397 -153.208359 
L 398.494501 -154.284842 
L 391.390605 -148.877791 
L 384.286709 -168.474824 
L 377.182812 -152.591981 
L 370.078916 -139.436983 
L 362.97502 -148.124355 
L 355.871124 -151.158752 
L 348.767228 -151.576646 
L 341.663332 -151.556416 
L 334.559436 -175.439751 
L 327.45554 -169.509548 
L 320.351644 -156.031886 
L 313.247748 -169.472677 
L 306.143851 -177.353289 
L 299.039955 -180.955142 
L 291.936059 -181.038664 
L 284.832163 -203.947588 
L 277.728267 -211.025655 
L 270.624371 -211.367217 
L 263.520475 -238.8212 
L 256.416579 -259.730891 
L 249.312683 -275.212016 
L 242.208787 -288.225529 
L 235.10489 -327.395015 
L 228.000994 -329.61615 
L 220.897098 -321.07325 
L 213.793202 -335.745723 
L 206.689306 -342.938721 
L 199.58541 -343.58099 
L 192.481514 -341.332726 
L 185.377618 -364.611434 
L 178.273722 -354.868205 
L 171.169825 -344.095465 
L 164.065929 -354.657447 
L 156.962033 -361.030571 
L 149.858137 -364.122148 
L 142.754241 -361.011859 
L 135.650345 -385.567338 
L 128.546449 -375.285407 
L 121.442553 -361.761855 
L 114.338657 -374.072508 
L 107.234761 -381.510473 
L 100.130864 -380.868264 
L 93.026968 -379.726802 
L 85.923072 -399.710795 
L 78.819176 -394.595024 
z
" id="ma0238ef7c7" style="stroke:#0072b2;stroke-opacity:0.2;"/>
    </defs>
    <g clip-path="url(#p847f86a1b8)">
     <use style="fill:#0072b2;fill-opacity:0.2;stroke:#0072b2;stroke-opacity:0.2;" x="0" xlink:href="#ma0238ef7c7" y="439.274375"/>
    </g>
   </g>
   <g id="matplotlib.axis_1">
    <g id="xtick_1">
     <g id="line2d_1">
      <path clip-path="url(#p847f86a1b8)" d="M 71.71528 401.718125 
L 71.71528 22.318125 
" style="fill:none;stroke:#808080;stroke-linecap:square;stroke-opacity:0.2;"/>
     </g>
     <g id="line2d_2">
      <defs>
       <path d="M 0 0 
L 0 3.5 
" id="mde92b3d1d5" style="stroke:#000000;stroke-width:0.8;"/>
      </defs>
      <g>
       <use style="stroke:#000000;stroke-width:0.8;" x="71.71528" xlink:href="#mde92b3d1d5" y="401.718125"/>
      </g>
     </g>
     <g id="text_1">
      <!-- 2020-02-14 -->
      <defs>
       <path d="M 19.1875 8.296875 
L 53.609375 8.296875 
L 53.609375 0 
L 7.328125 0 
L 7.328125 8.296875 
Q 12.9375 14.109375 22.625 23.890625 
Q 32.328125 33.6875 34.8125 36.53125 
Q 39.546875 41.84375 41.421875 45.53125 
Q 43.3125 49.21875 43.3125 52.78125 
Q 43.3125 58.59375 39.234375 62.25 
Q 35.15625 65.921875 28.609375 65.921875 
Q 23.96875 65.921875 18.8125 64.3125 
Q 13.671875 62.703125 7.8125 59.421875 
L 7.8125 69.390625 
Q 13.765625 71.78125 18.9375 73 
Q 24.125 74.21875 28.421875 74.21875 
Q 39.75 74.21875 46.484375 68.546875 
Q 53.21875 62.890625 53.21875 53.421875 
Q 53.21875 48.921875 51.53125 44.890625 
Q 49.859375 40.875 45.40625 35.40625 
Q 44.1875 33.984375 37.640625 27.21875 
Q 31.109375 20.453125 19.1875 8.296875 
z
" id="DejaVuSans-50"/>
       <path d="M 31.78125 66.40625 
Q 24.171875 66.40625 20.328125 58.90625 
Q 16.5 51.421875 16.5 36.375 
Q 16.5 21.390625 20.328125 13.890625 
Q 24.171875 6.390625 31.78125 6.390625 
Q 39.453125 6.390625 43.28125 13.890625 
Q 47.125 21.390625 47.125 36.375 
Q 47.125 51.421875 43.28125 58.90625 
Q 39.453125 66.40625 31.78125 66.40625 
z
M 31.78125 74.21875 
Q 44.046875 74.21875 50.515625 64.515625 
Q 56.984375 54.828125 56.984375 36.375 
Q 56.984375 17.96875 50.515625 8.265625 
Q 44.046875 -1.421875 31.78125 -1.421875 
Q 19.53125 -1.421875 13.0625 8.265625 
Q 6.59375 17.96875 6.59375 36.375 
Q 6.59375 54.828125 13.0625 64.515625 
Q 19.53125 74.21875 31.78125 74.21875 
z
" id="DejaVuSans-48"/>
       <path d="M 4.890625 31.390625 
L 31.203125 31.390625 
L 31.203125 23.390625 
L 4.890625 23.390625 
z
" id="DejaVuSans-45"/>
       <path d="M 12.40625 8.296875 
L 28.515625 8.296875 
L 28.515625 63.921875 
L 10.984375 60.40625 
L 10.984375 69.390625 
L 28.421875 72.90625 
L 38.28125 72.90625 
L 38.28125 8.296875 
L 54.390625 8.296875 
L 54.390625 0 
L 12.40625 0 
z
" id="DejaVuSans-49"/>
       <path d="M 37.796875 64.3125 
L 12.890625 25.390625 
L 37.796875 25.390625 
z
M 35.203125 72.90625 
L 47.609375 72.90625 
L 47.609375 25.390625 
L 58.015625 25.390625 
L 58.015625 17.1875 
L 47.609375 17.1875 
L 47.609375 0 
L 37.796875 0 
L 37.796875 17.1875 
L 4.890625 17.1875 
L 4.890625 26.703125 
z
" id="DejaVuSans-52"/>
      </defs>
      <g transform="translate(42.657468 416.316562)scale(0.1 -0.1)">
       <use xlink:href="#DejaVuSans-50"/>
       <use x="63.623047" xlink:href="#DejaVuSans-48"/>
       <use x="127.246094" xlink:href="#DejaVuSans-50"/>
       <use x="190.869141" xlink:href="#DejaVuSans-48"/>
       <use x="254.492188" xlink:href="#DejaVuSans-45"/>
       <use x="290.576172" xlink:href="#DejaVuSans-48"/>
       <use x="354.199219" xlink:href="#DejaVuSans-50"/>
       <use x="417.822266" xlink:href="#DejaVuSans-45"/>
       <use x="453.90625" xlink:href="#DejaVuSans-49"/>
       <use x="517.529297" xlink:href="#DejaVuSans-52"/>
      </g>
     </g>
    </g>
    <g id="xtick_2">
     <g id="line2d_3">
      <path clip-path="url(#p847f86a1b8)" d="M 171.169825 401.718125 
L 171.169825 22.318125 
" style="fill:none;stroke:#808080;stroke-linecap:square;stroke-opacity:0.2;"/>
     </g>
     <g id="line2d_4">
      <g>
       <use style="stroke:#000000;stroke-width:0.8;" x="171.169825" xlink:href="#mde92b3d1d5" y="401.718125"/>
      </g>
     </g>
     <g id="text_2">
      <!-- 2020-02-28 -->
      <defs>
       <path d="M 31.78125 34.625 
Q 24.75 34.625 20.71875 30.859375 
Q 16.703125 27.09375 16.703125 20.515625 
Q 16.703125 13.921875 20.71875 10.15625 
Q 24.75 6.390625 31.78125 6.390625 
Q 38.8125 6.390625 42.859375 10.171875 
Q 46.921875 13.96875 46.921875 20.515625 
Q 46.921875 27.09375 42.890625 30.859375 
Q 38.875 34.625 31.78125 34.625 
z
M 21.921875 38.8125 
Q 15.578125 40.375 12.03125 44.71875 
Q 8.5 49.078125 8.5 55.328125 
Q 8.5 64.0625 14.71875 69.140625 
Q 20.953125 74.21875 31.78125 74.21875 
Q 42.671875 74.21875 48.875 69.140625 
Q 55.078125 64.0625 55.078125 55.328125 
Q 55.078125 49.078125 51.53125 44.71875 
Q 48 40.375 41.703125 38.8125 
Q 48.828125 37.15625 52.796875 32.3125 
Q 56.78125 27.484375 56.78125 20.515625 
Q 56.78125 9.90625 50.3125 4.234375 
Q 43.84375 -1.421875 31.78125 -1.421875 
Q 19.734375 -1.421875 13.25 4.234375 
Q 6.78125 9.90625 6.78125 20.515625 
Q 6.78125 27.484375 10.78125 32.3125 
Q 14.796875 37.15625 21.921875 38.8125 
z
M 18.3125 54.390625 
Q 18.3125 48.734375 21.84375 45.5625 
Q 25.390625 42.390625 31.78125 42.390625 
Q 38.140625 42.390625 41.71875 45.5625 
Q 45.3125 48.734375 45.3125 54.390625 
Q 45.3125 60.0625 41.71875 63.234375 
Q 38.140625 66.40625 31.78125 66.40625 
Q 25.390625 66.40625 21.84375 63.234375 
Q 18.3125 60.0625 18.3125 54.390625 
z
" id="DejaVuSans-56"/>
      </defs>
      <g transform="translate(142.112013 416.316562)scale(0.1 -0.1)">
       <use xlink:href="#DejaVuSans-50"/>
       <use x="63.623047" xlink:href="#DejaVuSans-48"/>
       <use x="127.246094" xlink:href="#DejaVuSans-50"/>
       <use x="190.869141" xlink:href="#DejaVuSans-48"/>
       <use x="254.492188" xlink:href="#DejaVuSans-45"/>
       <use x="290.576172" xlink:href="#DejaVuSans-48"/>
       <use x="354.199219" xlink:href="#DejaVuSans-50"/>
       <use x="417.822266" xlink:href="#DejaVuSans-45"/>
       <use x="453.90625" xlink:href="#DejaVuSans-50"/>
       <use x="517.529297" xlink:href="#DejaVuSans-56"/>
      </g>
     </g>
    </g>
    <g id="xtick_3">
     <g id="line2d_5">
      <path clip-path="url(#p847f86a1b8)" d="M 270.624371 401.718125 
L 270.624371 22.318125 
" style="fill:none;stroke:#808080;stroke-linecap:square;stroke-opacity:0.2;"/>
     </g>
     <g id="line2d_6">
      <g>
       <use style="stroke:#000000;stroke-width:0.8;" x="270.624371" xlink:href="#mde92b3d1d5" y="401.718125"/>
      </g>
     </g>
     <g id="text_3">
      <!-- 2020-03-13 -->
      <defs>
       <path d="M 40.578125 39.3125 
Q 47.65625 37.796875 51.625 33 
Q 55.609375 28.21875 55.609375 21.1875 
Q 55.609375 10.40625 48.1875 4.484375 
Q 40.765625 -1.421875 27.09375 -1.421875 
Q 22.515625 -1.421875 17.65625 -0.515625 
Q 12.796875 0.390625 7.625 2.203125 
L 7.625 11.71875 
Q 11.71875 9.328125 16.59375 8.109375 
Q 21.484375 6.890625 26.8125 6.890625 
Q 36.078125 6.890625 40.9375 10.546875 
Q 45.796875 14.203125 45.796875 21.1875 
Q 45.796875 27.640625 41.28125 31.265625 
Q 36.765625 34.90625 28.71875 34.90625 
L 20.21875 34.90625 
L 20.21875 43.015625 
L 29.109375 43.015625 
Q 36.375 43.015625 40.234375 45.921875 
Q 44.09375 48.828125 44.09375 54.296875 
Q 44.09375 59.90625 40.109375 62.90625 
Q 36.140625 65.921875 28.71875 65.921875 
Q 24.65625 65.921875 20.015625 65.03125 
Q 15.375 64.15625 9.8125 62.3125 
L 9.8125 71.09375 
Q 15.4375 72.65625 20.34375 73.4375 
Q 25.25 74.21875 29.59375 74.21875 
Q 40.828125 74.21875 47.359375 69.109375 
Q 53.90625 64.015625 53.90625 55.328125 
Q 53.90625 49.265625 50.4375 45.09375 
Q 46.96875 40.921875 40.578125 39.3125 
z
" id="DejaVuSans-51"/>
      </defs>
      <g transform="translate(241.566558 416.316562)scale(0.1 -0.1)">
       <use xlink:href="#DejaVuSans-50"/>
       <use x="63.623047" xlink:href="#DejaVuSans-48"/>
       <use x="127.246094" xlink:href="#DejaVuSans-50"/>
       <use x="190.869141" xlink:href="#DejaVuSans-48"/>
       <use x="254.492188" xlink:href="#DejaVuSans-45"/>
       <use x="290.576172" xlink:href="#DejaVuSans-48"/>
       <use x="354.199219" xlink:href="#DejaVuSans-51"/>
       <use x="417.822266" xlink:href="#DejaVuSans-45"/>
       <use x="453.90625" xlink:href="#DejaVuSans-49"/>
       <use x="517.529297" xlink:href="#DejaVuSans-51"/>
      </g>
     </g>
    </g>
    <g id="xtick_4">
     <g id="line2d_7">
      <path clip-path="url(#p847f86a1b8)" d="M 370.078916 401.718125 
L 370.078916 22.318125 
" style="fill:none;stroke:#808080;stroke-linecap:square;stroke-opacity:0.2;"/>
     </g>
     <g id="line2d_8">
      <g>
       <use style="stroke:#000000;stroke-width:0.8;" x="370.078916" xlink:href="#mde92b3d1d5" y="401.718125"/>
      </g>
     </g>
     <g id="text_4">
      <!-- 2020-03-27 -->
      <defs>
       <path d="M 8.203125 72.90625 
L 55.078125 72.90625 
L 55.078125 68.703125 
L 28.609375 0 
L 18.3125 0 
L 43.21875 64.59375 
L 8.203125 64.59375 
z
" id="DejaVuSans-55"/>
      </defs>
      <g transform="translate(341.021104 416.316562)scale(0.1 -0.1)">
       <use xlink:href="#DejaVuSans-50"/>
       <use x="63.623047" xlink:href="#DejaVuSans-48"/>
       <use x="127.246094" xlink:href="#DejaVuSans-50"/>
       <use x="190.869141" xlink:href="#DejaVuSans-48"/>
       <use x="254.492188" xlink:href="#DejaVuSans-45"/>
       <use x="290.576172" xlink:href="#DejaVuSans-48"/>
       <use x="354.199219" xlink:href="#DejaVuSans-51"/>
       <use x="417.822266" xlink:href="#DejaVuSans-45"/>
       <use x="453.90625" xlink:href="#DejaVuSans-50"/>
       <use x="517.529297" xlink:href="#DejaVuSans-55"/>
      </g>
     </g>
    </g>
    <g id="xtick_5">
     <g id="line2d_9">
      <path clip-path="url(#p847f86a1b8)" d="M 469.533462 401.718125 
L 469.533462 22.318125 
" style="fill:none;stroke:#808080;stroke-linecap:square;stroke-opacity:0.2;"/>
     </g>
     <g id="line2d_10">
      <g>
       <use style="stroke:#000000;stroke-width:0.8;" x="469.533462" xlink:href="#mde92b3d1d5" y="401.718125"/>
      </g>
     </g>
     <g id="text_5">
      <!-- 2020-04-10 -->
      <g transform="translate(440.475649 416.316562)scale(0.1 -0.1)">
       <use xlink:href="#DejaVuSans-50"/>
       <use x="63.623047" xlink:href="#DejaVuSans-48"/>
       <use x="127.246094" xlink:href="#DejaVuSans-50"/>
       <use x="190.869141" xlink:href="#DejaVuSans-48"/>
       <use x="254.492188" xlink:href="#DejaVuSans-45"/>
       <use x="290.576172" xlink:href="#DejaVuSans-48"/>
       <use x="354.199219" xlink:href="#DejaVuSans-52"/>
       <use x="417.822266" xlink:href="#DejaVuSans-45"/>
       <use x="453.90625" xlink:href="#DejaVuSans-49"/>
       <use x="517.529297" xlink:href="#DejaVuSans-48"/>
      </g>
     </g>
    </g>
    <g id="xtick_6">
     <g id="line2d_11">
      <path clip-path="url(#p847f86a1b8)" d="M 568.988007 401.718125 
L 568.988007 22.318125 
" style="fill:none;stroke:#808080;stroke-linecap:square;stroke-opacity:0.2;"/>
     </g>
     <g id="line2d_12">
      <g>
       <use style="stroke:#000000;stroke-width:0.8;" x="568.988007" xlink:href="#mde92b3d1d5" y="401.718125"/>
      </g>
     </g>
     <g id="text_6">
      <!-- 2020-04-24 -->
      <g transform="translate(539.930195 416.316562)scale(0.1 -0.1)">
       <use xlink:href="#DejaVuSans-50"/>
       <use x="63.623047" xlink:href="#DejaVuSans-48"/>
       <use x="127.246094" xlink:href="#DejaVuSans-50"/>
       <use x="190.869141" xlink:href="#DejaVuSans-48"/>
       <use x="254.492188" xlink:href="#DejaVuSans-45"/>
       <use x="290.576172" xlink:href="#DejaVuSans-48"/>
       <use x="354.199219" xlink:href="#DejaVuSans-52"/>
       <use x="417.822266" xlink:href="#DejaVuSans-45"/>
       <use x="453.90625" xlink:href="#DejaVuSans-50"/>
       <use x="517.529297" xlink:href="#DejaVuSans-52"/>
      </g>
     </g>
    </g>
    <g id="xtick_7">
     <g id="line2d_13">
      <path clip-path="url(#p847f86a1b8)" d="M 668.442553 401.718125 
L 668.442553 22.318125 
" style="fill:none;stroke:#808080;stroke-linecap:square;stroke-opacity:0.2;"/>
     </g>
     <g id="line2d_14">
      <g>
       <use style="stroke:#000000;stroke-width:0.8;" x="668.442553" xlink:href="#mde92b3d1d5" y="401.718125"/>
      </g>
     </g>
     <g id="text_7">
      <!-- 2020-05-08 -->
      <defs>
       <path d="M 10.796875 72.90625 
L 49.515625 72.90625 
L 49.515625 64.59375 
L 19.828125 64.59375 
L 19.828125 46.734375 
Q 21.96875 47.46875 24.109375 47.828125 
Q 26.265625 48.1875 28.421875 48.1875 
Q 40.625 48.1875 47.75 41.5 
Q 54.890625 34.8125 54.890625 23.390625 
Q 54.890625 11.625 47.5625 5.09375 
Q 40.234375 -1.421875 26.90625 -1.421875 
Q 22.3125 -1.421875 17.546875 -0.640625 
Q 12.796875 0.140625 7.71875 1.703125 
L 7.71875 11.625 
Q 12.109375 9.234375 16.796875 8.0625 
Q 21.484375 6.890625 26.703125 6.890625 
Q 35.15625 6.890625 40.078125 11.328125 
Q 45.015625 15.765625 45.015625 23.390625 
Q 45.015625 31 40.078125 35.4375 
Q 35.15625 39.890625 26.703125 39.890625 
Q 22.75 39.890625 18.8125 39.015625 
Q 14.890625 38.140625 10.796875 36.28125 
z
" id="DejaVuSans-53"/>
      </defs>
      <g transform="translate(639.38474 416.316562)scale(0.1 -0.1)">
       <use xlink:href="#DejaVuSans-50"/>
       <use x="63.623047" xlink:href="#DejaVuSans-48"/>
       <use x="127.246094" xlink:href="#DejaVuSans-50"/>
       <use x="190.869141" xlink:href="#DejaVuSans-48"/>
       <use x="254.492188" xlink:href="#DejaVuSans-45"/>
       <use x="290.576172" xlink:href="#DejaVuSans-48"/>
       <use x="354.199219" xlink:href="#DejaVuSans-53"/>
       <use x="417.822266" xlink:href="#DejaVuSans-45"/>
       <use x="453.90625" xlink:href="#DejaVuSans-48"/>
       <use x="517.529297" xlink:href="#DejaVuSans-56"/>
      </g>
     </g>
    </g>
    <g id="text_8">
     <!-- Date -->
     <defs>
      <path d="M 19.671875 64.796875 
L 19.671875 8.109375 
L 31.59375 8.109375 
Q 46.6875 8.109375 53.6875 14.9375 
Q 60.6875 21.78125 60.6875 36.53125 
Q 60.6875 51.171875 53.6875 57.984375 
Q 46.6875 64.796875 31.59375 64.796875 
z
M 9.8125 72.90625 
L 30.078125 72.90625 
Q 51.265625 72.90625 61.171875 64.09375 
Q 71.09375 55.28125 71.09375 36.53125 
Q 71.09375 17.671875 61.125 8.828125 
Q 51.171875 0 30.078125 0 
L 9.8125 0 
z
" id="DejaVuSans-68"/>
      <path d="M 34.28125 27.484375 
Q 23.390625 27.484375 19.1875 25 
Q 14.984375 22.515625 14.984375 16.5 
Q 14.984375 11.71875 18.140625 8.90625 
Q 21.296875 6.109375 26.703125 6.109375 
Q 34.1875 6.109375 38.703125 11.40625 
Q 43.21875 16.703125 43.21875 25.484375 
L 43.21875 27.484375 
z
M 52.203125 31.203125 
L 52.203125 0 
L 43.21875 0 
L 43.21875 8.296875 
Q 40.140625 3.328125 35.546875 0.953125 
Q 30.953125 -1.421875 24.3125 -1.421875 
Q 15.921875 -1.421875 10.953125 3.296875 
Q 6 8.015625 6 15.921875 
Q 6 25.140625 12.171875 29.828125 
Q 18.359375 34.515625 30.609375 34.515625 
L 43.21875 34.515625 
L 43.21875 35.40625 
Q 43.21875 41.609375 39.140625 45 
Q 35.0625 48.390625 27.6875 48.390625 
Q 23 48.390625 18.546875 47.265625 
Q 14.109375 46.140625 10.015625 43.890625 
L 10.015625 52.203125 
Q 14.9375 54.109375 19.578125 55.046875 
Q 24.21875 56 28.609375 56 
Q 40.484375 56 46.34375 49.84375 
Q 52.203125 43.703125 52.203125 31.203125 
z
" id="DejaVuSans-97"/>
      <path d="M 18.3125 70.21875 
L 18.3125 54.6875 
L 36.8125 54.6875 
L 36.8125 47.703125 
L 18.3125 47.703125 
L 18.3125 18.015625 
Q 18.3125 11.328125 20.140625 9.421875 
Q 21.96875 7.515625 27.59375 7.515625 
L 36.8125 7.515625 
L 36.8125 0 
L 27.59375 0 
Q 17.1875 0 13.234375 3.875 
Q 9.28125 7.765625 9.28125 18.015625 
L 9.28125 47.703125 
L 2.6875 47.703125 
L 2.6875 54.6875 
L 9.28125 54.6875 
L 9.28125 70.21875 
z
" id="DejaVuSans-116"/>
      <path d="M 56.203125 29.59375 
L 56.203125 25.203125 
L 14.890625 25.203125 
Q 15.484375 15.921875 20.484375 11.0625 
Q 25.484375 6.203125 34.421875 6.203125 
Q 39.59375 6.203125 44.453125 7.46875 
Q 49.3125 8.734375 54.109375 11.28125 
L 54.109375 2.78125 
Q 49.265625 0.734375 44.1875 -0.34375 
Q 39.109375 -1.421875 33.890625 -1.421875 
Q 20.796875 -1.421875 13.15625 6.1875 
Q 5.515625 13.8125 5.515625 26.8125 
Q 5.515625 40.234375 12.765625 48.109375 
Q 20.015625 56 32.328125 56 
Q 43.359375 56 49.78125 48.890625 
Q 56.203125 41.796875 56.203125 29.59375 
z
M 47.21875 32.234375 
Q 47.125 39.59375 43.09375 43.984375 
Q 39.0625 48.390625 32.421875 48.390625 
Q 24.90625 48.390625 20.390625 44.140625 
Q 15.875 39.890625 15.1875 32.171875 
z
" id="DejaVuSans-101"/>
     </defs>
     <g transform="translate(365.232031 429.994687)scale(0.1 -0.1)">
      <use xlink:href="#DejaVuSans-68"/>
      <use x="77.001953" xlink:href="#DejaVuSans-97"/>
      <use x="138.28125" xlink:href="#DejaVuSans-116"/>
      <use x="177.490234" xlink:href="#DejaVuSans-101"/>
     </g>
    </g>
   </g>
   <g id="matplotlib.axis_2">
    <g id="ytick_1">
     <g id="line2d_15">
      <path clip-path="url(#p847f86a1b8)" d="M 48.982813 350.446428 
L 705.382812 350.446428 
" style="fill:none;stroke:#808080;stroke-linecap:square;stroke-opacity:0.2;"/>
     </g>
     <g id="line2d_16">
      <defs>
       <path d="M 0 0 
L -3.5 0 
" id="m4abe5b14bb" style="stroke:#000000;stroke-width:0.8;"/>
      </defs>
      <g>
       <use style="stroke:#000000;stroke-width:0.8;" x="48.982813" xlink:href="#m4abe5b14bb" y="350.446428"/>
      </g>
     </g>
     <g id="text_9">
      <!-- −80 -->
      <defs>
       <path d="M 10.59375 35.5 
L 73.1875 35.5 
L 73.1875 27.203125 
L 10.59375 27.203125 
z
" id="DejaVuSans-8722"/>
      </defs>
      <g transform="translate(20.878125 354.245647)scale(0.1 -0.1)">
       <use xlink:href="#DejaVuSans-8722"/>
       <use x="83.789062" xlink:href="#DejaVuSans-56"/>
       <use x="147.412109" xlink:href="#DejaVuSans-48"/>
      </g>
     </g>
    </g>
    <g id="ytick_2">
     <g id="line2d_17">
      <path clip-path="url(#p847f86a1b8)" d="M 48.982813 282.393943 
L 705.382812 282.393943 
" style="fill:none;stroke:#808080;stroke-linecap:square;stroke-opacity:0.2;"/>
     </g>
     <g id="line2d_18">
      <g>
       <use style="stroke:#000000;stroke-width:0.8;" x="48.982813" xlink:href="#m4abe5b14bb" y="282.393943"/>
      </g>
     </g>
     <g id="text_10">
      <!-- −60 -->
      <defs>
       <path d="M 33.015625 40.375 
Q 26.375 40.375 22.484375 35.828125 
Q 18.609375 31.296875 18.609375 23.390625 
Q 18.609375 15.53125 22.484375 10.953125 
Q 26.375 6.390625 33.015625 6.390625 
Q 39.65625 6.390625 43.53125 10.953125 
Q 47.40625 15.53125 47.40625 23.390625 
Q 47.40625 31.296875 43.53125 35.828125 
Q 39.65625 40.375 33.015625 40.375 
z
M 52.59375 71.296875 
L 52.59375 62.3125 
Q 48.875 64.0625 45.09375 64.984375 
Q 41.3125 65.921875 37.59375 65.921875 
Q 27.828125 65.921875 22.671875 59.328125 
Q 17.53125 52.734375 16.796875 39.40625 
Q 19.671875 43.65625 24.015625 45.921875 
Q 28.375 48.1875 33.59375 48.1875 
Q 44.578125 48.1875 50.953125 41.515625 
Q 57.328125 34.859375 57.328125 23.390625 
Q 57.328125 12.15625 50.6875 5.359375 
Q 44.046875 -1.421875 33.015625 -1.421875 
Q 20.359375 -1.421875 13.671875 8.265625 
Q 6.984375 17.96875 6.984375 36.375 
Q 6.984375 53.65625 15.1875 63.9375 
Q 23.390625 74.21875 37.203125 74.21875 
Q 40.921875 74.21875 44.703125 73.484375 
Q 48.484375 72.75 52.59375 71.296875 
z
" id="DejaVuSans-54"/>
      </defs>
      <g transform="translate(20.878125 286.193162)scale(0.1 -0.1)">
       <use xlink:href="#DejaVuSans-8722"/>
       <use x="83.789062" xlink:href="#DejaVuSans-54"/>
       <use x="147.412109" xlink:href="#DejaVuSans-48"/>
      </g>
     </g>
    </g>
    <g id="ytick_3">
     <g id="line2d_19">
      <path clip-path="url(#p847f86a1b8)" d="M 48.982813 214.341458 
L 705.382812 214.341458 
" style="fill:none;stroke:#808080;stroke-linecap:square;stroke-opacity:0.2;"/>
     </g>
     <g id="line2d_20">
      <g>
       <use style="stroke:#000000;stroke-width:0.8;" x="48.982813" xlink:href="#m4abe5b14bb" y="214.341458"/>
      </g>
     </g>
     <g id="text_11">
      <!-- −40 -->
      <g transform="translate(20.878125 218.140676)scale(0.1 -0.1)">
       <use xlink:href="#DejaVuSans-8722"/>
       <use x="83.789062" xlink:href="#DejaVuSans-52"/>
       <use x="147.412109" xlink:href="#DejaVuSans-48"/>
      </g>
     </g>
    </g>
    <g id="ytick_4">
     <g id="line2d_21">
      <path clip-path="url(#p847f86a1b8)" d="M 48.982813 146.288973 
L 705.382812 146.288973 
" style="fill:none;stroke:#808080;stroke-linecap:square;stroke-opacity:0.2;"/>
     </g>
     <g id="line2d_22">
      <g>
       <use style="stroke:#000000;stroke-width:0.8;" x="48.982813" xlink:href="#m4abe5b14bb" y="146.288973"/>
      </g>
     </g>
     <g id="text_12">
      <!-- −20 -->
      <g transform="translate(20.878125 150.088191)scale(0.1 -0.1)">
       <use xlink:href="#DejaVuSans-8722"/>
       <use x="83.789062" xlink:href="#DejaVuSans-50"/>
       <use x="147.412109" xlink:href="#DejaVuSans-48"/>
      </g>
     </g>
    </g>
    <g id="ytick_5">
     <g id="line2d_23">
      <path clip-path="url(#p847f86a1b8)" d="M 48.982813 78.236488 
L 705.382812 78.236488 
" style="fill:none;stroke:#808080;stroke-linecap:square;stroke-opacity:0.2;"/>
     </g>
     <g id="line2d_24">
      <g>
       <use style="stroke:#000000;stroke-width:0.8;" x="48.982813" xlink:href="#m4abe5b14bb" y="78.236488"/>
      </g>
     </g>
     <g id="text_13">
      <!-- 0 -->
      <g transform="translate(35.620313 82.035706)scale(0.1 -0.1)">
       <use xlink:href="#DejaVuSans-48"/>
      </g>
     </g>
    </g>
    <g id="text_14">
     <!-- Workplace Mobility -->
     <defs>
      <path d="M 3.328125 72.90625 
L 13.28125 72.90625 
L 28.609375 11.28125 
L 43.890625 72.90625 
L 54.984375 72.90625 
L 70.3125 11.28125 
L 85.59375 72.90625 
L 95.609375 72.90625 
L 77.296875 0 
L 64.890625 0 
L 49.515625 63.28125 
L 33.984375 0 
L 21.578125 0 
z
" id="DejaVuSans-87"/>
      <path d="M 30.609375 48.390625 
Q 23.390625 48.390625 19.1875 42.75 
Q 14.984375 37.109375 14.984375 27.296875 
Q 14.984375 17.484375 19.15625 11.84375 
Q 23.34375 6.203125 30.609375 6.203125 
Q 37.796875 6.203125 41.984375 11.859375 
Q 46.1875 17.53125 46.1875 27.296875 
Q 46.1875 37.015625 41.984375 42.703125 
Q 37.796875 48.390625 30.609375 48.390625 
z
M 30.609375 56 
Q 42.328125 56 49.015625 48.375 
Q 55.71875 40.765625 55.71875 27.296875 
Q 55.71875 13.875 49.015625 6.21875 
Q 42.328125 -1.421875 30.609375 -1.421875 
Q 18.84375 -1.421875 12.171875 6.21875 
Q 5.515625 13.875 5.515625 27.296875 
Q 5.515625 40.765625 12.171875 48.375 
Q 18.84375 56 30.609375 56 
z
" id="DejaVuSans-111"/>
      <path d="M 41.109375 46.296875 
Q 39.59375 47.171875 37.8125 47.578125 
Q 36.03125 48 33.890625 48 
Q 26.265625 48 22.1875 43.046875 
Q 18.109375 38.09375 18.109375 28.8125 
L 18.109375 0 
L 9.078125 0 
L 9.078125 54.6875 
L 18.109375 54.6875 
L 18.109375 46.1875 
Q 20.953125 51.171875 25.484375 53.578125 
Q 30.03125 56 36.53125 56 
Q 37.453125 56 38.578125 55.875 
Q 39.703125 55.765625 41.0625 55.515625 
z
" id="DejaVuSans-114"/>
      <path d="M 9.078125 75.984375 
L 18.109375 75.984375 
L 18.109375 31.109375 
L 44.921875 54.6875 
L 56.390625 54.6875 
L 27.390625 29.109375 
L 57.625 0 
L 45.90625 0 
L 18.109375 26.703125 
L 18.109375 0 
L 9.078125 0 
z
" id="DejaVuSans-107"/>
      <path d="M 18.109375 8.203125 
L 18.109375 -20.796875 
L 9.078125 -20.796875 
L 9.078125 54.6875 
L 18.109375 54.6875 
L 18.109375 46.390625 
Q 20.953125 51.265625 25.265625 53.625 
Q 29.59375 56 35.59375 56 
Q 45.5625 56 51.78125 48.09375 
Q 58.015625 40.1875 58.015625 27.296875 
Q 58.015625 14.40625 51.78125 6.484375 
Q 45.5625 -1.421875 35.59375 -1.421875 
Q 29.59375 -1.421875 25.265625 0.953125 
Q 20.953125 3.328125 18.109375 8.203125 
z
M 48.6875 27.296875 
Q 48.6875 37.203125 44.609375 42.84375 
Q 40.53125 48.484375 33.40625 48.484375 
Q 26.265625 48.484375 22.1875 42.84375 
Q 18.109375 37.203125 18.109375 27.296875 
Q 18.109375 17.390625 22.1875 11.75 
Q 26.265625 6.109375 33.40625 6.109375 
Q 40.53125 6.109375 44.609375 11.75 
Q 48.6875 17.390625 48.6875 27.296875 
z
" id="DejaVuSans-112"/>
      <path d="M 9.421875 75.984375 
L 18.40625 75.984375 
L 18.40625 0 
L 9.421875 0 
z
" id="DejaVuSans-108"/>
      <path d="M 48.78125 52.59375 
L 48.78125 44.1875 
Q 44.96875 46.296875 41.140625 47.34375 
Q 37.3125 48.390625 33.40625 48.390625 
Q 24.65625 48.390625 19.8125 42.84375 
Q 14.984375 37.3125 14.984375 27.296875 
Q 14.984375 17.28125 19.8125 11.734375 
Q 24.65625 6.203125 33.40625 6.203125 
Q 37.3125 6.203125 41.140625 7.25 
Q 44.96875 8.296875 48.78125 10.40625 
L 48.78125 2.09375 
Q 45.015625 0.34375 40.984375 -0.53125 
Q 36.96875 -1.421875 32.421875 -1.421875 
Q 20.0625 -1.421875 12.78125 6.34375 
Q 5.515625 14.109375 5.515625 27.296875 
Q 5.515625 40.671875 12.859375 48.328125 
Q 20.21875 56 33.015625 56 
Q 37.15625 56 41.109375 55.140625 
Q 45.0625 54.296875 48.78125 52.59375 
z
" id="DejaVuSans-99"/>
      <path id="DejaVuSans-32"/>
      <path d="M 9.8125 72.90625 
L 24.515625 72.90625 
L 43.109375 23.296875 
L 61.8125 72.90625 
L 76.515625 72.90625 
L 76.515625 0 
L 66.890625 0 
L 66.890625 64.015625 
L 48.09375 14.015625 
L 38.1875 14.015625 
L 19.390625 64.015625 
L 19.390625 0 
L 9.8125 0 
z
" id="DejaVuSans-77"/>
      <path d="M 48.6875 27.296875 
Q 48.6875 37.203125 44.609375 42.84375 
Q 40.53125 48.484375 33.40625 48.484375 
Q 26.265625 48.484375 22.1875 42.84375 
Q 18.109375 37.203125 18.109375 27.296875 
Q 18.109375 17.390625 22.1875 11.75 
Q 26.265625 6.109375 33.40625 6.109375 
Q 40.53125 6.109375 44.609375 11.75 
Q 48.6875 17.390625 48.6875 27.296875 
z
M 18.109375 46.390625 
Q 20.953125 51.265625 25.265625 53.625 
Q 29.59375 56 35.59375 56 
Q 45.5625 56 51.78125 48.09375 
Q 58.015625 40.1875 58.015625 27.296875 
Q 58.015625 14.40625 51.78125 6.484375 
Q 45.5625 -1.421875 35.59375 -1.421875 
Q 29.59375 -1.421875 25.265625 0.953125 
Q 20.953125 3.328125 18.109375 8.203125 
L 18.109375 0 
L 9.078125 0 
L 9.078125 75.984375 
L 18.109375 75.984375 
z
" id="DejaVuSans-98"/>
      <path d="M 9.421875 54.6875 
L 18.40625 54.6875 
L 18.40625 0 
L 9.421875 0 
z
M 9.421875 75.984375 
L 18.40625 75.984375 
L 18.40625 64.59375 
L 9.421875 64.59375 
z
" id="DejaVuSans-105"/>
      <path d="M 32.171875 -5.078125 
Q 28.375 -14.84375 24.75 -17.8125 
Q 21.140625 -20.796875 15.09375 -20.796875 
L 7.90625 -20.796875 
L 7.90625 -13.28125 
L 13.1875 -13.28125 
Q 16.890625 -13.28125 18.9375 -11.515625 
Q 21 -9.765625 23.484375 -3.21875 
L 25.09375 0.875 
L 2.984375 54.6875 
L 12.5 54.6875 
L 29.59375 11.921875 
L 46.6875 54.6875 
L 56.203125 54.6875 
z
" id="DejaVuSans-121"/>
     </defs>
     <g transform="translate(14.798438 259.354844)rotate(-90)scale(0.1 -0.1)">
      <use xlink:href="#DejaVuSans-87"/>
      <use x="93.001953" xlink:href="#DejaVuSans-111"/>
      <use x="154.183594" xlink:href="#DejaVuSans-114"/>
      <use x="195.296875" xlink:href="#DejaVuSans-107"/>
      <use x="253.207031" xlink:href="#DejaVuSans-112"/>
      <use x="316.683594" xlink:href="#DejaVuSans-108"/>
      <use x="344.466797" xlink:href="#DejaVuSans-97"/>
      <use x="405.746094" xlink:href="#DejaVuSans-99"/>
      <use x="460.726562" xlink:href="#DejaVuSans-101"/>
      <use x="522.25" xlink:href="#DejaVuSans-32"/>
      <use x="554.037109" xlink:href="#DejaVuSans-77"/>
      <use x="640.316406" xlink:href="#DejaVuSans-111"/>
      <use x="701.498047" xlink:href="#DejaVuSans-98"/>
      <use x="764.974609" xlink:href="#DejaVuSans-105"/>
      <use x="792.757812" xlink:href="#DejaVuSans-108"/>
      <use x="820.541016" xlink:href="#DejaVuSans-105"/>
      <use x="848.324219" xlink:href="#DejaVuSans-116"/>
      <use x="887.533203" xlink:href="#DejaVuSans-121"/>
     </g>
    </g>
   </g>
   <g id="line2d_25">
    <defs>
     <path d="M 0 1.5 
C 0.397805 1.5 0.77937 1.341951 1.06066 1.06066 
C 1.341951 0.77937 1.5 0.397805 1.5 0 
C 1.5 -0.397805 1.341951 -0.77937 1.06066 -1.06066 
C 0.77937 -1.341951 0.397805 -1.5 0 -1.5 
C -0.397805 -1.5 -0.77937 -1.341951 -1.06066 -1.06066 
C -1.341951 -0.77937 -1.5 -0.397805 -1.5 0 
C -1.5 0.397805 -1.341951 0.77937 -1.06066 1.06066 
C -0.77937 1.341951 -0.397805 1.5 0 1.5 
z
" id="m262514b6d0" style="stroke:#000000;"/>
    </defs>
    <g clip-path="url(#p847f86a1b8)">
     <use style="stroke:#000000;" x="78.819176" xlink:href="#m262514b6d0" y="78.236488"/>
     <use style="stroke:#000000;" x="85.923072" xlink:href="#m262514b6d0" y="74.833863"/>
     <use style="stroke:#000000;" x="93.026968" xlink:href="#m262514b6d0" y="74.833863"/>
     <use style="stroke:#000000;" x="100.130864" xlink:href="#m262514b6d0" y="74.833863"/>
     <use style="stroke:#000000;" x="107.234761" xlink:href="#m262514b6d0" y="74.833863"/>
     <use style="stroke:#000000;" x="114.338657" xlink:href="#m262514b6d0" y="74.833863"/>
     <use style="stroke:#000000;" x="121.442553" xlink:href="#m262514b6d0" y="78.236488"/>
     <use style="stroke:#000000;" x="128.546449" xlink:href="#m262514b6d0" y="78.236488"/>
     <use style="stroke:#000000;" x="135.650345" xlink:href="#m262514b6d0" y="74.833863"/>
     <use style="stroke:#000000;" x="142.754241" xlink:href="#m262514b6d0" y="125.873227"/>
     <use style="stroke:#000000;" x="149.858137" xlink:href="#m262514b6d0" y="129.275851"/>
     <use style="stroke:#000000;" x="156.962033" xlink:href="#m262514b6d0" y="119.067979"/>
     <use style="stroke:#000000;" x="164.065929" xlink:href="#m262514b6d0" y="119.067979"/>
     <use style="stroke:#000000;" x="171.169825" xlink:href="#m262514b6d0" y="119.067979"/>
     <use style="stroke:#000000;" x="178.273722" xlink:href="#m262514b6d0" y="108.860106"/>
     <use style="stroke:#000000;" x="185.377618" xlink:href="#m262514b6d0" y="95.249609"/>
     <use style="stroke:#000000;" x="192.481514" xlink:href="#m262514b6d0" y="108.860106"/>
     <use style="stroke:#000000;" x="199.58541" xlink:href="#m262514b6d0" y="105.457482"/>
     <use style="stroke:#000000;" x="206.689306" xlink:href="#m262514b6d0" y="105.457482"/>
     <use style="stroke:#000000;" x="213.793202" xlink:href="#m262514b6d0" y="132.678476"/>
     <use style="stroke:#000000;" x="220.897098" xlink:href="#m262514b6d0" y="136.0811"/>
     <use style="stroke:#000000;" x="228.000994" xlink:href="#m262514b6d0" y="129.275851"/>
     <use style="stroke:#000000;" x="235.10489" xlink:href="#m262514b6d0" y="112.26273"/>
     <use style="stroke:#000000;" x="242.208787" xlink:href="#m262514b6d0" y="159.89947"/>
     <use style="stroke:#000000;" x="249.312683" xlink:href="#m262514b6d0" y="183.717839"/>
     <use style="stroke:#000000;" x="256.416579" xlink:href="#m262514b6d0" y="204.133585"/>
     <use style="stroke:#000000;" x="263.520475" xlink:href="#m262514b6d0" y="238.159828"/>
     <use style="stroke:#000000;" x="270.624371" xlink:href="#m262514b6d0" y="258.575573"/>
     <use style="stroke:#000000;" x="277.728267" xlink:href="#m262514b6d0" y="275.588694"/>
     <use style="stroke:#000000;" x="284.832163" xlink:href="#m262514b6d0" y="265.380822"/>
     <use style="stroke:#000000;" x="291.936059" xlink:href="#m262514b6d0" y="275.588694"/>
     <use style="stroke:#000000;" x="299.039955" xlink:href="#m262514b6d0" y="285.796567"/>
     <use style="stroke:#000000;" x="306.143851" xlink:href="#m262514b6d0" y="285.796567"/>
     <use style="stroke:#000000;" x="313.247748" xlink:href="#m262514b6d0" y="292.601816"/>
     <use style="stroke:#000000;" x="320.351644" xlink:href="#m262514b6d0" y="292.601816"/>
     <use style="stroke:#000000;" x="327.45554" xlink:href="#m262514b6d0" y="292.601816"/>
     <use style="stroke:#000000;" x="334.559436" xlink:href="#m262514b6d0" y="292.601816"/>
     <use style="stroke:#000000;" x="341.663332" xlink:href="#m262514b6d0" y="309.614937"/>
     <use style="stroke:#000000;" x="348.767228" xlink:href="#m262514b6d0" y="313.017561"/>
     <use style="stroke:#000000;" x="355.871124" xlink:href="#m262514b6d0" y="316.420185"/>
     <use style="stroke:#000000;" x="362.97502" xlink:href="#m262514b6d0" y="323.225434"/>
     <use style="stroke:#000000;" x="370.078916" xlink:href="#m262514b6d0" y="319.82281"/>
     <use style="stroke:#000000;" x="377.182812" xlink:href="#m262514b6d0" y="299.407064"/>
     <use style="stroke:#000000;" x="384.286709" xlink:href="#m262514b6d0" y="292.601816"/>
     <use style="stroke:#000000;" x="391.390605" xlink:href="#m262514b6d0" y="313.017561"/>
     <use style="stroke:#000000;" x="398.494501" xlink:href="#m262514b6d0" y="316.420185"/>
     <use style="stroke:#000000;" x="405.598397" xlink:href="#m262514b6d0" y="316.420185"/>
     <use style="stroke:#000000;" x="412.702293" xlink:href="#m262514b6d0" y="316.420185"/>
     <use style="stroke:#000000;" x="419.806189" xlink:href="#m262514b6d0" y="313.017561"/>
     <use style="stroke:#000000;" x="426.910085" xlink:href="#m262514b6d0" y="292.601816"/>
     <use style="stroke:#000000;" x="434.013981" xlink:href="#m262514b6d0" y="289.199191"/>
     <use style="stroke:#000000;" x="441.117877" xlink:href="#m262514b6d0" y="302.809688"/>
     <use style="stroke:#000000;" x="448.221774" xlink:href="#m262514b6d0" y="306.212313"/>
     <use style="stroke:#000000;" x="455.32567" xlink:href="#m262514b6d0" y="306.212313"/>
     <use style="stroke:#000000;" x="462.429566" xlink:href="#m262514b6d0" y="306.212313"/>
     <use style="stroke:#000000;" x="469.533462" xlink:href="#m262514b6d0" y="309.614937"/>
     <use style="stroke:#000000;" x="476.637358" xlink:href="#m262514b6d0" y="289.199191"/>
     <use style="stroke:#000000;" x="483.741254" xlink:href="#m262514b6d0" y="302.809688"/>
     <use style="stroke:#000000;" x="490.84515" xlink:href="#m262514b6d0" y="384.47267"/>
     <use style="stroke:#000000;" x="497.949046" xlink:href="#m262514b6d0" y="299.407064"/>
     <use style="stroke:#000000;" x="505.052942" xlink:href="#m262514b6d0" y="296.00444"/>
     <use style="stroke:#000000;" x="512.156838" xlink:href="#m262514b6d0" y="292.601816"/>
     <use style="stroke:#000000;" x="519.260735" xlink:href="#m262514b6d0" y="292.601816"/>
     <use style="stroke:#000000;" x="526.364631" xlink:href="#m262514b6d0" y="275.588694"/>
     <use style="stroke:#000000;" x="533.468527" xlink:href="#m262514b6d0" y="275.588694"/>
     <use style="stroke:#000000;" x="540.572423" xlink:href="#m262514b6d0" y="285.796567"/>
     <use style="stroke:#000000;" x="547.676319" xlink:href="#m262514b6d0" y="285.796567"/>
     <use style="stroke:#000000;" x="554.780215" xlink:href="#m262514b6d0" y="285.796567"/>
     <use style="stroke:#000000;" x="561.884111" xlink:href="#m262514b6d0" y="282.393943"/>
     <use style="stroke:#000000;" x="568.988007" xlink:href="#m262514b6d0" y="282.393943"/>
     <use style="stroke:#000000;" x="576.091903" xlink:href="#m262514b6d0" y="323.225434"/>
     <use style="stroke:#000000;" x="583.1958" xlink:href="#m262514b6d0" y="261.978197"/>
     <use style="stroke:#000000;" x="590.299696" xlink:href="#m262514b6d0" y="272.18607"/>
     <use style="stroke:#000000;" x="597.403592" xlink:href="#m262514b6d0" y="275.588694"/>
     <use style="stroke:#000000;" x="604.507488" xlink:href="#m262514b6d0" y="272.18607"/>
     <use style="stroke:#000000;" x="611.611384" xlink:href="#m262514b6d0" y="272.18607"/>
     <use style="stroke:#000000;" x="618.71528" xlink:href="#m262514b6d0" y="370.862173"/>
     <use style="stroke:#000000;" x="625.819176" xlink:href="#m262514b6d0" y="255.172949"/>
     <use style="stroke:#000000;" x="632.923072" xlink:href="#m262514b6d0" y="234.757203"/>
     <use style="stroke:#000000;" x="640.026968" xlink:href="#m262514b6d0" y="231.354579"/>
     <use style="stroke:#000000;" x="647.130864" xlink:href="#m262514b6d0" y="234.757203"/>
     <use style="stroke:#000000;" x="654.234761" xlink:href="#m262514b6d0" y="234.757203"/>
     <use style="stroke:#000000;" x="661.338657" xlink:href="#m262514b6d0" y="231.354579"/>
     <use style="stroke:#000000;" x="668.442553" xlink:href="#m262514b6d0" y="231.354579"/>
     <use style="stroke:#000000;" x="675.546449" xlink:href="#m262514b6d0" y="210.938833"/>
    </g>
   </g>
   <g id="line2d_26">
    <path clip-path="url(#p847f86a1b8)" d="M 78.819176 69.145418 
L 85.923072 59.621229 
L 93.026968 82.975131 
L 100.130864 80.809254 
L 107.234761 82.531163 
L 114.338657 89.237331 
L 121.442553 100.522786 
L 128.546449 87.896803 
L 135.650345 78.373244 
L 142.754241 101.727776 
L 149.858137 99.562529 
L 156.962033 101.285067 
L 164.065929 107.990313 
L 171.169825 119.274216 
L 178.273722 106.64668 
L 185.377618 97.12157 
L 192.481514 120.474549 
L 199.58541 118.30837 
L 206.689306 120.029976 
L 213.793202 126.735843 
L 220.897098 140.922644 
L 228.000994 131.198006 
L 235.10489 136.30503 
L 242.208787 174.290143 
L 249.312683 186.755478 
L 256.416579 203.108598 
L 263.520475 224.445979 
L 270.624371 250.362016 
L 277.728267 252.365835 
L 284.832163 257.472078 
L 291.936059 282.347031 
L 299.039955 281.702205 
L 306.143851 284.945165 
L 313.247748 293.172186 
L 320.351644 305.977865 
L 327.45554 294.872104 
L 334.559436 286.867837 
L 341.663332 311.741661 
L 348.767228 311.095705 
L 355.871124 309.866646 
L 362.97502 313.621847 
L 370.078916 321.953628 
L 377.182812 306.37397 
L 384.286709 293.896737 
L 391.390605 314.297275 
L 398.494501 309.178034 
L 405.598397 307.946578 
L 412.702293 311.698967 
L 419.806189 320.030013 
L 426.910085 304.44962 
L 434.013981 291.971652 
L 441.117877 312.371774 
L 448.221774 307.252117 
L 455.32567 306.020246 
L 462.429566 309.772634 
L 469.533462 318.10368 
L 476.637358 302.523287 
L 483.741254 290.044138 
L 490.84515 310.44308 
L 497.949046 305.322243 
L 505.052942 302.738215 
L 512.156838 305.138448 
L 519.260735 312.117338 
L 526.364631 295.184789 
L 533.468527 281.354665 
L 540.572423 300.402631 
L 547.676319 293.930818 
L 554.780215 291.346791 
L 561.884111 291.782779 
L 568.988007 296.797425 
L 576.091903 277.900632 
L 583.1958 262.106264 
L 590.299696 279.189986 
L 597.403592 270.753929 
L 604.507488 266.205657 
L 611.611384 266.641646 
L 618.71528 271.656291 
L 625.819176 252.759498 
L 632.923072 236.96513 
L 640.026968 254.048852 
L 647.130864 245.612795 
L 654.234761 241.064523 
L 661.338657 241.500512 
L 668.442553 246.515158 
L 675.546449 227.618365 
" style="fill:none;stroke:#0072b2;stroke-linecap:square;stroke-width:1.5;"/>
   </g>
   <g id="line2d_27">
    <path clip-path="url(#p847f86a1b8)" d="M 78.819176 72.655901 
L 85.923072 75.33449 
L 93.026968 78.013079 
L 100.130864 80.691669 
L 107.234761 83.370258 
L 114.338657 86.048848 
L 121.442553 88.728067 
L 128.546449 91.407286 
L 135.650345 94.086505 
L 142.754241 96.765724 
L 149.858137 99.444943 
L 156.962033 102.124163 
L 164.065929 104.801829 
L 171.169825 107.479496 
L 178.273722 110.157163 
L 185.377618 112.83483 
L 192.481514 115.512497 
L 199.58541 118.190785 
L 206.689306 120.869072 
L 213.793202 123.54736 
L 220.897098 129.127924 
L 228.000994 134.708489 
L 235.10489 152.01829 
L 242.208787 169.328092 
L 249.312683 186.637893 
L 256.416579 203.947694 
L 263.520475 221.257495 
L 270.624371 238.567297 
L 277.728267 255.876318 
L 284.832163 273.185339 
L 291.936059 277.38498 
L 299.039955 281.58462 
L 306.143851 285.784261 
L 313.247748 289.983703 
L 320.351644 294.183145 
L 327.45554 298.382587 
L 334.559436 302.581098 
L 341.663332 306.779609 
L 348.767228 310.97812 
L 355.871124 310.705742 
L 362.97502 310.433363 
L 370.078916 310.158908 
L 377.182812 309.884453 
L 384.286709 309.609998 
L 391.390605 309.335223 
L 398.494501 309.060448 
L 405.598397 308.785674 
L 412.702293 308.510483 
L 419.806189 308.235293 
L 426.910085 307.960103 
L 434.013981 307.684912 
L 441.117877 307.409722 
L 448.221774 307.134532 
L 455.32567 306.859341 
L 462.429566 306.584151 
L 469.533462 306.30896 
L 476.637358 306.03377 
L 483.741254 305.757399 
L 490.84515 305.481028 
L 497.949046 305.204658 
L 505.052942 303.577311 
L 512.156838 301.949965 
L 519.260735 300.322618 
L 526.364631 298.695272 
L 533.468527 297.067926 
L 540.572423 295.440579 
L 547.676319 293.813233 
L 554.780215 292.185886 
L 561.884111 288.594296 
L 568.988007 285.002705 
L 576.091903 281.411115 
L 583.1958 277.819524 
L 590.299696 274.227934 
L 597.403592 270.636343 
L 604.507488 267.044753 
L 611.611384 263.453162 
L 618.71528 259.861572 
L 625.819176 256.269981 
L 632.923072 252.678391 
L 640.026968 249.0868 
L 647.130864 245.49521 
L 654.234761 241.903619 
L 661.338657 238.312029 
L 668.442553 234.720438 
L 675.546449 231.128848 
" style="fill:none;stroke:#0000ff;stroke-linecap:square;stroke-width:1.5;"/>
   </g>
   <g id="line2d_28">
    <path clip-path="url(#p847f86a1b8)" d="M 213.793202 401.718125 
L 213.793202 22.318125 
" style="fill:none;stroke:#0000ff;stroke-dasharray:5.55,2.4;stroke-dashoffset:0;stroke-width:1.5;"/>
   </g>
   <g id="line2d_29">
    <path clip-path="url(#p847f86a1b8)" d="M 228.000994 401.718125 
L 228.000994 22.318125 
" style="fill:none;stroke:#0000ff;stroke-dasharray:5.55,2.4;stroke-dashoffset:0;stroke-width:1.5;"/>
   </g>
   <g id="line2d_30">
    <path clip-path="url(#p847f86a1b8)" d="M 284.832163 401.718125 
L 284.832163 22.318125 
" style="fill:none;stroke:#0000ff;stroke-dasharray:5.55,2.4;stroke-dashoffset:0;stroke-width:1.5;"/>
   </g>
   <g id="line2d_31">
    <path clip-path="url(#p847f86a1b8)" d="M 348.767228 401.718125 
L 348.767228 22.318125 
" style="fill:none;stroke:#0000ff;stroke-dasharray:5.55,2.4;stroke-dashoffset:0;stroke-width:1.5;"/>
   </g>
   <g id="line2d_32">
    <path clip-path="url(#p847f86a1b8)" d="M 497.949046 401.718125 
L 497.949046 22.318125 
" style="fill:none;stroke:#0000ff;stroke-dasharray:5.55,2.4;stroke-dashoffset:0;stroke-width:1.5;"/>
   </g>
   <g id="line2d_33">
    <path clip-path="url(#p847f86a1b8)" d="M 554.780215 401.718125 
L 554.780215 22.318125 
" style="fill:none;stroke:#0000ff;stroke-dasharray:5.55,2.4;stroke-dashoffset:0;stroke-width:1.5;"/>
   </g>
   <g id="line2d_34">
    <path clip-path="url(#p847f86a1b8)" d="M 228.000994 401.718125 
L 228.000994 22.318125 
" style="fill:none;stroke:#ff0000;stroke-linecap:square;stroke-width:3;"/>
   </g>
   <g id="patch_3">
    <path d="M 48.982813 401.718125 
L 48.982813 22.318125 
" style="fill:none;stroke:#000000;stroke-linecap:square;stroke-linejoin:miter;stroke-width:0.8;"/>
   </g>
   <g id="patch_4">
    <path d="M 705.382812 401.718125 
L 705.382812 22.318125 
" style="fill:none;stroke:#000000;stroke-linecap:square;stroke-linejoin:miter;stroke-width:0.8;"/>
   </g>
   <g id="patch_5">
    <path d="M 48.982813 401.718125 
L 705.382812 401.718125 
" style="fill:none;stroke:#000000;stroke-linecap:square;stroke-linejoin:miter;stroke-width:0.8;"/>
   </g>
   <g id="patch_6">
    <path d="M 48.982813 22.318125 
L 705.382812 22.318125 
" style="fill:none;stroke:#000000;stroke-linecap:square;stroke-linejoin:miter;stroke-width:0.8;"/>
   </g>
   <g id="text_15">
    <!-- Workplace Mobility Graph for Italy -->
    <defs>
     <path d="M 59.515625 10.40625 
L 59.515625 29.984375 
L 43.40625 29.984375 
L 43.40625 38.09375 
L 69.28125 38.09375 
L 69.28125 6.78125 
Q 63.578125 2.734375 56.6875 0.65625 
Q 49.8125 -1.421875 42 -1.421875 
Q 24.90625 -1.421875 15.25 8.5625 
Q 5.609375 18.5625 5.609375 36.375 
Q 5.609375 54.25 15.25 64.234375 
Q 24.90625 74.21875 42 74.21875 
Q 49.125 74.21875 55.546875 72.453125 
Q 61.96875 70.703125 67.390625 67.28125 
L 67.390625 56.78125 
Q 61.921875 61.421875 55.765625 63.765625 
Q 49.609375 66.109375 42.828125 66.109375 
Q 29.4375 66.109375 22.71875 58.640625 
Q 16.015625 51.171875 16.015625 36.375 
Q 16.015625 21.625 22.71875 14.15625 
Q 29.4375 6.6875 42.828125 6.6875 
Q 48.046875 6.6875 52.140625 7.59375 
Q 56.25 8.5 59.515625 10.40625 
z
" id="DejaVuSans-71"/>
     <path d="M 54.890625 33.015625 
L 54.890625 0 
L 45.90625 0 
L 45.90625 32.71875 
Q 45.90625 40.484375 42.875 44.328125 
Q 39.84375 48.1875 33.796875 48.1875 
Q 26.515625 48.1875 22.3125 43.546875 
Q 18.109375 38.921875 18.109375 30.90625 
L 18.109375 0 
L 9.078125 0 
L 9.078125 75.984375 
L 18.109375 75.984375 
L 18.109375 46.1875 
Q 21.34375 51.125 25.703125 53.5625 
Q 30.078125 56 35.796875 56 
Q 45.21875 56 50.046875 50.171875 
Q 54.890625 44.34375 54.890625 33.015625 
z
" id="DejaVuSans-104"/>
     <path d="M 37.109375 75.984375 
L 37.109375 68.5 
L 28.515625 68.5 
Q 23.6875 68.5 21.796875 66.546875 
Q 19.921875 64.59375 19.921875 59.515625 
L 19.921875 54.6875 
L 34.71875 54.6875 
L 34.71875 47.703125 
L 19.921875 47.703125 
L 19.921875 0 
L 10.890625 0 
L 10.890625 47.703125 
L 2.296875 47.703125 
L 2.296875 54.6875 
L 10.890625 54.6875 
L 10.890625 58.5 
Q 10.890625 67.625 15.140625 71.796875 
Q 19.390625 75.984375 28.609375 75.984375 
z
" id="DejaVuSans-102"/>
     <path d="M 9.8125 72.90625 
L 19.671875 72.90625 
L 19.671875 0 
L 9.8125 0 
z
" id="DejaVuSans-73"/>
    </defs>
    <g transform="translate(274.986875 16.318125)scale(0.12 -0.12)">
     <use xlink:href="#DejaVuSans-87"/>
     <use x="93.001953" xlink:href="#DejaVuSans-111"/>
     <use x="154.183594" xlink:href="#DejaVuSans-114"/>
     <use x="195.296875" xlink:href="#DejaVuSans-107"/>
     <use x="253.207031" xlink:href="#DejaVuSans-112"/>
     <use x="316.683594" xlink:href="#DejaVuSans-108"/>
     <use x="344.466797" xlink:href="#DejaVuSans-97"/>
     <use x="405.746094" xlink:href="#DejaVuSans-99"/>
     <use x="460.726562" xlink:href="#DejaVuSans-101"/>
     <use x="522.25" xlink:href="#DejaVuSans-32"/>
     <use x="554.037109" xlink:href="#DejaVuSans-77"/>
     <use x="640.316406" xlink:href="#DejaVuSans-111"/>
     <use x="701.498047" xlink:href="#DejaVuSans-98"/>
     <use x="764.974609" xlink:href="#DejaVuSans-105"/>
     <use x="792.757812" xlink:href="#DejaVuSans-108"/>
     <use x="820.541016" xlink:href="#DejaVuSans-105"/>
     <use x="848.324219" xlink:href="#DejaVuSans-116"/>
     <use x="887.533203" xlink:href="#DejaVuSans-121"/>
     <use x="946.712891" xlink:href="#DejaVuSans-32"/>
     <use x="978.5" xlink:href="#DejaVuSans-71"/>
     <use x="1055.990234" xlink:href="#DejaVuSans-114"/>
     <use x="1097.103516" xlink:href="#DejaVuSans-97"/>
     <use x="1158.382812" xlink:href="#DejaVuSans-112"/>
     <use x="1221.859375" xlink:href="#DejaVuSans-104"/>
     <use x="1285.238281" xlink:href="#DejaVuSans-32"/>
     <use x="1317.025391" xlink:href="#DejaVuSans-102"/>
     <use x="1352.230469" xlink:href="#DejaVuSans-111"/>
     <use x="1413.412109" xlink:href="#DejaVuSans-114"/>
     <use x="1454.525391" xlink:href="#DejaVuSans-32"/>
     <use x="1486.3125" xlink:href="#DejaVuSans-73"/>
     <use x="1515.804688" xlink:href="#DejaVuSans-116"/>
     <use x="1555.013672" xlink:href="#DejaVuSans-97"/>
     <use x="1616.292969" xlink:href="#DejaVuSans-108"/>
     <use x="1644.076172" xlink:href="#DejaVuSans-121"/>
    </g>
   </g>
   <g id="legend_1">
    <g id="patch_7">
     <path d="M 55.982813 44.99625 
L 210.457813 44.99625 
Q 212.457813 44.99625 212.457813 42.99625 
L 212.457813 29.318125 
Q 212.457813 27.318125 210.457813 27.318125 
L 55.982813 27.318125 
Q 53.982813 27.318125 53.982813 29.318125 
L 53.982813 42.99625 
Q 53.982813 44.99625 55.982813 44.99625 
z
" style="fill:#ffffff;opacity:0.8;stroke:#cccccc;stroke-linejoin:miter;"/>
    </g>
    <g id="line2d_35">
     <path d="M 57.982813 35.416562 
L 77.982813 35.416562 
" style="fill:none;stroke:#ff0000;stroke-linecap:square;stroke-width:3;"/>
    </g>
    <g id="line2d_36"/>
    <g id="text_16">
     <!-- Effective Lockdown date -->
     <defs>
      <path d="M 9.8125 72.90625 
L 55.90625 72.90625 
L 55.90625 64.59375 
L 19.671875 64.59375 
L 19.671875 43.015625 
L 54.390625 43.015625 
L 54.390625 34.71875 
L 19.671875 34.71875 
L 19.671875 8.296875 
L 56.78125 8.296875 
L 56.78125 0 
L 9.8125 0 
z
" id="DejaVuSans-69"/>
      <path d="M 2.984375 54.6875 
L 12.5 54.6875 
L 29.59375 8.796875 
L 46.6875 54.6875 
L 56.203125 54.6875 
L 35.6875 0 
L 23.484375 0 
z
" id="DejaVuSans-118"/>
      <path d="M 9.8125 72.90625 
L 19.671875 72.90625 
L 19.671875 8.296875 
L 55.171875 8.296875 
L 55.171875 0 
L 9.8125 0 
z
" id="DejaVuSans-76"/>
      <path d="M 45.40625 46.390625 
L 45.40625 75.984375 
L 54.390625 75.984375 
L 54.390625 0 
L 45.40625 0 
L 45.40625 8.203125 
Q 42.578125 3.328125 38.25 0.953125 
Q 33.9375 -1.421875 27.875 -1.421875 
Q 17.96875 -1.421875 11.734375 6.484375 
Q 5.515625 14.40625 5.515625 27.296875 
Q 5.515625 40.1875 11.734375 48.09375 
Q 17.96875 56 27.875 56 
Q 33.9375 56 38.25 53.625 
Q 42.578125 51.265625 45.40625 46.390625 
z
M 14.796875 27.296875 
Q 14.796875 17.390625 18.875 11.75 
Q 22.953125 6.109375 30.078125 6.109375 
Q 37.203125 6.109375 41.296875 11.75 
Q 45.40625 17.390625 45.40625 27.296875 
Q 45.40625 37.203125 41.296875 42.84375 
Q 37.203125 48.484375 30.078125 48.484375 
Q 22.953125 48.484375 18.875 42.84375 
Q 14.796875 37.203125 14.796875 27.296875 
z
" id="DejaVuSans-100"/>
      <path d="M 4.203125 54.6875 
L 13.1875 54.6875 
L 24.421875 12.015625 
L 35.59375 54.6875 
L 46.1875 54.6875 
L 57.421875 12.015625 
L 68.609375 54.6875 
L 77.59375 54.6875 
L 63.28125 0 
L 52.6875 0 
L 40.921875 44.828125 
L 29.109375 0 
L 18.5 0 
z
" id="DejaVuSans-119"/>
      <path d="M 54.890625 33.015625 
L 54.890625 0 
L 45.90625 0 
L 45.90625 32.71875 
Q 45.90625 40.484375 42.875 44.328125 
Q 39.84375 48.1875 33.796875 48.1875 
Q 26.515625 48.1875 22.3125 43.546875 
Q 18.109375 38.921875 18.109375 30.90625 
L 18.109375 0 
L 9.078125 0 
L 9.078125 54.6875 
L 18.109375 54.6875 
L 18.109375 46.1875 
Q 21.34375 51.125 25.703125 53.5625 
Q 30.078125 56 35.796875 56 
Q 45.21875 56 50.046875 50.171875 
Q 54.890625 44.34375 54.890625 33.015625 
z
" id="DejaVuSans-110"/>
     </defs>
     <g transform="translate(85.982813 38.916562)scale(0.1 -0.1)">
      <use xlink:href="#DejaVuSans-69"/>
      <use x="63.183594" xlink:href="#DejaVuSans-102"/>
      <use x="98.388672" xlink:href="#DejaVuSans-102"/>
      <use x="133.59375" xlink:href="#DejaVuSans-101"/>
      <use x="195.117188" xlink:href="#DejaVuSans-99"/>
      <use x="250.097656" xlink:href="#DejaVuSans-116"/>
      <use x="289.306641" xlink:href="#DejaVuSans-105"/>
      <use x="317.089844" xlink:href="#DejaVuSans-118"/>
      <use x="376.269531" xlink:href="#DejaVuSans-101"/>
      <use x="437.792969" xlink:href="#DejaVuSans-32"/>
      <use x="469.580078" xlink:href="#DejaVuSans-76"/>
      <use x="523.542969" xlink:href="#DejaVuSans-111"/>
      <use x="584.724609" xlink:href="#DejaVuSans-99"/>
      <use x="639.705078" xlink:href="#DejaVuSans-107"/>
      <use x="697.615234" xlink:href="#DejaVuSans-100"/>
      <use x="761.091797" xlink:href="#DejaVuSans-111"/>
      <use x="822.273438" xlink:href="#DejaVuSans-119"/>
      <use x="904.060547" xlink:href="#DejaVuSans-110"/>
      <use x="967.439453" xlink:href="#DejaVuSans-32"/>
      <use x="999.226562" xlink:href="#DejaVuSans-100"/>
      <use x="1062.703125" xlink:href="#DejaVuSans-97"/>
      <use x="1123.982422" xlink:href="#DejaVuSans-116"/>
      <use x="1163.191406" xlink:href="#DejaVuSans-101"/>
     </g>
    </g>
   </g>
  </g>
 </g>
 <defs>
  <clipPath id="p847f86a1b8">
   <rect height="379.4" width="656.4" x="48.982813" y="22.318125"/>
  </clipPath>
 </defs>
</svg>
