<?xml version="1.0" encoding="utf-8" standalone="no"?>
<!DOCTYPE svg PUBLIC "-//W3C//DTD SVG 1.1//EN"
  "http://www.w3.org/Graphics/SVG/1.1/DTD/svg11.dtd">
<!-- Created with matplotlib (https://matplotlib.org/) -->
<svg height="439.274375pt" version="1.1" viewBox="0 0 712.582813 439.274375" width="712.582813pt" xmlns="http://www.w3.org/2000/svg" xmlns:xlink="http://www.w3.org/1999/xlink">
 <defs>
  <style type="text/css">
*{stroke-linecap:butt;stroke-linejoin:round;}
  </style>
 </defs>
 <g id="figure_1">
  <g id="patch_1">
   <path d="M 0 439.274375 
L 712.582813 439.274375 
L 712.582813 0 
L 0 0 
z
" style="fill:#ffffff;"/>
  </g>
  <g id="axes_1">
   <g id="patch_2">
    <path d="M 48.982813 401.718125 
L 705.382812 401.718125 
L 705.382812 22.318125 
L 48.982813 22.318125 
z
" style="fill:#ffffff;"/>
   </g>
   <g id="PolyCollection_1">
    <defs>
     <path d="M 78.819176 -399.710795 
L 78.819176 -289.02834 
L 85.923072 -249.907438 
L 93.026968 -281.216818 
L 100.130864 -258.657384 
L 107.234761 -249.032715 
L 114.338657 -251.187289 
L 121.442553 -244.428075 
L 128.546449 -254.537593 
L 135.650345 -220.851585 
L 142.754241 -252.637282 
L 149.858137 -228.945429 
L 156.962033 -222.272052 
L 164.065929 -219.411679 
L 171.169825 -217.620816 
L 178.273722 -228.328027 
L 185.377618 -201.556605 
L 192.481514 -233.232988 
L 199.58541 -218.197271 
L 206.689306 -215.25023 
L 213.793202 -218.47877 
L 220.897098 -227.122779 
L 228.000994 -233.326269 
L 235.10489 -205.066875 
L 242.208787 -234.335811 
L 249.312683 -228.432649 
L 256.416579 -221.580217 
L 263.520475 -222.313968 
L 270.624371 -229.158548 
L 277.728267 -239.037388 
L 284.832163 -213.750779 
L 291.936059 -240.98206 
L 299.039955 -226.77836 
L 306.143851 -221.238631 
L 313.247748 -228.680478 
L 320.351644 -230.805599 
L 327.45554 -241.40055 
L 334.559436 -213.705505 
L 341.663332 -244.127573 
L 348.767228 -225.060122 
L 355.871124 -220.836913 
L 362.97502 -230.719508 
L 370.078916 -233.585495 
L 377.182812 -236.827765 
L 384.286709 -217.869789 
L 391.390605 -247.308812 
L 398.494501 -225.741596 
L 405.598397 -223.591709 
L 412.702293 -229.817938 
L 419.806189 -228.082914 
L 426.910085 -237.13181 
L 434.013981 -216.378578 
L 441.117877 -241.284414 
L 448.221774 -226.671238 
L 455.32567 -225.741875 
L 462.429566 -225.132163 
L 469.533462 -228.112206 
L 476.637358 -235.095437 
L 483.741254 -212.527927 
L 490.84515 -239.149894 
L 497.949046 -222.676269 
L 505.052942 -219.705609 
L 512.156838 -219.043866 
L 519.260735 -227.620142 
L 526.364631 -235.568606 
L 533.468527 -209.974041 
L 540.572423 -239.776545 
L 547.676319 -224.390768 
L 554.780215 -224.054839 
L 561.884111 -220.795265 
L 568.988007 -221.370286 
L 576.091903 -232.896811 
L 583.1958 -201.063659 
L 590.299696 -226.109795 
L 597.403592 -206.122107 
L 604.507488 -200.374745 
L 611.611384 -201.141889 
L 618.71528 -205.911445 
L 625.819176 -210.325782 
L 632.923072 -187.000124 
L 640.026968 -211.161198 
L 647.130864 -185.943117 
L 654.234761 -180.778632 
L 661.338657 -182.468306 
L 668.442553 -181.163037 
L 675.546449 -186.020829 
L 675.546449 -308.353093 
L 675.546449 -308.353093 
L 668.442553 -304.290621 
L 661.338657 -298.861223 
L 654.234761 -303.066252 
L 647.130864 -303.441192 
L 640.026968 -324.210095 
L 632.923072 -299.739398 
L 625.819176 -326.176826 
L 618.71528 -319.347418 
L 611.611384 -324.605323 
L 604.507488 -320.935821 
L 597.403592 -328.563603 
L 590.299696 -345.767249 
L 583.1958 -316.459526 
L 576.091903 -346.431085 
L 568.988007 -341.92503 
L 561.884111 -339.552586 
L 554.780215 -340.433701 
L 547.676319 -340.706675 
L 540.572423 -355.076388 
L 533.468527 -326.141471 
L 526.364631 -353.007682 
L 519.260735 -345.166719 
L 512.156838 -343.326865 
L 505.052942 -337.764998 
L 497.949046 -339.548261 
L 490.84515 -358.635768 
L 483.741254 -329.789551 
L 476.637358 -355.581575 
L 469.533462 -343.315359 
L 462.429566 -343.380164 
L 455.32567 -341.189938 
L 448.221774 -346.193392 
L 441.117877 -363.177843 
L 434.013981 -334.07829 
L 426.910085 -356.793563 
L 419.806189 -349.646787 
L 412.702293 -343.892586 
L 405.598397 -344.120162 
L 398.494501 -347.028178 
L 391.390605 -362.761164 
L 384.286709 -337.769447 
L 377.182812 -359.345438 
L 370.078916 -349.980196 
L 362.97502 -349.144941 
L 355.871124 -347.525141 
L 348.767228 -349.344022 
L 341.663332 -361.938679 
L 334.559436 -331.34762 
L 327.45554 -358.590478 
L 320.351644 -352.737558 
L 313.247748 -344.804212 
L 306.143851 -342.525277 
L 299.039955 -347.394908 
L 291.936059 -357.169676 
L 284.832163 -330.968819 
L 277.728267 -356.591672 
L 270.624371 -346.804963 
L 263.520475 -342.568261 
L 256.416579 -338.239192 
L 249.312683 -337.752094 
L 242.208787 -354.58799 
L 235.10489 -324.883658 
L 228.000994 -351.461449 
L 220.897098 -339.567311 
L 213.793202 -339.541011 
L 206.689306 -333.08317 
L 199.58541 -333.474261 
L 192.481514 -351.15732 
L 185.377618 -319.902022 
L 178.273722 -349.34679 
L 171.169825 -334.854987 
L 164.065929 -338.981306 
L 156.962033 -338.076049 
L 149.858137 -342.009728 
L 142.754241 -366.538726 
L 135.650345 -343.515183 
L 128.546449 -375.281435 
L 121.442553 -371.45361 
L 114.338657 -367.396059 
L 107.234761 -370.247125 
L 100.130864 -377.941202 
L 93.026968 -397.607105 
L 85.923072 -374.191729 
L 78.819176 -399.710795 
z
" id="med5a73d51a" style="stroke:#0072b2;stroke-opacity:0.2;"/>
    </defs>
    <g clip-path="url(#p7220b0cf8f)">
     <use style="fill:#0072b2;fill-opacity:0.2;stroke:#0072b2;stroke-opacity:0.2;" x="0" xlink:href="#med5a73d51a" y="439.274375"/>
    </g>
   </g>
   <g id="matplotlib.axis_1">
    <g id="xtick_1">
     <g id="line2d_1">
      <path clip-path="url(#p7220b0cf8f)" d="M 71.71528 401.718125 
L 71.71528 22.318125 
" style="fill:none;stroke:#808080;stroke-linecap:square;stroke-opacity:0.2;"/>
     </g>
     <g id="line2d_2">
      <defs>
       <path d="M 0 0 
L 0 3.5 
" id="m0fff222694" style="stroke:#000000;stroke-width:0.8;"/>
      </defs>
      <g>
       <use style="stroke:#000000;stroke-width:0.8;" x="71.71528" xlink:href="#m0fff222694" y="401.718125"/>
      </g>
     </g>
     <g id="text_1">
      <!-- 2020-02-14 -->
      <defs>
       <path d="M 19.1875 8.296875 
L 53.609375 8.296875 
L 53.609375 0 
L 7.328125 0 
L 7.328125 8.296875 
Q 12.9375 14.109375 22.625 23.890625 
Q 32.328125 33.6875 34.8125 36.53125 
Q 39.546875 41.84375 41.421875 45.53125 
Q 43.3125 49.21875 43.3125 52.78125 
Q 43.3125 58.59375 39.234375 62.25 
Q 35.15625 65.921875 28.609375 65.921875 
Q 23.96875 65.921875 18.8125 64.3125 
Q 13.671875 62.703125 7.8125 59.421875 
L 7.8125 69.390625 
Q 13.765625 71.78125 18.9375 73 
Q 24.125 74.21875 28.421875 74.21875 
Q 39.75 74.21875 46.484375 68.546875 
Q 53.21875 62.890625 53.21875 53.421875 
Q 53.21875 48.921875 51.53125 44.890625 
Q 49.859375 40.875 45.40625 35.40625 
Q 44.1875 33.984375 37.640625 27.21875 
Q 31.109375 20.453125 19.1875 8.296875 
z
" id="DejaVuSans-50"/>
       <path d="M 31.78125 66.40625 
Q 24.171875 66.40625 20.328125 58.90625 
Q 16.5 51.421875 16.5 36.375 
Q 16.5 21.390625 20.328125 13.890625 
Q 24.171875 6.390625 31.78125 6.390625 
Q 39.453125 6.390625 43.28125 13.890625 
Q 47.125 21.390625 47.125 36.375 
Q 47.125 51.421875 43.28125 58.90625 
Q 39.453125 66.40625 31.78125 66.40625 
z
M 31.78125 74.21875 
Q 44.046875 74.21875 50.515625 64.515625 
Q 56.984375 54.828125 56.984375 36.375 
Q 56.984375 17.96875 50.515625 8.265625 
Q 44.046875 -1.421875 31.78125 -1.421875 
Q 19.53125 -1.421875 13.0625 8.265625 
Q 6.59375 17.96875 6.59375 36.375 
Q 6.59375 54.828125 13.0625 64.515625 
Q 19.53125 74.21875 31.78125 74.21875 
z
" id="DejaVuSans-48"/>
       <path d="M 4.890625 31.390625 
L 31.203125 31.390625 
L 31.203125 23.390625 
L 4.890625 23.390625 
z
" id="DejaVuSans-45"/>
       <path d="M 12.40625 8.296875 
L 28.515625 8.296875 
L 28.515625 63.921875 
L 10.984375 60.40625 
L 10.984375 69.390625 
L 28.421875 72.90625 
L 38.28125 72.90625 
L 38.28125 8.296875 
L 54.390625 8.296875 
L 54.390625 0 
L 12.40625 0 
z
" id="DejaVuSans-49"/>
       <path d="M 37.796875 64.3125 
L 12.890625 25.390625 
L 37.796875 25.390625 
z
M 35.203125 72.90625 
L 47.609375 72.90625 
L 47.609375 25.390625 
L 58.015625 25.390625 
L 58.015625 17.1875 
L 47.609375 17.1875 
L 47.609375 0 
L 37.796875 0 
L 37.796875 17.1875 
L 4.890625 17.1875 
L 4.890625 26.703125 
z
" id="DejaVuSans-52"/>
      </defs>
      <g transform="translate(42.657468 416.316562)scale(0.1 -0.1)">
       <use xlink:href="#DejaVuSans-50"/>
       <use x="63.623047" xlink:href="#DejaVuSans-48"/>
       <use x="127.246094" xlink:href="#DejaVuSans-50"/>
       <use x="190.869141" xlink:href="#DejaVuSans-48"/>
       <use x="254.492188" xlink:href="#DejaVuSans-45"/>
       <use x="290.576172" xlink:href="#DejaVuSans-48"/>
       <use x="354.199219" xlink:href="#DejaVuSans-50"/>
       <use x="417.822266" xlink:href="#DejaVuSans-45"/>
       <use x="453.90625" xlink:href="#DejaVuSans-49"/>
       <use x="517.529297" xlink:href="#DejaVuSans-52"/>
      </g>
     </g>
    </g>
    <g id="xtick_2">
     <g id="line2d_3">
      <path clip-path="url(#p7220b0cf8f)" d="M 171.169825 401.718125 
L 171.169825 22.318125 
" style="fill:none;stroke:#808080;stroke-linecap:square;stroke-opacity:0.2;"/>
     </g>
     <g id="line2d_4">
      <g>
       <use style="stroke:#000000;stroke-width:0.8;" x="171.169825" xlink:href="#m0fff222694" y="401.718125"/>
      </g>
     </g>
     <g id="text_2">
      <!-- 2020-02-28 -->
      <defs>
       <path d="M 31.78125 34.625 
Q 24.75 34.625 20.71875 30.859375 
Q 16.703125 27.09375 16.703125 20.515625 
Q 16.703125 13.921875 20.71875 10.15625 
Q 24.75 6.390625 31.78125 6.390625 
Q 38.8125 6.390625 42.859375 10.171875 
Q 46.921875 13.96875 46.921875 20.515625 
Q 46.921875 27.09375 42.890625 30.859375 
Q 38.875 34.625 31.78125 34.625 
z
M 21.921875 38.8125 
Q 15.578125 40.375 12.03125 44.71875 
Q 8.5 49.078125 8.5 55.328125 
Q 8.5 64.0625 14.71875 69.140625 
Q 20.953125 74.21875 31.78125 74.21875 
Q 42.671875 74.21875 48.875 69.140625 
Q 55.078125 64.0625 55.078125 55.328125 
Q 55.078125 49.078125 51.53125 44.71875 
Q 48 40.375 41.703125 38.8125 
Q 48.828125 37.15625 52.796875 32.3125 
Q 56.78125 27.484375 56.78125 20.515625 
Q 56.78125 9.90625 50.3125 4.234375 
Q 43.84375 -1.421875 31.78125 -1.421875 
Q 19.734375 -1.421875 13.25 4.234375 
Q 6.78125 9.90625 6.78125 20.515625 
Q 6.78125 27.484375 10.78125 32.3125 
Q 14.796875 37.15625 21.921875 38.8125 
z
M 18.3125 54.390625 
Q 18.3125 48.734375 21.84375 45.5625 
Q 25.390625 42.390625 31.78125 42.390625 
Q 38.140625 42.390625 41.71875 45.5625 
Q 45.3125 48.734375 45.3125 54.390625 
Q 45.3125 60.0625 41.71875 63.234375 
Q 38.140625 66.40625 31.78125 66.40625 
Q 25.390625 66.40625 21.84375 63.234375 
Q 18.3125 60.0625 18.3125 54.390625 
z
" id="DejaVuSans-56"/>
      </defs>
      <g transform="translate(142.112013 416.316562)scale(0.1 -0.1)">
       <use xlink:href="#DejaVuSans-50"/>
       <use x="63.623047" xlink:href="#DejaVuSans-48"/>
       <use x="127.246094" xlink:href="#DejaVuSans-50"/>
       <use x="190.869141" xlink:href="#DejaVuSans-48"/>
       <use x="254.492188" xlink:href="#DejaVuSans-45"/>
       <use x="290.576172" xlink:href="#DejaVuSans-48"/>
       <use x="354.199219" xlink:href="#DejaVuSans-50"/>
       <use x="417.822266" xlink:href="#DejaVuSans-45"/>
       <use x="453.90625" xlink:href="#DejaVuSans-50"/>
       <use x="517.529297" xlink:href="#DejaVuSans-56"/>
      </g>
     </g>
    </g>
    <g id="xtick_3">
     <g id="line2d_5">
      <path clip-path="url(#p7220b0cf8f)" d="M 270.624371 401.718125 
L 270.624371 22.318125 
" style="fill:none;stroke:#808080;stroke-linecap:square;stroke-opacity:0.2;"/>
     </g>
     <g id="line2d_6">
      <g>
       <use style="stroke:#000000;stroke-width:0.8;" x="270.624371" xlink:href="#m0fff222694" y="401.718125"/>
      </g>
     </g>
     <g id="text_3">
      <!-- 2020-03-13 -->
      <defs>
       <path d="M 40.578125 39.3125 
Q 47.65625 37.796875 51.625 33 
Q 55.609375 28.21875 55.609375 21.1875 
Q 55.609375 10.40625 48.1875 4.484375 
Q 40.765625 -1.421875 27.09375 -1.421875 
Q 22.515625 -1.421875 17.65625 -0.515625 
Q 12.796875 0.390625 7.625 2.203125 
L 7.625 11.71875 
Q 11.71875 9.328125 16.59375 8.109375 
Q 21.484375 6.890625 26.8125 6.890625 
Q 36.078125 6.890625 40.9375 10.546875 
Q 45.796875 14.203125 45.796875 21.1875 
Q 45.796875 27.640625 41.28125 31.265625 
Q 36.765625 34.90625 28.71875 34.90625 
L 20.21875 34.90625 
L 20.21875 43.015625 
L 29.109375 43.015625 
Q 36.375 43.015625 40.234375 45.921875 
Q 44.09375 48.828125 44.09375 54.296875 
Q 44.09375 59.90625 40.109375 62.90625 
Q 36.140625 65.921875 28.71875 65.921875 
Q 24.65625 65.921875 20.015625 65.03125 
Q 15.375 64.15625 9.8125 62.3125 
L 9.8125 71.09375 
Q 15.4375 72.65625 20.34375 73.4375 
Q 25.25 74.21875 29.59375 74.21875 
Q 40.828125 74.21875 47.359375 69.109375 
Q 53.90625 64.015625 53.90625 55.328125 
Q 53.90625 49.265625 50.4375 45.09375 
Q 46.96875 40.921875 40.578125 39.3125 
z
" id="DejaVuSans-51"/>
      </defs>
      <g transform="translate(241.566558 416.316562)scale(0.1 -0.1)">
       <use xlink:href="#DejaVuSans-50"/>
       <use x="63.623047" xlink:href="#DejaVuSans-48"/>
       <use x="127.246094" xlink:href="#DejaVuSans-50"/>
       <use x="190.869141" xlink:href="#DejaVuSans-48"/>
       <use x="254.492188" xlink:href="#DejaVuSans-45"/>
       <use x="290.576172" xlink:href="#DejaVuSans-48"/>
       <use x="354.199219" xlink:href="#DejaVuSans-51"/>
       <use x="417.822266" xlink:href="#DejaVuSans-45"/>
       <use x="453.90625" xlink:href="#DejaVuSans-49"/>
       <use x="517.529297" xlink:href="#DejaVuSans-51"/>
      </g>
     </g>
    </g>
    <g id="xtick_4">
     <g id="line2d_7">
      <path clip-path="url(#p7220b0cf8f)" d="M 370.078916 401.718125 
L 370.078916 22.318125 
" style="fill:none;stroke:#808080;stroke-linecap:square;stroke-opacity:0.2;"/>
     </g>
     <g id="line2d_8">
      <g>
       <use style="stroke:#000000;stroke-width:0.8;" x="370.078916" xlink:href="#m0fff222694" y="401.718125"/>
      </g>
     </g>
     <g id="text_4">
      <!-- 2020-03-27 -->
      <defs>
       <path d="M 8.203125 72.90625 
L 55.078125 72.90625 
L 55.078125 68.703125 
L 28.609375 0 
L 18.3125 0 
L 43.21875 64.59375 
L 8.203125 64.59375 
z
" id="DejaVuSans-55"/>
      </defs>
      <g transform="translate(341.021104 416.316562)scale(0.1 -0.1)">
       <use xlink:href="#DejaVuSans-50"/>
       <use x="63.623047" xlink:href="#DejaVuSans-48"/>
       <use x="127.246094" xlink:href="#DejaVuSans-50"/>
       <use x="190.869141" xlink:href="#DejaVuSans-48"/>
       <use x="254.492188" xlink:href="#DejaVuSans-45"/>
       <use x="290.576172" xlink:href="#DejaVuSans-48"/>
       <use x="354.199219" xlink:href="#DejaVuSans-51"/>
       <use x="417.822266" xlink:href="#DejaVuSans-45"/>
       <use x="453.90625" xlink:href="#DejaVuSans-50"/>
       <use x="517.529297" xlink:href="#DejaVuSans-55"/>
      </g>
     </g>
    </g>
    <g id="xtick_5">
     <g id="line2d_9">
      <path clip-path="url(#p7220b0cf8f)" d="M 469.533462 401.718125 
L 469.533462 22.318125 
" style="fill:none;stroke:#808080;stroke-linecap:square;stroke-opacity:0.2;"/>
     </g>
     <g id="line2d_10">
      <g>
       <use style="stroke:#000000;stroke-width:0.8;" x="469.533462" xlink:href="#m0fff222694" y="401.718125"/>
      </g>
     </g>
     <g id="text_5">
      <!-- 2020-04-10 -->
      <g transform="translate(440.475649 416.316562)scale(0.1 -0.1)">
       <use xlink:href="#DejaVuSans-50"/>
       <use x="63.623047" xlink:href="#DejaVuSans-48"/>
       <use x="127.246094" xlink:href="#DejaVuSans-50"/>
       <use x="190.869141" xlink:href="#DejaVuSans-48"/>
       <use x="254.492188" xlink:href="#DejaVuSans-45"/>
       <use x="290.576172" xlink:href="#DejaVuSans-48"/>
       <use x="354.199219" xlink:href="#DejaVuSans-52"/>
       <use x="417.822266" xlink:href="#DejaVuSans-45"/>
       <use x="453.90625" xlink:href="#DejaVuSans-49"/>
       <use x="517.529297" xlink:href="#DejaVuSans-48"/>
      </g>
     </g>
    </g>
    <g id="xtick_6">
     <g id="line2d_11">
      <path clip-path="url(#p7220b0cf8f)" d="M 568.988007 401.718125 
L 568.988007 22.318125 
" style="fill:none;stroke:#808080;stroke-linecap:square;stroke-opacity:0.2;"/>
     </g>
     <g id="line2d_12">
      <g>
       <use style="stroke:#000000;stroke-width:0.8;" x="568.988007" xlink:href="#m0fff222694" y="401.718125"/>
      </g>
     </g>
     <g id="text_6">
      <!-- 2020-04-24 -->
      <g transform="translate(539.930195 416.316562)scale(0.1 -0.1)">
       <use xlink:href="#DejaVuSans-50"/>
       <use x="63.623047" xlink:href="#DejaVuSans-48"/>
       <use x="127.246094" xlink:href="#DejaVuSans-50"/>
       <use x="190.869141" xlink:href="#DejaVuSans-48"/>
       <use x="254.492188" xlink:href="#DejaVuSans-45"/>
       <use x="290.576172" xlink:href="#DejaVuSans-48"/>
       <use x="354.199219" xlink:href="#DejaVuSans-52"/>
       <use x="417.822266" xlink:href="#DejaVuSans-45"/>
       <use x="453.90625" xlink:href="#DejaVuSans-50"/>
       <use x="517.529297" xlink:href="#DejaVuSans-52"/>
      </g>
     </g>
    </g>
    <g id="xtick_7">
     <g id="line2d_13">
      <path clip-path="url(#p7220b0cf8f)" d="M 668.442553 401.718125 
L 668.442553 22.318125 
" style="fill:none;stroke:#808080;stroke-linecap:square;stroke-opacity:0.2;"/>
     </g>
     <g id="line2d_14">
      <g>
       <use style="stroke:#000000;stroke-width:0.8;" x="668.442553" xlink:href="#m0fff222694" y="401.718125"/>
      </g>
     </g>
     <g id="text_7">
      <!-- 2020-05-08 -->
      <defs>
       <path d="M 10.796875 72.90625 
L 49.515625 72.90625 
L 49.515625 64.59375 
L 19.828125 64.59375 
L 19.828125 46.734375 
Q 21.96875 47.46875 24.109375 47.828125 
Q 26.265625 48.1875 28.421875 48.1875 
Q 40.625 48.1875 47.75 41.5 
Q 54.890625 34.8125 54.890625 23.390625 
Q 54.890625 11.625 47.5625 5.09375 
Q 40.234375 -1.421875 26.90625 -1.421875 
Q 22.3125 -1.421875 17.546875 -0.640625 
Q 12.796875 0.140625 7.71875 1.703125 
L 7.71875 11.625 
Q 12.109375 9.234375 16.796875 8.0625 
Q 21.484375 6.890625 26.703125 6.890625 
Q 35.15625 6.890625 40.078125 11.328125 
Q 45.015625 15.765625 45.015625 23.390625 
Q 45.015625 31 40.078125 35.4375 
Q 35.15625 39.890625 26.703125 39.890625 
Q 22.75 39.890625 18.8125 39.015625 
Q 14.890625 38.140625 10.796875 36.28125 
z
" id="DejaVuSans-53"/>
      </defs>
      <g transform="translate(639.38474 416.316562)scale(0.1 -0.1)">
       <use xlink:href="#DejaVuSans-50"/>
       <use x="63.623047" xlink:href="#DejaVuSans-48"/>
       <use x="127.246094" xlink:href="#DejaVuSans-50"/>
       <use x="190.869141" xlink:href="#DejaVuSans-48"/>
       <use x="254.492188" xlink:href="#DejaVuSans-45"/>
       <use x="290.576172" xlink:href="#DejaVuSans-48"/>
       <use x="354.199219" xlink:href="#DejaVuSans-53"/>
       <use x="417.822266" xlink:href="#DejaVuSans-45"/>
       <use x="453.90625" xlink:href="#DejaVuSans-48"/>
       <use x="517.529297" xlink:href="#DejaVuSans-56"/>
      </g>
     </g>
    </g>
    <g id="text_8">
     <!-- Date -->
     <defs>
      <path d="M 19.671875 64.796875 
L 19.671875 8.109375 
L 31.59375 8.109375 
Q 46.6875 8.109375 53.6875 14.9375 
Q 60.6875 21.78125 60.6875 36.53125 
Q 60.6875 51.171875 53.6875 57.984375 
Q 46.6875 64.796875 31.59375 64.796875 
z
M 9.8125 72.90625 
L 30.078125 72.90625 
Q 51.265625 72.90625 61.171875 64.09375 
Q 71.09375 55.28125 71.09375 36.53125 
Q 71.09375 17.671875 61.125 8.828125 
Q 51.171875 0 30.078125 0 
L 9.8125 0 
z
" id="DejaVuSans-68"/>
      <path d="M 34.28125 27.484375 
Q 23.390625 27.484375 19.1875 25 
Q 14.984375 22.515625 14.984375 16.5 
Q 14.984375 11.71875 18.140625 8.90625 
Q 21.296875 6.109375 26.703125 6.109375 
Q 34.1875 6.109375 38.703125 11.40625 
Q 43.21875 16.703125 43.21875 25.484375 
L 43.21875 27.484375 
z
M 52.203125 31.203125 
L 52.203125 0 
L 43.21875 0 
L 43.21875 8.296875 
Q 40.140625 3.328125 35.546875 0.953125 
Q 30.953125 -1.421875 24.3125 -1.421875 
Q 15.921875 -1.421875 10.953125 3.296875 
Q 6 8.015625 6 15.921875 
Q 6 25.140625 12.171875 29.828125 
Q 18.359375 34.515625 30.609375 34.515625 
L 43.21875 34.515625 
L 43.21875 35.40625 
Q 43.21875 41.609375 39.140625 45 
Q 35.0625 48.390625 27.6875 48.390625 
Q 23 48.390625 18.546875 47.265625 
Q 14.109375 46.140625 10.015625 43.890625 
L 10.015625 52.203125 
Q 14.9375 54.109375 19.578125 55.046875 
Q 24.21875 56 28.609375 56 
Q 40.484375 56 46.34375 49.84375 
Q 52.203125 43.703125 52.203125 31.203125 
z
" id="DejaVuSans-97"/>
      <path d="M 18.3125 70.21875 
L 18.3125 54.6875 
L 36.8125 54.6875 
L 36.8125 47.703125 
L 18.3125 47.703125 
L 18.3125 18.015625 
Q 18.3125 11.328125 20.140625 9.421875 
Q 21.96875 7.515625 27.59375 7.515625 
L 36.8125 7.515625 
L 36.8125 0 
L 27.59375 0 
Q 17.1875 0 13.234375 3.875 
Q 9.28125 7.765625 9.28125 18.015625 
L 9.28125 47.703125 
L 2.6875 47.703125 
L 2.6875 54.6875 
L 9.28125 54.6875 
L 9.28125 70.21875 
z
" id="DejaVuSans-116"/>
      <path d="M 56.203125 29.59375 
L 56.203125 25.203125 
L 14.890625 25.203125 
Q 15.484375 15.921875 20.484375 11.0625 
Q 25.484375 6.203125 34.421875 6.203125 
Q 39.59375 6.203125 44.453125 7.46875 
Q 49.3125 8.734375 54.109375 11.28125 
L 54.109375 2.78125 
Q 49.265625 0.734375 44.1875 -0.34375 
Q 39.109375 -1.421875 33.890625 -1.421875 
Q 20.796875 -1.421875 13.15625 6.1875 
Q 5.515625 13.8125 5.515625 26.8125 
Q 5.515625 40.234375 12.765625 48.109375 
Q 20.015625 56 32.328125 56 
Q 43.359375 56 49.78125 48.890625 
Q 56.203125 41.796875 56.203125 29.59375 
z
M 47.21875 32.234375 
Q 47.125 39.59375 43.09375 43.984375 
Q 39.0625 48.390625 32.421875 48.390625 
Q 24.90625 48.390625 20.390625 44.140625 
Q 15.875 39.890625 15.1875 32.171875 
z
" id="DejaVuSans-101"/>
     </defs>
     <g transform="translate(365.232031 429.994687)scale(0.1 -0.1)">
      <use xlink:href="#DejaVuSans-68"/>
      <use x="77.001953" xlink:href="#DejaVuSans-97"/>
      <use x="138.28125" xlink:href="#DejaVuSans-116"/>
      <use x="177.490234" xlink:href="#DejaVuSans-101"/>
     </g>
    </g>
   </g>
   <g id="matplotlib.axis_2">
    <g id="ytick_1">
     <g id="line2d_15">
      <path clip-path="url(#p7220b0cf8f)" d="M 48.982813 355.496112 
L 705.382812 355.496112 
" style="fill:none;stroke:#808080;stroke-linecap:square;stroke-opacity:0.2;"/>
     </g>
     <g id="line2d_16">
      <defs>
       <path d="M 0 0 
L -3.5 0 
" id="m8b8be752a5" style="stroke:#000000;stroke-width:0.8;"/>
      </defs>
      <g>
       <use style="stroke:#000000;stroke-width:0.8;" x="48.982813" xlink:href="#m8b8be752a5" y="355.496112"/>
      </g>
     </g>
     <g id="text_9">
      <!-- −50 -->
      <defs>
       <path d="M 10.59375 35.5 
L 73.1875 35.5 
L 73.1875 27.203125 
L 10.59375 27.203125 
z
" id="DejaVuSans-8722"/>
      </defs>
      <g transform="translate(20.878125 359.295331)scale(0.1 -0.1)">
       <use xlink:href="#DejaVuSans-8722"/>
       <use x="83.789062" xlink:href="#DejaVuSans-53"/>
       <use x="147.412109" xlink:href="#DejaVuSans-48"/>
      </g>
     </g>
    </g>
    <g id="ytick_2">
     <g id="line2d_17">
      <path clip-path="url(#p7220b0cf8f)" d="M 48.982813 307.201848 
L 705.382812 307.201848 
" style="fill:none;stroke:#808080;stroke-linecap:square;stroke-opacity:0.2;"/>
     </g>
     <g id="line2d_18">
      <g>
       <use style="stroke:#000000;stroke-width:0.8;" x="48.982813" xlink:href="#m8b8be752a5" y="307.201848"/>
      </g>
     </g>
     <g id="text_10">
      <!-- −40 -->
      <g transform="translate(20.878125 311.001067)scale(0.1 -0.1)">
       <use xlink:href="#DejaVuSans-8722"/>
       <use x="83.789062" xlink:href="#DejaVuSans-52"/>
       <use x="147.412109" xlink:href="#DejaVuSans-48"/>
      </g>
     </g>
    </g>
    <g id="ytick_3">
     <g id="line2d_19">
      <path clip-path="url(#p7220b0cf8f)" d="M 48.982813 258.907584 
L 705.382812 258.907584 
" style="fill:none;stroke:#808080;stroke-linecap:square;stroke-opacity:0.2;"/>
     </g>
     <g id="line2d_20">
      <g>
       <use style="stroke:#000000;stroke-width:0.8;" x="48.982813" xlink:href="#m8b8be752a5" y="258.907584"/>
      </g>
     </g>
     <g id="text_11">
      <!-- −30 -->
      <g transform="translate(20.878125 262.706803)scale(0.1 -0.1)">
       <use xlink:href="#DejaVuSans-8722"/>
       <use x="83.789062" xlink:href="#DejaVuSans-51"/>
       <use x="147.412109" xlink:href="#DejaVuSans-48"/>
      </g>
     </g>
    </g>
    <g id="ytick_4">
     <g id="line2d_21">
      <path clip-path="url(#p7220b0cf8f)" d="M 48.982813 210.61332 
L 705.382812 210.61332 
" style="fill:none;stroke:#808080;stroke-linecap:square;stroke-opacity:0.2;"/>
     </g>
     <g id="line2d_22">
      <g>
       <use style="stroke:#000000;stroke-width:0.8;" x="48.982813" xlink:href="#m8b8be752a5" y="210.61332"/>
      </g>
     </g>
     <g id="text_12">
      <!-- −20 -->
      <g transform="translate(20.878125 214.412539)scale(0.1 -0.1)">
       <use xlink:href="#DejaVuSans-8722"/>
       <use x="83.789062" xlink:href="#DejaVuSans-50"/>
       <use x="147.412109" xlink:href="#DejaVuSans-48"/>
      </g>
     </g>
    </g>
    <g id="ytick_5">
     <g id="line2d_23">
      <path clip-path="url(#p7220b0cf8f)" d="M 48.982813 162.319057 
L 705.382812 162.319057 
" style="fill:none;stroke:#808080;stroke-linecap:square;stroke-opacity:0.2;"/>
     </g>
     <g id="line2d_24">
      <g>
       <use style="stroke:#000000;stroke-width:0.8;" x="48.982813" xlink:href="#m8b8be752a5" y="162.319057"/>
      </g>
     </g>
     <g id="text_13">
      <!-- −10 -->
      <g transform="translate(20.878125 166.118275)scale(0.1 -0.1)">
       <use xlink:href="#DejaVuSans-8722"/>
       <use x="83.789062" xlink:href="#DejaVuSans-49"/>
       <use x="147.412109" xlink:href="#DejaVuSans-48"/>
      </g>
     </g>
    </g>
    <g id="ytick_6">
     <g id="line2d_25">
      <path clip-path="url(#p7220b0cf8f)" d="M 48.982813 114.024793 
L 705.382812 114.024793 
" style="fill:none;stroke:#808080;stroke-linecap:square;stroke-opacity:0.2;"/>
     </g>
     <g id="line2d_26">
      <g>
       <use style="stroke:#000000;stroke-width:0.8;" x="48.982813" xlink:href="#m8b8be752a5" y="114.024793"/>
      </g>
     </g>
     <g id="text_14">
      <!-- 0 -->
      <g transform="translate(35.620313 117.824011)scale(0.1 -0.1)">
       <use xlink:href="#DejaVuSans-48"/>
      </g>
     </g>
    </g>
    <g id="ytick_7">
     <g id="line2d_27">
      <path clip-path="url(#p7220b0cf8f)" d="M 48.982813 65.730529 
L 705.382812 65.730529 
" style="fill:none;stroke:#808080;stroke-linecap:square;stroke-opacity:0.2;"/>
     </g>
     <g id="line2d_28">
      <g>
       <use style="stroke:#000000;stroke-width:0.8;" x="48.982813" xlink:href="#m8b8be752a5" y="65.730529"/>
      </g>
     </g>
     <g id="text_15">
      <!-- 10 -->
      <g transform="translate(29.257813 69.529748)scale(0.1 -0.1)">
       <use xlink:href="#DejaVuSans-49"/>
       <use x="63.623047" xlink:href="#DejaVuSans-48"/>
      </g>
     </g>
    </g>
    <g id="text_16">
     <!-- Workplace Mobility -->
     <defs>
      <path d="M 3.328125 72.90625 
L 13.28125 72.90625 
L 28.609375 11.28125 
L 43.890625 72.90625 
L 54.984375 72.90625 
L 70.3125 11.28125 
L 85.59375 72.90625 
L 95.609375 72.90625 
L 77.296875 0 
L 64.890625 0 
L 49.515625 63.28125 
L 33.984375 0 
L 21.578125 0 
z
" id="DejaVuSans-87"/>
      <path d="M 30.609375 48.390625 
Q 23.390625 48.390625 19.1875 42.75 
Q 14.984375 37.109375 14.984375 27.296875 
Q 14.984375 17.484375 19.15625 11.84375 
Q 23.34375 6.203125 30.609375 6.203125 
Q 37.796875 6.203125 41.984375 11.859375 
Q 46.1875 17.53125 46.1875 27.296875 
Q 46.1875 37.015625 41.984375 42.703125 
Q 37.796875 48.390625 30.609375 48.390625 
z
M 30.609375 56 
Q 42.328125 56 49.015625 48.375 
Q 55.71875 40.765625 55.71875 27.296875 
Q 55.71875 13.875 49.015625 6.21875 
Q 42.328125 -1.421875 30.609375 -1.421875 
Q 18.84375 -1.421875 12.171875 6.21875 
Q 5.515625 13.875 5.515625 27.296875 
Q 5.515625 40.765625 12.171875 48.375 
Q 18.84375 56 30.609375 56 
z
" id="DejaVuSans-111"/>
      <path d="M 41.109375 46.296875 
Q 39.59375 47.171875 37.8125 47.578125 
Q 36.03125 48 33.890625 48 
Q 26.265625 48 22.1875 43.046875 
Q 18.109375 38.09375 18.109375 28.8125 
L 18.109375 0 
L 9.078125 0 
L 9.078125 54.6875 
L 18.109375 54.6875 
L 18.109375 46.1875 
Q 20.953125 51.171875 25.484375 53.578125 
Q 30.03125 56 36.53125 56 
Q 37.453125 56 38.578125 55.875 
Q 39.703125 55.765625 41.0625 55.515625 
z
" id="DejaVuSans-114"/>
      <path d="M 9.078125 75.984375 
L 18.109375 75.984375 
L 18.109375 31.109375 
L 44.921875 54.6875 
L 56.390625 54.6875 
L 27.390625 29.109375 
L 57.625 0 
L 45.90625 0 
L 18.109375 26.703125 
L 18.109375 0 
L 9.078125 0 
z
" id="DejaVuSans-107"/>
      <path d="M 18.109375 8.203125 
L 18.109375 -20.796875 
L 9.078125 -20.796875 
L 9.078125 54.6875 
L 18.109375 54.6875 
L 18.109375 46.390625 
Q 20.953125 51.265625 25.265625 53.625 
Q 29.59375 56 35.59375 56 
Q 45.5625 56 51.78125 48.09375 
Q 58.015625 40.1875 58.015625 27.296875 
Q 58.015625 14.40625 51.78125 6.484375 
Q 45.5625 -1.421875 35.59375 -1.421875 
Q 29.59375 -1.421875 25.265625 0.953125 
Q 20.953125 3.328125 18.109375 8.203125 
z
M 48.6875 27.296875 
Q 48.6875 37.203125 44.609375 42.84375 
Q 40.53125 48.484375 33.40625 48.484375 
Q 26.265625 48.484375 22.1875 42.84375 
Q 18.109375 37.203125 18.109375 27.296875 
Q 18.109375 17.390625 22.1875 11.75 
Q 26.265625 6.109375 33.40625 6.109375 
Q 40.53125 6.109375 44.609375 11.75 
Q 48.6875 17.390625 48.6875 27.296875 
z
" id="DejaVuSans-112"/>
      <path d="M 9.421875 75.984375 
L 18.40625 75.984375 
L 18.40625 0 
L 9.421875 0 
z
" id="DejaVuSans-108"/>
      <path d="M 48.78125 52.59375 
L 48.78125 44.1875 
Q 44.96875 46.296875 41.140625 47.34375 
Q 37.3125 48.390625 33.40625 48.390625 
Q 24.65625 48.390625 19.8125 42.84375 
Q 14.984375 37.3125 14.984375 27.296875 
Q 14.984375 17.28125 19.8125 11.734375 
Q 24.65625 6.203125 33.40625 6.203125 
Q 37.3125 6.203125 41.140625 7.25 
Q 44.96875 8.296875 48.78125 10.40625 
L 48.78125 2.09375 
Q 45.015625 0.34375 40.984375 -0.53125 
Q 36.96875 -1.421875 32.421875 -1.421875 
Q 20.0625 -1.421875 12.78125 6.34375 
Q 5.515625 14.109375 5.515625 27.296875 
Q 5.515625 40.671875 12.859375 48.328125 
Q 20.21875 56 33.015625 56 
Q 37.15625 56 41.109375 55.140625 
Q 45.0625 54.296875 48.78125 52.59375 
z
" id="DejaVuSans-99"/>
      <path id="DejaVuSans-32"/>
      <path d="M 9.8125 72.90625 
L 24.515625 72.90625 
L 43.109375 23.296875 
L 61.8125 72.90625 
L 76.515625 72.90625 
L 76.515625 0 
L 66.890625 0 
L 66.890625 64.015625 
L 48.09375 14.015625 
L 38.1875 14.015625 
L 19.390625 64.015625 
L 19.390625 0 
L 9.8125 0 
z
" id="DejaVuSans-77"/>
      <path d="M 48.6875 27.296875 
Q 48.6875 37.203125 44.609375 42.84375 
Q 40.53125 48.484375 33.40625 48.484375 
Q 26.265625 48.484375 22.1875 42.84375 
Q 18.109375 37.203125 18.109375 27.296875 
Q 18.109375 17.390625 22.1875 11.75 
Q 26.265625 6.109375 33.40625 6.109375 
Q 40.53125 6.109375 44.609375 11.75 
Q 48.6875 17.390625 48.6875 27.296875 
z
M 18.109375 46.390625 
Q 20.953125 51.265625 25.265625 53.625 
Q 29.59375 56 35.59375 56 
Q 45.5625 56 51.78125 48.09375 
Q 58.015625 40.1875 58.015625 27.296875 
Q 58.015625 14.40625 51.78125 6.484375 
Q 45.5625 -1.421875 35.59375 -1.421875 
Q 29.59375 -1.421875 25.265625 0.953125 
Q 20.953125 3.328125 18.109375 8.203125 
L 18.109375 0 
L 9.078125 0 
L 9.078125 75.984375 
L 18.109375 75.984375 
z
" id="DejaVuSans-98"/>
      <path d="M 9.421875 54.6875 
L 18.40625 54.6875 
L 18.40625 0 
L 9.421875 0 
z
M 9.421875 75.984375 
L 18.40625 75.984375 
L 18.40625 64.59375 
L 9.421875 64.59375 
z
" id="DejaVuSans-105"/>
      <path d="M 32.171875 -5.078125 
Q 28.375 -14.84375 24.75 -17.8125 
Q 21.140625 -20.796875 15.09375 -20.796875 
L 7.90625 -20.796875 
L 7.90625 -13.28125 
L 13.1875 -13.28125 
Q 16.890625 -13.28125 18.9375 -11.515625 
Q 21 -9.765625 23.484375 -3.21875 
L 25.09375 0.875 
L 2.984375 54.6875 
L 12.5 54.6875 
L 29.59375 11.921875 
L 46.6875 54.6875 
L 56.203125 54.6875 
z
" id="DejaVuSans-121"/>
     </defs>
     <g transform="translate(14.798438 259.354844)rotate(-90)scale(0.1 -0.1)">
      <use xlink:href="#DejaVuSans-87"/>
      <use x="93.001953" xlink:href="#DejaVuSans-111"/>
      <use x="154.183594" xlink:href="#DejaVuSans-114"/>
      <use x="195.296875" xlink:href="#DejaVuSans-107"/>
      <use x="253.207031" xlink:href="#DejaVuSans-112"/>
      <use x="316.683594" xlink:href="#DejaVuSans-108"/>
      <use x="344.466797" xlink:href="#DejaVuSans-97"/>
      <use x="405.746094" xlink:href="#DejaVuSans-99"/>
      <use x="460.726562" xlink:href="#DejaVuSans-101"/>
      <use x="522.25" xlink:href="#DejaVuSans-32"/>
      <use x="554.037109" xlink:href="#DejaVuSans-77"/>
      <use x="640.316406" xlink:href="#DejaVuSans-111"/>
      <use x="701.498047" xlink:href="#DejaVuSans-98"/>
      <use x="764.974609" xlink:href="#DejaVuSans-105"/>
      <use x="792.757812" xlink:href="#DejaVuSans-108"/>
      <use x="820.541016" xlink:href="#DejaVuSans-105"/>
      <use x="848.324219" xlink:href="#DejaVuSans-116"/>
      <use x="887.533203" xlink:href="#DejaVuSans-121"/>
     </g>
    </g>
   </g>
   <g id="line2d_29">
    <defs>
     <path d="M 0 1.5 
C 0.397805 1.5 0.77937 1.341951 1.06066 1.06066 
C 1.341951 0.77937 1.5 0.397805 1.5 0 
C 1.5 -0.397805 1.341951 -0.77937 1.06066 -1.06066 
C 0.77937 -1.341951 0.397805 -1.5 0 -1.5 
C -0.397805 -1.5 -0.77937 -1.341951 -1.06066 -1.06066 
C -1.341951 -0.77937 -1.5 -0.397805 -1.5 0 
C -1.5 0.397805 -1.341951 0.77937 -1.06066 1.06066 
C -0.77937 1.341951 -0.397805 1.5 0 1.5 
z
" id="mb41b88146a" style="stroke:#000000;"/>
    </defs>
    <g clip-path="url(#p7220b0cf8f)">
     <use style="stroke:#000000;" x="78.819176" xlink:href="#mb41b88146a" y="109.195366"/>
     <use style="stroke:#000000;" x="85.923072" xlink:href="#mb41b88146a" y="128.513072"/>
     <use style="stroke:#000000;" x="93.026968" xlink:href="#mb41b88146a" y="114.024793"/>
     <use style="stroke:#000000;" x="100.130864" xlink:href="#mb41b88146a" y="104.36594"/>
     <use style="stroke:#000000;" x="107.234761" xlink:href="#mb41b88146a" y="109.195366"/>
     <use style="stroke:#000000;" x="114.338657" xlink:href="#mb41b88146a" y="109.195366"/>
     <use style="stroke:#000000;" x="121.442553" xlink:href="#mb41b88146a" y="114.024793"/>
     <use style="stroke:#000000;" x="128.546449" xlink:href="#mb41b88146a" y="133.342498"/>
     <use style="stroke:#000000;" x="135.650345" xlink:href="#mb41b88146a" y="157.48963"/>
     <use style="stroke:#000000;" x="142.754241" xlink:href="#mb41b88146a" y="143.001351"/>
     <use style="stroke:#000000;" x="149.858137" xlink:href="#mb41b88146a" y="162.319057"/>
     <use style="stroke:#000000;" x="156.962033" xlink:href="#mb41b88146a" y="167.148483"/>
     <use style="stroke:#000000;" x="164.065929" xlink:href="#mb41b88146a" y="162.319057"/>
     <use style="stroke:#000000;" x="171.169825" xlink:href="#mb41b88146a" y="171.977909"/>
     <use style="stroke:#000000;" x="178.273722" xlink:href="#mb41b88146a" y="162.319057"/>
     <use style="stroke:#000000;" x="185.377618" xlink:href="#mb41b88146a" y="191.295615"/>
     <use style="stroke:#000000;" x="192.481514" xlink:href="#mb41b88146a" y="152.660204"/>
     <use style="stroke:#000000;" x="199.58541" xlink:href="#mb41b88146a" y="157.48963"/>
     <use style="stroke:#000000;" x="206.689306" xlink:href="#mb41b88146a" y="167.148483"/>
     <use style="stroke:#000000;" x="213.793202" xlink:href="#mb41b88146a" y="157.48963"/>
     <use style="stroke:#000000;" x="220.897098" xlink:href="#mb41b88146a" y="157.48963"/>
     <use style="stroke:#000000;" x="228.000994" xlink:href="#mb41b88146a" y="152.660204"/>
     <use style="stroke:#000000;" x="235.10489" xlink:href="#mb41b88146a" y="181.636762"/>
     <use style="stroke:#000000;" x="242.208787" xlink:href="#mb41b88146a" y="143.001351"/>
     <use style="stroke:#000000;" x="249.312683" xlink:href="#mb41b88146a" y="157.48963"/>
     <use style="stroke:#000000;" x="256.416579" xlink:href="#mb41b88146a" y="152.660204"/>
     <use style="stroke:#000000;" x="263.520475" xlink:href="#mb41b88146a" y="147.830777"/>
     <use style="stroke:#000000;" x="270.624371" xlink:href="#mb41b88146a" y="147.830777"/>
     <use style="stroke:#000000;" x="277.728267" xlink:href="#mb41b88146a" y="138.171925"/>
     <use style="stroke:#000000;" x="284.832163" xlink:href="#mb41b88146a" y="171.977909"/>
     <use style="stroke:#000000;" x="291.936059" xlink:href="#mb41b88146a" y="143.001351"/>
     <use style="stroke:#000000;" x="299.039955" xlink:href="#mb41b88146a" y="143.001351"/>
     <use style="stroke:#000000;" x="306.143851" xlink:href="#mb41b88146a" y="147.830777"/>
     <use style="stroke:#000000;" x="313.247748" xlink:href="#mb41b88146a" y="147.830777"/>
     <use style="stroke:#000000;" x="320.351644" xlink:href="#mb41b88146a" y="143.001351"/>
     <use style="stroke:#000000;" x="327.45554" xlink:href="#mb41b88146a" y="138.171925"/>
     <use style="stroke:#000000;" x="334.559436" xlink:href="#mb41b88146a" y="171.977909"/>
     <use style="stroke:#000000;" x="341.663332" xlink:href="#mb41b88146a" y="138.171925"/>
     <use style="stroke:#000000;" x="348.767228" xlink:href="#mb41b88146a" y="143.001351"/>
     <use style="stroke:#000000;" x="355.871124" xlink:href="#mb41b88146a" y="152.660204"/>
     <use style="stroke:#000000;" x="362.97502" xlink:href="#mb41b88146a" y="147.830777"/>
     <use style="stroke:#000000;" x="370.078916" xlink:href="#mb41b88146a" y="152.660204"/>
     <use style="stroke:#000000;" x="377.182812" xlink:href="#mb41b88146a" y="147.830777"/>
     <use style="stroke:#000000;" x="384.286709" xlink:href="#mb41b88146a" y="171.977909"/>
     <use style="stroke:#000000;" x="391.390605" xlink:href="#mb41b88146a" y="143.001351"/>
     <use style="stroke:#000000;" x="398.494501" xlink:href="#mb41b88146a" y="138.171925"/>
     <use style="stroke:#000000;" x="405.598397" xlink:href="#mb41b88146a" y="152.660204"/>
     <use style="stroke:#000000;" x="412.702293" xlink:href="#mb41b88146a" y="143.001351"/>
     <use style="stroke:#000000;" x="419.806189" xlink:href="#mb41b88146a" y="143.001351"/>
     <use style="stroke:#000000;" x="426.910085" xlink:href="#mb41b88146a" y="152.660204"/>
     <use style="stroke:#000000;" x="434.013981" xlink:href="#mb41b88146a" y="176.807336"/>
     <use style="stroke:#000000;" x="441.117877" xlink:href="#mb41b88146a" y="128.513072"/>
     <use style="stroke:#000000;" x="448.221774" xlink:href="#mb41b88146a" y="133.342498"/>
     <use style="stroke:#000000;" x="455.32567" xlink:href="#mb41b88146a" y="143.001351"/>
     <use style="stroke:#000000;" x="462.429566" xlink:href="#mb41b88146a" y="133.342498"/>
     <use style="stroke:#000000;" x="469.533462" xlink:href="#mb41b88146a" y="138.171925"/>
     <use style="stroke:#000000;" x="476.637358" xlink:href="#mb41b88146a" y="147.830777"/>
     <use style="stroke:#000000;" x="483.741254" xlink:href="#mb41b88146a" y="176.807336"/>
     <use style="stroke:#000000;" x="490.84515" xlink:href="#mb41b88146a" y="128.513072"/>
     <use style="stroke:#000000;" x="497.949046" xlink:href="#mb41b88146a" y="128.513072"/>
     <use style="stroke:#000000;" x="505.052942" xlink:href="#mb41b88146a" y="355.496112"/>
     <use style="stroke:#000000;" x="512.156838" xlink:href="#mb41b88146a" y="133.342498"/>
     <use style="stroke:#000000;" x="519.260735" xlink:href="#mb41b88146a" y="143.001351"/>
     <use style="stroke:#000000;" x="526.364631" xlink:href="#mb41b88146a" y="133.342498"/>
     <use style="stroke:#000000;" x="533.468527" xlink:href="#mb41b88146a" y="171.977909"/>
     <use style="stroke:#000000;" x="540.572423" xlink:href="#mb41b88146a" y="123.683645"/>
     <use style="stroke:#000000;" x="547.676319" xlink:href="#mb41b88146a" y="123.683645"/>
     <use style="stroke:#000000;" x="554.780215" xlink:href="#mb41b88146a" y="133.342498"/>
     <use style="stroke:#000000;" x="561.884111" xlink:href="#mb41b88146a" y="123.683645"/>
     <use style="stroke:#000000;" x="568.988007" xlink:href="#mb41b88146a" y="123.683645"/>
     <use style="stroke:#000000;" x="576.091903" xlink:href="#mb41b88146a" y="133.342498"/>
     <use style="stroke:#000000;" x="583.1958" xlink:href="#mb41b88146a" y="152.660204"/>
     <use style="stroke:#000000;" x="590.299696" xlink:href="#mb41b88146a" y="118.854219"/>
     <use style="stroke:#000000;" x="597.403592" xlink:href="#mb41b88146a" y="118.854219"/>
     <use style="stroke:#000000;" x="604.507488" xlink:href="#mb41b88146a" y="128.513072"/>
     <use style="stroke:#000000;" x="611.611384" xlink:href="#mb41b88146a" y="374.813818"/>
     <use style="stroke:#000000;" x="618.71528" xlink:href="#mb41b88146a" y="336.178407"/>
     <use style="stroke:#000000;" x="625.819176" xlink:href="#mb41b88146a" y="186.466189"/>
     <use style="stroke:#000000;" x="632.923072" xlink:href="#mb41b88146a" y="157.48963"/>
     <use style="stroke:#000000;" x="640.026968" xlink:href="#mb41b88146a" y="200.954468"/>
     <use style="stroke:#000000;" x="647.130864" xlink:href="#mb41b88146a" y="384.47267"/>
     <use style="stroke:#000000;" x="654.234761" xlink:href="#mb41b88146a" y="118.854219"/>
     <use style="stroke:#000000;" x="661.338657" xlink:href="#mb41b88146a" y="118.854219"/>
     <use style="stroke:#000000;" x="668.442553" xlink:href="#mb41b88146a" y="118.854219"/>
     <use style="stroke:#000000;" x="675.546449" xlink:href="#mb41b88146a" y="147.830777"/>
    </g>
   </g>
   <g id="line2d_30">
    <path clip-path="url(#p7220b0cf8f)" d="M 78.819176 96.356148 
L 85.923072 126.130601 
L 93.026968 101.679911 
L 100.130864 123.100887 
L 107.234761 129.271894 
L 114.338657 129.883773 
L 121.442553 132.105015 
L 128.546449 126.969857 
L 135.650345 156.744335 
L 142.754241 132.29367 
L 149.858137 153.714673 
L 156.962033 159.885683 
L 164.065929 160.497524 
L 171.169825 162.718725 
L 178.273722 152.468269 
L 185.377618 177.12745 
L 192.481514 147.561488 
L 199.58541 163.867079 
L 206.689306 164.922679 
L 213.793202 160.419151 
L 220.897098 157.524982 
L 228.000994 147.274413 
L 235.10489 171.933481 
L 242.208787 142.367405 
L 249.312683 158.672996 
L 256.416579 159.728596 
L 263.520475 155.225067 
L 270.624371 152.330899 
L 277.728267 142.08034 
L 284.832163 166.739418 
L 291.936059 137.17396 
L 299.039955 153.480168 
L 306.143851 154.536385 
L 313.247748 150.732532 
L 320.351644 148.538041 
L 327.45554 138.987148 
L 334.559436 164.346943 
L 341.663332 135.481594 
L 348.767228 152.487912 
L 355.871124 154.245329 
L 362.97502 150.443618 
L 370.078916 148.252847 
L 377.182812 138.705675 
L 384.286709 164.068139 
L 391.390605 135.206181 
L 398.494501 152.21589 
L 405.598397 153.975607 
L 412.702293 150.653095 
L 419.806189 148.939944 
L 426.910085 139.871958 
L 434.013981 165.713608 
L 441.117877 137.330115 
L 448.221774 154.820929 
L 455.32567 157.061751 
L 462.429566 153.743444 
L 469.533462 152.035068 
L 476.637358 142.97029 
L 483.741254 168.815149 
L 490.84515 140.434865 
L 497.949046 157.926248 
L 505.052942 159.678926 
L 512.156838 155.872476 
L 519.260735 153.675387 
L 526.364631 144.121896 
L 533.468527 169.478043 
L 540.572423 140.609047 
L 547.676319 157.611717 
L 554.780215 159.364397 
L 561.884111 158.319549 
L 568.988007 158.884062 
L 576.091903 152.092175 
L 583.1958 180.209924 
L 590.299696 154.102529 
L 597.403592 173.866802 
L 604.507488 178.381083 
L 611.611384 177.336235 
L 618.71528 177.900749 
L 625.819176 171.108861 
L 632.923072 199.22661 
L 640.026968 173.119215 
L 647.130864 192.883488 
L 654.234761 197.397769 
L 661.338657 196.352921 
L 668.442553 196.917435 
L 675.546449 190.125547 
" style="fill:none;stroke:#0072b2;stroke-linecap:square;stroke-width:1.5;"/>
   </g>
   <g id="line2d_31">
    <path clip-path="url(#p7220b0cf8f)" d="M 78.819176 106.669608 
L 85.923072 111.042981 
L 93.026968 115.416354 
L 100.130864 119.789728 
L 107.234761 124.163123 
L 114.338657 128.536519 
L 121.442553 132.909917 
L 128.546449 137.283316 
L 135.650345 141.656715 
L 142.754241 146.030114 
L 149.858137 150.403513 
L 156.962033 154.776912 
L 164.065929 159.15027 
L 171.169825 163.523627 
L 178.273722 162.781729 
L 185.377618 162.03983 
L 192.481514 161.297931 
L 199.58541 160.55592 
L 206.689306 159.813908 
L 213.793202 159.071897 
L 220.897098 158.329884 
L 228.000994 157.587872 
L 235.10489 156.84586 
L 242.208787 156.103848 
L 249.312683 155.361837 
L 256.416579 154.619825 
L 263.520475 153.877813 
L 270.624371 153.135801 
L 277.728267 152.393799 
L 284.832163 151.651798 
L 291.936059 150.910403 
L 299.039955 150.169008 
L 306.143851 149.427614 
L 313.247748 149.385278 
L 320.351644 149.342943 
L 327.45554 149.300607 
L 334.559436 149.259322 
L 341.663332 149.218037 
L 348.767228 149.176752 
L 355.871124 149.136558 
L 362.97502 149.096364 
L 370.078916 149.057749 
L 377.182812 149.019134 
L 384.286709 148.980519 
L 391.390605 148.942625 
L 398.494501 148.90473 
L 405.598397 148.866835 
L 412.702293 149.305841 
L 419.806189 149.744846 
L 426.910085 150.185417 
L 434.013981 150.625988 
L 441.117877 151.066559 
L 448.221774 151.509769 
L 455.32567 151.95298 
L 462.429566 152.39619 
L 469.533462 152.83997 
L 476.637358 153.28375 
L 483.741254 153.727529 
L 490.84515 154.171309 
L 497.949046 154.615088 
L 505.052942 154.570155 
L 512.156838 154.525222 
L 519.260735 154.480289 
L 526.364631 154.435356 
L 533.468527 154.390423 
L 540.572423 154.34549 
L 547.676319 154.300558 
L 554.780215 154.255626 
L 561.884111 156.972295 
L 568.988007 159.688964 
L 576.091903 162.405634 
L 583.1958 165.122303 
L 590.299696 167.838973 
L 597.403592 170.555642 
L 604.507488 173.272312 
L 611.611384 175.988981 
L 618.71528 178.705651 
L 625.819176 181.42232 
L 632.923072 184.138989 
L 640.026968 186.855659 
L 647.130864 189.572328 
L 654.234761 192.288998 
L 661.338657 195.005667 
L 668.442553 197.722337 
L 675.546449 200.439006 
" style="fill:none;stroke:#0000ff;stroke-linecap:square;stroke-width:1.5;"/>
   </g>
   <g id="line2d_32">
    <path clip-path="url(#p7220b0cf8f)" d="M 171.169825 401.718125 
L 171.169825 22.318125 
" style="fill:none;stroke:#0000ff;stroke-dasharray:5.55,2.4;stroke-dashoffset:0;stroke-width:1.5;"/>
   </g>
   <g id="line2d_33">
    <path clip-path="url(#p7220b0cf8f)" d="M 306.143851 401.718125 
L 306.143851 22.318125 
" style="fill:none;stroke:#0000ff;stroke-dasharray:5.55,2.4;stroke-dashoffset:0;stroke-width:1.5;"/>
   </g>
   <g id="line2d_34">
    <path clip-path="url(#p7220b0cf8f)" d="M 405.598397 401.718125 
L 405.598397 22.318125 
" style="fill:none;stroke:#0000ff;stroke-dasharray:5.55,2.4;stroke-dashoffset:0;stroke-width:1.5;"/>
   </g>
   <g id="line2d_35">
    <path clip-path="url(#p7220b0cf8f)" d="M 497.949046 401.718125 
L 497.949046 22.318125 
" style="fill:none;stroke:#0000ff;stroke-dasharray:5.55,2.4;stroke-dashoffset:0;stroke-width:1.5;"/>
   </g>
   <g id="line2d_36">
    <path clip-path="url(#p7220b0cf8f)" d="M 554.780215 401.718125 
L 554.780215 22.318125 
" style="fill:none;stroke:#0000ff;stroke-dasharray:5.55,2.4;stroke-dashoffset:0;stroke-width:1.5;"/>
   </g>
   <g id="line2d_37">
    <path clip-path="url(#p7220b0cf8f)" d="M 554.780215 401.718125 
L 554.780215 22.318125 
" style="fill:none;stroke:#ff0000;stroke-linecap:square;stroke-width:3;"/>
   </g>
   <g id="patch_3">
    <path d="M 48.982813 401.718125 
L 48.982813 22.318125 
" style="fill:none;stroke:#000000;stroke-linecap:square;stroke-linejoin:miter;stroke-width:0.8;"/>
   </g>
   <g id="patch_4">
    <path d="M 705.382812 401.718125 
L 705.382812 22.318125 
" style="fill:none;stroke:#000000;stroke-linecap:square;stroke-linejoin:miter;stroke-width:0.8;"/>
   </g>
   <g id="patch_5">
    <path d="M 48.982813 401.718125 
L 705.382812 401.718125 
" style="fill:none;stroke:#000000;stroke-linecap:square;stroke-linejoin:miter;stroke-width:0.8;"/>
   </g>
   <g id="patch_6">
    <path d="M 48.982813 22.318125 
L 705.382812 22.318125 
" style="fill:none;stroke:#000000;stroke-linecap:square;stroke-linejoin:miter;stroke-width:0.8;"/>
   </g>
   <g id="text_17">
    <!-- Workplace Mobility Graph for South Korea -->
    <defs>
     <path d="M 59.515625 10.40625 
L 59.515625 29.984375 
L 43.40625 29.984375 
L 43.40625 38.09375 
L 69.28125 38.09375 
L 69.28125 6.78125 
Q 63.578125 2.734375 56.6875 0.65625 
Q 49.8125 -1.421875 42 -1.421875 
Q 24.90625 -1.421875 15.25 8.5625 
Q 5.609375 18.5625 5.609375 36.375 
Q 5.609375 54.25 15.25 64.234375 
Q 24.90625 74.21875 42 74.21875 
Q 49.125 74.21875 55.546875 72.453125 
Q 61.96875 70.703125 67.390625 67.28125 
L 67.390625 56.78125 
Q 61.921875 61.421875 55.765625 63.765625 
Q 49.609375 66.109375 42.828125 66.109375 
Q 29.4375 66.109375 22.71875 58.640625 
Q 16.015625 51.171875 16.015625 36.375 
Q 16.015625 21.625 22.71875 14.15625 
Q 29.4375 6.6875 42.828125 6.6875 
Q 48.046875 6.6875 52.140625 7.59375 
Q 56.25 8.5 59.515625 10.40625 
z
" id="DejaVuSans-71"/>
     <path d="M 54.890625 33.015625 
L 54.890625 0 
L 45.90625 0 
L 45.90625 32.71875 
Q 45.90625 40.484375 42.875 44.328125 
Q 39.84375 48.1875 33.796875 48.1875 
Q 26.515625 48.1875 22.3125 43.546875 
Q 18.109375 38.921875 18.109375 30.90625 
L 18.109375 0 
L 9.078125 0 
L 9.078125 75.984375 
L 18.109375 75.984375 
L 18.109375 46.1875 
Q 21.34375 51.125 25.703125 53.5625 
Q 30.078125 56 35.796875 56 
Q 45.21875 56 50.046875 50.171875 
Q 54.890625 44.34375 54.890625 33.015625 
z
" id="DejaVuSans-104"/>
     <path d="M 37.109375 75.984375 
L 37.109375 68.5 
L 28.515625 68.5 
Q 23.6875 68.5 21.796875 66.546875 
Q 19.921875 64.59375 19.921875 59.515625 
L 19.921875 54.6875 
L 34.71875 54.6875 
L 34.71875 47.703125 
L 19.921875 47.703125 
L 19.921875 0 
L 10.890625 0 
L 10.890625 47.703125 
L 2.296875 47.703125 
L 2.296875 54.6875 
L 10.890625 54.6875 
L 10.890625 58.5 
Q 10.890625 67.625 15.140625 71.796875 
Q 19.390625 75.984375 28.609375 75.984375 
z
" id="DejaVuSans-102"/>
     <path d="M 53.515625 70.515625 
L 53.515625 60.890625 
Q 47.90625 63.578125 42.921875 64.890625 
Q 37.9375 66.21875 33.296875 66.21875 
Q 25.25 66.21875 20.875 63.09375 
Q 16.5 59.96875 16.5 54.203125 
Q 16.5 49.359375 19.40625 46.890625 
Q 22.3125 44.4375 30.421875 42.921875 
L 36.375 41.703125 
Q 47.40625 39.59375 52.65625 34.296875 
Q 57.90625 29 57.90625 20.125 
Q 57.90625 9.515625 50.796875 4.046875 
Q 43.703125 -1.421875 29.984375 -1.421875 
Q 24.8125 -1.421875 18.96875 -0.25 
Q 13.140625 0.921875 6.890625 3.21875 
L 6.890625 13.375 
Q 12.890625 10.015625 18.65625 8.296875 
Q 24.421875 6.59375 29.984375 6.59375 
Q 38.421875 6.59375 43.015625 9.90625 
Q 47.609375 13.234375 47.609375 19.390625 
Q 47.609375 24.75 44.3125 27.78125 
Q 41.015625 30.8125 33.5 32.328125 
L 27.484375 33.5 
Q 16.453125 35.6875 11.515625 40.375 
Q 6.59375 45.0625 6.59375 53.421875 
Q 6.59375 63.09375 13.40625 68.65625 
Q 20.21875 74.21875 32.171875 74.21875 
Q 37.3125 74.21875 42.625 73.28125 
Q 47.953125 72.359375 53.515625 70.515625 
z
" id="DejaVuSans-83"/>
     <path d="M 8.5 21.578125 
L 8.5 54.6875 
L 17.484375 54.6875 
L 17.484375 21.921875 
Q 17.484375 14.15625 20.5 10.265625 
Q 23.53125 6.390625 29.59375 6.390625 
Q 36.859375 6.390625 41.078125 11.03125 
Q 45.3125 15.671875 45.3125 23.6875 
L 45.3125 54.6875 
L 54.296875 54.6875 
L 54.296875 0 
L 45.3125 0 
L 45.3125 8.40625 
Q 42.046875 3.421875 37.71875 1 
Q 33.40625 -1.421875 27.6875 -1.421875 
Q 18.265625 -1.421875 13.375 4.4375 
Q 8.5 10.296875 8.5 21.578125 
z
M 31.109375 56 
z
" id="DejaVuSans-117"/>
     <path d="M 9.8125 72.90625 
L 19.671875 72.90625 
L 19.671875 42.09375 
L 52.390625 72.90625 
L 65.09375 72.90625 
L 28.90625 38.921875 
L 67.671875 0 
L 54.6875 0 
L 19.671875 35.109375 
L 19.671875 0 
L 9.8125 0 
z
" id="DejaVuSans-75"/>
    </defs>
    <g transform="translate(251.653437 16.318125)scale(0.12 -0.12)">
     <use xlink:href="#DejaVuSans-87"/>
     <use x="93.001953" xlink:href="#DejaVuSans-111"/>
     <use x="154.183594" xlink:href="#DejaVuSans-114"/>
     <use x="195.296875" xlink:href="#DejaVuSans-107"/>
     <use x="253.207031" xlink:href="#DejaVuSans-112"/>
     <use x="316.683594" xlink:href="#DejaVuSans-108"/>
     <use x="344.466797" xlink:href="#DejaVuSans-97"/>
     <use x="405.746094" xlink:href="#DejaVuSans-99"/>
     <use x="460.726562" xlink:href="#DejaVuSans-101"/>
     <use x="522.25" xlink:href="#DejaVuSans-32"/>
     <use x="554.037109" xlink:href="#DejaVuSans-77"/>
     <use x="640.316406" xlink:href="#DejaVuSans-111"/>
     <use x="701.498047" xlink:href="#DejaVuSans-98"/>
     <use x="764.974609" xlink:href="#DejaVuSans-105"/>
     <use x="792.757812" xlink:href="#DejaVuSans-108"/>
     <use x="820.541016" xlink:href="#DejaVuSans-105"/>
     <use x="848.324219" xlink:href="#DejaVuSans-116"/>
     <use x="887.533203" xlink:href="#DejaVuSans-121"/>
     <use x="946.712891" xlink:href="#DejaVuSans-32"/>
     <use x="978.5" xlink:href="#DejaVuSans-71"/>
     <use x="1055.990234" xlink:href="#DejaVuSans-114"/>
     <use x="1097.103516" xlink:href="#DejaVuSans-97"/>
     <use x="1158.382812" xlink:href="#DejaVuSans-112"/>
     <use x="1221.859375" xlink:href="#DejaVuSans-104"/>
     <use x="1285.238281" xlink:href="#DejaVuSans-32"/>
     <use x="1317.025391" xlink:href="#DejaVuSans-102"/>
     <use x="1352.230469" xlink:href="#DejaVuSans-111"/>
     <use x="1413.412109" xlink:href="#DejaVuSans-114"/>
     <use x="1454.525391" xlink:href="#DejaVuSans-32"/>
     <use x="1486.3125" xlink:href="#DejaVuSans-83"/>
     <use x="1549.789062" xlink:href="#DejaVuSans-111"/>
     <use x="1610.970703" xlink:href="#DejaVuSans-117"/>
     <use x="1674.349609" xlink:href="#DejaVuSans-116"/>
     <use x="1713.558594" xlink:href="#DejaVuSans-104"/>
     <use x="1776.9375" xlink:href="#DejaVuSans-32"/>
     <use x="1808.724609" xlink:href="#DejaVuSans-75"/>
     <use x="1869.300781" xlink:href="#DejaVuSans-111"/>
     <use x="1930.482422" xlink:href="#DejaVuSans-114"/>
     <use x="1969.345703" xlink:href="#DejaVuSans-101"/>
     <use x="2030.869141" xlink:href="#DejaVuSans-97"/>
    </g>
   </g>
   <g id="legend_1">
    <g id="patch_7">
     <path d="M 55.982813 44.99625 
L 210.457813 44.99625 
Q 212.457813 44.99625 212.457813 42.99625 
L 212.457813 29.318125 
Q 212.457813 27.318125 210.457813 27.318125 
L 55.982813 27.318125 
Q 53.982813 27.318125 53.982813 29.318125 
L 53.982813 42.99625 
Q 53.982813 44.99625 55.982813 44.99625 
z
" style="fill:#ffffff;opacity:0.8;stroke:#cccccc;stroke-linejoin:miter;"/>
    </g>
    <g id="line2d_38">
     <path d="M 57.982813 35.416562 
L 77.982813 35.416562 
" style="fill:none;stroke:#ff0000;stroke-linecap:square;stroke-width:3;"/>
    </g>
    <g id="line2d_39"/>
    <g id="text_18">
     <!-- Effective Lockdown date -->
     <defs>
      <path d="M 9.8125 72.90625 
L 55.90625 72.90625 
L 55.90625 64.59375 
L 19.671875 64.59375 
L 19.671875 43.015625 
L 54.390625 43.015625 
L 54.390625 34.71875 
L 19.671875 34.71875 
L 19.671875 8.296875 
L 56.78125 8.296875 
L 56.78125 0 
L 9.8125 0 
z
" id="DejaVuSans-69"/>
      <path d="M 2.984375 54.6875 
L 12.5 54.6875 
L 29.59375 8.796875 
L 46.6875 54.6875 
L 56.203125 54.6875 
L 35.6875 0 
L 23.484375 0 
z
" id="DejaVuSans-118"/>
      <path d="M 9.8125 72.90625 
L 19.671875 72.90625 
L 19.671875 8.296875 
L 55.171875 8.296875 
L 55.171875 0 
L 9.8125 0 
z
" id="DejaVuSans-76"/>
      <path d="M 45.40625 46.390625 
L 45.40625 75.984375 
L 54.390625 75.984375 
L 54.390625 0 
L 45.40625 0 
L 45.40625 8.203125 
Q 42.578125 3.328125 38.25 0.953125 
Q 33.9375 -1.421875 27.875 -1.421875 
Q 17.96875 -1.421875 11.734375 6.484375 
Q 5.515625 14.40625 5.515625 27.296875 
Q 5.515625 40.1875 11.734375 48.09375 
Q 17.96875 56 27.875 56 
Q 33.9375 56 38.25 53.625 
Q 42.578125 51.265625 45.40625 46.390625 
z
M 14.796875 27.296875 
Q 14.796875 17.390625 18.875 11.75 
Q 22.953125 6.109375 30.078125 6.109375 
Q 37.203125 6.109375 41.296875 11.75 
Q 45.40625 17.390625 45.40625 27.296875 
Q 45.40625 37.203125 41.296875 42.84375 
Q 37.203125 48.484375 30.078125 48.484375 
Q 22.953125 48.484375 18.875 42.84375 
Q 14.796875 37.203125 14.796875 27.296875 
z
" id="DejaVuSans-100"/>
      <path d="M 4.203125 54.6875 
L 13.1875 54.6875 
L 24.421875 12.015625 
L 35.59375 54.6875 
L 46.1875 54.6875 
L 57.421875 12.015625 
L 68.609375 54.6875 
L 77.59375 54.6875 
L 63.28125 0 
L 52.6875 0 
L 40.921875 44.828125 
L 29.109375 0 
L 18.5 0 
z
" id="DejaVuSans-119"/>
      <path d="M 54.890625 33.015625 
L 54.890625 0 
L 45.90625 0 
L 45.90625 32.71875 
Q 45.90625 40.484375 42.875 44.328125 
Q 39.84375 48.1875 33.796875 48.1875 
Q 26.515625 48.1875 22.3125 43.546875 
Q 18.109375 38.921875 18.109375 30.90625 
L 18.109375 0 
L 9.078125 0 
L 9.078125 54.6875 
L 18.109375 54.6875 
L 18.109375 46.1875 
Q 21.34375 51.125 25.703125 53.5625 
Q 30.078125 56 35.796875 56 
Q 45.21875 56 50.046875 50.171875 
Q 54.890625 44.34375 54.890625 33.015625 
z
" id="DejaVuSans-110"/>
     </defs>
     <g transform="translate(85.982813 38.916562)scale(0.1 -0.1)">
      <use xlink:href="#DejaVuSans-69"/>
      <use x="63.183594" xlink:href="#DejaVuSans-102"/>
      <use x="98.388672" xlink:href="#DejaVuSans-102"/>
      <use x="133.59375" xlink:href="#DejaVuSans-101"/>
      <use x="195.117188" xlink:href="#DejaVuSans-99"/>
      <use x="250.097656" xlink:href="#DejaVuSans-116"/>
      <use x="289.306641" xlink:href="#DejaVuSans-105"/>
      <use x="317.089844" xlink:href="#DejaVuSans-118"/>
      <use x="376.269531" xlink:href="#DejaVuSans-101"/>
      <use x="437.792969" xlink:href="#DejaVuSans-32"/>
      <use x="469.580078" xlink:href="#DejaVuSans-76"/>
      <use x="523.542969" xlink:href="#DejaVuSans-111"/>
      <use x="584.724609" xlink:href="#DejaVuSans-99"/>
      <use x="639.705078" xlink:href="#DejaVuSans-107"/>
      <use x="697.615234" xlink:href="#DejaVuSans-100"/>
      <use x="761.091797" xlink:href="#DejaVuSans-111"/>
      <use x="822.273438" xlink:href="#DejaVuSans-119"/>
      <use x="904.060547" xlink:href="#DejaVuSans-110"/>
      <use x="967.439453" xlink:href="#DejaVuSans-32"/>
      <use x="999.226562" xlink:href="#DejaVuSans-100"/>
      <use x="1062.703125" xlink:href="#DejaVuSans-97"/>
      <use x="1123.982422" xlink:href="#DejaVuSans-116"/>
      <use x="1163.191406" xlink:href="#DejaVuSans-101"/>
     </g>
    </g>
   </g>
  </g>
 </g>
 <defs>
  <clipPath id="p7220b0cf8f">
   <rect height="379.4" width="656.4" x="48.982813" y="22.318125"/>
  </clipPath>
 </defs>
</svg>
