<?xml version="1.0" encoding="utf-8" standalone="no"?>
<!DOCTYPE svg PUBLIC "-//W3C//DTD SVG 1.1//EN"
  "http://www.w3.org/Graphics/SVG/1.1/DTD/svg11.dtd">
<!-- Created with matplotlib (https://matplotlib.org/) -->
<svg height="439.274375pt" version="1.1" viewBox="0 0 712.582813 439.274375" width="712.582813pt" xmlns="http://www.w3.org/2000/svg" xmlns:xlink="http://www.w3.org/1999/xlink">
 <defs>
  <style type="text/css">
*{stroke-linecap:butt;stroke-linejoin:round;}
  </style>
 </defs>
 <g id="figure_1">
  <g id="patch_1">
   <path d="M 0 439.274375 
L 712.582813 439.274375 
L 712.582813 0 
L 0 0 
z
" style="fill:#ffffff;"/>
  </g>
  <g id="axes_1">
   <g id="patch_2">
    <path d="M 48.982813 401.718125 
L 705.382812 401.718125 
L 705.382812 22.318125 
L 48.982813 22.318125 
z
" style="fill:#ffffff;"/>
   </g>
   <g id="PolyCollection_1">
    <defs>
     <path d="M 78.819176 -374.553925 
L 78.819176 -301.906674 
L 85.923072 -298.066369 
L 93.026968 -256.757148 
L 100.130864 -272.408937 
L 107.234761 -275.76397 
L 114.338657 -273.807339 
L 121.442553 -247.115654 
L 128.546449 -313.879845 
L 135.650345 -310.703904 
L 142.754241 -266.438548 
L 149.858137 -284.335976 
L 156.962033 -282.122332 
L 164.065929 -277.791212 
L 171.169825 -248.752509 
L 178.273722 -323.160446 
L 185.377618 -317.451493 
L 192.481514 -272.51336 
L 199.58541 -286.763092 
L 206.689306 -289.590192 
L 213.793202 -284.641505 
L 220.897098 -258.862439 
L 228.000994 -327.095651 
L 235.10489 -322.00496 
L 242.208787 -279.014783 
L 249.312683 -295.828021 
L 256.416579 -286.681515 
L 263.520475 -268.325839 
L 270.624371 -235.43856 
L 277.728267 -296.484976 
L 284.832163 -279.026612 
L 291.936059 -228.341738 
L 299.039955 -232.848291 
L 306.143851 -222.630439 
L 313.247748 -213.372747 
L 320.351644 -187.692244 
L 327.45554 -252.663698 
L 334.559436 -246.462253 
L 341.663332 -204.437648 
L 348.767228 -212.976409 
L 355.871124 -213.669955 
L 362.97502 -207.262099 
L 370.078916 -181.907811 
L 377.182812 -245.144794 
L 384.286709 -237.854884 
L 391.390605 -195.128333 
L 398.494501 -209.059605 
L 405.598397 -207.475924 
L 412.702293 -200.030832 
L 419.806189 -175.756239 
L 426.910085 -234.074915 
L 434.013981 -216.698545 
L 441.117877 -164.165923 
L 448.221774 -170.189828 
L 455.32567 -156.849457 
L 462.429566 -146.362736 
L 469.533462 -107.838096 
L 476.637358 -169.528001 
L 483.741254 -174.062287 
L 490.84515 -142.959564 
L 497.949046 -165.560069 
L 505.052942 -178.994296 
L 512.156838 -182.135918 
L 519.260735 -168.09656 
L 526.364631 -243.059663 
L 533.468527 -241.482284 
L 540.572423 -197.772435 
L 547.676319 -214.10911 
L 554.780215 -211.735186 
L 561.884111 -208.18195 
L 568.988007 -179.843084 
L 576.091903 -247.733576 
L 583.1958 -242.919611 
L 590.299696 -198.738281 
L 597.403592 -213.213453 
L 604.507488 -213.691169 
L 611.611384 -209.375191 
L 618.71528 -181.990238 
L 625.819176 -249.583876 
L 632.923072 -244.98229 
L 640.026968 -198.781218 
L 647.130864 -212.837211 
L 654.234761 -213.307711 
L 661.338657 -210.478014 
L 668.442553 -184.519425 
L 675.546449 -252.929662 
L 675.546449 -321.904347 
L 675.546449 -321.904347 
L 668.442553 -252.304758 
L 661.338657 -281.013039 
L 654.234761 -289.497294 
L 647.130864 -286.971635 
L 640.026968 -271.534813 
L 632.923072 -317.694739 
L 625.819176 -322.477375 
L 618.71528 -251.116989 
L 611.611384 -279.286005 
L 604.507488 -284.453233 
L 597.403592 -286.678349 
L 590.299696 -270.553314 
L 583.1958 -317.874633 
L 576.091903 -320.777019 
L 568.988007 -254.469812 
L 561.884111 -280.886612 
L 554.780215 -284.646468 
L 547.676319 -284.652638 
L 540.572423 -270.185874 
L 533.468527 -313.430028 
L 526.364631 -317.483403 
L 519.260735 -243.331245 
L 512.156838 -257.877712 
L 505.052942 -248.738017 
L 497.949046 -240.59388 
L 490.84515 -213.625457 
L 483.741254 -247.411988 
L 476.637358 -239.85426 
L 469.533462 -180.295006 
L 462.429566 -218.197294 
L 455.32567 -234.39159 
L 448.221774 -240.189425 
L 441.117877 -235.257424 
L 434.013981 -286.232588 
L 426.910085 -307.773962 
L 419.806189 -246.179869 
L 412.702293 -273.151314 
L 405.598397 -281.134997 
L 398.494501 -280.886211 
L 391.390605 -268.632236 
L 384.286709 -309.197884 
L 377.182812 -319.620269 
L 370.078916 -250.462974 
L 362.97502 -277.49746 
L 355.871124 -284.880578 
L 348.767228 -285.738648 
L 341.663332 -273.670676 
L 334.559436 -319.904897 
L 327.45554 -327.545678 
L 320.351644 -258.205611 
L 313.247748 -288.086139 
L 306.143851 -292.366059 
L 299.039955 -303.007493 
L 291.936059 -298.34489 
L 284.832163 -351.462004 
L 277.728267 -365.597587 
L 270.624371 -307.872844 
L 263.520475 -341.465721 
L 256.416579 -358.673975 
L 249.312683 -365.375682 
L 242.208787 -350.541499 
L 235.10489 -395.197266 
L 228.000994 -399.710795 
L 220.897098 -331.743414 
L 213.793202 -357.812956 
L 206.689306 -362.960522 
L 199.58541 -358.553604 
L 192.481514 -344.505795 
L 185.377618 -388.201194 
L 178.273722 -393.588392 
L 171.169825 -323.294209 
L 164.065929 -348.274895 
L 156.962033 -357.405402 
L 149.858137 -355.717011 
L 142.754241 -340.005082 
L 135.650345 -379.666572 
L 128.546449 -388.081139 
L 121.442553 -320.166775 
L 114.338657 -340.814121 
L 107.234761 -349.816362 
L 100.130864 -346.291701 
L 93.026968 -329.918791 
L 85.923072 -370.753735 
L 78.819176 -374.553925 
z
" id="m1945245b6e" style="stroke:#0072b2;stroke-opacity:0.2;"/>
    </defs>
    <g clip-path="url(#pd52f2a1f16)">
     <use style="fill:#0072b2;fill-opacity:0.2;stroke:#0072b2;stroke-opacity:0.2;" x="0" xlink:href="#m1945245b6e" y="439.274375"/>
    </g>
   </g>
   <g id="matplotlib.axis_1">
    <g id="xtick_1">
     <g id="line2d_1">
      <path clip-path="url(#pd52f2a1f16)" d="M 71.71528 401.718125 
L 71.71528 22.318125 
" style="fill:none;stroke:#808080;stroke-linecap:square;stroke-opacity:0.2;"/>
     </g>
     <g id="line2d_2">
      <defs>
       <path d="M 0 0 
L 0 3.5 
" id="mfb379464bd" style="stroke:#000000;stroke-width:0.8;"/>
      </defs>
      <g>
       <use style="stroke:#000000;stroke-width:0.8;" x="71.71528" xlink:href="#mfb379464bd" y="401.718125"/>
      </g>
     </g>
     <g id="text_1">
      <!-- 2020-02-14 -->
      <defs>
       <path d="M 19.1875 8.296875 
L 53.609375 8.296875 
L 53.609375 0 
L 7.328125 0 
L 7.328125 8.296875 
Q 12.9375 14.109375 22.625 23.890625 
Q 32.328125 33.6875 34.8125 36.53125 
Q 39.546875 41.84375 41.421875 45.53125 
Q 43.3125 49.21875 43.3125 52.78125 
Q 43.3125 58.59375 39.234375 62.25 
Q 35.15625 65.921875 28.609375 65.921875 
Q 23.96875 65.921875 18.8125 64.3125 
Q 13.671875 62.703125 7.8125 59.421875 
L 7.8125 69.390625 
Q 13.765625 71.78125 18.9375 73 
Q 24.125 74.21875 28.421875 74.21875 
Q 39.75 74.21875 46.484375 68.546875 
Q 53.21875 62.890625 53.21875 53.421875 
Q 53.21875 48.921875 51.53125 44.890625 
Q 49.859375 40.875 45.40625 35.40625 
Q 44.1875 33.984375 37.640625 27.21875 
Q 31.109375 20.453125 19.1875 8.296875 
z
" id="DejaVuSans-50"/>
       <path d="M 31.78125 66.40625 
Q 24.171875 66.40625 20.328125 58.90625 
Q 16.5 51.421875 16.5 36.375 
Q 16.5 21.390625 20.328125 13.890625 
Q 24.171875 6.390625 31.78125 6.390625 
Q 39.453125 6.390625 43.28125 13.890625 
Q 47.125 21.390625 47.125 36.375 
Q 47.125 51.421875 43.28125 58.90625 
Q 39.453125 66.40625 31.78125 66.40625 
z
M 31.78125 74.21875 
Q 44.046875 74.21875 50.515625 64.515625 
Q 56.984375 54.828125 56.984375 36.375 
Q 56.984375 17.96875 50.515625 8.265625 
Q 44.046875 -1.421875 31.78125 -1.421875 
Q 19.53125 -1.421875 13.0625 8.265625 
Q 6.59375 17.96875 6.59375 36.375 
Q 6.59375 54.828125 13.0625 64.515625 
Q 19.53125 74.21875 31.78125 74.21875 
z
" id="DejaVuSans-48"/>
       <path d="M 4.890625 31.390625 
L 31.203125 31.390625 
L 31.203125 23.390625 
L 4.890625 23.390625 
z
" id="DejaVuSans-45"/>
       <path d="M 12.40625 8.296875 
L 28.515625 8.296875 
L 28.515625 63.921875 
L 10.984375 60.40625 
L 10.984375 69.390625 
L 28.421875 72.90625 
L 38.28125 72.90625 
L 38.28125 8.296875 
L 54.390625 8.296875 
L 54.390625 0 
L 12.40625 0 
z
" id="DejaVuSans-49"/>
       <path d="M 37.796875 64.3125 
L 12.890625 25.390625 
L 37.796875 25.390625 
z
M 35.203125 72.90625 
L 47.609375 72.90625 
L 47.609375 25.390625 
L 58.015625 25.390625 
L 58.015625 17.1875 
L 47.609375 17.1875 
L 47.609375 0 
L 37.796875 0 
L 37.796875 17.1875 
L 4.890625 17.1875 
L 4.890625 26.703125 
z
" id="DejaVuSans-52"/>
      </defs>
      <g transform="translate(42.657468 416.316562)scale(0.1 -0.1)">
       <use xlink:href="#DejaVuSans-50"/>
       <use x="63.623047" xlink:href="#DejaVuSans-48"/>
       <use x="127.246094" xlink:href="#DejaVuSans-50"/>
       <use x="190.869141" xlink:href="#DejaVuSans-48"/>
       <use x="254.492188" xlink:href="#DejaVuSans-45"/>
       <use x="290.576172" xlink:href="#DejaVuSans-48"/>
       <use x="354.199219" xlink:href="#DejaVuSans-50"/>
       <use x="417.822266" xlink:href="#DejaVuSans-45"/>
       <use x="453.90625" xlink:href="#DejaVuSans-49"/>
       <use x="517.529297" xlink:href="#DejaVuSans-52"/>
      </g>
     </g>
    </g>
    <g id="xtick_2">
     <g id="line2d_3">
      <path clip-path="url(#pd52f2a1f16)" d="M 171.169825 401.718125 
L 171.169825 22.318125 
" style="fill:none;stroke:#808080;stroke-linecap:square;stroke-opacity:0.2;"/>
     </g>
     <g id="line2d_4">
      <g>
       <use style="stroke:#000000;stroke-width:0.8;" x="171.169825" xlink:href="#mfb379464bd" y="401.718125"/>
      </g>
     </g>
     <g id="text_2">
      <!-- 2020-02-28 -->
      <defs>
       <path d="M 31.78125 34.625 
Q 24.75 34.625 20.71875 30.859375 
Q 16.703125 27.09375 16.703125 20.515625 
Q 16.703125 13.921875 20.71875 10.15625 
Q 24.75 6.390625 31.78125 6.390625 
Q 38.8125 6.390625 42.859375 10.171875 
Q 46.921875 13.96875 46.921875 20.515625 
Q 46.921875 27.09375 42.890625 30.859375 
Q 38.875 34.625 31.78125 34.625 
z
M 21.921875 38.8125 
Q 15.578125 40.375 12.03125 44.71875 
Q 8.5 49.078125 8.5 55.328125 
Q 8.5 64.0625 14.71875 69.140625 
Q 20.953125 74.21875 31.78125 74.21875 
Q 42.671875 74.21875 48.875 69.140625 
Q 55.078125 64.0625 55.078125 55.328125 
Q 55.078125 49.078125 51.53125 44.71875 
Q 48 40.375 41.703125 38.8125 
Q 48.828125 37.15625 52.796875 32.3125 
Q 56.78125 27.484375 56.78125 20.515625 
Q 56.78125 9.90625 50.3125 4.234375 
Q 43.84375 -1.421875 31.78125 -1.421875 
Q 19.734375 -1.421875 13.25 4.234375 
Q 6.78125 9.90625 6.78125 20.515625 
Q 6.78125 27.484375 10.78125 32.3125 
Q 14.796875 37.15625 21.921875 38.8125 
z
M 18.3125 54.390625 
Q 18.3125 48.734375 21.84375 45.5625 
Q 25.390625 42.390625 31.78125 42.390625 
Q 38.140625 42.390625 41.71875 45.5625 
Q 45.3125 48.734375 45.3125 54.390625 
Q 45.3125 60.0625 41.71875 63.234375 
Q 38.140625 66.40625 31.78125 66.40625 
Q 25.390625 66.40625 21.84375 63.234375 
Q 18.3125 60.0625 18.3125 54.390625 
z
" id="DejaVuSans-56"/>
      </defs>
      <g transform="translate(142.112013 416.316562)scale(0.1 -0.1)">
       <use xlink:href="#DejaVuSans-50"/>
       <use x="63.623047" xlink:href="#DejaVuSans-48"/>
       <use x="127.246094" xlink:href="#DejaVuSans-50"/>
       <use x="190.869141" xlink:href="#DejaVuSans-48"/>
       <use x="254.492188" xlink:href="#DejaVuSans-45"/>
       <use x="290.576172" xlink:href="#DejaVuSans-48"/>
       <use x="354.199219" xlink:href="#DejaVuSans-50"/>
       <use x="417.822266" xlink:href="#DejaVuSans-45"/>
       <use x="453.90625" xlink:href="#DejaVuSans-50"/>
       <use x="517.529297" xlink:href="#DejaVuSans-56"/>
      </g>
     </g>
    </g>
    <g id="xtick_3">
     <g id="line2d_5">
      <path clip-path="url(#pd52f2a1f16)" d="M 270.624371 401.718125 
L 270.624371 22.318125 
" style="fill:none;stroke:#808080;stroke-linecap:square;stroke-opacity:0.2;"/>
     </g>
     <g id="line2d_6">
      <g>
       <use style="stroke:#000000;stroke-width:0.8;" x="270.624371" xlink:href="#mfb379464bd" y="401.718125"/>
      </g>
     </g>
     <g id="text_3">
      <!-- 2020-03-13 -->
      <defs>
       <path d="M 40.578125 39.3125 
Q 47.65625 37.796875 51.625 33 
Q 55.609375 28.21875 55.609375 21.1875 
Q 55.609375 10.40625 48.1875 4.484375 
Q 40.765625 -1.421875 27.09375 -1.421875 
Q 22.515625 -1.421875 17.65625 -0.515625 
Q 12.796875 0.390625 7.625 2.203125 
L 7.625 11.71875 
Q 11.71875 9.328125 16.59375 8.109375 
Q 21.484375 6.890625 26.8125 6.890625 
Q 36.078125 6.890625 40.9375 10.546875 
Q 45.796875 14.203125 45.796875 21.1875 
Q 45.796875 27.640625 41.28125 31.265625 
Q 36.765625 34.90625 28.71875 34.90625 
L 20.21875 34.90625 
L 20.21875 43.015625 
L 29.109375 43.015625 
Q 36.375 43.015625 40.234375 45.921875 
Q 44.09375 48.828125 44.09375 54.296875 
Q 44.09375 59.90625 40.109375 62.90625 
Q 36.140625 65.921875 28.71875 65.921875 
Q 24.65625 65.921875 20.015625 65.03125 
Q 15.375 64.15625 9.8125 62.3125 
L 9.8125 71.09375 
Q 15.4375 72.65625 20.34375 73.4375 
Q 25.25 74.21875 29.59375 74.21875 
Q 40.828125 74.21875 47.359375 69.109375 
Q 53.90625 64.015625 53.90625 55.328125 
Q 53.90625 49.265625 50.4375 45.09375 
Q 46.96875 40.921875 40.578125 39.3125 
z
" id="DejaVuSans-51"/>
      </defs>
      <g transform="translate(241.566558 416.316562)scale(0.1 -0.1)">
       <use xlink:href="#DejaVuSans-50"/>
       <use x="63.623047" xlink:href="#DejaVuSans-48"/>
       <use x="127.246094" xlink:href="#DejaVuSans-50"/>
       <use x="190.869141" xlink:href="#DejaVuSans-48"/>
       <use x="254.492188" xlink:href="#DejaVuSans-45"/>
       <use x="290.576172" xlink:href="#DejaVuSans-48"/>
       <use x="354.199219" xlink:href="#DejaVuSans-51"/>
       <use x="417.822266" xlink:href="#DejaVuSans-45"/>
       <use x="453.90625" xlink:href="#DejaVuSans-49"/>
       <use x="517.529297" xlink:href="#DejaVuSans-51"/>
      </g>
     </g>
    </g>
    <g id="xtick_4">
     <g id="line2d_7">
      <path clip-path="url(#pd52f2a1f16)" d="M 370.078916 401.718125 
L 370.078916 22.318125 
" style="fill:none;stroke:#808080;stroke-linecap:square;stroke-opacity:0.2;"/>
     </g>
     <g id="line2d_8">
      <g>
       <use style="stroke:#000000;stroke-width:0.8;" x="370.078916" xlink:href="#mfb379464bd" y="401.718125"/>
      </g>
     </g>
     <g id="text_4">
      <!-- 2020-03-27 -->
      <defs>
       <path d="M 8.203125 72.90625 
L 55.078125 72.90625 
L 55.078125 68.703125 
L 28.609375 0 
L 18.3125 0 
L 43.21875 64.59375 
L 8.203125 64.59375 
z
" id="DejaVuSans-55"/>
      </defs>
      <g transform="translate(341.021104 416.316562)scale(0.1 -0.1)">
       <use xlink:href="#DejaVuSans-50"/>
       <use x="63.623047" xlink:href="#DejaVuSans-48"/>
       <use x="127.246094" xlink:href="#DejaVuSans-50"/>
       <use x="190.869141" xlink:href="#DejaVuSans-48"/>
       <use x="254.492188" xlink:href="#DejaVuSans-45"/>
       <use x="290.576172" xlink:href="#DejaVuSans-48"/>
       <use x="354.199219" xlink:href="#DejaVuSans-51"/>
       <use x="417.822266" xlink:href="#DejaVuSans-45"/>
       <use x="453.90625" xlink:href="#DejaVuSans-50"/>
       <use x="517.529297" xlink:href="#DejaVuSans-55"/>
      </g>
     </g>
    </g>
    <g id="xtick_5">
     <g id="line2d_9">
      <path clip-path="url(#pd52f2a1f16)" d="M 469.533462 401.718125 
L 469.533462 22.318125 
" style="fill:none;stroke:#808080;stroke-linecap:square;stroke-opacity:0.2;"/>
     </g>
     <g id="line2d_10">
      <g>
       <use style="stroke:#000000;stroke-width:0.8;" x="469.533462" xlink:href="#mfb379464bd" y="401.718125"/>
      </g>
     </g>
     <g id="text_5">
      <!-- 2020-04-10 -->
      <g transform="translate(440.475649 416.316562)scale(0.1 -0.1)">
       <use xlink:href="#DejaVuSans-50"/>
       <use x="63.623047" xlink:href="#DejaVuSans-48"/>
       <use x="127.246094" xlink:href="#DejaVuSans-50"/>
       <use x="190.869141" xlink:href="#DejaVuSans-48"/>
       <use x="254.492188" xlink:href="#DejaVuSans-45"/>
       <use x="290.576172" xlink:href="#DejaVuSans-48"/>
       <use x="354.199219" xlink:href="#DejaVuSans-52"/>
       <use x="417.822266" xlink:href="#DejaVuSans-45"/>
       <use x="453.90625" xlink:href="#DejaVuSans-49"/>
       <use x="517.529297" xlink:href="#DejaVuSans-48"/>
      </g>
     </g>
    </g>
    <g id="xtick_6">
     <g id="line2d_11">
      <path clip-path="url(#pd52f2a1f16)" d="M 568.988007 401.718125 
L 568.988007 22.318125 
" style="fill:none;stroke:#808080;stroke-linecap:square;stroke-opacity:0.2;"/>
     </g>
     <g id="line2d_12">
      <g>
       <use style="stroke:#000000;stroke-width:0.8;" x="568.988007" xlink:href="#mfb379464bd" y="401.718125"/>
      </g>
     </g>
     <g id="text_6">
      <!-- 2020-04-24 -->
      <g transform="translate(539.930195 416.316562)scale(0.1 -0.1)">
       <use xlink:href="#DejaVuSans-50"/>
       <use x="63.623047" xlink:href="#DejaVuSans-48"/>
       <use x="127.246094" xlink:href="#DejaVuSans-50"/>
       <use x="190.869141" xlink:href="#DejaVuSans-48"/>
       <use x="254.492188" xlink:href="#DejaVuSans-45"/>
       <use x="290.576172" xlink:href="#DejaVuSans-48"/>
       <use x="354.199219" xlink:href="#DejaVuSans-52"/>
       <use x="417.822266" xlink:href="#DejaVuSans-45"/>
       <use x="453.90625" xlink:href="#DejaVuSans-50"/>
       <use x="517.529297" xlink:href="#DejaVuSans-52"/>
      </g>
     </g>
    </g>
    <g id="xtick_7">
     <g id="line2d_13">
      <path clip-path="url(#pd52f2a1f16)" d="M 668.442553 401.718125 
L 668.442553 22.318125 
" style="fill:none;stroke:#808080;stroke-linecap:square;stroke-opacity:0.2;"/>
     </g>
     <g id="line2d_14">
      <g>
       <use style="stroke:#000000;stroke-width:0.8;" x="668.442553" xlink:href="#mfb379464bd" y="401.718125"/>
      </g>
     </g>
     <g id="text_7">
      <!-- 2020-05-08 -->
      <defs>
       <path d="M 10.796875 72.90625 
L 49.515625 72.90625 
L 49.515625 64.59375 
L 19.828125 64.59375 
L 19.828125 46.734375 
Q 21.96875 47.46875 24.109375 47.828125 
Q 26.265625 48.1875 28.421875 48.1875 
Q 40.625 48.1875 47.75 41.5 
Q 54.890625 34.8125 54.890625 23.390625 
Q 54.890625 11.625 47.5625 5.09375 
Q 40.234375 -1.421875 26.90625 -1.421875 
Q 22.3125 -1.421875 17.546875 -0.640625 
Q 12.796875 0.140625 7.71875 1.703125 
L 7.71875 11.625 
Q 12.109375 9.234375 16.796875 8.0625 
Q 21.484375 6.890625 26.703125 6.890625 
Q 35.15625 6.890625 40.078125 11.328125 
Q 45.015625 15.765625 45.015625 23.390625 
Q 45.015625 31 40.078125 35.4375 
Q 35.15625 39.890625 26.703125 39.890625 
Q 22.75 39.890625 18.8125 39.015625 
Q 14.890625 38.140625 10.796875 36.28125 
z
" id="DejaVuSans-53"/>
      </defs>
      <g transform="translate(639.38474 416.316562)scale(0.1 -0.1)">
       <use xlink:href="#DejaVuSans-50"/>
       <use x="63.623047" xlink:href="#DejaVuSans-48"/>
       <use x="127.246094" xlink:href="#DejaVuSans-50"/>
       <use x="190.869141" xlink:href="#DejaVuSans-48"/>
       <use x="254.492188" xlink:href="#DejaVuSans-45"/>
       <use x="290.576172" xlink:href="#DejaVuSans-48"/>
       <use x="354.199219" xlink:href="#DejaVuSans-53"/>
       <use x="417.822266" xlink:href="#DejaVuSans-45"/>
       <use x="453.90625" xlink:href="#DejaVuSans-48"/>
       <use x="517.529297" xlink:href="#DejaVuSans-56"/>
      </g>
     </g>
    </g>
    <g id="text_8">
     <!-- Date -->
     <defs>
      <path d="M 19.671875 64.796875 
L 19.671875 8.109375 
L 31.59375 8.109375 
Q 46.6875 8.109375 53.6875 14.9375 
Q 60.6875 21.78125 60.6875 36.53125 
Q 60.6875 51.171875 53.6875 57.984375 
Q 46.6875 64.796875 31.59375 64.796875 
z
M 9.8125 72.90625 
L 30.078125 72.90625 
Q 51.265625 72.90625 61.171875 64.09375 
Q 71.09375 55.28125 71.09375 36.53125 
Q 71.09375 17.671875 61.125 8.828125 
Q 51.171875 0 30.078125 0 
L 9.8125 0 
z
" id="DejaVuSans-68"/>
      <path d="M 34.28125 27.484375 
Q 23.390625 27.484375 19.1875 25 
Q 14.984375 22.515625 14.984375 16.5 
Q 14.984375 11.71875 18.140625 8.90625 
Q 21.296875 6.109375 26.703125 6.109375 
Q 34.1875 6.109375 38.703125 11.40625 
Q 43.21875 16.703125 43.21875 25.484375 
L 43.21875 27.484375 
z
M 52.203125 31.203125 
L 52.203125 0 
L 43.21875 0 
L 43.21875 8.296875 
Q 40.140625 3.328125 35.546875 0.953125 
Q 30.953125 -1.421875 24.3125 -1.421875 
Q 15.921875 -1.421875 10.953125 3.296875 
Q 6 8.015625 6 15.921875 
Q 6 25.140625 12.171875 29.828125 
Q 18.359375 34.515625 30.609375 34.515625 
L 43.21875 34.515625 
L 43.21875 35.40625 
Q 43.21875 41.609375 39.140625 45 
Q 35.0625 48.390625 27.6875 48.390625 
Q 23 48.390625 18.546875 47.265625 
Q 14.109375 46.140625 10.015625 43.890625 
L 10.015625 52.203125 
Q 14.9375 54.109375 19.578125 55.046875 
Q 24.21875 56 28.609375 56 
Q 40.484375 56 46.34375 49.84375 
Q 52.203125 43.703125 52.203125 31.203125 
z
" id="DejaVuSans-97"/>
      <path d="M 18.3125 70.21875 
L 18.3125 54.6875 
L 36.8125 54.6875 
L 36.8125 47.703125 
L 18.3125 47.703125 
L 18.3125 18.015625 
Q 18.3125 11.328125 20.140625 9.421875 
Q 21.96875 7.515625 27.59375 7.515625 
L 36.8125 7.515625 
L 36.8125 0 
L 27.59375 0 
Q 17.1875 0 13.234375 3.875 
Q 9.28125 7.765625 9.28125 18.015625 
L 9.28125 47.703125 
L 2.6875 47.703125 
L 2.6875 54.6875 
L 9.28125 54.6875 
L 9.28125 70.21875 
z
" id="DejaVuSans-116"/>
      <path d="M 56.203125 29.59375 
L 56.203125 25.203125 
L 14.890625 25.203125 
Q 15.484375 15.921875 20.484375 11.0625 
Q 25.484375 6.203125 34.421875 6.203125 
Q 39.59375 6.203125 44.453125 7.46875 
Q 49.3125 8.734375 54.109375 11.28125 
L 54.109375 2.78125 
Q 49.265625 0.734375 44.1875 -0.34375 
Q 39.109375 -1.421875 33.890625 -1.421875 
Q 20.796875 -1.421875 13.15625 6.1875 
Q 5.515625 13.8125 5.515625 26.8125 
Q 5.515625 40.234375 12.765625 48.109375 
Q 20.015625 56 32.328125 56 
Q 43.359375 56 49.78125 48.890625 
Q 56.203125 41.796875 56.203125 29.59375 
z
M 47.21875 32.234375 
Q 47.125 39.59375 43.09375 43.984375 
Q 39.0625 48.390625 32.421875 48.390625 
Q 24.90625 48.390625 20.390625 44.140625 
Q 15.875 39.890625 15.1875 32.171875 
z
" id="DejaVuSans-101"/>
     </defs>
     <g transform="translate(365.232031 429.994687)scale(0.1 -0.1)">
      <use xlink:href="#DejaVuSans-68"/>
      <use x="77.001953" xlink:href="#DejaVuSans-97"/>
      <use x="138.28125" xlink:href="#DejaVuSans-116"/>
      <use x="177.490234" xlink:href="#DejaVuSans-101"/>
     </g>
    </g>
   </g>
   <g id="matplotlib.axis_2">
    <g id="ytick_1">
     <g id="line2d_15">
      <path clip-path="url(#pd52f2a1f16)" d="M 48.982813 377.682822 
L 705.382812 377.682822 
" style="fill:none;stroke:#808080;stroke-linecap:square;stroke-opacity:0.2;"/>
     </g>
     <g id="line2d_16">
      <defs>
       <path d="M 0 0 
L -3.5 0 
" id="mf85945fb62" style="stroke:#000000;stroke-width:0.8;"/>
      </defs>
      <g>
       <use style="stroke:#000000;stroke-width:0.8;" x="48.982813" xlink:href="#mf85945fb62" y="377.682822"/>
      </g>
     </g>
     <g id="text_9">
      <!-- −80 -->
      <defs>
       <path d="M 10.59375 35.5 
L 73.1875 35.5 
L 73.1875 27.203125 
L 10.59375 27.203125 
z
" id="DejaVuSans-8722"/>
      </defs>
      <g transform="translate(20.878125 381.482041)scale(0.1 -0.1)">
       <use xlink:href="#DejaVuSans-8722"/>
       <use x="83.789062" xlink:href="#DejaVuSans-56"/>
       <use x="147.412109" xlink:href="#DejaVuSans-48"/>
      </g>
     </g>
    </g>
    <g id="ytick_2">
     <g id="line2d_17">
      <path clip-path="url(#pd52f2a1f16)" d="M 48.982813 309.784339 
L 705.382812 309.784339 
" style="fill:none;stroke:#808080;stroke-linecap:square;stroke-opacity:0.2;"/>
     </g>
     <g id="line2d_18">
      <g>
       <use style="stroke:#000000;stroke-width:0.8;" x="48.982813" xlink:href="#mf85945fb62" y="309.784339"/>
      </g>
     </g>
     <g id="text_10">
      <!-- −60 -->
      <defs>
       <path d="M 33.015625 40.375 
Q 26.375 40.375 22.484375 35.828125 
Q 18.609375 31.296875 18.609375 23.390625 
Q 18.609375 15.53125 22.484375 10.953125 
Q 26.375 6.390625 33.015625 6.390625 
Q 39.65625 6.390625 43.53125 10.953125 
Q 47.40625 15.53125 47.40625 23.390625 
Q 47.40625 31.296875 43.53125 35.828125 
Q 39.65625 40.375 33.015625 40.375 
z
M 52.59375 71.296875 
L 52.59375 62.3125 
Q 48.875 64.0625 45.09375 64.984375 
Q 41.3125 65.921875 37.59375 65.921875 
Q 27.828125 65.921875 22.671875 59.328125 
Q 17.53125 52.734375 16.796875 39.40625 
Q 19.671875 43.65625 24.015625 45.921875 
Q 28.375 48.1875 33.59375 48.1875 
Q 44.578125 48.1875 50.953125 41.515625 
Q 57.328125 34.859375 57.328125 23.390625 
Q 57.328125 12.15625 50.6875 5.359375 
Q 44.046875 -1.421875 33.015625 -1.421875 
Q 20.359375 -1.421875 13.671875 8.265625 
Q 6.984375 17.96875 6.984375 36.375 
Q 6.984375 53.65625 15.1875 63.9375 
Q 23.390625 74.21875 37.203125 74.21875 
Q 40.921875 74.21875 44.703125 73.484375 
Q 48.484375 72.75 52.59375 71.296875 
z
" id="DejaVuSans-54"/>
      </defs>
      <g transform="translate(20.878125 313.583557)scale(0.1 -0.1)">
       <use xlink:href="#DejaVuSans-8722"/>
       <use x="83.789062" xlink:href="#DejaVuSans-54"/>
       <use x="147.412109" xlink:href="#DejaVuSans-48"/>
      </g>
     </g>
    </g>
    <g id="ytick_3">
     <g id="line2d_19">
      <path clip-path="url(#pd52f2a1f16)" d="M 48.982813 241.885855 
L 705.382812 241.885855 
" style="fill:none;stroke:#808080;stroke-linecap:square;stroke-opacity:0.2;"/>
     </g>
     <g id="line2d_20">
      <g>
       <use style="stroke:#000000;stroke-width:0.8;" x="48.982813" xlink:href="#mf85945fb62" y="241.885855"/>
      </g>
     </g>
     <g id="text_11">
      <!-- −40 -->
      <g transform="translate(20.878125 245.685074)scale(0.1 -0.1)">
       <use xlink:href="#DejaVuSans-8722"/>
       <use x="83.789062" xlink:href="#DejaVuSans-52"/>
       <use x="147.412109" xlink:href="#DejaVuSans-48"/>
      </g>
     </g>
    </g>
    <g id="ytick_4">
     <g id="line2d_21">
      <path clip-path="url(#pd52f2a1f16)" d="M 48.982813 173.987372 
L 705.382812 173.987372 
" style="fill:none;stroke:#808080;stroke-linecap:square;stroke-opacity:0.2;"/>
     </g>
     <g id="line2d_22">
      <g>
       <use style="stroke:#000000;stroke-width:0.8;" x="48.982813" xlink:href="#mf85945fb62" y="173.987372"/>
      </g>
     </g>
     <g id="text_12">
      <!-- −20 -->
      <g transform="translate(20.878125 177.78659)scale(0.1 -0.1)">
       <use xlink:href="#DejaVuSans-8722"/>
       <use x="83.789062" xlink:href="#DejaVuSans-50"/>
       <use x="147.412109" xlink:href="#DejaVuSans-48"/>
      </g>
     </g>
    </g>
    <g id="ytick_5">
     <g id="line2d_23">
      <path clip-path="url(#pd52f2a1f16)" d="M 48.982813 106.088888 
L 705.382812 106.088888 
" style="fill:none;stroke:#808080;stroke-linecap:square;stroke-opacity:0.2;"/>
     </g>
     <g id="line2d_24">
      <g>
       <use style="stroke:#000000;stroke-width:0.8;" x="48.982813" xlink:href="#mf85945fb62" y="106.088888"/>
      </g>
     </g>
     <g id="text_13">
      <!-- 0 -->
      <g transform="translate(35.620313 109.888107)scale(0.1 -0.1)">
       <use xlink:href="#DejaVuSans-48"/>
      </g>
     </g>
    </g>
    <g id="ytick_6">
     <g id="line2d_25">
      <path clip-path="url(#pd52f2a1f16)" d="M 48.982813 38.190404 
L 705.382812 38.190404 
" style="fill:none;stroke:#808080;stroke-linecap:square;stroke-opacity:0.2;"/>
     </g>
     <g id="line2d_26">
      <g>
       <use style="stroke:#000000;stroke-width:0.8;" x="48.982813" xlink:href="#mf85945fb62" y="38.190404"/>
      </g>
     </g>
     <g id="text_14">
      <!-- 20 -->
      <g transform="translate(29.257813 41.989623)scale(0.1 -0.1)">
       <use xlink:href="#DejaVuSans-50"/>
       <use x="63.623047" xlink:href="#DejaVuSans-48"/>
      </g>
     </g>
    </g>
    <g id="text_15">
     <!-- Workplace Mobility -->
     <defs>
      <path d="M 3.328125 72.90625 
L 13.28125 72.90625 
L 28.609375 11.28125 
L 43.890625 72.90625 
L 54.984375 72.90625 
L 70.3125 11.28125 
L 85.59375 72.90625 
L 95.609375 72.90625 
L 77.296875 0 
L 64.890625 0 
L 49.515625 63.28125 
L 33.984375 0 
L 21.578125 0 
z
" id="DejaVuSans-87"/>
      <path d="M 30.609375 48.390625 
Q 23.390625 48.390625 19.1875 42.75 
Q 14.984375 37.109375 14.984375 27.296875 
Q 14.984375 17.484375 19.15625 11.84375 
Q 23.34375 6.203125 30.609375 6.203125 
Q 37.796875 6.203125 41.984375 11.859375 
Q 46.1875 17.53125 46.1875 27.296875 
Q 46.1875 37.015625 41.984375 42.703125 
Q 37.796875 48.390625 30.609375 48.390625 
z
M 30.609375 56 
Q 42.328125 56 49.015625 48.375 
Q 55.71875 40.765625 55.71875 27.296875 
Q 55.71875 13.875 49.015625 6.21875 
Q 42.328125 -1.421875 30.609375 -1.421875 
Q 18.84375 -1.421875 12.171875 6.21875 
Q 5.515625 13.875 5.515625 27.296875 
Q 5.515625 40.765625 12.171875 48.375 
Q 18.84375 56 30.609375 56 
z
" id="DejaVuSans-111"/>
      <path d="M 41.109375 46.296875 
Q 39.59375 47.171875 37.8125 47.578125 
Q 36.03125 48 33.890625 48 
Q 26.265625 48 22.1875 43.046875 
Q 18.109375 38.09375 18.109375 28.8125 
L 18.109375 0 
L 9.078125 0 
L 9.078125 54.6875 
L 18.109375 54.6875 
L 18.109375 46.1875 
Q 20.953125 51.171875 25.484375 53.578125 
Q 30.03125 56 36.53125 56 
Q 37.453125 56 38.578125 55.875 
Q 39.703125 55.765625 41.0625 55.515625 
z
" id="DejaVuSans-114"/>
      <path d="M 9.078125 75.984375 
L 18.109375 75.984375 
L 18.109375 31.109375 
L 44.921875 54.6875 
L 56.390625 54.6875 
L 27.390625 29.109375 
L 57.625 0 
L 45.90625 0 
L 18.109375 26.703125 
L 18.109375 0 
L 9.078125 0 
z
" id="DejaVuSans-107"/>
      <path d="M 18.109375 8.203125 
L 18.109375 -20.796875 
L 9.078125 -20.796875 
L 9.078125 54.6875 
L 18.109375 54.6875 
L 18.109375 46.390625 
Q 20.953125 51.265625 25.265625 53.625 
Q 29.59375 56 35.59375 56 
Q 45.5625 56 51.78125 48.09375 
Q 58.015625 40.1875 58.015625 27.296875 
Q 58.015625 14.40625 51.78125 6.484375 
Q 45.5625 -1.421875 35.59375 -1.421875 
Q 29.59375 -1.421875 25.265625 0.953125 
Q 20.953125 3.328125 18.109375 8.203125 
z
M 48.6875 27.296875 
Q 48.6875 37.203125 44.609375 42.84375 
Q 40.53125 48.484375 33.40625 48.484375 
Q 26.265625 48.484375 22.1875 42.84375 
Q 18.109375 37.203125 18.109375 27.296875 
Q 18.109375 17.390625 22.1875 11.75 
Q 26.265625 6.109375 33.40625 6.109375 
Q 40.53125 6.109375 44.609375 11.75 
Q 48.6875 17.390625 48.6875 27.296875 
z
" id="DejaVuSans-112"/>
      <path d="M 9.421875 75.984375 
L 18.40625 75.984375 
L 18.40625 0 
L 9.421875 0 
z
" id="DejaVuSans-108"/>
      <path d="M 48.78125 52.59375 
L 48.78125 44.1875 
Q 44.96875 46.296875 41.140625 47.34375 
Q 37.3125 48.390625 33.40625 48.390625 
Q 24.65625 48.390625 19.8125 42.84375 
Q 14.984375 37.3125 14.984375 27.296875 
Q 14.984375 17.28125 19.8125 11.734375 
Q 24.65625 6.203125 33.40625 6.203125 
Q 37.3125 6.203125 41.140625 7.25 
Q 44.96875 8.296875 48.78125 10.40625 
L 48.78125 2.09375 
Q 45.015625 0.34375 40.984375 -0.53125 
Q 36.96875 -1.421875 32.421875 -1.421875 
Q 20.0625 -1.421875 12.78125 6.34375 
Q 5.515625 14.109375 5.515625 27.296875 
Q 5.515625 40.671875 12.859375 48.328125 
Q 20.21875 56 33.015625 56 
Q 37.15625 56 41.109375 55.140625 
Q 45.0625 54.296875 48.78125 52.59375 
z
" id="DejaVuSans-99"/>
      <path id="DejaVuSans-32"/>
      <path d="M 9.8125 72.90625 
L 24.515625 72.90625 
L 43.109375 23.296875 
L 61.8125 72.90625 
L 76.515625 72.90625 
L 76.515625 0 
L 66.890625 0 
L 66.890625 64.015625 
L 48.09375 14.015625 
L 38.1875 14.015625 
L 19.390625 64.015625 
L 19.390625 0 
L 9.8125 0 
z
" id="DejaVuSans-77"/>
      <path d="M 48.6875 27.296875 
Q 48.6875 37.203125 44.609375 42.84375 
Q 40.53125 48.484375 33.40625 48.484375 
Q 26.265625 48.484375 22.1875 42.84375 
Q 18.109375 37.203125 18.109375 27.296875 
Q 18.109375 17.390625 22.1875 11.75 
Q 26.265625 6.109375 33.40625 6.109375 
Q 40.53125 6.109375 44.609375 11.75 
Q 48.6875 17.390625 48.6875 27.296875 
z
M 18.109375 46.390625 
Q 20.953125 51.265625 25.265625 53.625 
Q 29.59375 56 35.59375 56 
Q 45.5625 56 51.78125 48.09375 
Q 58.015625 40.1875 58.015625 27.296875 
Q 58.015625 14.40625 51.78125 6.484375 
Q 45.5625 -1.421875 35.59375 -1.421875 
Q 29.59375 -1.421875 25.265625 0.953125 
Q 20.953125 3.328125 18.109375 8.203125 
L 18.109375 0 
L 9.078125 0 
L 9.078125 75.984375 
L 18.109375 75.984375 
z
" id="DejaVuSans-98"/>
      <path d="M 9.421875 54.6875 
L 18.40625 54.6875 
L 18.40625 0 
L 9.421875 0 
z
M 9.421875 75.984375 
L 18.40625 75.984375 
L 18.40625 64.59375 
L 9.421875 64.59375 
z
" id="DejaVuSans-105"/>
      <path d="M 32.171875 -5.078125 
Q 28.375 -14.84375 24.75 -17.8125 
Q 21.140625 -20.796875 15.09375 -20.796875 
L 7.90625 -20.796875 
L 7.90625 -13.28125 
L 13.1875 -13.28125 
Q 16.890625 -13.28125 18.9375 -11.515625 
Q 21 -9.765625 23.484375 -3.21875 
L 25.09375 0.875 
L 2.984375 54.6875 
L 12.5 54.6875 
L 29.59375 11.921875 
L 46.6875 54.6875 
L 56.203125 54.6875 
z
" id="DejaVuSans-121"/>
     </defs>
     <g transform="translate(14.798438 259.354844)rotate(-90)scale(0.1 -0.1)">
      <use xlink:href="#DejaVuSans-87"/>
      <use x="93.001953" xlink:href="#DejaVuSans-111"/>
      <use x="154.183594" xlink:href="#DejaVuSans-114"/>
      <use x="195.296875" xlink:href="#DejaVuSans-107"/>
      <use x="253.207031" xlink:href="#DejaVuSans-112"/>
      <use x="316.683594" xlink:href="#DejaVuSans-108"/>
      <use x="344.466797" xlink:href="#DejaVuSans-97"/>
      <use x="405.746094" xlink:href="#DejaVuSans-99"/>
      <use x="460.726562" xlink:href="#DejaVuSans-101"/>
      <use x="522.25" xlink:href="#DejaVuSans-32"/>
      <use x="554.037109" xlink:href="#DejaVuSans-77"/>
      <use x="640.316406" xlink:href="#DejaVuSans-111"/>
      <use x="701.498047" xlink:href="#DejaVuSans-98"/>
      <use x="764.974609" xlink:href="#DejaVuSans-105"/>
      <use x="792.757812" xlink:href="#DejaVuSans-108"/>
      <use x="820.541016" xlink:href="#DejaVuSans-105"/>
      <use x="848.324219" xlink:href="#DejaVuSans-116"/>
      <use x="887.533203" xlink:href="#DejaVuSans-121"/>
     </g>
    </g>
   </g>
   <g id="line2d_27">
    <defs>
     <path d="M 0 1.5 
C 0.397805 1.5 0.77937 1.341951 1.06066 1.06066 
C 1.341951 0.77937 1.5 0.397805 1.5 0 
C 1.5 -0.397805 1.341951 -0.77937 1.06066 -1.06066 
C 0.77937 -1.341951 0.397805 -1.5 0 -1.5 
C -0.397805 -1.5 -0.77937 -1.341951 -1.06066 -1.06066 
C -1.341951 -0.77937 -1.5 -0.397805 -1.5 0 
C -1.5 0.397805 -1.341951 0.77937 -1.06066 1.06066 
C -0.77937 1.341951 -0.397805 1.5 0 1.5 
z
" id="m8ac62e3fd1" style="stroke:#000000;"/>
    </defs>
    <g clip-path="url(#pd52f2a1f16)">
     <use style="stroke:#000000;" x="78.819176" xlink:href="#m8ac62e3fd1" y="112.878736"/>
     <use style="stroke:#000000;" x="85.923072" xlink:href="#m8ac62e3fd1" y="123.063509"/>
     <use style="stroke:#000000;" x="93.026968" xlink:href="#m8ac62e3fd1" y="126.458433"/>
     <use style="stroke:#000000;" x="100.130864" xlink:href="#m8ac62e3fd1" y="123.063509"/>
     <use style="stroke:#000000;" x="107.234761" xlink:href="#m8ac62e3fd1" y="123.063509"/>
     <use style="stroke:#000000;" x="114.338657" xlink:href="#m8ac62e3fd1" y="126.458433"/>
     <use style="stroke:#000000;" x="121.442553" xlink:href="#m8ac62e3fd1" y="129.853357"/>
     <use style="stroke:#000000;" x="128.546449" xlink:href="#m8ac62e3fd1" y="116.273661"/>
     <use style="stroke:#000000;" x="135.650345" xlink:href="#m8ac62e3fd1" y="109.483812"/>
     <use style="stroke:#000000;" x="142.754241" xlink:href="#m8ac62e3fd1" y="119.668585"/>
     <use style="stroke:#000000;" x="149.858137" xlink:href="#m8ac62e3fd1" y="119.668585"/>
     <use style="stroke:#000000;" x="156.962033" xlink:href="#m8ac62e3fd1" y="119.668585"/>
     <use style="stroke:#000000;" x="164.065929" xlink:href="#m8ac62e3fd1" y="123.063509"/>
     <use style="stroke:#000000;" x="171.169825" xlink:href="#m8ac62e3fd1" y="126.458433"/>
     <use style="stroke:#000000;" x="178.273722" xlink:href="#m8ac62e3fd1" y="106.088888"/>
     <use style="stroke:#000000;" x="185.377618" xlink:href="#m8ac62e3fd1" y="112.878736"/>
     <use style="stroke:#000000;" x="192.481514" xlink:href="#m8ac62e3fd1" y="112.878736"/>
     <use style="stroke:#000000;" x="199.58541" xlink:href="#m8ac62e3fd1" y="112.878736"/>
     <use style="stroke:#000000;" x="206.689306" xlink:href="#m8ac62e3fd1" y="112.878736"/>
     <use style="stroke:#000000;" x="213.793202" xlink:href="#m8ac62e3fd1" y="112.878736"/>
     <use style="stroke:#000000;" x="220.897098" xlink:href="#m8ac62e3fd1" y="112.878736"/>
     <use style="stroke:#000000;" x="228.000994" xlink:href="#m8ac62e3fd1" y="106.088888"/>
     <use style="stroke:#000000;" x="235.10489" xlink:href="#m8ac62e3fd1" y="109.483812"/>
     <use style="stroke:#000000;" x="242.208787" xlink:href="#m8ac62e3fd1" y="106.088888"/>
     <use style="stroke:#000000;" x="249.312683" xlink:href="#m8ac62e3fd1" y="106.088888"/>
     <use style="stroke:#000000;" x="256.416579" xlink:href="#m8ac62e3fd1" y="109.483812"/>
     <use style="stroke:#000000;" x="263.520475" xlink:href="#m8ac62e3fd1" y="119.668585"/>
     <use style="stroke:#000000;" x="270.624371" xlink:href="#m8ac62e3fd1" y="140.03813"/>
     <use style="stroke:#000000;" x="277.728267" xlink:href="#m8ac62e3fd1" y="126.458433"/>
     <use style="stroke:#000000;" x="284.832163" xlink:href="#m8ac62e3fd1" y="140.03813"/>
     <use style="stroke:#000000;" x="291.936059" xlink:href="#m8ac62e3fd1" y="163.802599"/>
     <use style="stroke:#000000;" x="299.039955" xlink:href="#m8ac62e3fd1" y="177.382296"/>
     <use style="stroke:#000000;" x="306.143851" xlink:href="#m8ac62e3fd1" y="197.751841"/>
     <use style="stroke:#000000;" x="313.247748" xlink:href="#m8ac62e3fd1" y="201.146765"/>
     <use style="stroke:#000000;" x="320.351644" xlink:href="#m8ac62e3fd1" y="201.146765"/>
     <use style="stroke:#000000;" x="327.45554" xlink:href="#m8ac62e3fd1" y="150.222902"/>
     <use style="stroke:#000000;" x="334.559436" xlink:href="#m8ac62e3fd1" y="157.012751"/>
     <use style="stroke:#000000;" x="341.663332" xlink:href="#m8ac62e3fd1" y="197.751841"/>
     <use style="stroke:#000000;" x="348.767228" xlink:href="#m8ac62e3fd1" y="201.146765"/>
     <use style="stroke:#000000;" x="355.871124" xlink:href="#m8ac62e3fd1" y="201.146765"/>
     <use style="stroke:#000000;" x="362.97502" xlink:href="#m8ac62e3fd1" y="201.146765"/>
     <use style="stroke:#000000;" x="370.078916" xlink:href="#m8ac62e3fd1" y="204.541689"/>
     <use style="stroke:#000000;" x="377.182812" xlink:href="#m8ac62e3fd1" y="157.012751"/>
     <use style="stroke:#000000;" x="384.286709" xlink:href="#m8ac62e3fd1" y="167.197523"/>
     <use style="stroke:#000000;" x="391.390605" xlink:href="#m8ac62e3fd1" y="204.541689"/>
     <use style="stroke:#000000;" x="398.494501" xlink:href="#m8ac62e3fd1" y="204.541689"/>
     <use style="stroke:#000000;" x="405.598397" xlink:href="#m8ac62e3fd1" y="204.541689"/>
     <use style="stroke:#000000;" x="412.702293" xlink:href="#m8ac62e3fd1" y="207.936613"/>
     <use style="stroke:#000000;" x="419.806189" xlink:href="#m8ac62e3fd1" y="211.331537"/>
     <use style="stroke:#000000;" x="426.910085" xlink:href="#m8ac62e3fd1" y="160.407675"/>
     <use style="stroke:#000000;" x="434.013981" xlink:href="#m8ac62e3fd1" y="167.197523"/>
     <use style="stroke:#000000;" x="441.117877" xlink:href="#m8ac62e3fd1" y="228.306158"/>
     <use style="stroke:#000000;" x="448.221774" xlink:href="#m8ac62e3fd1" y="228.306158"/>
     <use style="stroke:#000000;" x="455.32567" xlink:href="#m8ac62e3fd1" y="231.701083"/>
     <use style="stroke:#000000;" x="462.429566" xlink:href="#m8ac62e3fd1" y="255.465552"/>
     <use style="stroke:#000000;" x="469.533462" xlink:href="#m8ac62e3fd1" y="377.682822"/>
     <use style="stroke:#000000;" x="476.637358" xlink:href="#m8ac62e3fd1" y="187.567068"/>
     <use style="stroke:#000000;" x="483.741254" xlink:href="#m8ac62e3fd1" y="187.567068"/>
     <use style="stroke:#000000;" x="490.84515" xlink:href="#m8ac62e3fd1" y="384.47267"/>
     <use style="stroke:#000000;" x="497.949046" xlink:href="#m8ac62e3fd1" y="211.331537"/>
     <use style="stroke:#000000;" x="505.052942" xlink:href="#m8ac62e3fd1" y="211.331537"/>
     <use style="stroke:#000000;" x="512.156838" xlink:href="#m8ac62e3fd1" y="211.331537"/>
     <use style="stroke:#000000;" x="519.260735" xlink:href="#m8ac62e3fd1" y="214.726462"/>
     <use style="stroke:#000000;" x="526.364631" xlink:href="#m8ac62e3fd1" y="146.827978"/>
     <use style="stroke:#000000;" x="533.468527" xlink:href="#m8ac62e3fd1" y="150.222902"/>
     <use style="stroke:#000000;" x="540.572423" xlink:href="#m8ac62e3fd1" y="197.751841"/>
     <use style="stroke:#000000;" x="547.676319" xlink:href="#m8ac62e3fd1" y="194.356917"/>
     <use style="stroke:#000000;" x="554.780215" xlink:href="#m8ac62e3fd1" y="190.961992"/>
     <use style="stroke:#000000;" x="561.884111" xlink:href="#m8ac62e3fd1" y="194.356917"/>
     <use style="stroke:#000000;" x="568.988007" xlink:href="#m8ac62e3fd1" y="197.751841"/>
     <use style="stroke:#000000;" x="576.091903" xlink:href="#m8ac62e3fd1" y="140.03813"/>
     <use style="stroke:#000000;" x="583.1958" xlink:href="#m8ac62e3fd1" y="143.433054"/>
     <use style="stroke:#000000;" x="590.299696" xlink:href="#m8ac62e3fd1" y="197.751841"/>
     <use style="stroke:#000000;" x="597.403592" xlink:href="#m8ac62e3fd1" y="194.356917"/>
     <use style="stroke:#000000;" x="604.507488" xlink:href="#m8ac62e3fd1" y="190.961992"/>
     <use style="stroke:#000000;" x="611.611384" xlink:href="#m8ac62e3fd1" y="218.121386"/>
     <use style="stroke:#000000;" x="618.71528" xlink:href="#m8ac62e3fd1" y="374.287898"/>
     <use style="stroke:#000000;" x="625.819176" xlink:href="#m8ac62e3fd1" y="146.827978"/>
     <use style="stroke:#000000;" x="632.923072" xlink:href="#m8ac62e3fd1" y="140.03813"/>
     <use style="stroke:#000000;" x="640.026968" xlink:href="#m8ac62e3fd1" y="194.356917"/>
     <use style="stroke:#000000;" x="647.130864" xlink:href="#m8ac62e3fd1" y="187.567068"/>
     <use style="stroke:#000000;" x="654.234761" xlink:href="#m8ac62e3fd1" y="187.567068"/>
     <use style="stroke:#000000;" x="661.338657" xlink:href="#m8ac62e3fd1" y="187.567068"/>
     <use style="stroke:#000000;" x="668.442553" xlink:href="#m8ac62e3fd1" y="190.961992"/>
     <use style="stroke:#000000;" x="675.546449" xlink:href="#m8ac62e3fd1" y="123.063509"/>
    </g>
   </g>
   <g id="line2d_28">
    <path clip-path="url(#pd52f2a1f16)" d="M 78.819176 99.815104 
L 85.923072 104.367049 
L 93.026968 145.743264 
L 100.130864 128.840022 
L 107.234761 127.286039 
L 114.338657 131.184556 
L 121.442553 156.649379 
L 128.546449 87.213398 
L 135.650345 93.071083 
L 142.754241 135.753188 
L 149.858137 120.155834 
L 156.962033 119.907651 
L 164.065929 125.111966 
L 171.169825 150.576937 
L 178.273722 81.141191 
L 185.377618 86.999111 
L 192.481514 129.681303 
L 199.58541 114.084039 
L 206.689306 113.835944 
L 213.793202 119.040349 
L 220.897098 144.506554 
L 228.000994 75.071953 
L 235.10489 80.93102 
L 242.208787 123.614358 
L 249.312683 108.018238 
L 256.416579 117.71441 
L 263.520475 132.863081 
L 270.624371 168.272408 
L 277.728267 108.781877 
L 284.832163 124.585014 
L 291.936059 177.212421 
L 299.039955 171.560371 
L 306.143851 181.25749 
L 313.247748 188.690667 
L 320.351644 216.3845 
L 327.45554 149.177528 
L 334.559436 157.262724 
L 341.663332 202.172191 
L 348.767228 188.8022 
L 355.871124 190.159966 
L 362.97502 196.970232 
L 370.078916 224.041137 
L 377.182812 156.211236 
L 384.286709 163.675002 
L 391.390605 207.963039 
L 398.494501 193.971617 
L 405.598397 195.329365 
L 412.702293 202.139612 
L 419.806189 229.210515 
L 426.910085 169.841223 
L 434.013981 185.765598 
L 441.117877 238.514245 
L 448.221774 232.984254 
L 455.32567 242.803432 
L 462.429566 258.075109 
L 469.533462 293.606745 
L 476.637358 234.237576 
L 483.741254 229.536697 
L 490.84515 261.660089 
L 497.949046 235.504022 
L 505.052942 224.695521 
L 512.156838 219.339518 
L 519.260735 234.244172 
L 526.364631 160.362817 
L 533.468527 161.77513 
L 540.572423 205.138855 
L 547.676319 190.223122 
L 554.780215 190.656559 
L 561.884111 196.542496 
L 568.988007 222.689088 
L 576.091903 153.934876 
L 583.1958 160.474331 
L 590.299696 203.838057 
L 597.403592 188.922325 
L 604.507488 189.355762 
L 611.611384 195.241699 
L 618.71528 221.388292 
L 625.819176 152.63408 
L 632.923072 159.173534 
L 640.026968 202.53726 
L 647.130864 187.621528 
L 654.234761 188.054966 
L 661.338657 193.940903 
L 668.442553 220.087496 
L 675.546449 151.333283 
" style="fill:none;stroke:#0072b2;stroke-linecap:square;stroke-width:1.5;"/>
   </g>
   <g id="line2d_29">
    <path clip-path="url(#pd52f2a1f16)" d="M 78.819176 134.031333 
L 85.923072 131.857994 
L 93.026968 129.684656 
L 100.130864 127.511317 
L 107.234761 125.338069 
L 114.338657 123.164821 
L 121.442553 122.297223 
L 128.546449 121.429626 
L 135.650345 120.562029 
L 142.754241 119.694579 
L 149.858137 118.82713 
L 156.962033 117.95968 
L 164.065929 117.092231 
L 171.169825 116.224781 
L 178.273722 115.357419 
L 185.377618 114.490057 
L 192.481514 113.622695 
L 199.58541 112.755335 
L 206.689306 111.887974 
L 213.793202 111.020614 
L 220.897098 110.154398 
L 228.000994 109.288182 
L 235.10489 108.421965 
L 242.208787 107.555749 
L 249.312683 106.689533 
L 256.416579 115.76644 
L 263.520475 124.843346 
L 270.624371 133.920252 
L 277.728267 142.998106 
L 284.832163 152.075959 
L 291.936059 161.153813 
L 299.039955 170.231666 
L 306.143851 179.30952 
L 313.247748 180.670932 
L 320.351644 182.032344 
L 327.45554 183.393757 
L 334.559436 184.75367 
L 341.663332 186.113582 
L 348.767228 187.473495 
L 355.871124 188.211996 
L 362.97502 188.950497 
L 370.078916 189.688981 
L 377.182812 190.427464 
L 384.286709 191.165948 
L 391.390605 191.904431 
L 398.494501 192.642913 
L 405.598397 193.381395 
L 412.702293 194.119877 
L 419.806189 194.858359 
L 426.910085 204.057451 
L 434.013981 213.256544 
L 441.117877 222.455637 
L 448.221774 231.655549 
L 455.32567 240.855462 
L 462.429566 250.055374 
L 469.533462 259.254589 
L 476.637358 268.453805 
L 483.741254 257.027642 
L 490.84515 245.60148 
L 497.949046 234.175318 
L 505.052942 222.747551 
L 512.156838 211.319783 
L 519.260735 199.892016 
L 526.364631 194.579046 
L 533.468527 189.266075 
L 540.572423 189.080246 
L 547.676319 188.894418 
L 554.780215 188.708589 
L 561.884111 188.522761 
L 568.988007 188.336933 
L 576.091903 188.151104 
L 583.1958 187.965276 
L 590.299696 187.779448 
L 597.403592 187.59362 
L 604.507488 187.407792 
L 611.611384 187.221964 
L 618.71528 187.036136 
L 625.819176 186.850308 
L 632.923072 186.66448 
L 640.026968 186.478652 
L 647.130864 186.292824 
L 654.234761 186.106996 
L 661.338657 185.921168 
L 668.442553 185.73534 
L 675.546449 185.549512 
" style="fill:none;stroke:#0000ff;stroke-linecap:square;stroke-width:1.5;"/>
   </g>
   <g id="line2d_30">
    <path clip-path="url(#pd52f2a1f16)" d="M 114.338657 401.718125 
L 114.338657 22.318125 
" style="fill:none;stroke:#0000ff;stroke-dasharray:5.55,2.4;stroke-dashoffset:0;stroke-width:1.5;"/>
   </g>
   <g id="line2d_31">
    <path clip-path="url(#pd52f2a1f16)" d="M 249.312683 401.718125 
L 249.312683 22.318125 
" style="fill:none;stroke:#0000ff;stroke-dasharray:5.55,2.4;stroke-dashoffset:0;stroke-width:1.5;"/>
   </g>
   <g id="line2d_32">
    <path clip-path="url(#pd52f2a1f16)" d="M 306.143851 401.718125 
L 306.143851 22.318125 
" style="fill:none;stroke:#0000ff;stroke-dasharray:5.55,2.4;stroke-dashoffset:0;stroke-width:1.5;"/>
   </g>
   <g id="line2d_33">
    <path clip-path="url(#pd52f2a1f16)" d="M 348.767228 401.718125 
L 348.767228 22.318125 
" style="fill:none;stroke:#0000ff;stroke-dasharray:5.55,2.4;stroke-dashoffset:0;stroke-width:1.5;"/>
   </g>
   <g id="line2d_34">
    <path clip-path="url(#pd52f2a1f16)" d="M 419.806189 401.718125 
L 419.806189 22.318125 
" style="fill:none;stroke:#0000ff;stroke-dasharray:5.55,2.4;stroke-dashoffset:0;stroke-width:1.5;"/>
   </g>
   <g id="line2d_35">
    <path clip-path="url(#pd52f2a1f16)" d="M 476.637358 401.718125 
L 476.637358 22.318125 
" style="fill:none;stroke:#0000ff;stroke-dasharray:5.55,2.4;stroke-dashoffset:0;stroke-width:1.5;"/>
   </g>
   <g id="line2d_36">
    <path clip-path="url(#pd52f2a1f16)" d="M 519.260735 401.718125 
L 519.260735 22.318125 
" style="fill:none;stroke:#0000ff;stroke-dasharray:5.55,2.4;stroke-dashoffset:0;stroke-width:1.5;"/>
   </g>
   <g id="line2d_37">
    <path clip-path="url(#pd52f2a1f16)" d="M 533.468527 401.718125 
L 533.468527 22.318125 
" style="fill:none;stroke:#0000ff;stroke-dasharray:5.55,2.4;stroke-dashoffset:0;stroke-width:1.5;"/>
   </g>
   <g id="line2d_38">
    <path clip-path="url(#pd52f2a1f16)" d="M 249.312683 401.718125 
L 249.312683 22.318125 
" style="fill:none;stroke:#ff0000;stroke-linecap:square;stroke-width:3;"/>
   </g>
   <g id="patch_3">
    <path d="M 48.982813 401.718125 
L 48.982813 22.318125 
" style="fill:none;stroke:#000000;stroke-linecap:square;stroke-linejoin:miter;stroke-width:0.8;"/>
   </g>
   <g id="patch_4">
    <path d="M 705.382812 401.718125 
L 705.382812 22.318125 
" style="fill:none;stroke:#000000;stroke-linecap:square;stroke-linejoin:miter;stroke-width:0.8;"/>
   </g>
   <g id="patch_5">
    <path d="M 48.982813 401.718125 
L 705.382812 401.718125 
" style="fill:none;stroke:#000000;stroke-linecap:square;stroke-linejoin:miter;stroke-width:0.8;"/>
   </g>
   <g id="patch_6">
    <path d="M 48.982813 22.318125 
L 705.382812 22.318125 
" style="fill:none;stroke:#000000;stroke-linecap:square;stroke-linejoin:miter;stroke-width:0.8;"/>
   </g>
   <g id="text_16">
    <!-- Workplace Mobility Graph for Sweden -->
    <defs>
     <path d="M 59.515625 10.40625 
L 59.515625 29.984375 
L 43.40625 29.984375 
L 43.40625 38.09375 
L 69.28125 38.09375 
L 69.28125 6.78125 
Q 63.578125 2.734375 56.6875 0.65625 
Q 49.8125 -1.421875 42 -1.421875 
Q 24.90625 -1.421875 15.25 8.5625 
Q 5.609375 18.5625 5.609375 36.375 
Q 5.609375 54.25 15.25 64.234375 
Q 24.90625 74.21875 42 74.21875 
Q 49.125 74.21875 55.546875 72.453125 
Q 61.96875 70.703125 67.390625 67.28125 
L 67.390625 56.78125 
Q 61.921875 61.421875 55.765625 63.765625 
Q 49.609375 66.109375 42.828125 66.109375 
Q 29.4375 66.109375 22.71875 58.640625 
Q 16.015625 51.171875 16.015625 36.375 
Q 16.015625 21.625 22.71875 14.15625 
Q 29.4375 6.6875 42.828125 6.6875 
Q 48.046875 6.6875 52.140625 7.59375 
Q 56.25 8.5 59.515625 10.40625 
z
" id="DejaVuSans-71"/>
     <path d="M 54.890625 33.015625 
L 54.890625 0 
L 45.90625 0 
L 45.90625 32.71875 
Q 45.90625 40.484375 42.875 44.328125 
Q 39.84375 48.1875 33.796875 48.1875 
Q 26.515625 48.1875 22.3125 43.546875 
Q 18.109375 38.921875 18.109375 30.90625 
L 18.109375 0 
L 9.078125 0 
L 9.078125 75.984375 
L 18.109375 75.984375 
L 18.109375 46.1875 
Q 21.34375 51.125 25.703125 53.5625 
Q 30.078125 56 35.796875 56 
Q 45.21875 56 50.046875 50.171875 
Q 54.890625 44.34375 54.890625 33.015625 
z
" id="DejaVuSans-104"/>
     <path d="M 37.109375 75.984375 
L 37.109375 68.5 
L 28.515625 68.5 
Q 23.6875 68.5 21.796875 66.546875 
Q 19.921875 64.59375 19.921875 59.515625 
L 19.921875 54.6875 
L 34.71875 54.6875 
L 34.71875 47.703125 
L 19.921875 47.703125 
L 19.921875 0 
L 10.890625 0 
L 10.890625 47.703125 
L 2.296875 47.703125 
L 2.296875 54.6875 
L 10.890625 54.6875 
L 10.890625 58.5 
Q 10.890625 67.625 15.140625 71.796875 
Q 19.390625 75.984375 28.609375 75.984375 
z
" id="DejaVuSans-102"/>
     <path d="M 53.515625 70.515625 
L 53.515625 60.890625 
Q 47.90625 63.578125 42.921875 64.890625 
Q 37.9375 66.21875 33.296875 66.21875 
Q 25.25 66.21875 20.875 63.09375 
Q 16.5 59.96875 16.5 54.203125 
Q 16.5 49.359375 19.40625 46.890625 
Q 22.3125 44.4375 30.421875 42.921875 
L 36.375 41.703125 
Q 47.40625 39.59375 52.65625 34.296875 
Q 57.90625 29 57.90625 20.125 
Q 57.90625 9.515625 50.796875 4.046875 
Q 43.703125 -1.421875 29.984375 -1.421875 
Q 24.8125 -1.421875 18.96875 -0.25 
Q 13.140625 0.921875 6.890625 3.21875 
L 6.890625 13.375 
Q 12.890625 10.015625 18.65625 8.296875 
Q 24.421875 6.59375 29.984375 6.59375 
Q 38.421875 6.59375 43.015625 9.90625 
Q 47.609375 13.234375 47.609375 19.390625 
Q 47.609375 24.75 44.3125 27.78125 
Q 41.015625 30.8125 33.5 32.328125 
L 27.484375 33.5 
Q 16.453125 35.6875 11.515625 40.375 
Q 6.59375 45.0625 6.59375 53.421875 
Q 6.59375 63.09375 13.40625 68.65625 
Q 20.21875 74.21875 32.171875 74.21875 
Q 37.3125 74.21875 42.625 73.28125 
Q 47.953125 72.359375 53.515625 70.515625 
z
" id="DejaVuSans-83"/>
     <path d="M 4.203125 54.6875 
L 13.1875 54.6875 
L 24.421875 12.015625 
L 35.59375 54.6875 
L 46.1875 54.6875 
L 57.421875 12.015625 
L 68.609375 54.6875 
L 77.59375 54.6875 
L 63.28125 0 
L 52.6875 0 
L 40.921875 44.828125 
L 29.109375 0 
L 18.5 0 
z
" id="DejaVuSans-119"/>
     <path d="M 45.40625 46.390625 
L 45.40625 75.984375 
L 54.390625 75.984375 
L 54.390625 0 
L 45.40625 0 
L 45.40625 8.203125 
Q 42.578125 3.328125 38.25 0.953125 
Q 33.9375 -1.421875 27.875 -1.421875 
Q 17.96875 -1.421875 11.734375 6.484375 
Q 5.515625 14.40625 5.515625 27.296875 
Q 5.515625 40.1875 11.734375 48.09375 
Q 17.96875 56 27.875 56 
Q 33.9375 56 38.25 53.625 
Q 42.578125 51.265625 45.40625 46.390625 
z
M 14.796875 27.296875 
Q 14.796875 17.390625 18.875 11.75 
Q 22.953125 6.109375 30.078125 6.109375 
Q 37.203125 6.109375 41.296875 11.75 
Q 45.40625 17.390625 45.40625 27.296875 
Q 45.40625 37.203125 41.296875 42.84375 
Q 37.203125 48.484375 30.078125 48.484375 
Q 22.953125 48.484375 18.875 42.84375 
Q 14.796875 37.203125 14.796875 27.296875 
z
" id="DejaVuSans-100"/>
     <path d="M 54.890625 33.015625 
L 54.890625 0 
L 45.90625 0 
L 45.90625 32.71875 
Q 45.90625 40.484375 42.875 44.328125 
Q 39.84375 48.1875 33.796875 48.1875 
Q 26.515625 48.1875 22.3125 43.546875 
Q 18.109375 38.921875 18.109375 30.90625 
L 18.109375 0 
L 9.078125 0 
L 9.078125 54.6875 
L 18.109375 54.6875 
L 18.109375 46.1875 
Q 21.34375 51.125 25.703125 53.5625 
Q 30.078125 56 35.796875 56 
Q 45.21875 56 50.046875 50.171875 
Q 54.890625 44.34375 54.890625 33.015625 
z
" id="DejaVuSans-110"/>
    </defs>
    <g transform="translate(264.292813 16.318125)scale(0.12 -0.12)">
     <use xlink:href="#DejaVuSans-87"/>
     <use x="93.001953" xlink:href="#DejaVuSans-111"/>
     <use x="154.183594" xlink:href="#DejaVuSans-114"/>
     <use x="195.296875" xlink:href="#DejaVuSans-107"/>
     <use x="253.207031" xlink:href="#DejaVuSans-112"/>
     <use x="316.683594" xlink:href="#DejaVuSans-108"/>
     <use x="344.466797" xlink:href="#DejaVuSans-97"/>
     <use x="405.746094" xlink:href="#DejaVuSans-99"/>
     <use x="460.726562" xlink:href="#DejaVuSans-101"/>
     <use x="522.25" xlink:href="#DejaVuSans-32"/>
     <use x="554.037109" xlink:href="#DejaVuSans-77"/>
     <use x="640.316406" xlink:href="#DejaVuSans-111"/>
     <use x="701.498047" xlink:href="#DejaVuSans-98"/>
     <use x="764.974609" xlink:href="#DejaVuSans-105"/>
     <use x="792.757812" xlink:href="#DejaVuSans-108"/>
     <use x="820.541016" xlink:href="#DejaVuSans-105"/>
     <use x="848.324219" xlink:href="#DejaVuSans-116"/>
     <use x="887.533203" xlink:href="#DejaVuSans-121"/>
     <use x="946.712891" xlink:href="#DejaVuSans-32"/>
     <use x="978.5" xlink:href="#DejaVuSans-71"/>
     <use x="1055.990234" xlink:href="#DejaVuSans-114"/>
     <use x="1097.103516" xlink:href="#DejaVuSans-97"/>
     <use x="1158.382812" xlink:href="#DejaVuSans-112"/>
     <use x="1221.859375" xlink:href="#DejaVuSans-104"/>
     <use x="1285.238281" xlink:href="#DejaVuSans-32"/>
     <use x="1317.025391" xlink:href="#DejaVuSans-102"/>
     <use x="1352.230469" xlink:href="#DejaVuSans-111"/>
     <use x="1413.412109" xlink:href="#DejaVuSans-114"/>
     <use x="1454.525391" xlink:href="#DejaVuSans-32"/>
     <use x="1486.3125" xlink:href="#DejaVuSans-83"/>
     <use x="1549.789062" xlink:href="#DejaVuSans-119"/>
     <use x="1631.576172" xlink:href="#DejaVuSans-101"/>
     <use x="1693.099609" xlink:href="#DejaVuSans-100"/>
     <use x="1756.576172" xlink:href="#DejaVuSans-101"/>
     <use x="1818.099609" xlink:href="#DejaVuSans-110"/>
    </g>
   </g>
   <g id="legend_1">
    <g id="patch_7">
     <path d="M 543.907812 44.99625 
L 698.382812 44.99625 
Q 700.382812 44.99625 700.382812 42.99625 
L 700.382812 29.318125 
Q 700.382812 27.318125 698.382812 27.318125 
L 543.907812 27.318125 
Q 541.907812 27.318125 541.907812 29.318125 
L 541.907812 42.99625 
Q 541.907812 44.99625 543.907812 44.99625 
z
" style="fill:#ffffff;opacity:0.8;stroke:#cccccc;stroke-linejoin:miter;"/>
    </g>
    <g id="line2d_39">
     <path d="M 545.907812 35.416562 
L 565.907812 35.416562 
" style="fill:none;stroke:#ff0000;stroke-linecap:square;stroke-width:3;"/>
    </g>
    <g id="line2d_40"/>
    <g id="text_17">
     <!-- Effective Lockdown date -->
     <defs>
      <path d="M 9.8125 72.90625 
L 55.90625 72.90625 
L 55.90625 64.59375 
L 19.671875 64.59375 
L 19.671875 43.015625 
L 54.390625 43.015625 
L 54.390625 34.71875 
L 19.671875 34.71875 
L 19.671875 8.296875 
L 56.78125 8.296875 
L 56.78125 0 
L 9.8125 0 
z
" id="DejaVuSans-69"/>
      <path d="M 2.984375 54.6875 
L 12.5 54.6875 
L 29.59375 8.796875 
L 46.6875 54.6875 
L 56.203125 54.6875 
L 35.6875 0 
L 23.484375 0 
z
" id="DejaVuSans-118"/>
      <path d="M 9.8125 72.90625 
L 19.671875 72.90625 
L 19.671875 8.296875 
L 55.171875 8.296875 
L 55.171875 0 
L 9.8125 0 
z
" id="DejaVuSans-76"/>
     </defs>
     <g transform="translate(573.907812 38.916562)scale(0.1 -0.1)">
      <use xlink:href="#DejaVuSans-69"/>
      <use x="63.183594" xlink:href="#DejaVuSans-102"/>
      <use x="98.388672" xlink:href="#DejaVuSans-102"/>
      <use x="133.59375" xlink:href="#DejaVuSans-101"/>
      <use x="195.117188" xlink:href="#DejaVuSans-99"/>
      <use x="250.097656" xlink:href="#DejaVuSans-116"/>
      <use x="289.306641" xlink:href="#DejaVuSans-105"/>
      <use x="317.089844" xlink:href="#DejaVuSans-118"/>
      <use x="376.269531" xlink:href="#DejaVuSans-101"/>
      <use x="437.792969" xlink:href="#DejaVuSans-32"/>
      <use x="469.580078" xlink:href="#DejaVuSans-76"/>
      <use x="523.542969" xlink:href="#DejaVuSans-111"/>
      <use x="584.724609" xlink:href="#DejaVuSans-99"/>
      <use x="639.705078" xlink:href="#DejaVuSans-107"/>
      <use x="697.615234" xlink:href="#DejaVuSans-100"/>
      <use x="761.091797" xlink:href="#DejaVuSans-111"/>
      <use x="822.273438" xlink:href="#DejaVuSans-119"/>
      <use x="904.060547" xlink:href="#DejaVuSans-110"/>
      <use x="967.439453" xlink:href="#DejaVuSans-32"/>
      <use x="999.226562" xlink:href="#DejaVuSans-100"/>
      <use x="1062.703125" xlink:href="#DejaVuSans-97"/>
      <use x="1123.982422" xlink:href="#DejaVuSans-116"/>
      <use x="1163.191406" xlink:href="#DejaVuSans-101"/>
     </g>
    </g>
   </g>
  </g>
 </g>
 <defs>
  <clipPath id="pd52f2a1f16">
   <rect height="379.4" width="656.4" x="48.982813" y="22.318125"/>
  </clipPath>
 </defs>
</svg>
