<?xml version="1.0" encoding="utf-8" standalone="no"?>
<!DOCTYPE svg PUBLIC "-//W3C//DTD SVG 1.1//EN"
  "http://www.w3.org/Graphics/SVG/1.1/DTD/svg11.dtd">
<!-- Created with matplotlib (https://matplotlib.org/) -->
<svg height="439.274375pt" version="1.1" viewBox="0 0 712.582813 439.274375" width="712.582813pt" xmlns="http://www.w3.org/2000/svg" xmlns:xlink="http://www.w3.org/1999/xlink">
 <defs>
  <style type="text/css">
*{stroke-linecap:butt;stroke-linejoin:round;}
  </style>
 </defs>
 <g id="figure_1">
  <g id="patch_1">
   <path d="M 0 439.274375 
L 712.582813 439.274375 
L 712.582813 0 
L 0 0 
z
" style="fill:#ffffff;"/>
  </g>
  <g id="axes_1">
   <g id="patch_2">
    <path d="M 48.982813 401.718125 
L 705.382812 401.718125 
L 705.382812 22.318125 
L 48.982813 22.318125 
z
" style="fill:#ffffff;"/>
   </g>
   <g id="PolyCollection_1">
    <defs>
     <path d="M 78.819176 -296.812886 
L 78.819176 -203.125057 
L 85.923072 -173.539788 
L 93.026968 -200.197802 
L 100.130864 -213.337041 
L 107.234761 -212.916122 
L 114.338657 -194.385929 
L 121.442553 -161.063558 
L 128.546449 -200.398084 
L 135.650345 -175.82041 
L 142.754241 -199.190877 
L 149.858137 -212.701303 
L 156.962033 -219.507481 
L 164.065929 -193.47982 
L 171.169825 -160.228769 
L 178.273722 -200.306174 
L 185.377618 -175.889714 
L 192.481514 -204.132834 
L 199.58541 -215.509848 
L 206.689306 -212.894567 
L 213.793202 -198.632508 
L 220.897098 -163.886034 
L 228.000994 -202.841576 
L 235.10489 -176.402332 
L 242.208787 -202.763399 
L 249.312683 -216.176551 
L 256.416579 -219.15067 
L 263.520475 -194.416169 
L 270.624371 -161.422421 
L 277.728267 -202.038168 
L 284.832163 -176.384659 
L 291.936059 -207.261817 
L 299.039955 -214.90303 
L 306.143851 -219.465862 
L 313.247748 -194.321447 
L 320.351644 -158.916739 
L 327.45554 -199.395197 
L 334.559436 -172.615204 
L 341.663332 -196.417642 
L 348.767228 -207.780966 
L 355.871124 -204.987545 
L 362.97502 -183.607452 
L 370.078916 -149.734779 
L 377.182812 -190.145406 
L 384.286709 -161.31037 
L 391.390605 -188.383679 
L 398.494501 -194.677785 
L 405.598397 -197.444216 
L 412.702293 -177.04578 
L 419.806189 -140.710016 
L 426.910085 -178.883178 
L 434.013981 -155.050482 
L 441.117877 -177.941491 
L 448.221774 -195.003755 
L 455.32567 -193.626178 
L 462.429566 -174.691798 
L 469.533462 -144.395026 
L 476.637358 -186.614805 
L 483.741254 -161.844067 
L 490.84515 -184.431504 
L 497.949046 -195.773083 
L 505.052942 -198.76454 
L 512.156838 -180.193653 
L 519.260735 -145.245187 
L 526.364631 -185.79751 
L 533.468527 -155.39961 
L 540.572423 -186.089607 
L 547.676319 -199.848685 
L 554.780215 -197.844229 
L 561.884111 -182.766599 
L 568.988007 -148.814298 
L 576.091903 -187.580202 
L 583.1958 -163.461601 
L 590.299696 -188.970929 
L 597.403592 -205.499304 
L 604.507488 -205.691051 
L 611.611384 -184.410675 
L 618.71528 -156.967893 
L 625.819176 -191.551763 
L 632.923072 -168.132902 
L 640.026968 -192.639936 
L 647.130864 -204.558402 
L 654.234761 -205.953106 
L 661.338657 -187.504212 
L 668.442553 -155.703528 
L 675.546449 -197.53072 
L 675.546449 -296.104274 
L 675.546449 -296.104274 
L 668.442553 -252.627837 
L 661.338657 -284.031876 
L 654.234761 -302.748206 
L 647.130864 -302.262459 
L 640.026968 -290.671535 
L 632.923072 -263.942343 
L 625.819176 -290.288808 
L 618.71528 -249.309585 
L 611.611384 -280.882501 
L 604.507488 -297.615416 
L 597.403592 -300.794894 
L 590.299696 -288.793657 
L 583.1958 -259.919429 
L 576.091903 -286.549691 
L 568.988007 -246.43787 
L 561.884111 -279.901575 
L 554.780215 -297.637659 
L 547.676319 -296.313507 
L 540.572423 -283.283228 
L 533.468527 -258.76167 
L 526.364631 -283.873324 
L 519.260735 -241.400478 
L 512.156838 -274.483995 
L 505.052942 -296.94208 
L 497.949046 -291.333655 
L 490.84515 -278.959283 
L 483.741254 -255.476092 
L 476.637358 -281.784543 
L 469.533462 -239.395491 
L 462.429566 -271.261744 
L 455.32567 -294.55845 
L 448.221774 -290.788785 
L 441.117877 -279.033037 
L 434.013981 -251.979979 
L 426.910085 -275.27823 
L 419.806189 -234.90997 
L 412.702293 -270.483192 
L 405.598397 -291.50247 
L 398.494501 -290.892749 
L 391.390605 -282.632477 
L 384.286709 -258.046903 
L 377.182812 -288.490402 
L 370.078916 -244.977659 
L 362.97502 -280.795239 
L 355.871124 -302.644642 
L 348.767228 -306.915049 
L 341.663332 -296.775083 
L 334.559436 -267.826162 
L 327.45554 -297.693612 
L 320.351644 -256.485011 
L 313.247748 -293.110438 
L 306.143851 -316.50126 
L 299.039955 -312.234064 
L 291.936059 -299.074603 
L 284.832163 -275.019081 
L 277.728267 -305.009393 
L 270.624371 -259.154502 
L 263.520475 -292.968817 
L 256.416579 -310.623421 
L 249.312683 -313.868472 
L 242.208787 -299.72945 
L 235.10489 -271.905764 
L 228.000994 -305.19201 
L 220.897098 -260.321743 
L 213.793202 -294.665117 
L 206.689306 -312.14779 
L 199.58541 -312.801399 
L 192.481514 -303.091788 
L 185.377618 -275.724735 
L 178.273722 -299.513566 
L 171.169825 -259.872998 
L 164.065929 -290.566349 
L 156.962033 -312.998709 
L 149.858137 -309.400359 
L 142.754241 -297.729878 
L 135.650345 -266.587288 
L 128.546449 -297.398628 
L 121.442553 -259.102973 
L 114.338657 -290.161483 
L 107.234761 -309.948271 
L 100.130864 -310.742612 
L 93.026968 -295.324643 
L 85.923072 -267.589499 
L 78.819176 -296.812886 
z
" id="m530d241e0c" style="stroke:#0072b2;stroke-opacity:0.2;"/>
    </defs>
    <g clip-path="url(#pf666bb84c4)">
     <use style="fill:#0072b2;fill-opacity:0.2;stroke:#0072b2;stroke-opacity:0.2;" x="0" xlink:href="#m530d241e0c" y="439.274375"/>
    </g>
   </g>
   <g id="matplotlib.axis_1">
    <g id="xtick_1">
     <g id="line2d_1">
      <path clip-path="url(#pf666bb84c4)" d="M 71.71528 401.718125 
L 71.71528 22.318125 
" style="fill:none;stroke:#808080;stroke-linecap:square;stroke-opacity:0.2;"/>
     </g>
     <g id="line2d_2">
      <defs>
       <path d="M 0 0 
L 0 3.5 
" id="m33ab13c0df" style="stroke:#000000;stroke-width:0.8;"/>
      </defs>
      <g>
       <use style="stroke:#000000;stroke-width:0.8;" x="71.71528" xlink:href="#m33ab13c0df" y="401.718125"/>
      </g>
     </g>
     <g id="text_1">
      <!-- 2020-02-14 -->
      <defs>
       <path d="M 19.1875 8.296875 
L 53.609375 8.296875 
L 53.609375 0 
L 7.328125 0 
L 7.328125 8.296875 
Q 12.9375 14.109375 22.625 23.890625 
Q 32.328125 33.6875 34.8125 36.53125 
Q 39.546875 41.84375 41.421875 45.53125 
Q 43.3125 49.21875 43.3125 52.78125 
Q 43.3125 58.59375 39.234375 62.25 
Q 35.15625 65.921875 28.609375 65.921875 
Q 23.96875 65.921875 18.8125 64.3125 
Q 13.671875 62.703125 7.8125 59.421875 
L 7.8125 69.390625 
Q 13.765625 71.78125 18.9375 73 
Q 24.125 74.21875 28.421875 74.21875 
Q 39.75 74.21875 46.484375 68.546875 
Q 53.21875 62.890625 53.21875 53.421875 
Q 53.21875 48.921875 51.53125 44.890625 
Q 49.859375 40.875 45.40625 35.40625 
Q 44.1875 33.984375 37.640625 27.21875 
Q 31.109375 20.453125 19.1875 8.296875 
z
" id="DejaVuSans-50"/>
       <path d="M 31.78125 66.40625 
Q 24.171875 66.40625 20.328125 58.90625 
Q 16.5 51.421875 16.5 36.375 
Q 16.5 21.390625 20.328125 13.890625 
Q 24.171875 6.390625 31.78125 6.390625 
Q 39.453125 6.390625 43.28125 13.890625 
Q 47.125 21.390625 47.125 36.375 
Q 47.125 51.421875 43.28125 58.90625 
Q 39.453125 66.40625 31.78125 66.40625 
z
M 31.78125 74.21875 
Q 44.046875 74.21875 50.515625 64.515625 
Q 56.984375 54.828125 56.984375 36.375 
Q 56.984375 17.96875 50.515625 8.265625 
Q 44.046875 -1.421875 31.78125 -1.421875 
Q 19.53125 -1.421875 13.0625 8.265625 
Q 6.59375 17.96875 6.59375 36.375 
Q 6.59375 54.828125 13.0625 64.515625 
Q 19.53125 74.21875 31.78125 74.21875 
z
" id="DejaVuSans-48"/>
       <path d="M 4.890625 31.390625 
L 31.203125 31.390625 
L 31.203125 23.390625 
L 4.890625 23.390625 
z
" id="DejaVuSans-45"/>
       <path d="M 12.40625 8.296875 
L 28.515625 8.296875 
L 28.515625 63.921875 
L 10.984375 60.40625 
L 10.984375 69.390625 
L 28.421875 72.90625 
L 38.28125 72.90625 
L 38.28125 8.296875 
L 54.390625 8.296875 
L 54.390625 0 
L 12.40625 0 
z
" id="DejaVuSans-49"/>
       <path d="M 37.796875 64.3125 
L 12.890625 25.390625 
L 37.796875 25.390625 
z
M 35.203125 72.90625 
L 47.609375 72.90625 
L 47.609375 25.390625 
L 58.015625 25.390625 
L 58.015625 17.1875 
L 47.609375 17.1875 
L 47.609375 0 
L 37.796875 0 
L 37.796875 17.1875 
L 4.890625 17.1875 
L 4.890625 26.703125 
z
" id="DejaVuSans-52"/>
      </defs>
      <g transform="translate(42.657468 416.316562)scale(0.1 -0.1)">
       <use xlink:href="#DejaVuSans-50"/>
       <use x="63.623047" xlink:href="#DejaVuSans-48"/>
       <use x="127.246094" xlink:href="#DejaVuSans-50"/>
       <use x="190.869141" xlink:href="#DejaVuSans-48"/>
       <use x="254.492188" xlink:href="#DejaVuSans-45"/>
       <use x="290.576172" xlink:href="#DejaVuSans-48"/>
       <use x="354.199219" xlink:href="#DejaVuSans-50"/>
       <use x="417.822266" xlink:href="#DejaVuSans-45"/>
       <use x="453.90625" xlink:href="#DejaVuSans-49"/>
       <use x="517.529297" xlink:href="#DejaVuSans-52"/>
      </g>
     </g>
    </g>
    <g id="xtick_2">
     <g id="line2d_3">
      <path clip-path="url(#pf666bb84c4)" d="M 171.169825 401.718125 
L 171.169825 22.318125 
" style="fill:none;stroke:#808080;stroke-linecap:square;stroke-opacity:0.2;"/>
     </g>
     <g id="line2d_4">
      <g>
       <use style="stroke:#000000;stroke-width:0.8;" x="171.169825" xlink:href="#m33ab13c0df" y="401.718125"/>
      </g>
     </g>
     <g id="text_2">
      <!-- 2020-02-28 -->
      <defs>
       <path d="M 31.78125 34.625 
Q 24.75 34.625 20.71875 30.859375 
Q 16.703125 27.09375 16.703125 20.515625 
Q 16.703125 13.921875 20.71875 10.15625 
Q 24.75 6.390625 31.78125 6.390625 
Q 38.8125 6.390625 42.859375 10.171875 
Q 46.921875 13.96875 46.921875 20.515625 
Q 46.921875 27.09375 42.890625 30.859375 
Q 38.875 34.625 31.78125 34.625 
z
M 21.921875 38.8125 
Q 15.578125 40.375 12.03125 44.71875 
Q 8.5 49.078125 8.5 55.328125 
Q 8.5 64.0625 14.71875 69.140625 
Q 20.953125 74.21875 31.78125 74.21875 
Q 42.671875 74.21875 48.875 69.140625 
Q 55.078125 64.0625 55.078125 55.328125 
Q 55.078125 49.078125 51.53125 44.71875 
Q 48 40.375 41.703125 38.8125 
Q 48.828125 37.15625 52.796875 32.3125 
Q 56.78125 27.484375 56.78125 20.515625 
Q 56.78125 9.90625 50.3125 4.234375 
Q 43.84375 -1.421875 31.78125 -1.421875 
Q 19.734375 -1.421875 13.25 4.234375 
Q 6.78125 9.90625 6.78125 20.515625 
Q 6.78125 27.484375 10.78125 32.3125 
Q 14.796875 37.15625 21.921875 38.8125 
z
M 18.3125 54.390625 
Q 18.3125 48.734375 21.84375 45.5625 
Q 25.390625 42.390625 31.78125 42.390625 
Q 38.140625 42.390625 41.71875 45.5625 
Q 45.3125 48.734375 45.3125 54.390625 
Q 45.3125 60.0625 41.71875 63.234375 
Q 38.140625 66.40625 31.78125 66.40625 
Q 25.390625 66.40625 21.84375 63.234375 
Q 18.3125 60.0625 18.3125 54.390625 
z
" id="DejaVuSans-56"/>
      </defs>
      <g transform="translate(142.112013 416.316562)scale(0.1 -0.1)">
       <use xlink:href="#DejaVuSans-50"/>
       <use x="63.623047" xlink:href="#DejaVuSans-48"/>
       <use x="127.246094" xlink:href="#DejaVuSans-50"/>
       <use x="190.869141" xlink:href="#DejaVuSans-48"/>
       <use x="254.492188" xlink:href="#DejaVuSans-45"/>
       <use x="290.576172" xlink:href="#DejaVuSans-48"/>
       <use x="354.199219" xlink:href="#DejaVuSans-50"/>
       <use x="417.822266" xlink:href="#DejaVuSans-45"/>
       <use x="453.90625" xlink:href="#DejaVuSans-50"/>
       <use x="517.529297" xlink:href="#DejaVuSans-56"/>
      </g>
     </g>
    </g>
    <g id="xtick_3">
     <g id="line2d_5">
      <path clip-path="url(#pf666bb84c4)" d="M 270.624371 401.718125 
L 270.624371 22.318125 
" style="fill:none;stroke:#808080;stroke-linecap:square;stroke-opacity:0.2;"/>
     </g>
     <g id="line2d_6">
      <g>
       <use style="stroke:#000000;stroke-width:0.8;" x="270.624371" xlink:href="#m33ab13c0df" y="401.718125"/>
      </g>
     </g>
     <g id="text_3">
      <!-- 2020-03-13 -->
      <defs>
       <path d="M 40.578125 39.3125 
Q 47.65625 37.796875 51.625 33 
Q 55.609375 28.21875 55.609375 21.1875 
Q 55.609375 10.40625 48.1875 4.484375 
Q 40.765625 -1.421875 27.09375 -1.421875 
Q 22.515625 -1.421875 17.65625 -0.515625 
Q 12.796875 0.390625 7.625 2.203125 
L 7.625 11.71875 
Q 11.71875 9.328125 16.59375 8.109375 
Q 21.484375 6.890625 26.8125 6.890625 
Q 36.078125 6.890625 40.9375 10.546875 
Q 45.796875 14.203125 45.796875 21.1875 
Q 45.796875 27.640625 41.28125 31.265625 
Q 36.765625 34.90625 28.71875 34.90625 
L 20.21875 34.90625 
L 20.21875 43.015625 
L 29.109375 43.015625 
Q 36.375 43.015625 40.234375 45.921875 
Q 44.09375 48.828125 44.09375 54.296875 
Q 44.09375 59.90625 40.109375 62.90625 
Q 36.140625 65.921875 28.71875 65.921875 
Q 24.65625 65.921875 20.015625 65.03125 
Q 15.375 64.15625 9.8125 62.3125 
L 9.8125 71.09375 
Q 15.4375 72.65625 20.34375 73.4375 
Q 25.25 74.21875 29.59375 74.21875 
Q 40.828125 74.21875 47.359375 69.109375 
Q 53.90625 64.015625 53.90625 55.328125 
Q 53.90625 49.265625 50.4375 45.09375 
Q 46.96875 40.921875 40.578125 39.3125 
z
" id="DejaVuSans-51"/>
      </defs>
      <g transform="translate(241.566558 416.316562)scale(0.1 -0.1)">
       <use xlink:href="#DejaVuSans-50"/>
       <use x="63.623047" xlink:href="#DejaVuSans-48"/>
       <use x="127.246094" xlink:href="#DejaVuSans-50"/>
       <use x="190.869141" xlink:href="#DejaVuSans-48"/>
       <use x="254.492188" xlink:href="#DejaVuSans-45"/>
       <use x="290.576172" xlink:href="#DejaVuSans-48"/>
       <use x="354.199219" xlink:href="#DejaVuSans-51"/>
       <use x="417.822266" xlink:href="#DejaVuSans-45"/>
       <use x="453.90625" xlink:href="#DejaVuSans-49"/>
       <use x="517.529297" xlink:href="#DejaVuSans-51"/>
      </g>
     </g>
    </g>
    <g id="xtick_4">
     <g id="line2d_7">
      <path clip-path="url(#pf666bb84c4)" d="M 370.078916 401.718125 
L 370.078916 22.318125 
" style="fill:none;stroke:#808080;stroke-linecap:square;stroke-opacity:0.2;"/>
     </g>
     <g id="line2d_8">
      <g>
       <use style="stroke:#000000;stroke-width:0.8;" x="370.078916" xlink:href="#m33ab13c0df" y="401.718125"/>
      </g>
     </g>
     <g id="text_4">
      <!-- 2020-03-27 -->
      <defs>
       <path d="M 8.203125 72.90625 
L 55.078125 72.90625 
L 55.078125 68.703125 
L 28.609375 0 
L 18.3125 0 
L 43.21875 64.59375 
L 8.203125 64.59375 
z
" id="DejaVuSans-55"/>
      </defs>
      <g transform="translate(341.021104 416.316562)scale(0.1 -0.1)">
       <use xlink:href="#DejaVuSans-50"/>
       <use x="63.623047" xlink:href="#DejaVuSans-48"/>
       <use x="127.246094" xlink:href="#DejaVuSans-50"/>
       <use x="190.869141" xlink:href="#DejaVuSans-48"/>
       <use x="254.492188" xlink:href="#DejaVuSans-45"/>
       <use x="290.576172" xlink:href="#DejaVuSans-48"/>
       <use x="354.199219" xlink:href="#DejaVuSans-51"/>
       <use x="417.822266" xlink:href="#DejaVuSans-45"/>
       <use x="453.90625" xlink:href="#DejaVuSans-50"/>
       <use x="517.529297" xlink:href="#DejaVuSans-55"/>
      </g>
     </g>
    </g>
    <g id="xtick_5">
     <g id="line2d_9">
      <path clip-path="url(#pf666bb84c4)" d="M 469.533462 401.718125 
L 469.533462 22.318125 
" style="fill:none;stroke:#808080;stroke-linecap:square;stroke-opacity:0.2;"/>
     </g>
     <g id="line2d_10">
      <g>
       <use style="stroke:#000000;stroke-width:0.8;" x="469.533462" xlink:href="#m33ab13c0df" y="401.718125"/>
      </g>
     </g>
     <g id="text_5">
      <!-- 2020-04-10 -->
      <g transform="translate(440.475649 416.316562)scale(0.1 -0.1)">
       <use xlink:href="#DejaVuSans-50"/>
       <use x="63.623047" xlink:href="#DejaVuSans-48"/>
       <use x="127.246094" xlink:href="#DejaVuSans-50"/>
       <use x="190.869141" xlink:href="#DejaVuSans-48"/>
       <use x="254.492188" xlink:href="#DejaVuSans-45"/>
       <use x="290.576172" xlink:href="#DejaVuSans-48"/>
       <use x="354.199219" xlink:href="#DejaVuSans-52"/>
       <use x="417.822266" xlink:href="#DejaVuSans-45"/>
       <use x="453.90625" xlink:href="#DejaVuSans-49"/>
       <use x="517.529297" xlink:href="#DejaVuSans-48"/>
      </g>
     </g>
    </g>
    <g id="xtick_6">
     <g id="line2d_11">
      <path clip-path="url(#pf666bb84c4)" d="M 568.988007 401.718125 
L 568.988007 22.318125 
" style="fill:none;stroke:#808080;stroke-linecap:square;stroke-opacity:0.2;"/>
     </g>
     <g id="line2d_12">
      <g>
       <use style="stroke:#000000;stroke-width:0.8;" x="568.988007" xlink:href="#m33ab13c0df" y="401.718125"/>
      </g>
     </g>
     <g id="text_6">
      <!-- 2020-04-24 -->
      <g transform="translate(539.930195 416.316562)scale(0.1 -0.1)">
       <use xlink:href="#DejaVuSans-50"/>
       <use x="63.623047" xlink:href="#DejaVuSans-48"/>
       <use x="127.246094" xlink:href="#DejaVuSans-50"/>
       <use x="190.869141" xlink:href="#DejaVuSans-48"/>
       <use x="254.492188" xlink:href="#DejaVuSans-45"/>
       <use x="290.576172" xlink:href="#DejaVuSans-48"/>
       <use x="354.199219" xlink:href="#DejaVuSans-52"/>
       <use x="417.822266" xlink:href="#DejaVuSans-45"/>
       <use x="453.90625" xlink:href="#DejaVuSans-50"/>
       <use x="517.529297" xlink:href="#DejaVuSans-52"/>
      </g>
     </g>
    </g>
    <g id="xtick_7">
     <g id="line2d_13">
      <path clip-path="url(#pf666bb84c4)" d="M 668.442553 401.718125 
L 668.442553 22.318125 
" style="fill:none;stroke:#808080;stroke-linecap:square;stroke-opacity:0.2;"/>
     </g>
     <g id="line2d_14">
      <g>
       <use style="stroke:#000000;stroke-width:0.8;" x="668.442553" xlink:href="#m33ab13c0df" y="401.718125"/>
      </g>
     </g>
     <g id="text_7">
      <!-- 2020-05-08 -->
      <defs>
       <path d="M 10.796875 72.90625 
L 49.515625 72.90625 
L 49.515625 64.59375 
L 19.828125 64.59375 
L 19.828125 46.734375 
Q 21.96875 47.46875 24.109375 47.828125 
Q 26.265625 48.1875 28.421875 48.1875 
Q 40.625 48.1875 47.75 41.5 
Q 54.890625 34.8125 54.890625 23.390625 
Q 54.890625 11.625 47.5625 5.09375 
Q 40.234375 -1.421875 26.90625 -1.421875 
Q 22.3125 -1.421875 17.546875 -0.640625 
Q 12.796875 0.140625 7.71875 1.703125 
L 7.71875 11.625 
Q 12.109375 9.234375 16.796875 8.0625 
Q 21.484375 6.890625 26.703125 6.890625 
Q 35.15625 6.890625 40.078125 11.328125 
Q 45.015625 15.765625 45.015625 23.390625 
Q 45.015625 31 40.078125 35.4375 
Q 35.15625 39.890625 26.703125 39.890625 
Q 22.75 39.890625 18.8125 39.015625 
Q 14.890625 38.140625 10.796875 36.28125 
z
" id="DejaVuSans-53"/>
      </defs>
      <g transform="translate(639.38474 416.316562)scale(0.1 -0.1)">
       <use xlink:href="#DejaVuSans-50"/>
       <use x="63.623047" xlink:href="#DejaVuSans-48"/>
       <use x="127.246094" xlink:href="#DejaVuSans-50"/>
       <use x="190.869141" xlink:href="#DejaVuSans-48"/>
       <use x="254.492188" xlink:href="#DejaVuSans-45"/>
       <use x="290.576172" xlink:href="#DejaVuSans-48"/>
       <use x="354.199219" xlink:href="#DejaVuSans-53"/>
       <use x="417.822266" xlink:href="#DejaVuSans-45"/>
       <use x="453.90625" xlink:href="#DejaVuSans-48"/>
       <use x="517.529297" xlink:href="#DejaVuSans-56"/>
      </g>
     </g>
    </g>
    <g id="text_8">
     <!-- Date -->
     <defs>
      <path d="M 19.671875 64.796875 
L 19.671875 8.109375 
L 31.59375 8.109375 
Q 46.6875 8.109375 53.6875 14.9375 
Q 60.6875 21.78125 60.6875 36.53125 
Q 60.6875 51.171875 53.6875 57.984375 
Q 46.6875 64.796875 31.59375 64.796875 
z
M 9.8125 72.90625 
L 30.078125 72.90625 
Q 51.265625 72.90625 61.171875 64.09375 
Q 71.09375 55.28125 71.09375 36.53125 
Q 71.09375 17.671875 61.125 8.828125 
Q 51.171875 0 30.078125 0 
L 9.8125 0 
z
" id="DejaVuSans-68"/>
      <path d="M 34.28125 27.484375 
Q 23.390625 27.484375 19.1875 25 
Q 14.984375 22.515625 14.984375 16.5 
Q 14.984375 11.71875 18.140625 8.90625 
Q 21.296875 6.109375 26.703125 6.109375 
Q 34.1875 6.109375 38.703125 11.40625 
Q 43.21875 16.703125 43.21875 25.484375 
L 43.21875 27.484375 
z
M 52.203125 31.203125 
L 52.203125 0 
L 43.21875 0 
L 43.21875 8.296875 
Q 40.140625 3.328125 35.546875 0.953125 
Q 30.953125 -1.421875 24.3125 -1.421875 
Q 15.921875 -1.421875 10.953125 3.296875 
Q 6 8.015625 6 15.921875 
Q 6 25.140625 12.171875 29.828125 
Q 18.359375 34.515625 30.609375 34.515625 
L 43.21875 34.515625 
L 43.21875 35.40625 
Q 43.21875 41.609375 39.140625 45 
Q 35.0625 48.390625 27.6875 48.390625 
Q 23 48.390625 18.546875 47.265625 
Q 14.109375 46.140625 10.015625 43.890625 
L 10.015625 52.203125 
Q 14.9375 54.109375 19.578125 55.046875 
Q 24.21875 56 28.609375 56 
Q 40.484375 56 46.34375 49.84375 
Q 52.203125 43.703125 52.203125 31.203125 
z
" id="DejaVuSans-97"/>
      <path d="M 18.3125 70.21875 
L 18.3125 54.6875 
L 36.8125 54.6875 
L 36.8125 47.703125 
L 18.3125 47.703125 
L 18.3125 18.015625 
Q 18.3125 11.328125 20.140625 9.421875 
Q 21.96875 7.515625 27.59375 7.515625 
L 36.8125 7.515625 
L 36.8125 0 
L 27.59375 0 
Q 17.1875 0 13.234375 3.875 
Q 9.28125 7.765625 9.28125 18.015625 
L 9.28125 47.703125 
L 2.6875 47.703125 
L 2.6875 54.6875 
L 9.28125 54.6875 
L 9.28125 70.21875 
z
" id="DejaVuSans-116"/>
      <path d="M 56.203125 29.59375 
L 56.203125 25.203125 
L 14.890625 25.203125 
Q 15.484375 15.921875 20.484375 11.0625 
Q 25.484375 6.203125 34.421875 6.203125 
Q 39.59375 6.203125 44.453125 7.46875 
Q 49.3125 8.734375 54.109375 11.28125 
L 54.109375 2.78125 
Q 49.265625 0.734375 44.1875 -0.34375 
Q 39.109375 -1.421875 33.890625 -1.421875 
Q 20.796875 -1.421875 13.15625 6.1875 
Q 5.515625 13.8125 5.515625 26.8125 
Q 5.515625 40.234375 12.765625 48.109375 
Q 20.015625 56 32.328125 56 
Q 43.359375 56 49.78125 48.890625 
Q 56.203125 41.796875 56.203125 29.59375 
z
M 47.21875 32.234375 
Q 47.125 39.59375 43.09375 43.984375 
Q 39.0625 48.390625 32.421875 48.390625 
Q 24.90625 48.390625 20.390625 44.140625 
Q 15.875 39.890625 15.1875 32.171875 
z
" id="DejaVuSans-101"/>
     </defs>
     <g transform="translate(365.232031 429.994687)scale(0.1 -0.1)">
      <use xlink:href="#DejaVuSans-68"/>
      <use x="77.001953" xlink:href="#DejaVuSans-97"/>
      <use x="138.28125" xlink:href="#DejaVuSans-116"/>
      <use x="177.490234" xlink:href="#DejaVuSans-101"/>
     </g>
    </g>
   </g>
   <g id="matplotlib.axis_2">
    <g id="ytick_1">
     <g id="line2d_15">
      <path clip-path="url(#pf666bb84c4)" d="M 48.982813 400.009116 
L 705.382812 400.009116 
" style="fill:none;stroke:#808080;stroke-linecap:square;stroke-opacity:0.2;"/>
     </g>
     <g id="line2d_16">
      <defs>
       <path d="M 0 0 
L -3.5 0 
" id="mb19cce25d8" style="stroke:#000000;stroke-width:0.8;"/>
      </defs>
      <g>
       <use style="stroke:#000000;stroke-width:0.8;" x="48.982813" xlink:href="#mb19cce25d8" y="400.009116"/>
      </g>
     </g>
     <g id="text_9">
      <!-- −60 -->
      <defs>
       <path d="M 10.59375 35.5 
L 73.1875 35.5 
L 73.1875 27.203125 
L 10.59375 27.203125 
z
" id="DejaVuSans-8722"/>
       <path d="M 33.015625 40.375 
Q 26.375 40.375 22.484375 35.828125 
Q 18.609375 31.296875 18.609375 23.390625 
Q 18.609375 15.53125 22.484375 10.953125 
Q 26.375 6.390625 33.015625 6.390625 
Q 39.65625 6.390625 43.53125 10.953125 
Q 47.40625 15.53125 47.40625 23.390625 
Q 47.40625 31.296875 43.53125 35.828125 
Q 39.65625 40.375 33.015625 40.375 
z
M 52.59375 71.296875 
L 52.59375 62.3125 
Q 48.875 64.0625 45.09375 64.984375 
Q 41.3125 65.921875 37.59375 65.921875 
Q 27.828125 65.921875 22.671875 59.328125 
Q 17.53125 52.734375 16.796875 39.40625 
Q 19.671875 43.65625 24.015625 45.921875 
Q 28.375 48.1875 33.59375 48.1875 
Q 44.578125 48.1875 50.953125 41.515625 
Q 57.328125 34.859375 57.328125 23.390625 
Q 57.328125 12.15625 50.6875 5.359375 
Q 44.046875 -1.421875 33.015625 -1.421875 
Q 20.359375 -1.421875 13.671875 8.265625 
Q 6.984375 17.96875 6.984375 36.375 
Q 6.984375 53.65625 15.1875 63.9375 
Q 23.390625 74.21875 37.203125 74.21875 
Q 40.921875 74.21875 44.703125 73.484375 
Q 48.484375 72.75 52.59375 71.296875 
z
" id="DejaVuSans-54"/>
      </defs>
      <g transform="translate(20.878125 403.808335)scale(0.1 -0.1)">
       <use xlink:href="#DejaVuSans-8722"/>
       <use x="83.789062" xlink:href="#DejaVuSans-54"/>
       <use x="147.412109" xlink:href="#DejaVuSans-48"/>
      </g>
     </g>
    </g>
    <g id="ytick_2">
     <g id="line2d_17">
      <path clip-path="url(#pf666bb84c4)" d="M 48.982813 337.863334 
L 705.382812 337.863334 
" style="fill:none;stroke:#808080;stroke-linecap:square;stroke-opacity:0.2;"/>
     </g>
     <g id="line2d_18">
      <g>
       <use style="stroke:#000000;stroke-width:0.8;" x="48.982813" xlink:href="#mb19cce25d8" y="337.863334"/>
      </g>
     </g>
     <g id="text_10">
      <!-- −40 -->
      <g transform="translate(20.878125 341.662553)scale(0.1 -0.1)">
       <use xlink:href="#DejaVuSans-8722"/>
       <use x="83.789062" xlink:href="#DejaVuSans-52"/>
       <use x="147.412109" xlink:href="#DejaVuSans-48"/>
      </g>
     </g>
    </g>
    <g id="ytick_3">
     <g id="line2d_19">
      <path clip-path="url(#pf666bb84c4)" d="M 48.982813 275.717552 
L 705.382812 275.717552 
" style="fill:none;stroke:#808080;stroke-linecap:square;stroke-opacity:0.2;"/>
     </g>
     <g id="line2d_20">
      <g>
       <use style="stroke:#000000;stroke-width:0.8;" x="48.982813" xlink:href="#mb19cce25d8" y="275.717552"/>
      </g>
     </g>
     <g id="text_11">
      <!-- −20 -->
      <g transform="translate(20.878125 279.51677)scale(0.1 -0.1)">
       <use xlink:href="#DejaVuSans-8722"/>
       <use x="83.789062" xlink:href="#DejaVuSans-50"/>
       <use x="147.412109" xlink:href="#DejaVuSans-48"/>
      </g>
     </g>
    </g>
    <g id="ytick_4">
     <g id="line2d_21">
      <path clip-path="url(#pf666bb84c4)" d="M 48.982813 213.57177 
L 705.382812 213.57177 
" style="fill:none;stroke:#808080;stroke-linecap:square;stroke-opacity:0.2;"/>
     </g>
     <g id="line2d_22">
      <g>
       <use style="stroke:#000000;stroke-width:0.8;" x="48.982813" xlink:href="#mb19cce25d8" y="213.57177"/>
      </g>
     </g>
     <g id="text_12">
      <!-- 0 -->
      <g transform="translate(35.620313 217.370988)scale(0.1 -0.1)">
       <use xlink:href="#DejaVuSans-48"/>
      </g>
     </g>
    </g>
    <g id="ytick_5">
     <g id="line2d_23">
      <path clip-path="url(#pf666bb84c4)" d="M 48.982813 151.425987 
L 705.382812 151.425987 
" style="fill:none;stroke:#808080;stroke-linecap:square;stroke-opacity:0.2;"/>
     </g>
     <g id="line2d_24">
      <g>
       <use style="stroke:#000000;stroke-width:0.8;" x="48.982813" xlink:href="#mb19cce25d8" y="151.425987"/>
      </g>
     </g>
     <g id="text_13">
      <!-- 20 -->
      <g transform="translate(29.257813 155.225206)scale(0.1 -0.1)">
       <use xlink:href="#DejaVuSans-50"/>
       <use x="63.623047" xlink:href="#DejaVuSans-48"/>
      </g>
     </g>
    </g>
    <g id="ytick_6">
     <g id="line2d_25">
      <path clip-path="url(#pf666bb84c4)" d="M 48.982813 89.280205 
L 705.382812 89.280205 
" style="fill:none;stroke:#808080;stroke-linecap:square;stroke-opacity:0.2;"/>
     </g>
     <g id="line2d_26">
      <g>
       <use style="stroke:#000000;stroke-width:0.8;" x="48.982813" xlink:href="#mb19cce25d8" y="89.280205"/>
      </g>
     </g>
     <g id="text_14">
      <!-- 40 -->
      <g transform="translate(29.257813 93.079424)scale(0.1 -0.1)">
       <use xlink:href="#DejaVuSans-52"/>
       <use x="63.623047" xlink:href="#DejaVuSans-48"/>
      </g>
     </g>
    </g>
    <g id="ytick_7">
     <g id="line2d_27">
      <path clip-path="url(#pf666bb84c4)" d="M 48.982813 27.134423 
L 705.382812 27.134423 
" style="fill:none;stroke:#808080;stroke-linecap:square;stroke-opacity:0.2;"/>
     </g>
     <g id="line2d_28">
      <g>
       <use style="stroke:#000000;stroke-width:0.8;" x="48.982813" xlink:href="#mb19cce25d8" y="27.134423"/>
      </g>
     </g>
     <g id="text_15">
      <!-- 60 -->
      <g transform="translate(29.257813 30.933642)scale(0.1 -0.1)">
       <use xlink:href="#DejaVuSans-54"/>
       <use x="63.623047" xlink:href="#DejaVuSans-48"/>
      </g>
     </g>
    </g>
    <g id="text_16">
     <!-- Workplace Mobility -->
     <defs>
      <path d="M 3.328125 72.90625 
L 13.28125 72.90625 
L 28.609375 11.28125 
L 43.890625 72.90625 
L 54.984375 72.90625 
L 70.3125 11.28125 
L 85.59375 72.90625 
L 95.609375 72.90625 
L 77.296875 0 
L 64.890625 0 
L 49.515625 63.28125 
L 33.984375 0 
L 21.578125 0 
z
" id="DejaVuSans-87"/>
      <path d="M 30.609375 48.390625 
Q 23.390625 48.390625 19.1875 42.75 
Q 14.984375 37.109375 14.984375 27.296875 
Q 14.984375 17.484375 19.15625 11.84375 
Q 23.34375 6.203125 30.609375 6.203125 
Q 37.796875 6.203125 41.984375 11.859375 
Q 46.1875 17.53125 46.1875 27.296875 
Q 46.1875 37.015625 41.984375 42.703125 
Q 37.796875 48.390625 30.609375 48.390625 
z
M 30.609375 56 
Q 42.328125 56 49.015625 48.375 
Q 55.71875 40.765625 55.71875 27.296875 
Q 55.71875 13.875 49.015625 6.21875 
Q 42.328125 -1.421875 30.609375 -1.421875 
Q 18.84375 -1.421875 12.171875 6.21875 
Q 5.515625 13.875 5.515625 27.296875 
Q 5.515625 40.765625 12.171875 48.375 
Q 18.84375 56 30.609375 56 
z
" id="DejaVuSans-111"/>
      <path d="M 41.109375 46.296875 
Q 39.59375 47.171875 37.8125 47.578125 
Q 36.03125 48 33.890625 48 
Q 26.265625 48 22.1875 43.046875 
Q 18.109375 38.09375 18.109375 28.8125 
L 18.109375 0 
L 9.078125 0 
L 9.078125 54.6875 
L 18.109375 54.6875 
L 18.109375 46.1875 
Q 20.953125 51.171875 25.484375 53.578125 
Q 30.03125 56 36.53125 56 
Q 37.453125 56 38.578125 55.875 
Q 39.703125 55.765625 41.0625 55.515625 
z
" id="DejaVuSans-114"/>
      <path d="M 9.078125 75.984375 
L 18.109375 75.984375 
L 18.109375 31.109375 
L 44.921875 54.6875 
L 56.390625 54.6875 
L 27.390625 29.109375 
L 57.625 0 
L 45.90625 0 
L 18.109375 26.703125 
L 18.109375 0 
L 9.078125 0 
z
" id="DejaVuSans-107"/>
      <path d="M 18.109375 8.203125 
L 18.109375 -20.796875 
L 9.078125 -20.796875 
L 9.078125 54.6875 
L 18.109375 54.6875 
L 18.109375 46.390625 
Q 20.953125 51.265625 25.265625 53.625 
Q 29.59375 56 35.59375 56 
Q 45.5625 56 51.78125 48.09375 
Q 58.015625 40.1875 58.015625 27.296875 
Q 58.015625 14.40625 51.78125 6.484375 
Q 45.5625 -1.421875 35.59375 -1.421875 
Q 29.59375 -1.421875 25.265625 0.953125 
Q 20.953125 3.328125 18.109375 8.203125 
z
M 48.6875 27.296875 
Q 48.6875 37.203125 44.609375 42.84375 
Q 40.53125 48.484375 33.40625 48.484375 
Q 26.265625 48.484375 22.1875 42.84375 
Q 18.109375 37.203125 18.109375 27.296875 
Q 18.109375 17.390625 22.1875 11.75 
Q 26.265625 6.109375 33.40625 6.109375 
Q 40.53125 6.109375 44.609375 11.75 
Q 48.6875 17.390625 48.6875 27.296875 
z
" id="DejaVuSans-112"/>
      <path d="M 9.421875 75.984375 
L 18.40625 75.984375 
L 18.40625 0 
L 9.421875 0 
z
" id="DejaVuSans-108"/>
      <path d="M 48.78125 52.59375 
L 48.78125 44.1875 
Q 44.96875 46.296875 41.140625 47.34375 
Q 37.3125 48.390625 33.40625 48.390625 
Q 24.65625 48.390625 19.8125 42.84375 
Q 14.984375 37.3125 14.984375 27.296875 
Q 14.984375 17.28125 19.8125 11.734375 
Q 24.65625 6.203125 33.40625 6.203125 
Q 37.3125 6.203125 41.140625 7.25 
Q 44.96875 8.296875 48.78125 10.40625 
L 48.78125 2.09375 
Q 45.015625 0.34375 40.984375 -0.53125 
Q 36.96875 -1.421875 32.421875 -1.421875 
Q 20.0625 -1.421875 12.78125 6.34375 
Q 5.515625 14.109375 5.515625 27.296875 
Q 5.515625 40.671875 12.859375 48.328125 
Q 20.21875 56 33.015625 56 
Q 37.15625 56 41.109375 55.140625 
Q 45.0625 54.296875 48.78125 52.59375 
z
" id="DejaVuSans-99"/>
      <path id="DejaVuSans-32"/>
      <path d="M 9.8125 72.90625 
L 24.515625 72.90625 
L 43.109375 23.296875 
L 61.8125 72.90625 
L 76.515625 72.90625 
L 76.515625 0 
L 66.890625 0 
L 66.890625 64.015625 
L 48.09375 14.015625 
L 38.1875 14.015625 
L 19.390625 64.015625 
L 19.390625 0 
L 9.8125 0 
z
" id="DejaVuSans-77"/>
      <path d="M 48.6875 27.296875 
Q 48.6875 37.203125 44.609375 42.84375 
Q 40.53125 48.484375 33.40625 48.484375 
Q 26.265625 48.484375 22.1875 42.84375 
Q 18.109375 37.203125 18.109375 27.296875 
Q 18.109375 17.390625 22.1875 11.75 
Q 26.265625 6.109375 33.40625 6.109375 
Q 40.53125 6.109375 44.609375 11.75 
Q 48.6875 17.390625 48.6875 27.296875 
z
M 18.109375 46.390625 
Q 20.953125 51.265625 25.265625 53.625 
Q 29.59375 56 35.59375 56 
Q 45.5625 56 51.78125 48.09375 
Q 58.015625 40.1875 58.015625 27.296875 
Q 58.015625 14.40625 51.78125 6.484375 
Q 45.5625 -1.421875 35.59375 -1.421875 
Q 29.59375 -1.421875 25.265625 0.953125 
Q 20.953125 3.328125 18.109375 8.203125 
L 18.109375 0 
L 9.078125 0 
L 9.078125 75.984375 
L 18.109375 75.984375 
z
" id="DejaVuSans-98"/>
      <path d="M 9.421875 54.6875 
L 18.40625 54.6875 
L 18.40625 0 
L 9.421875 0 
z
M 9.421875 75.984375 
L 18.40625 75.984375 
L 18.40625 64.59375 
L 9.421875 64.59375 
z
" id="DejaVuSans-105"/>
      <path d="M 32.171875 -5.078125 
Q 28.375 -14.84375 24.75 -17.8125 
Q 21.140625 -20.796875 15.09375 -20.796875 
L 7.90625 -20.796875 
L 7.90625 -13.28125 
L 13.1875 -13.28125 
Q 16.890625 -13.28125 18.9375 -11.515625 
Q 21 -9.765625 23.484375 -3.21875 
L 25.09375 0.875 
L 2.984375 54.6875 
L 12.5 54.6875 
L 29.59375 11.921875 
L 46.6875 54.6875 
L 56.203125 54.6875 
z
" id="DejaVuSans-121"/>
     </defs>
     <g transform="translate(14.798438 259.354844)rotate(-90)scale(0.1 -0.1)">
      <use xlink:href="#DejaVuSans-87"/>
      <use x="93.001953" xlink:href="#DejaVuSans-111"/>
      <use x="154.183594" xlink:href="#DejaVuSans-114"/>
      <use x="195.296875" xlink:href="#DejaVuSans-107"/>
      <use x="253.207031" xlink:href="#DejaVuSans-112"/>
      <use x="316.683594" xlink:href="#DejaVuSans-108"/>
      <use x="344.466797" xlink:href="#DejaVuSans-97"/>
      <use x="405.746094" xlink:href="#DejaVuSans-99"/>
      <use x="460.726562" xlink:href="#DejaVuSans-101"/>
      <use x="522.25" xlink:href="#DejaVuSans-32"/>
      <use x="554.037109" xlink:href="#DejaVuSans-77"/>
      <use x="640.316406" xlink:href="#DejaVuSans-111"/>
      <use x="701.498047" xlink:href="#DejaVuSans-98"/>
      <use x="764.974609" xlink:href="#DejaVuSans-105"/>
      <use x="792.757812" xlink:href="#DejaVuSans-108"/>
      <use x="820.541016" xlink:href="#DejaVuSans-105"/>
      <use x="848.324219" xlink:href="#DejaVuSans-116"/>
      <use x="887.533203" xlink:href="#DejaVuSans-121"/>
     </g>
    </g>
   </g>
   <g id="line2d_29">
    <defs>
     <path d="M 0 1.5 
C 0.397805 1.5 0.77937 1.341951 1.06066 1.06066 
C 1.341951 0.77937 1.5 0.397805 1.5 0 
C 1.5 -0.397805 1.341951 -0.77937 1.06066 -1.06066 
C 0.77937 -1.341951 0.397805 -1.5 0 -1.5 
C -0.397805 -1.5 -0.77937 -1.341951 -1.06066 -1.06066 
C -1.341951 -0.77937 -1.5 -0.397805 -1.5 0 
C -1.5 0.397805 -1.341951 0.77937 -1.06066 1.06066 
C -0.77937 1.341951 -0.397805 1.5 0 1.5 
z
" id="mf7fbdcecd3" style="stroke:#000000;"/>
    </defs>
    <g clip-path="url(#pf666bb84c4)">
     <use style="stroke:#000000;" x="78.819176" xlink:href="#mf7fbdcecd3" y="39.56358"/>
     <use style="stroke:#000000;" x="85.923072" xlink:href="#mf7fbdcecd3" y="238.430082"/>
     <use style="stroke:#000000;" x="93.026968" xlink:href="#mf7fbdcecd3" y="222.893637"/>
     <use style="stroke:#000000;" x="100.130864" xlink:href="#mf7fbdcecd3" y="207.357191"/>
     <use style="stroke:#000000;" x="107.234761" xlink:href="#mf7fbdcecd3" y="204.249902"/>
     <use style="stroke:#000000;" x="114.338657" xlink:href="#mf7fbdcecd3" y="207.357191"/>
     <use style="stroke:#000000;" x="121.442553" xlink:href="#mf7fbdcecd3" y="213.57177"/>
     <use style="stroke:#000000;" x="128.546449" xlink:href="#mf7fbdcecd3" y="198.035324"/>
     <use style="stroke:#000000;" x="135.650345" xlink:href="#mf7fbdcecd3" y="219.786348"/>
     <use style="stroke:#000000;" x="142.754241" xlink:href="#mf7fbdcecd3" y="210.46448"/>
     <use style="stroke:#000000;" x="149.858137" xlink:href="#mf7fbdcecd3" y="179.391589"/>
     <use style="stroke:#000000;" x="156.962033" xlink:href="#mf7fbdcecd3" y="179.391589"/>
     <use style="stroke:#000000;" x="164.065929" xlink:href="#mf7fbdcecd3" y="185.606168"/>
     <use style="stroke:#000000;" x="171.169825" xlink:href="#mf7fbdcecd3" y="368.936225"/>
     <use style="stroke:#000000;" x="178.273722" xlink:href="#mf7fbdcecd3" y="226.000926"/>
     <use style="stroke:#000000;" x="185.377618" xlink:href="#mf7fbdcecd3" y="213.57177"/>
     <use style="stroke:#000000;" x="192.481514" xlink:href="#mf7fbdcecd3" y="182.498878"/>
     <use style="stroke:#000000;" x="199.58541" xlink:href="#mf7fbdcecd3" y="170.069722"/>
     <use style="stroke:#000000;" x="206.689306" xlink:href="#mf7fbdcecd3" y="170.069722"/>
     <use style="stroke:#000000;" x="213.793202" xlink:href="#mf7fbdcecd3" y="179.391589"/>
     <use style="stroke:#000000;" x="220.897098" xlink:href="#mf7fbdcecd3" y="182.498878"/>
     <use style="stroke:#000000;" x="228.000994" xlink:href="#mf7fbdcecd3" y="179.391589"/>
     <use style="stroke:#000000;" x="235.10489" xlink:href="#mf7fbdcecd3" y="204.249902"/>
     <use style="stroke:#000000;" x="242.208787" xlink:href="#mf7fbdcecd3" y="182.498878"/>
     <use style="stroke:#000000;" x="249.312683" xlink:href="#mf7fbdcecd3" y="179.391589"/>
     <use style="stroke:#000000;" x="256.416579" xlink:href="#mf7fbdcecd3" y="170.069722"/>
     <use style="stroke:#000000;" x="263.520475" xlink:href="#mf7fbdcecd3" y="176.2843"/>
     <use style="stroke:#000000;" x="270.624371" xlink:href="#mf7fbdcecd3" y="185.606168"/>
     <use style="stroke:#000000;" x="277.728267" xlink:href="#mf7fbdcecd3" y="194.928035"/>
     <use style="stroke:#000000;" x="284.832163" xlink:href="#mf7fbdcecd3" y="210.46448"/>
     <use style="stroke:#000000;" x="291.936059" xlink:href="#mf7fbdcecd3" y="182.498878"/>
     <use style="stroke:#000000;" x="299.039955" xlink:href="#mf7fbdcecd3" y="170.069722"/>
     <use style="stroke:#000000;" x="306.143851" xlink:href="#mf7fbdcecd3" y="173.177011"/>
     <use style="stroke:#000000;" x="313.247748" xlink:href="#mf7fbdcecd3" y="179.391589"/>
     <use style="stroke:#000000;" x="320.351644" xlink:href="#mf7fbdcecd3" y="185.606168"/>
     <use style="stroke:#000000;" x="327.45554" xlink:href="#mf7fbdcecd3" y="185.606168"/>
     <use style="stroke:#000000;" x="334.559436" xlink:href="#mf7fbdcecd3" y="213.57177"/>
     <use style="stroke:#000000;" x="341.663332" xlink:href="#mf7fbdcecd3" y="188.713457"/>
     <use style="stroke:#000000;" x="348.767228" xlink:href="#mf7fbdcecd3" y="176.2843"/>
     <use style="stroke:#000000;" x="355.871124" xlink:href="#mf7fbdcecd3" y="176.2843"/>
     <use style="stroke:#000000;" x="362.97502" xlink:href="#mf7fbdcecd3" y="182.498878"/>
     <use style="stroke:#000000;" x="370.078916" xlink:href="#mf7fbdcecd3" y="191.820746"/>
     <use style="stroke:#000000;" x="377.182812" xlink:href="#mf7fbdcecd3" y="204.249902"/>
     <use style="stroke:#000000;" x="384.286709" xlink:href="#mf7fbdcecd3" y="216.679059"/>
     <use style="stroke:#000000;" x="391.390605" xlink:href="#mf7fbdcecd3" y="194.928035"/>
     <use style="stroke:#000000;" x="398.494501" xlink:href="#mf7fbdcecd3" y="185.606168"/>
     <use style="stroke:#000000;" x="405.598397" xlink:href="#mf7fbdcecd3" y="191.820746"/>
     <use style="stroke:#000000;" x="412.702293" xlink:href="#mf7fbdcecd3" y="368.936225"/>
     <use style="stroke:#000000;" x="419.806189" xlink:href="#mf7fbdcecd3" y="384.47267"/>
     <use style="stroke:#000000;" x="426.910085" xlink:href="#mf7fbdcecd3" y="285.039419"/>
     <use style="stroke:#000000;" x="434.013981" xlink:href="#mf7fbdcecd3" y="241.537372"/>
     <use style="stroke:#000000;" x="441.117877" xlink:href="#mf7fbdcecd3" y="204.249902"/>
     <use style="stroke:#000000;" x="448.221774" xlink:href="#mf7fbdcecd3" y="191.820746"/>
     <use style="stroke:#000000;" x="455.32567" xlink:href="#mf7fbdcecd3" y="188.713457"/>
     <use style="stroke:#000000;" x="462.429566" xlink:href="#mf7fbdcecd3" y="191.820746"/>
     <use style="stroke:#000000;" x="469.533462" xlink:href="#mf7fbdcecd3" y="201.142613"/>
     <use style="stroke:#000000;" x="476.637358" xlink:href="#mf7fbdcecd3" y="201.142613"/>
     <use style="stroke:#000000;" x="483.741254" xlink:href="#mf7fbdcecd3" y="229.108215"/>
     <use style="stroke:#000000;" x="490.84515" xlink:href="#mf7fbdcecd3" y="198.035324"/>
     <use style="stroke:#000000;" x="497.949046" xlink:href="#mf7fbdcecd3" y="188.713457"/>
     <use style="stroke:#000000;" x="505.052942" xlink:href="#mf7fbdcecd3" y="188.713457"/>
     <use style="stroke:#000000;" x="512.156838" xlink:href="#mf7fbdcecd3" y="191.820746"/>
     <use style="stroke:#000000;" x="519.260735" xlink:href="#mf7fbdcecd3" y="204.249902"/>
     <use style="stroke:#000000;" x="526.364631" xlink:href="#mf7fbdcecd3" y="198.035324"/>
     <use style="stroke:#000000;" x="533.468527" xlink:href="#mf7fbdcecd3" y="226.000926"/>
     <use style="stroke:#000000;" x="540.572423" xlink:href="#mf7fbdcecd3" y="198.035324"/>
     <use style="stroke:#000000;" x="547.676319" xlink:href="#mf7fbdcecd3" y="188.713457"/>
     <use style="stroke:#000000;" x="554.780215" xlink:href="#mf7fbdcecd3" y="188.713457"/>
     <use style="stroke:#000000;" x="561.884111" xlink:href="#mf7fbdcecd3" y="194.928035"/>
     <use style="stroke:#000000;" x="568.988007" xlink:href="#mf7fbdcecd3" y="204.249902"/>
     <use style="stroke:#000000;" x="576.091903" xlink:href="#mf7fbdcecd3" y="201.142613"/>
     <use style="stroke:#000000;" x="583.1958" xlink:href="#mf7fbdcecd3" y="229.108215"/>
     <use style="stroke:#000000;" x="590.299696" xlink:href="#mf7fbdcecd3" y="198.035324"/>
     <use style="stroke:#000000;" x="597.403592" xlink:href="#mf7fbdcecd3" y="185.606168"/>
     <use style="stroke:#000000;" x="604.507488" xlink:href="#mf7fbdcecd3" y="188.713457"/>
     <use style="stroke:#000000;" x="611.611384" xlink:href="#mf7fbdcecd3" y="194.928035"/>
     <use style="stroke:#000000;" x="618.71528" xlink:href="#mf7fbdcecd3" y="325.434177"/>
     <use style="stroke:#000000;" x="625.819176" xlink:href="#mf7fbdcecd3" y="229.108215"/>
     <use style="stroke:#000000;" x="632.923072" xlink:href="#mf7fbdcecd3" y="232.215504"/>
     <use style="stroke:#000000;" x="640.026968" xlink:href="#mf7fbdcecd3" y="198.035324"/>
     <use style="stroke:#000000;" x="647.130864" xlink:href="#mf7fbdcecd3" y="185.606168"/>
     <use style="stroke:#000000;" x="654.234761" xlink:href="#mf7fbdcecd3" y="185.606168"/>
     <use style="stroke:#000000;" x="661.338657" xlink:href="#mf7fbdcecd3" y="191.820746"/>
     <use style="stroke:#000000;" x="668.442553" xlink:href="#mf7fbdcecd3" y="201.142613"/>
     <use style="stroke:#000000;" x="675.546449" xlink:href="#mf7fbdcecd3" y="207.357191"/>
    </g>
   </g>
   <g id="line2d_30">
    <path clip-path="url(#pf666bb84c4)" d="M 78.819176 189.848184 
L 85.923072 216.402184 
L 93.026968 190.110056 
L 100.130864 177.282697 
L 107.234761 176.884345 
L 114.338657 196.548108 
L 121.442553 229.935576 
L 128.546449 189.07474 
L 135.650345 215.62874 
L 142.754241 189.336612 
L 149.858137 176.509252 
L 156.962033 176.110901 
L 164.065929 195.774393 
L 171.169825 229.161591 
L 178.273722 188.299888 
L 185.377618 214.853019 
L 192.481514 188.560024 
L 199.58541 175.731796 
L 206.689306 175.332576 
L 213.793202 194.99547 
L 220.897098 228.38207 
L 228.000994 187.520367 
L 235.10489 214.073498 
L 242.208787 187.780503 
L 249.312683 174.952275 
L 256.416579 174.553147 
L 263.520475 194.216132 
L 270.624371 227.602824 
L 277.728267 186.742739 
L 284.832163 213.297489 
L 291.936059 187.006985 
L 299.039955 174.181248 
L 306.143851 173.784521 
L 313.247748 195.070669 
L 320.351644 230.080523 
L 327.45554 190.842074 
L 334.559436 219.019415 
L 341.663332 194.350628 
L 348.767228 183.146609 
L 355.871124 184.371598 
L 362.97502 205.658702 
L 370.078916 240.669511 
L 377.182812 201.432017 
L 384.286709 229.609357 
L 391.390605 204.940571 
L 398.494501 193.736552 
L 405.598397 194.961542 
L 412.702293 216.248619 
L 419.806189 251.259402 
L 426.910085 210.083621 
L 434.013981 236.322674 
L 441.117877 209.715601 
L 448.221774 196.573295 
L 455.32567 195.859997 
L 462.429566 215.208813 
L 469.533462 248.281335 
L 476.637358 207.105553 
L 483.741254 233.344607 
L 490.84515 206.737533 
L 497.949046 193.595227 
L 505.052942 192.881929 
L 512.156838 212.230745 
L 519.260735 245.303267 
L 526.364631 204.127773 
L 533.468527 230.367114 
L 540.572423 203.760386 
L 547.676319 190.618425 
L 554.780215 189.905473 
L 561.884111 209.254644 
L 568.988007 242.327521 
L 576.091903 201.152094 
L 583.1958 227.391503 
L 590.299696 200.784784 
L 597.403592 187.642833 
L 604.507488 186.929891 
L 611.611384 206.279062 
L 618.71528 239.351939 
L 625.819176 198.176513 
L 632.923072 224.415921 
L 640.026968 197.809202 
L 647.130864 184.667252 
L 654.234761 183.954309 
L 661.338657 203.30348 
L 668.442553 236.376357 
L 675.546449 195.200931 
" style="fill:none;stroke:#0072b2;stroke-linecap:square;stroke-width:1.5;"/>
   </g>
   <g id="line2d_31">
    <path clip-path="url(#pf666bb84c4)" d="M 78.819176 197.047355 
L 85.923072 196.936863 
L 93.026968 196.826371 
L 100.130864 196.715879 
L 107.234761 196.605387 
L 114.338657 196.494895 
L 121.442553 196.384403 
L 128.546449 196.273911 
L 135.650345 196.163419 
L 142.754241 196.052926 
L 149.858137 195.942434 
L 156.962033 195.831942 
L 164.065929 195.72118 
L 171.169825 195.610418 
L 178.273722 195.499058 
L 185.377618 195.387698 
L 192.481514 195.276338 
L 199.58541 195.164978 
L 206.689306 195.053617 
L 213.793202 194.942257 
L 220.897098 194.830897 
L 228.000994 194.719537 
L 235.10489 194.608177 
L 242.208787 194.496817 
L 249.312683 194.385457 
L 256.416579 194.274188 
L 263.520475 194.162919 
L 270.624371 194.051651 
L 277.728267 193.941909 
L 284.832163 193.832167 
L 291.936059 193.723299 
L 299.039955 193.61443 
L 306.143851 193.505562 
L 313.247748 195.017456 
L 320.351644 196.52935 
L 327.45554 198.041244 
L 334.559436 199.554093 
L 341.663332 201.066942 
L 348.767228 202.579791 
L 355.871124 204.09264 
L 362.97502 205.605489 
L 370.078916 207.118338 
L 377.182812 208.631187 
L 384.286709 210.144036 
L 391.390605 211.656885 
L 398.494501 213.169734 
L 405.598397 214.682583 
L 412.702293 216.195406 
L 419.806189 217.708229 
L 426.910085 217.282791 
L 434.013981 216.857353 
L 441.117877 216.431915 
L 448.221774 216.006477 
L 455.32567 215.581038 
L 462.429566 215.1556 
L 469.533462 214.730162 
L 476.637358 214.304724 
L 483.741254 213.879285 
L 490.84515 213.453847 
L 497.949046 213.028409 
L 505.052942 212.60297 
L 512.156838 212.177532 
L 519.260735 211.752094 
L 526.364631 211.326943 
L 533.468527 210.901793 
L 540.572423 210.4767 
L 547.676319 210.051607 
L 554.780215 209.626514 
L 561.884111 209.201431 
L 568.988007 208.776348 
L 576.091903 208.351265 
L 583.1958 207.926182 
L 590.299696 207.501098 
L 597.403592 207.076015 
L 604.507488 206.650932 
L 611.611384 206.225849 
L 618.71528 205.800766 
L 625.819176 205.375683 
L 632.923072 204.9506 
L 640.026968 204.525517 
L 647.130864 204.100433 
L 654.234761 203.67535 
L 661.338657 203.250267 
L 668.442553 202.825184 
L 675.546449 202.400101 
" style="fill:none;stroke:#0000ff;stroke-linecap:square;stroke-width:1.5;"/>
   </g>
   <g id="line2d_32">
    <path clip-path="url(#pf666bb84c4)" d="M 306.143851 401.718125 
L 306.143851 22.318125 
" style="fill:none;stroke:#0000ff;stroke-dasharray:5.55,2.4;stroke-dashoffset:0;stroke-width:1.5;"/>
   </g>
   <g id="line2d_33">
    <path clip-path="url(#pf666bb84c4)" d="M 419.806189 401.718125 
L 419.806189 22.318125 
" style="fill:none;stroke:#0000ff;stroke-dasharray:5.55,2.4;stroke-dashoffset:0;stroke-width:1.5;"/>
   </g>
   <g id="line2d_34">
    <path clip-path="url(#pf666bb84c4)" d="M 306.143851 401.718125 
L 306.143851 22.318125 
" style="fill:none;stroke:#ff0000;stroke-linecap:square;stroke-width:3;"/>
   </g>
   <g id="patch_3">
    <path d="M 48.982813 401.718125 
L 48.982813 22.318125 
" style="fill:none;stroke:#000000;stroke-linecap:square;stroke-linejoin:miter;stroke-width:0.8;"/>
   </g>
   <g id="patch_4">
    <path d="M 705.382812 401.718125 
L 705.382812 22.318125 
" style="fill:none;stroke:#000000;stroke-linecap:square;stroke-linejoin:miter;stroke-width:0.8;"/>
   </g>
   <g id="patch_5">
    <path d="M 48.982813 401.718125 
L 705.382812 401.718125 
" style="fill:none;stroke:#000000;stroke-linecap:square;stroke-linejoin:miter;stroke-width:0.8;"/>
   </g>
   <g id="patch_6">
    <path d="M 48.982813 22.318125 
L 705.382812 22.318125 
" style="fill:none;stroke:#000000;stroke-linecap:square;stroke-linejoin:miter;stroke-width:0.8;"/>
   </g>
   <g id="text_17">
    <!-- Workplace Mobility Graph for Taiwan -->
    <defs>
     <path d="M 59.515625 10.40625 
L 59.515625 29.984375 
L 43.40625 29.984375 
L 43.40625 38.09375 
L 69.28125 38.09375 
L 69.28125 6.78125 
Q 63.578125 2.734375 56.6875 0.65625 
Q 49.8125 -1.421875 42 -1.421875 
Q 24.90625 -1.421875 15.25 8.5625 
Q 5.609375 18.5625 5.609375 36.375 
Q 5.609375 54.25 15.25 64.234375 
Q 24.90625 74.21875 42 74.21875 
Q 49.125 74.21875 55.546875 72.453125 
Q 61.96875 70.703125 67.390625 67.28125 
L 67.390625 56.78125 
Q 61.921875 61.421875 55.765625 63.765625 
Q 49.609375 66.109375 42.828125 66.109375 
Q 29.4375 66.109375 22.71875 58.640625 
Q 16.015625 51.171875 16.015625 36.375 
Q 16.015625 21.625 22.71875 14.15625 
Q 29.4375 6.6875 42.828125 6.6875 
Q 48.046875 6.6875 52.140625 7.59375 
Q 56.25 8.5 59.515625 10.40625 
z
" id="DejaVuSans-71"/>
     <path d="M 54.890625 33.015625 
L 54.890625 0 
L 45.90625 0 
L 45.90625 32.71875 
Q 45.90625 40.484375 42.875 44.328125 
Q 39.84375 48.1875 33.796875 48.1875 
Q 26.515625 48.1875 22.3125 43.546875 
Q 18.109375 38.921875 18.109375 30.90625 
L 18.109375 0 
L 9.078125 0 
L 9.078125 75.984375 
L 18.109375 75.984375 
L 18.109375 46.1875 
Q 21.34375 51.125 25.703125 53.5625 
Q 30.078125 56 35.796875 56 
Q 45.21875 56 50.046875 50.171875 
Q 54.890625 44.34375 54.890625 33.015625 
z
" id="DejaVuSans-104"/>
     <path d="M 37.109375 75.984375 
L 37.109375 68.5 
L 28.515625 68.5 
Q 23.6875 68.5 21.796875 66.546875 
Q 19.921875 64.59375 19.921875 59.515625 
L 19.921875 54.6875 
L 34.71875 54.6875 
L 34.71875 47.703125 
L 19.921875 47.703125 
L 19.921875 0 
L 10.890625 0 
L 10.890625 47.703125 
L 2.296875 47.703125 
L 2.296875 54.6875 
L 10.890625 54.6875 
L 10.890625 58.5 
Q 10.890625 67.625 15.140625 71.796875 
Q 19.390625 75.984375 28.609375 75.984375 
z
" id="DejaVuSans-102"/>
     <path d="M -0.296875 72.90625 
L 61.375 72.90625 
L 61.375 64.59375 
L 35.5 64.59375 
L 35.5 0 
L 25.59375 0 
L 25.59375 64.59375 
L -0.296875 64.59375 
z
" id="DejaVuSans-84"/>
     <path d="M 4.203125 54.6875 
L 13.1875 54.6875 
L 24.421875 12.015625 
L 35.59375 54.6875 
L 46.1875 54.6875 
L 57.421875 12.015625 
L 68.609375 54.6875 
L 77.59375 54.6875 
L 63.28125 0 
L 52.6875 0 
L 40.921875 44.828125 
L 29.109375 0 
L 18.5 0 
z
" id="DejaVuSans-119"/>
     <path d="M 54.890625 33.015625 
L 54.890625 0 
L 45.90625 0 
L 45.90625 32.71875 
Q 45.90625 40.484375 42.875 44.328125 
Q 39.84375 48.1875 33.796875 48.1875 
Q 26.515625 48.1875 22.3125 43.546875 
Q 18.109375 38.921875 18.109375 30.90625 
L 18.109375 0 
L 9.078125 0 
L 9.078125 54.6875 
L 18.109375 54.6875 
L 18.109375 46.1875 
Q 21.34375 51.125 25.703125 53.5625 
Q 30.078125 56 35.796875 56 
Q 45.21875 56 50.046875 50.171875 
Q 54.890625 44.34375 54.890625 33.015625 
z
" id="DejaVuSans-110"/>
    </defs>
    <g transform="translate(267.599375 16.318125)scale(0.12 -0.12)">
     <use xlink:href="#DejaVuSans-87"/>
     <use x="93.001953" xlink:href="#DejaVuSans-111"/>
     <use x="154.183594" xlink:href="#DejaVuSans-114"/>
     <use x="195.296875" xlink:href="#DejaVuSans-107"/>
     <use x="253.207031" xlink:href="#DejaVuSans-112"/>
     <use x="316.683594" xlink:href="#DejaVuSans-108"/>
     <use x="344.466797" xlink:href="#DejaVuSans-97"/>
     <use x="405.746094" xlink:href="#DejaVuSans-99"/>
     <use x="460.726562" xlink:href="#DejaVuSans-101"/>
     <use x="522.25" xlink:href="#DejaVuSans-32"/>
     <use x="554.037109" xlink:href="#DejaVuSans-77"/>
     <use x="640.316406" xlink:href="#DejaVuSans-111"/>
     <use x="701.498047" xlink:href="#DejaVuSans-98"/>
     <use x="764.974609" xlink:href="#DejaVuSans-105"/>
     <use x="792.757812" xlink:href="#DejaVuSans-108"/>
     <use x="820.541016" xlink:href="#DejaVuSans-105"/>
     <use x="848.324219" xlink:href="#DejaVuSans-116"/>
     <use x="887.533203" xlink:href="#DejaVuSans-121"/>
     <use x="946.712891" xlink:href="#DejaVuSans-32"/>
     <use x="978.5" xlink:href="#DejaVuSans-71"/>
     <use x="1055.990234" xlink:href="#DejaVuSans-114"/>
     <use x="1097.103516" xlink:href="#DejaVuSans-97"/>
     <use x="1158.382812" xlink:href="#DejaVuSans-112"/>
     <use x="1221.859375" xlink:href="#DejaVuSans-104"/>
     <use x="1285.238281" xlink:href="#DejaVuSans-32"/>
     <use x="1317.025391" xlink:href="#DejaVuSans-102"/>
     <use x="1352.230469" xlink:href="#DejaVuSans-111"/>
     <use x="1413.412109" xlink:href="#DejaVuSans-114"/>
     <use x="1454.525391" xlink:href="#DejaVuSans-32"/>
     <use x="1486.3125" xlink:href="#DejaVuSans-84"/>
     <use x="1530.896484" xlink:href="#DejaVuSans-97"/>
     <use x="1592.175781" xlink:href="#DejaVuSans-105"/>
     <use x="1619.958984" xlink:href="#DejaVuSans-119"/>
     <use x="1701.746094" xlink:href="#DejaVuSans-97"/>
     <use x="1763.025391" xlink:href="#DejaVuSans-110"/>
    </g>
   </g>
   <g id="legend_1">
    <g id="patch_7">
     <path d="M 543.907812 44.99625 
L 698.382812 44.99625 
Q 700.382812 44.99625 700.382812 42.99625 
L 700.382812 29.318125 
Q 700.382812 27.318125 698.382812 27.318125 
L 543.907812 27.318125 
Q 541.907812 27.318125 541.907812 29.318125 
L 541.907812 42.99625 
Q 541.907812 44.99625 543.907812 44.99625 
z
" style="fill:#ffffff;opacity:0.8;stroke:#cccccc;stroke-linejoin:miter;"/>
    </g>
    <g id="line2d_35">
     <path d="M 545.907812 35.416562 
L 565.907812 35.416562 
" style="fill:none;stroke:#ff0000;stroke-linecap:square;stroke-width:3;"/>
    </g>
    <g id="line2d_36"/>
    <g id="text_18">
     <!-- Effective Lockdown date -->
     <defs>
      <path d="M 9.8125 72.90625 
L 55.90625 72.90625 
L 55.90625 64.59375 
L 19.671875 64.59375 
L 19.671875 43.015625 
L 54.390625 43.015625 
L 54.390625 34.71875 
L 19.671875 34.71875 
L 19.671875 8.296875 
L 56.78125 8.296875 
L 56.78125 0 
L 9.8125 0 
z
" id="DejaVuSans-69"/>
      <path d="M 2.984375 54.6875 
L 12.5 54.6875 
L 29.59375 8.796875 
L 46.6875 54.6875 
L 56.203125 54.6875 
L 35.6875 0 
L 23.484375 0 
z
" id="DejaVuSans-118"/>
      <path d="M 9.8125 72.90625 
L 19.671875 72.90625 
L 19.671875 8.296875 
L 55.171875 8.296875 
L 55.171875 0 
L 9.8125 0 
z
" id="DejaVuSans-76"/>
      <path d="M 45.40625 46.390625 
L 45.40625 75.984375 
L 54.390625 75.984375 
L 54.390625 0 
L 45.40625 0 
L 45.40625 8.203125 
Q 42.578125 3.328125 38.25 0.953125 
Q 33.9375 -1.421875 27.875 -1.421875 
Q 17.96875 -1.421875 11.734375 6.484375 
Q 5.515625 14.40625 5.515625 27.296875 
Q 5.515625 40.1875 11.734375 48.09375 
Q 17.96875 56 27.875 56 
Q 33.9375 56 38.25 53.625 
Q 42.578125 51.265625 45.40625 46.390625 
z
M 14.796875 27.296875 
Q 14.796875 17.390625 18.875 11.75 
Q 22.953125 6.109375 30.078125 6.109375 
Q 37.203125 6.109375 41.296875 11.75 
Q 45.40625 17.390625 45.40625 27.296875 
Q 45.40625 37.203125 41.296875 42.84375 
Q 37.203125 48.484375 30.078125 48.484375 
Q 22.953125 48.484375 18.875 42.84375 
Q 14.796875 37.203125 14.796875 27.296875 
z
" id="DejaVuSans-100"/>
     </defs>
     <g transform="translate(573.907812 38.916562)scale(0.1 -0.1)">
      <use xlink:href="#DejaVuSans-69"/>
      <use x="63.183594" xlink:href="#DejaVuSans-102"/>
      <use x="98.388672" xlink:href="#DejaVuSans-102"/>
      <use x="133.59375" xlink:href="#DejaVuSans-101"/>
      <use x="195.117188" xlink:href="#DejaVuSans-99"/>
      <use x="250.097656" xlink:href="#DejaVuSans-116"/>
      <use x="289.306641" xlink:href="#DejaVuSans-105"/>
      <use x="317.089844" xlink:href="#DejaVuSans-118"/>
      <use x="376.269531" xlink:href="#DejaVuSans-101"/>
      <use x="437.792969" xlink:href="#DejaVuSans-32"/>
      <use x="469.580078" xlink:href="#DejaVuSans-76"/>
      <use x="523.542969" xlink:href="#DejaVuSans-111"/>
      <use x="584.724609" xlink:href="#DejaVuSans-99"/>
      <use x="639.705078" xlink:href="#DejaVuSans-107"/>
      <use x="697.615234" xlink:href="#DejaVuSans-100"/>
      <use x="761.091797" xlink:href="#DejaVuSans-111"/>
      <use x="822.273438" xlink:href="#DejaVuSans-119"/>
      <use x="904.060547" xlink:href="#DejaVuSans-110"/>
      <use x="967.439453" xlink:href="#DejaVuSans-32"/>
      <use x="999.226562" xlink:href="#DejaVuSans-100"/>
      <use x="1062.703125" xlink:href="#DejaVuSans-97"/>
      <use x="1123.982422" xlink:href="#DejaVuSans-116"/>
      <use x="1163.191406" xlink:href="#DejaVuSans-101"/>
     </g>
    </g>
   </g>
  </g>
 </g>
 <defs>
  <clipPath id="pf666bb84c4">
   <rect height="379.4" width="656.4" x="48.982813" y="22.318125"/>
  </clipPath>
 </defs>
</svg>
