<?xml version="1.0" encoding="utf-8" standalone="no"?>
<!DOCTYPE svg PUBLIC "-//W3C//DTD SVG 1.1//EN"
  "http://www.w3.org/Graphics/SVG/1.1/DTD/svg11.dtd">
<!-- Created with matplotlib (https://matplotlib.org/) -->
<svg height="439.274375pt" version="1.1" viewBox="0 0 712.582813 439.274375" width="712.582813pt" xmlns="http://www.w3.org/2000/svg" xmlns:xlink="http://www.w3.org/1999/xlink">
 <defs>
  <style type="text/css">
*{stroke-linecap:butt;stroke-linejoin:round;}
  </style>
 </defs>
 <g id="figure_1">
  <g id="patch_1">
   <path d="M 0 439.274375 
L 712.582813 439.274375 
L 712.582813 0 
L 0 0 
z
" style="fill:#ffffff;"/>
  </g>
  <g id="axes_1">
   <g id="patch_2">
    <path d="M 48.982813 401.718125 
L 705.382813 401.718125 
L 705.382813 22.318125 
L 48.982813 22.318125 
z
" style="fill:#ffffff;"/>
   </g>
   <g id="PolyCollection_1">
    <defs>
     <path d="M 78.819176 -399.104028 
L 78.819176 -346.013304 
L 85.923072 -339.582141 
L 93.026968 -342.918324 
L 100.130864 -342.015581 
L 107.234761 -344.819722 
L 114.338657 -343.589164 
L 121.442553 -338.330577 
L 128.546449 -340.83085 
L 135.650345 -338.098023 
L 142.754241 -342.178272 
L 149.858137 -341.643116 
L 156.962033 -344.628736 
L 164.065929 -343.593007 
L 171.169825 -336.705313 
L 178.273722 -341.196676 
L 185.377618 -334.735 
L 192.481514 -340.194247 
L 199.58541 -338.259582 
L 206.689306 -339.303145 
L 213.793202 -340.806809 
L 220.897098 -333.295785 
L 228.000994 -339.16339 
L 235.10489 -331.93611 
L 242.208787 -337.404753 
L 249.312683 -335.552143 
L 256.416579 -339.10744 
L 263.520475 -339.793536 
L 270.624371 -328.760049 
L 277.728267 -336.225332 
L 284.832163 -327.541323 
L 291.936059 -322.007973 
L 299.039955 -310.191602 
L 306.143851 -303.469579 
L 313.247748 -290.276214 
L 320.351644 -273.94029 
L 327.45554 -267.801835 
L 334.559436 -250.231872 
L 341.663332 -244.21978 
L 348.767228 -231.888751 
L 355.871124 -224.037435 
L 362.97502 -209.871898 
L 370.078916 -193.249968 
L 377.182812 -187.082548 
L 384.286709 -171.428533 
L 391.390605 -172.675947 
L 398.494501 -171.916108 
L 405.598397 -173.056402 
L 412.702293 -172.949855 
L 419.806189 -163.942249 
L 426.910085 -165.235401 
L 434.013981 -160.919665 
L 441.117877 -164.574 
L 448.221774 -159.73934 
L 455.32567 -164.15337 
L 462.429566 -160.81921 
L 469.533462 -151.179188 
L 476.637358 -155.139971 
L 483.741254 -147.88341 
L 490.84515 -159.091216 
L 497.949046 -156.762656 
L 505.052942 -165.38723 
L 512.156838 -167.342466 
L 519.260735 -162.725195 
L 526.364631 -167.429744 
L 533.468527 -166.211909 
L 540.572423 -170.925516 
L 547.676319 -171.990296 
L 554.780215 -177.912287 
L 561.884111 -177.876486 
L 568.988007 -174.607166 
L 576.091903 -183.29614 
L 583.1958 -179.039698 
L 590.299696 -186.475508 
L 597.403592 -185.98743 
L 604.507488 -190.793461 
L 611.611384 -197.141439 
L 618.71528 -189.969535 
L 625.819176 -196.685622 
L 632.923072 -193.96079 
L 640.026968 -200.498372 
L 647.130864 -198.306987 
L 654.234761 -207.669674 
L 661.338657 -210.894397 
L 668.442553 -205.656513 
L 675.546449 -210.225588 
L 675.546449 -266.737946 
L 675.546449 -266.737946 
L 668.442553 -258.362294 
L 661.338657 -264.551001 
L 654.234761 -262.07106 
L 647.130864 -255.445858 
L 640.026968 -255.712337 
L 632.923072 -247.735856 
L 625.819176 -249.934925 
L 618.71528 -244.3439 
L 611.611384 -251.251959 
L 604.507488 -246.177631 
L 597.403592 -241.340789 
L 590.299696 -239.75134 
L 583.1958 -234.062712 
L 576.091903 -237.044294 
L 568.988007 -230.290396 
L 561.884111 -234.302848 
L 554.780215 -231.609996 
L 547.676319 -225.788828 
L 540.572423 -226.160878 
L 533.468527 -219.207146 
L 526.364631 -223.069695 
L 519.260735 -214.47364 
L 512.156838 -218.887909 
L 505.052942 -218.295347 
L 497.949046 -213.232845 
L 490.84515 -213.707919 
L 483.741254 -205.36254 
L 476.637358 -209.418385 
L 469.533462 -206.261687 
L 462.429566 -215.694081 
L 455.32567 -215.282776 
L 448.221774 -213.765127 
L 441.117877 -218.9496 
L 434.013981 -212.841896 
L 426.910085 -221.548404 
L 419.806189 -218.323355 
L 412.702293 -225.995061 
L 405.598397 -226.760307 
L 398.494501 -225.579213 
L 391.390605 -229.723992 
L 384.286709 -227.186587 
L 377.182812 -243.4569 
L 370.078916 -247.4147 
L 362.97502 -266.195623 
L 355.871124 -278.641446 
L 348.767228 -285.4986 
L 341.663332 -298.447296 
L 334.559436 -304.012101 
L 327.45554 -322.794346 
L 320.351644 -327.700934 
L 313.247748 -347.31729 
L 306.143851 -358.460658 
L 299.039955 -364.3346 
L 291.936059 -377.180443 
L 284.832163 -381.274491 
L 277.728267 -389.411023 
L 270.624371 -385.355417 
L 263.520475 -392.63758 
L 256.416579 -393.312999 
L 249.312683 -390.134579 
L 242.208787 -391.502369 
L 235.10489 -386.852507 
L 228.000994 -395.766632 
L 220.897098 -388.451142 
L 213.793202 -393.766836 
L 206.689306 -396.109177 
L 199.58541 -392.944182 
L 192.481514 -393.961152 
L 185.377618 -387.730376 
L 178.273722 -395.338127 
L 171.169825 -391.107618 
L 164.065929 -396.547272 
L 156.962033 -396.606291 
L 149.858137 -391.447482 
L 142.754241 -395.128274 
L 135.650345 -389.051394 
L 128.546449 -397.945227 
L 121.442553 -393.193673 
L 114.338657 -399.344336 
L 107.234761 -399.710795 
L 100.130864 -395.993731 
L 93.026968 -396.858971 
L 85.923072 -392.97361 
L 78.819176 -399.104028 
z
" id="m0a02bdad74" style="stroke:#0072b2;stroke-opacity:0.2;"/>
    </defs>
    <g clip-path="url(#pa9a996906b)">
     <use style="fill:#0072b2;fill-opacity:0.2;stroke:#0072b2;stroke-opacity:0.2;" x="0" xlink:href="#m0a02bdad74" y="439.274375"/>
    </g>
   </g>
   <g id="matplotlib.axis_1">
    <g id="xtick_1">
     <g id="line2d_1">
      <path clip-path="url(#pa9a996906b)" d="M 71.71528 401.718125 
L 71.71528 22.318125 
" style="fill:none;stroke:#808080;stroke-linecap:square;stroke-opacity:0.2;"/>
     </g>
     <g id="line2d_2">
      <defs>
       <path d="M 0 0 
L 0 3.5 
" id="mb8b4b16574" style="stroke:#000000;stroke-width:0.8;"/>
      </defs>
      <g>
       <use style="stroke:#000000;stroke-width:0.8;" x="71.71528" xlink:href="#mb8b4b16574" y="401.718125"/>
      </g>
     </g>
     <g id="text_1">
      <!-- 2020-02-14 -->
      <defs>
       <path d="M 19.1875 8.296875 
L 53.609375 8.296875 
L 53.609375 0 
L 7.328125 0 
L 7.328125 8.296875 
Q 12.9375 14.109375 22.625 23.890625 
Q 32.328125 33.6875 34.8125 36.53125 
Q 39.546875 41.84375 41.421875 45.53125 
Q 43.3125 49.21875 43.3125 52.78125 
Q 43.3125 58.59375 39.234375 62.25 
Q 35.15625 65.921875 28.609375 65.921875 
Q 23.96875 65.921875 18.8125 64.3125 
Q 13.671875 62.703125 7.8125 59.421875 
L 7.8125 69.390625 
Q 13.765625 71.78125 18.9375 73 
Q 24.125 74.21875 28.421875 74.21875 
Q 39.75 74.21875 46.484375 68.546875 
Q 53.21875 62.890625 53.21875 53.421875 
Q 53.21875 48.921875 51.53125 44.890625 
Q 49.859375 40.875 45.40625 35.40625 
Q 44.1875 33.984375 37.640625 27.21875 
Q 31.109375 20.453125 19.1875 8.296875 
z
" id="DejaVuSans-50"/>
       <path d="M 31.78125 66.40625 
Q 24.171875 66.40625 20.328125 58.90625 
Q 16.5 51.421875 16.5 36.375 
Q 16.5 21.390625 20.328125 13.890625 
Q 24.171875 6.390625 31.78125 6.390625 
Q 39.453125 6.390625 43.28125 13.890625 
Q 47.125 21.390625 47.125 36.375 
Q 47.125 51.421875 43.28125 58.90625 
Q 39.453125 66.40625 31.78125 66.40625 
z
M 31.78125 74.21875 
Q 44.046875 74.21875 50.515625 64.515625 
Q 56.984375 54.828125 56.984375 36.375 
Q 56.984375 17.96875 50.515625 8.265625 
Q 44.046875 -1.421875 31.78125 -1.421875 
Q 19.53125 -1.421875 13.0625 8.265625 
Q 6.59375 17.96875 6.59375 36.375 
Q 6.59375 54.828125 13.0625 64.515625 
Q 19.53125 74.21875 31.78125 74.21875 
z
" id="DejaVuSans-48"/>
       <path d="M 4.890625 31.390625 
L 31.203125 31.390625 
L 31.203125 23.390625 
L 4.890625 23.390625 
z
" id="DejaVuSans-45"/>
       <path d="M 12.40625 8.296875 
L 28.515625 8.296875 
L 28.515625 63.921875 
L 10.984375 60.40625 
L 10.984375 69.390625 
L 28.421875 72.90625 
L 38.28125 72.90625 
L 38.28125 8.296875 
L 54.390625 8.296875 
L 54.390625 0 
L 12.40625 0 
z
" id="DejaVuSans-49"/>
       <path d="M 37.796875 64.3125 
L 12.890625 25.390625 
L 37.796875 25.390625 
z
M 35.203125 72.90625 
L 47.609375 72.90625 
L 47.609375 25.390625 
L 58.015625 25.390625 
L 58.015625 17.1875 
L 47.609375 17.1875 
L 47.609375 0 
L 37.796875 0 
L 37.796875 17.1875 
L 4.890625 17.1875 
L 4.890625 26.703125 
z
" id="DejaVuSans-52"/>
      </defs>
      <g transform="translate(42.657468 416.316562)scale(0.1 -0.1)">
       <use xlink:href="#DejaVuSans-50"/>
       <use x="63.623047" xlink:href="#DejaVuSans-48"/>
       <use x="127.246094" xlink:href="#DejaVuSans-50"/>
       <use x="190.869141" xlink:href="#DejaVuSans-48"/>
       <use x="254.492188" xlink:href="#DejaVuSans-45"/>
       <use x="290.576172" xlink:href="#DejaVuSans-48"/>
       <use x="354.199219" xlink:href="#DejaVuSans-50"/>
       <use x="417.822266" xlink:href="#DejaVuSans-45"/>
       <use x="453.90625" xlink:href="#DejaVuSans-49"/>
       <use x="517.529297" xlink:href="#DejaVuSans-52"/>
      </g>
     </g>
    </g>
    <g id="xtick_2">
     <g id="line2d_3">
      <path clip-path="url(#pa9a996906b)" d="M 171.169825 401.718125 
L 171.169825 22.318125 
" style="fill:none;stroke:#808080;stroke-linecap:square;stroke-opacity:0.2;"/>
     </g>
     <g id="line2d_4">
      <g>
       <use style="stroke:#000000;stroke-width:0.8;" x="171.169825" xlink:href="#mb8b4b16574" y="401.718125"/>
      </g>
     </g>
     <g id="text_2">
      <!-- 2020-02-28 -->
      <defs>
       <path d="M 31.78125 34.625 
Q 24.75 34.625 20.71875 30.859375 
Q 16.703125 27.09375 16.703125 20.515625 
Q 16.703125 13.921875 20.71875 10.15625 
Q 24.75 6.390625 31.78125 6.390625 
Q 38.8125 6.390625 42.859375 10.171875 
Q 46.921875 13.96875 46.921875 20.515625 
Q 46.921875 27.09375 42.890625 30.859375 
Q 38.875 34.625 31.78125 34.625 
z
M 21.921875 38.8125 
Q 15.578125 40.375 12.03125 44.71875 
Q 8.5 49.078125 8.5 55.328125 
Q 8.5 64.0625 14.71875 69.140625 
Q 20.953125 74.21875 31.78125 74.21875 
Q 42.671875 74.21875 48.875 69.140625 
Q 55.078125 64.0625 55.078125 55.328125 
Q 55.078125 49.078125 51.53125 44.71875 
Q 48 40.375 41.703125 38.8125 
Q 48.828125 37.15625 52.796875 32.3125 
Q 56.78125 27.484375 56.78125 20.515625 
Q 56.78125 9.90625 50.3125 4.234375 
Q 43.84375 -1.421875 31.78125 -1.421875 
Q 19.734375 -1.421875 13.25 4.234375 
Q 6.78125 9.90625 6.78125 20.515625 
Q 6.78125 27.484375 10.78125 32.3125 
Q 14.796875 37.15625 21.921875 38.8125 
z
M 18.3125 54.390625 
Q 18.3125 48.734375 21.84375 45.5625 
Q 25.390625 42.390625 31.78125 42.390625 
Q 38.140625 42.390625 41.71875 45.5625 
Q 45.3125 48.734375 45.3125 54.390625 
Q 45.3125 60.0625 41.71875 63.234375 
Q 38.140625 66.40625 31.78125 66.40625 
Q 25.390625 66.40625 21.84375 63.234375 
Q 18.3125 60.0625 18.3125 54.390625 
z
" id="DejaVuSans-56"/>
      </defs>
      <g transform="translate(142.112013 416.316562)scale(0.1 -0.1)">
       <use xlink:href="#DejaVuSans-50"/>
       <use x="63.623047" xlink:href="#DejaVuSans-48"/>
       <use x="127.246094" xlink:href="#DejaVuSans-50"/>
       <use x="190.869141" xlink:href="#DejaVuSans-48"/>
       <use x="254.492188" xlink:href="#DejaVuSans-45"/>
       <use x="290.576172" xlink:href="#DejaVuSans-48"/>
       <use x="354.199219" xlink:href="#DejaVuSans-50"/>
       <use x="417.822266" xlink:href="#DejaVuSans-45"/>
       <use x="453.90625" xlink:href="#DejaVuSans-50"/>
       <use x="517.529297" xlink:href="#DejaVuSans-56"/>
      </g>
     </g>
    </g>
    <g id="xtick_3">
     <g id="line2d_5">
      <path clip-path="url(#pa9a996906b)" d="M 270.624371 401.718125 
L 270.624371 22.318125 
" style="fill:none;stroke:#808080;stroke-linecap:square;stroke-opacity:0.2;"/>
     </g>
     <g id="line2d_6">
      <g>
       <use style="stroke:#000000;stroke-width:0.8;" x="270.624371" xlink:href="#mb8b4b16574" y="401.718125"/>
      </g>
     </g>
     <g id="text_3">
      <!-- 2020-03-13 -->
      <defs>
       <path d="M 40.578125 39.3125 
Q 47.65625 37.796875 51.625 33 
Q 55.609375 28.21875 55.609375 21.1875 
Q 55.609375 10.40625 48.1875 4.484375 
Q 40.765625 -1.421875 27.09375 -1.421875 
Q 22.515625 -1.421875 17.65625 -0.515625 
Q 12.796875 0.390625 7.625 2.203125 
L 7.625 11.71875 
Q 11.71875 9.328125 16.59375 8.109375 
Q 21.484375 6.890625 26.8125 6.890625 
Q 36.078125 6.890625 40.9375 10.546875 
Q 45.796875 14.203125 45.796875 21.1875 
Q 45.796875 27.640625 41.28125 31.265625 
Q 36.765625 34.90625 28.71875 34.90625 
L 20.21875 34.90625 
L 20.21875 43.015625 
L 29.109375 43.015625 
Q 36.375 43.015625 40.234375 45.921875 
Q 44.09375 48.828125 44.09375 54.296875 
Q 44.09375 59.90625 40.109375 62.90625 
Q 36.140625 65.921875 28.71875 65.921875 
Q 24.65625 65.921875 20.015625 65.03125 
Q 15.375 64.15625 9.8125 62.3125 
L 9.8125 71.09375 
Q 15.4375 72.65625 20.34375 73.4375 
Q 25.25 74.21875 29.59375 74.21875 
Q 40.828125 74.21875 47.359375 69.109375 
Q 53.90625 64.015625 53.90625 55.328125 
Q 53.90625 49.265625 50.4375 45.09375 
Q 46.96875 40.921875 40.578125 39.3125 
z
" id="DejaVuSans-51"/>
      </defs>
      <g transform="translate(241.566558 416.316562)scale(0.1 -0.1)">
       <use xlink:href="#DejaVuSans-50"/>
       <use x="63.623047" xlink:href="#DejaVuSans-48"/>
       <use x="127.246094" xlink:href="#DejaVuSans-50"/>
       <use x="190.869141" xlink:href="#DejaVuSans-48"/>
       <use x="254.492188" xlink:href="#DejaVuSans-45"/>
       <use x="290.576172" xlink:href="#DejaVuSans-48"/>
       <use x="354.199219" xlink:href="#DejaVuSans-51"/>
       <use x="417.822266" xlink:href="#DejaVuSans-45"/>
       <use x="453.90625" xlink:href="#DejaVuSans-49"/>
       <use x="517.529297" xlink:href="#DejaVuSans-51"/>
      </g>
     </g>
    </g>
    <g id="xtick_4">
     <g id="line2d_7">
      <path clip-path="url(#pa9a996906b)" d="M 370.078916 401.718125 
L 370.078916 22.318125 
" style="fill:none;stroke:#808080;stroke-linecap:square;stroke-opacity:0.2;"/>
     </g>
     <g id="line2d_8">
      <g>
       <use style="stroke:#000000;stroke-width:0.8;" x="370.078916" xlink:href="#mb8b4b16574" y="401.718125"/>
      </g>
     </g>
     <g id="text_4">
      <!-- 2020-03-27 -->
      <defs>
       <path d="M 8.203125 72.90625 
L 55.078125 72.90625 
L 55.078125 68.703125 
L 28.609375 0 
L 18.3125 0 
L 43.21875 64.59375 
L 8.203125 64.59375 
z
" id="DejaVuSans-55"/>
      </defs>
      <g transform="translate(341.021104 416.316562)scale(0.1 -0.1)">
       <use xlink:href="#DejaVuSans-50"/>
       <use x="63.623047" xlink:href="#DejaVuSans-48"/>
       <use x="127.246094" xlink:href="#DejaVuSans-50"/>
       <use x="190.869141" xlink:href="#DejaVuSans-48"/>
       <use x="254.492188" xlink:href="#DejaVuSans-45"/>
       <use x="290.576172" xlink:href="#DejaVuSans-48"/>
       <use x="354.199219" xlink:href="#DejaVuSans-51"/>
       <use x="417.822266" xlink:href="#DejaVuSans-45"/>
       <use x="453.90625" xlink:href="#DejaVuSans-50"/>
       <use x="517.529297" xlink:href="#DejaVuSans-55"/>
      </g>
     </g>
    </g>
    <g id="xtick_5">
     <g id="line2d_9">
      <path clip-path="url(#pa9a996906b)" d="M 469.533462 401.718125 
L 469.533462 22.318125 
" style="fill:none;stroke:#808080;stroke-linecap:square;stroke-opacity:0.2;"/>
     </g>
     <g id="line2d_10">
      <g>
       <use style="stroke:#000000;stroke-width:0.8;" x="469.533462" xlink:href="#mb8b4b16574" y="401.718125"/>
      </g>
     </g>
     <g id="text_5">
      <!-- 2020-04-10 -->
      <g transform="translate(440.475649 416.316562)scale(0.1 -0.1)">
       <use xlink:href="#DejaVuSans-50"/>
       <use x="63.623047" xlink:href="#DejaVuSans-48"/>
       <use x="127.246094" xlink:href="#DejaVuSans-50"/>
       <use x="190.869141" xlink:href="#DejaVuSans-48"/>
       <use x="254.492188" xlink:href="#DejaVuSans-45"/>
       <use x="290.576172" xlink:href="#DejaVuSans-48"/>
       <use x="354.199219" xlink:href="#DejaVuSans-52"/>
       <use x="417.822266" xlink:href="#DejaVuSans-45"/>
       <use x="453.90625" xlink:href="#DejaVuSans-49"/>
       <use x="517.529297" xlink:href="#DejaVuSans-48"/>
      </g>
     </g>
    </g>
    <g id="xtick_6">
     <g id="line2d_11">
      <path clip-path="url(#pa9a996906b)" d="M 568.988007 401.718125 
L 568.988007 22.318125 
" style="fill:none;stroke:#808080;stroke-linecap:square;stroke-opacity:0.2;"/>
     </g>
     <g id="line2d_12">
      <g>
       <use style="stroke:#000000;stroke-width:0.8;" x="568.988007" xlink:href="#mb8b4b16574" y="401.718125"/>
      </g>
     </g>
     <g id="text_6">
      <!-- 2020-04-24 -->
      <g transform="translate(539.930195 416.316562)scale(0.1 -0.1)">
       <use xlink:href="#DejaVuSans-50"/>
       <use x="63.623047" xlink:href="#DejaVuSans-48"/>
       <use x="127.246094" xlink:href="#DejaVuSans-50"/>
       <use x="190.869141" xlink:href="#DejaVuSans-48"/>
       <use x="254.492188" xlink:href="#DejaVuSans-45"/>
       <use x="290.576172" xlink:href="#DejaVuSans-48"/>
       <use x="354.199219" xlink:href="#DejaVuSans-52"/>
       <use x="417.822266" xlink:href="#DejaVuSans-45"/>
       <use x="453.90625" xlink:href="#DejaVuSans-50"/>
       <use x="517.529297" xlink:href="#DejaVuSans-52"/>
      </g>
     </g>
    </g>
    <g id="xtick_7">
     <g id="line2d_13">
      <path clip-path="url(#pa9a996906b)" d="M 668.442553 401.718125 
L 668.442553 22.318125 
" style="fill:none;stroke:#808080;stroke-linecap:square;stroke-opacity:0.2;"/>
     </g>
     <g id="line2d_14">
      <g>
       <use style="stroke:#000000;stroke-width:0.8;" x="668.442553" xlink:href="#mb8b4b16574" y="401.718125"/>
      </g>
     </g>
     <g id="text_7">
      <!-- 2020-05-08 -->
      <defs>
       <path d="M 10.796875 72.90625 
L 49.515625 72.90625 
L 49.515625 64.59375 
L 19.828125 64.59375 
L 19.828125 46.734375 
Q 21.96875 47.46875 24.109375 47.828125 
Q 26.265625 48.1875 28.421875 48.1875 
Q 40.625 48.1875 47.75 41.5 
Q 54.890625 34.8125 54.890625 23.390625 
Q 54.890625 11.625 47.5625 5.09375 
Q 40.234375 -1.421875 26.90625 -1.421875 
Q 22.3125 -1.421875 17.546875 -0.640625 
Q 12.796875 0.140625 7.71875 1.703125 
L 7.71875 11.625 
Q 12.109375 9.234375 16.796875 8.0625 
Q 21.484375 6.890625 26.703125 6.890625 
Q 35.15625 6.890625 40.078125 11.328125 
Q 45.015625 15.765625 45.015625 23.390625 
Q 45.015625 31 40.078125 35.4375 
Q 35.15625 39.890625 26.703125 39.890625 
Q 22.75 39.890625 18.8125 39.015625 
Q 14.890625 38.140625 10.796875 36.28125 
z
" id="DejaVuSans-53"/>
      </defs>
      <g transform="translate(639.38474 416.316562)scale(0.1 -0.1)">
       <use xlink:href="#DejaVuSans-50"/>
       <use x="63.623047" xlink:href="#DejaVuSans-48"/>
       <use x="127.246094" xlink:href="#DejaVuSans-50"/>
       <use x="190.869141" xlink:href="#DejaVuSans-48"/>
       <use x="254.492188" xlink:href="#DejaVuSans-45"/>
       <use x="290.576172" xlink:href="#DejaVuSans-48"/>
       <use x="354.199219" xlink:href="#DejaVuSans-53"/>
       <use x="417.822266" xlink:href="#DejaVuSans-45"/>
       <use x="453.90625" xlink:href="#DejaVuSans-48"/>
       <use x="517.529297" xlink:href="#DejaVuSans-56"/>
      </g>
     </g>
    </g>
    <g id="text_8">
     <!-- Date -->
     <defs>
      <path d="M 19.671875 64.796875 
L 19.671875 8.109375 
L 31.59375 8.109375 
Q 46.6875 8.109375 53.6875 14.9375 
Q 60.6875 21.78125 60.6875 36.53125 
Q 60.6875 51.171875 53.6875 57.984375 
Q 46.6875 64.796875 31.59375 64.796875 
z
M 9.8125 72.90625 
L 30.078125 72.90625 
Q 51.265625 72.90625 61.171875 64.09375 
Q 71.09375 55.28125 71.09375 36.53125 
Q 71.09375 17.671875 61.125 8.828125 
Q 51.171875 0 30.078125 0 
L 9.8125 0 
z
" id="DejaVuSans-68"/>
      <path d="M 34.28125 27.484375 
Q 23.390625 27.484375 19.1875 25 
Q 14.984375 22.515625 14.984375 16.5 
Q 14.984375 11.71875 18.140625 8.90625 
Q 21.296875 6.109375 26.703125 6.109375 
Q 34.1875 6.109375 38.703125 11.40625 
Q 43.21875 16.703125 43.21875 25.484375 
L 43.21875 27.484375 
z
M 52.203125 31.203125 
L 52.203125 0 
L 43.21875 0 
L 43.21875 8.296875 
Q 40.140625 3.328125 35.546875 0.953125 
Q 30.953125 -1.421875 24.3125 -1.421875 
Q 15.921875 -1.421875 10.953125 3.296875 
Q 6 8.015625 6 15.921875 
Q 6 25.140625 12.171875 29.828125 
Q 18.359375 34.515625 30.609375 34.515625 
L 43.21875 34.515625 
L 43.21875 35.40625 
Q 43.21875 41.609375 39.140625 45 
Q 35.0625 48.390625 27.6875 48.390625 
Q 23 48.390625 18.546875 47.265625 
Q 14.109375 46.140625 10.015625 43.890625 
L 10.015625 52.203125 
Q 14.9375 54.109375 19.578125 55.046875 
Q 24.21875 56 28.609375 56 
Q 40.484375 56 46.34375 49.84375 
Q 52.203125 43.703125 52.203125 31.203125 
z
" id="DejaVuSans-97"/>
      <path d="M 18.3125 70.21875 
L 18.3125 54.6875 
L 36.8125 54.6875 
L 36.8125 47.703125 
L 18.3125 47.703125 
L 18.3125 18.015625 
Q 18.3125 11.328125 20.140625 9.421875 
Q 21.96875 7.515625 27.59375 7.515625 
L 36.8125 7.515625 
L 36.8125 0 
L 27.59375 0 
Q 17.1875 0 13.234375 3.875 
Q 9.28125 7.765625 9.28125 18.015625 
L 9.28125 47.703125 
L 2.6875 47.703125 
L 2.6875 54.6875 
L 9.28125 54.6875 
L 9.28125 70.21875 
z
" id="DejaVuSans-116"/>
      <path d="M 56.203125 29.59375 
L 56.203125 25.203125 
L 14.890625 25.203125 
Q 15.484375 15.921875 20.484375 11.0625 
Q 25.484375 6.203125 34.421875 6.203125 
Q 39.59375 6.203125 44.453125 7.46875 
Q 49.3125 8.734375 54.109375 11.28125 
L 54.109375 2.78125 
Q 49.265625 0.734375 44.1875 -0.34375 
Q 39.109375 -1.421875 33.890625 -1.421875 
Q 20.796875 -1.421875 13.15625 6.1875 
Q 5.515625 13.8125 5.515625 26.8125 
Q 5.515625 40.234375 12.765625 48.109375 
Q 20.015625 56 32.328125 56 
Q 43.359375 56 49.78125 48.890625 
Q 56.203125 41.796875 56.203125 29.59375 
z
M 47.21875 32.234375 
Q 47.125 39.59375 43.09375 43.984375 
Q 39.0625 48.390625 32.421875 48.390625 
Q 24.90625 48.390625 20.390625 44.140625 
Q 15.875 39.890625 15.1875 32.171875 
z
" id="DejaVuSans-101"/>
     </defs>
     <g transform="translate(365.232031 429.994687)scale(0.1 -0.1)">
      <use xlink:href="#DejaVuSans-68"/>
      <use x="77.001953" xlink:href="#DejaVuSans-97"/>
      <use x="138.28125" xlink:href="#DejaVuSans-116"/>
      <use x="177.490234" xlink:href="#DejaVuSans-101"/>
     </g>
    </g>
   </g>
   <g id="matplotlib.axis_2">
    <g id="ytick_1">
     <g id="line2d_15">
      <path clip-path="url(#pa9a996906b)" d="M 48.982813 400.697934 
L 705.382813 400.697934 
" style="fill:none;stroke:#808080;stroke-linecap:square;stroke-opacity:0.2;"/>
     </g>
     <g id="line2d_16">
      <defs>
       <path d="M 0 0 
L -3.5 0 
" id="m0851f737a7" style="stroke:#000000;stroke-width:0.8;"/>
      </defs>
      <g>
       <use style="stroke:#000000;stroke-width:0.8;" x="48.982813" xlink:href="#m0851f737a7" y="400.697934"/>
      </g>
     </g>
     <g id="text_9">
      <!-- −80 -->
      <defs>
       <path d="M 10.59375 35.5 
L 73.1875 35.5 
L 73.1875 27.203125 
L 10.59375 27.203125 
z
" id="DejaVuSans-8722"/>
      </defs>
      <g transform="translate(20.878125 404.497153)scale(0.1 -0.1)">
       <use xlink:href="#DejaVuSans-8722"/>
       <use x="83.789062" xlink:href="#DejaVuSans-56"/>
       <use x="147.412109" xlink:href="#DejaVuSans-48"/>
      </g>
     </g>
    </g>
    <g id="ytick_2">
     <g id="line2d_17">
      <path clip-path="url(#pa9a996906b)" d="M 48.982813 319.571616 
L 705.382813 319.571616 
" style="fill:none;stroke:#808080;stroke-linecap:square;stroke-opacity:0.2;"/>
     </g>
     <g id="line2d_18">
      <g>
       <use style="stroke:#000000;stroke-width:0.8;" x="48.982813" xlink:href="#m0851f737a7" y="319.571616"/>
      </g>
     </g>
     <g id="text_10">
      <!-- −60 -->
      <defs>
       <path d="M 33.015625 40.375 
Q 26.375 40.375 22.484375 35.828125 
Q 18.609375 31.296875 18.609375 23.390625 
Q 18.609375 15.53125 22.484375 10.953125 
Q 26.375 6.390625 33.015625 6.390625 
Q 39.65625 6.390625 43.53125 10.953125 
Q 47.40625 15.53125 47.40625 23.390625 
Q 47.40625 31.296875 43.53125 35.828125 
Q 39.65625 40.375 33.015625 40.375 
z
M 52.59375 71.296875 
L 52.59375 62.3125 
Q 48.875 64.0625 45.09375 64.984375 
Q 41.3125 65.921875 37.59375 65.921875 
Q 27.828125 65.921875 22.671875 59.328125 
Q 17.53125 52.734375 16.796875 39.40625 
Q 19.671875 43.65625 24.015625 45.921875 
Q 28.375 48.1875 33.59375 48.1875 
Q 44.578125 48.1875 50.953125 41.515625 
Q 57.328125 34.859375 57.328125 23.390625 
Q 57.328125 12.15625 50.6875 5.359375 
Q 44.046875 -1.421875 33.015625 -1.421875 
Q 20.359375 -1.421875 13.671875 8.265625 
Q 6.984375 17.96875 6.984375 36.375 
Q 6.984375 53.65625 15.1875 63.9375 
Q 23.390625 74.21875 37.203125 74.21875 
Q 40.921875 74.21875 44.703125 73.484375 
Q 48.484375 72.75 52.59375 71.296875 
z
" id="DejaVuSans-54"/>
      </defs>
      <g transform="translate(20.878125 323.370835)scale(0.1 -0.1)">
       <use xlink:href="#DejaVuSans-8722"/>
       <use x="83.789062" xlink:href="#DejaVuSans-54"/>
       <use x="147.412109" xlink:href="#DejaVuSans-48"/>
      </g>
     </g>
    </g>
    <g id="ytick_3">
     <g id="line2d_19">
      <path clip-path="url(#pa9a996906b)" d="M 48.982813 238.445297 
L 705.382813 238.445297 
" style="fill:none;stroke:#808080;stroke-linecap:square;stroke-opacity:0.2;"/>
     </g>
     <g id="line2d_20">
      <g>
       <use style="stroke:#000000;stroke-width:0.8;" x="48.982813" xlink:href="#m0851f737a7" y="238.445297"/>
      </g>
     </g>
     <g id="text_11">
      <!-- −40 -->
      <g transform="translate(20.878125 242.244516)scale(0.1 -0.1)">
       <use xlink:href="#DejaVuSans-8722"/>
       <use x="83.789062" xlink:href="#DejaVuSans-52"/>
       <use x="147.412109" xlink:href="#DejaVuSans-48"/>
      </g>
     </g>
    </g>
    <g id="ytick_4">
     <g id="line2d_21">
      <path clip-path="url(#pa9a996906b)" d="M 48.982813 157.318979 
L 705.382813 157.318979 
" style="fill:none;stroke:#808080;stroke-linecap:square;stroke-opacity:0.2;"/>
     </g>
     <g id="line2d_22">
      <g>
       <use style="stroke:#000000;stroke-width:0.8;" x="48.982813" xlink:href="#m0851f737a7" y="157.318979"/>
      </g>
     </g>
     <g id="text_12">
      <!-- −20 -->
      <g transform="translate(20.878125 161.118198)scale(0.1 -0.1)">
       <use xlink:href="#DejaVuSans-8722"/>
       <use x="83.789062" xlink:href="#DejaVuSans-50"/>
       <use x="147.412109" xlink:href="#DejaVuSans-48"/>
      </g>
     </g>
    </g>
    <g id="ytick_5">
     <g id="line2d_23">
      <path clip-path="url(#pa9a996906b)" d="M 48.982813 76.192661 
L 705.382813 76.192661 
" style="fill:none;stroke:#808080;stroke-linecap:square;stroke-opacity:0.2;"/>
     </g>
     <g id="line2d_24">
      <g>
       <use style="stroke:#000000;stroke-width:0.8;" x="48.982813" xlink:href="#m0851f737a7" y="76.192661"/>
      </g>
     </g>
     <g id="text_13">
      <!-- 0 -->
      <g transform="translate(35.620313 79.99188)scale(0.1 -0.1)">
       <use xlink:href="#DejaVuSans-48"/>
      </g>
     </g>
    </g>
    <g id="text_14">
     <!-- Retail and Recreation Mobility -->
     <defs>
      <path d="M 44.390625 34.1875 
Q 47.5625 33.109375 50.5625 29.59375 
Q 53.5625 26.078125 56.59375 19.921875 
L 66.609375 0 
L 56 0 
L 46.6875 18.703125 
Q 43.0625 26.03125 39.671875 28.421875 
Q 36.28125 30.8125 30.421875 30.8125 
L 19.671875 30.8125 
L 19.671875 0 
L 9.8125 0 
L 9.8125 72.90625 
L 32.078125 72.90625 
Q 44.578125 72.90625 50.734375 67.671875 
Q 56.890625 62.453125 56.890625 51.90625 
Q 56.890625 45.015625 53.6875 40.46875 
Q 50.484375 35.9375 44.390625 34.1875 
z
M 19.671875 64.796875 
L 19.671875 38.921875 
L 32.078125 38.921875 
Q 39.203125 38.921875 42.84375 42.21875 
Q 46.484375 45.515625 46.484375 51.90625 
Q 46.484375 58.296875 42.84375 61.546875 
Q 39.203125 64.796875 32.078125 64.796875 
z
" id="DejaVuSans-82"/>
      <path d="M 9.421875 54.6875 
L 18.40625 54.6875 
L 18.40625 0 
L 9.421875 0 
z
M 9.421875 75.984375 
L 18.40625 75.984375 
L 18.40625 64.59375 
L 9.421875 64.59375 
z
" id="DejaVuSans-105"/>
      <path d="M 9.421875 75.984375 
L 18.40625 75.984375 
L 18.40625 0 
L 9.421875 0 
z
" id="DejaVuSans-108"/>
      <path id="DejaVuSans-32"/>
      <path d="M 54.890625 33.015625 
L 54.890625 0 
L 45.90625 0 
L 45.90625 32.71875 
Q 45.90625 40.484375 42.875 44.328125 
Q 39.84375 48.1875 33.796875 48.1875 
Q 26.515625 48.1875 22.3125 43.546875 
Q 18.109375 38.921875 18.109375 30.90625 
L 18.109375 0 
L 9.078125 0 
L 9.078125 54.6875 
L 18.109375 54.6875 
L 18.109375 46.1875 
Q 21.34375 51.125 25.703125 53.5625 
Q 30.078125 56 35.796875 56 
Q 45.21875 56 50.046875 50.171875 
Q 54.890625 44.34375 54.890625 33.015625 
z
" id="DejaVuSans-110"/>
      <path d="M 45.40625 46.390625 
L 45.40625 75.984375 
L 54.390625 75.984375 
L 54.390625 0 
L 45.40625 0 
L 45.40625 8.203125 
Q 42.578125 3.328125 38.25 0.953125 
Q 33.9375 -1.421875 27.875 -1.421875 
Q 17.96875 -1.421875 11.734375 6.484375 
Q 5.515625 14.40625 5.515625 27.296875 
Q 5.515625 40.1875 11.734375 48.09375 
Q 17.96875 56 27.875 56 
Q 33.9375 56 38.25 53.625 
Q 42.578125 51.265625 45.40625 46.390625 
z
M 14.796875 27.296875 
Q 14.796875 17.390625 18.875 11.75 
Q 22.953125 6.109375 30.078125 6.109375 
Q 37.203125 6.109375 41.296875 11.75 
Q 45.40625 17.390625 45.40625 27.296875 
Q 45.40625 37.203125 41.296875 42.84375 
Q 37.203125 48.484375 30.078125 48.484375 
Q 22.953125 48.484375 18.875 42.84375 
Q 14.796875 37.203125 14.796875 27.296875 
z
" id="DejaVuSans-100"/>
      <path d="M 48.78125 52.59375 
L 48.78125 44.1875 
Q 44.96875 46.296875 41.140625 47.34375 
Q 37.3125 48.390625 33.40625 48.390625 
Q 24.65625 48.390625 19.8125 42.84375 
Q 14.984375 37.3125 14.984375 27.296875 
Q 14.984375 17.28125 19.8125 11.734375 
Q 24.65625 6.203125 33.40625 6.203125 
Q 37.3125 6.203125 41.140625 7.25 
Q 44.96875 8.296875 48.78125 10.40625 
L 48.78125 2.09375 
Q 45.015625 0.34375 40.984375 -0.53125 
Q 36.96875 -1.421875 32.421875 -1.421875 
Q 20.0625 -1.421875 12.78125 6.34375 
Q 5.515625 14.109375 5.515625 27.296875 
Q 5.515625 40.671875 12.859375 48.328125 
Q 20.21875 56 33.015625 56 
Q 37.15625 56 41.109375 55.140625 
Q 45.0625 54.296875 48.78125 52.59375 
z
" id="DejaVuSans-99"/>
      <path d="M 41.109375 46.296875 
Q 39.59375 47.171875 37.8125 47.578125 
Q 36.03125 48 33.890625 48 
Q 26.265625 48 22.1875 43.046875 
Q 18.109375 38.09375 18.109375 28.8125 
L 18.109375 0 
L 9.078125 0 
L 9.078125 54.6875 
L 18.109375 54.6875 
L 18.109375 46.1875 
Q 20.953125 51.171875 25.484375 53.578125 
Q 30.03125 56 36.53125 56 
Q 37.453125 56 38.578125 55.875 
Q 39.703125 55.765625 41.0625 55.515625 
z
" id="DejaVuSans-114"/>
      <path d="M 30.609375 48.390625 
Q 23.390625 48.390625 19.1875 42.75 
Q 14.984375 37.109375 14.984375 27.296875 
Q 14.984375 17.484375 19.15625 11.84375 
Q 23.34375 6.203125 30.609375 6.203125 
Q 37.796875 6.203125 41.984375 11.859375 
Q 46.1875 17.53125 46.1875 27.296875 
Q 46.1875 37.015625 41.984375 42.703125 
Q 37.796875 48.390625 30.609375 48.390625 
z
M 30.609375 56 
Q 42.328125 56 49.015625 48.375 
Q 55.71875 40.765625 55.71875 27.296875 
Q 55.71875 13.875 49.015625 6.21875 
Q 42.328125 -1.421875 30.609375 -1.421875 
Q 18.84375 -1.421875 12.171875 6.21875 
Q 5.515625 13.875 5.515625 27.296875 
Q 5.515625 40.765625 12.171875 48.375 
Q 18.84375 56 30.609375 56 
z
" id="DejaVuSans-111"/>
      <path d="M 9.8125 72.90625 
L 24.515625 72.90625 
L 43.109375 23.296875 
L 61.8125 72.90625 
L 76.515625 72.90625 
L 76.515625 0 
L 66.890625 0 
L 66.890625 64.015625 
L 48.09375 14.015625 
L 38.1875 14.015625 
L 19.390625 64.015625 
L 19.390625 0 
L 9.8125 0 
z
" id="DejaVuSans-77"/>
      <path d="M 48.6875 27.296875 
Q 48.6875 37.203125 44.609375 42.84375 
Q 40.53125 48.484375 33.40625 48.484375 
Q 26.265625 48.484375 22.1875 42.84375 
Q 18.109375 37.203125 18.109375 27.296875 
Q 18.109375 17.390625 22.1875 11.75 
Q 26.265625 6.109375 33.40625 6.109375 
Q 40.53125 6.109375 44.609375 11.75 
Q 48.6875 17.390625 48.6875 27.296875 
z
M 18.109375 46.390625 
Q 20.953125 51.265625 25.265625 53.625 
Q 29.59375 56 35.59375 56 
Q 45.5625 56 51.78125 48.09375 
Q 58.015625 40.1875 58.015625 27.296875 
Q 58.015625 14.40625 51.78125 6.484375 
Q 45.5625 -1.421875 35.59375 -1.421875 
Q 29.59375 -1.421875 25.265625 0.953125 
Q 20.953125 3.328125 18.109375 8.203125 
L 18.109375 0 
L 9.078125 0 
L 9.078125 75.984375 
L 18.109375 75.984375 
z
" id="DejaVuSans-98"/>
      <path d="M 32.171875 -5.078125 
Q 28.375 -14.84375 24.75 -17.8125 
Q 21.140625 -20.796875 15.09375 -20.796875 
L 7.90625 -20.796875 
L 7.90625 -13.28125 
L 13.1875 -13.28125 
Q 16.890625 -13.28125 18.9375 -11.515625 
Q 21 -9.765625 23.484375 -3.21875 
L 25.09375 0.875 
L 2.984375 54.6875 
L 12.5 54.6875 
L 29.59375 11.921875 
L 46.6875 54.6875 
L 56.203125 54.6875 
z
" id="DejaVuSans-121"/>
     </defs>
     <g transform="translate(14.798438 286.690781)rotate(-90)scale(0.1 -0.1)">
      <use xlink:href="#DejaVuSans-82"/>
      <use x="64.982422" xlink:href="#DejaVuSans-101"/>
      <use x="126.505859" xlink:href="#DejaVuSans-116"/>
      <use x="165.714844" xlink:href="#DejaVuSans-97"/>
      <use x="226.994141" xlink:href="#DejaVuSans-105"/>
      <use x="254.777344" xlink:href="#DejaVuSans-108"/>
      <use x="282.560547" xlink:href="#DejaVuSans-32"/>
      <use x="314.347656" xlink:href="#DejaVuSans-97"/>
      <use x="375.626953" xlink:href="#DejaVuSans-110"/>
      <use x="439.005859" xlink:href="#DejaVuSans-100"/>
      <use x="502.482422" xlink:href="#DejaVuSans-32"/>
      <use x="534.269531" xlink:href="#DejaVuSans-82"/>
      <use x="599.251953" xlink:href="#DejaVuSans-101"/>
      <use x="660.775391" xlink:href="#DejaVuSans-99"/>
      <use x="715.755859" xlink:href="#DejaVuSans-114"/>
      <use x="754.619141" xlink:href="#DejaVuSans-101"/>
      <use x="816.142578" xlink:href="#DejaVuSans-97"/>
      <use x="877.421875" xlink:href="#DejaVuSans-116"/>
      <use x="916.630859" xlink:href="#DejaVuSans-105"/>
      <use x="944.414062" xlink:href="#DejaVuSans-111"/>
      <use x="1005.595703" xlink:href="#DejaVuSans-110"/>
      <use x="1068.974609" xlink:href="#DejaVuSans-32"/>
      <use x="1100.761719" xlink:href="#DejaVuSans-77"/>
      <use x="1187.041016" xlink:href="#DejaVuSans-111"/>
      <use x="1248.222656" xlink:href="#DejaVuSans-98"/>
      <use x="1311.699219" xlink:href="#DejaVuSans-105"/>
      <use x="1339.482422" xlink:href="#DejaVuSans-108"/>
      <use x="1367.265625" xlink:href="#DejaVuSans-105"/>
      <use x="1395.048828" xlink:href="#DejaVuSans-116"/>
      <use x="1434.257812" xlink:href="#DejaVuSans-121"/>
     </g>
    </g>
   </g>
   <g id="line2d_25">
    <defs>
     <path d="M 0 1.5 
C 0.397805 1.5 0.77937 1.341951 1.06066 1.06066 
C 1.341951 0.77937 1.5 0.397805 1.5 0 
C 1.5 -0.397805 1.341951 -0.77937 1.06066 -1.06066 
C 0.77937 -1.341951 0.397805 -1.5 0 -1.5 
C -0.397805 -1.5 -0.77937 -1.341951 -1.06066 -1.06066 
C -1.341951 -0.77937 -1.5 -0.397805 -1.5 0 
C -1.5 0.397805 -1.341951 0.77937 -1.06066 1.06066 
C -0.77937 1.341951 -0.397805 1.5 0 1.5 
z
" id="mbe024718e2" style="stroke:#000000;"/>
    </defs>
    <g clip-path="url(#pa9a996906b)">
     <use style="stroke:#000000;" x="78.819176" xlink:href="#mbe024718e2" y="59.967397"/>
     <use style="stroke:#000000;" x="85.923072" xlink:href="#mbe024718e2" y="64.023713"/>
     <use style="stroke:#000000;" x="93.026968" xlink:href="#mbe024718e2" y="80.248977"/>
     <use style="stroke:#000000;" x="100.130864" xlink:href="#mbe024718e2" y="88.361609"/>
     <use style="stroke:#000000;" x="107.234761" xlink:href="#mbe024718e2" y="80.248977"/>
     <use style="stroke:#000000;" x="114.338657" xlink:href="#mbe024718e2" y="76.192661"/>
     <use style="stroke:#000000;" x="121.442553" xlink:href="#mbe024718e2" y="64.023713"/>
     <use style="stroke:#000000;" x="128.546449" xlink:href="#mbe024718e2" y="55.911081"/>
     <use style="stroke:#000000;" x="135.650345" xlink:href="#mbe024718e2" y="64.023713"/>
     <use style="stroke:#000000;" x="142.754241" xlink:href="#mbe024718e2" y="80.248977"/>
     <use style="stroke:#000000;" x="149.858137" xlink:href="#mbe024718e2" y="88.361609"/>
     <use style="stroke:#000000;" x="156.962033" xlink:href="#mbe024718e2" y="80.248977"/>
     <use style="stroke:#000000;" x="164.065929" xlink:href="#mbe024718e2" y="76.192661"/>
     <use style="stroke:#000000;" x="171.169825" xlink:href="#mbe024718e2" y="59.967397"/>
     <use style="stroke:#000000;" x="178.273722" xlink:href="#mbe024718e2" y="51.854765"/>
     <use style="stroke:#000000;" x="185.377618" xlink:href="#mbe024718e2" y="59.967397"/>
     <use style="stroke:#000000;" x="192.481514" xlink:href="#mbe024718e2" y="76.192661"/>
     <use style="stroke:#000000;" x="199.58541" xlink:href="#mbe024718e2" y="84.305293"/>
     <use style="stroke:#000000;" x="206.689306" xlink:href="#mbe024718e2" y="76.192661"/>
     <use style="stroke:#000000;" x="213.793202" xlink:href="#mbe024718e2" y="84.305293"/>
     <use style="stroke:#000000;" x="220.897098" xlink:href="#mbe024718e2" y="64.023713"/>
     <use style="stroke:#000000;" x="228.000994" xlink:href="#mbe024718e2" y="64.023713"/>
     <use style="stroke:#000000;" x="235.10489" xlink:href="#mbe024718e2" y="64.023713"/>
     <use style="stroke:#000000;" x="242.208787" xlink:href="#mbe024718e2" y="88.361609"/>
     <use style="stroke:#000000;" x="249.312683" xlink:href="#mbe024718e2" y="84.305293"/>
     <use style="stroke:#000000;" x="256.416579" xlink:href="#mbe024718e2" y="80.248977"/>
     <use style="stroke:#000000;" x="263.520475" xlink:href="#mbe024718e2" y="80.248977"/>
     <use style="stroke:#000000;" x="270.624371" xlink:href="#mbe024718e2" y="72.136345"/>
     <use style="stroke:#000000;" x="277.728267" xlink:href="#mbe024718e2" y="80.248977"/>
     <use style="stroke:#000000;" x="284.832163" xlink:href="#mbe024718e2" y="84.305293"/>
     <use style="stroke:#000000;" x="291.936059" xlink:href="#mbe024718e2" y="80.248977"/>
     <use style="stroke:#000000;" x="299.039955" xlink:href="#mbe024718e2" y="96.47424"/>
     <use style="stroke:#000000;" x="306.143851" xlink:href="#mbe024718e2" y="104.586872"/>
     <use style="stroke:#000000;" x="313.247748" xlink:href="#mbe024718e2" y="116.75582"/>
     <use style="stroke:#000000;" x="320.351644" xlink:href="#mbe024718e2" y="124.868452"/>
     <use style="stroke:#000000;" x="327.45554" xlink:href="#mbe024718e2" y="145.150031"/>
     <use style="stroke:#000000;" x="334.559436" xlink:href="#mbe024718e2" y="149.206347"/>
     <use style="stroke:#000000;" x="341.663332" xlink:href="#mbe024718e2" y="145.150031"/>
     <use style="stroke:#000000;" x="348.767228" xlink:href="#mbe024718e2" y="197.882138"/>
     <use style="stroke:#000000;" x="355.871124" xlink:href="#mbe024718e2" y="201.938454"/>
     <use style="stroke:#000000;" x="362.97502" xlink:href="#mbe024718e2" y="214.107402"/>
     <use style="stroke:#000000;" x="370.078916" xlink:href="#mbe024718e2" y="218.163718"/>
     <use style="stroke:#000000;" x="377.182812" xlink:href="#mbe024718e2" y="242.501613"/>
     <use style="stroke:#000000;" x="384.286709" xlink:href="#mbe024718e2" y="258.726877"/>
     <use style="stroke:#000000;" x="391.390605" xlink:href="#mbe024718e2" y="234.388982"/>
     <use style="stroke:#000000;" x="398.494501" xlink:href="#mbe024718e2" y="242.501613"/>
     <use style="stroke:#000000;" x="405.598397" xlink:href="#mbe024718e2" y="238.445297"/>
     <use style="stroke:#000000;" x="412.702293" xlink:href="#mbe024718e2" y="246.557929"/>
     <use style="stroke:#000000;" x="419.806189" xlink:href="#mbe024718e2" y="238.445297"/>
     <use style="stroke:#000000;" x="426.910085" xlink:href="#mbe024718e2" y="254.670561"/>
     <use style="stroke:#000000;" x="434.013981" xlink:href="#mbe024718e2" y="254.670561"/>
     <use style="stroke:#000000;" x="441.117877" xlink:href="#mbe024718e2" y="226.27635"/>
     <use style="stroke:#000000;" x="448.221774" xlink:href="#mbe024718e2" y="230.332666"/>
     <use style="stroke:#000000;" x="455.32567" xlink:href="#mbe024718e2" y="218.163718"/>
     <use style="stroke:#000000;" x="462.429566" xlink:href="#mbe024718e2" y="189.769506"/>
     <use style="stroke:#000000;" x="469.533462" xlink:href="#mbe024718e2" y="384.47267"/>
     <use style="stroke:#000000;" x="476.637358" xlink:href="#mbe024718e2" y="238.445297"/>
     <use style="stroke:#000000;" x="483.741254" xlink:href="#mbe024718e2" y="311.458984"/>
     <use style="stroke:#000000;" x="490.84515" xlink:href="#mbe024718e2" y="258.726877"/>
     <use style="stroke:#000000;" x="497.949046" xlink:href="#mbe024718e2" y="226.27635"/>
     <use style="stroke:#000000;" x="505.052942" xlink:href="#mbe024718e2" y="226.27635"/>
     <use style="stroke:#000000;" x="512.156838" xlink:href="#mbe024718e2" y="234.388982"/>
     <use style="stroke:#000000;" x="519.260735" xlink:href="#mbe024718e2" y="226.27635"/>
     <use style="stroke:#000000;" x="526.364631" xlink:href="#mbe024718e2" y="250.614245"/>
     <use style="stroke:#000000;" x="533.468527" xlink:href="#mbe024718e2" y="258.726877"/>
     <use style="stroke:#000000;" x="540.572423" xlink:href="#mbe024718e2" y="234.388982"/>
     <use style="stroke:#000000;" x="547.676319" xlink:href="#mbe024718e2" y="234.388982"/>
     <use style="stroke:#000000;" x="554.780215" xlink:href="#mbe024718e2" y="230.332666"/>
     <use style="stroke:#000000;" x="561.884111" xlink:href="#mbe024718e2" y="234.388982"/>
     <use style="stroke:#000000;" x="568.988007" xlink:href="#mbe024718e2" y="222.220034"/>
     <use style="stroke:#000000;" x="576.091903" xlink:href="#mbe024718e2" y="287.121088"/>
     <use style="stroke:#000000;" x="583.1958" xlink:href="#mbe024718e2" y="222.220034"/>
     <use style="stroke:#000000;" x="590.299696" xlink:href="#mbe024718e2" y="222.220034"/>
     <use style="stroke:#000000;" x="597.403592" xlink:href="#mbe024718e2" y="222.220034"/>
     <use style="stroke:#000000;" x="604.507488" xlink:href="#mbe024718e2" y="230.332666"/>
     <use style="stroke:#000000;" x="611.611384" xlink:href="#mbe024718e2" y="234.388982"/>
     <use style="stroke:#000000;" x="618.71528" xlink:href="#mbe024718e2" y="218.163718"/>
     <use style="stroke:#000000;" x="625.819176" xlink:href="#mbe024718e2" y="210.051086"/>
     <use style="stroke:#000000;" x="632.923072" xlink:href="#mbe024718e2" y="214.107402"/>
     <use style="stroke:#000000;" x="640.026968" xlink:href="#mbe024718e2" y="234.388982"/>
     <use style="stroke:#000000;" x="647.130864" xlink:href="#mbe024718e2" y="205.99477"/>
     <use style="stroke:#000000;" x="654.234761" xlink:href="#mbe024718e2" y="210.051086"/>
     <use style="stroke:#000000;" x="661.338657" xlink:href="#mbe024718e2" y="205.99477"/>
     <use style="stroke:#000000;" x="668.442553" xlink:href="#mbe024718e2" y="193.825822"/>
     <use style="stroke:#000000;" x="675.546449" xlink:href="#mbe024718e2" y="177.600559"/>
    </g>
   </g>
   <g id="line2d_26">
    <path clip-path="url(#pa9a996906b)" d="M 78.819176 68.343556 
L 85.923072 74.358985 
L 93.026968 69.269662 
L 100.130864 71.278482 
L 107.234761 67.878758 
L 114.338657 67.86262 
L 121.442553 74.268964 
L 128.546449 69.836413 
L 135.650345 75.851842 
L 142.754241 70.762519 
L 149.858137 72.771339 
L 156.962033 69.371614 
L 164.065929 69.355476 
L 171.169825 75.76182 
L 178.273722 71.330044 
L 185.377618 77.346248 
L 192.481514 72.2577 
L 199.58541 74.272057 
L 206.689306 70.877869 
L 213.793202 70.867268 
L 220.897098 77.279307 
L 228.000994 72.852449 
L 235.10489 79.259161 
L 242.208787 74.561121 
L 249.312683 76.961224 
L 256.416579 73.954348 
L 263.520475 74.331059 
L 270.624371 81.130252 
L 277.728267 77.091246 
L 284.832163 83.500221 
L 291.936059 89.284691 
L 299.039955 102.167303 
L 306.143851 109.641371 
L 313.247748 120.684465 
L 320.351644 138.150042 
L 327.45554 144.776723 
L 334.559436 161.851586 
L 341.663332 167.821697 
L 348.767228 180.889951 
L 355.871124 188.549659 
L 362.97502 199.592954 
L 370.078916 217.058705 
L 377.182812 223.68556 
L 384.286709 240.760395 
L 391.390605 237.117724 
L 398.494501 240.573197 
L 405.598397 238.620124 
L 412.702293 240.050432 
L 419.806189 247.903223 
L 426.910085 244.917117 
L 434.013981 252.378992 
L 441.117877 248.736114 
L 448.221774 252.19138 
L 455.32567 250.238101 
L 462.429566 251.668408 
L 469.533462 259.521198 
L 476.637358 256.535093 
L 483.741254 260.471617 
L 490.84515 253.303388 
L 497.949046 253.233303 
L 505.052942 247.754672 
L 512.156838 245.659628 
L 519.260735 249.987066 
L 526.364631 243.475609 
L 533.468527 247.412133 
L 540.572423 240.243904 
L 547.676319 240.173819 
L 554.780215 234.695188 
L 561.884111 232.37502 
L 568.988007 236.477334 
L 576.091903 229.740752 
L 583.1958 233.452151 
L 590.299696 226.058798 
L 597.403592 225.763588 
L 604.507488 220.059832 
L 611.611384 217.739664 
L 618.71528 221.841978 
L 625.819176 215.105396 
L 632.923072 218.816795 
L 640.026968 211.423442 
L 647.130864 211.128231 
L 654.234761 205.424476 
L 661.338657 203.104307 
L 668.442553 207.206621 
L 675.546449 200.47004 
" style="fill:none;stroke:#0072b2;stroke-linecap:square;stroke-width:1.5;"/>
   </g>
   <g id="line2d_27">
    <path clip-path="url(#pa9a996906b)" d="M 78.819176 69.826065 
L 85.923072 70.03933 
L 93.026968 70.252596 
L 100.130864 70.465861 
L 107.234761 70.679126 
L 114.338657 70.892392 
L 121.442553 71.105657 
L 128.546449 71.318922 
L 135.650345 71.532187 
L 142.754241 71.745452 
L 149.858137 71.958717 
L 156.962033 72.171983 
L 164.065929 72.385248 
L 171.169825 72.598513 
L 178.273722 72.812553 
L 185.377618 73.026593 
L 192.481514 73.240633 
L 199.58541 73.459436 
L 206.689306 73.678238 
L 213.793202 73.897041 
L 220.897098 74.115999 
L 228.000994 74.334958 
L 235.10489 74.939506 
L 242.208787 75.544054 
L 249.312683 76.148603 
L 256.416579 76.754717 
L 263.520475 77.360831 
L 270.624371 77.966945 
L 277.728267 78.573756 
L 284.832163 79.180566 
L 291.936059 90.267624 
L 299.039955 101.354682 
L 306.143851 112.441739 
L 313.247748 123.714237 
L 320.351644 134.986735 
L 327.45554 146.259233 
L 334.559436 157.531931 
L 341.663332 168.80463 
L 348.767228 180.077329 
L 355.871124 191.350028 
L 362.97502 202.622726 
L 370.078916 213.895398 
L 377.182812 225.168069 
L 384.286709 236.44074 
L 391.390605 238.100658 
L 398.494501 239.760575 
L 405.598397 241.420493 
L 412.702293 243.080205 
L 419.806189 244.739916 
L 426.910085 246.399626 
L 434.013981 248.059337 
L 441.117877 249.719047 
L 448.221774 251.378758 
L 455.32567 253.038469 
L 462.429566 254.69818 
L 469.533462 256.357891 
L 476.637358 258.017602 
L 483.741254 256.151962 
L 490.84515 254.286322 
L 497.949046 252.420681 
L 505.052942 250.555041 
L 512.156838 248.6894 
L 519.260735 246.823759 
L 526.364631 244.958119 
L 533.468527 243.092478 
L 540.572423 241.226838 
L 547.676319 239.361197 
L 554.780215 237.495557 
L 561.884111 235.404792 
L 568.988007 233.314027 
L 576.091903 231.223262 
L 583.1958 229.132496 
L 590.299696 227.041731 
L 597.403592 224.950966 
L 604.507488 222.860201 
L 611.611384 220.769436 
L 618.71528 218.678671 
L 625.819176 216.587905 
L 632.923072 214.49714 
L 640.026968 212.406375 
L 647.130864 210.31561 
L 654.234761 208.224845 
L 661.338657 206.13408 
L 668.442553 204.043314 
L 675.546449 201.952549 
" style="fill:none;stroke:#0000ff;stroke-linecap:square;stroke-width:1.5;"/>
   </g>
   <g id="line2d_28">
    <path clip-path="url(#pa9a996906b)" d="M 228.000994 401.718125 
L 228.000994 22.318125 
" style="fill:none;stroke:#0000ff;stroke-dasharray:5.55,2.4;stroke-dashoffset:0;stroke-width:1.5;"/>
   </g>
   <g id="line2d_29">
    <path clip-path="url(#pa9a996906b)" d="M 284.832163 401.718125 
L 284.832163 22.318125 
" style="fill:none;stroke:#0000ff;stroke-dasharray:5.55,2.4;stroke-dashoffset:0;stroke-width:1.5;"/>
   </g>
   <g id="line2d_30">
    <path clip-path="url(#pa9a996906b)" d="M 306.143851 401.718125 
L 306.143851 22.318125 
" style="fill:none;stroke:#0000ff;stroke-dasharray:5.55,2.4;stroke-dashoffset:0;stroke-width:1.5;"/>
   </g>
   <g id="line2d_31">
    <path clip-path="url(#pa9a996906b)" d="M 384.286709 401.718125 
L 384.286709 22.318125 
" style="fill:none;stroke:#0000ff;stroke-dasharray:5.55,2.4;stroke-dashoffset:0;stroke-width:1.5;"/>
   </g>
   <g id="line2d_32">
    <path clip-path="url(#pa9a996906b)" d="M 476.637358 401.718125 
L 476.637358 22.318125 
" style="fill:none;stroke:#0000ff;stroke-dasharray:5.55,2.4;stroke-dashoffset:0;stroke-width:1.5;"/>
   </g>
   <g id="line2d_33">
    <path clip-path="url(#pa9a996906b)" d="M 554.780215 401.718125 
L 554.780215 22.318125 
" style="fill:none;stroke:#0000ff;stroke-dasharray:5.55,2.4;stroke-dashoffset:0;stroke-width:1.5;"/>
   </g>
   <g id="line2d_34">
    <path clip-path="url(#pa9a996906b)" d="M 284.832163 401.718125 
L 284.832163 22.318125 
" style="fill:none;stroke:#ff0000;stroke-linecap:square;stroke-width:3;"/>
   </g>
   <g id="patch_3">
    <path d="M 48.982813 401.718125 
L 48.982813 22.318125 
" style="fill:none;stroke:#000000;stroke-linecap:square;stroke-linejoin:miter;stroke-width:0.8;"/>
   </g>
   <g id="patch_4">
    <path d="M 705.382813 401.718125 
L 705.382813 22.318125 
" style="fill:none;stroke:#000000;stroke-linecap:square;stroke-linejoin:miter;stroke-width:0.8;"/>
   </g>
   <g id="patch_5">
    <path d="M 48.982812 401.718125 
L 705.382812 401.718125 
" style="fill:none;stroke:#000000;stroke-linecap:square;stroke-linejoin:miter;stroke-width:0.8;"/>
   </g>
   <g id="patch_6">
    <path d="M 48.982812 22.318125 
L 705.382812 22.318125 
" style="fill:none;stroke:#000000;stroke-linecap:square;stroke-linejoin:miter;stroke-width:0.8;"/>
   </g>
   <g id="text_15">
    <!-- Retail and Recreation Mobility Graph for Australia -->
    <defs>
     <path d="M 59.515625 10.40625 
L 59.515625 29.984375 
L 43.40625 29.984375 
L 43.40625 38.09375 
L 69.28125 38.09375 
L 69.28125 6.78125 
Q 63.578125 2.734375 56.6875 0.65625 
Q 49.8125 -1.421875 42 -1.421875 
Q 24.90625 -1.421875 15.25 8.5625 
Q 5.609375 18.5625 5.609375 36.375 
Q 5.609375 54.25 15.25 64.234375 
Q 24.90625 74.21875 42 74.21875 
Q 49.125 74.21875 55.546875 72.453125 
Q 61.96875 70.703125 67.390625 67.28125 
L 67.390625 56.78125 
Q 61.921875 61.421875 55.765625 63.765625 
Q 49.609375 66.109375 42.828125 66.109375 
Q 29.4375 66.109375 22.71875 58.640625 
Q 16.015625 51.171875 16.015625 36.375 
Q 16.015625 21.625 22.71875 14.15625 
Q 29.4375 6.6875 42.828125 6.6875 
Q 48.046875 6.6875 52.140625 7.59375 
Q 56.25 8.5 59.515625 10.40625 
z
" id="DejaVuSans-71"/>
     <path d="M 18.109375 8.203125 
L 18.109375 -20.796875 
L 9.078125 -20.796875 
L 9.078125 54.6875 
L 18.109375 54.6875 
L 18.109375 46.390625 
Q 20.953125 51.265625 25.265625 53.625 
Q 29.59375 56 35.59375 56 
Q 45.5625 56 51.78125 48.09375 
Q 58.015625 40.1875 58.015625 27.296875 
Q 58.015625 14.40625 51.78125 6.484375 
Q 45.5625 -1.421875 35.59375 -1.421875 
Q 29.59375 -1.421875 25.265625 0.953125 
Q 20.953125 3.328125 18.109375 8.203125 
z
M 48.6875 27.296875 
Q 48.6875 37.203125 44.609375 42.84375 
Q 40.53125 48.484375 33.40625 48.484375 
Q 26.265625 48.484375 22.1875 42.84375 
Q 18.109375 37.203125 18.109375 27.296875 
Q 18.109375 17.390625 22.1875 11.75 
Q 26.265625 6.109375 33.40625 6.109375 
Q 40.53125 6.109375 44.609375 11.75 
Q 48.6875 17.390625 48.6875 27.296875 
z
" id="DejaVuSans-112"/>
     <path d="M 54.890625 33.015625 
L 54.890625 0 
L 45.90625 0 
L 45.90625 32.71875 
Q 45.90625 40.484375 42.875 44.328125 
Q 39.84375 48.1875 33.796875 48.1875 
Q 26.515625 48.1875 22.3125 43.546875 
Q 18.109375 38.921875 18.109375 30.90625 
L 18.109375 0 
L 9.078125 0 
L 9.078125 75.984375 
L 18.109375 75.984375 
L 18.109375 46.1875 
Q 21.34375 51.125 25.703125 53.5625 
Q 30.078125 56 35.796875 56 
Q 45.21875 56 50.046875 50.171875 
Q 54.890625 44.34375 54.890625 33.015625 
z
" id="DejaVuSans-104"/>
     <path d="M 37.109375 75.984375 
L 37.109375 68.5 
L 28.515625 68.5 
Q 23.6875 68.5 21.796875 66.546875 
Q 19.921875 64.59375 19.921875 59.515625 
L 19.921875 54.6875 
L 34.71875 54.6875 
L 34.71875 47.703125 
L 19.921875 47.703125 
L 19.921875 0 
L 10.890625 0 
L 10.890625 47.703125 
L 2.296875 47.703125 
L 2.296875 54.6875 
L 10.890625 54.6875 
L 10.890625 58.5 
Q 10.890625 67.625 15.140625 71.796875 
Q 19.390625 75.984375 28.609375 75.984375 
z
" id="DejaVuSans-102"/>
     <path d="M 34.1875 63.1875 
L 20.796875 26.90625 
L 47.609375 26.90625 
z
M 28.609375 72.90625 
L 39.796875 72.90625 
L 67.578125 0 
L 57.328125 0 
L 50.6875 18.703125 
L 17.828125 18.703125 
L 11.1875 0 
L 0.78125 0 
z
" id="DejaVuSans-65"/>
     <path d="M 8.5 21.578125 
L 8.5 54.6875 
L 17.484375 54.6875 
L 17.484375 21.921875 
Q 17.484375 14.15625 20.5 10.265625 
Q 23.53125 6.390625 29.59375 6.390625 
Q 36.859375 6.390625 41.078125 11.03125 
Q 45.3125 15.671875 45.3125 23.6875 
L 45.3125 54.6875 
L 54.296875 54.6875 
L 54.296875 0 
L 45.3125 0 
L 45.3125 8.40625 
Q 42.046875 3.421875 37.71875 1 
Q 33.40625 -1.421875 27.6875 -1.421875 
Q 18.265625 -1.421875 13.375 4.4375 
Q 8.5 10.296875 8.5 21.578125 
z
M 31.109375 56 
z
" id="DejaVuSans-117"/>
     <path d="M 44.28125 53.078125 
L 44.28125 44.578125 
Q 40.484375 46.53125 36.375 47.5 
Q 32.28125 48.484375 27.875 48.484375 
Q 21.1875 48.484375 17.84375 46.4375 
Q 14.5 44.390625 14.5 40.28125 
Q 14.5 37.15625 16.890625 35.375 
Q 19.28125 33.59375 26.515625 31.984375 
L 29.59375 31.296875 
Q 39.15625 29.25 43.1875 25.515625 
Q 47.21875 21.78125 47.21875 15.09375 
Q 47.21875 7.46875 41.1875 3.015625 
Q 35.15625 -1.421875 24.609375 -1.421875 
Q 20.21875 -1.421875 15.453125 -0.5625 
Q 10.6875 0.296875 5.421875 2 
L 5.421875 11.28125 
Q 10.40625 8.6875 15.234375 7.390625 
Q 20.0625 6.109375 24.8125 6.109375 
Q 31.15625 6.109375 34.5625 8.28125 
Q 37.984375 10.453125 37.984375 14.40625 
Q 37.984375 18.0625 35.515625 20.015625 
Q 33.0625 21.96875 24.703125 23.78125 
L 21.578125 24.515625 
Q 13.234375 26.265625 9.515625 29.90625 
Q 5.8125 33.546875 5.8125 39.890625 
Q 5.8125 47.609375 11.28125 51.796875 
Q 16.75 56 26.8125 56 
Q 31.78125 56 36.171875 55.265625 
Q 40.578125 54.546875 44.28125 53.078125 
z
" id="DejaVuSans-115"/>
    </defs>
    <g transform="translate(228.662188 16.318125)scale(0.12 -0.12)">
     <use xlink:href="#DejaVuSans-82"/>
     <use x="64.982422" xlink:href="#DejaVuSans-101"/>
     <use x="126.505859" xlink:href="#DejaVuSans-116"/>
     <use x="165.714844" xlink:href="#DejaVuSans-97"/>
     <use x="226.994141" xlink:href="#DejaVuSans-105"/>
     <use x="254.777344" xlink:href="#DejaVuSans-108"/>
     <use x="282.560547" xlink:href="#DejaVuSans-32"/>
     <use x="314.347656" xlink:href="#DejaVuSans-97"/>
     <use x="375.626953" xlink:href="#DejaVuSans-110"/>
     <use x="439.005859" xlink:href="#DejaVuSans-100"/>
     <use x="502.482422" xlink:href="#DejaVuSans-32"/>
     <use x="534.269531" xlink:href="#DejaVuSans-82"/>
     <use x="599.251953" xlink:href="#DejaVuSans-101"/>
     <use x="660.775391" xlink:href="#DejaVuSans-99"/>
     <use x="715.755859" xlink:href="#DejaVuSans-114"/>
     <use x="754.619141" xlink:href="#DejaVuSans-101"/>
     <use x="816.142578" xlink:href="#DejaVuSans-97"/>
     <use x="877.421875" xlink:href="#DejaVuSans-116"/>
     <use x="916.630859" xlink:href="#DejaVuSans-105"/>
     <use x="944.414062" xlink:href="#DejaVuSans-111"/>
     <use x="1005.595703" xlink:href="#DejaVuSans-110"/>
     <use x="1068.974609" xlink:href="#DejaVuSans-32"/>
     <use x="1100.761719" xlink:href="#DejaVuSans-77"/>
     <use x="1187.041016" xlink:href="#DejaVuSans-111"/>
     <use x="1248.222656" xlink:href="#DejaVuSans-98"/>
     <use x="1311.699219" xlink:href="#DejaVuSans-105"/>
     <use x="1339.482422" xlink:href="#DejaVuSans-108"/>
     <use x="1367.265625" xlink:href="#DejaVuSans-105"/>
     <use x="1395.048828" xlink:href="#DejaVuSans-116"/>
     <use x="1434.257812" xlink:href="#DejaVuSans-121"/>
     <use x="1493.4375" xlink:href="#DejaVuSans-32"/>
     <use x="1525.224609" xlink:href="#DejaVuSans-71"/>
     <use x="1602.714844" xlink:href="#DejaVuSans-114"/>
     <use x="1643.828125" xlink:href="#DejaVuSans-97"/>
     <use x="1705.107422" xlink:href="#DejaVuSans-112"/>
     <use x="1768.583984" xlink:href="#DejaVuSans-104"/>
     <use x="1831.962891" xlink:href="#DejaVuSans-32"/>
     <use x="1863.75" xlink:href="#DejaVuSans-102"/>
     <use x="1898.955078" xlink:href="#DejaVuSans-111"/>
     <use x="1960.136719" xlink:href="#DejaVuSans-114"/>
     <use x="2001.25" xlink:href="#DejaVuSans-32"/>
     <use x="2033.037109" xlink:href="#DejaVuSans-65"/>
     <use x="2101.445312" xlink:href="#DejaVuSans-117"/>
     <use x="2164.824219" xlink:href="#DejaVuSans-115"/>
     <use x="2216.923828" xlink:href="#DejaVuSans-116"/>
     <use x="2256.132812" xlink:href="#DejaVuSans-114"/>
     <use x="2297.246094" xlink:href="#DejaVuSans-97"/>
     <use x="2358.525391" xlink:href="#DejaVuSans-108"/>
     <use x="2386.308594" xlink:href="#DejaVuSans-105"/>
     <use x="2414.091797" xlink:href="#DejaVuSans-97"/>
    </g>
   </g>
   <g id="legend_1">
    <g id="patch_7">
     <path d="M 55.982813 44.99625 
L 210.457813 44.99625 
Q 212.457813 44.99625 212.457813 42.99625 
L 212.457813 29.318125 
Q 212.457813 27.318125 210.457813 27.318125 
L 55.982813 27.318125 
Q 53.982813 27.318125 53.982813 29.318125 
L 53.982813 42.99625 
Q 53.982813 44.99625 55.982813 44.99625 
z
" style="fill:#ffffff;opacity:0.8;stroke:#cccccc;stroke-linejoin:miter;"/>
    </g>
    <g id="line2d_35">
     <path d="M 57.982813 35.416562 
L 77.982813 35.416562 
" style="fill:none;stroke:#ff0000;stroke-linecap:square;stroke-width:3;"/>
    </g>
    <g id="line2d_36"/>
    <g id="text_16">
     <!-- Effective Lockdown date -->
     <defs>
      <path d="M 9.8125 72.90625 
L 55.90625 72.90625 
L 55.90625 64.59375 
L 19.671875 64.59375 
L 19.671875 43.015625 
L 54.390625 43.015625 
L 54.390625 34.71875 
L 19.671875 34.71875 
L 19.671875 8.296875 
L 56.78125 8.296875 
L 56.78125 0 
L 9.8125 0 
z
" id="DejaVuSans-69"/>
      <path d="M 2.984375 54.6875 
L 12.5 54.6875 
L 29.59375 8.796875 
L 46.6875 54.6875 
L 56.203125 54.6875 
L 35.6875 0 
L 23.484375 0 
z
" id="DejaVuSans-118"/>
      <path d="M 9.8125 72.90625 
L 19.671875 72.90625 
L 19.671875 8.296875 
L 55.171875 8.296875 
L 55.171875 0 
L 9.8125 0 
z
" id="DejaVuSans-76"/>
      <path d="M 9.078125 75.984375 
L 18.109375 75.984375 
L 18.109375 31.109375 
L 44.921875 54.6875 
L 56.390625 54.6875 
L 27.390625 29.109375 
L 57.625 0 
L 45.90625 0 
L 18.109375 26.703125 
L 18.109375 0 
L 9.078125 0 
z
" id="DejaVuSans-107"/>
      <path d="M 4.203125 54.6875 
L 13.1875 54.6875 
L 24.421875 12.015625 
L 35.59375 54.6875 
L 46.1875 54.6875 
L 57.421875 12.015625 
L 68.609375 54.6875 
L 77.59375 54.6875 
L 63.28125 0 
L 52.6875 0 
L 40.921875 44.828125 
L 29.109375 0 
L 18.5 0 
z
" id="DejaVuSans-119"/>
     </defs>
     <g transform="translate(85.982813 38.916562)scale(0.1 -0.1)">
      <use xlink:href="#DejaVuSans-69"/>
      <use x="63.183594" xlink:href="#DejaVuSans-102"/>
      <use x="98.388672" xlink:href="#DejaVuSans-102"/>
      <use x="133.59375" xlink:href="#DejaVuSans-101"/>
      <use x="195.117188" xlink:href="#DejaVuSans-99"/>
      <use x="250.097656" xlink:href="#DejaVuSans-116"/>
      <use x="289.306641" xlink:href="#DejaVuSans-105"/>
      <use x="317.089844" xlink:href="#DejaVuSans-118"/>
      <use x="376.269531" xlink:href="#DejaVuSans-101"/>
      <use x="437.792969" xlink:href="#DejaVuSans-32"/>
      <use x="469.580078" xlink:href="#DejaVuSans-76"/>
      <use x="523.542969" xlink:href="#DejaVuSans-111"/>
      <use x="584.724609" xlink:href="#DejaVuSans-99"/>
      <use x="639.705078" xlink:href="#DejaVuSans-107"/>
      <use x="697.615234" xlink:href="#DejaVuSans-100"/>
      <use x="761.091797" xlink:href="#DejaVuSans-111"/>
      <use x="822.273438" xlink:href="#DejaVuSans-119"/>
      <use x="904.060547" xlink:href="#DejaVuSans-110"/>
      <use x="967.439453" xlink:href="#DejaVuSans-32"/>
      <use x="999.226562" xlink:href="#DejaVuSans-100"/>
      <use x="1062.703125" xlink:href="#DejaVuSans-97"/>
      <use x="1123.982422" xlink:href="#DejaVuSans-116"/>
      <use x="1163.191406" xlink:href="#DejaVuSans-101"/>
     </g>
    </g>
   </g>
  </g>
 </g>
 <defs>
  <clipPath id="pa9a996906b">
   <rect height="379.4" width="656.4" x="48.982813" y="22.318125"/>
  </clipPath>
 </defs>
</svg>
