<?xml version="1.0" encoding="utf-8" standalone="no"?>
<!DOCTYPE svg PUBLIC "-//W3C//DTD SVG 1.1//EN"
  "http://www.w3.org/Graphics/SVG/1.1/DTD/svg11.dtd">
<!-- Created with matplotlib (https://matplotlib.org/) -->
<svg height="439.274375pt" version="1.1" viewBox="0 0 712.582813 439.274375" width="712.582813pt" xmlns="http://www.w3.org/2000/svg" xmlns:xlink="http://www.w3.org/1999/xlink">
 <defs>
  <style type="text/css">
*{stroke-linecap:butt;stroke-linejoin:round;}
  </style>
 </defs>
 <g id="figure_1">
  <g id="patch_1">
   <path d="M 0 439.274375 
L 712.582813 439.274375 
L 712.582813 0 
L 0 0 
z
" style="fill:#ffffff;"/>
  </g>
  <g id="axes_1">
   <g id="patch_2">
    <path d="M 48.982813 401.718125 
L 705.382813 401.718125 
L 705.382813 22.318125 
L 48.982813 22.318125 
z
" style="fill:#ffffff;"/>
   </g>
   <g id="PolyCollection_1">
    <defs>
     <path d="M 78.819176 -395.110558 
L 78.819176 -360.307626 
L 85.923072 -353.470381 
L 93.026968 -365.279369 
L 100.130864 -358.199595 
L 107.234761 -360.762175 
L 114.338657 -362.869024 
L 121.442553 -362.504755 
L 128.546449 -358.349045 
L 135.650345 -351.100503 
L 142.754241 -365.908936 
L 149.858137 -356.121335 
L 156.962033 -359.906706 
L 164.065929 -362.333404 
L 171.169825 -359.46497 
L 178.273722 -358.125601 
L 185.377618 -349.153955 
L 192.481514 -362.60167 
L 199.58541 -355.924733 
L 206.689306 -358.103926 
L 213.793202 -359.263538 
L 220.897098 -359.572046 
L 228.000994 -355.086383 
L 235.10489 -344.545966 
L 242.208787 -353.053106 
L 249.312683 -342.601965 
L 256.416579 -343.847852 
L 263.520475 -341.683683 
L 270.624371 -337.647146 
L 277.728267 -330.174039 
L 284.832163 -320.259507 
L 291.936059 -327.184636 
L 299.039955 -319.486613 
L 306.143851 -318.147927 
L 313.247748 -287.156965 
L 320.351644 -252.313178 
L 327.45554 -216.207148 
L 334.559436 -176.878214 
L 341.663332 -154.943904 
L 348.767228 -114.521255 
L 355.871124 -106.406001 
L 362.97502 -98.126677 
L 370.078916 -95.444501 
L 377.182812 -92.017139 
L 384.286709 -85.420048 
L 391.390605 -96.694782 
L 398.494501 -88.304759 
L 405.598397 -93.713693 
L 412.702293 -93.921594 
L 419.806189 -92.768549 
L 426.910085 -88.62194 
L 434.013981 -82.366127 
L 441.117877 -92.033137 
L 448.221774 -84.636088 
L 455.32567 -87.940877 
L 462.429566 -87.849319 
L 469.533462 -86.787426 
L 476.637358 -81.913296 
L 483.741254 -70.873627 
L 490.84515 -81.341465 
L 497.949046 -73.108208 
L 505.052942 -75.908157 
L 512.156838 -73.38469 
L 519.260735 -69.989705 
L 526.364631 -65.784427 
L 533.468527 -54.801705 
L 540.572423 -65.821965 
L 547.676319 -55.966958 
L 554.780215 -57.409414 
L 561.884111 -61.236492 
L 568.988007 -60.055758 
L 576.091903 -58.818334 
L 583.1958 -54.997744 
L 590.299696 -66.674885 
L 597.403592 -63.324234 
L 604.507488 -66.936181 
L 611.611384 -70.872771 
L 618.71528 -70.667415 
L 625.819176 -67.667322 
L 632.923072 -62.974765 
L 640.026968 -76.110419 
L 647.130864 -72.736817 
L 654.234761 -77.074254 
L 661.338657 -77.934279 
L 668.442553 -79.897841 
L 675.546449 -77.048906 
L 675.546449 -113.366483 
L 675.546449 -113.366483 
L 668.442553 -115.276844 
L 661.338657 -115.170374 
L 654.234761 -111.011011 
L 647.130864 -106.70269 
L 640.026968 -111.755981 
L 632.923072 -98.018688 
L 625.819176 -103.000335 
L 618.71528 -106.040027 
L 611.611384 -105.397911 
L 604.507488 -101.940221 
L 597.403592 -97.413933 
L 590.299696 -102.13821 
L 583.1958 -88.239719 
L 576.091903 -94.50375 
L 568.988007 -97.05838 
L 561.884111 -95.058198 
L 554.780215 -94.078183 
L 547.676319 -92.878142 
L 540.572423 -101.617824 
L 533.468527 -90.761554 
L 526.364631 -100.147851 
L 519.260735 -106.408357 
L 512.156838 -110.175921 
L 505.052942 -110.136906 
L 497.949046 -107.502321 
L 490.84515 -116.233755 
L 483.741254 -107.580472 
L 476.637358 -116.941913 
L 469.533462 -122.169284 
L 462.429566 -124.275398 
L 455.32567 -123.347252 
L 448.221774 -121.07487 
L 441.117877 -128.478276 
L 434.013981 -116.387442 
L 426.910085 -124.191554 
L 419.806189 -126.745682 
L 412.702293 -129.570186 
L 405.598397 -128.348429 
L 398.494501 -124.080516 
L 391.390605 -131.316787 
L 384.286709 -118.559844 
L 377.182812 -126.166739 
L 370.078916 -130.764201 
L 362.97502 -131.754432 
L 355.871124 -143.053192 
L 348.767228 -150.139439 
L 341.663332 -189.444391 
L 334.559436 -211.364953 
L 327.45554 -251.689452 
L 320.351644 -288.33018 
L 313.247748 -321.926543 
L 306.143851 -353.59892 
L 299.039955 -353.831405 
L 291.936059 -362.272347 
L 284.832163 -354.547811 
L 277.728267 -365.231451 
L 270.624371 -371.675019 
L 263.520475 -378.479851 
L 256.416579 -377.386076 
L 249.312683 -377.74161 
L 242.208787 -386.788241 
L 235.10489 -379.295769 
L 228.000994 -390.863319 
L 220.897098 -392.340779 
L 213.793202 -395.416775 
L 206.689306 -393.597899 
L 199.58541 -390.664713 
L 192.481514 -397.03382 
L 185.377618 -385.2346 
L 178.273722 -391.189308 
L 171.169825 -396.610316 
L 164.065929 -397.212561 
L 156.962033 -395.870558 
L 149.858137 -392.065795 
L 142.754241 -398.11438 
L 135.650345 -386.316453 
L 128.546449 -394.3316 
L 121.442553 -397.223652 
L 114.338657 -398.302504 
L 107.234761 -396.874181 
L 100.130864 -393.693318 
L 93.026968 -399.710795 
L 85.923072 -389.001348 
L 78.819176 -395.110558 
z
" id="m983b9ab0ff" style="stroke:#0072b2;stroke-opacity:0.2;"/>
    </defs>
    <g clip-path="url(#pfae4f30269)">
     <use style="fill:#0072b2;fill-opacity:0.2;stroke:#0072b2;stroke-opacity:0.2;" x="0" xlink:href="#m983b9ab0ff" y="439.274375"/>
    </g>
   </g>
   <g id="matplotlib.axis_1">
    <g id="xtick_1">
     <g id="line2d_1">
      <path clip-path="url(#pfae4f30269)" d="M 71.71528 401.718125 
L 71.71528 22.318125 
" style="fill:none;stroke:#808080;stroke-linecap:square;stroke-opacity:0.2;"/>
     </g>
     <g id="line2d_2">
      <defs>
       <path d="M 0 0 
L 0 3.5 
" id="m0186c9a805" style="stroke:#000000;stroke-width:0.8;"/>
      </defs>
      <g>
       <use style="stroke:#000000;stroke-width:0.8;" x="71.71528" xlink:href="#m0186c9a805" y="401.718125"/>
      </g>
     </g>
     <g id="text_1">
      <!-- 2020-02-14 -->
      <defs>
       <path d="M 19.1875 8.296875 
L 53.609375 8.296875 
L 53.609375 0 
L 7.328125 0 
L 7.328125 8.296875 
Q 12.9375 14.109375 22.625 23.890625 
Q 32.328125 33.6875 34.8125 36.53125 
Q 39.546875 41.84375 41.421875 45.53125 
Q 43.3125 49.21875 43.3125 52.78125 
Q 43.3125 58.59375 39.234375 62.25 
Q 35.15625 65.921875 28.609375 65.921875 
Q 23.96875 65.921875 18.8125 64.3125 
Q 13.671875 62.703125 7.8125 59.421875 
L 7.8125 69.390625 
Q 13.765625 71.78125 18.9375 73 
Q 24.125 74.21875 28.421875 74.21875 
Q 39.75 74.21875 46.484375 68.546875 
Q 53.21875 62.890625 53.21875 53.421875 
Q 53.21875 48.921875 51.53125 44.890625 
Q 49.859375 40.875 45.40625 35.40625 
Q 44.1875 33.984375 37.640625 27.21875 
Q 31.109375 20.453125 19.1875 8.296875 
z
" id="DejaVuSans-50"/>
       <path d="M 31.78125 66.40625 
Q 24.171875 66.40625 20.328125 58.90625 
Q 16.5 51.421875 16.5 36.375 
Q 16.5 21.390625 20.328125 13.890625 
Q 24.171875 6.390625 31.78125 6.390625 
Q 39.453125 6.390625 43.28125 13.890625 
Q 47.125 21.390625 47.125 36.375 
Q 47.125 51.421875 43.28125 58.90625 
Q 39.453125 66.40625 31.78125 66.40625 
z
M 31.78125 74.21875 
Q 44.046875 74.21875 50.515625 64.515625 
Q 56.984375 54.828125 56.984375 36.375 
Q 56.984375 17.96875 50.515625 8.265625 
Q 44.046875 -1.421875 31.78125 -1.421875 
Q 19.53125 -1.421875 13.0625 8.265625 
Q 6.59375 17.96875 6.59375 36.375 
Q 6.59375 54.828125 13.0625 64.515625 
Q 19.53125 74.21875 31.78125 74.21875 
z
" id="DejaVuSans-48"/>
       <path d="M 4.890625 31.390625 
L 31.203125 31.390625 
L 31.203125 23.390625 
L 4.890625 23.390625 
z
" id="DejaVuSans-45"/>
       <path d="M 12.40625 8.296875 
L 28.515625 8.296875 
L 28.515625 63.921875 
L 10.984375 60.40625 
L 10.984375 69.390625 
L 28.421875 72.90625 
L 38.28125 72.90625 
L 38.28125 8.296875 
L 54.390625 8.296875 
L 54.390625 0 
L 12.40625 0 
z
" id="DejaVuSans-49"/>
       <path d="M 37.796875 64.3125 
L 12.890625 25.390625 
L 37.796875 25.390625 
z
M 35.203125 72.90625 
L 47.609375 72.90625 
L 47.609375 25.390625 
L 58.015625 25.390625 
L 58.015625 17.1875 
L 47.609375 17.1875 
L 47.609375 0 
L 37.796875 0 
L 37.796875 17.1875 
L 4.890625 17.1875 
L 4.890625 26.703125 
z
" id="DejaVuSans-52"/>
      </defs>
      <g transform="translate(42.657468 416.316562)scale(0.1 -0.1)">
       <use xlink:href="#DejaVuSans-50"/>
       <use x="63.623047" xlink:href="#DejaVuSans-48"/>
       <use x="127.246094" xlink:href="#DejaVuSans-50"/>
       <use x="190.869141" xlink:href="#DejaVuSans-48"/>
       <use x="254.492188" xlink:href="#DejaVuSans-45"/>
       <use x="290.576172" xlink:href="#DejaVuSans-48"/>
       <use x="354.199219" xlink:href="#DejaVuSans-50"/>
       <use x="417.822266" xlink:href="#DejaVuSans-45"/>
       <use x="453.90625" xlink:href="#DejaVuSans-49"/>
       <use x="517.529297" xlink:href="#DejaVuSans-52"/>
      </g>
     </g>
    </g>
    <g id="xtick_2">
     <g id="line2d_3">
      <path clip-path="url(#pfae4f30269)" d="M 171.169825 401.718125 
L 171.169825 22.318125 
" style="fill:none;stroke:#808080;stroke-linecap:square;stroke-opacity:0.2;"/>
     </g>
     <g id="line2d_4">
      <g>
       <use style="stroke:#000000;stroke-width:0.8;" x="171.169825" xlink:href="#m0186c9a805" y="401.718125"/>
      </g>
     </g>
     <g id="text_2">
      <!-- 2020-02-28 -->
      <defs>
       <path d="M 31.78125 34.625 
Q 24.75 34.625 20.71875 30.859375 
Q 16.703125 27.09375 16.703125 20.515625 
Q 16.703125 13.921875 20.71875 10.15625 
Q 24.75 6.390625 31.78125 6.390625 
Q 38.8125 6.390625 42.859375 10.171875 
Q 46.921875 13.96875 46.921875 20.515625 
Q 46.921875 27.09375 42.890625 30.859375 
Q 38.875 34.625 31.78125 34.625 
z
M 21.921875 38.8125 
Q 15.578125 40.375 12.03125 44.71875 
Q 8.5 49.078125 8.5 55.328125 
Q 8.5 64.0625 14.71875 69.140625 
Q 20.953125 74.21875 31.78125 74.21875 
Q 42.671875 74.21875 48.875 69.140625 
Q 55.078125 64.0625 55.078125 55.328125 
Q 55.078125 49.078125 51.53125 44.71875 
Q 48 40.375 41.703125 38.8125 
Q 48.828125 37.15625 52.796875 32.3125 
Q 56.78125 27.484375 56.78125 20.515625 
Q 56.78125 9.90625 50.3125 4.234375 
Q 43.84375 -1.421875 31.78125 -1.421875 
Q 19.734375 -1.421875 13.25 4.234375 
Q 6.78125 9.90625 6.78125 20.515625 
Q 6.78125 27.484375 10.78125 32.3125 
Q 14.796875 37.15625 21.921875 38.8125 
z
M 18.3125 54.390625 
Q 18.3125 48.734375 21.84375 45.5625 
Q 25.390625 42.390625 31.78125 42.390625 
Q 38.140625 42.390625 41.71875 45.5625 
Q 45.3125 48.734375 45.3125 54.390625 
Q 45.3125 60.0625 41.71875 63.234375 
Q 38.140625 66.40625 31.78125 66.40625 
Q 25.390625 66.40625 21.84375 63.234375 
Q 18.3125 60.0625 18.3125 54.390625 
z
" id="DejaVuSans-56"/>
      </defs>
      <g transform="translate(142.112013 416.316562)scale(0.1 -0.1)">
       <use xlink:href="#DejaVuSans-50"/>
       <use x="63.623047" xlink:href="#DejaVuSans-48"/>
       <use x="127.246094" xlink:href="#DejaVuSans-50"/>
       <use x="190.869141" xlink:href="#DejaVuSans-48"/>
       <use x="254.492188" xlink:href="#DejaVuSans-45"/>
       <use x="290.576172" xlink:href="#DejaVuSans-48"/>
       <use x="354.199219" xlink:href="#DejaVuSans-50"/>
       <use x="417.822266" xlink:href="#DejaVuSans-45"/>
       <use x="453.90625" xlink:href="#DejaVuSans-50"/>
       <use x="517.529297" xlink:href="#DejaVuSans-56"/>
      </g>
     </g>
    </g>
    <g id="xtick_3">
     <g id="line2d_5">
      <path clip-path="url(#pfae4f30269)" d="M 270.624371 401.718125 
L 270.624371 22.318125 
" style="fill:none;stroke:#808080;stroke-linecap:square;stroke-opacity:0.2;"/>
     </g>
     <g id="line2d_6">
      <g>
       <use style="stroke:#000000;stroke-width:0.8;" x="270.624371" xlink:href="#m0186c9a805" y="401.718125"/>
      </g>
     </g>
     <g id="text_3">
      <!-- 2020-03-13 -->
      <defs>
       <path d="M 40.578125 39.3125 
Q 47.65625 37.796875 51.625 33 
Q 55.609375 28.21875 55.609375 21.1875 
Q 55.609375 10.40625 48.1875 4.484375 
Q 40.765625 -1.421875 27.09375 -1.421875 
Q 22.515625 -1.421875 17.65625 -0.515625 
Q 12.796875 0.390625 7.625 2.203125 
L 7.625 11.71875 
Q 11.71875 9.328125 16.59375 8.109375 
Q 21.484375 6.890625 26.8125 6.890625 
Q 36.078125 6.890625 40.9375 10.546875 
Q 45.796875 14.203125 45.796875 21.1875 
Q 45.796875 27.640625 41.28125 31.265625 
Q 36.765625 34.90625 28.71875 34.90625 
L 20.21875 34.90625 
L 20.21875 43.015625 
L 29.109375 43.015625 
Q 36.375 43.015625 40.234375 45.921875 
Q 44.09375 48.828125 44.09375 54.296875 
Q 44.09375 59.90625 40.109375 62.90625 
Q 36.140625 65.921875 28.71875 65.921875 
Q 24.65625 65.921875 20.015625 65.03125 
Q 15.375 64.15625 9.8125 62.3125 
L 9.8125 71.09375 
Q 15.4375 72.65625 20.34375 73.4375 
Q 25.25 74.21875 29.59375 74.21875 
Q 40.828125 74.21875 47.359375 69.109375 
Q 53.90625 64.015625 53.90625 55.328125 
Q 53.90625 49.265625 50.4375 45.09375 
Q 46.96875 40.921875 40.578125 39.3125 
z
" id="DejaVuSans-51"/>
      </defs>
      <g transform="translate(241.566558 416.316562)scale(0.1 -0.1)">
       <use xlink:href="#DejaVuSans-50"/>
       <use x="63.623047" xlink:href="#DejaVuSans-48"/>
       <use x="127.246094" xlink:href="#DejaVuSans-50"/>
       <use x="190.869141" xlink:href="#DejaVuSans-48"/>
       <use x="254.492188" xlink:href="#DejaVuSans-45"/>
       <use x="290.576172" xlink:href="#DejaVuSans-48"/>
       <use x="354.199219" xlink:href="#DejaVuSans-51"/>
       <use x="417.822266" xlink:href="#DejaVuSans-45"/>
       <use x="453.90625" xlink:href="#DejaVuSans-49"/>
       <use x="517.529297" xlink:href="#DejaVuSans-51"/>
      </g>
     </g>
    </g>
    <g id="xtick_4">
     <g id="line2d_7">
      <path clip-path="url(#pfae4f30269)" d="M 370.078916 401.718125 
L 370.078916 22.318125 
" style="fill:none;stroke:#808080;stroke-linecap:square;stroke-opacity:0.2;"/>
     </g>
     <g id="line2d_8">
      <g>
       <use style="stroke:#000000;stroke-width:0.8;" x="370.078916" xlink:href="#m0186c9a805" y="401.718125"/>
      </g>
     </g>
     <g id="text_4">
      <!-- 2020-03-27 -->
      <defs>
       <path d="M 8.203125 72.90625 
L 55.078125 72.90625 
L 55.078125 68.703125 
L 28.609375 0 
L 18.3125 0 
L 43.21875 64.59375 
L 8.203125 64.59375 
z
" id="DejaVuSans-55"/>
      </defs>
      <g transform="translate(341.021104 416.316562)scale(0.1 -0.1)">
       <use xlink:href="#DejaVuSans-50"/>
       <use x="63.623047" xlink:href="#DejaVuSans-48"/>
       <use x="127.246094" xlink:href="#DejaVuSans-50"/>
       <use x="190.869141" xlink:href="#DejaVuSans-48"/>
       <use x="254.492188" xlink:href="#DejaVuSans-45"/>
       <use x="290.576172" xlink:href="#DejaVuSans-48"/>
       <use x="354.199219" xlink:href="#DejaVuSans-51"/>
       <use x="417.822266" xlink:href="#DejaVuSans-45"/>
       <use x="453.90625" xlink:href="#DejaVuSans-50"/>
       <use x="517.529297" xlink:href="#DejaVuSans-55"/>
      </g>
     </g>
    </g>
    <g id="xtick_5">
     <g id="line2d_9">
      <path clip-path="url(#pfae4f30269)" d="M 469.533462 401.718125 
L 469.533462 22.318125 
" style="fill:none;stroke:#808080;stroke-linecap:square;stroke-opacity:0.2;"/>
     </g>
     <g id="line2d_10">
      <g>
       <use style="stroke:#000000;stroke-width:0.8;" x="469.533462" xlink:href="#m0186c9a805" y="401.718125"/>
      </g>
     </g>
     <g id="text_5">
      <!-- 2020-04-10 -->
      <g transform="translate(440.475649 416.316562)scale(0.1 -0.1)">
       <use xlink:href="#DejaVuSans-50"/>
       <use x="63.623047" xlink:href="#DejaVuSans-48"/>
       <use x="127.246094" xlink:href="#DejaVuSans-50"/>
       <use x="190.869141" xlink:href="#DejaVuSans-48"/>
       <use x="254.492188" xlink:href="#DejaVuSans-45"/>
       <use x="290.576172" xlink:href="#DejaVuSans-48"/>
       <use x="354.199219" xlink:href="#DejaVuSans-52"/>
       <use x="417.822266" xlink:href="#DejaVuSans-45"/>
       <use x="453.90625" xlink:href="#DejaVuSans-49"/>
       <use x="517.529297" xlink:href="#DejaVuSans-48"/>
      </g>
     </g>
    </g>
    <g id="xtick_6">
     <g id="line2d_11">
      <path clip-path="url(#pfae4f30269)" d="M 568.988007 401.718125 
L 568.988007 22.318125 
" style="fill:none;stroke:#808080;stroke-linecap:square;stroke-opacity:0.2;"/>
     </g>
     <g id="line2d_12">
      <g>
       <use style="stroke:#000000;stroke-width:0.8;" x="568.988007" xlink:href="#m0186c9a805" y="401.718125"/>
      </g>
     </g>
     <g id="text_6">
      <!-- 2020-04-24 -->
      <g transform="translate(539.930195 416.316562)scale(0.1 -0.1)">
       <use xlink:href="#DejaVuSans-50"/>
       <use x="63.623047" xlink:href="#DejaVuSans-48"/>
       <use x="127.246094" xlink:href="#DejaVuSans-50"/>
       <use x="190.869141" xlink:href="#DejaVuSans-48"/>
       <use x="254.492188" xlink:href="#DejaVuSans-45"/>
       <use x="290.576172" xlink:href="#DejaVuSans-48"/>
       <use x="354.199219" xlink:href="#DejaVuSans-52"/>
       <use x="417.822266" xlink:href="#DejaVuSans-45"/>
       <use x="453.90625" xlink:href="#DejaVuSans-50"/>
       <use x="517.529297" xlink:href="#DejaVuSans-52"/>
      </g>
     </g>
    </g>
    <g id="xtick_7">
     <g id="line2d_13">
      <path clip-path="url(#pfae4f30269)" d="M 668.442553 401.718125 
L 668.442553 22.318125 
" style="fill:none;stroke:#808080;stroke-linecap:square;stroke-opacity:0.2;"/>
     </g>
     <g id="line2d_14">
      <g>
       <use style="stroke:#000000;stroke-width:0.8;" x="668.442553" xlink:href="#m0186c9a805" y="401.718125"/>
      </g>
     </g>
     <g id="text_7">
      <!-- 2020-05-08 -->
      <defs>
       <path d="M 10.796875 72.90625 
L 49.515625 72.90625 
L 49.515625 64.59375 
L 19.828125 64.59375 
L 19.828125 46.734375 
Q 21.96875 47.46875 24.109375 47.828125 
Q 26.265625 48.1875 28.421875 48.1875 
Q 40.625 48.1875 47.75 41.5 
Q 54.890625 34.8125 54.890625 23.390625 
Q 54.890625 11.625 47.5625 5.09375 
Q 40.234375 -1.421875 26.90625 -1.421875 
Q 22.3125 -1.421875 17.546875 -0.640625 
Q 12.796875 0.140625 7.71875 1.703125 
L 7.71875 11.625 
Q 12.109375 9.234375 16.796875 8.0625 
Q 21.484375 6.890625 26.703125 6.890625 
Q 35.15625 6.890625 40.078125 11.328125 
Q 45.015625 15.765625 45.015625 23.390625 
Q 45.015625 31 40.078125 35.4375 
Q 35.15625 39.890625 26.703125 39.890625 
Q 22.75 39.890625 18.8125 39.015625 
Q 14.890625 38.140625 10.796875 36.28125 
z
" id="DejaVuSans-53"/>
      </defs>
      <g transform="translate(639.38474 416.316562)scale(0.1 -0.1)">
       <use xlink:href="#DejaVuSans-50"/>
       <use x="63.623047" xlink:href="#DejaVuSans-48"/>
       <use x="127.246094" xlink:href="#DejaVuSans-50"/>
       <use x="190.869141" xlink:href="#DejaVuSans-48"/>
       <use x="254.492188" xlink:href="#DejaVuSans-45"/>
       <use x="290.576172" xlink:href="#DejaVuSans-48"/>
       <use x="354.199219" xlink:href="#DejaVuSans-53"/>
       <use x="417.822266" xlink:href="#DejaVuSans-45"/>
       <use x="453.90625" xlink:href="#DejaVuSans-48"/>
       <use x="517.529297" xlink:href="#DejaVuSans-56"/>
      </g>
     </g>
    </g>
    <g id="text_8">
     <!-- Date -->
     <defs>
      <path d="M 19.671875 64.796875 
L 19.671875 8.109375 
L 31.59375 8.109375 
Q 46.6875 8.109375 53.6875 14.9375 
Q 60.6875 21.78125 60.6875 36.53125 
Q 60.6875 51.171875 53.6875 57.984375 
Q 46.6875 64.796875 31.59375 64.796875 
z
M 9.8125 72.90625 
L 30.078125 72.90625 
Q 51.265625 72.90625 61.171875 64.09375 
Q 71.09375 55.28125 71.09375 36.53125 
Q 71.09375 17.671875 61.125 8.828125 
Q 51.171875 0 30.078125 0 
L 9.8125 0 
z
" id="DejaVuSans-68"/>
      <path d="M 34.28125 27.484375 
Q 23.390625 27.484375 19.1875 25 
Q 14.984375 22.515625 14.984375 16.5 
Q 14.984375 11.71875 18.140625 8.90625 
Q 21.296875 6.109375 26.703125 6.109375 
Q 34.1875 6.109375 38.703125 11.40625 
Q 43.21875 16.703125 43.21875 25.484375 
L 43.21875 27.484375 
z
M 52.203125 31.203125 
L 52.203125 0 
L 43.21875 0 
L 43.21875 8.296875 
Q 40.140625 3.328125 35.546875 0.953125 
Q 30.953125 -1.421875 24.3125 -1.421875 
Q 15.921875 -1.421875 10.953125 3.296875 
Q 6 8.015625 6 15.921875 
Q 6 25.140625 12.171875 29.828125 
Q 18.359375 34.515625 30.609375 34.515625 
L 43.21875 34.515625 
L 43.21875 35.40625 
Q 43.21875 41.609375 39.140625 45 
Q 35.0625 48.390625 27.6875 48.390625 
Q 23 48.390625 18.546875 47.265625 
Q 14.109375 46.140625 10.015625 43.890625 
L 10.015625 52.203125 
Q 14.9375 54.109375 19.578125 55.046875 
Q 24.21875 56 28.609375 56 
Q 40.484375 56 46.34375 49.84375 
Q 52.203125 43.703125 52.203125 31.203125 
z
" id="DejaVuSans-97"/>
      <path d="M 18.3125 70.21875 
L 18.3125 54.6875 
L 36.8125 54.6875 
L 36.8125 47.703125 
L 18.3125 47.703125 
L 18.3125 18.015625 
Q 18.3125 11.328125 20.140625 9.421875 
Q 21.96875 7.515625 27.59375 7.515625 
L 36.8125 7.515625 
L 36.8125 0 
L 27.59375 0 
Q 17.1875 0 13.234375 3.875 
Q 9.28125 7.765625 9.28125 18.015625 
L 9.28125 47.703125 
L 2.6875 47.703125 
L 2.6875 54.6875 
L 9.28125 54.6875 
L 9.28125 70.21875 
z
" id="DejaVuSans-116"/>
      <path d="M 56.203125 29.59375 
L 56.203125 25.203125 
L 14.890625 25.203125 
Q 15.484375 15.921875 20.484375 11.0625 
Q 25.484375 6.203125 34.421875 6.203125 
Q 39.59375 6.203125 44.453125 7.46875 
Q 49.3125 8.734375 54.109375 11.28125 
L 54.109375 2.78125 
Q 49.265625 0.734375 44.1875 -0.34375 
Q 39.109375 -1.421875 33.890625 -1.421875 
Q 20.796875 -1.421875 13.15625 6.1875 
Q 5.515625 13.8125 5.515625 26.8125 
Q 5.515625 40.234375 12.765625 48.109375 
Q 20.015625 56 32.328125 56 
Q 43.359375 56 49.78125 48.890625 
Q 56.203125 41.796875 56.203125 29.59375 
z
M 47.21875 32.234375 
Q 47.125 39.59375 43.09375 43.984375 
Q 39.0625 48.390625 32.421875 48.390625 
Q 24.90625 48.390625 20.390625 44.140625 
Q 15.875 39.890625 15.1875 32.171875 
z
" id="DejaVuSans-101"/>
     </defs>
     <g transform="translate(365.232031 429.994687)scale(0.1 -0.1)">
      <use xlink:href="#DejaVuSans-68"/>
      <use x="77.001953" xlink:href="#DejaVuSans-97"/>
      <use x="138.28125" xlink:href="#DejaVuSans-116"/>
      <use x="177.490234" xlink:href="#DejaVuSans-101"/>
     </g>
    </g>
   </g>
   <g id="matplotlib.axis_2">
    <g id="ytick_1">
     <g id="line2d_15">
      <path clip-path="url(#pfae4f30269)" d="M 48.982813 341.851214 
L 705.382813 341.851214 
" style="fill:none;stroke:#808080;stroke-linecap:square;stroke-opacity:0.2;"/>
     </g>
     <g id="line2d_16">
      <defs>
       <path d="M 0 0 
L -3.5 0 
" id="mcf7c04d3ff" style="stroke:#000000;stroke-width:0.8;"/>
      </defs>
      <g>
       <use style="stroke:#000000;stroke-width:0.8;" x="48.982813" xlink:href="#mcf7c04d3ff" y="341.851214"/>
      </g>
     </g>
     <g id="text_9">
      <!-- −80 -->
      <defs>
       <path d="M 10.59375 35.5 
L 73.1875 35.5 
L 73.1875 27.203125 
L 10.59375 27.203125 
z
" id="DejaVuSans-8722"/>
      </defs>
      <g transform="translate(20.878125 345.650433)scale(0.1 -0.1)">
       <use xlink:href="#DejaVuSans-8722"/>
       <use x="83.789062" xlink:href="#DejaVuSans-56"/>
       <use x="147.412109" xlink:href="#DejaVuSans-48"/>
      </g>
     </g>
    </g>
    <g id="ytick_2">
     <g id="line2d_17">
      <path clip-path="url(#pfae4f30269)" d="M 48.982813 271.583405 
L 705.382813 271.583405 
" style="fill:none;stroke:#808080;stroke-linecap:square;stroke-opacity:0.2;"/>
     </g>
     <g id="line2d_18">
      <g>
       <use style="stroke:#000000;stroke-width:0.8;" x="48.982813" xlink:href="#mcf7c04d3ff" y="271.583405"/>
      </g>
     </g>
     <g id="text_10">
      <!-- −60 -->
      <defs>
       <path d="M 33.015625 40.375 
Q 26.375 40.375 22.484375 35.828125 
Q 18.609375 31.296875 18.609375 23.390625 
Q 18.609375 15.53125 22.484375 10.953125 
Q 26.375 6.390625 33.015625 6.390625 
Q 39.65625 6.390625 43.53125 10.953125 
Q 47.40625 15.53125 47.40625 23.390625 
Q 47.40625 31.296875 43.53125 35.828125 
Q 39.65625 40.375 33.015625 40.375 
z
M 52.59375 71.296875 
L 52.59375 62.3125 
Q 48.875 64.0625 45.09375 64.984375 
Q 41.3125 65.921875 37.59375 65.921875 
Q 27.828125 65.921875 22.671875 59.328125 
Q 17.53125 52.734375 16.796875 39.40625 
Q 19.671875 43.65625 24.015625 45.921875 
Q 28.375 48.1875 33.59375 48.1875 
Q 44.578125 48.1875 50.953125 41.515625 
Q 57.328125 34.859375 57.328125 23.390625 
Q 57.328125 12.15625 50.6875 5.359375 
Q 44.046875 -1.421875 33.015625 -1.421875 
Q 20.359375 -1.421875 13.671875 8.265625 
Q 6.984375 17.96875 6.984375 36.375 
Q 6.984375 53.65625 15.1875 63.9375 
Q 23.390625 74.21875 37.203125 74.21875 
Q 40.921875 74.21875 44.703125 73.484375 
Q 48.484375 72.75 52.59375 71.296875 
z
" id="DejaVuSans-54"/>
      </defs>
      <g transform="translate(20.878125 275.382624)scale(0.1 -0.1)">
       <use xlink:href="#DejaVuSans-8722"/>
       <use x="83.789062" xlink:href="#DejaVuSans-54"/>
       <use x="147.412109" xlink:href="#DejaVuSans-48"/>
      </g>
     </g>
    </g>
    <g id="ytick_3">
     <g id="line2d_19">
      <path clip-path="url(#pfae4f30269)" d="M 48.982813 201.315596 
L 705.382813 201.315596 
" style="fill:none;stroke:#808080;stroke-linecap:square;stroke-opacity:0.2;"/>
     </g>
     <g id="line2d_20">
      <g>
       <use style="stroke:#000000;stroke-width:0.8;" x="48.982813" xlink:href="#mcf7c04d3ff" y="201.315596"/>
      </g>
     </g>
     <g id="text_11">
      <!-- −40 -->
      <g transform="translate(20.878125 205.114814)scale(0.1 -0.1)">
       <use xlink:href="#DejaVuSans-8722"/>
       <use x="83.789062" xlink:href="#DejaVuSans-52"/>
       <use x="147.412109" xlink:href="#DejaVuSans-48"/>
      </g>
     </g>
    </g>
    <g id="ytick_4">
     <g id="line2d_21">
      <path clip-path="url(#pfae4f30269)" d="M 48.982813 131.047786 
L 705.382813 131.047786 
" style="fill:none;stroke:#808080;stroke-linecap:square;stroke-opacity:0.2;"/>
     </g>
     <g id="line2d_22">
      <g>
       <use style="stroke:#000000;stroke-width:0.8;" x="48.982813" xlink:href="#mcf7c04d3ff" y="131.047786"/>
      </g>
     </g>
     <g id="text_12">
      <!-- −20 -->
      <g transform="translate(20.878125 134.847005)scale(0.1 -0.1)">
       <use xlink:href="#DejaVuSans-8722"/>
       <use x="83.789062" xlink:href="#DejaVuSans-50"/>
       <use x="147.412109" xlink:href="#DejaVuSans-48"/>
      </g>
     </g>
    </g>
    <g id="ytick_5">
     <g id="line2d_23">
      <path clip-path="url(#pfae4f30269)" d="M 48.982813 60.779977 
L 705.382813 60.779977 
" style="fill:none;stroke:#808080;stroke-linecap:square;stroke-opacity:0.2;"/>
     </g>
     <g id="line2d_24">
      <g>
       <use style="stroke:#000000;stroke-width:0.8;" x="48.982813" xlink:href="#mcf7c04d3ff" y="60.779977"/>
      </g>
     </g>
     <g id="text_13">
      <!-- 0 -->
      <g transform="translate(35.620313 64.579196)scale(0.1 -0.1)">
       <use xlink:href="#DejaVuSans-48"/>
      </g>
     </g>
    </g>
    <g id="text_14">
     <!-- Retail and Recreation Mobility -->
     <defs>
      <path d="M 44.390625 34.1875 
Q 47.5625 33.109375 50.5625 29.59375 
Q 53.5625 26.078125 56.59375 19.921875 
L 66.609375 0 
L 56 0 
L 46.6875 18.703125 
Q 43.0625 26.03125 39.671875 28.421875 
Q 36.28125 30.8125 30.421875 30.8125 
L 19.671875 30.8125 
L 19.671875 0 
L 9.8125 0 
L 9.8125 72.90625 
L 32.078125 72.90625 
Q 44.578125 72.90625 50.734375 67.671875 
Q 56.890625 62.453125 56.890625 51.90625 
Q 56.890625 45.015625 53.6875 40.46875 
Q 50.484375 35.9375 44.390625 34.1875 
z
M 19.671875 64.796875 
L 19.671875 38.921875 
L 32.078125 38.921875 
Q 39.203125 38.921875 42.84375 42.21875 
Q 46.484375 45.515625 46.484375 51.90625 
Q 46.484375 58.296875 42.84375 61.546875 
Q 39.203125 64.796875 32.078125 64.796875 
z
" id="DejaVuSans-82"/>
      <path d="M 9.421875 54.6875 
L 18.40625 54.6875 
L 18.40625 0 
L 9.421875 0 
z
M 9.421875 75.984375 
L 18.40625 75.984375 
L 18.40625 64.59375 
L 9.421875 64.59375 
z
" id="DejaVuSans-105"/>
      <path d="M 9.421875 75.984375 
L 18.40625 75.984375 
L 18.40625 0 
L 9.421875 0 
z
" id="DejaVuSans-108"/>
      <path id="DejaVuSans-32"/>
      <path d="M 54.890625 33.015625 
L 54.890625 0 
L 45.90625 0 
L 45.90625 32.71875 
Q 45.90625 40.484375 42.875 44.328125 
Q 39.84375 48.1875 33.796875 48.1875 
Q 26.515625 48.1875 22.3125 43.546875 
Q 18.109375 38.921875 18.109375 30.90625 
L 18.109375 0 
L 9.078125 0 
L 9.078125 54.6875 
L 18.109375 54.6875 
L 18.109375 46.1875 
Q 21.34375 51.125 25.703125 53.5625 
Q 30.078125 56 35.796875 56 
Q 45.21875 56 50.046875 50.171875 
Q 54.890625 44.34375 54.890625 33.015625 
z
" id="DejaVuSans-110"/>
      <path d="M 45.40625 46.390625 
L 45.40625 75.984375 
L 54.390625 75.984375 
L 54.390625 0 
L 45.40625 0 
L 45.40625 8.203125 
Q 42.578125 3.328125 38.25 0.953125 
Q 33.9375 -1.421875 27.875 -1.421875 
Q 17.96875 -1.421875 11.734375 6.484375 
Q 5.515625 14.40625 5.515625 27.296875 
Q 5.515625 40.1875 11.734375 48.09375 
Q 17.96875 56 27.875 56 
Q 33.9375 56 38.25 53.625 
Q 42.578125 51.265625 45.40625 46.390625 
z
M 14.796875 27.296875 
Q 14.796875 17.390625 18.875 11.75 
Q 22.953125 6.109375 30.078125 6.109375 
Q 37.203125 6.109375 41.296875 11.75 
Q 45.40625 17.390625 45.40625 27.296875 
Q 45.40625 37.203125 41.296875 42.84375 
Q 37.203125 48.484375 30.078125 48.484375 
Q 22.953125 48.484375 18.875 42.84375 
Q 14.796875 37.203125 14.796875 27.296875 
z
" id="DejaVuSans-100"/>
      <path d="M 48.78125 52.59375 
L 48.78125 44.1875 
Q 44.96875 46.296875 41.140625 47.34375 
Q 37.3125 48.390625 33.40625 48.390625 
Q 24.65625 48.390625 19.8125 42.84375 
Q 14.984375 37.3125 14.984375 27.296875 
Q 14.984375 17.28125 19.8125 11.734375 
Q 24.65625 6.203125 33.40625 6.203125 
Q 37.3125 6.203125 41.140625 7.25 
Q 44.96875 8.296875 48.78125 10.40625 
L 48.78125 2.09375 
Q 45.015625 0.34375 40.984375 -0.53125 
Q 36.96875 -1.421875 32.421875 -1.421875 
Q 20.0625 -1.421875 12.78125 6.34375 
Q 5.515625 14.109375 5.515625 27.296875 
Q 5.515625 40.671875 12.859375 48.328125 
Q 20.21875 56 33.015625 56 
Q 37.15625 56 41.109375 55.140625 
Q 45.0625 54.296875 48.78125 52.59375 
z
" id="DejaVuSans-99"/>
      <path d="M 41.109375 46.296875 
Q 39.59375 47.171875 37.8125 47.578125 
Q 36.03125 48 33.890625 48 
Q 26.265625 48 22.1875 43.046875 
Q 18.109375 38.09375 18.109375 28.8125 
L 18.109375 0 
L 9.078125 0 
L 9.078125 54.6875 
L 18.109375 54.6875 
L 18.109375 46.1875 
Q 20.953125 51.171875 25.484375 53.578125 
Q 30.03125 56 36.53125 56 
Q 37.453125 56 38.578125 55.875 
Q 39.703125 55.765625 41.0625 55.515625 
z
" id="DejaVuSans-114"/>
      <path d="M 30.609375 48.390625 
Q 23.390625 48.390625 19.1875 42.75 
Q 14.984375 37.109375 14.984375 27.296875 
Q 14.984375 17.484375 19.15625 11.84375 
Q 23.34375 6.203125 30.609375 6.203125 
Q 37.796875 6.203125 41.984375 11.859375 
Q 46.1875 17.53125 46.1875 27.296875 
Q 46.1875 37.015625 41.984375 42.703125 
Q 37.796875 48.390625 30.609375 48.390625 
z
M 30.609375 56 
Q 42.328125 56 49.015625 48.375 
Q 55.71875 40.765625 55.71875 27.296875 
Q 55.71875 13.875 49.015625 6.21875 
Q 42.328125 -1.421875 30.609375 -1.421875 
Q 18.84375 -1.421875 12.171875 6.21875 
Q 5.515625 13.875 5.515625 27.296875 
Q 5.515625 40.765625 12.171875 48.375 
Q 18.84375 56 30.609375 56 
z
" id="DejaVuSans-111"/>
      <path d="M 9.8125 72.90625 
L 24.515625 72.90625 
L 43.109375 23.296875 
L 61.8125 72.90625 
L 76.515625 72.90625 
L 76.515625 0 
L 66.890625 0 
L 66.890625 64.015625 
L 48.09375 14.015625 
L 38.1875 14.015625 
L 19.390625 64.015625 
L 19.390625 0 
L 9.8125 0 
z
" id="DejaVuSans-77"/>
      <path d="M 48.6875 27.296875 
Q 48.6875 37.203125 44.609375 42.84375 
Q 40.53125 48.484375 33.40625 48.484375 
Q 26.265625 48.484375 22.1875 42.84375 
Q 18.109375 37.203125 18.109375 27.296875 
Q 18.109375 17.390625 22.1875 11.75 
Q 26.265625 6.109375 33.40625 6.109375 
Q 40.53125 6.109375 44.609375 11.75 
Q 48.6875 17.390625 48.6875 27.296875 
z
M 18.109375 46.390625 
Q 20.953125 51.265625 25.265625 53.625 
Q 29.59375 56 35.59375 56 
Q 45.5625 56 51.78125 48.09375 
Q 58.015625 40.1875 58.015625 27.296875 
Q 58.015625 14.40625 51.78125 6.484375 
Q 45.5625 -1.421875 35.59375 -1.421875 
Q 29.59375 -1.421875 25.265625 0.953125 
Q 20.953125 3.328125 18.109375 8.203125 
L 18.109375 0 
L 9.078125 0 
L 9.078125 75.984375 
L 18.109375 75.984375 
z
" id="DejaVuSans-98"/>
      <path d="M 32.171875 -5.078125 
Q 28.375 -14.84375 24.75 -17.8125 
Q 21.140625 -20.796875 15.09375 -20.796875 
L 7.90625 -20.796875 
L 7.90625 -13.28125 
L 13.1875 -13.28125 
Q 16.890625 -13.28125 18.9375 -11.515625 
Q 21 -9.765625 23.484375 -3.21875 
L 25.09375 0.875 
L 2.984375 54.6875 
L 12.5 54.6875 
L 29.59375 11.921875 
L 46.6875 54.6875 
L 56.203125 54.6875 
z
" id="DejaVuSans-121"/>
     </defs>
     <g transform="translate(14.798438 286.690781)rotate(-90)scale(0.1 -0.1)">
      <use xlink:href="#DejaVuSans-82"/>
      <use x="64.982422" xlink:href="#DejaVuSans-101"/>
      <use x="126.505859" xlink:href="#DejaVuSans-116"/>
      <use x="165.714844" xlink:href="#DejaVuSans-97"/>
      <use x="226.994141" xlink:href="#DejaVuSans-105"/>
      <use x="254.777344" xlink:href="#DejaVuSans-108"/>
      <use x="282.560547" xlink:href="#DejaVuSans-32"/>
      <use x="314.347656" xlink:href="#DejaVuSans-97"/>
      <use x="375.626953" xlink:href="#DejaVuSans-110"/>
      <use x="439.005859" xlink:href="#DejaVuSans-100"/>
      <use x="502.482422" xlink:href="#DejaVuSans-32"/>
      <use x="534.269531" xlink:href="#DejaVuSans-82"/>
      <use x="599.251953" xlink:href="#DejaVuSans-101"/>
      <use x="660.775391" xlink:href="#DejaVuSans-99"/>
      <use x="715.755859" xlink:href="#DejaVuSans-114"/>
      <use x="754.619141" xlink:href="#DejaVuSans-101"/>
      <use x="816.142578" xlink:href="#DejaVuSans-97"/>
      <use x="877.421875" xlink:href="#DejaVuSans-116"/>
      <use x="916.630859" xlink:href="#DejaVuSans-105"/>
      <use x="944.414062" xlink:href="#DejaVuSans-111"/>
      <use x="1005.595703" xlink:href="#DejaVuSans-110"/>
      <use x="1068.974609" xlink:href="#DejaVuSans-32"/>
      <use x="1100.761719" xlink:href="#DejaVuSans-77"/>
      <use x="1187.041016" xlink:href="#DejaVuSans-111"/>
      <use x="1248.222656" xlink:href="#DejaVuSans-98"/>
      <use x="1311.699219" xlink:href="#DejaVuSans-105"/>
      <use x="1339.482422" xlink:href="#DejaVuSans-108"/>
      <use x="1367.265625" xlink:href="#DejaVuSans-105"/>
      <use x="1395.048828" xlink:href="#DejaVuSans-116"/>
      <use x="1434.257812" xlink:href="#DejaVuSans-121"/>
     </g>
    </g>
   </g>
   <g id="line2d_25">
    <defs>
     <path d="M 0 1.5 
C 0.397805 1.5 0.77937 1.341951 1.06066 1.06066 
C 1.341951 0.77937 1.5 0.397805 1.5 0 
C 1.5 -0.397805 1.341951 -0.77937 1.06066 -1.06066 
C 0.77937 -1.341951 0.397805 -1.5 0 -1.5 
C -0.397805 -1.5 -0.77937 -1.341951 -1.06066 -1.06066 
C -1.341951 -0.77937 -1.5 -0.397805 -1.5 0 
C -1.5 0.397805 -1.341951 0.77937 -1.06066 1.06066 
C -0.77937 1.341951 -0.397805 1.5 0 1.5 
z
" id="m63070184ee" style="stroke:#000000;"/>
    </defs>
    <g clip-path="url(#pfae4f30269)">
     <use style="stroke:#000000;" x="78.819176" xlink:href="#m63070184ee" y="57.266586"/>
     <use style="stroke:#000000;" x="85.923072" xlink:href="#m63070184ee" y="53.753196"/>
     <use style="stroke:#000000;" x="93.026968" xlink:href="#m63070184ee" y="64.293367"/>
     <use style="stroke:#000000;" x="100.130864" xlink:href="#m63070184ee" y="60.779977"/>
     <use style="stroke:#000000;" x="107.234761" xlink:href="#m63070184ee" y="60.779977"/>
     <use style="stroke:#000000;" x="114.338657" xlink:href="#m63070184ee" y="57.266586"/>
     <use style="stroke:#000000;" x="121.442553" xlink:href="#m63070184ee" y="74.833539"/>
     <use style="stroke:#000000;" x="128.546449" xlink:href="#m63070184ee" y="67.806758"/>
     <use style="stroke:#000000;" x="135.650345" xlink:href="#m63070184ee" y="67.806758"/>
     <use style="stroke:#000000;" x="142.754241" xlink:href="#m63070184ee" y="64.293367"/>
     <use style="stroke:#000000;" x="149.858137" xlink:href="#m63070184ee" y="64.293367"/>
     <use style="stroke:#000000;" x="156.962033" xlink:href="#m63070184ee" y="60.779977"/>
     <use style="stroke:#000000;" x="164.065929" xlink:href="#m63070184ee" y="64.293367"/>
     <use style="stroke:#000000;" x="171.169825" xlink:href="#m63070184ee" y="60.779977"/>
     <use style="stroke:#000000;" x="178.273722" xlink:href="#m63070184ee" y="67.806758"/>
     <use style="stroke:#000000;" x="185.377618" xlink:href="#m63070184ee" y="57.266586"/>
     <use style="stroke:#000000;" x="192.481514" xlink:href="#m63070184ee" y="60.779977"/>
     <use style="stroke:#000000;" x="199.58541" xlink:href="#m63070184ee" y="64.293367"/>
     <use style="stroke:#000000;" x="206.689306" xlink:href="#m63070184ee" y="60.779977"/>
     <use style="stroke:#000000;" x="213.793202" xlink:href="#m63070184ee" y="64.293367"/>
     <use style="stroke:#000000;" x="220.897098" xlink:href="#m63070184ee" y="64.293367"/>
     <use style="stroke:#000000;" x="228.000994" xlink:href="#m63070184ee" y="60.779977"/>
     <use style="stroke:#000000;" x="235.10489" xlink:href="#m63070184ee" y="53.753196"/>
     <use style="stroke:#000000;" x="242.208787" xlink:href="#m63070184ee" y="64.293367"/>
     <use style="stroke:#000000;" x="249.312683" xlink:href="#m63070184ee" y="127.534396"/>
     <use style="stroke:#000000;" x="256.416579" xlink:href="#m63070184ee" y="78.346929"/>
     <use style="stroke:#000000;" x="263.520475" xlink:href="#m63070184ee" y="71.320148"/>
     <use style="stroke:#000000;" x="270.624371" xlink:href="#m63070184ee" y="78.346929"/>
     <use style="stroke:#000000;" x="277.728267" xlink:href="#m63070184ee" y="99.427272"/>
     <use style="stroke:#000000;" x="284.832163" xlink:href="#m63070184ee" y="99.427272"/>
     <use style="stroke:#000000;" x="291.936059" xlink:href="#m63070184ee" y="88.887101"/>
     <use style="stroke:#000000;" x="299.039955" xlink:href="#m63070184ee" y="99.427272"/>
     <use style="stroke:#000000;" x="306.143851" xlink:href="#m63070184ee" y="102.940663"/>
     <use style="stroke:#000000;" x="313.247748" xlink:href="#m63070184ee" y="116.994224"/>
     <use style="stroke:#000000;" x="320.351644" xlink:href="#m63070184ee" y="138.074567"/>
     <use style="stroke:#000000;" x="327.45554" xlink:href="#m63070184ee" y="180.235253"/>
     <use style="stroke:#000000;" x="334.559436" xlink:href="#m63070184ee" y="334.824433"/>
     <use style="stroke:#000000;" x="341.663332" xlink:href="#m63070184ee" y="250.503062"/>
     <use style="stroke:#000000;" x="348.767228" xlink:href="#m63070184ee" y="299.690529"/>
     <use style="stroke:#000000;" x="355.871124" xlink:href="#m63070184ee" y="331.311043"/>
     <use style="stroke:#000000;" x="362.97502" xlink:href="#m63070184ee" y="327.797652"/>
     <use style="stroke:#000000;" x="370.078916" xlink:href="#m63070184ee" y="331.311043"/>
     <use style="stroke:#000000;" x="377.182812" xlink:href="#m63070184ee" y="334.824433"/>
     <use style="stroke:#000000;" x="384.286709" xlink:href="#m63070184ee" y="331.311043"/>
     <use style="stroke:#000000;" x="391.390605" xlink:href="#m63070184ee" y="327.797652"/>
     <use style="stroke:#000000;" x="398.494501" xlink:href="#m63070184ee" y="324.284262"/>
     <use style="stroke:#000000;" x="405.598397" xlink:href="#m63070184ee" y="327.797652"/>
     <use style="stroke:#000000;" x="412.702293" xlink:href="#m63070184ee" y="327.797652"/>
     <use style="stroke:#000000;" x="419.806189" xlink:href="#m63070184ee" y="327.797652"/>
     <use style="stroke:#000000;" x="426.910085" xlink:href="#m63070184ee" y="331.311043"/>
     <use style="stroke:#000000;" x="434.013981" xlink:href="#m63070184ee" y="331.311043"/>
     <use style="stroke:#000000;" x="441.117877" xlink:href="#m63070184ee" y="327.797652"/>
     <use style="stroke:#000000;" x="448.221774" xlink:href="#m63070184ee" y="334.824433"/>
     <use style="stroke:#000000;" x="455.32567" xlink:href="#m63070184ee" y="334.824433"/>
     <use style="stroke:#000000;" x="462.429566" xlink:href="#m63070184ee" y="334.824433"/>
     <use style="stroke:#000000;" x="469.533462" xlink:href="#m63070184ee" y="338.337824"/>
     <use style="stroke:#000000;" x="476.637358" xlink:href="#m63070184ee" y="341.851214"/>
     <use style="stroke:#000000;" x="483.741254" xlink:href="#m63070184ee" y="338.337824"/>
     <use style="stroke:#000000;" x="490.84515" xlink:href="#m63070184ee" y="334.824433"/>
     <use style="stroke:#000000;" x="497.949046" xlink:href="#m63070184ee" y="334.824433"/>
     <use style="stroke:#000000;" x="505.052942" xlink:href="#m63070184ee" y="334.824433"/>
     <use style="stroke:#000000;" x="512.156838" xlink:href="#m63070184ee" y="359.418167"/>
     <use style="stroke:#000000;" x="519.260735" xlink:href="#m63070184ee" y="359.418167"/>
     <use style="stroke:#000000;" x="526.364631" xlink:href="#m63070184ee" y="366.444948"/>
     <use style="stroke:#000000;" x="533.468527" xlink:href="#m63070184ee" y="362.931557"/>
     <use style="stroke:#000000;" x="540.572423" xlink:href="#m63070184ee" y="362.931557"/>
     <use style="stroke:#000000;" x="547.676319" xlink:href="#m63070184ee" y="359.418167"/>
     <use style="stroke:#000000;" x="554.780215" xlink:href="#m63070184ee" y="362.931557"/>
     <use style="stroke:#000000;" x="561.884111" xlink:href="#m63070184ee" y="362.931557"/>
     <use style="stroke:#000000;" x="568.988007" xlink:href="#m63070184ee" y="359.418167"/>
     <use style="stroke:#000000;" x="576.091903" xlink:href="#m63070184ee" y="362.931557"/>
     <use style="stroke:#000000;" x="583.1958" xlink:href="#m63070184ee" y="362.931557"/>
     <use style="stroke:#000000;" x="590.299696" xlink:href="#m63070184ee" y="359.418167"/>
     <use style="stroke:#000000;" x="597.403592" xlink:href="#m63070184ee" y="359.418167"/>
     <use style="stroke:#000000;" x="604.507488" xlink:href="#m63070184ee" y="359.418167"/>
     <use style="stroke:#000000;" x="611.611384" xlink:href="#m63070184ee" y="355.904776"/>
     <use style="stroke:#000000;" x="618.71528" xlink:href="#m63070184ee" y="359.418167"/>
     <use style="stroke:#000000;" x="625.819176" xlink:href="#m63070184ee" y="359.418167"/>
     <use style="stroke:#000000;" x="632.923072" xlink:href="#m63070184ee" y="359.418167"/>
     <use style="stroke:#000000;" x="640.026968" xlink:href="#m63070184ee" y="345.364605"/>
     <use style="stroke:#000000;" x="647.130864" xlink:href="#m63070184ee" y="345.364605"/>
     <use style="stroke:#000000;" x="654.234761" xlink:href="#m63070184ee" y="338.337824"/>
     <use style="stroke:#000000;" x="661.338657" xlink:href="#m63070184ee" y="338.337824"/>
     <use style="stroke:#000000;" x="668.442553" xlink:href="#m63070184ee" y="338.337824"/>
     <use style="stroke:#000000;" x="675.546449" xlink:href="#m63070184ee" y="341.851214"/>
    </g>
   </g>
   <g id="line2d_26">
    <path clip-path="url(#pfae4f30269)" d="M 78.819176 60.864524 
L 85.923072 67.90046 
L 93.026968 56.032622 
L 100.130864 62.825629 
L 107.234761 59.406901 
L 114.338657 57.910788 
L 121.442553 59.121434 
L 128.546449 62.95998 
L 135.650345 69.994753 
L 142.754241 58.123596 
L 149.858137 64.913285 
L 156.962033 61.491803 
L 164.065929 59.992937 
L 171.169825 61.201428 
L 178.273722 65.037819 
L 185.377618 72.070437 
L 192.481514 60.199281 
L 199.58541 66.98983 
L 206.689306 63.569208 
L 213.793202 62.071202 
L 220.897098 63.280656 
L 228.000994 67.11801 
L 235.10489 77.354006 
L 242.208787 68.686228 
L 249.312683 78.679296 
L 256.416579 78.461192 
L 263.520475 80.165704 
L 270.624371 84.577573 
L 277.728267 91.618242 
L 284.832163 101.85514 
L 291.936059 93.188425 
L 299.039955 103.182557 
L 306.143851 102.965517 
L 313.247748 134.489394 
L 320.351644 168.720629 
L 327.45554 205.579763 
L 334.559436 245.635124 
L 341.663332 266.786711 
L 348.767228 306.599144 
L 355.871124 314.685346 
L 362.97502 324.694165 
L 370.078916 326.001102 
L 377.182812 329.935938 
L 384.286709 337.067003 
L 391.390605 325.294292 
L 398.494501 332.182428 
L 405.598397 328.859392 
L 412.702293 327.458973 
L 419.806189 328.765911 
L 426.910085 332.700974 
L 434.013981 339.832265 
L 441.117877 328.059782 
L 448.221774 335.874022 
L 455.32567 333.477091 
L 462.429566 333.002776 
L 469.533462 335.237599 
L 476.637358 340.100321 
L 483.741254 349.217749 
L 490.84515 339.431403 
L 497.949046 348.305903 
L 505.052942 346.969963 
L 512.156838 347.556639 
L 519.260735 350.850672 
L 526.364631 356.772604 
L 533.468527 365.890764 
L 540.572423 356.104372 
L 547.676319 364.978825 
L 554.780215 363.642107 
L 561.884111 360.525764 
L 568.988007 360.116778 
L 576.091903 362.335691 
L 583.1958 367.750831 
L 590.299696 354.262198 
L 597.403592 359.43441 
L 604.507488 354.395451 
L 611.611384 351.279107 
L 618.71528 350.870121 
L 625.819176 353.089034 
L 632.923072 358.504175 
L 640.026968 345.015541 
L 647.130864 350.187753 
L 654.234761 345.148794 
L 661.338657 342.032451 
L 668.442553 341.623464 
L 675.546449 343.842377 
" style="fill:none;stroke:#0072b2;stroke-linecap:square;stroke-width:1.5;"/>
   </g>
   <g id="line2d_27">
    <path clip-path="url(#pfae4f30269)" d="M 78.819176 59.681373 
L 85.923072 59.981217 
L 93.026968 60.281062 
L 100.130864 60.580906 
L 107.234761 60.880186 
L 114.338657 61.179466 
L 121.442553 61.478147 
L 128.546449 61.776829 
L 135.650345 62.07551 
L 142.754241 62.372036 
L 149.858137 62.668562 
L 156.962033 62.965089 
L 164.065929 63.261615 
L 171.169825 63.558141 
L 178.273722 63.854668 
L 185.377618 64.151194 
L 192.481514 64.447721 
L 199.58541 64.745107 
L 206.689306 65.042494 
L 213.793202 65.33988 
L 220.897098 65.637369 
L 228.000994 65.934859 
L 235.10489 69.434764 
L 242.208787 72.934668 
L 249.312683 76.434573 
L 256.416579 79.934477 
L 263.520475 83.434381 
L 270.624371 86.934286 
L 277.728267 90.435091 
L 284.832163 93.935897 
L 291.936059 97.436865 
L 299.039955 100.937834 
L 306.143851 104.438802 
L 313.247748 137.758072 
L 320.351644 171.077342 
L 327.45554 204.396612 
L 334.559436 237.715881 
L 341.663332 271.035151 
L 348.767228 304.354421 
L 355.871124 316.158632 
L 362.97502 327.962843 
L 370.078916 328.357815 
L 377.182812 328.752788 
L 384.286709 329.14776 
L 391.390605 329.542733 
L 398.494501 329.937705 
L 405.598397 330.332678 
L 412.702293 330.727651 
L 419.806189 331.122624 
L 426.910085 331.517823 
L 434.013981 331.913023 
L 441.117877 332.308222 
L 448.221774 333.629299 
L 455.32567 334.950376 
L 462.429566 336.271454 
L 469.533462 337.594312 
L 476.637358 338.91717 
L 483.741254 341.298507 
L 490.84515 343.679843 
L 497.949046 346.06118 
L 505.052942 348.443249 
L 512.156838 350.825317 
L 519.260735 353.207385 
L 526.364631 355.589453 
L 533.468527 357.971521 
L 540.572423 360.352812 
L 547.676319 362.734102 
L 554.780215 365.115393 
L 561.884111 363.794442 
L 568.988007 362.473491 
L 576.091903 361.15254 
L 583.1958 359.831589 
L 590.299696 358.510638 
L 597.403592 357.189687 
L 604.507488 355.868736 
L 611.611384 354.547785 
L 618.71528 353.226834 
L 625.819176 351.905883 
L 632.923072 350.584932 
L 640.026968 349.263981 
L 647.130864 347.94303 
L 654.234761 346.622079 
L 661.338657 345.301128 
L 668.442553 343.980177 
L 675.546449 342.659226 
" style="fill:none;stroke:#0000ff;stroke-linecap:square;stroke-width:1.5;"/>
   </g>
   <g id="line2d_28">
    <path clip-path="url(#pfae4f30269)" d="M 228.000994 401.718125 
L 228.000994 22.318125 
" style="fill:none;stroke:#0000ff;stroke-dasharray:5.55,2.4;stroke-dashoffset:0;stroke-width:1.5;"/>
   </g>
   <g id="line2d_29">
    <path clip-path="url(#pfae4f30269)" d="M 306.143851 401.718125 
L 306.143851 22.318125 
" style="fill:none;stroke:#0000ff;stroke-dasharray:5.55,2.4;stroke-dashoffset:0;stroke-width:1.5;"/>
   </g>
   <g id="line2d_30">
    <path clip-path="url(#pfae4f30269)" d="M 348.767228 401.718125 
L 348.767228 22.318125 
" style="fill:none;stroke:#0000ff;stroke-dasharray:5.55,2.4;stroke-dashoffset:0;stroke-width:1.5;"/>
   </g>
   <g id="line2d_31">
    <path clip-path="url(#pfae4f30269)" d="M 362.97502 401.718125 
L 362.97502 22.318125 
" style="fill:none;stroke:#0000ff;stroke-dasharray:5.55,2.4;stroke-dashoffset:0;stroke-width:1.5;"/>
   </g>
   <g id="line2d_32">
    <path clip-path="url(#pfae4f30269)" d="M 441.117877 401.718125 
L 441.117877 22.318125 
" style="fill:none;stroke:#0000ff;stroke-dasharray:5.55,2.4;stroke-dashoffset:0;stroke-width:1.5;"/>
   </g>
   <g id="line2d_33">
    <path clip-path="url(#pfae4f30269)" d="M 476.637358 401.718125 
L 476.637358 22.318125 
" style="fill:none;stroke:#0000ff;stroke-dasharray:5.55,2.4;stroke-dashoffset:0;stroke-width:1.5;"/>
   </g>
   <g id="line2d_34">
    <path clip-path="url(#pfae4f30269)" d="M 554.780215 401.718125 
L 554.780215 22.318125 
" style="fill:none;stroke:#0000ff;stroke-dasharray:5.55,2.4;stroke-dashoffset:0;stroke-width:1.5;"/>
   </g>
   <g id="line2d_35">
    <path clip-path="url(#pfae4f30269)" d="M 306.143851 401.718125 
L 306.143851 22.318125 
" style="fill:none;stroke:#ff0000;stroke-linecap:square;stroke-width:3;"/>
   </g>
   <g id="patch_3">
    <path d="M 48.982813 401.718125 
L 48.982813 22.318125 
" style="fill:none;stroke:#000000;stroke-linecap:square;stroke-linejoin:miter;stroke-width:0.8;"/>
   </g>
   <g id="patch_4">
    <path d="M 705.382813 401.718125 
L 705.382813 22.318125 
" style="fill:none;stroke:#000000;stroke-linecap:square;stroke-linejoin:miter;stroke-width:0.8;"/>
   </g>
   <g id="patch_5">
    <path d="M 48.982812 401.718125 
L 705.382812 401.718125 
" style="fill:none;stroke:#000000;stroke-linecap:square;stroke-linejoin:miter;stroke-width:0.8;"/>
   </g>
   <g id="patch_6">
    <path d="M 48.982812 22.318125 
L 705.382812 22.318125 
" style="fill:none;stroke:#000000;stroke-linecap:square;stroke-linejoin:miter;stroke-width:0.8;"/>
   </g>
   <g id="text_15">
    <!-- Retail and Recreation Mobility Graph for India -->
    <defs>
     <path d="M 59.515625 10.40625 
L 59.515625 29.984375 
L 43.40625 29.984375 
L 43.40625 38.09375 
L 69.28125 38.09375 
L 69.28125 6.78125 
Q 63.578125 2.734375 56.6875 0.65625 
Q 49.8125 -1.421875 42 -1.421875 
Q 24.90625 -1.421875 15.25 8.5625 
Q 5.609375 18.5625 5.609375 36.375 
Q 5.609375 54.25 15.25 64.234375 
Q 24.90625 74.21875 42 74.21875 
Q 49.125 74.21875 55.546875 72.453125 
Q 61.96875 70.703125 67.390625 67.28125 
L 67.390625 56.78125 
Q 61.921875 61.421875 55.765625 63.765625 
Q 49.609375 66.109375 42.828125 66.109375 
Q 29.4375 66.109375 22.71875 58.640625 
Q 16.015625 51.171875 16.015625 36.375 
Q 16.015625 21.625 22.71875 14.15625 
Q 29.4375 6.6875 42.828125 6.6875 
Q 48.046875 6.6875 52.140625 7.59375 
Q 56.25 8.5 59.515625 10.40625 
z
" id="DejaVuSans-71"/>
     <path d="M 18.109375 8.203125 
L 18.109375 -20.796875 
L 9.078125 -20.796875 
L 9.078125 54.6875 
L 18.109375 54.6875 
L 18.109375 46.390625 
Q 20.953125 51.265625 25.265625 53.625 
Q 29.59375 56 35.59375 56 
Q 45.5625 56 51.78125 48.09375 
Q 58.015625 40.1875 58.015625 27.296875 
Q 58.015625 14.40625 51.78125 6.484375 
Q 45.5625 -1.421875 35.59375 -1.421875 
Q 29.59375 -1.421875 25.265625 0.953125 
Q 20.953125 3.328125 18.109375 8.203125 
z
M 48.6875 27.296875 
Q 48.6875 37.203125 44.609375 42.84375 
Q 40.53125 48.484375 33.40625 48.484375 
Q 26.265625 48.484375 22.1875 42.84375 
Q 18.109375 37.203125 18.109375 27.296875 
Q 18.109375 17.390625 22.1875 11.75 
Q 26.265625 6.109375 33.40625 6.109375 
Q 40.53125 6.109375 44.609375 11.75 
Q 48.6875 17.390625 48.6875 27.296875 
z
" id="DejaVuSans-112"/>
     <path d="M 54.890625 33.015625 
L 54.890625 0 
L 45.90625 0 
L 45.90625 32.71875 
Q 45.90625 40.484375 42.875 44.328125 
Q 39.84375 48.1875 33.796875 48.1875 
Q 26.515625 48.1875 22.3125 43.546875 
Q 18.109375 38.921875 18.109375 30.90625 
L 18.109375 0 
L 9.078125 0 
L 9.078125 75.984375 
L 18.109375 75.984375 
L 18.109375 46.1875 
Q 21.34375 51.125 25.703125 53.5625 
Q 30.078125 56 35.796875 56 
Q 45.21875 56 50.046875 50.171875 
Q 54.890625 44.34375 54.890625 33.015625 
z
" id="DejaVuSans-104"/>
     <path d="M 37.109375 75.984375 
L 37.109375 68.5 
L 28.515625 68.5 
Q 23.6875 68.5 21.796875 66.546875 
Q 19.921875 64.59375 19.921875 59.515625 
L 19.921875 54.6875 
L 34.71875 54.6875 
L 34.71875 47.703125 
L 19.921875 47.703125 
L 19.921875 0 
L 10.890625 0 
L 10.890625 47.703125 
L 2.296875 47.703125 
L 2.296875 54.6875 
L 10.890625 54.6875 
L 10.890625 58.5 
Q 10.890625 67.625 15.140625 71.796875 
Q 19.390625 75.984375 28.609375 75.984375 
z
" id="DejaVuSans-102"/>
     <path d="M 9.8125 72.90625 
L 19.671875 72.90625 
L 19.671875 0 
L 9.8125 0 
z
" id="DejaVuSans-73"/>
    </defs>
    <g transform="translate(240.475625 16.318125)scale(0.12 -0.12)">
     <use xlink:href="#DejaVuSans-82"/>
     <use x="64.982422" xlink:href="#DejaVuSans-101"/>
     <use x="126.505859" xlink:href="#DejaVuSans-116"/>
     <use x="165.714844" xlink:href="#DejaVuSans-97"/>
     <use x="226.994141" xlink:href="#DejaVuSans-105"/>
     <use x="254.777344" xlink:href="#DejaVuSans-108"/>
     <use x="282.560547" xlink:href="#DejaVuSans-32"/>
     <use x="314.347656" xlink:href="#DejaVuSans-97"/>
     <use x="375.626953" xlink:href="#DejaVuSans-110"/>
     <use x="439.005859" xlink:href="#DejaVuSans-100"/>
     <use x="502.482422" xlink:href="#DejaVuSans-32"/>
     <use x="534.269531" xlink:href="#DejaVuSans-82"/>
     <use x="599.251953" xlink:href="#DejaVuSans-101"/>
     <use x="660.775391" xlink:href="#DejaVuSans-99"/>
     <use x="715.755859" xlink:href="#DejaVuSans-114"/>
     <use x="754.619141" xlink:href="#DejaVuSans-101"/>
     <use x="816.142578" xlink:href="#DejaVuSans-97"/>
     <use x="877.421875" xlink:href="#DejaVuSans-116"/>
     <use x="916.630859" xlink:href="#DejaVuSans-105"/>
     <use x="944.414062" xlink:href="#DejaVuSans-111"/>
     <use x="1005.595703" xlink:href="#DejaVuSans-110"/>
     <use x="1068.974609" xlink:href="#DejaVuSans-32"/>
     <use x="1100.761719" xlink:href="#DejaVuSans-77"/>
     <use x="1187.041016" xlink:href="#DejaVuSans-111"/>
     <use x="1248.222656" xlink:href="#DejaVuSans-98"/>
     <use x="1311.699219" xlink:href="#DejaVuSans-105"/>
     <use x="1339.482422" xlink:href="#DejaVuSans-108"/>
     <use x="1367.265625" xlink:href="#DejaVuSans-105"/>
     <use x="1395.048828" xlink:href="#DejaVuSans-116"/>
     <use x="1434.257812" xlink:href="#DejaVuSans-121"/>
     <use x="1493.4375" xlink:href="#DejaVuSans-32"/>
     <use x="1525.224609" xlink:href="#DejaVuSans-71"/>
     <use x="1602.714844" xlink:href="#DejaVuSans-114"/>
     <use x="1643.828125" xlink:href="#DejaVuSans-97"/>
     <use x="1705.107422" xlink:href="#DejaVuSans-112"/>
     <use x="1768.583984" xlink:href="#DejaVuSans-104"/>
     <use x="1831.962891" xlink:href="#DejaVuSans-32"/>
     <use x="1863.75" xlink:href="#DejaVuSans-102"/>
     <use x="1898.955078" xlink:href="#DejaVuSans-111"/>
     <use x="1960.136719" xlink:href="#DejaVuSans-114"/>
     <use x="2001.25" xlink:href="#DejaVuSans-32"/>
     <use x="2033.037109" xlink:href="#DejaVuSans-73"/>
     <use x="2062.529297" xlink:href="#DejaVuSans-110"/>
     <use x="2125.908203" xlink:href="#DejaVuSans-100"/>
     <use x="2189.384766" xlink:href="#DejaVuSans-105"/>
     <use x="2217.167969" xlink:href="#DejaVuSans-97"/>
    </g>
   </g>
   <g id="legend_1">
    <g id="patch_7">
     <path d="M 55.982813 44.99625 
L 210.457813 44.99625 
Q 212.457813 44.99625 212.457813 42.99625 
L 212.457813 29.318125 
Q 212.457813 27.318125 210.457813 27.318125 
L 55.982813 27.318125 
Q 53.982813 27.318125 53.982813 29.318125 
L 53.982813 42.99625 
Q 53.982813 44.99625 55.982813 44.99625 
z
" style="fill:#ffffff;opacity:0.8;stroke:#cccccc;stroke-linejoin:miter;"/>
    </g>
    <g id="line2d_36">
     <path d="M 57.982813 35.416562 
L 77.982813 35.416562 
" style="fill:none;stroke:#ff0000;stroke-linecap:square;stroke-width:3;"/>
    </g>
    <g id="line2d_37"/>
    <g id="text_16">
     <!-- Effective Lockdown date -->
     <defs>
      <path d="M 9.8125 72.90625 
L 55.90625 72.90625 
L 55.90625 64.59375 
L 19.671875 64.59375 
L 19.671875 43.015625 
L 54.390625 43.015625 
L 54.390625 34.71875 
L 19.671875 34.71875 
L 19.671875 8.296875 
L 56.78125 8.296875 
L 56.78125 0 
L 9.8125 0 
z
" id="DejaVuSans-69"/>
      <path d="M 2.984375 54.6875 
L 12.5 54.6875 
L 29.59375 8.796875 
L 46.6875 54.6875 
L 56.203125 54.6875 
L 35.6875 0 
L 23.484375 0 
z
" id="DejaVuSans-118"/>
      <path d="M 9.8125 72.90625 
L 19.671875 72.90625 
L 19.671875 8.296875 
L 55.171875 8.296875 
L 55.171875 0 
L 9.8125 0 
z
" id="DejaVuSans-76"/>
      <path d="M 9.078125 75.984375 
L 18.109375 75.984375 
L 18.109375 31.109375 
L 44.921875 54.6875 
L 56.390625 54.6875 
L 27.390625 29.109375 
L 57.625 0 
L 45.90625 0 
L 18.109375 26.703125 
L 18.109375 0 
L 9.078125 0 
z
" id="DejaVuSans-107"/>
      <path d="M 4.203125 54.6875 
L 13.1875 54.6875 
L 24.421875 12.015625 
L 35.59375 54.6875 
L 46.1875 54.6875 
L 57.421875 12.015625 
L 68.609375 54.6875 
L 77.59375 54.6875 
L 63.28125 0 
L 52.6875 0 
L 40.921875 44.828125 
L 29.109375 0 
L 18.5 0 
z
" id="DejaVuSans-119"/>
     </defs>
     <g transform="translate(85.982813 38.916562)scale(0.1 -0.1)">
      <use xlink:href="#DejaVuSans-69"/>
      <use x="63.183594" xlink:href="#DejaVuSans-102"/>
      <use x="98.388672" xlink:href="#DejaVuSans-102"/>
      <use x="133.59375" xlink:href="#DejaVuSans-101"/>
      <use x="195.117188" xlink:href="#DejaVuSans-99"/>
      <use x="250.097656" xlink:href="#DejaVuSans-116"/>
      <use x="289.306641" xlink:href="#DejaVuSans-105"/>
      <use x="317.089844" xlink:href="#DejaVuSans-118"/>
      <use x="376.269531" xlink:href="#DejaVuSans-101"/>
      <use x="437.792969" xlink:href="#DejaVuSans-32"/>
      <use x="469.580078" xlink:href="#DejaVuSans-76"/>
      <use x="523.542969" xlink:href="#DejaVuSans-111"/>
      <use x="584.724609" xlink:href="#DejaVuSans-99"/>
      <use x="639.705078" xlink:href="#DejaVuSans-107"/>
      <use x="697.615234" xlink:href="#DejaVuSans-100"/>
      <use x="761.091797" xlink:href="#DejaVuSans-111"/>
      <use x="822.273438" xlink:href="#DejaVuSans-119"/>
      <use x="904.060547" xlink:href="#DejaVuSans-110"/>
      <use x="967.439453" xlink:href="#DejaVuSans-32"/>
      <use x="999.226562" xlink:href="#DejaVuSans-100"/>
      <use x="1062.703125" xlink:href="#DejaVuSans-97"/>
      <use x="1123.982422" xlink:href="#DejaVuSans-116"/>
      <use x="1163.191406" xlink:href="#DejaVuSans-101"/>
     </g>
    </g>
   </g>
  </g>
 </g>
 <defs>
  <clipPath id="pfae4f30269">
   <rect height="379.4" width="656.4" x="48.982813" y="22.318125"/>
  </clipPath>
 </defs>
</svg>
