<?xml version="1.0" encoding="utf-8" standalone="no"?>
<!DOCTYPE svg PUBLIC "-//W3C//DTD SVG 1.1//EN"
  "http://www.w3.org/Graphics/SVG/1.1/DTD/svg11.dtd">
<!-- Created with matplotlib (https://matplotlib.org/) -->
<svg height="439.274375pt" version="1.1" viewBox="0 0 712.695313 439.274375" width="712.695313pt" xmlns="http://www.w3.org/2000/svg" xmlns:xlink="http://www.w3.org/1999/xlink">
 <defs>
  <style type="text/css">
*{stroke-linecap:butt;stroke-linejoin:round;}
  </style>
 </defs>
 <g id="figure_1">
  <g id="patch_1">
   <path d="M 0 439.274375 
L 712.695313 439.274375 
L 712.695313 0 
L 0 0 
z
" style="fill:#ffffff;"/>
  </g>
  <g id="axes_1">
   <g id="patch_2">
    <path d="M 55.345313 401.718125 
L 705.495313 401.718125 
L 705.495313 22.318125 
L 55.345313 22.318125 
z
" style="fill:#ffffff;"/>
   </g>
   <g id="PolyCollection_1">
    <defs>
     <path d="M 84.897585 -384.456037 
L 84.897585 -358.125941 
L 91.933841 -360.224501 
L 98.970096 -371.017736 
L 106.006351 -366.463654 
L 113.042607 -371.143681 
L 120.078862 -372.826015 
L 127.115118 -363.570718 
L 134.151373 -357.216475 
L 141.187629 -358.02521 
L 148.223884 -368.853132 
L 155.260139 -364.792737 
L 162.296395 -370.149153 
L 169.33265 -368.99706 
L 176.368906 -359.506953 
L 183.405161 -352.738291 
L 190.441416 -355.423544 
L 197.477672 -365.786742 
L 204.513927 -360.143657 
L 211.550183 -367.076061 
L 218.586438 -367.503293 
L 225.622693 -358.946418 
L 232.658949 -353.264823 
L 239.695204 -356.189366 
L 246.73146 -368.320087 
L 253.767715 -364.372131 
L 260.803971 -325.733623 
L 267.840226 -282.435274 
L 274.876481 -231.655969 
L 281.912737 -162.536776 
L 288.948992 -101.758588 
L 295.985248 -102.822375 
L 303.021503 -87.117796 
L 310.057758 -82.342284 
L 317.094014 -82.481336 
L 324.130269 -73.029391 
L 331.166525 -65.671367 
L 338.20278 -66.797344 
L 345.239035 -76.562002 
L 352.275291 -70.971491 
L 359.311546 -77.05729 
L 366.347802 -75.306232 
L 373.384057 -65.920188 
L 380.420313 -59.48103 
L 387.456568 -59.132443 
L 394.492823 -69.567755 
L 401.529079 -65.051799 
L 408.565334 -71.049879 
L 415.60159 -68.991 
L 422.637845 -62.248378 
L 429.6741 -54.801705 
L 436.710356 -57.816992 
L 443.746611 -69.564227 
L 450.782867 -64.051458 
L 457.819122 -69.309011 
L 464.855377 -70.450005 
L 471.891633 -62.371565 
L 478.927888 -56.138567 
L 485.964144 -58.6835 
L 493.000399 -70.722293 
L 500.036654 -66.171516 
L 507.07291 -73.03151 
L 514.109165 -72.02531 
L 521.145421 -65.68724 
L 528.181676 -59.056138 
L 535.217932 -61.142963 
L 542.254187 -73.372091 
L 549.290442 -68.363136 
L 556.326698 -76.172738 
L 563.362953 -77.678298 
L 570.399209 -71.101058 
L 577.435464 -66.765982 
L 584.471719 -70.761856 
L 591.507975 -85.227809 
L 598.54423 -81.549303 
L 605.580486 -90.043112 
L 612.616741 -93.123996 
L 619.652996 -86.413298 
L 626.689252 -83.246466 
L 633.725507 -87.495328 
L 640.761763 -101.525182 
L 647.798018 -99.168973 
L 654.834274 -107.409787 
L 661.870529 -109.985919 
L 668.906784 -103.335674 
L 675.94304 -97.861301 
L 675.94304 -127.618918 
L 675.94304 -127.618918 
L 668.906784 -130.953464 
L 661.870529 -136.842903 
L 654.834274 -134.910279 
L 647.798018 -127.766135 
L 640.761763 -128.764377 
L 633.725507 -114.021148 
L 626.689252 -111.023279 
L 619.652996 -114.559042 
L 612.616741 -120.33877 
L 605.580486 -118.294239 
L 598.54423 -111.19121 
L 591.507975 -113.297929 
L 584.471719 -97.952634 
L 577.435464 -93.923057 
L 570.399209 -99.388784 
L 563.362953 -105.139327 
L 556.326698 -102.06929 
L 549.290442 -96.38941 
L 542.254187 -101.23779 
L 535.217932 -88.273231 
L 528.181676 -84.937415 
L 521.145421 -91.847316 
L 514.109165 -100.210258 
L 507.07291 -99.071073 
L 500.036654 -94.275955 
L 493.000399 -97.291815 
L 485.964144 -85.936007 
L 478.927888 -83.525133 
L 471.891633 -88.861633 
L 464.855377 -96.97419 
L 457.819122 -96.09742 
L 450.782867 -91.284651 
L 443.746611 -95.986742 
L 436.710356 -84.122513 
L 429.6741 -81.720688 
L 422.637845 -89.013179 
L 415.60159 -96.520746 
L 408.565334 -96.509559 
L 401.529079 -91.610963 
L 394.492823 -97.12843 
L 387.456568 -87.097514 
L 380.420313 -85.936434 
L 373.384057 -94.129518 
L 366.347802 -102.433386 
L 359.311546 -104.181821 
L 352.275291 -99.413601 
L 345.239035 -104.807403 
L 338.20278 -93.833512 
L 331.166525 -93.203305 
L 324.130269 -100.359219 
L 317.094014 -110.043454 
L 310.057758 -110.450816 
L 303.021503 -114.617965 
L 295.985248 -130.755317 
L 288.948992 -129.558778 
L 281.912737 -189.536076 
L 274.876481 -258.859673 
L 267.840226 -309.747645 
L 260.803971 -353.590992 
L 253.767715 -390.690775 
L 246.73146 -395.385937 
L 239.695204 -384.480186 
L 232.658949 -380.814017 
L 225.622693 -387.748512 
L 218.586438 -394.814677 
L 211.550183 -394.607021 
L 204.513927 -387.538369 
L 197.477672 -392.373781 
L 190.441416 -380.690932 
L 183.405161 -379.939706 
L 176.368906 -387.712686 
L 169.33265 -396.33773 
L 162.296395 -396.065281 
L 155.260139 -391.723829 
L 148.223884 -397.814561 
L 141.187629 -385.505023 
L 134.151373 -384.053432 
L 127.115118 -390.746822 
L 120.078862 -399.662633 
L 113.042607 -399.710795 
L 106.006351 -392.834469 
L 98.970096 -398.598828 
L 91.933841 -386.399163 
L 84.897585 -384.456037 
z
" id="m2a47a3b192" style="stroke:#0072b2;stroke-opacity:0.2;"/>
    </defs>
    <g clip-path="url(#p9f95d73163)">
     <use style="fill:#0072b2;fill-opacity:0.2;stroke:#0072b2;stroke-opacity:0.2;" x="0" xlink:href="#m2a47a3b192" y="439.274375"/>
    </g>
   </g>
   <g id="matplotlib.axis_1">
    <g id="xtick_1">
     <g id="line2d_1">
      <path clip-path="url(#p9f95d73163)" d="M 77.86133 401.718125 
L 77.86133 22.318125 
" style="fill:none;stroke:#808080;stroke-linecap:square;stroke-opacity:0.2;"/>
     </g>
     <g id="line2d_2">
      <defs>
       <path d="M 0 0 
L 0 3.5 
" id="md5fd4763a5" style="stroke:#000000;stroke-width:0.8;"/>
      </defs>
      <g>
       <use style="stroke:#000000;stroke-width:0.8;" x="77.86133" xlink:href="#md5fd4763a5" y="401.718125"/>
      </g>
     </g>
     <g id="text_1">
      <!-- 2020-02-14 -->
      <defs>
       <path d="M 19.1875 8.296875 
L 53.609375 8.296875 
L 53.609375 0 
L 7.328125 0 
L 7.328125 8.296875 
Q 12.9375 14.109375 22.625 23.890625 
Q 32.328125 33.6875 34.8125 36.53125 
Q 39.546875 41.84375 41.421875 45.53125 
Q 43.3125 49.21875 43.3125 52.78125 
Q 43.3125 58.59375 39.234375 62.25 
Q 35.15625 65.921875 28.609375 65.921875 
Q 23.96875 65.921875 18.8125 64.3125 
Q 13.671875 62.703125 7.8125 59.421875 
L 7.8125 69.390625 
Q 13.765625 71.78125 18.9375 73 
Q 24.125 74.21875 28.421875 74.21875 
Q 39.75 74.21875 46.484375 68.546875 
Q 53.21875 62.890625 53.21875 53.421875 
Q 53.21875 48.921875 51.53125 44.890625 
Q 49.859375 40.875 45.40625 35.40625 
Q 44.1875 33.984375 37.640625 27.21875 
Q 31.109375 20.453125 19.1875 8.296875 
z
" id="DejaVuSans-50"/>
       <path d="M 31.78125 66.40625 
Q 24.171875 66.40625 20.328125 58.90625 
Q 16.5 51.421875 16.5 36.375 
Q 16.5 21.390625 20.328125 13.890625 
Q 24.171875 6.390625 31.78125 6.390625 
Q 39.453125 6.390625 43.28125 13.890625 
Q 47.125 21.390625 47.125 36.375 
Q 47.125 51.421875 43.28125 58.90625 
Q 39.453125 66.40625 31.78125 66.40625 
z
M 31.78125 74.21875 
Q 44.046875 74.21875 50.515625 64.515625 
Q 56.984375 54.828125 56.984375 36.375 
Q 56.984375 17.96875 50.515625 8.265625 
Q 44.046875 -1.421875 31.78125 -1.421875 
Q 19.53125 -1.421875 13.0625 8.265625 
Q 6.59375 17.96875 6.59375 36.375 
Q 6.59375 54.828125 13.0625 64.515625 
Q 19.53125 74.21875 31.78125 74.21875 
z
" id="DejaVuSans-48"/>
       <path d="M 4.890625 31.390625 
L 31.203125 31.390625 
L 31.203125 23.390625 
L 4.890625 23.390625 
z
" id="DejaVuSans-45"/>
       <path d="M 12.40625 8.296875 
L 28.515625 8.296875 
L 28.515625 63.921875 
L 10.984375 60.40625 
L 10.984375 69.390625 
L 28.421875 72.90625 
L 38.28125 72.90625 
L 38.28125 8.296875 
L 54.390625 8.296875 
L 54.390625 0 
L 12.40625 0 
z
" id="DejaVuSans-49"/>
       <path d="M 37.796875 64.3125 
L 12.890625 25.390625 
L 37.796875 25.390625 
z
M 35.203125 72.90625 
L 47.609375 72.90625 
L 47.609375 25.390625 
L 58.015625 25.390625 
L 58.015625 17.1875 
L 47.609375 17.1875 
L 47.609375 0 
L 37.796875 0 
L 37.796875 17.1875 
L 4.890625 17.1875 
L 4.890625 26.703125 
z
" id="DejaVuSans-52"/>
      </defs>
      <g transform="translate(48.803517 416.316562)scale(0.1 -0.1)">
       <use xlink:href="#DejaVuSans-50"/>
       <use x="63.623047" xlink:href="#DejaVuSans-48"/>
       <use x="127.246094" xlink:href="#DejaVuSans-50"/>
       <use x="190.869141" xlink:href="#DejaVuSans-48"/>
       <use x="254.492188" xlink:href="#DejaVuSans-45"/>
       <use x="290.576172" xlink:href="#DejaVuSans-48"/>
       <use x="354.199219" xlink:href="#DejaVuSans-50"/>
       <use x="417.822266" xlink:href="#DejaVuSans-45"/>
       <use x="453.90625" xlink:href="#DejaVuSans-49"/>
       <use x="517.529297" xlink:href="#DejaVuSans-52"/>
      </g>
     </g>
    </g>
    <g id="xtick_2">
     <g id="line2d_3">
      <path clip-path="url(#p9f95d73163)" d="M 176.368906 401.718125 
L 176.368906 22.318125 
" style="fill:none;stroke:#808080;stroke-linecap:square;stroke-opacity:0.2;"/>
     </g>
     <g id="line2d_4">
      <g>
       <use style="stroke:#000000;stroke-width:0.8;" x="176.368906" xlink:href="#md5fd4763a5" y="401.718125"/>
      </g>
     </g>
     <g id="text_2">
      <!-- 2020-02-28 -->
      <defs>
       <path d="M 31.78125 34.625 
Q 24.75 34.625 20.71875 30.859375 
Q 16.703125 27.09375 16.703125 20.515625 
Q 16.703125 13.921875 20.71875 10.15625 
Q 24.75 6.390625 31.78125 6.390625 
Q 38.8125 6.390625 42.859375 10.171875 
Q 46.921875 13.96875 46.921875 20.515625 
Q 46.921875 27.09375 42.890625 30.859375 
Q 38.875 34.625 31.78125 34.625 
z
M 21.921875 38.8125 
Q 15.578125 40.375 12.03125 44.71875 
Q 8.5 49.078125 8.5 55.328125 
Q 8.5 64.0625 14.71875 69.140625 
Q 20.953125 74.21875 31.78125 74.21875 
Q 42.671875 74.21875 48.875 69.140625 
Q 55.078125 64.0625 55.078125 55.328125 
Q 55.078125 49.078125 51.53125 44.71875 
Q 48 40.375 41.703125 38.8125 
Q 48.828125 37.15625 52.796875 32.3125 
Q 56.78125 27.484375 56.78125 20.515625 
Q 56.78125 9.90625 50.3125 4.234375 
Q 43.84375 -1.421875 31.78125 -1.421875 
Q 19.734375 -1.421875 13.25 4.234375 
Q 6.78125 9.90625 6.78125 20.515625 
Q 6.78125 27.484375 10.78125 32.3125 
Q 14.796875 37.15625 21.921875 38.8125 
z
M 18.3125 54.390625 
Q 18.3125 48.734375 21.84375 45.5625 
Q 25.390625 42.390625 31.78125 42.390625 
Q 38.140625 42.390625 41.71875 45.5625 
Q 45.3125 48.734375 45.3125 54.390625 
Q 45.3125 60.0625 41.71875 63.234375 
Q 38.140625 66.40625 31.78125 66.40625 
Q 25.390625 66.40625 21.84375 63.234375 
Q 18.3125 60.0625 18.3125 54.390625 
z
" id="DejaVuSans-56"/>
      </defs>
      <g transform="translate(147.311093 416.316562)scale(0.1 -0.1)">
       <use xlink:href="#DejaVuSans-50"/>
       <use x="63.623047" xlink:href="#DejaVuSans-48"/>
       <use x="127.246094" xlink:href="#DejaVuSans-50"/>
       <use x="190.869141" xlink:href="#DejaVuSans-48"/>
       <use x="254.492188" xlink:href="#DejaVuSans-45"/>
       <use x="290.576172" xlink:href="#DejaVuSans-48"/>
       <use x="354.199219" xlink:href="#DejaVuSans-50"/>
       <use x="417.822266" xlink:href="#DejaVuSans-45"/>
       <use x="453.90625" xlink:href="#DejaVuSans-50"/>
       <use x="517.529297" xlink:href="#DejaVuSans-56"/>
      </g>
     </g>
    </g>
    <g id="xtick_3">
     <g id="line2d_5">
      <path clip-path="url(#p9f95d73163)" d="M 274.876481 401.718125 
L 274.876481 22.318125 
" style="fill:none;stroke:#808080;stroke-linecap:square;stroke-opacity:0.2;"/>
     </g>
     <g id="line2d_6">
      <g>
       <use style="stroke:#000000;stroke-width:0.8;" x="274.876481" xlink:href="#md5fd4763a5" y="401.718125"/>
      </g>
     </g>
     <g id="text_3">
      <!-- 2020-03-13 -->
      <defs>
       <path d="M 40.578125 39.3125 
Q 47.65625 37.796875 51.625 33 
Q 55.609375 28.21875 55.609375 21.1875 
Q 55.609375 10.40625 48.1875 4.484375 
Q 40.765625 -1.421875 27.09375 -1.421875 
Q 22.515625 -1.421875 17.65625 -0.515625 
Q 12.796875 0.390625 7.625 2.203125 
L 7.625 11.71875 
Q 11.71875 9.328125 16.59375 8.109375 
Q 21.484375 6.890625 26.8125 6.890625 
Q 36.078125 6.890625 40.9375 10.546875 
Q 45.796875 14.203125 45.796875 21.1875 
Q 45.796875 27.640625 41.28125 31.265625 
Q 36.765625 34.90625 28.71875 34.90625 
L 20.21875 34.90625 
L 20.21875 43.015625 
L 29.109375 43.015625 
Q 36.375 43.015625 40.234375 45.921875 
Q 44.09375 48.828125 44.09375 54.296875 
Q 44.09375 59.90625 40.109375 62.90625 
Q 36.140625 65.921875 28.71875 65.921875 
Q 24.65625 65.921875 20.015625 65.03125 
Q 15.375 64.15625 9.8125 62.3125 
L 9.8125 71.09375 
Q 15.4375 72.65625 20.34375 73.4375 
Q 25.25 74.21875 29.59375 74.21875 
Q 40.828125 74.21875 47.359375 69.109375 
Q 53.90625 64.015625 53.90625 55.328125 
Q 53.90625 49.265625 50.4375 45.09375 
Q 46.96875 40.921875 40.578125 39.3125 
z
" id="DejaVuSans-51"/>
      </defs>
      <g transform="translate(245.818669 416.316562)scale(0.1 -0.1)">
       <use xlink:href="#DejaVuSans-50"/>
       <use x="63.623047" xlink:href="#DejaVuSans-48"/>
       <use x="127.246094" xlink:href="#DejaVuSans-50"/>
       <use x="190.869141" xlink:href="#DejaVuSans-48"/>
       <use x="254.492188" xlink:href="#DejaVuSans-45"/>
       <use x="290.576172" xlink:href="#DejaVuSans-48"/>
       <use x="354.199219" xlink:href="#DejaVuSans-51"/>
       <use x="417.822266" xlink:href="#DejaVuSans-45"/>
       <use x="453.90625" xlink:href="#DejaVuSans-49"/>
       <use x="517.529297" xlink:href="#DejaVuSans-51"/>
      </g>
     </g>
    </g>
    <g id="xtick_4">
     <g id="line2d_7">
      <path clip-path="url(#p9f95d73163)" d="M 373.384057 401.718125 
L 373.384057 22.318125 
" style="fill:none;stroke:#808080;stroke-linecap:square;stroke-opacity:0.2;"/>
     </g>
     <g id="line2d_8">
      <g>
       <use style="stroke:#000000;stroke-width:0.8;" x="373.384057" xlink:href="#md5fd4763a5" y="401.718125"/>
      </g>
     </g>
     <g id="text_4">
      <!-- 2020-03-27 -->
      <defs>
       <path d="M 8.203125 72.90625 
L 55.078125 72.90625 
L 55.078125 68.703125 
L 28.609375 0 
L 18.3125 0 
L 43.21875 64.59375 
L 8.203125 64.59375 
z
" id="DejaVuSans-55"/>
      </defs>
      <g transform="translate(344.326245 416.316562)scale(0.1 -0.1)">
       <use xlink:href="#DejaVuSans-50"/>
       <use x="63.623047" xlink:href="#DejaVuSans-48"/>
       <use x="127.246094" xlink:href="#DejaVuSans-50"/>
       <use x="190.869141" xlink:href="#DejaVuSans-48"/>
       <use x="254.492188" xlink:href="#DejaVuSans-45"/>
       <use x="290.576172" xlink:href="#DejaVuSans-48"/>
       <use x="354.199219" xlink:href="#DejaVuSans-51"/>
       <use x="417.822266" xlink:href="#DejaVuSans-45"/>
       <use x="453.90625" xlink:href="#DejaVuSans-50"/>
       <use x="517.529297" xlink:href="#DejaVuSans-55"/>
      </g>
     </g>
    </g>
    <g id="xtick_5">
     <g id="line2d_9">
      <path clip-path="url(#p9f95d73163)" d="M 471.891633 401.718125 
L 471.891633 22.318125 
" style="fill:none;stroke:#808080;stroke-linecap:square;stroke-opacity:0.2;"/>
     </g>
     <g id="line2d_10">
      <g>
       <use style="stroke:#000000;stroke-width:0.8;" x="471.891633" xlink:href="#md5fd4763a5" y="401.718125"/>
      </g>
     </g>
     <g id="text_5">
      <!-- 2020-04-10 -->
      <g transform="translate(442.83382 416.316562)scale(0.1 -0.1)">
       <use xlink:href="#DejaVuSans-50"/>
       <use x="63.623047" xlink:href="#DejaVuSans-48"/>
       <use x="127.246094" xlink:href="#DejaVuSans-50"/>
       <use x="190.869141" xlink:href="#DejaVuSans-48"/>
       <use x="254.492188" xlink:href="#DejaVuSans-45"/>
       <use x="290.576172" xlink:href="#DejaVuSans-48"/>
       <use x="354.199219" xlink:href="#DejaVuSans-52"/>
       <use x="417.822266" xlink:href="#DejaVuSans-45"/>
       <use x="453.90625" xlink:href="#DejaVuSans-49"/>
       <use x="517.529297" xlink:href="#DejaVuSans-48"/>
      </g>
     </g>
    </g>
    <g id="xtick_6">
     <g id="line2d_11">
      <path clip-path="url(#p9f95d73163)" d="M 570.399209 401.718125 
L 570.399209 22.318125 
" style="fill:none;stroke:#808080;stroke-linecap:square;stroke-opacity:0.2;"/>
     </g>
     <g id="line2d_12">
      <g>
       <use style="stroke:#000000;stroke-width:0.8;" x="570.399209" xlink:href="#md5fd4763a5" y="401.718125"/>
      </g>
     </g>
     <g id="text_6">
      <!-- 2020-04-24 -->
      <g transform="translate(541.341396 416.316562)scale(0.1 -0.1)">
       <use xlink:href="#DejaVuSans-50"/>
       <use x="63.623047" xlink:href="#DejaVuSans-48"/>
       <use x="127.246094" xlink:href="#DejaVuSans-50"/>
       <use x="190.869141" xlink:href="#DejaVuSans-48"/>
       <use x="254.492188" xlink:href="#DejaVuSans-45"/>
       <use x="290.576172" xlink:href="#DejaVuSans-48"/>
       <use x="354.199219" xlink:href="#DejaVuSans-52"/>
       <use x="417.822266" xlink:href="#DejaVuSans-45"/>
       <use x="453.90625" xlink:href="#DejaVuSans-50"/>
       <use x="517.529297" xlink:href="#DejaVuSans-52"/>
      </g>
     </g>
    </g>
    <g id="xtick_7">
     <g id="line2d_13">
      <path clip-path="url(#p9f95d73163)" d="M 668.906784 401.718125 
L 668.906784 22.318125 
" style="fill:none;stroke:#808080;stroke-linecap:square;stroke-opacity:0.2;"/>
     </g>
     <g id="line2d_14">
      <g>
       <use style="stroke:#000000;stroke-width:0.8;" x="668.906784" xlink:href="#md5fd4763a5" y="401.718125"/>
      </g>
     </g>
     <g id="text_7">
      <!-- 2020-05-08 -->
      <defs>
       <path d="M 10.796875 72.90625 
L 49.515625 72.90625 
L 49.515625 64.59375 
L 19.828125 64.59375 
L 19.828125 46.734375 
Q 21.96875 47.46875 24.109375 47.828125 
Q 26.265625 48.1875 28.421875 48.1875 
Q 40.625 48.1875 47.75 41.5 
Q 54.890625 34.8125 54.890625 23.390625 
Q 54.890625 11.625 47.5625 5.09375 
Q 40.234375 -1.421875 26.90625 -1.421875 
Q 22.3125 -1.421875 17.546875 -0.640625 
Q 12.796875 0.140625 7.71875 1.703125 
L 7.71875 11.625 
Q 12.109375 9.234375 16.796875 8.0625 
Q 21.484375 6.890625 26.703125 6.890625 
Q 35.15625 6.890625 40.078125 11.328125 
Q 45.015625 15.765625 45.015625 23.390625 
Q 45.015625 31 40.078125 35.4375 
Q 35.15625 39.890625 26.703125 39.890625 
Q 22.75 39.890625 18.8125 39.015625 
Q 14.890625 38.140625 10.796875 36.28125 
z
" id="DejaVuSans-53"/>
      </defs>
      <g transform="translate(639.848972 416.316562)scale(0.1 -0.1)">
       <use xlink:href="#DejaVuSans-50"/>
       <use x="63.623047" xlink:href="#DejaVuSans-48"/>
       <use x="127.246094" xlink:href="#DejaVuSans-50"/>
       <use x="190.869141" xlink:href="#DejaVuSans-48"/>
       <use x="254.492188" xlink:href="#DejaVuSans-45"/>
       <use x="290.576172" xlink:href="#DejaVuSans-48"/>
       <use x="354.199219" xlink:href="#DejaVuSans-53"/>
       <use x="417.822266" xlink:href="#DejaVuSans-45"/>
       <use x="453.90625" xlink:href="#DejaVuSans-48"/>
       <use x="517.529297" xlink:href="#DejaVuSans-56"/>
      </g>
     </g>
    </g>
    <g id="text_8">
     <!-- Date -->
     <defs>
      <path d="M 19.671875 64.796875 
L 19.671875 8.109375 
L 31.59375 8.109375 
Q 46.6875 8.109375 53.6875 14.9375 
Q 60.6875 21.78125 60.6875 36.53125 
Q 60.6875 51.171875 53.6875 57.984375 
Q 46.6875 64.796875 31.59375 64.796875 
z
M 9.8125 72.90625 
L 30.078125 72.90625 
Q 51.265625 72.90625 61.171875 64.09375 
Q 71.09375 55.28125 71.09375 36.53125 
Q 71.09375 17.671875 61.125 8.828125 
Q 51.171875 0 30.078125 0 
L 9.8125 0 
z
" id="DejaVuSans-68"/>
      <path d="M 34.28125 27.484375 
Q 23.390625 27.484375 19.1875 25 
Q 14.984375 22.515625 14.984375 16.5 
Q 14.984375 11.71875 18.140625 8.90625 
Q 21.296875 6.109375 26.703125 6.109375 
Q 34.1875 6.109375 38.703125 11.40625 
Q 43.21875 16.703125 43.21875 25.484375 
L 43.21875 27.484375 
z
M 52.203125 31.203125 
L 52.203125 0 
L 43.21875 0 
L 43.21875 8.296875 
Q 40.140625 3.328125 35.546875 0.953125 
Q 30.953125 -1.421875 24.3125 -1.421875 
Q 15.921875 -1.421875 10.953125 3.296875 
Q 6 8.015625 6 15.921875 
Q 6 25.140625 12.171875 29.828125 
Q 18.359375 34.515625 30.609375 34.515625 
L 43.21875 34.515625 
L 43.21875 35.40625 
Q 43.21875 41.609375 39.140625 45 
Q 35.0625 48.390625 27.6875 48.390625 
Q 23 48.390625 18.546875 47.265625 
Q 14.109375 46.140625 10.015625 43.890625 
L 10.015625 52.203125 
Q 14.9375 54.109375 19.578125 55.046875 
Q 24.21875 56 28.609375 56 
Q 40.484375 56 46.34375 49.84375 
Q 52.203125 43.703125 52.203125 31.203125 
z
" id="DejaVuSans-97"/>
      <path d="M 18.3125 70.21875 
L 18.3125 54.6875 
L 36.8125 54.6875 
L 36.8125 47.703125 
L 18.3125 47.703125 
L 18.3125 18.015625 
Q 18.3125 11.328125 20.140625 9.421875 
Q 21.96875 7.515625 27.59375 7.515625 
L 36.8125 7.515625 
L 36.8125 0 
L 27.59375 0 
Q 17.1875 0 13.234375 3.875 
Q 9.28125 7.765625 9.28125 18.015625 
L 9.28125 47.703125 
L 2.6875 47.703125 
L 2.6875 54.6875 
L 9.28125 54.6875 
L 9.28125 70.21875 
z
" id="DejaVuSans-116"/>
      <path d="M 56.203125 29.59375 
L 56.203125 25.203125 
L 14.890625 25.203125 
Q 15.484375 15.921875 20.484375 11.0625 
Q 25.484375 6.203125 34.421875 6.203125 
Q 39.59375 6.203125 44.453125 7.46875 
Q 49.3125 8.734375 54.109375 11.28125 
L 54.109375 2.78125 
Q 49.265625 0.734375 44.1875 -0.34375 
Q 39.109375 -1.421875 33.890625 -1.421875 
Q 20.796875 -1.421875 13.15625 6.1875 
Q 5.515625 13.8125 5.515625 26.8125 
Q 5.515625 40.234375 12.765625 48.109375 
Q 20.015625 56 32.328125 56 
Q 43.359375 56 49.78125 48.890625 
Q 56.203125 41.796875 56.203125 29.59375 
z
M 47.21875 32.234375 
Q 47.125 39.59375 43.09375 43.984375 
Q 39.0625 48.390625 32.421875 48.390625 
Q 24.90625 48.390625 20.390625 44.140625 
Q 15.875 39.890625 15.1875 32.171875 
z
" id="DejaVuSans-101"/>
     </defs>
     <g transform="translate(368.469531 429.994687)scale(0.1 -0.1)">
      <use xlink:href="#DejaVuSans-68"/>
      <use x="77.001953" xlink:href="#DejaVuSans-97"/>
      <use x="138.28125" xlink:href="#DejaVuSans-116"/>
      <use x="177.490234" xlink:href="#DejaVuSans-101"/>
     </g>
    </g>
   </g>
   <g id="matplotlib.axis_2">
    <g id="ytick_1">
     <g id="line2d_15">
      <path clip-path="url(#p9f95d73163)" d="M 55.345313 390.756329 
L 705.495313 390.756329 
" style="fill:none;stroke:#808080;stroke-linecap:square;stroke-opacity:0.2;"/>
     </g>
     <g id="line2d_16">
      <defs>
       <path d="M 0 0 
L -3.5 0 
" id="m18b2c5daaf" style="stroke:#000000;stroke-width:0.8;"/>
      </defs>
      <g>
       <use style="stroke:#000000;stroke-width:0.8;" x="55.345313" xlink:href="#m18b2c5daaf" y="390.756329"/>
      </g>
     </g>
     <g id="text_9">
      <!-- −100 -->
      <defs>
       <path d="M 10.59375 35.5 
L 73.1875 35.5 
L 73.1875 27.203125 
L 10.59375 27.203125 
z
" id="DejaVuSans-8722"/>
      </defs>
      <g transform="translate(20.878125 394.555548)scale(0.1 -0.1)">
       <use xlink:href="#DejaVuSans-8722"/>
       <use x="83.789062" xlink:href="#DejaVuSans-49"/>
       <use x="147.412109" xlink:href="#DejaVuSans-48"/>
       <use x="211.035156" xlink:href="#DejaVuSans-48"/>
      </g>
     </g>
    </g>
    <g id="ytick_2">
     <g id="line2d_17">
      <path clip-path="url(#p9f95d73163)" d="M 55.345313 325.576528 
L 705.495313 325.576528 
" style="fill:none;stroke:#808080;stroke-linecap:square;stroke-opacity:0.2;"/>
     </g>
     <g id="line2d_18">
      <g>
       <use style="stroke:#000000;stroke-width:0.8;" x="55.345313" xlink:href="#m18b2c5daaf" y="325.576528"/>
      </g>
     </g>
     <g id="text_10">
      <!-- −80 -->
      <g transform="translate(27.240625 329.375747)scale(0.1 -0.1)">
       <use xlink:href="#DejaVuSans-8722"/>
       <use x="83.789062" xlink:href="#DejaVuSans-56"/>
       <use x="147.412109" xlink:href="#DejaVuSans-48"/>
      </g>
     </g>
    </g>
    <g id="ytick_3">
     <g id="line2d_19">
      <path clip-path="url(#p9f95d73163)" d="M 55.345313 260.396726 
L 705.495313 260.396726 
" style="fill:none;stroke:#808080;stroke-linecap:square;stroke-opacity:0.2;"/>
     </g>
     <g id="line2d_20">
      <g>
       <use style="stroke:#000000;stroke-width:0.8;" x="55.345313" xlink:href="#m18b2c5daaf" y="260.396726"/>
      </g>
     </g>
     <g id="text_11">
      <!-- −60 -->
      <defs>
       <path d="M 33.015625 40.375 
Q 26.375 40.375 22.484375 35.828125 
Q 18.609375 31.296875 18.609375 23.390625 
Q 18.609375 15.53125 22.484375 10.953125 
Q 26.375 6.390625 33.015625 6.390625 
Q 39.65625 6.390625 43.53125 10.953125 
Q 47.40625 15.53125 47.40625 23.390625 
Q 47.40625 31.296875 43.53125 35.828125 
Q 39.65625 40.375 33.015625 40.375 
z
M 52.59375 71.296875 
L 52.59375 62.3125 
Q 48.875 64.0625 45.09375 64.984375 
Q 41.3125 65.921875 37.59375 65.921875 
Q 27.828125 65.921875 22.671875 59.328125 
Q 17.53125 52.734375 16.796875 39.40625 
Q 19.671875 43.65625 24.015625 45.921875 
Q 28.375 48.1875 33.59375 48.1875 
Q 44.578125 48.1875 50.953125 41.515625 
Q 57.328125 34.859375 57.328125 23.390625 
Q 57.328125 12.15625 50.6875 5.359375 
Q 44.046875 -1.421875 33.015625 -1.421875 
Q 20.359375 -1.421875 13.671875 8.265625 
Q 6.984375 17.96875 6.984375 36.375 
Q 6.984375 53.65625 15.1875 63.9375 
Q 23.390625 74.21875 37.203125 74.21875 
Q 40.921875 74.21875 44.703125 73.484375 
Q 48.484375 72.75 52.59375 71.296875 
z
" id="DejaVuSans-54"/>
      </defs>
      <g transform="translate(27.240625 264.195945)scale(0.1 -0.1)">
       <use xlink:href="#DejaVuSans-8722"/>
       <use x="83.789062" xlink:href="#DejaVuSans-54"/>
       <use x="147.412109" xlink:href="#DejaVuSans-48"/>
      </g>
     </g>
    </g>
    <g id="ytick_4">
     <g id="line2d_21">
      <path clip-path="url(#p9f95d73163)" d="M 55.345313 195.216925 
L 705.495313 195.216925 
" style="fill:none;stroke:#808080;stroke-linecap:square;stroke-opacity:0.2;"/>
     </g>
     <g id="line2d_22">
      <g>
       <use style="stroke:#000000;stroke-width:0.8;" x="55.345313" xlink:href="#m18b2c5daaf" y="195.216925"/>
      </g>
     </g>
     <g id="text_12">
      <!-- −40 -->
      <g transform="translate(27.240625 199.016144)scale(0.1 -0.1)">
       <use xlink:href="#DejaVuSans-8722"/>
       <use x="83.789062" xlink:href="#DejaVuSans-52"/>
       <use x="147.412109" xlink:href="#DejaVuSans-48"/>
      </g>
     </g>
    </g>
    <g id="ytick_5">
     <g id="line2d_23">
      <path clip-path="url(#p9f95d73163)" d="M 55.345313 130.037124 
L 705.495313 130.037124 
" style="fill:none;stroke:#808080;stroke-linecap:square;stroke-opacity:0.2;"/>
     </g>
     <g id="line2d_24">
      <g>
       <use style="stroke:#000000;stroke-width:0.8;" x="55.345313" xlink:href="#m18b2c5daaf" y="130.037124"/>
      </g>
     </g>
     <g id="text_13">
      <!-- −20 -->
      <g transform="translate(27.240625 133.836342)scale(0.1 -0.1)">
       <use xlink:href="#DejaVuSans-8722"/>
       <use x="83.789062" xlink:href="#DejaVuSans-50"/>
       <use x="147.412109" xlink:href="#DejaVuSans-48"/>
      </g>
     </g>
    </g>
    <g id="ytick_6">
     <g id="line2d_25">
      <path clip-path="url(#p9f95d73163)" d="M 55.345313 64.857322 
L 705.495313 64.857322 
" style="fill:none;stroke:#808080;stroke-linecap:square;stroke-opacity:0.2;"/>
     </g>
     <g id="line2d_26">
      <g>
       <use style="stroke:#000000;stroke-width:0.8;" x="55.345313" xlink:href="#m18b2c5daaf" y="64.857322"/>
      </g>
     </g>
     <g id="text_14">
      <!-- 0 -->
      <g transform="translate(41.982813 68.656541)scale(0.1 -0.1)">
       <use xlink:href="#DejaVuSans-48"/>
      </g>
     </g>
    </g>
    <g id="text_15">
     <!-- Retail and Recreation Mobility -->
     <defs>
      <path d="M 44.390625 34.1875 
Q 47.5625 33.109375 50.5625 29.59375 
Q 53.5625 26.078125 56.59375 19.921875 
L 66.609375 0 
L 56 0 
L 46.6875 18.703125 
Q 43.0625 26.03125 39.671875 28.421875 
Q 36.28125 30.8125 30.421875 30.8125 
L 19.671875 30.8125 
L 19.671875 0 
L 9.8125 0 
L 9.8125 72.90625 
L 32.078125 72.90625 
Q 44.578125 72.90625 50.734375 67.671875 
Q 56.890625 62.453125 56.890625 51.90625 
Q 56.890625 45.015625 53.6875 40.46875 
Q 50.484375 35.9375 44.390625 34.1875 
z
M 19.671875 64.796875 
L 19.671875 38.921875 
L 32.078125 38.921875 
Q 39.203125 38.921875 42.84375 42.21875 
Q 46.484375 45.515625 46.484375 51.90625 
Q 46.484375 58.296875 42.84375 61.546875 
Q 39.203125 64.796875 32.078125 64.796875 
z
" id="DejaVuSans-82"/>
      <path d="M 9.421875 54.6875 
L 18.40625 54.6875 
L 18.40625 0 
L 9.421875 0 
z
M 9.421875 75.984375 
L 18.40625 75.984375 
L 18.40625 64.59375 
L 9.421875 64.59375 
z
" id="DejaVuSans-105"/>
      <path d="M 9.421875 75.984375 
L 18.40625 75.984375 
L 18.40625 0 
L 9.421875 0 
z
" id="DejaVuSans-108"/>
      <path id="DejaVuSans-32"/>
      <path d="M 54.890625 33.015625 
L 54.890625 0 
L 45.90625 0 
L 45.90625 32.71875 
Q 45.90625 40.484375 42.875 44.328125 
Q 39.84375 48.1875 33.796875 48.1875 
Q 26.515625 48.1875 22.3125 43.546875 
Q 18.109375 38.921875 18.109375 30.90625 
L 18.109375 0 
L 9.078125 0 
L 9.078125 54.6875 
L 18.109375 54.6875 
L 18.109375 46.1875 
Q 21.34375 51.125 25.703125 53.5625 
Q 30.078125 56 35.796875 56 
Q 45.21875 56 50.046875 50.171875 
Q 54.890625 44.34375 54.890625 33.015625 
z
" id="DejaVuSans-110"/>
      <path d="M 45.40625 46.390625 
L 45.40625 75.984375 
L 54.390625 75.984375 
L 54.390625 0 
L 45.40625 0 
L 45.40625 8.203125 
Q 42.578125 3.328125 38.25 0.953125 
Q 33.9375 -1.421875 27.875 -1.421875 
Q 17.96875 -1.421875 11.734375 6.484375 
Q 5.515625 14.40625 5.515625 27.296875 
Q 5.515625 40.1875 11.734375 48.09375 
Q 17.96875 56 27.875 56 
Q 33.9375 56 38.25 53.625 
Q 42.578125 51.265625 45.40625 46.390625 
z
M 14.796875 27.296875 
Q 14.796875 17.390625 18.875 11.75 
Q 22.953125 6.109375 30.078125 6.109375 
Q 37.203125 6.109375 41.296875 11.75 
Q 45.40625 17.390625 45.40625 27.296875 
Q 45.40625 37.203125 41.296875 42.84375 
Q 37.203125 48.484375 30.078125 48.484375 
Q 22.953125 48.484375 18.875 42.84375 
Q 14.796875 37.203125 14.796875 27.296875 
z
" id="DejaVuSans-100"/>
      <path d="M 48.78125 52.59375 
L 48.78125 44.1875 
Q 44.96875 46.296875 41.140625 47.34375 
Q 37.3125 48.390625 33.40625 48.390625 
Q 24.65625 48.390625 19.8125 42.84375 
Q 14.984375 37.3125 14.984375 27.296875 
Q 14.984375 17.28125 19.8125 11.734375 
Q 24.65625 6.203125 33.40625 6.203125 
Q 37.3125 6.203125 41.140625 7.25 
Q 44.96875 8.296875 48.78125 10.40625 
L 48.78125 2.09375 
Q 45.015625 0.34375 40.984375 -0.53125 
Q 36.96875 -1.421875 32.421875 -1.421875 
Q 20.0625 -1.421875 12.78125 6.34375 
Q 5.515625 14.109375 5.515625 27.296875 
Q 5.515625 40.671875 12.859375 48.328125 
Q 20.21875 56 33.015625 56 
Q 37.15625 56 41.109375 55.140625 
Q 45.0625 54.296875 48.78125 52.59375 
z
" id="DejaVuSans-99"/>
      <path d="M 41.109375 46.296875 
Q 39.59375 47.171875 37.8125 47.578125 
Q 36.03125 48 33.890625 48 
Q 26.265625 48 22.1875 43.046875 
Q 18.109375 38.09375 18.109375 28.8125 
L 18.109375 0 
L 9.078125 0 
L 9.078125 54.6875 
L 18.109375 54.6875 
L 18.109375 46.1875 
Q 20.953125 51.171875 25.484375 53.578125 
Q 30.03125 56 36.53125 56 
Q 37.453125 56 38.578125 55.875 
Q 39.703125 55.765625 41.0625 55.515625 
z
" id="DejaVuSans-114"/>
      <path d="M 30.609375 48.390625 
Q 23.390625 48.390625 19.1875 42.75 
Q 14.984375 37.109375 14.984375 27.296875 
Q 14.984375 17.484375 19.15625 11.84375 
Q 23.34375 6.203125 30.609375 6.203125 
Q 37.796875 6.203125 41.984375 11.859375 
Q 46.1875 17.53125 46.1875 27.296875 
Q 46.1875 37.015625 41.984375 42.703125 
Q 37.796875 48.390625 30.609375 48.390625 
z
M 30.609375 56 
Q 42.328125 56 49.015625 48.375 
Q 55.71875 40.765625 55.71875 27.296875 
Q 55.71875 13.875 49.015625 6.21875 
Q 42.328125 -1.421875 30.609375 -1.421875 
Q 18.84375 -1.421875 12.171875 6.21875 
Q 5.515625 13.875 5.515625 27.296875 
Q 5.515625 40.765625 12.171875 48.375 
Q 18.84375 56 30.609375 56 
z
" id="DejaVuSans-111"/>
      <path d="M 9.8125 72.90625 
L 24.515625 72.90625 
L 43.109375 23.296875 
L 61.8125 72.90625 
L 76.515625 72.90625 
L 76.515625 0 
L 66.890625 0 
L 66.890625 64.015625 
L 48.09375 14.015625 
L 38.1875 14.015625 
L 19.390625 64.015625 
L 19.390625 0 
L 9.8125 0 
z
" id="DejaVuSans-77"/>
      <path d="M 48.6875 27.296875 
Q 48.6875 37.203125 44.609375 42.84375 
Q 40.53125 48.484375 33.40625 48.484375 
Q 26.265625 48.484375 22.1875 42.84375 
Q 18.109375 37.203125 18.109375 27.296875 
Q 18.109375 17.390625 22.1875 11.75 
Q 26.265625 6.109375 33.40625 6.109375 
Q 40.53125 6.109375 44.609375 11.75 
Q 48.6875 17.390625 48.6875 27.296875 
z
M 18.109375 46.390625 
Q 20.953125 51.265625 25.265625 53.625 
Q 29.59375 56 35.59375 56 
Q 45.5625 56 51.78125 48.09375 
Q 58.015625 40.1875 58.015625 27.296875 
Q 58.015625 14.40625 51.78125 6.484375 
Q 45.5625 -1.421875 35.59375 -1.421875 
Q 29.59375 -1.421875 25.265625 0.953125 
Q 20.953125 3.328125 18.109375 8.203125 
L 18.109375 0 
L 9.078125 0 
L 9.078125 75.984375 
L 18.109375 75.984375 
z
" id="DejaVuSans-98"/>
      <path d="M 32.171875 -5.078125 
Q 28.375 -14.84375 24.75 -17.8125 
Q 21.140625 -20.796875 15.09375 -20.796875 
L 7.90625 -20.796875 
L 7.90625 -13.28125 
L 13.1875 -13.28125 
Q 16.890625 -13.28125 18.9375 -11.515625 
Q 21 -9.765625 23.484375 -3.21875 
L 25.09375 0.875 
L 2.984375 54.6875 
L 12.5 54.6875 
L 29.59375 11.921875 
L 46.6875 54.6875 
L 56.203125 54.6875 
z
" id="DejaVuSans-121"/>
     </defs>
     <g transform="translate(14.798437 286.690781)rotate(-90)scale(0.1 -0.1)">
      <use xlink:href="#DejaVuSans-82"/>
      <use x="64.982422" xlink:href="#DejaVuSans-101"/>
      <use x="126.505859" xlink:href="#DejaVuSans-116"/>
      <use x="165.714844" xlink:href="#DejaVuSans-97"/>
      <use x="226.994141" xlink:href="#DejaVuSans-105"/>
      <use x="254.777344" xlink:href="#DejaVuSans-108"/>
      <use x="282.560547" xlink:href="#DejaVuSans-32"/>
      <use x="314.347656" xlink:href="#DejaVuSans-97"/>
      <use x="375.626953" xlink:href="#DejaVuSans-110"/>
      <use x="439.005859" xlink:href="#DejaVuSans-100"/>
      <use x="502.482422" xlink:href="#DejaVuSans-32"/>
      <use x="534.269531" xlink:href="#DejaVuSans-82"/>
      <use x="599.251953" xlink:href="#DejaVuSans-101"/>
      <use x="660.775391" xlink:href="#DejaVuSans-99"/>
      <use x="715.755859" xlink:href="#DejaVuSans-114"/>
      <use x="754.619141" xlink:href="#DejaVuSans-101"/>
      <use x="816.142578" xlink:href="#DejaVuSans-97"/>
      <use x="877.421875" xlink:href="#DejaVuSans-116"/>
      <use x="916.630859" xlink:href="#DejaVuSans-105"/>
      <use x="944.414062" xlink:href="#DejaVuSans-111"/>
      <use x="1005.595703" xlink:href="#DejaVuSans-110"/>
      <use x="1068.974609" xlink:href="#DejaVuSans-32"/>
      <use x="1100.761719" xlink:href="#DejaVuSans-77"/>
      <use x="1187.041016" xlink:href="#DejaVuSans-111"/>
      <use x="1248.222656" xlink:href="#DejaVuSans-98"/>
      <use x="1311.699219" xlink:href="#DejaVuSans-105"/>
      <use x="1339.482422" xlink:href="#DejaVuSans-108"/>
      <use x="1367.265625" xlink:href="#DejaVuSans-105"/>
      <use x="1395.048828" xlink:href="#DejaVuSans-116"/>
      <use x="1434.257812" xlink:href="#DejaVuSans-121"/>
     </g>
    </g>
   </g>
   <g id="line2d_27">
    <defs>
     <path d="M 0 1.5 
C 0.397805 1.5 0.77937 1.341951 1.06066 1.06066 
C 1.341951 0.77937 1.5 0.397805 1.5 0 
C 1.5 -0.397805 1.341951 -0.77937 1.06066 -1.06066 
C 0.77937 -1.341951 0.397805 -1.5 0 -1.5 
C -0.397805 -1.5 -0.77937 -1.341951 -1.06066 -1.06066 
C -1.341951 -0.77937 -1.5 -0.397805 -1.5 0 
C -1.5 0.397805 -1.341951 0.77937 -1.06066 1.06066 
C -0.77937 1.341951 -0.397805 1.5 0 1.5 
z
" id="m01767b7964" style="stroke:#000000;"/>
    </defs>
    <g clip-path="url(#p9f95d73163)">
     <use style="stroke:#000000;" x="84.897585" xlink:href="#m01767b7964" y="58.339342"/>
     <use style="stroke:#000000;" x="91.933841" xlink:href="#m01767b7964" y="58.339342"/>
     <use style="stroke:#000000;" x="98.970096" xlink:href="#m01767b7964" y="64.857322"/>
     <use style="stroke:#000000;" x="106.006351" xlink:href="#m01767b7964" y="71.375302"/>
     <use style="stroke:#000000;" x="113.042607" xlink:href="#m01767b7964" y="64.857322"/>
     <use style="stroke:#000000;" x="120.078862" xlink:href="#m01767b7964" y="61.598332"/>
     <use style="stroke:#000000;" x="127.115118" xlink:href="#m01767b7964" y="61.598332"/>
     <use style="stroke:#000000;" x="134.151373" xlink:href="#m01767b7964" y="58.339342"/>
     <use style="stroke:#000000;" x="141.187629" xlink:href="#m01767b7964" y="42.044392"/>
     <use style="stroke:#000000;" x="148.223884" xlink:href="#m01767b7964" y="48.562372"/>
     <use style="stroke:#000000;" x="155.260139" xlink:href="#m01767b7964" y="71.375302"/>
     <use style="stroke:#000000;" x="162.296395" xlink:href="#m01767b7964" y="64.857322"/>
     <use style="stroke:#000000;" x="169.33265" xlink:href="#m01767b7964" y="51.821362"/>
     <use style="stroke:#000000;" x="176.368906" xlink:href="#m01767b7964" y="68.116312"/>
     <use style="stroke:#000000;" x="183.405161" xlink:href="#m01767b7964" y="68.116312"/>
     <use style="stroke:#000000;" x="190.441416" xlink:href="#m01767b7964" y="58.339342"/>
     <use style="stroke:#000000;" x="197.477672" xlink:href="#m01767b7964" y="74.634292"/>
     <use style="stroke:#000000;" x="204.513927" xlink:href="#m01767b7964" y="74.634292"/>
     <use style="stroke:#000000;" x="211.550183" xlink:href="#m01767b7964" y="64.857322"/>
     <use style="stroke:#000000;" x="218.586438" xlink:href="#m01767b7964" y="68.116312"/>
     <use style="stroke:#000000;" x="225.622693" xlink:href="#m01767b7964" y="71.375302"/>
     <use style="stroke:#000000;" x="232.658949" xlink:href="#m01767b7964" y="68.116312"/>
     <use style="stroke:#000000;" x="239.695204" xlink:href="#m01767b7964" y="51.821362"/>
     <use style="stroke:#000000;" x="246.73146" xlink:href="#m01767b7964" y="68.116312"/>
     <use style="stroke:#000000;" x="253.767715" xlink:href="#m01767b7964" y="74.634292"/>
     <use style="stroke:#000000;" x="260.803971" xlink:href="#m01767b7964" y="81.152273"/>
     <use style="stroke:#000000;" x="267.840226" xlink:href="#m01767b7964" y="107.224193"/>
     <use style="stroke:#000000;" x="274.876481" xlink:href="#m01767b7964" y="172.403995"/>
     <use style="stroke:#000000;" x="281.912737" xlink:href="#m01767b7964" y="289.727637"/>
     <use style="stroke:#000000;" x="288.948992" xlink:href="#m01767b7964" y="348.389458"/>
     <use style="stroke:#000000;" x="295.985248" xlink:href="#m01767b7964" y="325.576528"/>
     <use style="stroke:#000000;" x="303.021503" xlink:href="#m01767b7964" y="335.353498"/>
     <use style="stroke:#000000;" x="310.057758" xlink:href="#m01767b7964" y="338.612488"/>
     <use style="stroke:#000000;" x="317.094014" xlink:href="#m01767b7964" y="351.648448"/>
     <use style="stroke:#000000;" x="324.130269" xlink:href="#m01767b7964" y="348.389458"/>
     <use style="stroke:#000000;" x="331.166525" xlink:href="#m01767b7964" y="364.684409"/>
     <use style="stroke:#000000;" x="338.20278" xlink:href="#m01767b7964" y="371.202389"/>
     <use style="stroke:#000000;" x="345.239035" xlink:href="#m01767b7964" y="341.871478"/>
     <use style="stroke:#000000;" x="352.275291" xlink:href="#m01767b7964" y="348.389458"/>
     <use style="stroke:#000000;" x="359.311546" xlink:href="#m01767b7964" y="348.389458"/>
     <use style="stroke:#000000;" x="366.347802" xlink:href="#m01767b7964" y="348.389458"/>
     <use style="stroke:#000000;" x="373.384057" xlink:href="#m01767b7964" y="351.648448"/>
     <use style="stroke:#000000;" x="380.420313" xlink:href="#m01767b7964" y="364.684409"/>
     <use style="stroke:#000000;" x="387.456568" xlink:href="#m01767b7964" y="371.202389"/>
     <use style="stroke:#000000;" x="394.492823" xlink:href="#m01767b7964" y="354.907438"/>
     <use style="stroke:#000000;" x="401.529079" xlink:href="#m01767b7964" y="364.684409"/>
     <use style="stroke:#000000;" x="408.565334" xlink:href="#m01767b7964" y="364.684409"/>
     <use style="stroke:#000000;" x="415.60159" xlink:href="#m01767b7964" y="364.684409"/>
     <use style="stroke:#000000;" x="422.637845" xlink:href="#m01767b7964" y="354.907438"/>
     <use style="stroke:#000000;" x="429.6741" xlink:href="#m01767b7964" y="364.684409"/>
     <use style="stroke:#000000;" x="436.710356" xlink:href="#m01767b7964" y="371.202389"/>
     <use style="stroke:#000000;" x="443.746611" xlink:href="#m01767b7964" y="348.389458"/>
     <use style="stroke:#000000;" x="450.782867" xlink:href="#m01767b7964" y="354.907438"/>
     <use style="stroke:#000000;" x="457.819122" xlink:href="#m01767b7964" y="351.648448"/>
     <use style="stroke:#000000;" x="464.855377" xlink:href="#m01767b7964" y="367.943399"/>
     <use style="stroke:#000000;" x="471.891633" xlink:href="#m01767b7964" y="377.720369"/>
     <use style="stroke:#000000;" x="478.927888" xlink:href="#m01767b7964" y="364.684409"/>
     <use style="stroke:#000000;" x="485.964144" xlink:href="#m01767b7964" y="371.202389"/>
     <use style="stroke:#000000;" x="493.000399" xlink:href="#m01767b7964" y="358.166429"/>
     <use style="stroke:#000000;" x="500.036654" xlink:href="#m01767b7964" y="348.389458"/>
     <use style="stroke:#000000;" x="507.07291" xlink:href="#m01767b7964" y="351.648448"/>
     <use style="stroke:#000000;" x="514.109165" xlink:href="#m01767b7964" y="351.648448"/>
     <use style="stroke:#000000;" x="521.145421" xlink:href="#m01767b7964" y="354.907438"/>
     <use style="stroke:#000000;" x="528.181676" xlink:href="#m01767b7964" y="364.684409"/>
     <use style="stroke:#000000;" x="535.217932" xlink:href="#m01767b7964" y="374.461379"/>
     <use style="stroke:#000000;" x="542.254187" xlink:href="#m01767b7964" y="348.389458"/>
     <use style="stroke:#000000;" x="549.290442" xlink:href="#m01767b7964" y="348.389458"/>
     <use style="stroke:#000000;" x="556.326698" xlink:href="#m01767b7964" y="348.389458"/>
     <use style="stroke:#000000;" x="563.362953" xlink:href="#m01767b7964" y="348.389458"/>
     <use style="stroke:#000000;" x="570.399209" xlink:href="#m01767b7964" y="351.648448"/>
     <use style="stroke:#000000;" x="577.435464" xlink:href="#m01767b7964" y="364.684409"/>
     <use style="stroke:#000000;" x="584.471719" xlink:href="#m01767b7964" y="364.684409"/>
     <use style="stroke:#000000;" x="591.507975" xlink:href="#m01767b7964" y="341.871478"/>
     <use style="stroke:#000000;" x="598.54423" xlink:href="#m01767b7964" y="341.871478"/>
     <use style="stroke:#000000;" x="605.580486" xlink:href="#m01767b7964" y="338.612488"/>
     <use style="stroke:#000000;" x="612.616741" xlink:href="#m01767b7964" y="332.094508"/>
     <use style="stroke:#000000;" x="619.652996" xlink:href="#m01767b7964" y="371.202389"/>
     <use style="stroke:#000000;" x="626.689252" xlink:href="#m01767b7964" y="338.612488"/>
     <use style="stroke:#000000;" x="633.725507" xlink:href="#m01767b7964" y="335.353498"/>
     <use style="stroke:#000000;" x="640.761763" xlink:href="#m01767b7964" y="309.281578"/>
     <use style="stroke:#000000;" x="647.798018" xlink:href="#m01767b7964" y="312.540568"/>
     <use style="stroke:#000000;" x="654.834274" xlink:href="#m01767b7964" y="312.540568"/>
     <use style="stroke:#000000;" x="661.870529" xlink:href="#m01767b7964" y="312.540568"/>
     <use style="stroke:#000000;" x="668.906784" xlink:href="#m01767b7964" y="319.058548"/>
     <use style="stroke:#000000;" x="675.94304" xlink:href="#m01767b7964" y="338.612488"/>
    </g>
   </g>
   <g id="line2d_28">
    <path clip-path="url(#p9f95d73163)" d="M 84.897585 68.486039 
L 91.933841 66.598173 
L 98.970096 54.795615 
L 106.006351 59.387337 
L 113.042607 53.818069 
L 120.078862 53.628091 
L 127.115118 61.884515 
L 134.151373 68.497097 
L 141.187629 66.608075 
L 148.223884 55.556652 
L 155.260139 60.899509 
L 162.296395 56.082407 
L 169.33265 56.644596 
L 176.368906 65.653309 
L 183.405161 73.018182 
L 190.441416 71.881451 
L 197.477672 60.830028 
L 204.513927 64.980878 
L 211.550183 58.971769 
L 218.586438 58.341951 
L 225.622693 66.157539 
L 232.658949 72.329286 
L 239.695204 69.99943 
L 246.73146 57.754882 
L 253.767715 61.904613 
L 260.803971 99.59919 
L 267.840226 142.673057 
L 274.876481 194.19345 
L 281.912737 263.426364 
L 288.948992 324.157674 
L 295.985248 322.803901 
L 303.021503 337.844406 
L 310.057758 342.724954 
L 317.094014 343.496516 
L 324.130269 352.714604 
L 331.166525 360.288851 
L 338.20278 359.359222 
L 345.239035 348.514902 
L 352.275291 354.064861 
L 359.311546 349.454861 
L 366.347802 350.224152 
L 373.384057 359.439968 
L 380.420313 367.011942 
L 387.456568 366.082313 
L 394.492823 355.237113 
L 401.529079 360.786191 
L 408.565334 356.175311 
L 415.60159 355.929892 
L 422.637845 364.130999 
L 429.6741 370.688263 
L 436.710356 368.743925 
L 443.746611 356.884895 
L 450.782867 361.420144 
L 457.819122 355.795434 
L 464.855377 355.550015 
L 471.891633 363.422736 
L 478.927888 369.651616 
L 485.964144 367.378352 
L 493.000399 355.190397 
L 500.036654 359.39672 
L 507.07291 353.443086 
L 514.109165 352.868742 
L 521.145421 360.740923 
L 528.181676 366.969263 
L 535.217932 364.695999 
L 542.254187 352.506936 
L 549.290442 356.712152 
L 556.326698 350.75741 
L 563.362953 348.276394 
L 570.399209 354.241904 
L 577.435464 358.563572 
L 584.471719 354.383637 
L 591.507975 340.28901 
L 598.54423 342.588663 
L 605.580486 334.728357 
L 612.616741 332.247341 
L 619.652996 338.212851 
L 626.689252 342.534519 
L 633.725507 338.354584 
L 640.761763 324.259957 
L 647.798018 326.559609 
L 654.834274 318.699303 
L 661.870529 316.218287 
L 668.906784 322.183797 
L 675.94304 326.505465 
" style="fill:none;stroke:#0072b2;stroke-linecap:square;stroke-width:1.5;"/>
   </g>
   <g id="line2d_29">
    <path clip-path="url(#p9f95d73163)" d="M 84.897585 59.793979 
L 91.933841 59.796184 
L 98.970096 59.798388 
L 106.006351 59.800593 
L 113.042607 59.801766 
L 120.078862 59.80294 
L 127.115118 59.803988 
L 134.151373 59.805037 
L 141.187629 59.806086 
L 148.223884 60.559425 
L 155.260139 61.312765 
L 162.296395 62.066104 
L 169.33265 62.819444 
L 176.368906 63.572783 
L 183.405161 64.326122 
L 190.441416 65.079462 
L 197.477672 65.832801 
L 204.513927 65.394134 
L 211.550183 64.955467 
L 218.586438 64.516799 
L 225.622693 64.077013 
L 232.658949 63.637227 
L 239.695204 63.197441 
L 246.73146 62.757655 
L 253.767715 62.317869 
L 260.803971 105.582887 
L 267.840226 148.847905 
L 274.876481 192.112924 
L 281.912737 254.734304 
L 288.948992 317.355685 
L 295.985248 327.806674 
L 303.021503 338.257663 
L 310.057758 348.708651 
L 317.094014 349.671365 
L 324.130269 350.634078 
L 331.166525 351.596791 
L 338.20278 352.557233 
L 345.239035 353.517675 
L 352.275291 354.478117 
L 359.311546 355.438558 
L 366.347802 356.399 
L 373.384057 357.359441 
L 380.420313 358.319883 
L 387.456568 359.280324 
L 394.492823 360.239886 
L 401.529079 361.199447 
L 408.565334 362.159008 
L 415.60159 362.10474 
L 422.637845 362.050472 
L 429.6741 361.996204 
L 436.710356 361.941936 
L 443.746611 361.887668 
L 450.782867 361.8334 
L 457.819122 361.779132 
L 464.855377 361.724864 
L 471.891633 361.34221 
L 478.927888 360.959557 
L 485.964144 360.576363 
L 493.000399 360.19317 
L 500.036654 359.809976 
L 507.07291 359.426783 
L 514.109165 359.04359 
L 521.145421 358.660397 
L 528.181676 358.277204 
L 535.217932 357.89401 
L 542.254187 357.509709 
L 549.290442 357.125408 
L 556.326698 356.741107 
L 563.362953 354.451243 
L 570.399209 352.161378 
L 577.435464 349.871513 
L 584.471719 347.581648 
L 591.507975 345.291783 
L 598.54423 343.001919 
L 605.580486 340.712054 
L 612.616741 338.422189 
L 619.652996 336.132324 
L 626.689252 333.84246 
L 633.725507 331.552595 
L 640.761763 329.26273 
L 647.798018 326.972865 
L 654.834274 324.683 
L 661.870529 322.393136 
L 668.906784 320.103271 
L 675.94304 317.813406 
" style="fill:none;stroke:#0000ff;stroke-linecap:square;stroke-width:1.5;"/>
   </g>
   <g id="line2d_30">
    <path clip-path="url(#p9f95d73163)" d="M 141.187629 401.718125 
L 141.187629 22.318125 
" style="fill:none;stroke:#0000ff;stroke-dasharray:5.55,2.4;stroke-dashoffset:0;stroke-width:1.5;"/>
   </g>
   <g id="line2d_31">
    <path clip-path="url(#p9f95d73163)" d="M 197.477672 401.718125 
L 197.477672 22.318125 
" style="fill:none;stroke:#0000ff;stroke-dasharray:5.55,2.4;stroke-dashoffset:0;stroke-width:1.5;"/>
   </g>
   <g id="line2d_32">
    <path clip-path="url(#p9f95d73163)" d="M 253.767715 401.718125 
L 253.767715 22.318125 
" style="fill:none;stroke:#0000ff;stroke-dasharray:5.55,2.4;stroke-dashoffset:0;stroke-width:1.5;"/>
   </g>
   <g id="line2d_33">
    <path clip-path="url(#p9f95d73163)" d="M 274.876481 401.718125 
L 274.876481 22.318125 
" style="fill:none;stroke:#0000ff;stroke-dasharray:5.55,2.4;stroke-dashoffset:0;stroke-width:1.5;"/>
   </g>
   <g id="line2d_34">
    <path clip-path="url(#p9f95d73163)" d="M 288.948992 401.718125 
L 288.948992 22.318125 
" style="fill:none;stroke:#0000ff;stroke-dasharray:5.55,2.4;stroke-dashoffset:0;stroke-width:1.5;"/>
   </g>
   <g id="line2d_35">
    <path clip-path="url(#p9f95d73163)" d="M 310.057758 401.718125 
L 310.057758 22.318125 
" style="fill:none;stroke:#0000ff;stroke-dasharray:5.55,2.4;stroke-dashoffset:0;stroke-width:1.5;"/>
   </g>
   <g id="line2d_36">
    <path clip-path="url(#p9f95d73163)" d="M 408.565334 401.718125 
L 408.565334 22.318125 
" style="fill:none;stroke:#0000ff;stroke-dasharray:5.55,2.4;stroke-dashoffset:0;stroke-width:1.5;"/>
   </g>
   <g id="line2d_37">
    <path clip-path="url(#p9f95d73163)" d="M 464.855377 401.718125 
L 464.855377 22.318125 
" style="fill:none;stroke:#0000ff;stroke-dasharray:5.55,2.4;stroke-dashoffset:0;stroke-width:1.5;"/>
   </g>
   <g id="line2d_38">
    <path clip-path="url(#p9f95d73163)" d="M 556.326698 401.718125 
L 556.326698 22.318125 
" style="fill:none;stroke:#0000ff;stroke-dasharray:5.55,2.4;stroke-dashoffset:0;stroke-width:1.5;"/>
   </g>
   <g id="line2d_39">
    <path clip-path="url(#p9f95d73163)" d="M 253.767715 401.718125 
L 253.767715 22.318125 
" style="fill:none;stroke:#ff0000;stroke-linecap:square;stroke-width:3;"/>
   </g>
   <g id="patch_3">
    <path d="M 55.345313 401.718125 
L 55.345313 22.318125 
" style="fill:none;stroke:#000000;stroke-linecap:square;stroke-linejoin:miter;stroke-width:0.8;"/>
   </g>
   <g id="patch_4">
    <path d="M 705.495313 401.718125 
L 705.495313 22.318125 
" style="fill:none;stroke:#000000;stroke-linecap:square;stroke-linejoin:miter;stroke-width:0.8;"/>
   </g>
   <g id="patch_5">
    <path d="M 55.345313 401.718125 
L 705.495313 401.718125 
" style="fill:none;stroke:#000000;stroke-linecap:square;stroke-linejoin:miter;stroke-width:0.8;"/>
   </g>
   <g id="patch_6">
    <path d="M 55.345313 22.318125 
L 705.495313 22.318125 
" style="fill:none;stroke:#000000;stroke-linecap:square;stroke-linejoin:miter;stroke-width:0.8;"/>
   </g>
   <g id="text_16">
    <!-- Retail and Recreation Mobility Graph for Spain -->
    <defs>
     <path d="M 59.515625 10.40625 
L 59.515625 29.984375 
L 43.40625 29.984375 
L 43.40625 38.09375 
L 69.28125 38.09375 
L 69.28125 6.78125 
Q 63.578125 2.734375 56.6875 0.65625 
Q 49.8125 -1.421875 42 -1.421875 
Q 24.90625 -1.421875 15.25 8.5625 
Q 5.609375 18.5625 5.609375 36.375 
Q 5.609375 54.25 15.25 64.234375 
Q 24.90625 74.21875 42 74.21875 
Q 49.125 74.21875 55.546875 72.453125 
Q 61.96875 70.703125 67.390625 67.28125 
L 67.390625 56.78125 
Q 61.921875 61.421875 55.765625 63.765625 
Q 49.609375 66.109375 42.828125 66.109375 
Q 29.4375 66.109375 22.71875 58.640625 
Q 16.015625 51.171875 16.015625 36.375 
Q 16.015625 21.625 22.71875 14.15625 
Q 29.4375 6.6875 42.828125 6.6875 
Q 48.046875 6.6875 52.140625 7.59375 
Q 56.25 8.5 59.515625 10.40625 
z
" id="DejaVuSans-71"/>
     <path d="M 18.109375 8.203125 
L 18.109375 -20.796875 
L 9.078125 -20.796875 
L 9.078125 54.6875 
L 18.109375 54.6875 
L 18.109375 46.390625 
Q 20.953125 51.265625 25.265625 53.625 
Q 29.59375 56 35.59375 56 
Q 45.5625 56 51.78125 48.09375 
Q 58.015625 40.1875 58.015625 27.296875 
Q 58.015625 14.40625 51.78125 6.484375 
Q 45.5625 -1.421875 35.59375 -1.421875 
Q 29.59375 -1.421875 25.265625 0.953125 
Q 20.953125 3.328125 18.109375 8.203125 
z
M 48.6875 27.296875 
Q 48.6875 37.203125 44.609375 42.84375 
Q 40.53125 48.484375 33.40625 48.484375 
Q 26.265625 48.484375 22.1875 42.84375 
Q 18.109375 37.203125 18.109375 27.296875 
Q 18.109375 17.390625 22.1875 11.75 
Q 26.265625 6.109375 33.40625 6.109375 
Q 40.53125 6.109375 44.609375 11.75 
Q 48.6875 17.390625 48.6875 27.296875 
z
" id="DejaVuSans-112"/>
     <path d="M 54.890625 33.015625 
L 54.890625 0 
L 45.90625 0 
L 45.90625 32.71875 
Q 45.90625 40.484375 42.875 44.328125 
Q 39.84375 48.1875 33.796875 48.1875 
Q 26.515625 48.1875 22.3125 43.546875 
Q 18.109375 38.921875 18.109375 30.90625 
L 18.109375 0 
L 9.078125 0 
L 9.078125 75.984375 
L 18.109375 75.984375 
L 18.109375 46.1875 
Q 21.34375 51.125 25.703125 53.5625 
Q 30.078125 56 35.796875 56 
Q 45.21875 56 50.046875 50.171875 
Q 54.890625 44.34375 54.890625 33.015625 
z
" id="DejaVuSans-104"/>
     <path d="M 37.109375 75.984375 
L 37.109375 68.5 
L 28.515625 68.5 
Q 23.6875 68.5 21.796875 66.546875 
Q 19.921875 64.59375 19.921875 59.515625 
L 19.921875 54.6875 
L 34.71875 54.6875 
L 34.71875 47.703125 
L 19.921875 47.703125 
L 19.921875 0 
L 10.890625 0 
L 10.890625 47.703125 
L 2.296875 47.703125 
L 2.296875 54.6875 
L 10.890625 54.6875 
L 10.890625 58.5 
Q 10.890625 67.625 15.140625 71.796875 
Q 19.390625 75.984375 28.609375 75.984375 
z
" id="DejaVuSans-102"/>
     <path d="M 53.515625 70.515625 
L 53.515625 60.890625 
Q 47.90625 63.578125 42.921875 64.890625 
Q 37.9375 66.21875 33.296875 66.21875 
Q 25.25 66.21875 20.875 63.09375 
Q 16.5 59.96875 16.5 54.203125 
Q 16.5 49.359375 19.40625 46.890625 
Q 22.3125 44.4375 30.421875 42.921875 
L 36.375 41.703125 
Q 47.40625 39.59375 52.65625 34.296875 
Q 57.90625 29 57.90625 20.125 
Q 57.90625 9.515625 50.796875 4.046875 
Q 43.703125 -1.421875 29.984375 -1.421875 
Q 24.8125 -1.421875 18.96875 -0.25 
Q 13.140625 0.921875 6.890625 3.21875 
L 6.890625 13.375 
Q 12.890625 10.015625 18.65625 8.296875 
Q 24.421875 6.59375 29.984375 6.59375 
Q 38.421875 6.59375 43.015625 9.90625 
Q 47.609375 13.234375 47.609375 19.390625 
Q 47.609375 24.75 44.3125 27.78125 
Q 41.015625 30.8125 33.5 32.328125 
L 27.484375 33.5 
Q 16.453125 35.6875 11.515625 40.375 
Q 6.59375 45.0625 6.59375 53.421875 
Q 6.59375 63.09375 13.40625 68.65625 
Q 20.21875 74.21875 32.171875 74.21875 
Q 37.3125 74.21875 42.625 73.28125 
Q 47.953125 72.359375 53.515625 70.515625 
z
" id="DejaVuSans-83"/>
    </defs>
    <g transform="translate(241.674063 16.318125)scale(0.12 -0.12)">
     <use xlink:href="#DejaVuSans-82"/>
     <use x="64.982422" xlink:href="#DejaVuSans-101"/>
     <use x="126.505859" xlink:href="#DejaVuSans-116"/>
     <use x="165.714844" xlink:href="#DejaVuSans-97"/>
     <use x="226.994141" xlink:href="#DejaVuSans-105"/>
     <use x="254.777344" xlink:href="#DejaVuSans-108"/>
     <use x="282.560547" xlink:href="#DejaVuSans-32"/>
     <use x="314.347656" xlink:href="#DejaVuSans-97"/>
     <use x="375.626953" xlink:href="#DejaVuSans-110"/>
     <use x="439.005859" xlink:href="#DejaVuSans-100"/>
     <use x="502.482422" xlink:href="#DejaVuSans-32"/>
     <use x="534.269531" xlink:href="#DejaVuSans-82"/>
     <use x="599.251953" xlink:href="#DejaVuSans-101"/>
     <use x="660.775391" xlink:href="#DejaVuSans-99"/>
     <use x="715.755859" xlink:href="#DejaVuSans-114"/>
     <use x="754.619141" xlink:href="#DejaVuSans-101"/>
     <use x="816.142578" xlink:href="#DejaVuSans-97"/>
     <use x="877.421875" xlink:href="#DejaVuSans-116"/>
     <use x="916.630859" xlink:href="#DejaVuSans-105"/>
     <use x="944.414062" xlink:href="#DejaVuSans-111"/>
     <use x="1005.595703" xlink:href="#DejaVuSans-110"/>
     <use x="1068.974609" xlink:href="#DejaVuSans-32"/>
     <use x="1100.761719" xlink:href="#DejaVuSans-77"/>
     <use x="1187.041016" xlink:href="#DejaVuSans-111"/>
     <use x="1248.222656" xlink:href="#DejaVuSans-98"/>
     <use x="1311.699219" xlink:href="#DejaVuSans-105"/>
     <use x="1339.482422" xlink:href="#DejaVuSans-108"/>
     <use x="1367.265625" xlink:href="#DejaVuSans-105"/>
     <use x="1395.048828" xlink:href="#DejaVuSans-116"/>
     <use x="1434.257812" xlink:href="#DejaVuSans-121"/>
     <use x="1493.4375" xlink:href="#DejaVuSans-32"/>
     <use x="1525.224609" xlink:href="#DejaVuSans-71"/>
     <use x="1602.714844" xlink:href="#DejaVuSans-114"/>
     <use x="1643.828125" xlink:href="#DejaVuSans-97"/>
     <use x="1705.107422" xlink:href="#DejaVuSans-112"/>
     <use x="1768.583984" xlink:href="#DejaVuSans-104"/>
     <use x="1831.962891" xlink:href="#DejaVuSans-32"/>
     <use x="1863.75" xlink:href="#DejaVuSans-102"/>
     <use x="1898.955078" xlink:href="#DejaVuSans-111"/>
     <use x="1960.136719" xlink:href="#DejaVuSans-114"/>
     <use x="2001.25" xlink:href="#DejaVuSans-32"/>
     <use x="2033.037109" xlink:href="#DejaVuSans-83"/>
     <use x="2096.513672" xlink:href="#DejaVuSans-112"/>
     <use x="2159.990234" xlink:href="#DejaVuSans-97"/>
     <use x="2221.269531" xlink:href="#DejaVuSans-105"/>
     <use x="2249.052734" xlink:href="#DejaVuSans-110"/>
    </g>
   </g>
   <g id="legend_1">
    <g id="patch_7">
     <path d="M 544.020313 44.99625 
L 698.495313 44.99625 
Q 700.495313 44.99625 700.495313 42.99625 
L 700.495313 29.318125 
Q 700.495313 27.318125 698.495313 27.318125 
L 544.020313 27.318125 
Q 542.020313 27.318125 542.020313 29.318125 
L 542.020313 42.99625 
Q 542.020313 44.99625 544.020313 44.99625 
z
" style="fill:#ffffff;opacity:0.8;stroke:#cccccc;stroke-linejoin:miter;"/>
    </g>
    <g id="line2d_40">
     <path d="M 546.020313 35.416562 
L 566.020313 35.416562 
" style="fill:none;stroke:#ff0000;stroke-linecap:square;stroke-width:3;"/>
    </g>
    <g id="line2d_41"/>
    <g id="text_17">
     <!-- Effective Lockdown date -->
     <defs>
      <path d="M 9.8125 72.90625 
L 55.90625 72.90625 
L 55.90625 64.59375 
L 19.671875 64.59375 
L 19.671875 43.015625 
L 54.390625 43.015625 
L 54.390625 34.71875 
L 19.671875 34.71875 
L 19.671875 8.296875 
L 56.78125 8.296875 
L 56.78125 0 
L 9.8125 0 
z
" id="DejaVuSans-69"/>
      <path d="M 2.984375 54.6875 
L 12.5 54.6875 
L 29.59375 8.796875 
L 46.6875 54.6875 
L 56.203125 54.6875 
L 35.6875 0 
L 23.484375 0 
z
" id="DejaVuSans-118"/>
      <path d="M 9.8125 72.90625 
L 19.671875 72.90625 
L 19.671875 8.296875 
L 55.171875 8.296875 
L 55.171875 0 
L 9.8125 0 
z
" id="DejaVuSans-76"/>
      <path d="M 9.078125 75.984375 
L 18.109375 75.984375 
L 18.109375 31.109375 
L 44.921875 54.6875 
L 56.390625 54.6875 
L 27.390625 29.109375 
L 57.625 0 
L 45.90625 0 
L 18.109375 26.703125 
L 18.109375 0 
L 9.078125 0 
z
" id="DejaVuSans-107"/>
      <path d="M 4.203125 54.6875 
L 13.1875 54.6875 
L 24.421875 12.015625 
L 35.59375 54.6875 
L 46.1875 54.6875 
L 57.421875 12.015625 
L 68.609375 54.6875 
L 77.59375 54.6875 
L 63.28125 0 
L 52.6875 0 
L 40.921875 44.828125 
L 29.109375 0 
L 18.5 0 
z
" id="DejaVuSans-119"/>
     </defs>
     <g transform="translate(574.020313 38.916562)scale(0.1 -0.1)">
      <use xlink:href="#DejaVuSans-69"/>
      <use x="63.183594" xlink:href="#DejaVuSans-102"/>
      <use x="98.388672" xlink:href="#DejaVuSans-102"/>
      <use x="133.59375" xlink:href="#DejaVuSans-101"/>
      <use x="195.117188" xlink:href="#DejaVuSans-99"/>
      <use x="250.097656" xlink:href="#DejaVuSans-116"/>
      <use x="289.306641" xlink:href="#DejaVuSans-105"/>
      <use x="317.089844" xlink:href="#DejaVuSans-118"/>
      <use x="376.269531" xlink:href="#DejaVuSans-101"/>
      <use x="437.792969" xlink:href="#DejaVuSans-32"/>
      <use x="469.580078" xlink:href="#DejaVuSans-76"/>
      <use x="523.542969" xlink:href="#DejaVuSans-111"/>
      <use x="584.724609" xlink:href="#DejaVuSans-99"/>
      <use x="639.705078" xlink:href="#DejaVuSans-107"/>
      <use x="697.615234" xlink:href="#DejaVuSans-100"/>
      <use x="761.091797" xlink:href="#DejaVuSans-111"/>
      <use x="822.273438" xlink:href="#DejaVuSans-119"/>
      <use x="904.060547" xlink:href="#DejaVuSans-110"/>
      <use x="967.439453" xlink:href="#DejaVuSans-32"/>
      <use x="999.226562" xlink:href="#DejaVuSans-100"/>
      <use x="1062.703125" xlink:href="#DejaVuSans-97"/>
      <use x="1123.982422" xlink:href="#DejaVuSans-116"/>
      <use x="1163.191406" xlink:href="#DejaVuSans-101"/>
     </g>
    </g>
   </g>
  </g>
 </g>
 <defs>
  <clipPath id="p9f95d73163">
   <rect height="379.4" width="650.15" x="55.345313" y="22.318125"/>
  </clipPath>
 </defs>
</svg>
