<?xml version="1.0" encoding="utf-8" standalone="no"?>
<!DOCTYPE svg PUBLIC "-//W3C//DTD SVG 1.1//EN"
  "http://www.w3.org/Graphics/SVG/1.1/DTD/svg11.dtd">
<!-- Created with matplotlib (https://matplotlib.org/) -->
<svg height="439.274375pt" version="1.1" viewBox="0 0 712.582813 439.274375" width="712.582813pt" xmlns="http://www.w3.org/2000/svg" xmlns:xlink="http://www.w3.org/1999/xlink">
 <defs>
  <style type="text/css">
*{stroke-linecap:butt;stroke-linejoin:round;}
  </style>
 </defs>
 <g id="figure_1">
  <g id="patch_1">
   <path d="M 0 439.274375 
L 712.582813 439.274375 
L 712.582813 0 
L 0 0 
z
" style="fill:#ffffff;"/>
  </g>
  <g id="axes_1">
   <g id="patch_2">
    <path d="M 48.982813 401.718125 
L 705.382813 401.718125 
L 705.382813 22.318125 
L 48.982813 22.318125 
z
" style="fill:#ffffff;"/>
   </g>
   <g id="PolyCollection_1">
    <defs>
     <path d="M 78.819176 -369.16586 
L 78.819176 -336.598715 
L 85.923072 -327.070581 
L 93.026968 -342.203843 
L 100.130864 -339.772452 
L 107.234761 -342.768256 
L 114.338657 -335.462063 
L 121.442553 -333.143436 
L 128.546449 -331.147533 
L 135.650345 -326.87381 
L 142.754241 -345.003136 
L 149.858137 -348.625833 
L 156.962033 -353.786318 
L 164.065929 -353.772897 
L 171.169825 -349.302703 
L 178.273722 -349.317876 
L 185.377618 -344.952964 
L 192.481514 -362.927948 
L 199.58541 -363.78329 
L 206.689306 -365.737833 
L 213.793202 -360.276132 
L 220.897098 -356.198851 
L 228.000994 -350.063028 
L 235.10489 -340.205087 
L 242.208787 -354.805317 
L 249.312683 -351.023634 
L 256.416579 -346.394911 
L 263.520475 -335.718215 
L 270.624371 -323.526393 
L 277.728267 -296.010466 
L 284.832163 -268.006276 
L 291.936059 -263.00297 
L 299.039955 -242.159913 
L 306.143851 -226.384823 
L 313.247748 -199.464594 
L 320.351644 -171.439537 
L 327.45554 -146.243556 
L 334.559436 -134.015137 
L 341.663332 -145.093082 
L 348.767228 -141.473835 
L 355.871124 -143.11323 
L 362.97502 -137.620336 
L 370.078916 -131.81295 
L 377.182812 -128.140233 
L 384.286709 -117.079333 
L 391.390605 -133.051708 
L 398.494501 -133.938636 
L 405.598397 -134.257847 
L 412.702293 -128.002823 
L 419.806189 -123.712774 
L 426.910085 -117.999559 
L 434.013981 -110.078828 
L 441.117877 -124.66084 
L 448.221774 -124.142215 
L 455.32567 -126.081172 
L 462.429566 -120.848393 
L 469.533462 -114.327872 
L 476.637358 -109.169181 
L 483.741254 -105.021926 
L 490.84515 -124.106983 
L 497.949046 -127.873734 
L 505.052942 -132.326642 
L 512.156838 -131.590577 
L 519.260735 -127.714457 
L 526.364631 -125.877711 
L 533.468527 -120.785053 
L 540.572423 -141.115217 
L 547.676319 -144.540948 
L 554.780215 -148.143843 
L 561.884111 -147.021684 
L 568.988007 -145.904169 
L 576.091903 -144.105669 
L 583.1958 -139.533037 
L 590.299696 -159.150971 
L 597.403592 -163.442436 
L 604.507488 -170.480377 
L 611.611384 -167.33118 
L 618.71528 -166.668403 
L 625.819176 -165.068174 
L 632.923072 -160.822174 
L 640.026968 -181.663803 
L 647.130864 -184.858108 
L 654.234761 -191.117064 
L 661.338657 -188.344763 
L 668.442553 -186.339105 
L 675.546449 -184.571105 
L 675.546449 -218.464071 
L 675.546449 -218.464071 
L 668.442553 -219.635924 
L 661.338657 -221.935688 
L 654.234761 -223.821969 
L 647.130864 -217.295201 
L 640.026968 -214.724856 
L 632.923072 -195.280547 
L 625.819176 -199.156929 
L 618.71528 -200.371053 
L 611.611384 -201.108689 
L 604.507488 -202.327804 
L 597.403592 -197.39695 
L 590.299696 -193.568888 
L 583.1958 -174.334845 
L 576.091903 -178.265896 
L 568.988007 -179.868065 
L 561.884111 -183.007922 
L 554.780215 -183.473901 
L 547.676319 -176.628495 
L 540.572423 -175.086185 
L 533.468527 -153.954395 
L 526.364631 -160.031785 
L 519.260735 -160.878228 
L 512.156838 -165.46537 
L 505.052942 -166.810714 
L 497.949046 -160.483254 
L 490.84515 -158.149013 
L 483.741254 -138.017148 
L 476.637358 -144.396118 
L 469.533462 -150.52887 
L 462.429566 -155.731576 
L 455.32567 -159.581164 
L 448.221774 -159.444729 
L 441.117877 -160.367405 
L 434.013981 -142.938724 
L 426.910085 -152.048878 
L 419.806189 -157.258238 
L 412.702293 -164.010108 
L 405.598397 -169.476067 
L 398.494501 -166.522723 
L 391.390605 -166.220067 
L 384.286709 -150.206521 
L 377.182812 -161.287352 
L 370.078916 -166.046755 
L 362.97502 -171.441241 
L 355.871124 -176.536024 
L 348.767228 -175.656219 
L 341.663332 -179.151472 
L 334.559436 -167.677605 
L 327.45554 -178.783911 
L 320.351644 -205.717772 
L 313.247748 -232.406267 
L 306.143851 -258.1062 
L 299.039955 -276.681226 
L 291.936059 -297.355331 
L 284.832163 -302.473141 
L 277.728267 -330.67415 
L 270.624371 -357.936406 
L 263.520475 -369.705406 
L 256.416579 -380.280125 
L 249.312683 -385.043091 
L 242.208787 -386.818667 
L 235.10489 -373.834468 
L 228.000994 -384.655136 
L 220.897098 -389.004164 
L 213.793202 -394.454735 
L 206.689306 -399.710795 
L 199.58541 -398.940525 
L 192.481514 -396.272955 
L 185.377618 -377.80067 
L 178.273722 -381.964803 
L 171.169825 -384.637166 
L 164.065929 -387.42878 
L 156.962033 -387.754868 
L 149.858137 -383.118111 
L 142.754241 -379.307717 
L 135.650345 -359.913081 
L 128.546449 -364.953264 
L 121.442553 -366.023373 
L 114.338657 -368.748633 
L 107.234761 -375.489445 
L 100.130864 -374.822929 
L 93.026968 -375.001225 
L 85.923072 -360.088018 
L 78.819176 -369.16586 
z
" id="m72e3466059" style="stroke:#0072b2;stroke-opacity:0.2;"/>
    </defs>
    <g clip-path="url(#pc0c568f5bd)">
     <use style="fill:#0072b2;fill-opacity:0.2;stroke:#0072b2;stroke-opacity:0.2;" x="0" xlink:href="#m72e3466059" y="439.274375"/>
    </g>
   </g>
   <g id="matplotlib.axis_1">
    <g id="xtick_1">
     <g id="line2d_1">
      <path clip-path="url(#pc0c568f5bd)" d="M 71.71528 401.718125 
L 71.71528 22.318125 
" style="fill:none;stroke:#808080;stroke-linecap:square;stroke-opacity:0.2;"/>
     </g>
     <g id="line2d_2">
      <defs>
       <path d="M 0 0 
L 0 3.5 
" id="mea2f730017" style="stroke:#000000;stroke-width:0.8;"/>
      </defs>
      <g>
       <use style="stroke:#000000;stroke-width:0.8;" x="71.71528" xlink:href="#mea2f730017" y="401.718125"/>
      </g>
     </g>
     <g id="text_1">
      <!-- 2020-02-14 -->
      <defs>
       <path d="M 19.1875 8.296875 
L 53.609375 8.296875 
L 53.609375 0 
L 7.328125 0 
L 7.328125 8.296875 
Q 12.9375 14.109375 22.625 23.890625 
Q 32.328125 33.6875 34.8125 36.53125 
Q 39.546875 41.84375 41.421875 45.53125 
Q 43.3125 49.21875 43.3125 52.78125 
Q 43.3125 58.59375 39.234375 62.25 
Q 35.15625 65.921875 28.609375 65.921875 
Q 23.96875 65.921875 18.8125 64.3125 
Q 13.671875 62.703125 7.8125 59.421875 
L 7.8125 69.390625 
Q 13.765625 71.78125 18.9375 73 
Q 24.125 74.21875 28.421875 74.21875 
Q 39.75 74.21875 46.484375 68.546875 
Q 53.21875 62.890625 53.21875 53.421875 
Q 53.21875 48.921875 51.53125 44.890625 
Q 49.859375 40.875 45.40625 35.40625 
Q 44.1875 33.984375 37.640625 27.21875 
Q 31.109375 20.453125 19.1875 8.296875 
z
" id="DejaVuSans-50"/>
       <path d="M 31.78125 66.40625 
Q 24.171875 66.40625 20.328125 58.90625 
Q 16.5 51.421875 16.5 36.375 
Q 16.5 21.390625 20.328125 13.890625 
Q 24.171875 6.390625 31.78125 6.390625 
Q 39.453125 6.390625 43.28125 13.890625 
Q 47.125 21.390625 47.125 36.375 
Q 47.125 51.421875 43.28125 58.90625 
Q 39.453125 66.40625 31.78125 66.40625 
z
M 31.78125 74.21875 
Q 44.046875 74.21875 50.515625 64.515625 
Q 56.984375 54.828125 56.984375 36.375 
Q 56.984375 17.96875 50.515625 8.265625 
Q 44.046875 -1.421875 31.78125 -1.421875 
Q 19.53125 -1.421875 13.0625 8.265625 
Q 6.59375 17.96875 6.59375 36.375 
Q 6.59375 54.828125 13.0625 64.515625 
Q 19.53125 74.21875 31.78125 74.21875 
z
" id="DejaVuSans-48"/>
       <path d="M 4.890625 31.390625 
L 31.203125 31.390625 
L 31.203125 23.390625 
L 4.890625 23.390625 
z
" id="DejaVuSans-45"/>
       <path d="M 12.40625 8.296875 
L 28.515625 8.296875 
L 28.515625 63.921875 
L 10.984375 60.40625 
L 10.984375 69.390625 
L 28.421875 72.90625 
L 38.28125 72.90625 
L 38.28125 8.296875 
L 54.390625 8.296875 
L 54.390625 0 
L 12.40625 0 
z
" id="DejaVuSans-49"/>
       <path d="M 37.796875 64.3125 
L 12.890625 25.390625 
L 37.796875 25.390625 
z
M 35.203125 72.90625 
L 47.609375 72.90625 
L 47.609375 25.390625 
L 58.015625 25.390625 
L 58.015625 17.1875 
L 47.609375 17.1875 
L 47.609375 0 
L 37.796875 0 
L 37.796875 17.1875 
L 4.890625 17.1875 
L 4.890625 26.703125 
z
" id="DejaVuSans-52"/>
      </defs>
      <g transform="translate(42.657468 416.316562)scale(0.1 -0.1)">
       <use xlink:href="#DejaVuSans-50"/>
       <use x="63.623047" xlink:href="#DejaVuSans-48"/>
       <use x="127.246094" xlink:href="#DejaVuSans-50"/>
       <use x="190.869141" xlink:href="#DejaVuSans-48"/>
       <use x="254.492188" xlink:href="#DejaVuSans-45"/>
       <use x="290.576172" xlink:href="#DejaVuSans-48"/>
       <use x="354.199219" xlink:href="#DejaVuSans-50"/>
       <use x="417.822266" xlink:href="#DejaVuSans-45"/>
       <use x="453.90625" xlink:href="#DejaVuSans-49"/>
       <use x="517.529297" xlink:href="#DejaVuSans-52"/>
      </g>
     </g>
    </g>
    <g id="xtick_2">
     <g id="line2d_3">
      <path clip-path="url(#pc0c568f5bd)" d="M 171.169825 401.718125 
L 171.169825 22.318125 
" style="fill:none;stroke:#808080;stroke-linecap:square;stroke-opacity:0.2;"/>
     </g>
     <g id="line2d_4">
      <g>
       <use style="stroke:#000000;stroke-width:0.8;" x="171.169825" xlink:href="#mea2f730017" y="401.718125"/>
      </g>
     </g>
     <g id="text_2">
      <!-- 2020-02-28 -->
      <defs>
       <path d="M 31.78125 34.625 
Q 24.75 34.625 20.71875 30.859375 
Q 16.703125 27.09375 16.703125 20.515625 
Q 16.703125 13.921875 20.71875 10.15625 
Q 24.75 6.390625 31.78125 6.390625 
Q 38.8125 6.390625 42.859375 10.171875 
Q 46.921875 13.96875 46.921875 20.515625 
Q 46.921875 27.09375 42.890625 30.859375 
Q 38.875 34.625 31.78125 34.625 
z
M 21.921875 38.8125 
Q 15.578125 40.375 12.03125 44.71875 
Q 8.5 49.078125 8.5 55.328125 
Q 8.5 64.0625 14.71875 69.140625 
Q 20.953125 74.21875 31.78125 74.21875 
Q 42.671875 74.21875 48.875 69.140625 
Q 55.078125 64.0625 55.078125 55.328125 
Q 55.078125 49.078125 51.53125 44.71875 
Q 48 40.375 41.703125 38.8125 
Q 48.828125 37.15625 52.796875 32.3125 
Q 56.78125 27.484375 56.78125 20.515625 
Q 56.78125 9.90625 50.3125 4.234375 
Q 43.84375 -1.421875 31.78125 -1.421875 
Q 19.734375 -1.421875 13.25 4.234375 
Q 6.78125 9.90625 6.78125 20.515625 
Q 6.78125 27.484375 10.78125 32.3125 
Q 14.796875 37.15625 21.921875 38.8125 
z
M 18.3125 54.390625 
Q 18.3125 48.734375 21.84375 45.5625 
Q 25.390625 42.390625 31.78125 42.390625 
Q 38.140625 42.390625 41.71875 45.5625 
Q 45.3125 48.734375 45.3125 54.390625 
Q 45.3125 60.0625 41.71875 63.234375 
Q 38.140625 66.40625 31.78125 66.40625 
Q 25.390625 66.40625 21.84375 63.234375 
Q 18.3125 60.0625 18.3125 54.390625 
z
" id="DejaVuSans-56"/>
      </defs>
      <g transform="translate(142.112013 416.316562)scale(0.1 -0.1)">
       <use xlink:href="#DejaVuSans-50"/>
       <use x="63.623047" xlink:href="#DejaVuSans-48"/>
       <use x="127.246094" xlink:href="#DejaVuSans-50"/>
       <use x="190.869141" xlink:href="#DejaVuSans-48"/>
       <use x="254.492188" xlink:href="#DejaVuSans-45"/>
       <use x="290.576172" xlink:href="#DejaVuSans-48"/>
       <use x="354.199219" xlink:href="#DejaVuSans-50"/>
       <use x="417.822266" xlink:href="#DejaVuSans-45"/>
       <use x="453.90625" xlink:href="#DejaVuSans-50"/>
       <use x="517.529297" xlink:href="#DejaVuSans-56"/>
      </g>
     </g>
    </g>
    <g id="xtick_3">
     <g id="line2d_5">
      <path clip-path="url(#pc0c568f5bd)" d="M 270.624371 401.718125 
L 270.624371 22.318125 
" style="fill:none;stroke:#808080;stroke-linecap:square;stroke-opacity:0.2;"/>
     </g>
     <g id="line2d_6">
      <g>
       <use style="stroke:#000000;stroke-width:0.8;" x="270.624371" xlink:href="#mea2f730017" y="401.718125"/>
      </g>
     </g>
     <g id="text_3">
      <!-- 2020-03-13 -->
      <defs>
       <path d="M 40.578125 39.3125 
Q 47.65625 37.796875 51.625 33 
Q 55.609375 28.21875 55.609375 21.1875 
Q 55.609375 10.40625 48.1875 4.484375 
Q 40.765625 -1.421875 27.09375 -1.421875 
Q 22.515625 -1.421875 17.65625 -0.515625 
Q 12.796875 0.390625 7.625 2.203125 
L 7.625 11.71875 
Q 11.71875 9.328125 16.59375 8.109375 
Q 21.484375 6.890625 26.8125 6.890625 
Q 36.078125 6.890625 40.9375 10.546875 
Q 45.796875 14.203125 45.796875 21.1875 
Q 45.796875 27.640625 41.28125 31.265625 
Q 36.765625 34.90625 28.71875 34.90625 
L 20.21875 34.90625 
L 20.21875 43.015625 
L 29.109375 43.015625 
Q 36.375 43.015625 40.234375 45.921875 
Q 44.09375 48.828125 44.09375 54.296875 
Q 44.09375 59.90625 40.109375 62.90625 
Q 36.140625 65.921875 28.71875 65.921875 
Q 24.65625 65.921875 20.015625 65.03125 
Q 15.375 64.15625 9.8125 62.3125 
L 9.8125 71.09375 
Q 15.4375 72.65625 20.34375 73.4375 
Q 25.25 74.21875 29.59375 74.21875 
Q 40.828125 74.21875 47.359375 69.109375 
Q 53.90625 64.015625 53.90625 55.328125 
Q 53.90625 49.265625 50.4375 45.09375 
Q 46.96875 40.921875 40.578125 39.3125 
z
" id="DejaVuSans-51"/>
      </defs>
      <g transform="translate(241.566558 416.316562)scale(0.1 -0.1)">
       <use xlink:href="#DejaVuSans-50"/>
       <use x="63.623047" xlink:href="#DejaVuSans-48"/>
       <use x="127.246094" xlink:href="#DejaVuSans-50"/>
       <use x="190.869141" xlink:href="#DejaVuSans-48"/>
       <use x="254.492188" xlink:href="#DejaVuSans-45"/>
       <use x="290.576172" xlink:href="#DejaVuSans-48"/>
       <use x="354.199219" xlink:href="#DejaVuSans-51"/>
       <use x="417.822266" xlink:href="#DejaVuSans-45"/>
       <use x="453.90625" xlink:href="#DejaVuSans-49"/>
       <use x="517.529297" xlink:href="#DejaVuSans-51"/>
      </g>
     </g>
    </g>
    <g id="xtick_4">
     <g id="line2d_7">
      <path clip-path="url(#pc0c568f5bd)" d="M 370.078916 401.718125 
L 370.078916 22.318125 
" style="fill:none;stroke:#808080;stroke-linecap:square;stroke-opacity:0.2;"/>
     </g>
     <g id="line2d_8">
      <g>
       <use style="stroke:#000000;stroke-width:0.8;" x="370.078916" xlink:href="#mea2f730017" y="401.718125"/>
      </g>
     </g>
     <g id="text_4">
      <!-- 2020-03-27 -->
      <defs>
       <path d="M 8.203125 72.90625 
L 55.078125 72.90625 
L 55.078125 68.703125 
L 28.609375 0 
L 18.3125 0 
L 43.21875 64.59375 
L 8.203125 64.59375 
z
" id="DejaVuSans-55"/>
      </defs>
      <g transform="translate(341.021104 416.316562)scale(0.1 -0.1)">
       <use xlink:href="#DejaVuSans-50"/>
       <use x="63.623047" xlink:href="#DejaVuSans-48"/>
       <use x="127.246094" xlink:href="#DejaVuSans-50"/>
       <use x="190.869141" xlink:href="#DejaVuSans-48"/>
       <use x="254.492188" xlink:href="#DejaVuSans-45"/>
       <use x="290.576172" xlink:href="#DejaVuSans-48"/>
       <use x="354.199219" xlink:href="#DejaVuSans-51"/>
       <use x="417.822266" xlink:href="#DejaVuSans-45"/>
       <use x="453.90625" xlink:href="#DejaVuSans-50"/>
       <use x="517.529297" xlink:href="#DejaVuSans-55"/>
      </g>
     </g>
    </g>
    <g id="xtick_5">
     <g id="line2d_9">
      <path clip-path="url(#pc0c568f5bd)" d="M 469.533462 401.718125 
L 469.533462 22.318125 
" style="fill:none;stroke:#808080;stroke-linecap:square;stroke-opacity:0.2;"/>
     </g>
     <g id="line2d_10">
      <g>
       <use style="stroke:#000000;stroke-width:0.8;" x="469.533462" xlink:href="#mea2f730017" y="401.718125"/>
      </g>
     </g>
     <g id="text_5">
      <!-- 2020-04-10 -->
      <g transform="translate(440.475649 416.316562)scale(0.1 -0.1)">
       <use xlink:href="#DejaVuSans-50"/>
       <use x="63.623047" xlink:href="#DejaVuSans-48"/>
       <use x="127.246094" xlink:href="#DejaVuSans-50"/>
       <use x="190.869141" xlink:href="#DejaVuSans-48"/>
       <use x="254.492188" xlink:href="#DejaVuSans-45"/>
       <use x="290.576172" xlink:href="#DejaVuSans-48"/>
       <use x="354.199219" xlink:href="#DejaVuSans-52"/>
       <use x="417.822266" xlink:href="#DejaVuSans-45"/>
       <use x="453.90625" xlink:href="#DejaVuSans-49"/>
       <use x="517.529297" xlink:href="#DejaVuSans-48"/>
      </g>
     </g>
    </g>
    <g id="xtick_6">
     <g id="line2d_11">
      <path clip-path="url(#pc0c568f5bd)" d="M 568.988007 401.718125 
L 568.988007 22.318125 
" style="fill:none;stroke:#808080;stroke-linecap:square;stroke-opacity:0.2;"/>
     </g>
     <g id="line2d_12">
      <g>
       <use style="stroke:#000000;stroke-width:0.8;" x="568.988007" xlink:href="#mea2f730017" y="401.718125"/>
      </g>
     </g>
     <g id="text_6">
      <!-- 2020-04-24 -->
      <g transform="translate(539.930195 416.316562)scale(0.1 -0.1)">
       <use xlink:href="#DejaVuSans-50"/>
       <use x="63.623047" xlink:href="#DejaVuSans-48"/>
       <use x="127.246094" xlink:href="#DejaVuSans-50"/>
       <use x="190.869141" xlink:href="#DejaVuSans-48"/>
       <use x="254.492188" xlink:href="#DejaVuSans-45"/>
       <use x="290.576172" xlink:href="#DejaVuSans-48"/>
       <use x="354.199219" xlink:href="#DejaVuSans-52"/>
       <use x="417.822266" xlink:href="#DejaVuSans-45"/>
       <use x="453.90625" xlink:href="#DejaVuSans-50"/>
       <use x="517.529297" xlink:href="#DejaVuSans-52"/>
      </g>
     </g>
    </g>
    <g id="xtick_7">
     <g id="line2d_13">
      <path clip-path="url(#pc0c568f5bd)" d="M 668.442553 401.718125 
L 668.442553 22.318125 
" style="fill:none;stroke:#808080;stroke-linecap:square;stroke-opacity:0.2;"/>
     </g>
     <g id="line2d_14">
      <g>
       <use style="stroke:#000000;stroke-width:0.8;" x="668.442553" xlink:href="#mea2f730017" y="401.718125"/>
      </g>
     </g>
     <g id="text_7">
      <!-- 2020-05-08 -->
      <defs>
       <path d="M 10.796875 72.90625 
L 49.515625 72.90625 
L 49.515625 64.59375 
L 19.828125 64.59375 
L 19.828125 46.734375 
Q 21.96875 47.46875 24.109375 47.828125 
Q 26.265625 48.1875 28.421875 48.1875 
Q 40.625 48.1875 47.75 41.5 
Q 54.890625 34.8125 54.890625 23.390625 
Q 54.890625 11.625 47.5625 5.09375 
Q 40.234375 -1.421875 26.90625 -1.421875 
Q 22.3125 -1.421875 17.546875 -0.640625 
Q 12.796875 0.140625 7.71875 1.703125 
L 7.71875 11.625 
Q 12.109375 9.234375 16.796875 8.0625 
Q 21.484375 6.890625 26.703125 6.890625 
Q 35.15625 6.890625 40.078125 11.328125 
Q 45.015625 15.765625 45.015625 23.390625 
Q 45.015625 31 40.078125 35.4375 
Q 35.15625 39.890625 26.703125 39.890625 
Q 22.75 39.890625 18.8125 39.015625 
Q 14.890625 38.140625 10.796875 36.28125 
z
" id="DejaVuSans-53"/>
      </defs>
      <g transform="translate(639.38474 416.316562)scale(0.1 -0.1)">
       <use xlink:href="#DejaVuSans-50"/>
       <use x="63.623047" xlink:href="#DejaVuSans-48"/>
       <use x="127.246094" xlink:href="#DejaVuSans-50"/>
       <use x="190.869141" xlink:href="#DejaVuSans-48"/>
       <use x="254.492188" xlink:href="#DejaVuSans-45"/>
       <use x="290.576172" xlink:href="#DejaVuSans-48"/>
       <use x="354.199219" xlink:href="#DejaVuSans-53"/>
       <use x="417.822266" xlink:href="#DejaVuSans-45"/>
       <use x="453.90625" xlink:href="#DejaVuSans-48"/>
       <use x="517.529297" xlink:href="#DejaVuSans-56"/>
      </g>
     </g>
    </g>
    <g id="text_8">
     <!-- Date -->
     <defs>
      <path d="M 19.671875 64.796875 
L 19.671875 8.109375 
L 31.59375 8.109375 
Q 46.6875 8.109375 53.6875 14.9375 
Q 60.6875 21.78125 60.6875 36.53125 
Q 60.6875 51.171875 53.6875 57.984375 
Q 46.6875 64.796875 31.59375 64.796875 
z
M 9.8125 72.90625 
L 30.078125 72.90625 
Q 51.265625 72.90625 61.171875 64.09375 
Q 71.09375 55.28125 71.09375 36.53125 
Q 71.09375 17.671875 61.125 8.828125 
Q 51.171875 0 30.078125 0 
L 9.8125 0 
z
" id="DejaVuSans-68"/>
      <path d="M 34.28125 27.484375 
Q 23.390625 27.484375 19.1875 25 
Q 14.984375 22.515625 14.984375 16.5 
Q 14.984375 11.71875 18.140625 8.90625 
Q 21.296875 6.109375 26.703125 6.109375 
Q 34.1875 6.109375 38.703125 11.40625 
Q 43.21875 16.703125 43.21875 25.484375 
L 43.21875 27.484375 
z
M 52.203125 31.203125 
L 52.203125 0 
L 43.21875 0 
L 43.21875 8.296875 
Q 40.140625 3.328125 35.546875 0.953125 
Q 30.953125 -1.421875 24.3125 -1.421875 
Q 15.921875 -1.421875 10.953125 3.296875 
Q 6 8.015625 6 15.921875 
Q 6 25.140625 12.171875 29.828125 
Q 18.359375 34.515625 30.609375 34.515625 
L 43.21875 34.515625 
L 43.21875 35.40625 
Q 43.21875 41.609375 39.140625 45 
Q 35.0625 48.390625 27.6875 48.390625 
Q 23 48.390625 18.546875 47.265625 
Q 14.109375 46.140625 10.015625 43.890625 
L 10.015625 52.203125 
Q 14.9375 54.109375 19.578125 55.046875 
Q 24.21875 56 28.609375 56 
Q 40.484375 56 46.34375 49.84375 
Q 52.203125 43.703125 52.203125 31.203125 
z
" id="DejaVuSans-97"/>
      <path d="M 18.3125 70.21875 
L 18.3125 54.6875 
L 36.8125 54.6875 
L 36.8125 47.703125 
L 18.3125 47.703125 
L 18.3125 18.015625 
Q 18.3125 11.328125 20.140625 9.421875 
Q 21.96875 7.515625 27.59375 7.515625 
L 36.8125 7.515625 
L 36.8125 0 
L 27.59375 0 
Q 17.1875 0 13.234375 3.875 
Q 9.28125 7.765625 9.28125 18.015625 
L 9.28125 47.703125 
L 2.6875 47.703125 
L 2.6875 54.6875 
L 9.28125 54.6875 
L 9.28125 70.21875 
z
" id="DejaVuSans-116"/>
      <path d="M 56.203125 29.59375 
L 56.203125 25.203125 
L 14.890625 25.203125 
Q 15.484375 15.921875 20.484375 11.0625 
Q 25.484375 6.203125 34.421875 6.203125 
Q 39.59375 6.203125 44.453125 7.46875 
Q 49.3125 8.734375 54.109375 11.28125 
L 54.109375 2.78125 
Q 49.265625 0.734375 44.1875 -0.34375 
Q 39.109375 -1.421875 33.890625 -1.421875 
Q 20.796875 -1.421875 13.15625 6.1875 
Q 5.515625 13.8125 5.515625 26.8125 
Q 5.515625 40.234375 12.765625 48.109375 
Q 20.015625 56 32.328125 56 
Q 43.359375 56 49.78125 48.890625 
Q 56.203125 41.796875 56.203125 29.59375 
z
M 47.21875 32.234375 
Q 47.125 39.59375 43.09375 43.984375 
Q 39.0625 48.390625 32.421875 48.390625 
Q 24.90625 48.390625 20.390625 44.140625 
Q 15.875 39.890625 15.1875 32.171875 
z
" id="DejaVuSans-101"/>
     </defs>
     <g transform="translate(365.232031 429.994687)scale(0.1 -0.1)">
      <use xlink:href="#DejaVuSans-68"/>
      <use x="77.001953" xlink:href="#DejaVuSans-97"/>
      <use x="138.28125" xlink:href="#DejaVuSans-116"/>
      <use x="177.490234" xlink:href="#DejaVuSans-101"/>
     </g>
    </g>
   </g>
   <g id="matplotlib.axis_2">
    <g id="ytick_1">
     <g id="line2d_15">
      <path clip-path="url(#pc0c568f5bd)" d="M 48.982813 371.161688 
L 705.382813 371.161688 
" style="fill:none;stroke:#808080;stroke-linecap:square;stroke-opacity:0.2;"/>
     </g>
     <g id="line2d_16">
      <defs>
       <path d="M 0 0 
L -3.5 0 
" id="m6e0a9b0b97" style="stroke:#000000;stroke-width:0.8;"/>
      </defs>
      <g>
       <use style="stroke:#000000;stroke-width:0.8;" x="48.982813" xlink:href="#m6e0a9b0b97" y="371.161688"/>
      </g>
     </g>
     <g id="text_9">
      <!-- −60 -->
      <defs>
       <path d="M 10.59375 35.5 
L 73.1875 35.5 
L 73.1875 27.203125 
L 10.59375 27.203125 
z
" id="DejaVuSans-8722"/>
       <path d="M 33.015625 40.375 
Q 26.375 40.375 22.484375 35.828125 
Q 18.609375 31.296875 18.609375 23.390625 
Q 18.609375 15.53125 22.484375 10.953125 
Q 26.375 6.390625 33.015625 6.390625 
Q 39.65625 6.390625 43.53125 10.953125 
Q 47.40625 15.53125 47.40625 23.390625 
Q 47.40625 31.296875 43.53125 35.828125 
Q 39.65625 40.375 33.015625 40.375 
z
M 52.59375 71.296875 
L 52.59375 62.3125 
Q 48.875 64.0625 45.09375 64.984375 
Q 41.3125 65.921875 37.59375 65.921875 
Q 27.828125 65.921875 22.671875 59.328125 
Q 17.53125 52.734375 16.796875 39.40625 
Q 19.671875 43.65625 24.015625 45.921875 
Q 28.375 48.1875 33.59375 48.1875 
Q 44.578125 48.1875 50.953125 41.515625 
Q 57.328125 34.859375 57.328125 23.390625 
Q 57.328125 12.15625 50.6875 5.359375 
Q 44.046875 -1.421875 33.015625 -1.421875 
Q 20.359375 -1.421875 13.671875 8.265625 
Q 6.984375 17.96875 6.984375 36.375 
Q 6.984375 53.65625 15.1875 63.9375 
Q 23.390625 74.21875 37.203125 74.21875 
Q 40.921875 74.21875 44.703125 73.484375 
Q 48.484375 72.75 52.59375 71.296875 
z
" id="DejaVuSans-54"/>
      </defs>
      <g transform="translate(20.878125 374.960907)scale(0.1 -0.1)">
       <use xlink:href="#DejaVuSans-8722"/>
       <use x="83.789062" xlink:href="#DejaVuSans-54"/>
       <use x="147.412109" xlink:href="#DejaVuSans-48"/>
      </g>
     </g>
    </g>
    <g id="ytick_2">
     <g id="line2d_17">
      <path clip-path="url(#pc0c568f5bd)" d="M 48.982813 326.791746 
L 705.382813 326.791746 
" style="fill:none;stroke:#808080;stroke-linecap:square;stroke-opacity:0.2;"/>
     </g>
     <g id="line2d_18">
      <g>
       <use style="stroke:#000000;stroke-width:0.8;" x="48.982813" xlink:href="#m6e0a9b0b97" y="326.791746"/>
      </g>
     </g>
     <g id="text_10">
      <!-- −50 -->
      <g transform="translate(20.878125 330.590965)scale(0.1 -0.1)">
       <use xlink:href="#DejaVuSans-8722"/>
       <use x="83.789062" xlink:href="#DejaVuSans-53"/>
       <use x="147.412109" xlink:href="#DejaVuSans-48"/>
      </g>
     </g>
    </g>
    <g id="ytick_3">
     <g id="line2d_19">
      <path clip-path="url(#pc0c568f5bd)" d="M 48.982813 282.421805 
L 705.382813 282.421805 
" style="fill:none;stroke:#808080;stroke-linecap:square;stroke-opacity:0.2;"/>
     </g>
     <g id="line2d_20">
      <g>
       <use style="stroke:#000000;stroke-width:0.8;" x="48.982813" xlink:href="#m6e0a9b0b97" y="282.421805"/>
      </g>
     </g>
     <g id="text_11">
      <!-- −40 -->
      <g transform="translate(20.878125 286.221024)scale(0.1 -0.1)">
       <use xlink:href="#DejaVuSans-8722"/>
       <use x="83.789062" xlink:href="#DejaVuSans-52"/>
       <use x="147.412109" xlink:href="#DejaVuSans-48"/>
      </g>
     </g>
    </g>
    <g id="ytick_4">
     <g id="line2d_21">
      <path clip-path="url(#pc0c568f5bd)" d="M 48.982813 238.051863 
L 705.382813 238.051863 
" style="fill:none;stroke:#808080;stroke-linecap:square;stroke-opacity:0.2;"/>
     </g>
     <g id="line2d_22">
      <g>
       <use style="stroke:#000000;stroke-width:0.8;" x="48.982813" xlink:href="#m6e0a9b0b97" y="238.051863"/>
      </g>
     </g>
     <g id="text_12">
      <!-- −30 -->
      <g transform="translate(20.878125 241.851082)scale(0.1 -0.1)">
       <use xlink:href="#DejaVuSans-8722"/>
       <use x="83.789062" xlink:href="#DejaVuSans-51"/>
       <use x="147.412109" xlink:href="#DejaVuSans-48"/>
      </g>
     </g>
    </g>
    <g id="ytick_5">
     <g id="line2d_23">
      <path clip-path="url(#pc0c568f5bd)" d="M 48.982813 193.681922 
L 705.382813 193.681922 
" style="fill:none;stroke:#808080;stroke-linecap:square;stroke-opacity:0.2;"/>
     </g>
     <g id="line2d_24">
      <g>
       <use style="stroke:#000000;stroke-width:0.8;" x="48.982813" xlink:href="#m6e0a9b0b97" y="193.681922"/>
      </g>
     </g>
     <g id="text_13">
      <!-- −20 -->
      <g transform="translate(20.878125 197.48114)scale(0.1 -0.1)">
       <use xlink:href="#DejaVuSans-8722"/>
       <use x="83.789062" xlink:href="#DejaVuSans-50"/>
       <use x="147.412109" xlink:href="#DejaVuSans-48"/>
      </g>
     </g>
    </g>
    <g id="ytick_6">
     <g id="line2d_25">
      <path clip-path="url(#pc0c568f5bd)" d="M 48.982813 149.31198 
L 705.382813 149.31198 
" style="fill:none;stroke:#808080;stroke-linecap:square;stroke-opacity:0.2;"/>
     </g>
     <g id="line2d_26">
      <g>
       <use style="stroke:#000000;stroke-width:0.8;" x="48.982813" xlink:href="#m6e0a9b0b97" y="149.31198"/>
      </g>
     </g>
     <g id="text_14">
      <!-- −10 -->
      <g transform="translate(20.878125 153.111199)scale(0.1 -0.1)">
       <use xlink:href="#DejaVuSans-8722"/>
       <use x="83.789062" xlink:href="#DejaVuSans-49"/>
       <use x="147.412109" xlink:href="#DejaVuSans-48"/>
      </g>
     </g>
    </g>
    <g id="ytick_7">
     <g id="line2d_27">
      <path clip-path="url(#pc0c568f5bd)" d="M 48.982813 104.942038 
L 705.382813 104.942038 
" style="fill:none;stroke:#808080;stroke-linecap:square;stroke-opacity:0.2;"/>
     </g>
     <g id="line2d_28">
      <g>
       <use style="stroke:#000000;stroke-width:0.8;" x="48.982813" xlink:href="#m6e0a9b0b97" y="104.942038"/>
      </g>
     </g>
     <g id="text_15">
      <!-- 0 -->
      <g transform="translate(35.620313 108.741257)scale(0.1 -0.1)">
       <use xlink:href="#DejaVuSans-48"/>
      </g>
     </g>
    </g>
    <g id="ytick_8">
     <g id="line2d_29">
      <path clip-path="url(#pc0c568f5bd)" d="M 48.982813 60.572097 
L 705.382813 60.572097 
" style="fill:none;stroke:#808080;stroke-linecap:square;stroke-opacity:0.2;"/>
     </g>
     <g id="line2d_30">
      <g>
       <use style="stroke:#000000;stroke-width:0.8;" x="48.982813" xlink:href="#m6e0a9b0b97" y="60.572097"/>
      </g>
     </g>
     <g id="text_16">
      <!-- 10 -->
      <g transform="translate(29.257813 64.371316)scale(0.1 -0.1)">
       <use xlink:href="#DejaVuSans-49"/>
       <use x="63.623047" xlink:href="#DejaVuSans-48"/>
      </g>
     </g>
    </g>
    <g id="text_17">
     <!-- Retail and Recreation Mobility -->
     <defs>
      <path d="M 44.390625 34.1875 
Q 47.5625 33.109375 50.5625 29.59375 
Q 53.5625 26.078125 56.59375 19.921875 
L 66.609375 0 
L 56 0 
L 46.6875 18.703125 
Q 43.0625 26.03125 39.671875 28.421875 
Q 36.28125 30.8125 30.421875 30.8125 
L 19.671875 30.8125 
L 19.671875 0 
L 9.8125 0 
L 9.8125 72.90625 
L 32.078125 72.90625 
Q 44.578125 72.90625 50.734375 67.671875 
Q 56.890625 62.453125 56.890625 51.90625 
Q 56.890625 45.015625 53.6875 40.46875 
Q 50.484375 35.9375 44.390625 34.1875 
z
M 19.671875 64.796875 
L 19.671875 38.921875 
L 32.078125 38.921875 
Q 39.203125 38.921875 42.84375 42.21875 
Q 46.484375 45.515625 46.484375 51.90625 
Q 46.484375 58.296875 42.84375 61.546875 
Q 39.203125 64.796875 32.078125 64.796875 
z
" id="DejaVuSans-82"/>
      <path d="M 9.421875 54.6875 
L 18.40625 54.6875 
L 18.40625 0 
L 9.421875 0 
z
M 9.421875 75.984375 
L 18.40625 75.984375 
L 18.40625 64.59375 
L 9.421875 64.59375 
z
" id="DejaVuSans-105"/>
      <path d="M 9.421875 75.984375 
L 18.40625 75.984375 
L 18.40625 0 
L 9.421875 0 
z
" id="DejaVuSans-108"/>
      <path id="DejaVuSans-32"/>
      <path d="M 54.890625 33.015625 
L 54.890625 0 
L 45.90625 0 
L 45.90625 32.71875 
Q 45.90625 40.484375 42.875 44.328125 
Q 39.84375 48.1875 33.796875 48.1875 
Q 26.515625 48.1875 22.3125 43.546875 
Q 18.109375 38.921875 18.109375 30.90625 
L 18.109375 0 
L 9.078125 0 
L 9.078125 54.6875 
L 18.109375 54.6875 
L 18.109375 46.1875 
Q 21.34375 51.125 25.703125 53.5625 
Q 30.078125 56 35.796875 56 
Q 45.21875 56 50.046875 50.171875 
Q 54.890625 44.34375 54.890625 33.015625 
z
" id="DejaVuSans-110"/>
      <path d="M 45.40625 46.390625 
L 45.40625 75.984375 
L 54.390625 75.984375 
L 54.390625 0 
L 45.40625 0 
L 45.40625 8.203125 
Q 42.578125 3.328125 38.25 0.953125 
Q 33.9375 -1.421875 27.875 -1.421875 
Q 17.96875 -1.421875 11.734375 6.484375 
Q 5.515625 14.40625 5.515625 27.296875 
Q 5.515625 40.1875 11.734375 48.09375 
Q 17.96875 56 27.875 56 
Q 33.9375 56 38.25 53.625 
Q 42.578125 51.265625 45.40625 46.390625 
z
M 14.796875 27.296875 
Q 14.796875 17.390625 18.875 11.75 
Q 22.953125 6.109375 30.078125 6.109375 
Q 37.203125 6.109375 41.296875 11.75 
Q 45.40625 17.390625 45.40625 27.296875 
Q 45.40625 37.203125 41.296875 42.84375 
Q 37.203125 48.484375 30.078125 48.484375 
Q 22.953125 48.484375 18.875 42.84375 
Q 14.796875 37.203125 14.796875 27.296875 
z
" id="DejaVuSans-100"/>
      <path d="M 48.78125 52.59375 
L 48.78125 44.1875 
Q 44.96875 46.296875 41.140625 47.34375 
Q 37.3125 48.390625 33.40625 48.390625 
Q 24.65625 48.390625 19.8125 42.84375 
Q 14.984375 37.3125 14.984375 27.296875 
Q 14.984375 17.28125 19.8125 11.734375 
Q 24.65625 6.203125 33.40625 6.203125 
Q 37.3125 6.203125 41.140625 7.25 
Q 44.96875 8.296875 48.78125 10.40625 
L 48.78125 2.09375 
Q 45.015625 0.34375 40.984375 -0.53125 
Q 36.96875 -1.421875 32.421875 -1.421875 
Q 20.0625 -1.421875 12.78125 6.34375 
Q 5.515625 14.109375 5.515625 27.296875 
Q 5.515625 40.671875 12.859375 48.328125 
Q 20.21875 56 33.015625 56 
Q 37.15625 56 41.109375 55.140625 
Q 45.0625 54.296875 48.78125 52.59375 
z
" id="DejaVuSans-99"/>
      <path d="M 41.109375 46.296875 
Q 39.59375 47.171875 37.8125 47.578125 
Q 36.03125 48 33.890625 48 
Q 26.265625 48 22.1875 43.046875 
Q 18.109375 38.09375 18.109375 28.8125 
L 18.109375 0 
L 9.078125 0 
L 9.078125 54.6875 
L 18.109375 54.6875 
L 18.109375 46.1875 
Q 20.953125 51.171875 25.484375 53.578125 
Q 30.03125 56 36.53125 56 
Q 37.453125 56 38.578125 55.875 
Q 39.703125 55.765625 41.0625 55.515625 
z
" id="DejaVuSans-114"/>
      <path d="M 30.609375 48.390625 
Q 23.390625 48.390625 19.1875 42.75 
Q 14.984375 37.109375 14.984375 27.296875 
Q 14.984375 17.484375 19.15625 11.84375 
Q 23.34375 6.203125 30.609375 6.203125 
Q 37.796875 6.203125 41.984375 11.859375 
Q 46.1875 17.53125 46.1875 27.296875 
Q 46.1875 37.015625 41.984375 42.703125 
Q 37.796875 48.390625 30.609375 48.390625 
z
M 30.609375 56 
Q 42.328125 56 49.015625 48.375 
Q 55.71875 40.765625 55.71875 27.296875 
Q 55.71875 13.875 49.015625 6.21875 
Q 42.328125 -1.421875 30.609375 -1.421875 
Q 18.84375 -1.421875 12.171875 6.21875 
Q 5.515625 13.875 5.515625 27.296875 
Q 5.515625 40.765625 12.171875 48.375 
Q 18.84375 56 30.609375 56 
z
" id="DejaVuSans-111"/>
      <path d="M 9.8125 72.90625 
L 24.515625 72.90625 
L 43.109375 23.296875 
L 61.8125 72.90625 
L 76.515625 72.90625 
L 76.515625 0 
L 66.890625 0 
L 66.890625 64.015625 
L 48.09375 14.015625 
L 38.1875 14.015625 
L 19.390625 64.015625 
L 19.390625 0 
L 9.8125 0 
z
" id="DejaVuSans-77"/>
      <path d="M 48.6875 27.296875 
Q 48.6875 37.203125 44.609375 42.84375 
Q 40.53125 48.484375 33.40625 48.484375 
Q 26.265625 48.484375 22.1875 42.84375 
Q 18.109375 37.203125 18.109375 27.296875 
Q 18.109375 17.390625 22.1875 11.75 
Q 26.265625 6.109375 33.40625 6.109375 
Q 40.53125 6.109375 44.609375 11.75 
Q 48.6875 17.390625 48.6875 27.296875 
z
M 18.109375 46.390625 
Q 20.953125 51.265625 25.265625 53.625 
Q 29.59375 56 35.59375 56 
Q 45.5625 56 51.78125 48.09375 
Q 58.015625 40.1875 58.015625 27.296875 
Q 58.015625 14.40625 51.78125 6.484375 
Q 45.5625 -1.421875 35.59375 -1.421875 
Q 29.59375 -1.421875 25.265625 0.953125 
Q 20.953125 3.328125 18.109375 8.203125 
L 18.109375 0 
L 9.078125 0 
L 9.078125 75.984375 
L 18.109375 75.984375 
z
" id="DejaVuSans-98"/>
      <path d="M 32.171875 -5.078125 
Q 28.375 -14.84375 24.75 -17.8125 
Q 21.140625 -20.796875 15.09375 -20.796875 
L 7.90625 -20.796875 
L 7.90625 -13.28125 
L 13.1875 -13.28125 
Q 16.890625 -13.28125 18.9375 -11.515625 
Q 21 -9.765625 23.484375 -3.21875 
L 25.09375 0.875 
L 2.984375 54.6875 
L 12.5 54.6875 
L 29.59375 11.921875 
L 46.6875 54.6875 
L 56.203125 54.6875 
z
" id="DejaVuSans-121"/>
     </defs>
     <g transform="translate(14.798438 286.690781)rotate(-90)scale(0.1 -0.1)">
      <use xlink:href="#DejaVuSans-82"/>
      <use x="64.982422" xlink:href="#DejaVuSans-101"/>
      <use x="126.505859" xlink:href="#DejaVuSans-116"/>
      <use x="165.714844" xlink:href="#DejaVuSans-97"/>
      <use x="226.994141" xlink:href="#DejaVuSans-105"/>
      <use x="254.777344" xlink:href="#DejaVuSans-108"/>
      <use x="282.560547" xlink:href="#DejaVuSans-32"/>
      <use x="314.347656" xlink:href="#DejaVuSans-97"/>
      <use x="375.626953" xlink:href="#DejaVuSans-110"/>
      <use x="439.005859" xlink:href="#DejaVuSans-100"/>
      <use x="502.482422" xlink:href="#DejaVuSans-32"/>
      <use x="534.269531" xlink:href="#DejaVuSans-82"/>
      <use x="599.251953" xlink:href="#DejaVuSans-101"/>
      <use x="660.775391" xlink:href="#DejaVuSans-99"/>
      <use x="715.755859" xlink:href="#DejaVuSans-114"/>
      <use x="754.619141" xlink:href="#DejaVuSans-101"/>
      <use x="816.142578" xlink:href="#DejaVuSans-97"/>
      <use x="877.421875" xlink:href="#DejaVuSans-116"/>
      <use x="916.630859" xlink:href="#DejaVuSans-105"/>
      <use x="944.414062" xlink:href="#DejaVuSans-111"/>
      <use x="1005.595703" xlink:href="#DejaVuSans-110"/>
      <use x="1068.974609" xlink:href="#DejaVuSans-32"/>
      <use x="1100.761719" xlink:href="#DejaVuSans-77"/>
      <use x="1187.041016" xlink:href="#DejaVuSans-111"/>
      <use x="1248.222656" xlink:href="#DejaVuSans-98"/>
      <use x="1311.699219" xlink:href="#DejaVuSans-105"/>
      <use x="1339.482422" xlink:href="#DejaVuSans-108"/>
      <use x="1367.265625" xlink:href="#DejaVuSans-105"/>
      <use x="1395.048828" xlink:href="#DejaVuSans-116"/>
      <use x="1434.257812" xlink:href="#DejaVuSans-121"/>
     </g>
    </g>
   </g>
   <g id="line2d_31">
    <defs>
     <path d="M 0 1.5 
C 0.397805 1.5 0.77937 1.341951 1.06066 1.06066 
C 1.341951 0.77937 1.5 0.397805 1.5 0 
C 1.5 -0.397805 1.341951 -0.77937 1.06066 -1.06066 
C 0.77937 -1.341951 0.397805 -1.5 0 -1.5 
C -0.397805 -1.5 -0.77937 -1.341951 -1.06066 -1.06066 
C -1.341951 -0.77937 -1.5 -0.397805 -1.5 0 
C -1.5 0.397805 -1.341951 0.77937 -1.06066 1.06066 
C -0.77937 1.341951 -0.397805 1.5 0 1.5 
z
" id="m189bec9ea3" style="stroke:#000000;"/>
    </defs>
    <g clip-path="url(#pc0c568f5bd)">
     <use style="stroke:#000000;" x="78.819176" xlink:href="#m189bec9ea3" y="78.320073"/>
     <use style="stroke:#000000;" x="85.923072" xlink:href="#m189bec9ea3" y="73.883079"/>
     <use style="stroke:#000000;" x="93.026968" xlink:href="#m189bec9ea3" y="78.320073"/>
     <use style="stroke:#000000;" x="100.130864" xlink:href="#m189bec9ea3" y="104.942038"/>
     <use style="stroke:#000000;" x="107.234761" xlink:href="#m189bec9ea3" y="96.06805"/>
     <use style="stroke:#000000;" x="114.338657" xlink:href="#m189bec9ea3" y="100.505044"/>
     <use style="stroke:#000000;" x="121.442553" xlink:href="#m189bec9ea3" y="96.06805"/>
     <use style="stroke:#000000;" x="128.546449" xlink:href="#m189bec9ea3" y="73.883079"/>
     <use style="stroke:#000000;" x="135.650345" xlink:href="#m189bec9ea3" y="73.883079"/>
     <use style="stroke:#000000;" x="142.754241" xlink:href="#m189bec9ea3" y="96.06805"/>
     <use style="stroke:#000000;" x="149.858137" xlink:href="#m189bec9ea3" y="87.194062"/>
     <use style="stroke:#000000;" x="156.962033" xlink:href="#m189bec9ea3" y="73.883079"/>
     <use style="stroke:#000000;" x="164.065929" xlink:href="#m189bec9ea3" y="69.446085"/>
     <use style="stroke:#000000;" x="171.169825" xlink:href="#m189bec9ea3" y="69.446085"/>
     <use style="stroke:#000000;" x="178.273722" xlink:href="#m189bec9ea3" y="51.698109"/>
     <use style="stroke:#000000;" x="185.377618" xlink:href="#m189bec9ea3" y="47.261114"/>
     <use style="stroke:#000000;" x="192.481514" xlink:href="#m189bec9ea3" y="73.883079"/>
     <use style="stroke:#000000;" x="199.58541" xlink:href="#m189bec9ea3" y="56.135103"/>
     <use style="stroke:#000000;" x="206.689306" xlink:href="#m189bec9ea3" y="69.446085"/>
     <use style="stroke:#000000;" x="213.793202" xlink:href="#m189bec9ea3" y="69.446085"/>
     <use style="stroke:#000000;" x="220.897098" xlink:href="#m189bec9ea3" y="82.757068"/>
     <use style="stroke:#000000;" x="228.000994" xlink:href="#m189bec9ea3" y="60.572097"/>
     <use style="stroke:#000000;" x="235.10489" xlink:href="#m189bec9ea3" y="60.572097"/>
     <use style="stroke:#000000;" x="242.208787" xlink:href="#m189bec9ea3" y="78.320073"/>
     <use style="stroke:#000000;" x="249.312683" xlink:href="#m189bec9ea3" y="78.320073"/>
     <use style="stroke:#000000;" x="256.416579" xlink:href="#m189bec9ea3" y="69.446085"/>
     <use style="stroke:#000000;" x="263.520475" xlink:href="#m189bec9ea3" y="78.320073"/>
     <use style="stroke:#000000;" x="270.624371" xlink:href="#m189bec9ea3" y="96.06805"/>
     <use style="stroke:#000000;" x="277.728267" xlink:href="#m189bec9ea3" y="131.564003"/>
     <use style="stroke:#000000;" x="284.832163" xlink:href="#m189bec9ea3" y="144.874986"/>
     <use style="stroke:#000000;" x="291.936059" xlink:href="#m189bec9ea3" y="140.437992"/>
     <use style="stroke:#000000;" x="299.039955" xlink:href="#m189bec9ea3" y="184.807933"/>
     <use style="stroke:#000000;" x="306.143851" xlink:href="#m189bec9ea3" y="211.429898"/>
     <use style="stroke:#000000;" x="313.247748" xlink:href="#m189bec9ea3" y="229.177875"/>
     <use style="stroke:#000000;" x="320.351644" xlink:href="#m189bec9ea3" y="246.925852"/>
     <use style="stroke:#000000;" x="327.45554" xlink:href="#m189bec9ea3" y="282.421805"/>
     <use style="stroke:#000000;" x="334.559436" xlink:href="#m189bec9ea3" y="300.169781"/>
     <use style="stroke:#000000;" x="341.663332" xlink:href="#m189bec9ea3" y="273.547816"/>
     <use style="stroke:#000000;" x="348.767228" xlink:href="#m189bec9ea3" y="277.984811"/>
     <use style="stroke:#000000;" x="355.871124" xlink:href="#m189bec9ea3" y="282.421805"/>
     <use style="stroke:#000000;" x="362.97502" xlink:href="#m189bec9ea3" y="282.421805"/>
     <use style="stroke:#000000;" x="370.078916" xlink:href="#m189bec9ea3" y="291.295793"/>
     <use style="stroke:#000000;" x="377.182812" xlink:href="#m189bec9ea3" y="317.917758"/>
     <use style="stroke:#000000;" x="384.286709" xlink:href="#m189bec9ea3" y="313.480764"/>
     <use style="stroke:#000000;" x="391.390605" xlink:href="#m189bec9ea3" y="282.421805"/>
     <use style="stroke:#000000;" x="398.494501" xlink:href="#m189bec9ea3" y="282.421805"/>
     <use style="stroke:#000000;" x="405.598397" xlink:href="#m189bec9ea3" y="269.110822"/>
     <use style="stroke:#000000;" x="412.702293" xlink:href="#m189bec9ea3" y="282.421805"/>
     <use style="stroke:#000000;" x="419.806189" xlink:href="#m189bec9ea3" y="291.295793"/>
     <use style="stroke:#000000;" x="426.910085" xlink:href="#m189bec9ea3" y="317.917758"/>
     <use style="stroke:#000000;" x="434.013981" xlink:href="#m189bec9ea3" y="322.354752"/>
     <use style="stroke:#000000;" x="441.117877" xlink:href="#m189bec9ea3" y="291.295793"/>
     <use style="stroke:#000000;" x="448.221774" xlink:href="#m189bec9ea3" y="291.295793"/>
     <use style="stroke:#000000;" x="455.32567" xlink:href="#m189bec9ea3" y="291.295793"/>
     <use style="stroke:#000000;" x="462.429566" xlink:href="#m189bec9ea3" y="295.732787"/>
     <use style="stroke:#000000;" x="469.533462" xlink:href="#m189bec9ea3" y="295.732787"/>
     <use style="stroke:#000000;" x="476.637358" xlink:href="#m189bec9ea3" y="304.606776"/>
     <use style="stroke:#000000;" x="483.741254" xlink:href="#m189bec9ea3" y="384.47267"/>
     <use style="stroke:#000000;" x="490.84515" xlink:href="#m189bec9ea3" y="304.606776"/>
     <use style="stroke:#000000;" x="497.949046" xlink:href="#m189bec9ea3" y="282.421805"/>
     <use style="stroke:#000000;" x="505.052942" xlink:href="#m189bec9ea3" y="264.673828"/>
     <use style="stroke:#000000;" x="512.156838" xlink:href="#m189bec9ea3" y="277.984811"/>
     <use style="stroke:#000000;" x="519.260735" xlink:href="#m189bec9ea3" y="291.295793"/>
     <use style="stroke:#000000;" x="526.364631" xlink:href="#m189bec9ea3" y="304.606776"/>
     <use style="stroke:#000000;" x="533.468527" xlink:href="#m189bec9ea3" y="304.606776"/>
     <use style="stroke:#000000;" x="540.572423" xlink:href="#m189bec9ea3" y="277.984811"/>
     <use style="stroke:#000000;" x="547.676319" xlink:href="#m189bec9ea3" y="273.547816"/>
     <use style="stroke:#000000;" x="554.780215" xlink:href="#m189bec9ea3" y="273.547816"/>
     <use style="stroke:#000000;" x="561.884111" xlink:href="#m189bec9ea3" y="282.421805"/>
     <use style="stroke:#000000;" x="568.988007" xlink:href="#m189bec9ea3" y="282.421805"/>
     <use style="stroke:#000000;" x="576.091903" xlink:href="#m189bec9ea3" y="286.858799"/>
     <use style="stroke:#000000;" x="583.1958" xlink:href="#m189bec9ea3" y="291.295793"/>
     <use style="stroke:#000000;" x="590.299696" xlink:href="#m189bec9ea3" y="260.236834"/>
     <use style="stroke:#000000;" x="597.403592" xlink:href="#m189bec9ea3" y="255.79984"/>
     <use style="stroke:#000000;" x="604.507488" xlink:href="#m189bec9ea3" y="255.79984"/>
     <use style="stroke:#000000;" x="611.611384" xlink:href="#m189bec9ea3" y="255.79984"/>
     <use style="stroke:#000000;" x="618.71528" xlink:href="#m189bec9ea3" y="246.925852"/>
     <use style="stroke:#000000;" x="625.819176" xlink:href="#m189bec9ea3" y="255.79984"/>
     <use style="stroke:#000000;" x="632.923072" xlink:href="#m189bec9ea3" y="255.79984"/>
     <use style="stroke:#000000;" x="640.026968" xlink:href="#m189bec9ea3" y="233.614869"/>
     <use style="stroke:#000000;" x="647.130864" xlink:href="#m189bec9ea3" y="229.177875"/>
     <use style="stroke:#000000;" x="654.234761" xlink:href="#m189bec9ea3" y="233.614869"/>
     <use style="stroke:#000000;" x="661.338657" xlink:href="#m189bec9ea3" y="233.614869"/>
     <use style="stroke:#000000;" x="668.442553" xlink:href="#m189bec9ea3" y="246.925852"/>
     <use style="stroke:#000000;" x="675.546449" xlink:href="#m189bec9ea3" y="238.051863"/>
    </g>
   </g>
   <g id="line2d_32">
    <path clip-path="url(#pc0c568f5bd)" d="M 78.819176 85.735635 
L 85.923072 95.083514 
L 93.026968 80.498435 
L 100.130864 81.911169 
L 107.234761 81.048918 
L 114.338657 86.88992 
L 121.442553 89.56766 
L 128.546449 91.214874 
L 135.650345 95.899194 
L 142.754241 76.650556 
L 149.858137 73.399731 
L 156.962033 67.875531 
L 164.065929 69.054585 
L 171.169825 71.732325 
L 178.273722 73.382139 
L 185.377618 78.069059 
L 192.481514 58.823021 
L 199.58541 58.828557 
L 206.689306 56.560718 
L 213.793202 60.996132 
L 220.897098 66.930255 
L 228.000994 71.833853 
L 235.10489 82.12099 
L 242.208787 68.475169 
L 249.312683 70.827162 
L 256.416579 75.525277 
L 263.520475 86.926645 
L 270.624371 99.8267 
L 277.728267 125.518403 
L 284.832163 154.247211 
L 291.936059 159.043079 
L 299.039955 179.836761 
L 306.143851 198.357067 
L 313.247748 223.580627 
L 320.351644 250.302874 
L 327.45554 275.994595 
L 334.559436 288.361854 
L 341.663332 276.796155 
L 348.767228 281.22827 
L 355.871124 279.427689 
L 362.97502 284.330362 
L 370.078916 290.720376 
L 377.182812 296.079865 
L 384.286709 304.47646 
L 391.390605 288.940052 
L 398.494501 289.401458 
L 405.598397 287.589489 
L 412.702293 292.480773 
L 419.806189 298.870745 
L 426.910085 304.230191 
L 434.013981 312.626742 
L 441.117877 297.090335 
L 448.221774 297.551742 
L 455.32567 295.739773 
L 462.429566 300.631058 
L 469.533462 307.021029 
L 476.637358 312.380475 
L 483.741254 317.263216 
L 490.84515 298.212999 
L 497.949046 295.160594 
L 505.052942 289.834815 
L 512.156838 291.212289 
L 519.260735 294.08845 
L 526.364631 295.934086 
L 533.468527 300.816826 
L 540.572423 281.766292 
L 547.676319 278.713572 
L 554.780215 273.387476 
L 561.884111 274.191398 
L 568.988007 276.494008 
L 576.091903 277.766091 
L 583.1958 282.075281 
L 590.299696 262.451512 
L 597.403592 258.825556 
L 604.507488 252.926225 
L 611.611384 253.730148 
L 618.71528 256.032757 
L 625.819176 257.304841 
L 632.923072 261.614031 
L 640.026968 241.990261 
L 647.130864 238.364306 
L 654.234761 232.464975 
L 661.338657 233.268898 
L 668.442553 235.571507 
L 675.546449 236.843591 
" style="fill:none;stroke:#0072b2;stroke-linecap:square;stroke-width:1.5;"/>
   </g>
   <g id="line2d_33">
    <path clip-path="url(#pc0c568f5bd)" d="M 78.819176 80.139732 
L 85.923072 82.255386 
L 93.026968 84.37104 
L 100.130864 86.486694 
L 107.234761 88.600738 
L 114.338657 90.714782 
L 121.442553 88.166877 
L 128.546449 85.618972 
L 135.650345 83.071067 
L 142.754241 80.523162 
L 149.858137 77.975257 
L 156.962033 75.427352 
L 164.065929 72.879447 
L 171.169825 70.331542 
L 178.273722 67.786237 
L 185.377618 65.240932 
L 192.481514 62.695627 
L 199.58541 63.404083 
L 206.689306 64.112539 
L 213.793202 64.820994 
L 220.897098 65.529472 
L 228.000994 66.23795 
L 235.10489 69.292862 
L 242.208787 72.347775 
L 249.312683 75.402688 
L 256.416579 83.077097 
L 263.520475 90.751507 
L 270.624371 98.425917 
L 277.728267 119.9225 
L 284.832163 141.419083 
L 291.936059 162.915684 
L 299.039955 184.412286 
L 306.143851 205.908888 
L 313.247748 227.405489 
L 320.351644 248.902091 
L 327.45554 270.398692 
L 334.559436 275.533726 
L 341.663332 280.668761 
L 348.767228 285.803795 
L 355.871124 286.979509 
L 362.97502 288.155224 
L 370.078916 289.319593 
L 377.182812 290.483963 
L 384.286709 291.648332 
L 391.390605 292.812658 
L 398.494501 293.976984 
L 405.598397 295.141309 
L 412.702293 296.305635 
L 419.806189 297.469962 
L 426.910085 298.634288 
L 434.013981 299.798614 
L 441.117877 300.962941 
L 448.221774 302.127267 
L 455.32567 303.291593 
L 462.429566 304.45592 
L 469.533462 305.620246 
L 476.637358 306.784572 
L 483.741254 304.435088 
L 490.84515 302.085604 
L 497.949046 299.73612 
L 505.052942 297.386636 
L 512.156838 295.037151 
L 519.260735 292.687667 
L 526.364631 290.338183 
L 533.468527 287.988699 
L 540.572423 285.638898 
L 547.676319 283.289097 
L 554.780215 280.939296 
L 561.884111 278.01626 
L 568.988007 275.093225 
L 576.091903 272.170189 
L 583.1958 269.247153 
L 590.299696 266.324117 
L 597.403592 263.401082 
L 604.507488 260.478046 
L 611.611384 257.55501 
L 618.71528 254.631974 
L 625.819176 251.708939 
L 632.923072 248.785903 
L 640.026968 245.862867 
L 647.130864 242.939831 
L 654.234761 240.016795 
L 661.338657 237.09376 
L 668.442553 234.170724 
L 675.546449 231.247688 
" style="fill:none;stroke:#0000ff;stroke-linecap:square;stroke-width:1.5;"/>
   </g>
   <g id="line2d_34">
    <path clip-path="url(#pc0c568f5bd)" d="M 114.338657 401.718125 
L 114.338657 22.318125 
" style="fill:none;stroke:#0000ff;stroke-dasharray:5.55,2.4;stroke-dashoffset:0;stroke-width:1.5;"/>
   </g>
   <g id="line2d_35">
    <path clip-path="url(#pc0c568f5bd)" d="M 192.481514 401.718125 
L 192.481514 22.318125 
" style="fill:none;stroke:#0000ff;stroke-dasharray:5.55,2.4;stroke-dashoffset:0;stroke-width:1.5;"/>
   </g>
   <g id="line2d_36">
    <path clip-path="url(#pc0c568f5bd)" d="M 228.000994 401.718125 
L 228.000994 22.318125 
" style="fill:none;stroke:#0000ff;stroke-dasharray:5.55,2.4;stroke-dashoffset:0;stroke-width:1.5;"/>
   </g>
   <g id="line2d_37">
    <path clip-path="url(#pc0c568f5bd)" d="M 249.312683 401.718125 
L 249.312683 22.318125 
" style="fill:none;stroke:#0000ff;stroke-dasharray:5.55,2.4;stroke-dashoffset:0;stroke-width:1.5;"/>
   </g>
   <g id="line2d_38">
    <path clip-path="url(#pc0c568f5bd)" d="M 270.624371 401.718125 
L 270.624371 22.318125 
" style="fill:none;stroke:#0000ff;stroke-dasharray:5.55,2.4;stroke-dashoffset:0;stroke-width:1.5;"/>
   </g>
   <g id="line2d_39">
    <path clip-path="url(#pc0c568f5bd)" d="M 327.45554 401.718125 
L 327.45554 22.318125 
" style="fill:none;stroke:#0000ff;stroke-dasharray:5.55,2.4;stroke-dashoffset:0;stroke-width:1.5;"/>
   </g>
   <g id="line2d_40">
    <path clip-path="url(#pc0c568f5bd)" d="M 348.767228 401.718125 
L 348.767228 22.318125 
" style="fill:none;stroke:#0000ff;stroke-dasharray:5.55,2.4;stroke-dashoffset:0;stroke-width:1.5;"/>
   </g>
   <g id="line2d_41">
    <path clip-path="url(#pc0c568f5bd)" d="M 476.637358 401.718125 
L 476.637358 22.318125 
" style="fill:none;stroke:#0000ff;stroke-dasharray:5.55,2.4;stroke-dashoffset:0;stroke-width:1.5;"/>
   </g>
   <g id="line2d_42">
    <path clip-path="url(#pc0c568f5bd)" d="M 554.780215 401.718125 
L 554.780215 22.318125 
" style="fill:none;stroke:#0000ff;stroke-dasharray:5.55,2.4;stroke-dashoffset:0;stroke-width:1.5;"/>
   </g>
   <g id="line2d_43">
    <path clip-path="url(#pc0c568f5bd)" d="M 270.624371 401.718125 
L 270.624371 22.318125 
" style="fill:none;stroke:#ff0000;stroke-linecap:square;stroke-width:3;"/>
   </g>
   <g id="patch_3">
    <path d="M 48.982813 401.718125 
L 48.982813 22.318125 
" style="fill:none;stroke:#000000;stroke-linecap:square;stroke-linejoin:miter;stroke-width:0.8;"/>
   </g>
   <g id="patch_4">
    <path d="M 705.382813 401.718125 
L 705.382813 22.318125 
" style="fill:none;stroke:#000000;stroke-linecap:square;stroke-linejoin:miter;stroke-width:0.8;"/>
   </g>
   <g id="patch_5">
    <path d="M 48.982812 401.718125 
L 705.382812 401.718125 
" style="fill:none;stroke:#000000;stroke-linecap:square;stroke-linejoin:miter;stroke-width:0.8;"/>
   </g>
   <g id="patch_6">
    <path d="M 48.982812 22.318125 
L 705.382812 22.318125 
" style="fill:none;stroke:#000000;stroke-linecap:square;stroke-linejoin:miter;stroke-width:0.8;"/>
   </g>
   <g id="text_18">
    <!-- Retail and Recreation Mobility Graph for United States -->
    <defs>
     <path d="M 59.515625 10.40625 
L 59.515625 29.984375 
L 43.40625 29.984375 
L 43.40625 38.09375 
L 69.28125 38.09375 
L 69.28125 6.78125 
Q 63.578125 2.734375 56.6875 0.65625 
Q 49.8125 -1.421875 42 -1.421875 
Q 24.90625 -1.421875 15.25 8.5625 
Q 5.609375 18.5625 5.609375 36.375 
Q 5.609375 54.25 15.25 64.234375 
Q 24.90625 74.21875 42 74.21875 
Q 49.125 74.21875 55.546875 72.453125 
Q 61.96875 70.703125 67.390625 67.28125 
L 67.390625 56.78125 
Q 61.921875 61.421875 55.765625 63.765625 
Q 49.609375 66.109375 42.828125 66.109375 
Q 29.4375 66.109375 22.71875 58.640625 
Q 16.015625 51.171875 16.015625 36.375 
Q 16.015625 21.625 22.71875 14.15625 
Q 29.4375 6.6875 42.828125 6.6875 
Q 48.046875 6.6875 52.140625 7.59375 
Q 56.25 8.5 59.515625 10.40625 
z
" id="DejaVuSans-71"/>
     <path d="M 18.109375 8.203125 
L 18.109375 -20.796875 
L 9.078125 -20.796875 
L 9.078125 54.6875 
L 18.109375 54.6875 
L 18.109375 46.390625 
Q 20.953125 51.265625 25.265625 53.625 
Q 29.59375 56 35.59375 56 
Q 45.5625 56 51.78125 48.09375 
Q 58.015625 40.1875 58.015625 27.296875 
Q 58.015625 14.40625 51.78125 6.484375 
Q 45.5625 -1.421875 35.59375 -1.421875 
Q 29.59375 -1.421875 25.265625 0.953125 
Q 20.953125 3.328125 18.109375 8.203125 
z
M 48.6875 27.296875 
Q 48.6875 37.203125 44.609375 42.84375 
Q 40.53125 48.484375 33.40625 48.484375 
Q 26.265625 48.484375 22.1875 42.84375 
Q 18.109375 37.203125 18.109375 27.296875 
Q 18.109375 17.390625 22.1875 11.75 
Q 26.265625 6.109375 33.40625 6.109375 
Q 40.53125 6.109375 44.609375 11.75 
Q 48.6875 17.390625 48.6875 27.296875 
z
" id="DejaVuSans-112"/>
     <path d="M 54.890625 33.015625 
L 54.890625 0 
L 45.90625 0 
L 45.90625 32.71875 
Q 45.90625 40.484375 42.875 44.328125 
Q 39.84375 48.1875 33.796875 48.1875 
Q 26.515625 48.1875 22.3125 43.546875 
Q 18.109375 38.921875 18.109375 30.90625 
L 18.109375 0 
L 9.078125 0 
L 9.078125 75.984375 
L 18.109375 75.984375 
L 18.109375 46.1875 
Q 21.34375 51.125 25.703125 53.5625 
Q 30.078125 56 35.796875 56 
Q 45.21875 56 50.046875 50.171875 
Q 54.890625 44.34375 54.890625 33.015625 
z
" id="DejaVuSans-104"/>
     <path d="M 37.109375 75.984375 
L 37.109375 68.5 
L 28.515625 68.5 
Q 23.6875 68.5 21.796875 66.546875 
Q 19.921875 64.59375 19.921875 59.515625 
L 19.921875 54.6875 
L 34.71875 54.6875 
L 34.71875 47.703125 
L 19.921875 47.703125 
L 19.921875 0 
L 10.890625 0 
L 10.890625 47.703125 
L 2.296875 47.703125 
L 2.296875 54.6875 
L 10.890625 54.6875 
L 10.890625 58.5 
Q 10.890625 67.625 15.140625 71.796875 
Q 19.390625 75.984375 28.609375 75.984375 
z
" id="DejaVuSans-102"/>
     <path d="M 8.6875 72.90625 
L 18.609375 72.90625 
L 18.609375 28.609375 
Q 18.609375 16.890625 22.84375 11.734375 
Q 27.09375 6.59375 36.625 6.59375 
Q 46.09375 6.59375 50.34375 11.734375 
Q 54.59375 16.890625 54.59375 28.609375 
L 54.59375 72.90625 
L 64.5 72.90625 
L 64.5 27.390625 
Q 64.5 13.140625 57.4375 5.859375 
Q 50.390625 -1.421875 36.625 -1.421875 
Q 22.796875 -1.421875 15.734375 5.859375 
Q 8.6875 13.140625 8.6875 27.390625 
z
" id="DejaVuSans-85"/>
     <path d="M 53.515625 70.515625 
L 53.515625 60.890625 
Q 47.90625 63.578125 42.921875 64.890625 
Q 37.9375 66.21875 33.296875 66.21875 
Q 25.25 66.21875 20.875 63.09375 
Q 16.5 59.96875 16.5 54.203125 
Q 16.5 49.359375 19.40625 46.890625 
Q 22.3125 44.4375 30.421875 42.921875 
L 36.375 41.703125 
Q 47.40625 39.59375 52.65625 34.296875 
Q 57.90625 29 57.90625 20.125 
Q 57.90625 9.515625 50.796875 4.046875 
Q 43.703125 -1.421875 29.984375 -1.421875 
Q 24.8125 -1.421875 18.96875 -0.25 
Q 13.140625 0.921875 6.890625 3.21875 
L 6.890625 13.375 
Q 12.890625 10.015625 18.65625 8.296875 
Q 24.421875 6.59375 29.984375 6.59375 
Q 38.421875 6.59375 43.015625 9.90625 
Q 47.609375 13.234375 47.609375 19.390625 
Q 47.609375 24.75 44.3125 27.78125 
Q 41.015625 30.8125 33.5 32.328125 
L 27.484375 33.5 
Q 16.453125 35.6875 11.515625 40.375 
Q 6.59375 45.0625 6.59375 53.421875 
Q 6.59375 63.09375 13.40625 68.65625 
Q 20.21875 74.21875 32.171875 74.21875 
Q 37.3125 74.21875 42.625 73.28125 
Q 47.953125 72.359375 53.515625 70.515625 
z
" id="DejaVuSans-83"/>
     <path d="M 44.28125 53.078125 
L 44.28125 44.578125 
Q 40.484375 46.53125 36.375 47.5 
Q 32.28125 48.484375 27.875 48.484375 
Q 21.1875 48.484375 17.84375 46.4375 
Q 14.5 44.390625 14.5 40.28125 
Q 14.5 37.15625 16.890625 35.375 
Q 19.28125 33.59375 26.515625 31.984375 
L 29.59375 31.296875 
Q 39.15625 29.25 43.1875 25.515625 
Q 47.21875 21.78125 47.21875 15.09375 
Q 47.21875 7.46875 41.1875 3.015625 
Q 35.15625 -1.421875 24.609375 -1.421875 
Q 20.21875 -1.421875 15.453125 -0.5625 
Q 10.6875 0.296875 5.421875 2 
L 5.421875 11.28125 
Q 10.40625 8.6875 15.234375 7.390625 
Q 20.0625 6.109375 24.8125 6.109375 
Q 31.15625 6.109375 34.5625 8.28125 
Q 37.984375 10.453125 37.984375 14.40625 
Q 37.984375 18.0625 35.515625 20.015625 
Q 33.0625 21.96875 24.703125 23.78125 
L 21.578125 24.515625 
Q 13.234375 26.265625 9.515625 29.90625 
Q 5.8125 33.546875 5.8125 39.890625 
Q 5.8125 47.609375 11.28125 51.796875 
Q 16.75 56 26.8125 56 
Q 31.78125 56 36.171875 55.265625 
Q 40.578125 54.546875 44.28125 53.078125 
z
" id="DejaVuSans-115"/>
    </defs>
    <g transform="translate(214.5725 16.318125)scale(0.12 -0.12)">
     <use xlink:href="#DejaVuSans-82"/>
     <use x="64.982422" xlink:href="#DejaVuSans-101"/>
     <use x="126.505859" xlink:href="#DejaVuSans-116"/>
     <use x="165.714844" xlink:href="#DejaVuSans-97"/>
     <use x="226.994141" xlink:href="#DejaVuSans-105"/>
     <use x="254.777344" xlink:href="#DejaVuSans-108"/>
     <use x="282.560547" xlink:href="#DejaVuSans-32"/>
     <use x="314.347656" xlink:href="#DejaVuSans-97"/>
     <use x="375.626953" xlink:href="#DejaVuSans-110"/>
     <use x="439.005859" xlink:href="#DejaVuSans-100"/>
     <use x="502.482422" xlink:href="#DejaVuSans-32"/>
     <use x="534.269531" xlink:href="#DejaVuSans-82"/>
     <use x="599.251953" xlink:href="#DejaVuSans-101"/>
     <use x="660.775391" xlink:href="#DejaVuSans-99"/>
     <use x="715.755859" xlink:href="#DejaVuSans-114"/>
     <use x="754.619141" xlink:href="#DejaVuSans-101"/>
     <use x="816.142578" xlink:href="#DejaVuSans-97"/>
     <use x="877.421875" xlink:href="#DejaVuSans-116"/>
     <use x="916.630859" xlink:href="#DejaVuSans-105"/>
     <use x="944.414062" xlink:href="#DejaVuSans-111"/>
     <use x="1005.595703" xlink:href="#DejaVuSans-110"/>
     <use x="1068.974609" xlink:href="#DejaVuSans-32"/>
     <use x="1100.761719" xlink:href="#DejaVuSans-77"/>
     <use x="1187.041016" xlink:href="#DejaVuSans-111"/>
     <use x="1248.222656" xlink:href="#DejaVuSans-98"/>
     <use x="1311.699219" xlink:href="#DejaVuSans-105"/>
     <use x="1339.482422" xlink:href="#DejaVuSans-108"/>
     <use x="1367.265625" xlink:href="#DejaVuSans-105"/>
     <use x="1395.048828" xlink:href="#DejaVuSans-116"/>
     <use x="1434.257812" xlink:href="#DejaVuSans-121"/>
     <use x="1493.4375" xlink:href="#DejaVuSans-32"/>
     <use x="1525.224609" xlink:href="#DejaVuSans-71"/>
     <use x="1602.714844" xlink:href="#DejaVuSans-114"/>
     <use x="1643.828125" xlink:href="#DejaVuSans-97"/>
     <use x="1705.107422" xlink:href="#DejaVuSans-112"/>
     <use x="1768.583984" xlink:href="#DejaVuSans-104"/>
     <use x="1831.962891" xlink:href="#DejaVuSans-32"/>
     <use x="1863.75" xlink:href="#DejaVuSans-102"/>
     <use x="1898.955078" xlink:href="#DejaVuSans-111"/>
     <use x="1960.136719" xlink:href="#DejaVuSans-114"/>
     <use x="2001.25" xlink:href="#DejaVuSans-32"/>
     <use x="2033.037109" xlink:href="#DejaVuSans-85"/>
     <use x="2106.230469" xlink:href="#DejaVuSans-110"/>
     <use x="2169.609375" xlink:href="#DejaVuSans-105"/>
     <use x="2197.392578" xlink:href="#DejaVuSans-116"/>
     <use x="2236.601562" xlink:href="#DejaVuSans-101"/>
     <use x="2298.125" xlink:href="#DejaVuSans-100"/>
     <use x="2361.601562" xlink:href="#DejaVuSans-32"/>
     <use x="2393.388672" xlink:href="#DejaVuSans-83"/>
     <use x="2456.865234" xlink:href="#DejaVuSans-116"/>
     <use x="2496.074219" xlink:href="#DejaVuSans-97"/>
     <use x="2557.353516" xlink:href="#DejaVuSans-116"/>
     <use x="2596.5625" xlink:href="#DejaVuSans-101"/>
     <use x="2658.085938" xlink:href="#DejaVuSans-115"/>
    </g>
   </g>
   <g id="legend_1">
    <g id="patch_7">
     <path d="M 543.907813 44.99625 
L 698.382813 44.99625 
Q 700.382813 44.99625 700.382813 42.99625 
L 700.382813 29.318125 
Q 700.382813 27.318125 698.382813 27.318125 
L 543.907813 27.318125 
Q 541.907813 27.318125 541.907813 29.318125 
L 541.907813 42.99625 
Q 541.907813 44.99625 543.907813 44.99625 
z
" style="fill:#ffffff;opacity:0.8;stroke:#cccccc;stroke-linejoin:miter;"/>
    </g>
    <g id="line2d_44">
     <path d="M 545.907813 35.416562 
L 565.907813 35.416562 
" style="fill:none;stroke:#ff0000;stroke-linecap:square;stroke-width:3;"/>
    </g>
    <g id="line2d_45"/>
    <g id="text_19">
     <!-- Effective Lockdown date -->
     <defs>
      <path d="M 9.8125 72.90625 
L 55.90625 72.90625 
L 55.90625 64.59375 
L 19.671875 64.59375 
L 19.671875 43.015625 
L 54.390625 43.015625 
L 54.390625 34.71875 
L 19.671875 34.71875 
L 19.671875 8.296875 
L 56.78125 8.296875 
L 56.78125 0 
L 9.8125 0 
z
" id="DejaVuSans-69"/>
      <path d="M 2.984375 54.6875 
L 12.5 54.6875 
L 29.59375 8.796875 
L 46.6875 54.6875 
L 56.203125 54.6875 
L 35.6875 0 
L 23.484375 0 
z
" id="DejaVuSans-118"/>
      <path d="M 9.8125 72.90625 
L 19.671875 72.90625 
L 19.671875 8.296875 
L 55.171875 8.296875 
L 55.171875 0 
L 9.8125 0 
z
" id="DejaVuSans-76"/>
      <path d="M 9.078125 75.984375 
L 18.109375 75.984375 
L 18.109375 31.109375 
L 44.921875 54.6875 
L 56.390625 54.6875 
L 27.390625 29.109375 
L 57.625 0 
L 45.90625 0 
L 18.109375 26.703125 
L 18.109375 0 
L 9.078125 0 
z
" id="DejaVuSans-107"/>
      <path d="M 4.203125 54.6875 
L 13.1875 54.6875 
L 24.421875 12.015625 
L 35.59375 54.6875 
L 46.1875 54.6875 
L 57.421875 12.015625 
L 68.609375 54.6875 
L 77.59375 54.6875 
L 63.28125 0 
L 52.6875 0 
L 40.921875 44.828125 
L 29.109375 0 
L 18.5 0 
z
" id="DejaVuSans-119"/>
     </defs>
     <g transform="translate(573.907813 38.916562)scale(0.1 -0.1)">
      <use xlink:href="#DejaVuSans-69"/>
      <use x="63.183594" xlink:href="#DejaVuSans-102"/>
      <use x="98.388672" xlink:href="#DejaVuSans-102"/>
      <use x="133.59375" xlink:href="#DejaVuSans-101"/>
      <use x="195.117188" xlink:href="#DejaVuSans-99"/>
      <use x="250.097656" xlink:href="#DejaVuSans-116"/>
      <use x="289.306641" xlink:href="#DejaVuSans-105"/>
      <use x="317.089844" xlink:href="#DejaVuSans-118"/>
      <use x="376.269531" xlink:href="#DejaVuSans-101"/>
      <use x="437.792969" xlink:href="#DejaVuSans-32"/>
      <use x="469.580078" xlink:href="#DejaVuSans-76"/>
      <use x="523.542969" xlink:href="#DejaVuSans-111"/>
      <use x="584.724609" xlink:href="#DejaVuSans-99"/>
      <use x="639.705078" xlink:href="#DejaVuSans-107"/>
      <use x="697.615234" xlink:href="#DejaVuSans-100"/>
      <use x="761.091797" xlink:href="#DejaVuSans-111"/>
      <use x="822.273438" xlink:href="#DejaVuSans-119"/>
      <use x="904.060547" xlink:href="#DejaVuSans-110"/>
      <use x="967.439453" xlink:href="#DejaVuSans-32"/>
      <use x="999.226562" xlink:href="#DejaVuSans-100"/>
      <use x="1062.703125" xlink:href="#DejaVuSans-97"/>
      <use x="1123.982422" xlink:href="#DejaVuSans-116"/>
      <use x="1163.191406" xlink:href="#DejaVuSans-101"/>
     </g>
    </g>
   </g>
  </g>
 </g>
 <defs>
  <clipPath id="pc0c568f5bd">
   <rect height="379.4" width="656.4" x="48.982813" y="22.318125"/>
  </clipPath>
 </defs>
</svg>
