<?xml version="1.0" encoding="utf-8" standalone="no"?>
<!DOCTYPE svg PUBLIC "-//W3C//DTD SVG 1.1//EN"
  "http://www.w3.org/Graphics/SVG/1.1/DTD/svg11.dtd">
<!-- Created with matplotlib (https://matplotlib.org/) -->
<svg height="439.274375pt" version="1.1" viewBox="0 0 712.582813 439.274375" width="712.582813pt" xmlns="http://www.w3.org/2000/svg" xmlns:xlink="http://www.w3.org/1999/xlink">
 <defs>
  <style type="text/css">
*{stroke-linecap:butt;stroke-linejoin:round;}
  </style>
 </defs>
 <g id="figure_1">
  <g id="patch_1">
   <path d="M 0 439.274375 
L 712.582813 439.274375 
L 712.582813 0 
L 0 0 
z
" style="fill:#ffffff;"/>
  </g>
  <g id="axes_1">
   <g id="patch_2">
    <path d="M 48.982813 401.718125 
L 705.382813 401.718125 
L 705.382813 22.318125 
L 48.982813 22.318125 
z
" style="fill:#ffffff;"/>
   </g>
   <g id="PolyCollection_1">
    <defs>
     <path d="M 78.819176 -354.445858 
L 78.819176 -325.216154 
L 85.923072 -333.896413 
L 93.026968 -367.456484 
L 100.130864 -363.710108 
L 107.234761 -364.182081 
L 114.338657 -367.450663 
L 121.442553 -362.225519 
L 128.546449 -340.17908 
L 135.650345 -341.301719 
L 142.754241 -367.790444 
L 149.858137 -358.388616 
L 156.962033 -359.409571 
L 164.065929 -364.368343 
L 171.169825 -360.024943 
L 178.273722 -337.996911 
L 185.377618 -341.511073 
L 192.481514 -370.368862 
L 199.58541 -362.372813 
L 206.689306 -363.638528 
L 213.793202 -367.120252 
L 220.897098 -363.981213 
L 228.000994 -341.680144 
L 235.10489 -340.031287 
L 242.208787 -366.755309 
L 249.312683 -352.787585 
L 256.416579 -350.736577 
L 263.520475 -350.299064 
L 270.624371 -341.599627 
L 277.728267 -316.270923 
L 284.832163 -316.832509 
L 291.936059 -327.393801 
L 299.039955 -300.318391 
L 306.143851 -286.655576 
L 313.247748 -264.853258 
L 320.351644 -234.472634 
L 327.45554 -187.051289 
L 334.559436 -163.313734 
L 341.663332 -167.442862 
L 348.767228 -131.027008 
L 355.871124 -110.079763 
L 362.97502 -89.353591 
L 370.078916 -83.08957 
L 377.182812 -63.619261 
L 384.286709 -65.566854 
L 391.390605 -94.342052 
L 398.494501 -85.353576 
L 405.598397 -87.042025 
L 412.702293 -90.797079 
L 419.806189 -84.959149 
L 426.910085 -65.335579 
L 434.013981 -67.645208 
L 441.117877 -95.374333 
L 448.221774 -86.198797 
L 455.32567 -89.406079 
L 462.429566 -92.047058 
L 469.533462 -88.025364 
L 476.637358 -65.932175 
L 483.741254 -68.495628 
L 490.84515 -97.529301 
L 497.949046 -88.042419 
L 505.052942 -91.31535 
L 512.156838 -95.922834 
L 519.260735 -91.700301 
L 526.364631 -71.173554 
L 533.468527 -73.039654 
L 540.572423 -102.176893 
L 547.676319 -92.994163 
L 554.780215 -96.032973 
L 561.884111 -99.897854 
L 568.988007 -94.813252 
L 576.091903 -74.196314 
L 583.1958 -77.749399 
L 590.299696 -106.038188 
L 597.403592 -96.285841 
L 604.507488 -99.143292 
L 611.611384 -104.07721 
L 618.71528 -99.284746 
L 625.819176 -77.810273 
L 632.923072 -79.973718 
L 640.026968 -108.963677 
L 647.130864 -100.320888 
L 654.234761 -103.28691 
L 661.338657 -106.887194 
L 668.442553 -102.340843 
L 675.546449 -81.761092 
L 675.546449 -109.455246 
L 675.546449 -109.455246 
L 668.442553 -129.612922 
L 661.338657 -135.616754 
L 654.234761 -130.75573 
L 647.130864 -128.614831 
L 640.026968 -137.041629 
L 632.923072 -108.105386 
L 625.819176 -107.334791 
L 618.71528 -127.340639 
L 611.611384 -131.973852 
L 604.507488 -126.618858 
L 597.403592 -124.745993 
L 590.299696 -133.214606 
L 583.1958 -105.578626 
L 576.091903 -102.328466 
L 568.988007 -123.367747 
L 561.884111 -127.576548 
L 554.780215 -124.074358 
L 547.676319 -121.68437 
L 540.572423 -130.643343 
L 533.468527 -102.629388 
L 526.364631 -98.448386 
L 519.260735 -120.588986 
L 512.156838 -122.927192 
L 505.052942 -119.350673 
L 497.949046 -117.176204 
L 490.84515 -126.291088 
L 483.741254 -98.665078 
L 476.637358 -95.246411 
L 469.533462 -115.459041 
L 462.429566 -119.001439 
L 455.32567 -116.438954 
L 448.221774 -115.70082 
L 441.117877 -124.058566 
L 434.013981 -95.738091 
L 426.910085 -93.330957 
L 419.806189 -114.117403 
L 412.702293 -118.013568 
L 405.598397 -115.546081 
L 398.494501 -112.286232 
L 391.390605 -120.459756 
L 384.286709 -93.803462 
L 377.182812 -90.000957 
L 370.078916 -113.037162 
L 362.97502 -117.470139 
L 355.871124 -137.586728 
L 348.767228 -159.465868 
L 341.663332 -194.788715 
L 334.559436 -191.298599 
L 327.45554 -215.452562 
L 320.351644 -262.373943 
L 313.247748 -293.832697 
L 306.143851 -314.299338 
L 299.039955 -329.758653 
L 291.936059 -355.800374 
L 284.832163 -343.678887 
L 277.728267 -344.466747 
L 270.624371 -370.862462 
L 263.520475 -378.449405 
L 256.416579 -378.353888 
L 249.312683 -380.629148 
L 242.208787 -393.717878 
L 235.10489 -368.694862 
L 228.000994 -370.278367 
L 220.897098 -392.177793 
L 213.793202 -396.126735 
L 206.689306 -392.357015 
L 199.58541 -390.112857 
L 192.481514 -397.946512 
L 185.377618 -370.58509 
L 178.273722 -366.658771 
L 171.169825 -386.660138 
L 164.065929 -391.773425 
L 156.962033 -387.7628 
L 149.858137 -387.498782 
L 142.754241 -396.296925 
L 135.650345 -370.055106 
L 128.546449 -368.594353 
L 121.442553 -389.628214 
L 114.338657 -395.68466 
L 107.234761 -392.877845 
L 100.130864 -391.078574 
L 93.026968 -395.386291 
L 85.923072 -361.966954 
L 78.819176 -354.445858 
z
" id="m9f1d347f9f" style="stroke:#0072b2;stroke-opacity:0.2;"/>
    </defs>
    <g clip-path="url(#pb6dd46859f)">
     <use style="fill:#0072b2;fill-opacity:0.2;stroke:#0072b2;stroke-opacity:0.2;" x="0" xlink:href="#m9f1d347f9f" y="439.274375"/>
    </g>
   </g>
   <g id="matplotlib.axis_1">
    <g id="xtick_1">
     <g id="line2d_1">
      <path clip-path="url(#pb6dd46859f)" d="M 71.71528 401.718125 
L 71.71528 22.318125 
" style="fill:none;stroke:#808080;stroke-linecap:square;stroke-opacity:0.2;"/>
     </g>
     <g id="line2d_2">
      <defs>
       <path d="M 0 0 
L 0 3.5 
" id="mc389e0f482" style="stroke:#000000;stroke-width:0.8;"/>
      </defs>
      <g>
       <use style="stroke:#000000;stroke-width:0.8;" x="71.71528" xlink:href="#mc389e0f482" y="401.718125"/>
      </g>
     </g>
     <g id="text_1">
      <!-- 2020-02-14 -->
      <defs>
       <path d="M 19.1875 8.296875 
L 53.609375 8.296875 
L 53.609375 0 
L 7.328125 0 
L 7.328125 8.296875 
Q 12.9375 14.109375 22.625 23.890625 
Q 32.328125 33.6875 34.8125 36.53125 
Q 39.546875 41.84375 41.421875 45.53125 
Q 43.3125 49.21875 43.3125 52.78125 
Q 43.3125 58.59375 39.234375 62.25 
Q 35.15625 65.921875 28.609375 65.921875 
Q 23.96875 65.921875 18.8125 64.3125 
Q 13.671875 62.703125 7.8125 59.421875 
L 7.8125 69.390625 
Q 13.765625 71.78125 18.9375 73 
Q 24.125 74.21875 28.421875 74.21875 
Q 39.75 74.21875 46.484375 68.546875 
Q 53.21875 62.890625 53.21875 53.421875 
Q 53.21875 48.921875 51.53125 44.890625 
Q 49.859375 40.875 45.40625 35.40625 
Q 44.1875 33.984375 37.640625 27.21875 
Q 31.109375 20.453125 19.1875 8.296875 
z
" id="DejaVuSans-50"/>
       <path d="M 31.78125 66.40625 
Q 24.171875 66.40625 20.328125 58.90625 
Q 16.5 51.421875 16.5 36.375 
Q 16.5 21.390625 20.328125 13.890625 
Q 24.171875 6.390625 31.78125 6.390625 
Q 39.453125 6.390625 43.28125 13.890625 
Q 47.125 21.390625 47.125 36.375 
Q 47.125 51.421875 43.28125 58.90625 
Q 39.453125 66.40625 31.78125 66.40625 
z
M 31.78125 74.21875 
Q 44.046875 74.21875 50.515625 64.515625 
Q 56.984375 54.828125 56.984375 36.375 
Q 56.984375 17.96875 50.515625 8.265625 
Q 44.046875 -1.421875 31.78125 -1.421875 
Q 19.53125 -1.421875 13.0625 8.265625 
Q 6.59375 17.96875 6.59375 36.375 
Q 6.59375 54.828125 13.0625 64.515625 
Q 19.53125 74.21875 31.78125 74.21875 
z
" id="DejaVuSans-48"/>
       <path d="M 4.890625 31.390625 
L 31.203125 31.390625 
L 31.203125 23.390625 
L 4.890625 23.390625 
z
" id="DejaVuSans-45"/>
       <path d="M 12.40625 8.296875 
L 28.515625 8.296875 
L 28.515625 63.921875 
L 10.984375 60.40625 
L 10.984375 69.390625 
L 28.421875 72.90625 
L 38.28125 72.90625 
L 38.28125 8.296875 
L 54.390625 8.296875 
L 54.390625 0 
L 12.40625 0 
z
" id="DejaVuSans-49"/>
       <path d="M 37.796875 64.3125 
L 12.890625 25.390625 
L 37.796875 25.390625 
z
M 35.203125 72.90625 
L 47.609375 72.90625 
L 47.609375 25.390625 
L 58.015625 25.390625 
L 58.015625 17.1875 
L 47.609375 17.1875 
L 47.609375 0 
L 37.796875 0 
L 37.796875 17.1875 
L 4.890625 17.1875 
L 4.890625 26.703125 
z
" id="DejaVuSans-52"/>
      </defs>
      <g transform="translate(42.657468 416.316562)scale(0.1 -0.1)">
       <use xlink:href="#DejaVuSans-50"/>
       <use x="63.623047" xlink:href="#DejaVuSans-48"/>
       <use x="127.246094" xlink:href="#DejaVuSans-50"/>
       <use x="190.869141" xlink:href="#DejaVuSans-48"/>
       <use x="254.492188" xlink:href="#DejaVuSans-45"/>
       <use x="290.576172" xlink:href="#DejaVuSans-48"/>
       <use x="354.199219" xlink:href="#DejaVuSans-50"/>
       <use x="417.822266" xlink:href="#DejaVuSans-45"/>
       <use x="453.90625" xlink:href="#DejaVuSans-49"/>
       <use x="517.529297" xlink:href="#DejaVuSans-52"/>
      </g>
     </g>
    </g>
    <g id="xtick_2">
     <g id="line2d_3">
      <path clip-path="url(#pb6dd46859f)" d="M 171.169825 401.718125 
L 171.169825 22.318125 
" style="fill:none;stroke:#808080;stroke-linecap:square;stroke-opacity:0.2;"/>
     </g>
     <g id="line2d_4">
      <g>
       <use style="stroke:#000000;stroke-width:0.8;" x="171.169825" xlink:href="#mc389e0f482" y="401.718125"/>
      </g>
     </g>
     <g id="text_2">
      <!-- 2020-02-28 -->
      <defs>
       <path d="M 31.78125 34.625 
Q 24.75 34.625 20.71875 30.859375 
Q 16.703125 27.09375 16.703125 20.515625 
Q 16.703125 13.921875 20.71875 10.15625 
Q 24.75 6.390625 31.78125 6.390625 
Q 38.8125 6.390625 42.859375 10.171875 
Q 46.921875 13.96875 46.921875 20.515625 
Q 46.921875 27.09375 42.890625 30.859375 
Q 38.875 34.625 31.78125 34.625 
z
M 21.921875 38.8125 
Q 15.578125 40.375 12.03125 44.71875 
Q 8.5 49.078125 8.5 55.328125 
Q 8.5 64.0625 14.71875 69.140625 
Q 20.953125 74.21875 31.78125 74.21875 
Q 42.671875 74.21875 48.875 69.140625 
Q 55.078125 64.0625 55.078125 55.328125 
Q 55.078125 49.078125 51.53125 44.71875 
Q 48 40.375 41.703125 38.8125 
Q 48.828125 37.15625 52.796875 32.3125 
Q 56.78125 27.484375 56.78125 20.515625 
Q 56.78125 9.90625 50.3125 4.234375 
Q 43.84375 -1.421875 31.78125 -1.421875 
Q 19.734375 -1.421875 13.25 4.234375 
Q 6.78125 9.90625 6.78125 20.515625 
Q 6.78125 27.484375 10.78125 32.3125 
Q 14.796875 37.15625 21.921875 38.8125 
z
M 18.3125 54.390625 
Q 18.3125 48.734375 21.84375 45.5625 
Q 25.390625 42.390625 31.78125 42.390625 
Q 38.140625 42.390625 41.71875 45.5625 
Q 45.3125 48.734375 45.3125 54.390625 
Q 45.3125 60.0625 41.71875 63.234375 
Q 38.140625 66.40625 31.78125 66.40625 
Q 25.390625 66.40625 21.84375 63.234375 
Q 18.3125 60.0625 18.3125 54.390625 
z
" id="DejaVuSans-56"/>
      </defs>
      <g transform="translate(142.112013 416.316562)scale(0.1 -0.1)">
       <use xlink:href="#DejaVuSans-50"/>
       <use x="63.623047" xlink:href="#DejaVuSans-48"/>
       <use x="127.246094" xlink:href="#DejaVuSans-50"/>
       <use x="190.869141" xlink:href="#DejaVuSans-48"/>
       <use x="254.492188" xlink:href="#DejaVuSans-45"/>
       <use x="290.576172" xlink:href="#DejaVuSans-48"/>
       <use x="354.199219" xlink:href="#DejaVuSans-50"/>
       <use x="417.822266" xlink:href="#DejaVuSans-45"/>
       <use x="453.90625" xlink:href="#DejaVuSans-50"/>
       <use x="517.529297" xlink:href="#DejaVuSans-56"/>
      </g>
     </g>
    </g>
    <g id="xtick_3">
     <g id="line2d_5">
      <path clip-path="url(#pb6dd46859f)" d="M 270.624371 401.718125 
L 270.624371 22.318125 
" style="fill:none;stroke:#808080;stroke-linecap:square;stroke-opacity:0.2;"/>
     </g>
     <g id="line2d_6">
      <g>
       <use style="stroke:#000000;stroke-width:0.8;" x="270.624371" xlink:href="#mc389e0f482" y="401.718125"/>
      </g>
     </g>
     <g id="text_3">
      <!-- 2020-03-13 -->
      <defs>
       <path d="M 40.578125 39.3125 
Q 47.65625 37.796875 51.625 33 
Q 55.609375 28.21875 55.609375 21.1875 
Q 55.609375 10.40625 48.1875 4.484375 
Q 40.765625 -1.421875 27.09375 -1.421875 
Q 22.515625 -1.421875 17.65625 -0.515625 
Q 12.796875 0.390625 7.625 2.203125 
L 7.625 11.71875 
Q 11.71875 9.328125 16.59375 8.109375 
Q 21.484375 6.890625 26.8125 6.890625 
Q 36.078125 6.890625 40.9375 10.546875 
Q 45.796875 14.203125 45.796875 21.1875 
Q 45.796875 27.640625 41.28125 31.265625 
Q 36.765625 34.90625 28.71875 34.90625 
L 20.21875 34.90625 
L 20.21875 43.015625 
L 29.109375 43.015625 
Q 36.375 43.015625 40.234375 45.921875 
Q 44.09375 48.828125 44.09375 54.296875 
Q 44.09375 59.90625 40.109375 62.90625 
Q 36.140625 65.921875 28.71875 65.921875 
Q 24.65625 65.921875 20.015625 65.03125 
Q 15.375 64.15625 9.8125 62.3125 
L 9.8125 71.09375 
Q 15.4375 72.65625 20.34375 73.4375 
Q 25.25 74.21875 29.59375 74.21875 
Q 40.828125 74.21875 47.359375 69.109375 
Q 53.90625 64.015625 53.90625 55.328125 
Q 53.90625 49.265625 50.4375 45.09375 
Q 46.96875 40.921875 40.578125 39.3125 
z
" id="DejaVuSans-51"/>
      </defs>
      <g transform="translate(241.566558 416.316562)scale(0.1 -0.1)">
       <use xlink:href="#DejaVuSans-50"/>
       <use x="63.623047" xlink:href="#DejaVuSans-48"/>
       <use x="127.246094" xlink:href="#DejaVuSans-50"/>
       <use x="190.869141" xlink:href="#DejaVuSans-48"/>
       <use x="254.492188" xlink:href="#DejaVuSans-45"/>
       <use x="290.576172" xlink:href="#DejaVuSans-48"/>
       <use x="354.199219" xlink:href="#DejaVuSans-51"/>
       <use x="417.822266" xlink:href="#DejaVuSans-45"/>
       <use x="453.90625" xlink:href="#DejaVuSans-49"/>
       <use x="517.529297" xlink:href="#DejaVuSans-51"/>
      </g>
     </g>
    </g>
    <g id="xtick_4">
     <g id="line2d_7">
      <path clip-path="url(#pb6dd46859f)" d="M 370.078916 401.718125 
L 370.078916 22.318125 
" style="fill:none;stroke:#808080;stroke-linecap:square;stroke-opacity:0.2;"/>
     </g>
     <g id="line2d_8">
      <g>
       <use style="stroke:#000000;stroke-width:0.8;" x="370.078916" xlink:href="#mc389e0f482" y="401.718125"/>
      </g>
     </g>
     <g id="text_4">
      <!-- 2020-03-27 -->
      <defs>
       <path d="M 8.203125 72.90625 
L 55.078125 72.90625 
L 55.078125 68.703125 
L 28.609375 0 
L 18.3125 0 
L 43.21875 64.59375 
L 8.203125 64.59375 
z
" id="DejaVuSans-55"/>
      </defs>
      <g transform="translate(341.021104 416.316562)scale(0.1 -0.1)">
       <use xlink:href="#DejaVuSans-50"/>
       <use x="63.623047" xlink:href="#DejaVuSans-48"/>
       <use x="127.246094" xlink:href="#DejaVuSans-50"/>
       <use x="190.869141" xlink:href="#DejaVuSans-48"/>
       <use x="254.492188" xlink:href="#DejaVuSans-45"/>
       <use x="290.576172" xlink:href="#DejaVuSans-48"/>
       <use x="354.199219" xlink:href="#DejaVuSans-51"/>
       <use x="417.822266" xlink:href="#DejaVuSans-45"/>
       <use x="453.90625" xlink:href="#DejaVuSans-50"/>
       <use x="517.529297" xlink:href="#DejaVuSans-55"/>
      </g>
     </g>
    </g>
    <g id="xtick_5">
     <g id="line2d_9">
      <path clip-path="url(#pb6dd46859f)" d="M 469.533462 401.718125 
L 469.533462 22.318125 
" style="fill:none;stroke:#808080;stroke-linecap:square;stroke-opacity:0.2;"/>
     </g>
     <g id="line2d_10">
      <g>
       <use style="stroke:#000000;stroke-width:0.8;" x="469.533462" xlink:href="#mc389e0f482" y="401.718125"/>
      </g>
     </g>
     <g id="text_5">
      <!-- 2020-04-10 -->
      <g transform="translate(440.475649 416.316562)scale(0.1 -0.1)">
       <use xlink:href="#DejaVuSans-50"/>
       <use x="63.623047" xlink:href="#DejaVuSans-48"/>
       <use x="127.246094" xlink:href="#DejaVuSans-50"/>
       <use x="190.869141" xlink:href="#DejaVuSans-48"/>
       <use x="254.492188" xlink:href="#DejaVuSans-45"/>
       <use x="290.576172" xlink:href="#DejaVuSans-48"/>
       <use x="354.199219" xlink:href="#DejaVuSans-52"/>
       <use x="417.822266" xlink:href="#DejaVuSans-45"/>
       <use x="453.90625" xlink:href="#DejaVuSans-49"/>
       <use x="517.529297" xlink:href="#DejaVuSans-48"/>
      </g>
     </g>
    </g>
    <g id="xtick_6">
     <g id="line2d_11">
      <path clip-path="url(#pb6dd46859f)" d="M 568.988007 401.718125 
L 568.988007 22.318125 
" style="fill:none;stroke:#808080;stroke-linecap:square;stroke-opacity:0.2;"/>
     </g>
     <g id="line2d_12">
      <g>
       <use style="stroke:#000000;stroke-width:0.8;" x="568.988007" xlink:href="#mc389e0f482" y="401.718125"/>
      </g>
     </g>
     <g id="text_6">
      <!-- 2020-04-24 -->
      <g transform="translate(539.930195 416.316562)scale(0.1 -0.1)">
       <use xlink:href="#DejaVuSans-50"/>
       <use x="63.623047" xlink:href="#DejaVuSans-48"/>
       <use x="127.246094" xlink:href="#DejaVuSans-50"/>
       <use x="190.869141" xlink:href="#DejaVuSans-48"/>
       <use x="254.492188" xlink:href="#DejaVuSans-45"/>
       <use x="290.576172" xlink:href="#DejaVuSans-48"/>
       <use x="354.199219" xlink:href="#DejaVuSans-52"/>
       <use x="417.822266" xlink:href="#DejaVuSans-45"/>
       <use x="453.90625" xlink:href="#DejaVuSans-50"/>
       <use x="517.529297" xlink:href="#DejaVuSans-52"/>
      </g>
     </g>
    </g>
    <g id="xtick_7">
     <g id="line2d_13">
      <path clip-path="url(#pb6dd46859f)" d="M 668.442553 401.718125 
L 668.442553 22.318125 
" style="fill:none;stroke:#808080;stroke-linecap:square;stroke-opacity:0.2;"/>
     </g>
     <g id="line2d_14">
      <g>
       <use style="stroke:#000000;stroke-width:0.8;" x="668.442553" xlink:href="#mc389e0f482" y="401.718125"/>
      </g>
     </g>
     <g id="text_7">
      <!-- 2020-05-08 -->
      <defs>
       <path d="M 10.796875 72.90625 
L 49.515625 72.90625 
L 49.515625 64.59375 
L 19.828125 64.59375 
L 19.828125 46.734375 
Q 21.96875 47.46875 24.109375 47.828125 
Q 26.265625 48.1875 28.421875 48.1875 
Q 40.625 48.1875 47.75 41.5 
Q 54.890625 34.8125 54.890625 23.390625 
Q 54.890625 11.625 47.5625 5.09375 
Q 40.234375 -1.421875 26.90625 -1.421875 
Q 22.3125 -1.421875 17.546875 -0.640625 
Q 12.796875 0.140625 7.71875 1.703125 
L 7.71875 11.625 
Q 12.109375 9.234375 16.796875 8.0625 
Q 21.484375 6.890625 26.703125 6.890625 
Q 35.15625 6.890625 40.078125 11.328125 
Q 45.015625 15.765625 45.015625 23.390625 
Q 45.015625 31 40.078125 35.4375 
Q 35.15625 39.890625 26.703125 39.890625 
Q 22.75 39.890625 18.8125 39.015625 
Q 14.890625 38.140625 10.796875 36.28125 
z
" id="DejaVuSans-53"/>
      </defs>
      <g transform="translate(639.38474 416.316562)scale(0.1 -0.1)">
       <use xlink:href="#DejaVuSans-50"/>
       <use x="63.623047" xlink:href="#DejaVuSans-48"/>
       <use x="127.246094" xlink:href="#DejaVuSans-50"/>
       <use x="190.869141" xlink:href="#DejaVuSans-48"/>
       <use x="254.492188" xlink:href="#DejaVuSans-45"/>
       <use x="290.576172" xlink:href="#DejaVuSans-48"/>
       <use x="354.199219" xlink:href="#DejaVuSans-53"/>
       <use x="417.822266" xlink:href="#DejaVuSans-45"/>
       <use x="453.90625" xlink:href="#DejaVuSans-48"/>
       <use x="517.529297" xlink:href="#DejaVuSans-56"/>
      </g>
     </g>
    </g>
    <g id="text_8">
     <!-- Date -->
     <defs>
      <path d="M 19.671875 64.796875 
L 19.671875 8.109375 
L 31.59375 8.109375 
Q 46.6875 8.109375 53.6875 14.9375 
Q 60.6875 21.78125 60.6875 36.53125 
Q 60.6875 51.171875 53.6875 57.984375 
Q 46.6875 64.796875 31.59375 64.796875 
z
M 9.8125 72.90625 
L 30.078125 72.90625 
Q 51.265625 72.90625 61.171875 64.09375 
Q 71.09375 55.28125 71.09375 36.53125 
Q 71.09375 17.671875 61.125 8.828125 
Q 51.171875 0 30.078125 0 
L 9.8125 0 
z
" id="DejaVuSans-68"/>
      <path d="M 34.28125 27.484375 
Q 23.390625 27.484375 19.1875 25 
Q 14.984375 22.515625 14.984375 16.5 
Q 14.984375 11.71875 18.140625 8.90625 
Q 21.296875 6.109375 26.703125 6.109375 
Q 34.1875 6.109375 38.703125 11.40625 
Q 43.21875 16.703125 43.21875 25.484375 
L 43.21875 27.484375 
z
M 52.203125 31.203125 
L 52.203125 0 
L 43.21875 0 
L 43.21875 8.296875 
Q 40.140625 3.328125 35.546875 0.953125 
Q 30.953125 -1.421875 24.3125 -1.421875 
Q 15.921875 -1.421875 10.953125 3.296875 
Q 6 8.015625 6 15.921875 
Q 6 25.140625 12.171875 29.828125 
Q 18.359375 34.515625 30.609375 34.515625 
L 43.21875 34.515625 
L 43.21875 35.40625 
Q 43.21875 41.609375 39.140625 45 
Q 35.0625 48.390625 27.6875 48.390625 
Q 23 48.390625 18.546875 47.265625 
Q 14.109375 46.140625 10.015625 43.890625 
L 10.015625 52.203125 
Q 14.9375 54.109375 19.578125 55.046875 
Q 24.21875 56 28.609375 56 
Q 40.484375 56 46.34375 49.84375 
Q 52.203125 43.703125 52.203125 31.203125 
z
" id="DejaVuSans-97"/>
      <path d="M 18.3125 70.21875 
L 18.3125 54.6875 
L 36.8125 54.6875 
L 36.8125 47.703125 
L 18.3125 47.703125 
L 18.3125 18.015625 
Q 18.3125 11.328125 20.140625 9.421875 
Q 21.96875 7.515625 27.59375 7.515625 
L 36.8125 7.515625 
L 36.8125 0 
L 27.59375 0 
Q 17.1875 0 13.234375 3.875 
Q 9.28125 7.765625 9.28125 18.015625 
L 9.28125 47.703125 
L 2.6875 47.703125 
L 2.6875 54.6875 
L 9.28125 54.6875 
L 9.28125 70.21875 
z
" id="DejaVuSans-116"/>
      <path d="M 56.203125 29.59375 
L 56.203125 25.203125 
L 14.890625 25.203125 
Q 15.484375 15.921875 20.484375 11.0625 
Q 25.484375 6.203125 34.421875 6.203125 
Q 39.59375 6.203125 44.453125 7.46875 
Q 49.3125 8.734375 54.109375 11.28125 
L 54.109375 2.78125 
Q 49.265625 0.734375 44.1875 -0.34375 
Q 39.109375 -1.421875 33.890625 -1.421875 
Q 20.796875 -1.421875 13.15625 6.1875 
Q 5.515625 13.8125 5.515625 26.8125 
Q 5.515625 40.234375 12.765625 48.109375 
Q 20.015625 56 32.328125 56 
Q 43.359375 56 49.78125 48.890625 
Q 56.203125 41.796875 56.203125 29.59375 
z
M 47.21875 32.234375 
Q 47.125 39.59375 43.09375 43.984375 
Q 39.0625 48.390625 32.421875 48.390625 
Q 24.90625 48.390625 20.390625 44.140625 
Q 15.875 39.890625 15.1875 32.171875 
z
" id="DejaVuSans-101"/>
     </defs>
     <g transform="translate(365.232031 429.994687)scale(0.1 -0.1)">
      <use xlink:href="#DejaVuSans-68"/>
      <use x="77.001953" xlink:href="#DejaVuSans-97"/>
      <use x="138.28125" xlink:href="#DejaVuSans-116"/>
      <use x="177.490234" xlink:href="#DejaVuSans-101"/>
     </g>
    </g>
   </g>
   <g id="matplotlib.axis_2">
    <g id="ytick_1">
     <g id="line2d_15">
      <path clip-path="url(#pb6dd46859f)" d="M 48.982813 353.117299 
L 705.382813 353.117299 
" style="fill:none;stroke:#808080;stroke-linecap:square;stroke-opacity:0.2;"/>
     </g>
     <g id="line2d_16">
      <defs>
       <path d="M 0 0 
L -3.5 0 
" id="m1421f43398" style="stroke:#000000;stroke-width:0.8;"/>
      </defs>
      <g>
       <use style="stroke:#000000;stroke-width:0.8;" x="48.982813" xlink:href="#m1421f43398" y="353.117299"/>
      </g>
     </g>
     <g id="text_9">
      <!-- −80 -->
      <defs>
       <path d="M 10.59375 35.5 
L 73.1875 35.5 
L 73.1875 27.203125 
L 10.59375 27.203125 
z
" id="DejaVuSans-8722"/>
      </defs>
      <g transform="translate(20.878125 356.916517)scale(0.1 -0.1)">
       <use xlink:href="#DejaVuSans-8722"/>
       <use x="83.789062" xlink:href="#DejaVuSans-56"/>
       <use x="147.412109" xlink:href="#DejaVuSans-48"/>
      </g>
     </g>
    </g>
    <g id="ytick_2">
     <g id="line2d_17">
      <path clip-path="url(#pb6dd46859f)" d="M 48.982813 283.438694 
L 705.382813 283.438694 
" style="fill:none;stroke:#808080;stroke-linecap:square;stroke-opacity:0.2;"/>
     </g>
     <g id="line2d_18">
      <g>
       <use style="stroke:#000000;stroke-width:0.8;" x="48.982813" xlink:href="#m1421f43398" y="283.438694"/>
      </g>
     </g>
     <g id="text_10">
      <!-- −60 -->
      <defs>
       <path d="M 33.015625 40.375 
Q 26.375 40.375 22.484375 35.828125 
Q 18.609375 31.296875 18.609375 23.390625 
Q 18.609375 15.53125 22.484375 10.953125 
Q 26.375 6.390625 33.015625 6.390625 
Q 39.65625 6.390625 43.53125 10.953125 
Q 47.40625 15.53125 47.40625 23.390625 
Q 47.40625 31.296875 43.53125 35.828125 
Q 39.65625 40.375 33.015625 40.375 
z
M 52.59375 71.296875 
L 52.59375 62.3125 
Q 48.875 64.0625 45.09375 64.984375 
Q 41.3125 65.921875 37.59375 65.921875 
Q 27.828125 65.921875 22.671875 59.328125 
Q 17.53125 52.734375 16.796875 39.40625 
Q 19.671875 43.65625 24.015625 45.921875 
Q 28.375 48.1875 33.59375 48.1875 
Q 44.578125 48.1875 50.953125 41.515625 
Q 57.328125 34.859375 57.328125 23.390625 
Q 57.328125 12.15625 50.6875 5.359375 
Q 44.046875 -1.421875 33.015625 -1.421875 
Q 20.359375 -1.421875 13.671875 8.265625 
Q 6.984375 17.96875 6.984375 36.375 
Q 6.984375 53.65625 15.1875 63.9375 
Q 23.390625 74.21875 37.203125 74.21875 
Q 40.921875 74.21875 44.703125 73.484375 
Q 48.484375 72.75 52.59375 71.296875 
z
" id="DejaVuSans-54"/>
      </defs>
      <g transform="translate(20.878125 287.237913)scale(0.1 -0.1)">
       <use xlink:href="#DejaVuSans-8722"/>
       <use x="83.789062" xlink:href="#DejaVuSans-54"/>
       <use x="147.412109" xlink:href="#DejaVuSans-48"/>
      </g>
     </g>
    </g>
    <g id="ytick_3">
     <g id="line2d_19">
      <path clip-path="url(#pb6dd46859f)" d="M 48.982813 213.76009 
L 705.382813 213.76009 
" style="fill:none;stroke:#808080;stroke-linecap:square;stroke-opacity:0.2;"/>
     </g>
     <g id="line2d_20">
      <g>
       <use style="stroke:#000000;stroke-width:0.8;" x="48.982813" xlink:href="#m1421f43398" y="213.76009"/>
      </g>
     </g>
     <g id="text_11">
      <!-- −40 -->
      <g transform="translate(20.878125 217.559309)scale(0.1 -0.1)">
       <use xlink:href="#DejaVuSans-8722"/>
       <use x="83.789062" xlink:href="#DejaVuSans-52"/>
       <use x="147.412109" xlink:href="#DejaVuSans-48"/>
      </g>
     </g>
    </g>
    <g id="ytick_4">
     <g id="line2d_21">
      <path clip-path="url(#pb6dd46859f)" d="M 48.982813 144.081486 
L 705.382813 144.081486 
" style="fill:none;stroke:#808080;stroke-linecap:square;stroke-opacity:0.2;"/>
     </g>
     <g id="line2d_22">
      <g>
       <use style="stroke:#000000;stroke-width:0.8;" x="48.982813" xlink:href="#m1421f43398" y="144.081486"/>
      </g>
     </g>
     <g id="text_12">
      <!-- −20 -->
      <g transform="translate(20.878125 147.880705)scale(0.1 -0.1)">
       <use xlink:href="#DejaVuSans-8722"/>
       <use x="83.789062" xlink:href="#DejaVuSans-50"/>
       <use x="147.412109" xlink:href="#DejaVuSans-48"/>
      </g>
     </g>
    </g>
    <g id="ytick_5">
     <g id="line2d_23">
      <path clip-path="url(#pb6dd46859f)" d="M 48.982813 74.402882 
L 705.382813 74.402882 
" style="fill:none;stroke:#808080;stroke-linecap:square;stroke-opacity:0.2;"/>
     </g>
     <g id="line2d_24">
      <g>
       <use style="stroke:#000000;stroke-width:0.8;" x="48.982813" xlink:href="#m1421f43398" y="74.402882"/>
      </g>
     </g>
     <g id="text_13">
      <!-- 0 -->
      <g transform="translate(35.620313 78.2021)scale(0.1 -0.1)">
       <use xlink:href="#DejaVuSans-48"/>
      </g>
     </g>
    </g>
    <g id="text_14">
     <!-- Retail and Recreation Mobility -->
     <defs>
      <path d="M 44.390625 34.1875 
Q 47.5625 33.109375 50.5625 29.59375 
Q 53.5625 26.078125 56.59375 19.921875 
L 66.609375 0 
L 56 0 
L 46.6875 18.703125 
Q 43.0625 26.03125 39.671875 28.421875 
Q 36.28125 30.8125 30.421875 30.8125 
L 19.671875 30.8125 
L 19.671875 0 
L 9.8125 0 
L 9.8125 72.90625 
L 32.078125 72.90625 
Q 44.578125 72.90625 50.734375 67.671875 
Q 56.890625 62.453125 56.890625 51.90625 
Q 56.890625 45.015625 53.6875 40.46875 
Q 50.484375 35.9375 44.390625 34.1875 
z
M 19.671875 64.796875 
L 19.671875 38.921875 
L 32.078125 38.921875 
Q 39.203125 38.921875 42.84375 42.21875 
Q 46.484375 45.515625 46.484375 51.90625 
Q 46.484375 58.296875 42.84375 61.546875 
Q 39.203125 64.796875 32.078125 64.796875 
z
" id="DejaVuSans-82"/>
      <path d="M 9.421875 54.6875 
L 18.40625 54.6875 
L 18.40625 0 
L 9.421875 0 
z
M 9.421875 75.984375 
L 18.40625 75.984375 
L 18.40625 64.59375 
L 9.421875 64.59375 
z
" id="DejaVuSans-105"/>
      <path d="M 9.421875 75.984375 
L 18.40625 75.984375 
L 18.40625 0 
L 9.421875 0 
z
" id="DejaVuSans-108"/>
      <path id="DejaVuSans-32"/>
      <path d="M 54.890625 33.015625 
L 54.890625 0 
L 45.90625 0 
L 45.90625 32.71875 
Q 45.90625 40.484375 42.875 44.328125 
Q 39.84375 48.1875 33.796875 48.1875 
Q 26.515625 48.1875 22.3125 43.546875 
Q 18.109375 38.921875 18.109375 30.90625 
L 18.109375 0 
L 9.078125 0 
L 9.078125 54.6875 
L 18.109375 54.6875 
L 18.109375 46.1875 
Q 21.34375 51.125 25.703125 53.5625 
Q 30.078125 56 35.796875 56 
Q 45.21875 56 50.046875 50.171875 
Q 54.890625 44.34375 54.890625 33.015625 
z
" id="DejaVuSans-110"/>
      <path d="M 45.40625 46.390625 
L 45.40625 75.984375 
L 54.390625 75.984375 
L 54.390625 0 
L 45.40625 0 
L 45.40625 8.203125 
Q 42.578125 3.328125 38.25 0.953125 
Q 33.9375 -1.421875 27.875 -1.421875 
Q 17.96875 -1.421875 11.734375 6.484375 
Q 5.515625 14.40625 5.515625 27.296875 
Q 5.515625 40.1875 11.734375 48.09375 
Q 17.96875 56 27.875 56 
Q 33.9375 56 38.25 53.625 
Q 42.578125 51.265625 45.40625 46.390625 
z
M 14.796875 27.296875 
Q 14.796875 17.390625 18.875 11.75 
Q 22.953125 6.109375 30.078125 6.109375 
Q 37.203125 6.109375 41.296875 11.75 
Q 45.40625 17.390625 45.40625 27.296875 
Q 45.40625 37.203125 41.296875 42.84375 
Q 37.203125 48.484375 30.078125 48.484375 
Q 22.953125 48.484375 18.875 42.84375 
Q 14.796875 37.203125 14.796875 27.296875 
z
" id="DejaVuSans-100"/>
      <path d="M 48.78125 52.59375 
L 48.78125 44.1875 
Q 44.96875 46.296875 41.140625 47.34375 
Q 37.3125 48.390625 33.40625 48.390625 
Q 24.65625 48.390625 19.8125 42.84375 
Q 14.984375 37.3125 14.984375 27.296875 
Q 14.984375 17.28125 19.8125 11.734375 
Q 24.65625 6.203125 33.40625 6.203125 
Q 37.3125 6.203125 41.140625 7.25 
Q 44.96875 8.296875 48.78125 10.40625 
L 48.78125 2.09375 
Q 45.015625 0.34375 40.984375 -0.53125 
Q 36.96875 -1.421875 32.421875 -1.421875 
Q 20.0625 -1.421875 12.78125 6.34375 
Q 5.515625 14.109375 5.515625 27.296875 
Q 5.515625 40.671875 12.859375 48.328125 
Q 20.21875 56 33.015625 56 
Q 37.15625 56 41.109375 55.140625 
Q 45.0625 54.296875 48.78125 52.59375 
z
" id="DejaVuSans-99"/>
      <path d="M 41.109375 46.296875 
Q 39.59375 47.171875 37.8125 47.578125 
Q 36.03125 48 33.890625 48 
Q 26.265625 48 22.1875 43.046875 
Q 18.109375 38.09375 18.109375 28.8125 
L 18.109375 0 
L 9.078125 0 
L 9.078125 54.6875 
L 18.109375 54.6875 
L 18.109375 46.1875 
Q 20.953125 51.171875 25.484375 53.578125 
Q 30.03125 56 36.53125 56 
Q 37.453125 56 38.578125 55.875 
Q 39.703125 55.765625 41.0625 55.515625 
z
" id="DejaVuSans-114"/>
      <path d="M 30.609375 48.390625 
Q 23.390625 48.390625 19.1875 42.75 
Q 14.984375 37.109375 14.984375 27.296875 
Q 14.984375 17.484375 19.15625 11.84375 
Q 23.34375 6.203125 30.609375 6.203125 
Q 37.796875 6.203125 41.984375 11.859375 
Q 46.1875 17.53125 46.1875 27.296875 
Q 46.1875 37.015625 41.984375 42.703125 
Q 37.796875 48.390625 30.609375 48.390625 
z
M 30.609375 56 
Q 42.328125 56 49.015625 48.375 
Q 55.71875 40.765625 55.71875 27.296875 
Q 55.71875 13.875 49.015625 6.21875 
Q 42.328125 -1.421875 30.609375 -1.421875 
Q 18.84375 -1.421875 12.171875 6.21875 
Q 5.515625 13.875 5.515625 27.296875 
Q 5.515625 40.765625 12.171875 48.375 
Q 18.84375 56 30.609375 56 
z
" id="DejaVuSans-111"/>
      <path d="M 9.8125 72.90625 
L 24.515625 72.90625 
L 43.109375 23.296875 
L 61.8125 72.90625 
L 76.515625 72.90625 
L 76.515625 0 
L 66.890625 0 
L 66.890625 64.015625 
L 48.09375 14.015625 
L 38.1875 14.015625 
L 19.390625 64.015625 
L 19.390625 0 
L 9.8125 0 
z
" id="DejaVuSans-77"/>
      <path d="M 48.6875 27.296875 
Q 48.6875 37.203125 44.609375 42.84375 
Q 40.53125 48.484375 33.40625 48.484375 
Q 26.265625 48.484375 22.1875 42.84375 
Q 18.109375 37.203125 18.109375 27.296875 
Q 18.109375 17.390625 22.1875 11.75 
Q 26.265625 6.109375 33.40625 6.109375 
Q 40.53125 6.109375 44.609375 11.75 
Q 48.6875 17.390625 48.6875 27.296875 
z
M 18.109375 46.390625 
Q 20.953125 51.265625 25.265625 53.625 
Q 29.59375 56 35.59375 56 
Q 45.5625 56 51.78125 48.09375 
Q 58.015625 40.1875 58.015625 27.296875 
Q 58.015625 14.40625 51.78125 6.484375 
Q 45.5625 -1.421875 35.59375 -1.421875 
Q 29.59375 -1.421875 25.265625 0.953125 
Q 20.953125 3.328125 18.109375 8.203125 
L 18.109375 0 
L 9.078125 0 
L 9.078125 75.984375 
L 18.109375 75.984375 
z
" id="DejaVuSans-98"/>
      <path d="M 32.171875 -5.078125 
Q 28.375 -14.84375 24.75 -17.8125 
Q 21.140625 -20.796875 15.09375 -20.796875 
L 7.90625 -20.796875 
L 7.90625 -13.28125 
L 13.1875 -13.28125 
Q 16.890625 -13.28125 18.9375 -11.515625 
Q 21 -9.765625 23.484375 -3.21875 
L 25.09375 0.875 
L 2.984375 54.6875 
L 12.5 54.6875 
L 29.59375 11.921875 
L 46.6875 54.6875 
L 56.203125 54.6875 
z
" id="DejaVuSans-121"/>
     </defs>
     <g transform="translate(14.798438 286.690781)rotate(-90)scale(0.1 -0.1)">
      <use xlink:href="#DejaVuSans-82"/>
      <use x="64.982422" xlink:href="#DejaVuSans-101"/>
      <use x="126.505859" xlink:href="#DejaVuSans-116"/>
      <use x="165.714844" xlink:href="#DejaVuSans-97"/>
      <use x="226.994141" xlink:href="#DejaVuSans-105"/>
      <use x="254.777344" xlink:href="#DejaVuSans-108"/>
      <use x="282.560547" xlink:href="#DejaVuSans-32"/>
      <use x="314.347656" xlink:href="#DejaVuSans-97"/>
      <use x="375.626953" xlink:href="#DejaVuSans-110"/>
      <use x="439.005859" xlink:href="#DejaVuSans-100"/>
      <use x="502.482422" xlink:href="#DejaVuSans-32"/>
      <use x="534.269531" xlink:href="#DejaVuSans-82"/>
      <use x="599.251953" xlink:href="#DejaVuSans-101"/>
      <use x="660.775391" xlink:href="#DejaVuSans-99"/>
      <use x="715.755859" xlink:href="#DejaVuSans-114"/>
      <use x="754.619141" xlink:href="#DejaVuSans-101"/>
      <use x="816.142578" xlink:href="#DejaVuSans-97"/>
      <use x="877.421875" xlink:href="#DejaVuSans-116"/>
      <use x="916.630859" xlink:href="#DejaVuSans-105"/>
      <use x="944.414062" xlink:href="#DejaVuSans-111"/>
      <use x="1005.595703" xlink:href="#DejaVuSans-110"/>
      <use x="1068.974609" xlink:href="#DejaVuSans-32"/>
      <use x="1100.761719" xlink:href="#DejaVuSans-77"/>
      <use x="1187.041016" xlink:href="#DejaVuSans-111"/>
      <use x="1248.222656" xlink:href="#DejaVuSans-98"/>
      <use x="1311.699219" xlink:href="#DejaVuSans-105"/>
      <use x="1339.482422" xlink:href="#DejaVuSans-108"/>
      <use x="1367.265625" xlink:href="#DejaVuSans-105"/>
      <use x="1395.048828" xlink:href="#DejaVuSans-116"/>
      <use x="1434.257812" xlink:href="#DejaVuSans-121"/>
     </g>
    </g>
   </g>
   <g id="line2d_25">
    <defs>
     <path d="M 0 1.5 
C 0.397805 1.5 0.77937 1.341951 1.06066 1.06066 
C 1.341951 0.77937 1.5 0.397805 1.5 0 
C 1.5 -0.397805 1.341951 -0.77937 1.06066 -1.06066 
C 0.77937 -1.341951 0.397805 -1.5 0 -1.5 
C -0.397805 -1.5 -0.77937 -1.341951 -1.06066 -1.06066 
C -1.341951 -0.77937 -1.5 -0.397805 -1.5 0 
C -1.5 0.397805 -1.341951 0.77937 -1.06066 1.06066 
C -0.77937 1.341951 -0.397805 1.5 0 1.5 
z
" id="mcd23355980" style="stroke:#000000;"/>
    </defs>
    <g clip-path="url(#pb6dd46859f)">
     <use style="stroke:#000000;" x="78.819176" xlink:href="#mcd23355980" y="116.210044"/>
     <use style="stroke:#000000;" x="85.923072" xlink:href="#mcd23355980" y="98.790393"/>
     <use style="stroke:#000000;" x="93.026968" xlink:href="#mcd23355980" y="39.56358"/>
     <use style="stroke:#000000;" x="100.130864" xlink:href="#mcd23355980" y="50.01537"/>
     <use style="stroke:#000000;" x="107.234761" xlink:href="#mcd23355980" y="53.4993"/>
     <use style="stroke:#000000;" x="114.338657" xlink:href="#mcd23355980" y="56.983231"/>
     <use style="stroke:#000000;" x="121.442553" xlink:href="#mcd23355980" y="56.983231"/>
     <use style="stroke:#000000;" x="128.546449" xlink:href="#mcd23355980" y="88.338603"/>
     <use style="stroke:#000000;" x="135.650345" xlink:href="#mcd23355980" y="77.886812"/>
     <use style="stroke:#000000;" x="142.754241" xlink:href="#mcd23355980" y="84.854672"/>
     <use style="stroke:#000000;" x="149.858137" xlink:href="#mcd23355980" y="77.886812"/>
     <use style="stroke:#000000;" x="156.962033" xlink:href="#mcd23355980" y="70.918951"/>
     <use style="stroke:#000000;" x="164.065929" xlink:href="#mcd23355980" y="67.435021"/>
     <use style="stroke:#000000;" x="171.169825" xlink:href="#mcd23355980" y="70.918951"/>
     <use style="stroke:#000000;" x="178.273722" xlink:href="#mcd23355980" y="70.918951"/>
     <use style="stroke:#000000;" x="185.377618" xlink:href="#mcd23355980" y="50.01537"/>
     <use style="stroke:#000000;" x="192.481514" xlink:href="#mcd23355980" y="60.467161"/>
     <use style="stroke:#000000;" x="199.58541" xlink:href="#mcd23355980" y="67.435021"/>
     <use style="stroke:#000000;" x="206.689306" xlink:href="#mcd23355980" y="67.435021"/>
     <use style="stroke:#000000;" x="213.793202" xlink:href="#mcd23355980" y="77.886812"/>
     <use style="stroke:#000000;" x="220.897098" xlink:href="#mcd23355980" y="56.983231"/>
     <use style="stroke:#000000;" x="228.000994" xlink:href="#mcd23355980" y="74.402882"/>
     <use style="stroke:#000000;" x="235.10489" xlink:href="#mcd23355980" y="60.467161"/>
     <use style="stroke:#000000;" x="242.208787" xlink:href="#mcd23355980" y="74.402882"/>
     <use style="stroke:#000000;" x="249.312683" xlink:href="#mcd23355980" y="81.370742"/>
     <use style="stroke:#000000;" x="256.416579" xlink:href="#mcd23355980" y="74.402882"/>
     <use style="stroke:#000000;" x="263.520475" xlink:href="#mcd23355980" y="77.886812"/>
     <use style="stroke:#000000;" x="270.624371" xlink:href="#mcd23355980" y="81.370742"/>
     <use style="stroke:#000000;" x="277.728267" xlink:href="#mcd23355980" y="109.242184"/>
     <use style="stroke:#000000;" x="284.832163" xlink:href="#mcd23355980" y="112.726114"/>
     <use style="stroke:#000000;" x="291.936059" xlink:href="#mcd23355980" y="84.854672"/>
     <use style="stroke:#000000;" x="299.039955" xlink:href="#mcd23355980" y="126.661835"/>
     <use style="stroke:#000000;" x="306.143851" xlink:href="#mcd23355980" y="147.565416"/>
     <use style="stroke:#000000;" x="313.247748" xlink:href="#mcd23355980" y="147.565416"/>
     <use style="stroke:#000000;" x="320.351644" xlink:href="#mcd23355980" y="171.952928"/>
     <use style="stroke:#000000;" x="327.45554" xlink:href="#mcd23355980" y="248.599392"/>
     <use style="stroke:#000000;" x="334.559436" xlink:href="#mcd23355980" y="269.502973"/>
     <use style="stroke:#000000;" x="341.663332" xlink:href="#mcd23355980" y="231.179741"/>
     <use style="stroke:#000000;" x="348.767228" xlink:href="#mcd23355980" y="321.761927"/>
     <use style="stroke:#000000;" x="355.871124" xlink:href="#mcd23355980" y="328.729787"/>
     <use style="stroke:#000000;" x="362.97502" xlink:href="#mcd23355980" y="332.213717"/>
     <use style="stroke:#000000;" x="370.078916" xlink:href="#mcd23355980" y="339.181578"/>
     <use style="stroke:#000000;" x="377.182812" xlink:href="#mcd23355980" y="363.569089"/>
     <use style="stroke:#000000;" x="384.286709" xlink:href="#mcd23355980" y="370.53695"/>
     <use style="stroke:#000000;" x="391.390605" xlink:href="#mcd23355980" y="332.213717"/>
     <use style="stroke:#000000;" x="398.494501" xlink:href="#mcd23355980" y="332.213717"/>
     <use style="stroke:#000000;" x="405.598397" xlink:href="#mcd23355980" y="335.697647"/>
     <use style="stroke:#000000;" x="412.702293" xlink:href="#mcd23355980" y="335.697647"/>
     <use style="stroke:#000000;" x="419.806189" xlink:href="#mcd23355980" y="339.181578"/>
     <use style="stroke:#000000;" x="426.910085" xlink:href="#mcd23355980" y="356.601229"/>
     <use style="stroke:#000000;" x="434.013981" xlink:href="#mcd23355980" y="360.085159"/>
     <use style="stroke:#000000;" x="441.117877" xlink:href="#mcd23355980" y="328.729787"/>
     <use style="stroke:#000000;" x="448.221774" xlink:href="#mcd23355980" y="328.729787"/>
     <use style="stroke:#000000;" x="455.32567" xlink:href="#mcd23355980" y="328.729787"/>
     <use style="stroke:#000000;" x="462.429566" xlink:href="#mcd23355980" y="321.761927"/>
     <use style="stroke:#000000;" x="469.533462" xlink:href="#mcd23355980" y="346.149438"/>
     <use style="stroke:#000000;" x="476.637358" xlink:href="#mcd23355980" y="356.601229"/>
     <use style="stroke:#000000;" x="483.741254" xlink:href="#mcd23355980" y="384.47267"/>
     <use style="stroke:#000000;" x="490.84515" xlink:href="#mcd23355980" y="346.149438"/>
     <use style="stroke:#000000;" x="497.949046" xlink:href="#mcd23355980" y="321.761927"/>
     <use style="stroke:#000000;" x="505.052942" xlink:href="#mcd23355980" y="325.245857"/>
     <use style="stroke:#000000;" x="512.156838" xlink:href="#mcd23355980" y="328.729787"/>
     <use style="stroke:#000000;" x="519.260735" xlink:href="#mcd23355980" y="335.697647"/>
     <use style="stroke:#000000;" x="526.364631" xlink:href="#mcd23355980" y="356.601229"/>
     <use style="stroke:#000000;" x="533.468527" xlink:href="#mcd23355980" y="353.117299"/>
     <use style="stroke:#000000;" x="540.572423" xlink:href="#mcd23355980" y="321.761927"/>
     <use style="stroke:#000000;" x="547.676319" xlink:href="#mcd23355980" y="325.245857"/>
     <use style="stroke:#000000;" x="554.780215" xlink:href="#mcd23355980" y="325.245857"/>
     <use style="stroke:#000000;" x="561.884111" xlink:href="#mcd23355980" y="325.245857"/>
     <use style="stroke:#000000;" x="568.988007" xlink:href="#mcd23355980" y="328.729787"/>
     <use style="stroke:#000000;" x="576.091903" xlink:href="#mcd23355980" y="346.149438"/>
     <use style="stroke:#000000;" x="583.1958" xlink:href="#mcd23355980" y="346.149438"/>
     <use style="stroke:#000000;" x="590.299696" xlink:href="#mcd23355980" y="314.794066"/>
     <use style="stroke:#000000;" x="597.403592" xlink:href="#mcd23355980" y="332.213717"/>
     <use style="stroke:#000000;" x="604.507488" xlink:href="#mcd23355980" y="328.729787"/>
     <use style="stroke:#000000;" x="611.611384" xlink:href="#mcd23355980" y="332.213717"/>
     <use style="stroke:#000000;" x="618.71528" xlink:href="#mcd23355980" y="332.213717"/>
     <use style="stroke:#000000;" x="625.819176" xlink:href="#mcd23355980" y="346.149438"/>
     <use style="stroke:#000000;" x="632.923072" xlink:href="#mcd23355980" y="349.633368"/>
     <use style="stroke:#000000;" x="640.026968" xlink:href="#mcd23355980" y="314.794066"/>
     <use style="stroke:#000000;" x="647.130864" xlink:href="#mcd23355980" y="318.277996"/>
     <use style="stroke:#000000;" x="654.234761" xlink:href="#mcd23355980" y="314.794066"/>
     <use style="stroke:#000000;" x="661.338657" xlink:href="#mcd23355980" y="307.826206"/>
     <use style="stroke:#000000;" x="668.442553" xlink:href="#mcd23355980" y="335.697647"/>
     <use style="stroke:#000000;" x="675.546449" xlink:href="#mcd23355980" y="346.149438"/>
    </g>
   </g>
   <g id="line2d_26">
    <path clip-path="url(#pb6dd46859f)" d="M 78.819176 100.232044 
L 85.923072 92.104582 
L 93.026968 58.131587 
L 100.130864 61.61073 
L 107.234761 60.271893 
L 114.338657 57.688865 
L 121.442553 63.209998 
L 128.546449 85.449956 
L 135.650345 83.945223 
L 142.754241 56.59259 
L 149.858137 66.692096 
L 156.962033 65.351258 
L 164.065929 61.485234 
L 171.169825 65.723005 
L 178.273722 86.6796 
L 185.377618 83.891505 
L 192.481514 55.257878 
L 199.58541 64.07749 
L 206.689306 61.456758 
L 213.793202 57.591835 
L 220.897098 61.830707 
L 228.000994 82.788403 
L 235.10489 84.218155 
L 242.208787 59.802375 
L 249.312683 72.838734 
L 256.416579 74.434748 
L 263.520475 74.786572 
L 270.624371 83.24219 
L 277.728267 108.417014 
L 284.832163 109.847148 
L 291.936059 98.184313 
L 299.039955 123.973616 
L 306.143851 138.322575 
L 313.247748 160.589135 
L 320.351644 190.959489 
L 327.45554 238.048668 
L 334.559436 261.393156 
L 341.663332 258.892112 
L 348.767228 293.843207 
L 355.871124 315.626419 
L 362.97502 336.16544 
L 370.078916 340.724874 
L 377.182812 362.003132 
L 384.286709 359.5367 
L 391.390605 331.223994 
L 398.494501 340.363426 
L 405.598397 338.062514 
L 412.702293 334.517412 
L 419.806189 339.076104 
L 426.910085 360.35362 
L 434.013981 357.886446 
L 441.117877 329.57374 
L 448.221774 338.713269 
L 455.32567 336.412454 
L 462.429566 332.867449 
L 469.533462 337.426238 
L 476.637358 358.703852 
L 483.741254 355.895174 
L 490.84515 327.240964 
L 497.949046 336.038893 
L 505.052942 333.396478 
L 512.156838 329.509871 
L 519.260735 333.72706 
L 526.364631 354.663073 
L 533.468527 351.854395 
L 540.572423 323.200185 
L 547.676319 331.998114 
L 554.780215 329.355699 
L 561.884111 325.550723 
L 568.988007 329.849543 
L 576.091903 350.867186 
L 583.1958 348.14014 
L 590.299696 319.567561 
L 597.403592 328.447121 
L 604.507488 325.886336 
L 611.611384 322.081361 
L 618.71528 326.38018 
L 625.819176 347.397824 
L 632.923072 344.670778 
L 640.026968 316.098199 
L 647.130864 324.977758 
L 654.234761 322.416974 
L 661.338657 318.611998 
L 668.442553 322.910818 
L 675.546449 343.928462 
" style="fill:none;stroke:#0072b2;stroke-linecap:square;stroke-width:1.5;"/>
   </g>
   <g id="line2d_27">
    <path clip-path="url(#pb6dd46859f)" d="M 78.819176 82.475997 
L 85.923072 76.579958 
L 93.026968 70.683918 
L 100.130864 64.787879 
L 107.234761 65.514203 
L 114.338657 66.240527 
L 121.442553 66.967218 
L 128.546449 67.693908 
L 135.650345 68.420599 
L 142.754241 69.144922 
L 149.858137 69.869245 
L 156.962033 70.593568 
L 164.065929 70.036896 
L 171.169825 69.480224 
L 178.273722 68.923552 
L 185.377618 68.366881 
L 192.481514 67.810209 
L 199.58541 67.254638 
L 206.689306 66.699068 
L 213.793202 66.143497 
L 220.897098 65.587926 
L 228.000994 65.032355 
L 235.10489 68.693531 
L 242.208787 72.354707 
L 249.312683 76.015883 
L 256.416579 79.677058 
L 263.520475 83.338234 
L 270.624371 86.99941 
L 277.728267 90.660967 
L 284.832163 94.322524 
L 291.936059 110.736644 
L 299.039955 127.150765 
L 306.143851 143.564885 
L 313.247748 169.140797 
L 320.351644 194.716709 
L 327.45554 220.29262 
L 334.559436 245.868532 
L 341.663332 271.444444 
L 348.767228 297.020356 
L 355.871124 320.868729 
L 362.97502 344.717102 
L 370.078916 344.482093 
L 377.182812 344.247085 
L 384.286709 344.012076 
L 391.390605 343.776325 
L 398.494501 343.540575 
L 405.598397 343.304824 
L 412.702293 343.069074 
L 419.806189 342.833323 
L 426.910085 342.597573 
L 434.013981 342.361822 
L 441.117877 342.126071 
L 448.221774 341.890418 
L 455.32567 341.654764 
L 462.429566 341.419111 
L 469.533462 341.183458 
L 476.637358 340.947804 
L 483.741254 340.37055 
L 490.84515 339.793296 
L 497.949046 339.216042 
L 505.052942 338.638788 
L 512.156838 338.061533 
L 519.260735 337.484279 
L 526.364631 336.907025 
L 533.468527 336.329771 
L 540.572423 335.752517 
L 547.676319 335.175263 
L 554.780215 334.598009 
L 561.884111 334.102385 
L 568.988007 333.606762 
L 576.091903 333.111139 
L 583.1958 332.615516 
L 590.299696 332.119893 
L 597.403592 331.624269 
L 604.507488 331.128646 
L 611.611384 330.633023 
L 618.71528 330.1374 
L 625.819176 329.641777 
L 632.923072 329.146153 
L 640.026968 328.65053 
L 647.130864 328.154907 
L 654.234761 327.659284 
L 661.338657 327.163661 
L 668.442553 326.668037 
L 675.546449 326.172414 
" style="fill:none;stroke:#0000ff;stroke-linecap:square;stroke-width:1.5;"/>
   </g>
   <g id="line2d_28">
    <path clip-path="url(#pb6dd46859f)" d="M 100.130864 401.718125 
L 100.130864 22.318125 
" style="fill:none;stroke:#0000ff;stroke-dasharray:5.55,2.4;stroke-dashoffset:0;stroke-width:1.5;"/>
   </g>
   <g id="line2d_29">
    <path clip-path="url(#pb6dd46859f)" d="M 156.962033 401.718125 
L 156.962033 22.318125 
" style="fill:none;stroke:#0000ff;stroke-dasharray:5.55,2.4;stroke-dashoffset:0;stroke-width:1.5;"/>
   </g>
   <g id="line2d_30">
    <path clip-path="url(#pb6dd46859f)" d="M 228.000994 401.718125 
L 228.000994 22.318125 
" style="fill:none;stroke:#0000ff;stroke-dasharray:5.55,2.4;stroke-dashoffset:0;stroke-width:1.5;"/>
   </g>
   <g id="line2d_31">
    <path clip-path="url(#pb6dd46859f)" d="M 284.832163 401.718125 
L 284.832163 22.318125 
" style="fill:none;stroke:#0000ff;stroke-dasharray:5.55,2.4;stroke-dashoffset:0;stroke-width:1.5;"/>
   </g>
   <g id="line2d_32">
    <path clip-path="url(#pb6dd46859f)" d="M 306.143851 401.718125 
L 306.143851 22.318125 
" style="fill:none;stroke:#0000ff;stroke-dasharray:5.55,2.4;stroke-dashoffset:0;stroke-width:1.5;"/>
   </g>
   <g id="line2d_33">
    <path clip-path="url(#pb6dd46859f)" d="M 348.767228 401.718125 
L 348.767228 22.318125 
" style="fill:none;stroke:#0000ff;stroke-dasharray:5.55,2.4;stroke-dashoffset:0;stroke-width:1.5;"/>
   </g>
   <g id="line2d_34">
    <path clip-path="url(#pb6dd46859f)" d="M 362.97502 401.718125 
L 362.97502 22.318125 
" style="fill:none;stroke:#0000ff;stroke-dasharray:5.55,2.4;stroke-dashoffset:0;stroke-width:1.5;"/>
   </g>
   <g id="line2d_35">
    <path clip-path="url(#pb6dd46859f)" d="M 476.637358 401.718125 
L 476.637358 22.318125 
" style="fill:none;stroke:#0000ff;stroke-dasharray:5.55,2.4;stroke-dashoffset:0;stroke-width:1.5;"/>
   </g>
   <g id="line2d_36">
    <path clip-path="url(#pb6dd46859f)" d="M 554.780215 401.718125 
L 554.780215 22.318125 
" style="fill:none;stroke:#0000ff;stroke-dasharray:5.55,2.4;stroke-dashoffset:0;stroke-width:1.5;"/>
   </g>
   <g id="line2d_37">
    <path clip-path="url(#pb6dd46859f)" d="M 284.832163 401.718125 
L 284.832163 22.318125 
" style="fill:none;stroke:#ff0000;stroke-linecap:square;stroke-width:3;"/>
   </g>
   <g id="patch_3">
    <path d="M 48.982813 401.718125 
L 48.982813 22.318125 
" style="fill:none;stroke:#000000;stroke-linecap:square;stroke-linejoin:miter;stroke-width:0.8;"/>
   </g>
   <g id="patch_4">
    <path d="M 705.382813 401.718125 
L 705.382813 22.318125 
" style="fill:none;stroke:#000000;stroke-linecap:square;stroke-linejoin:miter;stroke-width:0.8;"/>
   </g>
   <g id="patch_5">
    <path d="M 48.982812 401.718125 
L 705.382812 401.718125 
" style="fill:none;stroke:#000000;stroke-linecap:square;stroke-linejoin:miter;stroke-width:0.8;"/>
   </g>
   <g id="patch_6">
    <path d="M 48.982812 22.318125 
L 705.382812 22.318125 
" style="fill:none;stroke:#000000;stroke-linecap:square;stroke-linejoin:miter;stroke-width:0.8;"/>
   </g>
   <g id="text_15">
    <!-- Retail and Recreation Mobility Graph for United Kingdom -->
    <defs>
     <path d="M 59.515625 10.40625 
L 59.515625 29.984375 
L 43.40625 29.984375 
L 43.40625 38.09375 
L 69.28125 38.09375 
L 69.28125 6.78125 
Q 63.578125 2.734375 56.6875 0.65625 
Q 49.8125 -1.421875 42 -1.421875 
Q 24.90625 -1.421875 15.25 8.5625 
Q 5.609375 18.5625 5.609375 36.375 
Q 5.609375 54.25 15.25 64.234375 
Q 24.90625 74.21875 42 74.21875 
Q 49.125 74.21875 55.546875 72.453125 
Q 61.96875 70.703125 67.390625 67.28125 
L 67.390625 56.78125 
Q 61.921875 61.421875 55.765625 63.765625 
Q 49.609375 66.109375 42.828125 66.109375 
Q 29.4375 66.109375 22.71875 58.640625 
Q 16.015625 51.171875 16.015625 36.375 
Q 16.015625 21.625 22.71875 14.15625 
Q 29.4375 6.6875 42.828125 6.6875 
Q 48.046875 6.6875 52.140625 7.59375 
Q 56.25 8.5 59.515625 10.40625 
z
" id="DejaVuSans-71"/>
     <path d="M 18.109375 8.203125 
L 18.109375 -20.796875 
L 9.078125 -20.796875 
L 9.078125 54.6875 
L 18.109375 54.6875 
L 18.109375 46.390625 
Q 20.953125 51.265625 25.265625 53.625 
Q 29.59375 56 35.59375 56 
Q 45.5625 56 51.78125 48.09375 
Q 58.015625 40.1875 58.015625 27.296875 
Q 58.015625 14.40625 51.78125 6.484375 
Q 45.5625 -1.421875 35.59375 -1.421875 
Q 29.59375 -1.421875 25.265625 0.953125 
Q 20.953125 3.328125 18.109375 8.203125 
z
M 48.6875 27.296875 
Q 48.6875 37.203125 44.609375 42.84375 
Q 40.53125 48.484375 33.40625 48.484375 
Q 26.265625 48.484375 22.1875 42.84375 
Q 18.109375 37.203125 18.109375 27.296875 
Q 18.109375 17.390625 22.1875 11.75 
Q 26.265625 6.109375 33.40625 6.109375 
Q 40.53125 6.109375 44.609375 11.75 
Q 48.6875 17.390625 48.6875 27.296875 
z
" id="DejaVuSans-112"/>
     <path d="M 54.890625 33.015625 
L 54.890625 0 
L 45.90625 0 
L 45.90625 32.71875 
Q 45.90625 40.484375 42.875 44.328125 
Q 39.84375 48.1875 33.796875 48.1875 
Q 26.515625 48.1875 22.3125 43.546875 
Q 18.109375 38.921875 18.109375 30.90625 
L 18.109375 0 
L 9.078125 0 
L 9.078125 75.984375 
L 18.109375 75.984375 
L 18.109375 46.1875 
Q 21.34375 51.125 25.703125 53.5625 
Q 30.078125 56 35.796875 56 
Q 45.21875 56 50.046875 50.171875 
Q 54.890625 44.34375 54.890625 33.015625 
z
" id="DejaVuSans-104"/>
     <path d="M 37.109375 75.984375 
L 37.109375 68.5 
L 28.515625 68.5 
Q 23.6875 68.5 21.796875 66.546875 
Q 19.921875 64.59375 19.921875 59.515625 
L 19.921875 54.6875 
L 34.71875 54.6875 
L 34.71875 47.703125 
L 19.921875 47.703125 
L 19.921875 0 
L 10.890625 0 
L 10.890625 47.703125 
L 2.296875 47.703125 
L 2.296875 54.6875 
L 10.890625 54.6875 
L 10.890625 58.5 
Q 10.890625 67.625 15.140625 71.796875 
Q 19.390625 75.984375 28.609375 75.984375 
z
" id="DejaVuSans-102"/>
     <path d="M 8.6875 72.90625 
L 18.609375 72.90625 
L 18.609375 28.609375 
Q 18.609375 16.890625 22.84375 11.734375 
Q 27.09375 6.59375 36.625 6.59375 
Q 46.09375 6.59375 50.34375 11.734375 
Q 54.59375 16.890625 54.59375 28.609375 
L 54.59375 72.90625 
L 64.5 72.90625 
L 64.5 27.390625 
Q 64.5 13.140625 57.4375 5.859375 
Q 50.390625 -1.421875 36.625 -1.421875 
Q 22.796875 -1.421875 15.734375 5.859375 
Q 8.6875 13.140625 8.6875 27.390625 
z
" id="DejaVuSans-85"/>
     <path d="M 9.8125 72.90625 
L 19.671875 72.90625 
L 19.671875 42.09375 
L 52.390625 72.90625 
L 65.09375 72.90625 
L 28.90625 38.921875 
L 67.671875 0 
L 54.6875 0 
L 19.671875 35.109375 
L 19.671875 0 
L 9.8125 0 
z
" id="DejaVuSans-75"/>
     <path d="M 45.40625 27.984375 
Q 45.40625 37.75 41.375 43.109375 
Q 37.359375 48.484375 30.078125 48.484375 
Q 22.859375 48.484375 18.828125 43.109375 
Q 14.796875 37.75 14.796875 27.984375 
Q 14.796875 18.265625 18.828125 12.890625 
Q 22.859375 7.515625 30.078125 7.515625 
Q 37.359375 7.515625 41.375 12.890625 
Q 45.40625 18.265625 45.40625 27.984375 
z
M 54.390625 6.78125 
Q 54.390625 -7.171875 48.1875 -13.984375 
Q 42 -20.796875 29.203125 -20.796875 
Q 24.46875 -20.796875 20.265625 -20.09375 
Q 16.0625 -19.390625 12.109375 -17.921875 
L 12.109375 -9.1875 
Q 16.0625 -11.328125 19.921875 -12.34375 
Q 23.78125 -13.375 27.78125 -13.375 
Q 36.625 -13.375 41.015625 -8.765625 
Q 45.40625 -4.15625 45.40625 5.171875 
L 45.40625 9.625 
Q 42.625 4.78125 38.28125 2.390625 
Q 33.9375 0 27.875 0 
Q 17.828125 0 11.671875 7.65625 
Q 5.515625 15.328125 5.515625 27.984375 
Q 5.515625 40.671875 11.671875 48.328125 
Q 17.828125 56 27.875 56 
Q 33.9375 56 38.28125 53.609375 
Q 42.625 51.21875 45.40625 46.390625 
L 45.40625 54.6875 
L 54.390625 54.6875 
z
" id="DejaVuSans-103"/>
     <path d="M 52 44.1875 
Q 55.375 50.25 60.0625 53.125 
Q 64.75 56 71.09375 56 
Q 79.640625 56 84.28125 50.015625 
Q 88.921875 44.046875 88.921875 33.015625 
L 88.921875 0 
L 79.890625 0 
L 79.890625 32.71875 
Q 79.890625 40.578125 77.09375 44.375 
Q 74.3125 48.1875 68.609375 48.1875 
Q 61.625 48.1875 57.5625 43.546875 
Q 53.515625 38.921875 53.515625 30.90625 
L 53.515625 0 
L 44.484375 0 
L 44.484375 32.71875 
Q 44.484375 40.625 41.703125 44.40625 
Q 38.921875 48.1875 33.109375 48.1875 
Q 26.21875 48.1875 22.15625 43.53125 
Q 18.109375 38.875 18.109375 30.90625 
L 18.109375 0 
L 9.078125 0 
L 9.078125 54.6875 
L 18.109375 54.6875 
L 18.109375 46.1875 
Q 21.1875 51.21875 25.484375 53.609375 
Q 29.78125 56 35.6875 56 
Q 41.65625 56 45.828125 52.96875 
Q 50 49.953125 52 44.1875 
z
" id="DejaVuSans-109"/>
    </defs>
    <g transform="translate(207.0425 16.318125)scale(0.12 -0.12)">
     <use xlink:href="#DejaVuSans-82"/>
     <use x="64.982422" xlink:href="#DejaVuSans-101"/>
     <use x="126.505859" xlink:href="#DejaVuSans-116"/>
     <use x="165.714844" xlink:href="#DejaVuSans-97"/>
     <use x="226.994141" xlink:href="#DejaVuSans-105"/>
     <use x="254.777344" xlink:href="#DejaVuSans-108"/>
     <use x="282.560547" xlink:href="#DejaVuSans-32"/>
     <use x="314.347656" xlink:href="#DejaVuSans-97"/>
     <use x="375.626953" xlink:href="#DejaVuSans-110"/>
     <use x="439.005859" xlink:href="#DejaVuSans-100"/>
     <use x="502.482422" xlink:href="#DejaVuSans-32"/>
     <use x="534.269531" xlink:href="#DejaVuSans-82"/>
     <use x="599.251953" xlink:href="#DejaVuSans-101"/>
     <use x="660.775391" xlink:href="#DejaVuSans-99"/>
     <use x="715.755859" xlink:href="#DejaVuSans-114"/>
     <use x="754.619141" xlink:href="#DejaVuSans-101"/>
     <use x="816.142578" xlink:href="#DejaVuSans-97"/>
     <use x="877.421875" xlink:href="#DejaVuSans-116"/>
     <use x="916.630859" xlink:href="#DejaVuSans-105"/>
     <use x="944.414062" xlink:href="#DejaVuSans-111"/>
     <use x="1005.595703" xlink:href="#DejaVuSans-110"/>
     <use x="1068.974609" xlink:href="#DejaVuSans-32"/>
     <use x="1100.761719" xlink:href="#DejaVuSans-77"/>
     <use x="1187.041016" xlink:href="#DejaVuSans-111"/>
     <use x="1248.222656" xlink:href="#DejaVuSans-98"/>
     <use x="1311.699219" xlink:href="#DejaVuSans-105"/>
     <use x="1339.482422" xlink:href="#DejaVuSans-108"/>
     <use x="1367.265625" xlink:href="#DejaVuSans-105"/>
     <use x="1395.048828" xlink:href="#DejaVuSans-116"/>
     <use x="1434.257812" xlink:href="#DejaVuSans-121"/>
     <use x="1493.4375" xlink:href="#DejaVuSans-32"/>
     <use x="1525.224609" xlink:href="#DejaVuSans-71"/>
     <use x="1602.714844" xlink:href="#DejaVuSans-114"/>
     <use x="1643.828125" xlink:href="#DejaVuSans-97"/>
     <use x="1705.107422" xlink:href="#DejaVuSans-112"/>
     <use x="1768.583984" xlink:href="#DejaVuSans-104"/>
     <use x="1831.962891" xlink:href="#DejaVuSans-32"/>
     <use x="1863.75" xlink:href="#DejaVuSans-102"/>
     <use x="1898.955078" xlink:href="#DejaVuSans-111"/>
     <use x="1960.136719" xlink:href="#DejaVuSans-114"/>
     <use x="2001.25" xlink:href="#DejaVuSans-32"/>
     <use x="2033.037109" xlink:href="#DejaVuSans-85"/>
     <use x="2106.230469" xlink:href="#DejaVuSans-110"/>
     <use x="2169.609375" xlink:href="#DejaVuSans-105"/>
     <use x="2197.392578" xlink:href="#DejaVuSans-116"/>
     <use x="2236.601562" xlink:href="#DejaVuSans-101"/>
     <use x="2298.125" xlink:href="#DejaVuSans-100"/>
     <use x="2361.601562" xlink:href="#DejaVuSans-32"/>
     <use x="2393.388672" xlink:href="#DejaVuSans-75"/>
     <use x="2458.964844" xlink:href="#DejaVuSans-105"/>
     <use x="2486.748047" xlink:href="#DejaVuSans-110"/>
     <use x="2550.126953" xlink:href="#DejaVuSans-103"/>
     <use x="2613.603516" xlink:href="#DejaVuSans-100"/>
     <use x="2677.080078" xlink:href="#DejaVuSans-111"/>
     <use x="2738.261719" xlink:href="#DejaVuSans-109"/>
    </g>
   </g>
   <g id="legend_1">
    <g id="patch_7">
     <path d="M 543.907813 44.99625 
L 698.382813 44.99625 
Q 700.382813 44.99625 700.382813 42.99625 
L 700.382813 29.318125 
Q 700.382813 27.318125 698.382813 27.318125 
L 543.907813 27.318125 
Q 541.907813 27.318125 541.907813 29.318125 
L 541.907813 42.99625 
Q 541.907813 44.99625 543.907813 44.99625 
z
" style="fill:#ffffff;opacity:0.8;stroke:#cccccc;stroke-linejoin:miter;"/>
    </g>
    <g id="line2d_38">
     <path d="M 545.907813 35.416562 
L 565.907813 35.416562 
" style="fill:none;stroke:#ff0000;stroke-linecap:square;stroke-width:3;"/>
    </g>
    <g id="line2d_39"/>
    <g id="text_16">
     <!-- Effective Lockdown date -->
     <defs>
      <path d="M 9.8125 72.90625 
L 55.90625 72.90625 
L 55.90625 64.59375 
L 19.671875 64.59375 
L 19.671875 43.015625 
L 54.390625 43.015625 
L 54.390625 34.71875 
L 19.671875 34.71875 
L 19.671875 8.296875 
L 56.78125 8.296875 
L 56.78125 0 
L 9.8125 0 
z
" id="DejaVuSans-69"/>
      <path d="M 2.984375 54.6875 
L 12.5 54.6875 
L 29.59375 8.796875 
L 46.6875 54.6875 
L 56.203125 54.6875 
L 35.6875 0 
L 23.484375 0 
z
" id="DejaVuSans-118"/>
      <path d="M 9.8125 72.90625 
L 19.671875 72.90625 
L 19.671875 8.296875 
L 55.171875 8.296875 
L 55.171875 0 
L 9.8125 0 
z
" id="DejaVuSans-76"/>
      <path d="M 9.078125 75.984375 
L 18.109375 75.984375 
L 18.109375 31.109375 
L 44.921875 54.6875 
L 56.390625 54.6875 
L 27.390625 29.109375 
L 57.625 0 
L 45.90625 0 
L 18.109375 26.703125 
L 18.109375 0 
L 9.078125 0 
z
" id="DejaVuSans-107"/>
      <path d="M 4.203125 54.6875 
L 13.1875 54.6875 
L 24.421875 12.015625 
L 35.59375 54.6875 
L 46.1875 54.6875 
L 57.421875 12.015625 
L 68.609375 54.6875 
L 77.59375 54.6875 
L 63.28125 0 
L 52.6875 0 
L 40.921875 44.828125 
L 29.109375 0 
L 18.5 0 
z
" id="DejaVuSans-119"/>
     </defs>
     <g transform="translate(573.907813 38.916562)scale(0.1 -0.1)">
      <use xlink:href="#DejaVuSans-69"/>
      <use x="63.183594" xlink:href="#DejaVuSans-102"/>
      <use x="98.388672" xlink:href="#DejaVuSans-102"/>
      <use x="133.59375" xlink:href="#DejaVuSans-101"/>
      <use x="195.117188" xlink:href="#DejaVuSans-99"/>
      <use x="250.097656" xlink:href="#DejaVuSans-116"/>
      <use x="289.306641" xlink:href="#DejaVuSans-105"/>
      <use x="317.089844" xlink:href="#DejaVuSans-118"/>
      <use x="376.269531" xlink:href="#DejaVuSans-101"/>
      <use x="437.792969" xlink:href="#DejaVuSans-32"/>
      <use x="469.580078" xlink:href="#DejaVuSans-76"/>
      <use x="523.542969" xlink:href="#DejaVuSans-111"/>
      <use x="584.724609" xlink:href="#DejaVuSans-99"/>
      <use x="639.705078" xlink:href="#DejaVuSans-107"/>
      <use x="697.615234" xlink:href="#DejaVuSans-100"/>
      <use x="761.091797" xlink:href="#DejaVuSans-111"/>
      <use x="822.273438" xlink:href="#DejaVuSans-119"/>
      <use x="904.060547" xlink:href="#DejaVuSans-110"/>
      <use x="967.439453" xlink:href="#DejaVuSans-32"/>
      <use x="999.226562" xlink:href="#DejaVuSans-100"/>
      <use x="1062.703125" xlink:href="#DejaVuSans-97"/>
      <use x="1123.982422" xlink:href="#DejaVuSans-116"/>
      <use x="1163.191406" xlink:href="#DejaVuSans-101"/>
     </g>
    </g>
   </g>
  </g>
 </g>
 <defs>
  <clipPath id="pb6dd46859f">
   <rect height="379.4" width="656.4" x="48.982813" y="22.318125"/>
  </clipPath>
 </defs>
</svg>
