<?xml version="1.0" encoding="utf-8" standalone="no"?>
<!DOCTYPE svg PUBLIC "-//W3C//DTD SVG 1.1//EN"
  "http://www.w3.org/Graphics/SVG/1.1/DTD/svg11.dtd">
<!-- Created with matplotlib (https://matplotlib.org/) -->
<svg height="439.274375pt" version="1.1" viewBox="0 0 712.385938 439.274375" width="712.385938pt" xmlns="http://www.w3.org/2000/svg" xmlns:xlink="http://www.w3.org/1999/xlink">
 <defs>
  <style type="text/css">
*{stroke-linecap:butt;stroke-linejoin:round;}
  </style>
 </defs>
 <g id="figure_1">
  <g id="patch_1">
   <path d="M 0 439.274375 
L 712.385938 439.274375 
L 712.385938 0 
L 0 0 
z
" style="fill:#ffffff;"/>
  </g>
  <g id="axes_1">
   <g id="patch_2">
    <path d="M 52.160938 401.718125 
L 705.185938 401.718125 
L 705.185938 22.318125 
L 52.160938 22.318125 
z
" style="fill:#ffffff;"/>
   </g>
   <g id="PolyCollection_1">
    <defs>
     <path d="M 81.843892 -200.820822 
L 81.843892 -95.631202 
L 88.911262 -89.560385 
L 95.978632 -94.666137 
L 103.046002 -90.696028 
L 110.113373 -111.931392 
L 117.180743 -122.426253 
L 124.248113 -162.561656 
L 131.315483 -160.804935 
L 138.382853 -158.424032 
L 145.450223 -180.866638 
L 152.517593 -179.031947 
L 159.584963 -203.486436 
L 166.652334 -220.277512 
L 173.719704 -257.929275 
L 180.787074 -232.077534 
L 187.854444 -220.152062 
L 194.921814 -212.935379 
L 201.989184 -199.519286 
L 209.056554 -207.721817 
L 216.123925 -207.946071 
L 223.191295 -228.977638 
L 230.258665 -215.567922 
L 237.326035 -196.697267 
L 244.393405 -197.797615 
L 251.460775 -180.930634 
L 258.528145 -191.928863 
L 265.595515 -190.871202 
L 272.662886 -211.38972 
L 279.730256 -195.257787 
L 286.797626 -176.160499 
L 293.864996 -174.635321 
L 300.932366 -166.873932 
L 307.999736 -172.193236 
L 315.067106 -175.876937 
L 322.134476 -197.68928 
L 329.201847 -176.562695 
L 336.269217 -163.369194 
L 343.336587 -165.774491 
L 350.403957 -148.712052 
L 357.471327 -162.020803 
L 364.538697 -167.144983 
L 371.606067 -188.436572 
L 378.673438 -172.840614 
L 385.740808 -157.002633 
L 392.808178 -155.106031 
L 399.875548 -140.23702 
L 406.942918 -153.312525 
L 414.010288 -153.617764 
L 421.077658 -178.461776 
L 428.145028 -166.088782 
L 435.212399 -145.397445 
L 442.279769 -150.628206 
L 449.347139 -133.848413 
L 456.414509 -149.117076 
L 463.481879 -154.081654 
L 470.549249 -180.370083 
L 477.616619 -165.833963 
L 484.683989 -153.771606 
L 491.75136 -154.302897 
L 498.81873 -143.019875 
L 505.8861 -156.63815 
L 512.95347 -160.956024 
L 520.02084 -188.3593 
L 527.08821 -163.6475 
L 534.15558 -143.122674 
L 541.22295 -140.840921 
L 548.290321 -119.68478 
L 555.357691 -127.198411 
L 562.425061 -127.060513 
L 569.492431 -153.950933 
L 576.559801 -133.576343 
L 583.627171 -122.507582 
L 590.694541 -123.332194 
L 597.761912 -106.986916 
L 604.829282 -118.514513 
L 611.896652 -125.583444 
L 618.964022 -149.792363 
L 626.031392 -132.11382 
L 633.098762 -122.280112 
L 640.166132 -117.979854 
L 647.233502 -106.748722 
L 654.300873 -121.557211 
L 661.368243 -122.921584 
L 668.435613 -145.500105 
L 675.502983 -130.589633 
L 675.502983 -242.366799 
L 675.502983 -242.366799 
L 668.435613 -257.594436 
L 661.368243 -225.549025 
L 654.300873 -231.42841 
L 647.233502 -217.394646 
L 640.166132 -229.730109 
L 633.098762 -230.533529 
L 626.031392 -244.257876 
L 618.964022 -258.934004 
L 611.896652 -232.54296 
L 604.829282 -234.614594 
L 597.761912 -218.745349 
L 590.694541 -235.4178 
L 583.627171 -234.944801 
L 576.559801 -250.376665 
L 569.492431 -265.323264 
L 562.425061 -236.740131 
L 555.357691 -234.212487 
L 548.290321 -230.729329 
L 541.22295 -255.945735 
L 534.15558 -252.423627 
L 527.08821 -273.535087 
L 520.02084 -300.602954 
L 512.95347 -272.726607 
L 505.8861 -265.15236 
L 498.81873 -250.248929 
L 491.75136 -265.355466 
L 484.683989 -266.584482 
L 477.616619 -279.528753 
L 470.549249 -290.954714 
L 463.481879 -263.113082 
L 456.414509 -256.147771 
L 449.347139 -243.87887 
L 442.279769 -258.188999 
L 435.212399 -260.093376 
L 428.145028 -276.881958 
L 421.077658 -288.713253 
L 414.010288 -266.260301 
L 406.942918 -267.194953 
L 399.875548 -257.65695 
L 392.808178 -267.29811 
L 385.740808 -264.343923 
L 378.673438 -281.802373 
L 371.606067 -299.70891 
L 364.538697 -279.619947 
L 357.471327 -276.088935 
L 350.403957 -261.671442 
L 343.336587 -273.53264 
L 336.269217 -273.269158 
L 329.201847 -283.742741 
L 322.134476 -307.996638 
L 315.067106 -285.578233 
L 307.999736 -283.121636 
L 300.932366 -270.826491 
L 293.864996 -286.929906 
L 286.797626 -286.686162 
L 279.730256 -303.315818 
L 272.662886 -324.53708 
L 265.595515 -300.618084 
L 258.528145 -304.868968 
L 251.460775 -289.47647 
L 244.393405 -309.64764 
L 237.326035 -313.425562 
L 230.258665 -324.710588 
L 223.191295 -343.002179 
L 216.123925 -316.814098 
L 209.056554 -324.381991 
L 201.989184 -311.291015 
L 194.921814 -326.181868 
L 187.854444 -327.628239 
L 180.787074 -338.4758 
L 173.719704 -362.946182 
L 166.652334 -328.313169 
L 159.584963 -311.628061 
L 152.517593 -288.212999 
L 145.450223 -287.9995 
L 138.382853 -268.629955 
L 131.315483 -268.314222 
L 124.248113 -272.421113 
L 117.180743 -235.389126 
L 110.113373 -222.320682 
L 103.046002 -201.055034 
L 95.978632 -206.997344 
L 88.911262 -197.251051 
L 81.843892 -200.820822 
z
" id="m04a8878e2d" style="stroke:#0072b2;stroke-opacity:0.2;"/>
    </defs>
    <g clip-path="url(#pc4e97f9790)">
     <use style="fill:#0072b2;fill-opacity:0.2;stroke:#0072b2;stroke-opacity:0.2;" x="0" xlink:href="#m04a8878e2d" y="439.274375"/>
    </g>
   </g>
   <g id="matplotlib.axis_1">
    <g id="xtick_1">
     <g id="line2d_1">
      <path clip-path="url(#pc4e97f9790)" d="M 74.776522 401.718125 
L 74.776522 22.318125 
" style="fill:none;stroke:#808080;stroke-linecap:square;stroke-opacity:0.2;"/>
     </g>
     <g id="line2d_2">
      <defs>
       <path d="M 0 0 
L 0 3.5 
" id="mb812cef5ba" style="stroke:#000000;stroke-width:0.8;"/>
      </defs>
      <g>
       <use style="stroke:#000000;stroke-width:0.8;" x="74.776522" xlink:href="#mb812cef5ba" y="401.718125"/>
      </g>
     </g>
     <g id="text_1">
      <!-- 2020-02-14 -->
      <defs>
       <path d="M 19.1875 8.296875 
L 53.609375 8.296875 
L 53.609375 0 
L 7.328125 0 
L 7.328125 8.296875 
Q 12.9375 14.109375 22.625 23.890625 
Q 32.328125 33.6875 34.8125 36.53125 
Q 39.546875 41.84375 41.421875 45.53125 
Q 43.3125 49.21875 43.3125 52.78125 
Q 43.3125 58.59375 39.234375 62.25 
Q 35.15625 65.921875 28.609375 65.921875 
Q 23.96875 65.921875 18.8125 64.3125 
Q 13.671875 62.703125 7.8125 59.421875 
L 7.8125 69.390625 
Q 13.765625 71.78125 18.9375 73 
Q 24.125 74.21875 28.421875 74.21875 
Q 39.75 74.21875 46.484375 68.546875 
Q 53.21875 62.890625 53.21875 53.421875 
Q 53.21875 48.921875 51.53125 44.890625 
Q 49.859375 40.875 45.40625 35.40625 
Q 44.1875 33.984375 37.640625 27.21875 
Q 31.109375 20.453125 19.1875 8.296875 
z
" id="DejaVuSans-50"/>
       <path d="M 31.78125 66.40625 
Q 24.171875 66.40625 20.328125 58.90625 
Q 16.5 51.421875 16.5 36.375 
Q 16.5 21.390625 20.328125 13.890625 
Q 24.171875 6.390625 31.78125 6.390625 
Q 39.453125 6.390625 43.28125 13.890625 
Q 47.125 21.390625 47.125 36.375 
Q 47.125 51.421875 43.28125 58.90625 
Q 39.453125 66.40625 31.78125 66.40625 
z
M 31.78125 74.21875 
Q 44.046875 74.21875 50.515625 64.515625 
Q 56.984375 54.828125 56.984375 36.375 
Q 56.984375 17.96875 50.515625 8.265625 
Q 44.046875 -1.421875 31.78125 -1.421875 
Q 19.53125 -1.421875 13.0625 8.265625 
Q 6.59375 17.96875 6.59375 36.375 
Q 6.59375 54.828125 13.0625 64.515625 
Q 19.53125 74.21875 31.78125 74.21875 
z
" id="DejaVuSans-48"/>
       <path d="M 4.890625 31.390625 
L 31.203125 31.390625 
L 31.203125 23.390625 
L 4.890625 23.390625 
z
" id="DejaVuSans-45"/>
       <path d="M 12.40625 8.296875 
L 28.515625 8.296875 
L 28.515625 63.921875 
L 10.984375 60.40625 
L 10.984375 69.390625 
L 28.421875 72.90625 
L 38.28125 72.90625 
L 38.28125 8.296875 
L 54.390625 8.296875 
L 54.390625 0 
L 12.40625 0 
z
" id="DejaVuSans-49"/>
       <path d="M 37.796875 64.3125 
L 12.890625 25.390625 
L 37.796875 25.390625 
z
M 35.203125 72.90625 
L 47.609375 72.90625 
L 47.609375 25.390625 
L 58.015625 25.390625 
L 58.015625 17.1875 
L 47.609375 17.1875 
L 47.609375 0 
L 37.796875 0 
L 37.796875 17.1875 
L 4.890625 17.1875 
L 4.890625 26.703125 
z
" id="DejaVuSans-52"/>
      </defs>
      <g transform="translate(45.718709 416.316562)scale(0.1 -0.1)">
       <use xlink:href="#DejaVuSans-50"/>
       <use x="63.623047" xlink:href="#DejaVuSans-48"/>
       <use x="127.246094" xlink:href="#DejaVuSans-50"/>
       <use x="190.869141" xlink:href="#DejaVuSans-48"/>
       <use x="254.492188" xlink:href="#DejaVuSans-45"/>
       <use x="290.576172" xlink:href="#DejaVuSans-48"/>
       <use x="354.199219" xlink:href="#DejaVuSans-50"/>
       <use x="417.822266" xlink:href="#DejaVuSans-45"/>
       <use x="453.90625" xlink:href="#DejaVuSans-49"/>
       <use x="517.529297" xlink:href="#DejaVuSans-52"/>
      </g>
     </g>
    </g>
    <g id="xtick_2">
     <g id="line2d_3">
      <path clip-path="url(#pc4e97f9790)" d="M 173.719704 401.718125 
L 173.719704 22.318125 
" style="fill:none;stroke:#808080;stroke-linecap:square;stroke-opacity:0.2;"/>
     </g>
     <g id="line2d_4">
      <g>
       <use style="stroke:#000000;stroke-width:0.8;" x="173.719704" xlink:href="#mb812cef5ba" y="401.718125"/>
      </g>
     </g>
     <g id="text_2">
      <!-- 2020-02-28 -->
      <defs>
       <path d="M 31.78125 34.625 
Q 24.75 34.625 20.71875 30.859375 
Q 16.703125 27.09375 16.703125 20.515625 
Q 16.703125 13.921875 20.71875 10.15625 
Q 24.75 6.390625 31.78125 6.390625 
Q 38.8125 6.390625 42.859375 10.171875 
Q 46.921875 13.96875 46.921875 20.515625 
Q 46.921875 27.09375 42.890625 30.859375 
Q 38.875 34.625 31.78125 34.625 
z
M 21.921875 38.8125 
Q 15.578125 40.375 12.03125 44.71875 
Q 8.5 49.078125 8.5 55.328125 
Q 8.5 64.0625 14.71875 69.140625 
Q 20.953125 74.21875 31.78125 74.21875 
Q 42.671875 74.21875 48.875 69.140625 
Q 55.078125 64.0625 55.078125 55.328125 
Q 55.078125 49.078125 51.53125 44.71875 
Q 48 40.375 41.703125 38.8125 
Q 48.828125 37.15625 52.796875 32.3125 
Q 56.78125 27.484375 56.78125 20.515625 
Q 56.78125 9.90625 50.3125 4.234375 
Q 43.84375 -1.421875 31.78125 -1.421875 
Q 19.734375 -1.421875 13.25 4.234375 
Q 6.78125 9.90625 6.78125 20.515625 
Q 6.78125 27.484375 10.78125 32.3125 
Q 14.796875 37.15625 21.921875 38.8125 
z
M 18.3125 54.390625 
Q 18.3125 48.734375 21.84375 45.5625 
Q 25.390625 42.390625 31.78125 42.390625 
Q 38.140625 42.390625 41.71875 45.5625 
Q 45.3125 48.734375 45.3125 54.390625 
Q 45.3125 60.0625 41.71875 63.234375 
Q 38.140625 66.40625 31.78125 66.40625 
Q 25.390625 66.40625 21.84375 63.234375 
Q 18.3125 60.0625 18.3125 54.390625 
z
" id="DejaVuSans-56"/>
      </defs>
      <g transform="translate(144.661891 416.316562)scale(0.1 -0.1)">
       <use xlink:href="#DejaVuSans-50"/>
       <use x="63.623047" xlink:href="#DejaVuSans-48"/>
       <use x="127.246094" xlink:href="#DejaVuSans-50"/>
       <use x="190.869141" xlink:href="#DejaVuSans-48"/>
       <use x="254.492188" xlink:href="#DejaVuSans-45"/>
       <use x="290.576172" xlink:href="#DejaVuSans-48"/>
       <use x="354.199219" xlink:href="#DejaVuSans-50"/>
       <use x="417.822266" xlink:href="#DejaVuSans-45"/>
       <use x="453.90625" xlink:href="#DejaVuSans-50"/>
       <use x="517.529297" xlink:href="#DejaVuSans-56"/>
      </g>
     </g>
    </g>
    <g id="xtick_3">
     <g id="line2d_5">
      <path clip-path="url(#pc4e97f9790)" d="M 272.662886 401.718125 
L 272.662886 22.318125 
" style="fill:none;stroke:#808080;stroke-linecap:square;stroke-opacity:0.2;"/>
     </g>
     <g id="line2d_6">
      <g>
       <use style="stroke:#000000;stroke-width:0.8;" x="272.662886" xlink:href="#mb812cef5ba" y="401.718125"/>
      </g>
     </g>
     <g id="text_3">
      <!-- 2020-03-13 -->
      <defs>
       <path d="M 40.578125 39.3125 
Q 47.65625 37.796875 51.625 33 
Q 55.609375 28.21875 55.609375 21.1875 
Q 55.609375 10.40625 48.1875 4.484375 
Q 40.765625 -1.421875 27.09375 -1.421875 
Q 22.515625 -1.421875 17.65625 -0.515625 
Q 12.796875 0.390625 7.625 2.203125 
L 7.625 11.71875 
Q 11.71875 9.328125 16.59375 8.109375 
Q 21.484375 6.890625 26.8125 6.890625 
Q 36.078125 6.890625 40.9375 10.546875 
Q 45.796875 14.203125 45.796875 21.1875 
Q 45.796875 27.640625 41.28125 31.265625 
Q 36.765625 34.90625 28.71875 34.90625 
L 20.21875 34.90625 
L 20.21875 43.015625 
L 29.109375 43.015625 
Q 36.375 43.015625 40.234375 45.921875 
Q 44.09375 48.828125 44.09375 54.296875 
Q 44.09375 59.90625 40.109375 62.90625 
Q 36.140625 65.921875 28.71875 65.921875 
Q 24.65625 65.921875 20.015625 65.03125 
Q 15.375 64.15625 9.8125 62.3125 
L 9.8125 71.09375 
Q 15.4375 72.65625 20.34375 73.4375 
Q 25.25 74.21875 29.59375 74.21875 
Q 40.828125 74.21875 47.359375 69.109375 
Q 53.90625 64.015625 53.90625 55.328125 
Q 53.90625 49.265625 50.4375 45.09375 
Q 46.96875 40.921875 40.578125 39.3125 
z
" id="DejaVuSans-51"/>
      </defs>
      <g transform="translate(243.605073 416.316562)scale(0.1 -0.1)">
       <use xlink:href="#DejaVuSans-50"/>
       <use x="63.623047" xlink:href="#DejaVuSans-48"/>
       <use x="127.246094" xlink:href="#DejaVuSans-50"/>
       <use x="190.869141" xlink:href="#DejaVuSans-48"/>
       <use x="254.492188" xlink:href="#DejaVuSans-45"/>
       <use x="290.576172" xlink:href="#DejaVuSans-48"/>
       <use x="354.199219" xlink:href="#DejaVuSans-51"/>
       <use x="417.822266" xlink:href="#DejaVuSans-45"/>
       <use x="453.90625" xlink:href="#DejaVuSans-49"/>
       <use x="517.529297" xlink:href="#DejaVuSans-51"/>
      </g>
     </g>
    </g>
    <g id="xtick_4">
     <g id="line2d_7">
      <path clip-path="url(#pc4e97f9790)" d="M 371.606067 401.718125 
L 371.606067 22.318125 
" style="fill:none;stroke:#808080;stroke-linecap:square;stroke-opacity:0.2;"/>
     </g>
     <g id="line2d_8">
      <g>
       <use style="stroke:#000000;stroke-width:0.8;" x="371.606067" xlink:href="#mb812cef5ba" y="401.718125"/>
      </g>
     </g>
     <g id="text_4">
      <!-- 2020-03-27 -->
      <defs>
       <path d="M 8.203125 72.90625 
L 55.078125 72.90625 
L 55.078125 68.703125 
L 28.609375 0 
L 18.3125 0 
L 43.21875 64.59375 
L 8.203125 64.59375 
z
" id="DejaVuSans-55"/>
      </defs>
      <g transform="translate(342.548255 416.316562)scale(0.1 -0.1)">
       <use xlink:href="#DejaVuSans-50"/>
       <use x="63.623047" xlink:href="#DejaVuSans-48"/>
       <use x="127.246094" xlink:href="#DejaVuSans-50"/>
       <use x="190.869141" xlink:href="#DejaVuSans-48"/>
       <use x="254.492188" xlink:href="#DejaVuSans-45"/>
       <use x="290.576172" xlink:href="#DejaVuSans-48"/>
       <use x="354.199219" xlink:href="#DejaVuSans-51"/>
       <use x="417.822266" xlink:href="#DejaVuSans-45"/>
       <use x="453.90625" xlink:href="#DejaVuSans-50"/>
       <use x="517.529297" xlink:href="#DejaVuSans-55"/>
      </g>
     </g>
    </g>
    <g id="xtick_5">
     <g id="line2d_9">
      <path clip-path="url(#pc4e97f9790)" d="M 470.549249 401.718125 
L 470.549249 22.318125 
" style="fill:none;stroke:#808080;stroke-linecap:square;stroke-opacity:0.2;"/>
     </g>
     <g id="line2d_10">
      <g>
       <use style="stroke:#000000;stroke-width:0.8;" x="470.549249" xlink:href="#mb812cef5ba" y="401.718125"/>
      </g>
     </g>
     <g id="text_5">
      <!-- 2020-04-10 -->
      <g transform="translate(441.491437 416.316562)scale(0.1 -0.1)">
       <use xlink:href="#DejaVuSans-50"/>
       <use x="63.623047" xlink:href="#DejaVuSans-48"/>
       <use x="127.246094" xlink:href="#DejaVuSans-50"/>
       <use x="190.869141" xlink:href="#DejaVuSans-48"/>
       <use x="254.492188" xlink:href="#DejaVuSans-45"/>
       <use x="290.576172" xlink:href="#DejaVuSans-48"/>
       <use x="354.199219" xlink:href="#DejaVuSans-52"/>
       <use x="417.822266" xlink:href="#DejaVuSans-45"/>
       <use x="453.90625" xlink:href="#DejaVuSans-49"/>
       <use x="517.529297" xlink:href="#DejaVuSans-48"/>
      </g>
     </g>
    </g>
    <g id="xtick_6">
     <g id="line2d_11">
      <path clip-path="url(#pc4e97f9790)" d="M 569.492431 401.718125 
L 569.492431 22.318125 
" style="fill:none;stroke:#808080;stroke-linecap:square;stroke-opacity:0.2;"/>
     </g>
     <g id="line2d_12">
      <g>
       <use style="stroke:#000000;stroke-width:0.8;" x="569.492431" xlink:href="#mb812cef5ba" y="401.718125"/>
      </g>
     </g>
     <g id="text_6">
      <!-- 2020-04-24 -->
      <g transform="translate(540.434619 416.316562)scale(0.1 -0.1)">
       <use xlink:href="#DejaVuSans-50"/>
       <use x="63.623047" xlink:href="#DejaVuSans-48"/>
       <use x="127.246094" xlink:href="#DejaVuSans-50"/>
       <use x="190.869141" xlink:href="#DejaVuSans-48"/>
       <use x="254.492188" xlink:href="#DejaVuSans-45"/>
       <use x="290.576172" xlink:href="#DejaVuSans-48"/>
       <use x="354.199219" xlink:href="#DejaVuSans-52"/>
       <use x="417.822266" xlink:href="#DejaVuSans-45"/>
       <use x="453.90625" xlink:href="#DejaVuSans-50"/>
       <use x="517.529297" xlink:href="#DejaVuSans-52"/>
      </g>
     </g>
    </g>
    <g id="xtick_7">
     <g id="line2d_13">
      <path clip-path="url(#pc4e97f9790)" d="M 668.435613 401.718125 
L 668.435613 22.318125 
" style="fill:none;stroke:#808080;stroke-linecap:square;stroke-opacity:0.2;"/>
     </g>
     <g id="line2d_14">
      <g>
       <use style="stroke:#000000;stroke-width:0.8;" x="668.435613" xlink:href="#mb812cef5ba" y="401.718125"/>
      </g>
     </g>
     <g id="text_7">
      <!-- 2020-05-08 -->
      <defs>
       <path d="M 10.796875 72.90625 
L 49.515625 72.90625 
L 49.515625 64.59375 
L 19.828125 64.59375 
L 19.828125 46.734375 
Q 21.96875 47.46875 24.109375 47.828125 
Q 26.265625 48.1875 28.421875 48.1875 
Q 40.625 48.1875 47.75 41.5 
Q 54.890625 34.8125 54.890625 23.390625 
Q 54.890625 11.625 47.5625 5.09375 
Q 40.234375 -1.421875 26.90625 -1.421875 
Q 22.3125 -1.421875 17.546875 -0.640625 
Q 12.796875 0.140625 7.71875 1.703125 
L 7.71875 11.625 
Q 12.109375 9.234375 16.796875 8.0625 
Q 21.484375 6.890625 26.703125 6.890625 
Q 35.15625 6.890625 40.078125 11.328125 
Q 45.015625 15.765625 45.015625 23.390625 
Q 45.015625 31 40.078125 35.4375 
Q 35.15625 39.890625 26.703125 39.890625 
Q 22.75 39.890625 18.8125 39.015625 
Q 14.890625 38.140625 10.796875 36.28125 
z
" id="DejaVuSans-53"/>
      </defs>
      <g transform="translate(639.3778 416.316562)scale(0.1 -0.1)">
       <use xlink:href="#DejaVuSans-50"/>
       <use x="63.623047" xlink:href="#DejaVuSans-48"/>
       <use x="127.246094" xlink:href="#DejaVuSans-50"/>
       <use x="190.869141" xlink:href="#DejaVuSans-48"/>
       <use x="254.492188" xlink:href="#DejaVuSans-45"/>
       <use x="290.576172" xlink:href="#DejaVuSans-48"/>
       <use x="354.199219" xlink:href="#DejaVuSans-53"/>
       <use x="417.822266" xlink:href="#DejaVuSans-45"/>
       <use x="453.90625" xlink:href="#DejaVuSans-48"/>
       <use x="517.529297" xlink:href="#DejaVuSans-56"/>
      </g>
     </g>
    </g>
    <g id="text_8">
     <!-- Date -->
     <defs>
      <path d="M 19.671875 64.796875 
L 19.671875 8.109375 
L 31.59375 8.109375 
Q 46.6875 8.109375 53.6875 14.9375 
Q 60.6875 21.78125 60.6875 36.53125 
Q 60.6875 51.171875 53.6875 57.984375 
Q 46.6875 64.796875 31.59375 64.796875 
z
M 9.8125 72.90625 
L 30.078125 72.90625 
Q 51.265625 72.90625 61.171875 64.09375 
Q 71.09375 55.28125 71.09375 36.53125 
Q 71.09375 17.671875 61.125 8.828125 
Q 51.171875 0 30.078125 0 
L 9.8125 0 
z
" id="DejaVuSans-68"/>
      <path d="M 34.28125 27.484375 
Q 23.390625 27.484375 19.1875 25 
Q 14.984375 22.515625 14.984375 16.5 
Q 14.984375 11.71875 18.140625 8.90625 
Q 21.296875 6.109375 26.703125 6.109375 
Q 34.1875 6.109375 38.703125 11.40625 
Q 43.21875 16.703125 43.21875 25.484375 
L 43.21875 27.484375 
z
M 52.203125 31.203125 
L 52.203125 0 
L 43.21875 0 
L 43.21875 8.296875 
Q 40.140625 3.328125 35.546875 0.953125 
Q 30.953125 -1.421875 24.3125 -1.421875 
Q 15.921875 -1.421875 10.953125 3.296875 
Q 6 8.015625 6 15.921875 
Q 6 25.140625 12.171875 29.828125 
Q 18.359375 34.515625 30.609375 34.515625 
L 43.21875 34.515625 
L 43.21875 35.40625 
Q 43.21875 41.609375 39.140625 45 
Q 35.0625 48.390625 27.6875 48.390625 
Q 23 48.390625 18.546875 47.265625 
Q 14.109375 46.140625 10.015625 43.890625 
L 10.015625 52.203125 
Q 14.9375 54.109375 19.578125 55.046875 
Q 24.21875 56 28.609375 56 
Q 40.484375 56 46.34375 49.84375 
Q 52.203125 43.703125 52.203125 31.203125 
z
" id="DejaVuSans-97"/>
      <path d="M 18.3125 70.21875 
L 18.3125 54.6875 
L 36.8125 54.6875 
L 36.8125 47.703125 
L 18.3125 47.703125 
L 18.3125 18.015625 
Q 18.3125 11.328125 20.140625 9.421875 
Q 21.96875 7.515625 27.59375 7.515625 
L 36.8125 7.515625 
L 36.8125 0 
L 27.59375 0 
Q 17.1875 0 13.234375 3.875 
Q 9.28125 7.765625 9.28125 18.015625 
L 9.28125 47.703125 
L 2.6875 47.703125 
L 2.6875 54.6875 
L 9.28125 54.6875 
L 9.28125 70.21875 
z
" id="DejaVuSans-116"/>
      <path d="M 56.203125 29.59375 
L 56.203125 25.203125 
L 14.890625 25.203125 
Q 15.484375 15.921875 20.484375 11.0625 
Q 25.484375 6.203125 34.421875 6.203125 
Q 39.59375 6.203125 44.453125 7.46875 
Q 49.3125 8.734375 54.109375 11.28125 
L 54.109375 2.78125 
Q 49.265625 0.734375 44.1875 -0.34375 
Q 39.109375 -1.421875 33.890625 -1.421875 
Q 20.796875 -1.421875 13.15625 6.1875 
Q 5.515625 13.8125 5.515625 26.8125 
Q 5.515625 40.234375 12.765625 48.109375 
Q 20.015625 56 32.328125 56 
Q 43.359375 56 49.78125 48.890625 
Q 56.203125 41.796875 56.203125 29.59375 
z
M 47.21875 32.234375 
Q 47.125 39.59375 43.09375 43.984375 
Q 39.0625 48.390625 32.421875 48.390625 
Q 24.90625 48.390625 20.390625 44.140625 
Q 15.875 39.890625 15.1875 32.171875 
z
" id="DejaVuSans-101"/>
     </defs>
     <g transform="translate(366.722656 429.994687)scale(0.1 -0.1)">
      <use xlink:href="#DejaVuSans-68"/>
      <use x="77.001953" xlink:href="#DejaVuSans-97"/>
      <use x="138.28125" xlink:href="#DejaVuSans-116"/>
      <use x="177.490234" xlink:href="#DejaVuSans-101"/>
     </g>
    </g>
   </g>
   <g id="matplotlib.axis_2">
    <g id="ytick_1">
     <g id="line2d_15">
      <path clip-path="url(#pc4e97f9790)" d="M 52.160938 393.549225 
L 705.185938 393.549225 
" style="fill:none;stroke:#808080;stroke-linecap:square;stroke-opacity:0.2;"/>
     </g>
     <g id="line2d_16">
      <defs>
       <path d="M 0 0 
L -3.5 0 
" id="m258bb9e9fb" style="stroke:#000000;stroke-width:0.8;"/>
      </defs>
      <g>
       <use style="stroke:#000000;stroke-width:0.8;" x="52.160938" xlink:href="#m258bb9e9fb" y="393.549225"/>
      </g>
     </g>
     <g id="text_9">
      <!-- −2.5 -->
      <defs>
       <path d="M 10.59375 35.5 
L 73.1875 35.5 
L 73.1875 27.203125 
L 10.59375 27.203125 
z
" id="DejaVuSans-8722"/>
       <path d="M 10.6875 12.40625 
L 21 12.40625 
L 21 0 
L 10.6875 0 
z
" id="DejaVuSans-46"/>
      </defs>
      <g transform="translate(20.878125 397.348444)scale(0.1 -0.1)">
       <use xlink:href="#DejaVuSans-8722"/>
       <use x="83.789062" xlink:href="#DejaVuSans-50"/>
       <use x="147.412109" xlink:href="#DejaVuSans-46"/>
       <use x="179.199219" xlink:href="#DejaVuSans-53"/>
      </g>
     </g>
    </g>
    <g id="ytick_2">
     <g id="line2d_17">
      <path clip-path="url(#pc4e97f9790)" d="M 52.160938 348.16645 
L 705.185938 348.16645 
" style="fill:none;stroke:#808080;stroke-linecap:square;stroke-opacity:0.2;"/>
     </g>
     <g id="line2d_18">
      <g>
       <use style="stroke:#000000;stroke-width:0.8;" x="52.160938" xlink:href="#m258bb9e9fb" y="348.16645"/>
      </g>
     </g>
     <g id="text_10">
      <!-- 0.0 -->
      <g transform="translate(29.257813 351.965669)scale(0.1 -0.1)">
       <use xlink:href="#DejaVuSans-48"/>
       <use x="63.623047" xlink:href="#DejaVuSans-46"/>
       <use x="95.410156" xlink:href="#DejaVuSans-48"/>
      </g>
     </g>
    </g>
    <g id="ytick_3">
     <g id="line2d_19">
      <path clip-path="url(#pc4e97f9790)" d="M 52.160938 302.783675 
L 705.185938 302.783675 
" style="fill:none;stroke:#808080;stroke-linecap:square;stroke-opacity:0.2;"/>
     </g>
     <g id="line2d_20">
      <g>
       <use style="stroke:#000000;stroke-width:0.8;" x="52.160938" xlink:href="#m258bb9e9fb" y="302.783675"/>
      </g>
     </g>
     <g id="text_11">
      <!-- 2.5 -->
      <g transform="translate(29.257813 306.582894)scale(0.1 -0.1)">
       <use xlink:href="#DejaVuSans-50"/>
       <use x="63.623047" xlink:href="#DejaVuSans-46"/>
       <use x="95.410156" xlink:href="#DejaVuSans-53"/>
      </g>
     </g>
    </g>
    <g id="ytick_4">
     <g id="line2d_21">
      <path clip-path="url(#pc4e97f9790)" d="M 52.160938 257.4009 
L 705.185938 257.4009 
" style="fill:none;stroke:#808080;stroke-linecap:square;stroke-opacity:0.2;"/>
     </g>
     <g id="line2d_22">
      <g>
       <use style="stroke:#000000;stroke-width:0.8;" x="52.160938" xlink:href="#m258bb9e9fb" y="257.4009"/>
      </g>
     </g>
     <g id="text_12">
      <!-- 5.0 -->
      <g transform="translate(29.257813 261.200119)scale(0.1 -0.1)">
       <use xlink:href="#DejaVuSans-53"/>
       <use x="63.623047" xlink:href="#DejaVuSans-46"/>
       <use x="95.410156" xlink:href="#DejaVuSans-48"/>
      </g>
     </g>
    </g>
    <g id="ytick_5">
     <g id="line2d_23">
      <path clip-path="url(#pc4e97f9790)" d="M 52.160938 212.018125 
L 705.185938 212.018125 
" style="fill:none;stroke:#808080;stroke-linecap:square;stroke-opacity:0.2;"/>
     </g>
     <g id="line2d_24">
      <g>
       <use style="stroke:#000000;stroke-width:0.8;" x="52.160938" xlink:href="#m258bb9e9fb" y="212.018125"/>
      </g>
     </g>
     <g id="text_13">
      <!-- 7.5 -->
      <g transform="translate(29.257813 215.817344)scale(0.1 -0.1)">
       <use xlink:href="#DejaVuSans-55"/>
       <use x="63.623047" xlink:href="#DejaVuSans-46"/>
       <use x="95.410156" xlink:href="#DejaVuSans-53"/>
      </g>
     </g>
    </g>
    <g id="ytick_6">
     <g id="line2d_25">
      <path clip-path="url(#pc4e97f9790)" d="M 52.160938 166.63535 
L 705.185938 166.63535 
" style="fill:none;stroke:#808080;stroke-linecap:square;stroke-opacity:0.2;"/>
     </g>
     <g id="line2d_26">
      <g>
       <use style="stroke:#000000;stroke-width:0.8;" x="52.160938" xlink:href="#m258bb9e9fb" y="166.63535"/>
      </g>
     </g>
     <g id="text_14">
      <!-- 10.0 -->
      <g transform="translate(22.895313 170.434569)scale(0.1 -0.1)">
       <use xlink:href="#DejaVuSans-49"/>
       <use x="63.623047" xlink:href="#DejaVuSans-48"/>
       <use x="127.246094" xlink:href="#DejaVuSans-46"/>
       <use x="159.033203" xlink:href="#DejaVuSans-48"/>
      </g>
     </g>
    </g>
    <g id="ytick_7">
     <g id="line2d_27">
      <path clip-path="url(#pc4e97f9790)" d="M 52.160938 121.252575 
L 705.185938 121.252575 
" style="fill:none;stroke:#808080;stroke-linecap:square;stroke-opacity:0.2;"/>
     </g>
     <g id="line2d_28">
      <g>
       <use style="stroke:#000000;stroke-width:0.8;" x="52.160938" xlink:href="#m258bb9e9fb" y="121.252575"/>
      </g>
     </g>
     <g id="text_15">
      <!-- 12.5 -->
      <g transform="translate(22.895313 125.051794)scale(0.1 -0.1)">
       <use xlink:href="#DejaVuSans-49"/>
       <use x="63.623047" xlink:href="#DejaVuSans-50"/>
       <use x="127.246094" xlink:href="#DejaVuSans-46"/>
       <use x="159.033203" xlink:href="#DejaVuSans-53"/>
      </g>
     </g>
    </g>
    <g id="ytick_8">
     <g id="line2d_29">
      <path clip-path="url(#pc4e97f9790)" d="M 52.160938 75.8698 
L 705.185938 75.8698 
" style="fill:none;stroke:#808080;stroke-linecap:square;stroke-opacity:0.2;"/>
     </g>
     <g id="line2d_30">
      <g>
       <use style="stroke:#000000;stroke-width:0.8;" x="52.160938" xlink:href="#m258bb9e9fb" y="75.8698"/>
      </g>
     </g>
     <g id="text_16">
      <!-- 15.0 -->
      <g transform="translate(22.895313 79.669018)scale(0.1 -0.1)">
       <use xlink:href="#DejaVuSans-49"/>
       <use x="63.623047" xlink:href="#DejaVuSans-53"/>
       <use x="127.246094" xlink:href="#DejaVuSans-46"/>
       <use x="159.033203" xlink:href="#DejaVuSans-48"/>
      </g>
     </g>
    </g>
    <g id="ytick_9">
     <g id="line2d_31">
      <path clip-path="url(#pc4e97f9790)" d="M 52.160938 30.487025 
L 705.185938 30.487025 
" style="fill:none;stroke:#808080;stroke-linecap:square;stroke-opacity:0.2;"/>
     </g>
     <g id="line2d_32">
      <g>
       <use style="stroke:#000000;stroke-width:0.8;" x="52.160938" xlink:href="#m258bb9e9fb" y="30.487025"/>
      </g>
     </g>
     <g id="text_17">
      <!-- 17.5 -->
      <g transform="translate(22.895313 34.286243)scale(0.1 -0.1)">
       <use xlink:href="#DejaVuSans-49"/>
       <use x="63.623047" xlink:href="#DejaVuSans-55"/>
       <use x="127.246094" xlink:href="#DejaVuSans-46"/>
       <use x="159.033203" xlink:href="#DejaVuSans-53"/>
      </g>
     </g>
    </g>
    <g id="text_18">
     <!-- Residential Mobility -->
     <defs>
      <path d="M 44.390625 34.1875 
Q 47.5625 33.109375 50.5625 29.59375 
Q 53.5625 26.078125 56.59375 19.921875 
L 66.609375 0 
L 56 0 
L 46.6875 18.703125 
Q 43.0625 26.03125 39.671875 28.421875 
Q 36.28125 30.8125 30.421875 30.8125 
L 19.671875 30.8125 
L 19.671875 0 
L 9.8125 0 
L 9.8125 72.90625 
L 32.078125 72.90625 
Q 44.578125 72.90625 50.734375 67.671875 
Q 56.890625 62.453125 56.890625 51.90625 
Q 56.890625 45.015625 53.6875 40.46875 
Q 50.484375 35.9375 44.390625 34.1875 
z
M 19.671875 64.796875 
L 19.671875 38.921875 
L 32.078125 38.921875 
Q 39.203125 38.921875 42.84375 42.21875 
Q 46.484375 45.515625 46.484375 51.90625 
Q 46.484375 58.296875 42.84375 61.546875 
Q 39.203125 64.796875 32.078125 64.796875 
z
" id="DejaVuSans-82"/>
      <path d="M 44.28125 53.078125 
L 44.28125 44.578125 
Q 40.484375 46.53125 36.375 47.5 
Q 32.28125 48.484375 27.875 48.484375 
Q 21.1875 48.484375 17.84375 46.4375 
Q 14.5 44.390625 14.5 40.28125 
Q 14.5 37.15625 16.890625 35.375 
Q 19.28125 33.59375 26.515625 31.984375 
L 29.59375 31.296875 
Q 39.15625 29.25 43.1875 25.515625 
Q 47.21875 21.78125 47.21875 15.09375 
Q 47.21875 7.46875 41.1875 3.015625 
Q 35.15625 -1.421875 24.609375 -1.421875 
Q 20.21875 -1.421875 15.453125 -0.5625 
Q 10.6875 0.296875 5.421875 2 
L 5.421875 11.28125 
Q 10.40625 8.6875 15.234375 7.390625 
Q 20.0625 6.109375 24.8125 6.109375 
Q 31.15625 6.109375 34.5625 8.28125 
Q 37.984375 10.453125 37.984375 14.40625 
Q 37.984375 18.0625 35.515625 20.015625 
Q 33.0625 21.96875 24.703125 23.78125 
L 21.578125 24.515625 
Q 13.234375 26.265625 9.515625 29.90625 
Q 5.8125 33.546875 5.8125 39.890625 
Q 5.8125 47.609375 11.28125 51.796875 
Q 16.75 56 26.8125 56 
Q 31.78125 56 36.171875 55.265625 
Q 40.578125 54.546875 44.28125 53.078125 
z
" id="DejaVuSans-115"/>
      <path d="M 9.421875 54.6875 
L 18.40625 54.6875 
L 18.40625 0 
L 9.421875 0 
z
M 9.421875 75.984375 
L 18.40625 75.984375 
L 18.40625 64.59375 
L 9.421875 64.59375 
z
" id="DejaVuSans-105"/>
      <path d="M 45.40625 46.390625 
L 45.40625 75.984375 
L 54.390625 75.984375 
L 54.390625 0 
L 45.40625 0 
L 45.40625 8.203125 
Q 42.578125 3.328125 38.25 0.953125 
Q 33.9375 -1.421875 27.875 -1.421875 
Q 17.96875 -1.421875 11.734375 6.484375 
Q 5.515625 14.40625 5.515625 27.296875 
Q 5.515625 40.1875 11.734375 48.09375 
Q 17.96875 56 27.875 56 
Q 33.9375 56 38.25 53.625 
Q 42.578125 51.265625 45.40625 46.390625 
z
M 14.796875 27.296875 
Q 14.796875 17.390625 18.875 11.75 
Q 22.953125 6.109375 30.078125 6.109375 
Q 37.203125 6.109375 41.296875 11.75 
Q 45.40625 17.390625 45.40625 27.296875 
Q 45.40625 37.203125 41.296875 42.84375 
Q 37.203125 48.484375 30.078125 48.484375 
Q 22.953125 48.484375 18.875 42.84375 
Q 14.796875 37.203125 14.796875 27.296875 
z
" id="DejaVuSans-100"/>
      <path d="M 54.890625 33.015625 
L 54.890625 0 
L 45.90625 0 
L 45.90625 32.71875 
Q 45.90625 40.484375 42.875 44.328125 
Q 39.84375 48.1875 33.796875 48.1875 
Q 26.515625 48.1875 22.3125 43.546875 
Q 18.109375 38.921875 18.109375 30.90625 
L 18.109375 0 
L 9.078125 0 
L 9.078125 54.6875 
L 18.109375 54.6875 
L 18.109375 46.1875 
Q 21.34375 51.125 25.703125 53.5625 
Q 30.078125 56 35.796875 56 
Q 45.21875 56 50.046875 50.171875 
Q 54.890625 44.34375 54.890625 33.015625 
z
" id="DejaVuSans-110"/>
      <path d="M 9.421875 75.984375 
L 18.40625 75.984375 
L 18.40625 0 
L 9.421875 0 
z
" id="DejaVuSans-108"/>
      <path id="DejaVuSans-32"/>
      <path d="M 9.8125 72.90625 
L 24.515625 72.90625 
L 43.109375 23.296875 
L 61.8125 72.90625 
L 76.515625 72.90625 
L 76.515625 0 
L 66.890625 0 
L 66.890625 64.015625 
L 48.09375 14.015625 
L 38.1875 14.015625 
L 19.390625 64.015625 
L 19.390625 0 
L 9.8125 0 
z
" id="DejaVuSans-77"/>
      <path d="M 30.609375 48.390625 
Q 23.390625 48.390625 19.1875 42.75 
Q 14.984375 37.109375 14.984375 27.296875 
Q 14.984375 17.484375 19.15625 11.84375 
Q 23.34375 6.203125 30.609375 6.203125 
Q 37.796875 6.203125 41.984375 11.859375 
Q 46.1875 17.53125 46.1875 27.296875 
Q 46.1875 37.015625 41.984375 42.703125 
Q 37.796875 48.390625 30.609375 48.390625 
z
M 30.609375 56 
Q 42.328125 56 49.015625 48.375 
Q 55.71875 40.765625 55.71875 27.296875 
Q 55.71875 13.875 49.015625 6.21875 
Q 42.328125 -1.421875 30.609375 -1.421875 
Q 18.84375 -1.421875 12.171875 6.21875 
Q 5.515625 13.875 5.515625 27.296875 
Q 5.515625 40.765625 12.171875 48.375 
Q 18.84375 56 30.609375 56 
z
" id="DejaVuSans-111"/>
      <path d="M 48.6875 27.296875 
Q 48.6875 37.203125 44.609375 42.84375 
Q 40.53125 48.484375 33.40625 48.484375 
Q 26.265625 48.484375 22.1875 42.84375 
Q 18.109375 37.203125 18.109375 27.296875 
Q 18.109375 17.390625 22.1875 11.75 
Q 26.265625 6.109375 33.40625 6.109375 
Q 40.53125 6.109375 44.609375 11.75 
Q 48.6875 17.390625 48.6875 27.296875 
z
M 18.109375 46.390625 
Q 20.953125 51.265625 25.265625 53.625 
Q 29.59375 56 35.59375 56 
Q 45.5625 56 51.78125 48.09375 
Q 58.015625 40.1875 58.015625 27.296875 
Q 58.015625 14.40625 51.78125 6.484375 
Q 45.5625 -1.421875 35.59375 -1.421875 
Q 29.59375 -1.421875 25.265625 0.953125 
Q 20.953125 3.328125 18.109375 8.203125 
L 18.109375 0 
L 9.078125 0 
L 9.078125 75.984375 
L 18.109375 75.984375 
z
" id="DejaVuSans-98"/>
      <path d="M 32.171875 -5.078125 
Q 28.375 -14.84375 24.75 -17.8125 
Q 21.140625 -20.796875 15.09375 -20.796875 
L 7.90625 -20.796875 
L 7.90625 -13.28125 
L 13.1875 -13.28125 
Q 16.890625 -13.28125 18.9375 -11.515625 
Q 21 -9.765625 23.484375 -3.21875 
L 25.09375 0.875 
L 2.984375 54.6875 
L 12.5 54.6875 
L 29.59375 11.921875 
L 46.6875 54.6875 
L 56.203125 54.6875 
z
" id="DejaVuSans-121"/>
     </defs>
     <g transform="translate(14.798438 260.782969)rotate(-90)scale(0.1 -0.1)">
      <use xlink:href="#DejaVuSans-82"/>
      <use x="64.982422" xlink:href="#DejaVuSans-101"/>
      <use x="126.505859" xlink:href="#DejaVuSans-115"/>
      <use x="178.605469" xlink:href="#DejaVuSans-105"/>
      <use x="206.388672" xlink:href="#DejaVuSans-100"/>
      <use x="269.865234" xlink:href="#DejaVuSans-101"/>
      <use x="331.388672" xlink:href="#DejaVuSans-110"/>
      <use x="394.767578" xlink:href="#DejaVuSans-116"/>
      <use x="433.976562" xlink:href="#DejaVuSans-105"/>
      <use x="461.759766" xlink:href="#DejaVuSans-97"/>
      <use x="523.039062" xlink:href="#DejaVuSans-108"/>
      <use x="550.822266" xlink:href="#DejaVuSans-32"/>
      <use x="582.609375" xlink:href="#DejaVuSans-77"/>
      <use x="668.888672" xlink:href="#DejaVuSans-111"/>
      <use x="730.070312" xlink:href="#DejaVuSans-98"/>
      <use x="793.546875" xlink:href="#DejaVuSans-105"/>
      <use x="821.330078" xlink:href="#DejaVuSans-108"/>
      <use x="849.113281" xlink:href="#DejaVuSans-105"/>
      <use x="876.896484" xlink:href="#DejaVuSans-116"/>
      <use x="916.105469" xlink:href="#DejaVuSans-121"/>
     </g>
    </g>
   </g>
   <g id="line2d_33">
    <defs>
     <path d="M 0 1.5 
C 0.397805 1.5 0.77937 1.341951 1.06066 1.06066 
C 1.341951 0.77937 1.5 0.397805 1.5 0 
C 1.5 -0.397805 1.341951 -0.77937 1.06066 -1.06066 
C 0.77937 -1.341951 0.397805 -1.5 0 -1.5 
C -0.397805 -1.5 -0.77937 -1.341951 -1.06066 -1.06066 
C -1.341951 -0.77937 -1.5 -0.397805 -1.5 0 
C -1.5 0.397805 -1.341951 0.77937 -1.06066 1.06066 
C -0.77937 1.341951 -0.397805 1.5 0 1.5 
z
" id="mc64759e821" style="stroke:#000000;"/>
    </defs>
    <g clip-path="url(#pc4e97f9790)">
     <use style="stroke:#000000;" x="81.843892" xlink:href="#mc64759e821" y="293.70712"/>
     <use style="stroke:#000000;" x="88.911262" xlink:href="#mc64759e821" y="275.55401"/>
     <use style="stroke:#000000;" x="95.978632" xlink:href="#mc64759e821" y="257.4009"/>
     <use style="stroke:#000000;" x="103.046002" xlink:href="#mc64759e821" y="311.86023"/>
     <use style="stroke:#000000;" x="110.113373" xlink:href="#mc64759e821" y="311.86023"/>
     <use style="stroke:#000000;" x="117.180743" xlink:href="#mc64759e821" y="311.86023"/>
     <use style="stroke:#000000;" x="124.248113" xlink:href="#mc64759e821" y="257.4009"/>
     <use style="stroke:#000000;" x="131.315483" xlink:href="#mc64759e821" y="184.78846"/>
     <use style="stroke:#000000;" x="138.382853" xlink:href="#mc64759e821" y="202.94157"/>
     <use style="stroke:#000000;" x="145.450223" xlink:href="#mc64759e821" y="202.94157"/>
     <use style="stroke:#000000;" x="152.517593" xlink:href="#mc64759e821" y="166.63535"/>
     <use style="stroke:#000000;" x="159.584963" xlink:href="#mc64759e821" y="184.78846"/>
     <use style="stroke:#000000;" x="166.652334" xlink:href="#mc64759e821" y="184.78846"/>
     <use style="stroke:#000000;" x="173.719704" xlink:href="#mc64759e821" y="112.17602"/>
     <use style="stroke:#000000;" x="180.787074" xlink:href="#mc64759e821" y="130.32913"/>
     <use style="stroke:#000000;" x="187.854444" xlink:href="#mc64759e821" y="148.48224"/>
     <use style="stroke:#000000;" x="194.921814" xlink:href="#mc64759e821" y="184.78846"/>
     <use style="stroke:#000000;" x="201.989184" xlink:href="#mc64759e821" y="202.94157"/>
     <use style="stroke:#000000;" x="209.056554" xlink:href="#mc64759e821" y="166.63535"/>
     <use style="stroke:#000000;" x="216.123925" xlink:href="#mc64759e821" y="184.78846"/>
     <use style="stroke:#000000;" x="223.191295" xlink:href="#mc64759e821" y="166.63535"/>
     <use style="stroke:#000000;" x="230.258665" xlink:href="#mc64759e821" y="148.48224"/>
     <use style="stroke:#000000;" x="237.326035" xlink:href="#mc64759e821" y="184.78846"/>
     <use style="stroke:#000000;" x="244.393405" xlink:href="#mc64759e821" y="202.94157"/>
     <use style="stroke:#000000;" x="251.460775" xlink:href="#mc64759e821" y="184.78846"/>
     <use style="stroke:#000000;" x="258.528145" xlink:href="#mc64759e821" y="202.94157"/>
     <use style="stroke:#000000;" x="265.595515" xlink:href="#mc64759e821" y="202.94157"/>
     <use style="stroke:#000000;" x="272.662886" xlink:href="#mc64759e821" y="184.78846"/>
     <use style="stroke:#000000;" x="279.730256" xlink:href="#mc64759e821" y="184.78846"/>
     <use style="stroke:#000000;" x="286.797626" xlink:href="#mc64759e821" y="184.78846"/>
     <use style="stroke:#000000;" x="293.864996" xlink:href="#mc64759e821" y="202.94157"/>
     <use style="stroke:#000000;" x="300.932366" xlink:href="#mc64759e821" y="239.24779"/>
     <use style="stroke:#000000;" x="307.999736" xlink:href="#mc64759e821" y="221.09468"/>
     <use style="stroke:#000000;" x="315.067106" xlink:href="#mc64759e821" y="184.78846"/>
     <use style="stroke:#000000;" x="322.134476" xlink:href="#mc64759e821" y="202.94157"/>
     <use style="stroke:#000000;" x="329.201847" xlink:href="#mc64759e821" y="221.09468"/>
     <use style="stroke:#000000;" x="336.269217" xlink:href="#mc64759e821" y="221.09468"/>
     <use style="stroke:#000000;" x="343.336587" xlink:href="#mc64759e821" y="221.09468"/>
     <use style="stroke:#000000;" x="350.403957" xlink:href="#mc64759e821" y="257.4009"/>
     <use style="stroke:#000000;" x="357.471327" xlink:href="#mc64759e821" y="221.09468"/>
     <use style="stroke:#000000;" x="364.538697" xlink:href="#mc64759e821" y="202.94157"/>
     <use style="stroke:#000000;" x="371.606067" xlink:href="#mc64759e821" y="166.63535"/>
     <use style="stroke:#000000;" x="378.673438" xlink:href="#mc64759e821" y="202.94157"/>
     <use style="stroke:#000000;" x="385.740808" xlink:href="#mc64759e821" y="239.24779"/>
     <use style="stroke:#000000;" x="392.808178" xlink:href="#mc64759e821" y="221.09468"/>
     <use style="stroke:#000000;" x="399.875548" xlink:href="#mc64759e821" y="257.4009"/>
     <use style="stroke:#000000;" x="406.942918" xlink:href="#mc64759e821" y="221.09468"/>
     <use style="stroke:#000000;" x="414.010288" xlink:href="#mc64759e821" y="221.09468"/>
     <use style="stroke:#000000;" x="421.077658" xlink:href="#mc64759e821" y="221.09468"/>
     <use style="stroke:#000000;" x="428.145028" xlink:href="#mc64759e821" y="221.09468"/>
     <use style="stroke:#000000;" x="435.212399" xlink:href="#mc64759e821" y="239.24779"/>
     <use style="stroke:#000000;" x="442.279769" xlink:href="#mc64759e821" y="239.24779"/>
     <use style="stroke:#000000;" x="449.347139" xlink:href="#mc64759e821" y="257.4009"/>
     <use style="stroke:#000000;" x="456.414509" xlink:href="#mc64759e821" y="239.24779"/>
     <use style="stroke:#000000;" x="463.481879" xlink:href="#mc64759e821" y="239.24779"/>
     <use style="stroke:#000000;" x="470.549249" xlink:href="#mc64759e821" y="221.09468"/>
     <use style="stroke:#000000;" x="477.616619" xlink:href="#mc64759e821" y="239.24779"/>
     <use style="stroke:#000000;" x="484.683989" xlink:href="#mc64759e821" y="221.09468"/>
     <use style="stroke:#000000;" x="491.75136" xlink:href="#mc64759e821" y="239.24779"/>
     <use style="stroke:#000000;" x="498.81873" xlink:href="#mc64759e821" y="311.86023"/>
     <use style="stroke:#000000;" x="505.8861" xlink:href="#mc64759e821" y="39.56358"/>
     <use style="stroke:#000000;" x="512.95347" xlink:href="#mc64759e821" y="239.24779"/>
     <use style="stroke:#000000;" x="520.02084" xlink:href="#mc64759e821" y="184.78846"/>
     <use style="stroke:#000000;" x="527.08821" xlink:href="#mc64759e821" y="239.24779"/>
     <use style="stroke:#000000;" x="534.15558" xlink:href="#mc64759e821" y="221.09468"/>
     <use style="stroke:#000000;" x="541.22295" xlink:href="#mc64759e821" y="239.24779"/>
     <use style="stroke:#000000;" x="548.290321" xlink:href="#mc64759e821" y="275.55401"/>
     <use style="stroke:#000000;" x="555.357691" xlink:href="#mc64759e821" y="239.24779"/>
     <use style="stroke:#000000;" x="562.425061" xlink:href="#mc64759e821" y="257.4009"/>
     <use style="stroke:#000000;" x="569.492431" xlink:href="#mc64759e821" y="239.24779"/>
     <use style="stroke:#000000;" x="576.559801" xlink:href="#mc64759e821" y="257.4009"/>
     <use style="stroke:#000000;" x="583.627171" xlink:href="#mc64759e821" y="293.70712"/>
     <use style="stroke:#000000;" x="590.694541" xlink:href="#mc64759e821" y="275.55401"/>
     <use style="stroke:#000000;" x="597.761912" xlink:href="#mc64759e821" y="330.01334"/>
     <use style="stroke:#000000;" x="604.829282" xlink:href="#mc64759e821" y="384.47267"/>
     <use style="stroke:#000000;" x="611.896652" xlink:href="#mc64759e821" y="148.48224"/>
     <use style="stroke:#000000;" x="618.964022" xlink:href="#mc64759e821" y="112.17602"/>
     <use style="stroke:#000000;" x="626.031392" xlink:href="#mc64759e821" y="311.86023"/>
     <use style="stroke:#000000;" x="633.098762" xlink:href="#mc64759e821" y="330.01334"/>
     <use style="stroke:#000000;" x="640.166132" xlink:href="#mc64759e821" y="257.4009"/>
     <use style="stroke:#000000;" x="647.233502" xlink:href="#mc64759e821" y="94.02291"/>
     <use style="stroke:#000000;" x="654.300873" xlink:href="#mc64759e821" y="293.70712"/>
     <use style="stroke:#000000;" x="661.368243" xlink:href="#mc64759e821" y="311.86023"/>
     <use style="stroke:#000000;" x="668.435613" xlink:href="#mc64759e821" y="293.70712"/>
     <use style="stroke:#000000;" x="675.502983" xlink:href="#mc64759e821" y="221.09468"/>
    </g>
   </g>
   <g id="line2d_34">
    <path clip-path="url(#pc4e97f9790)" d="M 81.843892 290.711167 
L 88.911262 296.832987 
L 95.978632 288.074021 
L 103.046002 293.105641 
L 110.113373 272.418593 
L 117.180743 262.454562 
L 124.248113 222.258575 
L 131.315483 224.537335 
L 138.382853 224.081061 
L 145.450223 208.744004 
L 152.517593 207.197533 
L 159.584963 179.934315 
L 166.652334 167.726297 
L 173.719704 131.862493 
L 180.787074 150.984536 
L 187.854444 167.371545 
L 194.921814 168.877768 
L 201.989184 184.174577 
L 209.056554 173.754639 
L 216.123925 174.057719 
L 223.191295 150.705015 
L 230.258665 169.827058 
L 237.326035 186.214067 
L 244.393405 187.72029 
L 251.460775 203.017099 
L 258.528145 192.596635 
L 265.595515 192.899189 
L 272.662886 169.545958 
L 279.730256 188.665496 
L 286.797626 205.050001 
L 293.864996 206.553177 
L 300.932366 221.84694 
L 307.999736 211.423956 
L 315.067106 211.394512 
L 322.134476 187.709283 
L 329.201847 206.498803 
L 336.269217 221.29472 
L 343.336587 221.209852 
L 350.403957 234.91557 
L 357.471327 222.904409 
L 364.538697 221.616267 
L 371.606067 196.67234 
L 378.673438 214.203161 
L 385.740808 228.998947 
L 392.808178 228.913947 
L 399.875548 242.619534 
L 406.942918 230.608374 
L 414.010288 229.320231 
L 421.077658 204.376304 
L 428.145028 221.906239 
L 435.212399 236.701139 
L 442.279769 236.615253 
L 449.347139 248.210407 
L 456.414509 234.088814 
L 463.481879 230.690239 
L 470.549249 203.632615 
L 477.616619 219.049738 
L 484.683989 231.731826 
L 491.75136 229.533129 
L 498.81873 241.125018 
L 505.8861 227.001826 
L 512.95347 223.601652 
L 520.02084 196.545693 
L 527.08821 219.193805 
L 534.15558 239.106882 
L 541.22295 244.139174 
L 548.290321 262.962051 
L 555.357691 256.068182 
L 562.425061 254.289796 
L 569.492431 228.855625 
L 576.559801 245.896202 
L 583.627171 260.201744 
L 590.694541 259.6265 
L 597.761912 272.841843 
L 604.829282 260.340439 
L 611.896652 258.562053 
L 618.964022 233.127882 
L 626.031392 250.168459 
L 633.098762 264.474001 
L 640.166132 263.898757 
L 647.233502 277.1141 
L 654.300873 264.612696 
L 661.368243 262.83431 
L 668.435613 237.400138 
L 675.502983 254.440715 
" style="fill:none;stroke:#0072b2;stroke-linecap:square;stroke-width:1.5;"/>
   </g>
   <g id="line2d_35">
    <path clip-path="url(#pc4e97f9790)" d="M 81.843892 298.783522 
L 88.911262 291.210121 
L 95.978632 283.636721 
L 103.046002 276.063321 
L 110.113373 268.487999 
L 117.180743 260.912678 
L 124.248113 246.761184 
L 131.315483 232.609689 
L 138.382853 218.458195 
L 145.450223 204.306704 
L 152.517593 190.155213 
L 159.584963 176.003722 
L 166.652334 166.184412 
L 173.719704 156.365102 
L 180.787074 159.056891 
L 187.854444 161.748679 
L 194.921814 164.440468 
L 201.989184 167.132257 
L 209.056554 169.824046 
L 216.123925 172.515835 
L 223.191295 175.207623 
L 230.258665 177.899412 
L 237.326035 180.591201 
L 244.393405 183.28299 
L 251.460775 185.974779 
L 258.528145 188.666041 
L 265.595515 191.357304 
L 272.662886 194.048566 
L 279.730256 196.737851 
L 286.797626 199.427135 
L 293.864996 202.115877 
L 300.932366 204.80462 
L 307.999736 207.493362 
L 315.067106 209.852627 
L 322.134476 212.211892 
L 329.201847 214.571157 
L 336.269217 215.671855 
L 343.336587 216.772552 
L 350.403957 217.87325 
L 357.471327 218.973816 
L 364.538697 220.074382 
L 371.606067 221.174949 
L 378.673438 222.275515 
L 385.740808 223.376081 
L 392.808178 224.476648 
L 399.875548 225.577214 
L 406.942918 226.67778 
L 414.010288 227.778347 
L 421.077658 228.878913 
L 428.145028 229.978593 
L 435.212399 231.078273 
L 442.279769 232.177954 
L 449.347139 231.168087 
L 456.414509 230.158221 
L 463.481879 229.148355 
L 470.549249 228.135223 
L 477.616619 227.122092 
L 484.683989 226.108961 
L 491.75136 225.09583 
L 498.81873 224.082699 
L 505.8861 223.071233 
L 512.95347 222.059767 
L 520.02084 221.048301 
L 527.08821 227.266159 
L 534.15558 233.484016 
L 541.22295 239.701874 
L 548.290321 245.919732 
L 555.357691 252.137589 
L 562.425061 252.747911 
L 569.492431 253.358234 
L 576.559801 253.968556 
L 583.627171 254.578879 
L 590.694541 255.189201 
L 597.761912 255.799523 
L 604.829282 256.409846 
L 611.896652 257.020168 
L 618.964022 257.63049 
L 626.031392 258.240813 
L 633.098762 258.851135 
L 640.166132 259.461458 
L 647.233502 260.07178 
L 654.300873 260.682102 
L 661.368243 261.292425 
L 668.435613 261.902747 
L 675.502983 262.513069 
" style="fill:none;stroke:#0000ff;stroke-linecap:square;stroke-width:1.5;"/>
   </g>
   <g id="line2d_36">
    <path clip-path="url(#pc4e97f9790)" d="M 117.180743 401.718125 
L 117.180743 22.318125 
" style="fill:none;stroke:#0000ff;stroke-dasharray:5.55,2.4;stroke-dashoffset:0;stroke-width:1.5;"/>
   </g>
   <g id="line2d_37">
    <path clip-path="url(#pc4e97f9790)" d="M 159.584963 401.718125 
L 159.584963 22.318125 
" style="fill:none;stroke:#0000ff;stroke-dasharray:5.55,2.4;stroke-dashoffset:0;stroke-width:1.5;"/>
   </g>
   <g id="line2d_38">
    <path clip-path="url(#pc4e97f9790)" d="M 173.719704 401.718125 
L 173.719704 22.318125 
" style="fill:none;stroke:#0000ff;stroke-dasharray:5.55,2.4;stroke-dashoffset:0;stroke-width:1.5;"/>
   </g>
   <g id="line2d_39">
    <path clip-path="url(#pc4e97f9790)" d="M 307.999736 401.718125 
L 307.999736 22.318125 
" style="fill:none;stroke:#0000ff;stroke-dasharray:5.55,2.4;stroke-dashoffset:0;stroke-width:1.5;"/>
   </g>
   <g id="line2d_40">
    <path clip-path="url(#pc4e97f9790)" d="M 329.201847 401.718125 
L 329.201847 22.318125 
" style="fill:none;stroke:#0000ff;stroke-dasharray:5.55,2.4;stroke-dashoffset:0;stroke-width:1.5;"/>
   </g>
   <g id="line2d_41">
    <path clip-path="url(#pc4e97f9790)" d="M 442.279769 401.718125 
L 442.279769 22.318125 
" style="fill:none;stroke:#0000ff;stroke-dasharray:5.55,2.4;stroke-dashoffset:0;stroke-width:1.5;"/>
   </g>
   <g id="line2d_42">
    <path clip-path="url(#pc4e97f9790)" d="M 520.02084 401.718125 
L 520.02084 22.318125 
" style="fill:none;stroke:#0000ff;stroke-dasharray:5.55,2.4;stroke-dashoffset:0;stroke-width:1.5;"/>
   </g>
   <g id="line2d_43">
    <path clip-path="url(#pc4e97f9790)" d="M 555.357691 401.718125 
L 555.357691 22.318125 
" style="fill:none;stroke:#0000ff;stroke-dasharray:5.55,2.4;stroke-dashoffset:0;stroke-width:1.5;"/>
   </g>
   <g id="line2d_44">
    <path clip-path="url(#pc4e97f9790)" d="M 117.180743 401.718125 
L 117.180743 22.318125 
" style="fill:none;stroke:#ff0000;stroke-linecap:square;stroke-width:3;"/>
   </g>
   <g id="patch_3">
    <path d="M 52.160938 401.718125 
L 52.160938 22.318125 
" style="fill:none;stroke:#000000;stroke-linecap:square;stroke-linejoin:miter;stroke-width:0.8;"/>
   </g>
   <g id="patch_4">
    <path d="M 705.185938 401.718125 
L 705.185938 22.318125 
" style="fill:none;stroke:#000000;stroke-linecap:square;stroke-linejoin:miter;stroke-width:0.8;"/>
   </g>
   <g id="patch_5">
    <path d="M 52.160938 401.718125 
L 705.185938 401.718125 
" style="fill:none;stroke:#000000;stroke-linecap:square;stroke-linejoin:miter;stroke-width:0.8;"/>
   </g>
   <g id="patch_6">
    <path d="M 52.160938 22.318125 
L 705.185938 22.318125 
" style="fill:none;stroke:#000000;stroke-linecap:square;stroke-linejoin:miter;stroke-width:0.8;"/>
   </g>
   <g id="text_19">
    <!-- Residential Mobility Graph for South Korea -->
    <defs>
     <path d="M 59.515625 10.40625 
L 59.515625 29.984375 
L 43.40625 29.984375 
L 43.40625 38.09375 
L 69.28125 38.09375 
L 69.28125 6.78125 
Q 63.578125 2.734375 56.6875 0.65625 
Q 49.8125 -1.421875 42 -1.421875 
Q 24.90625 -1.421875 15.25 8.5625 
Q 5.609375 18.5625 5.609375 36.375 
Q 5.609375 54.25 15.25 64.234375 
Q 24.90625 74.21875 42 74.21875 
Q 49.125 74.21875 55.546875 72.453125 
Q 61.96875 70.703125 67.390625 67.28125 
L 67.390625 56.78125 
Q 61.921875 61.421875 55.765625 63.765625 
Q 49.609375 66.109375 42.828125 66.109375 
Q 29.4375 66.109375 22.71875 58.640625 
Q 16.015625 51.171875 16.015625 36.375 
Q 16.015625 21.625 22.71875 14.15625 
Q 29.4375 6.6875 42.828125 6.6875 
Q 48.046875 6.6875 52.140625 7.59375 
Q 56.25 8.5 59.515625 10.40625 
z
" id="DejaVuSans-71"/>
     <path d="M 41.109375 46.296875 
Q 39.59375 47.171875 37.8125 47.578125 
Q 36.03125 48 33.890625 48 
Q 26.265625 48 22.1875 43.046875 
Q 18.109375 38.09375 18.109375 28.8125 
L 18.109375 0 
L 9.078125 0 
L 9.078125 54.6875 
L 18.109375 54.6875 
L 18.109375 46.1875 
Q 20.953125 51.171875 25.484375 53.578125 
Q 30.03125 56 36.53125 56 
Q 37.453125 56 38.578125 55.875 
Q 39.703125 55.765625 41.0625 55.515625 
z
" id="DejaVuSans-114"/>
     <path d="M 18.109375 8.203125 
L 18.109375 -20.796875 
L 9.078125 -20.796875 
L 9.078125 54.6875 
L 18.109375 54.6875 
L 18.109375 46.390625 
Q 20.953125 51.265625 25.265625 53.625 
Q 29.59375 56 35.59375 56 
Q 45.5625 56 51.78125 48.09375 
Q 58.015625 40.1875 58.015625 27.296875 
Q 58.015625 14.40625 51.78125 6.484375 
Q 45.5625 -1.421875 35.59375 -1.421875 
Q 29.59375 -1.421875 25.265625 0.953125 
Q 20.953125 3.328125 18.109375 8.203125 
z
M 48.6875 27.296875 
Q 48.6875 37.203125 44.609375 42.84375 
Q 40.53125 48.484375 33.40625 48.484375 
Q 26.265625 48.484375 22.1875 42.84375 
Q 18.109375 37.203125 18.109375 27.296875 
Q 18.109375 17.390625 22.1875 11.75 
Q 26.265625 6.109375 33.40625 6.109375 
Q 40.53125 6.109375 44.609375 11.75 
Q 48.6875 17.390625 48.6875 27.296875 
z
" id="DejaVuSans-112"/>
     <path d="M 54.890625 33.015625 
L 54.890625 0 
L 45.90625 0 
L 45.90625 32.71875 
Q 45.90625 40.484375 42.875 44.328125 
Q 39.84375 48.1875 33.796875 48.1875 
Q 26.515625 48.1875 22.3125 43.546875 
Q 18.109375 38.921875 18.109375 30.90625 
L 18.109375 0 
L 9.078125 0 
L 9.078125 75.984375 
L 18.109375 75.984375 
L 18.109375 46.1875 
Q 21.34375 51.125 25.703125 53.5625 
Q 30.078125 56 35.796875 56 
Q 45.21875 56 50.046875 50.171875 
Q 54.890625 44.34375 54.890625 33.015625 
z
" id="DejaVuSans-104"/>
     <path d="M 37.109375 75.984375 
L 37.109375 68.5 
L 28.515625 68.5 
Q 23.6875 68.5 21.796875 66.546875 
Q 19.921875 64.59375 19.921875 59.515625 
L 19.921875 54.6875 
L 34.71875 54.6875 
L 34.71875 47.703125 
L 19.921875 47.703125 
L 19.921875 0 
L 10.890625 0 
L 10.890625 47.703125 
L 2.296875 47.703125 
L 2.296875 54.6875 
L 10.890625 54.6875 
L 10.890625 58.5 
Q 10.890625 67.625 15.140625 71.796875 
Q 19.390625 75.984375 28.609375 75.984375 
z
" id="DejaVuSans-102"/>
     <path d="M 53.515625 70.515625 
L 53.515625 60.890625 
Q 47.90625 63.578125 42.921875 64.890625 
Q 37.9375 66.21875 33.296875 66.21875 
Q 25.25 66.21875 20.875 63.09375 
Q 16.5 59.96875 16.5 54.203125 
Q 16.5 49.359375 19.40625 46.890625 
Q 22.3125 44.4375 30.421875 42.921875 
L 36.375 41.703125 
Q 47.40625 39.59375 52.65625 34.296875 
Q 57.90625 29 57.90625 20.125 
Q 57.90625 9.515625 50.796875 4.046875 
Q 43.703125 -1.421875 29.984375 -1.421875 
Q 24.8125 -1.421875 18.96875 -0.25 
Q 13.140625 0.921875 6.890625 3.21875 
L 6.890625 13.375 
Q 12.890625 10.015625 18.65625 8.296875 
Q 24.421875 6.59375 29.984375 6.59375 
Q 38.421875 6.59375 43.015625 9.90625 
Q 47.609375 13.234375 47.609375 19.390625 
Q 47.609375 24.75 44.3125 27.78125 
Q 41.015625 30.8125 33.5 32.328125 
L 27.484375 33.5 
Q 16.453125 35.6875 11.515625 40.375 
Q 6.59375 45.0625 6.59375 53.421875 
Q 6.59375 63.09375 13.40625 68.65625 
Q 20.21875 74.21875 32.171875 74.21875 
Q 37.3125 74.21875 42.625 73.28125 
Q 47.953125 72.359375 53.515625 70.515625 
z
" id="DejaVuSans-83"/>
     <path d="M 8.5 21.578125 
L 8.5 54.6875 
L 17.484375 54.6875 
L 17.484375 21.921875 
Q 17.484375 14.15625 20.5 10.265625 
Q 23.53125 6.390625 29.59375 6.390625 
Q 36.859375 6.390625 41.078125 11.03125 
Q 45.3125 15.671875 45.3125 23.6875 
L 45.3125 54.6875 
L 54.296875 54.6875 
L 54.296875 0 
L 45.3125 0 
L 45.3125 8.40625 
Q 42.046875 3.421875 37.71875 1 
Q 33.40625 -1.421875 27.6875 -1.421875 
Q 18.265625 -1.421875 13.375 4.4375 
Q 8.5 10.296875 8.5 21.578125 
z
M 31.109375 56 
z
" id="DejaVuSans-117"/>
     <path d="M 9.8125 72.90625 
L 19.671875 72.90625 
L 19.671875 42.09375 
L 52.390625 72.90625 
L 65.09375 72.90625 
L 28.90625 38.921875 
L 67.671875 0 
L 54.6875 0 
L 19.671875 35.109375 
L 19.671875 0 
L 9.8125 0 
z
" id="DejaVuSans-75"/>
    </defs>
    <g transform="translate(251.430312 16.318125)scale(0.12 -0.12)">
     <use xlink:href="#DejaVuSans-82"/>
     <use x="64.982422" xlink:href="#DejaVuSans-101"/>
     <use x="126.505859" xlink:href="#DejaVuSans-115"/>
     <use x="178.605469" xlink:href="#DejaVuSans-105"/>
     <use x="206.388672" xlink:href="#DejaVuSans-100"/>
     <use x="269.865234" xlink:href="#DejaVuSans-101"/>
     <use x="331.388672" xlink:href="#DejaVuSans-110"/>
     <use x="394.767578" xlink:href="#DejaVuSans-116"/>
     <use x="433.976562" xlink:href="#DejaVuSans-105"/>
     <use x="461.759766" xlink:href="#DejaVuSans-97"/>
     <use x="523.039062" xlink:href="#DejaVuSans-108"/>
     <use x="550.822266" xlink:href="#DejaVuSans-32"/>
     <use x="582.609375" xlink:href="#DejaVuSans-77"/>
     <use x="668.888672" xlink:href="#DejaVuSans-111"/>
     <use x="730.070312" xlink:href="#DejaVuSans-98"/>
     <use x="793.546875" xlink:href="#DejaVuSans-105"/>
     <use x="821.330078" xlink:href="#DejaVuSans-108"/>
     <use x="849.113281" xlink:href="#DejaVuSans-105"/>
     <use x="876.896484" xlink:href="#DejaVuSans-116"/>
     <use x="916.105469" xlink:href="#DejaVuSans-121"/>
     <use x="975.285156" xlink:href="#DejaVuSans-32"/>
     <use x="1007.072266" xlink:href="#DejaVuSans-71"/>
     <use x="1084.5625" xlink:href="#DejaVuSans-114"/>
     <use x="1125.675781" xlink:href="#DejaVuSans-97"/>
     <use x="1186.955078" xlink:href="#DejaVuSans-112"/>
     <use x="1250.431641" xlink:href="#DejaVuSans-104"/>
     <use x="1313.810547" xlink:href="#DejaVuSans-32"/>
     <use x="1345.597656" xlink:href="#DejaVuSans-102"/>
     <use x="1380.802734" xlink:href="#DejaVuSans-111"/>
     <use x="1441.984375" xlink:href="#DejaVuSans-114"/>
     <use x="1483.097656" xlink:href="#DejaVuSans-32"/>
     <use x="1514.884766" xlink:href="#DejaVuSans-83"/>
     <use x="1578.361328" xlink:href="#DejaVuSans-111"/>
     <use x="1639.542969" xlink:href="#DejaVuSans-117"/>
     <use x="1702.921875" xlink:href="#DejaVuSans-116"/>
     <use x="1742.130859" xlink:href="#DejaVuSans-104"/>
     <use x="1805.509766" xlink:href="#DejaVuSans-32"/>
     <use x="1837.296875" xlink:href="#DejaVuSans-75"/>
     <use x="1897.873047" xlink:href="#DejaVuSans-111"/>
     <use x="1959.054688" xlink:href="#DejaVuSans-114"/>
     <use x="1997.917969" xlink:href="#DejaVuSans-101"/>
     <use x="2059.441406" xlink:href="#DejaVuSans-97"/>
    </g>
   </g>
   <g id="legend_1">
    <g id="patch_7">
     <path d="M 543.710938 44.99625 
L 698.185938 44.99625 
Q 700.185938 44.99625 700.185938 42.99625 
L 700.185938 29.318125 
Q 700.185938 27.318125 698.185938 27.318125 
L 543.710938 27.318125 
Q 541.710938 27.318125 541.710938 29.318125 
L 541.710938 42.99625 
Q 541.710938 44.99625 543.710938 44.99625 
z
" style="fill:#ffffff;opacity:0.8;stroke:#cccccc;stroke-linejoin:miter;"/>
    </g>
    <g id="line2d_45">
     <path d="M 545.710938 35.416562 
L 565.710938 35.416562 
" style="fill:none;stroke:#ff0000;stroke-linecap:square;stroke-width:3;"/>
    </g>
    <g id="line2d_46"/>
    <g id="text_20">
     <!-- Effective Lockdown date -->
     <defs>
      <path d="M 9.8125 72.90625 
L 55.90625 72.90625 
L 55.90625 64.59375 
L 19.671875 64.59375 
L 19.671875 43.015625 
L 54.390625 43.015625 
L 54.390625 34.71875 
L 19.671875 34.71875 
L 19.671875 8.296875 
L 56.78125 8.296875 
L 56.78125 0 
L 9.8125 0 
z
" id="DejaVuSans-69"/>
      <path d="M 48.78125 52.59375 
L 48.78125 44.1875 
Q 44.96875 46.296875 41.140625 47.34375 
Q 37.3125 48.390625 33.40625 48.390625 
Q 24.65625 48.390625 19.8125 42.84375 
Q 14.984375 37.3125 14.984375 27.296875 
Q 14.984375 17.28125 19.8125 11.734375 
Q 24.65625 6.203125 33.40625 6.203125 
Q 37.3125 6.203125 41.140625 7.25 
Q 44.96875 8.296875 48.78125 10.40625 
L 48.78125 2.09375 
Q 45.015625 0.34375 40.984375 -0.53125 
Q 36.96875 -1.421875 32.421875 -1.421875 
Q 20.0625 -1.421875 12.78125 6.34375 
Q 5.515625 14.109375 5.515625 27.296875 
Q 5.515625 40.671875 12.859375 48.328125 
Q 20.21875 56 33.015625 56 
Q 37.15625 56 41.109375 55.140625 
Q 45.0625 54.296875 48.78125 52.59375 
z
" id="DejaVuSans-99"/>
      <path d="M 2.984375 54.6875 
L 12.5 54.6875 
L 29.59375 8.796875 
L 46.6875 54.6875 
L 56.203125 54.6875 
L 35.6875 0 
L 23.484375 0 
z
" id="DejaVuSans-118"/>
      <path d="M 9.8125 72.90625 
L 19.671875 72.90625 
L 19.671875 8.296875 
L 55.171875 8.296875 
L 55.171875 0 
L 9.8125 0 
z
" id="DejaVuSans-76"/>
      <path d="M 9.078125 75.984375 
L 18.109375 75.984375 
L 18.109375 31.109375 
L 44.921875 54.6875 
L 56.390625 54.6875 
L 27.390625 29.109375 
L 57.625 0 
L 45.90625 0 
L 18.109375 26.703125 
L 18.109375 0 
L 9.078125 0 
z
" id="DejaVuSans-107"/>
      <path d="M 4.203125 54.6875 
L 13.1875 54.6875 
L 24.421875 12.015625 
L 35.59375 54.6875 
L 46.1875 54.6875 
L 57.421875 12.015625 
L 68.609375 54.6875 
L 77.59375 54.6875 
L 63.28125 0 
L 52.6875 0 
L 40.921875 44.828125 
L 29.109375 0 
L 18.5 0 
z
" id="DejaVuSans-119"/>
     </defs>
     <g transform="translate(573.710938 38.916562)scale(0.1 -0.1)">
      <use xlink:href="#DejaVuSans-69"/>
      <use x="63.183594" xlink:href="#DejaVuSans-102"/>
      <use x="98.388672" xlink:href="#DejaVuSans-102"/>
      <use x="133.59375" xlink:href="#DejaVuSans-101"/>
      <use x="195.117188" xlink:href="#DejaVuSans-99"/>
      <use x="250.097656" xlink:href="#DejaVuSans-116"/>
      <use x="289.306641" xlink:href="#DejaVuSans-105"/>
      <use x="317.089844" xlink:href="#DejaVuSans-118"/>
      <use x="376.269531" xlink:href="#DejaVuSans-101"/>
      <use x="437.792969" xlink:href="#DejaVuSans-32"/>
      <use x="469.580078" xlink:href="#DejaVuSans-76"/>
      <use x="523.542969" xlink:href="#DejaVuSans-111"/>
      <use x="584.724609" xlink:href="#DejaVuSans-99"/>
      <use x="639.705078" xlink:href="#DejaVuSans-107"/>
      <use x="697.615234" xlink:href="#DejaVuSans-100"/>
      <use x="761.091797" xlink:href="#DejaVuSans-111"/>
      <use x="822.273438" xlink:href="#DejaVuSans-119"/>
      <use x="904.060547" xlink:href="#DejaVuSans-110"/>
      <use x="967.439453" xlink:href="#DejaVuSans-32"/>
      <use x="999.226562" xlink:href="#DejaVuSans-100"/>
      <use x="1062.703125" xlink:href="#DejaVuSans-97"/>
      <use x="1123.982422" xlink:href="#DejaVuSans-116"/>
      <use x="1163.191406" xlink:href="#DejaVuSans-101"/>
     </g>
    </g>
   </g>
  </g>
 </g>
 <defs>
  <clipPath id="pc4e97f9790">
   <rect height="379.4" width="653.025" x="52.160938" y="22.318125"/>
  </clipPath>
 </defs>
</svg>
