<?xml version="1.0" encoding="utf-8" standalone="no"?>
<!DOCTYPE svg PUBLIC "-//W3C//DTD SVG 1.1//EN"
  "http://www.w3.org/Graphics/SVG/1.1/DTD/svg11.dtd">
<!-- Created with matplotlib (https://matplotlib.org/) -->
<svg height="439.274375pt" version="1.1" viewBox="0 0 712.470313 439.274375" width="712.470313pt" xmlns="http://www.w3.org/2000/svg" xmlns:xlink="http://www.w3.org/1999/xlink">
 <defs>
  <style type="text/css">
*{stroke-linecap:butt;stroke-linejoin:round;}
  </style>
 </defs>
 <g id="figure_1">
  <g id="patch_1">
   <path d="M 0 439.274375 
L 712.470313 439.274375 
L 712.470313 0 
L 0 0 
z
" style="fill:#ffffff;"/>
  </g>
  <g id="axes_1">
   <g id="patch_2">
    <path d="M 42.620313 401.718125 
L 705.270313 401.718125 
L 705.270313 22.318125 
L 42.620313 22.318125 
z
" style="fill:#ffffff;"/>
   </g>
   <g id="PolyCollection_1">
    <defs>
     <path d="M 72.740767 -150.008931 
L 72.740767 -77.933561 
L 79.912304 -73.265751 
L 87.083841 -128.507143 
L 94.255377 -103.888183 
L 101.426914 -103.839429 
L 108.598451 -105.077272 
L 115.769988 -129.081686 
L 122.941525 -55.157082 
L 130.113061 -55.745705 
L 137.284598 -111.836252 
L 144.456135 -94.306982 
L 151.627672 -98.355457 
L 158.799209 -102.041161 
L 165.970745 -131.289881 
L 173.142282 -54.801705 
L 180.313819 -58.621004 
L 187.485356 -113.825495 
L 194.656893 -97.220889 
L 201.828429 -100.778468 
L 208.999966 -102.345066 
L 216.171503 -132.336921 
L 223.34304 -57.567017 
L 230.514577 -61.146986 
L 237.686113 -117.478824 
L 244.85765 -101.259441 
L 252.029187 -115.039924 
L 259.200724 -135.170639 
L 266.372261 -174.632456 
L 273.543797 -109.668712 
L 280.715334 -122.904821 
L 287.886871 -190.599748 
L 295.058408 -185.175924 
L 302.229945 -198.145894 
L 309.401481 -208.59663 
L 316.573018 -234.003101 
L 323.744555 -156.347855 
L 330.916092 -158.680458 
L 338.087629 -217.13784 
L 345.259165 -200.725825 
L 352.430702 -201.769069 
L 359.602239 -207.842255 
L 366.773776 -235.984196 
L 373.945312 -162.905599 
L 381.116849 -165.316477 
L 388.288386 -219.736313 
L 395.459923 -208.770614 
L 402.63146 -208.50376 
L 409.802996 -214.045358 
L 416.974533 -242.316376 
L 424.14607 -169.964434 
L 431.317607 -172.448043 
L 438.489144 -231.70672 
L 445.66068 -218.711922 
L 452.832217 -224.680532 
L 460.003754 -234.320175 
L 467.175291 -264.242363 
L 474.346828 -195.251353 
L 481.518364 -194.291004 
L 488.689901 -252.902428 
L 495.861438 -233.604152 
L 503.032975 -226.417664 
L 510.204512 -220.9052 
L 517.376048 -240.857213 
L 524.547585 -153.515439 
L 531.719122 -150.922915 
L 538.890659 -204.784228 
L 546.062196 -184.644823 
L 553.233732 -187.630338 
L 560.405269 -195.355711 
L 567.576806 -218.578915 
L 574.748343 -142.539211 
L 581.91988 -143.794741 
L 589.091416 -202.163792 
L 596.262953 -185.514655 
L 603.43449 -185.425217 
L 610.606027 -192.002814 
L 617.777564 -215.515437 
L 624.9491 -141.827833 
L 632.120637 -144.465398 
L 639.292174 -200.484879 
L 646.463711 -183.284686 
L 653.635248 -185.598314 
L 660.806784 -191.041053 
L 667.978321 -215.591159 
L 675.149858 -139.791051 
L 675.149858 -213.226562 
L 675.149858 -213.226562 
L 667.978321 -286.161397 
L 660.806784 -260.509645 
L 653.635248 -255.264889 
L 646.463711 -252.813661 
L 639.292174 -270.576663 
L 632.120637 -213.7443 
L 624.9491 -212.512074 
L 617.777564 -288.223895 
L 610.606027 -263.366642 
L 603.43449 -254.018783 
L 596.262953 -255.625805 
L 589.091416 -272.471101 
L 581.91988 -215.438402 
L 574.748343 -216.126059 
L 567.576806 -289.316332 
L 560.405269 -264.232499 
L 553.233732 -256.403307 
L 546.062196 -257.484467 
L 538.890659 -273.163244 
L 531.719122 -216.611781 
L 524.547585 -226.571886 
L 517.376048 -310.410989 
L 510.204512 -294.825924 
L 503.032975 -294.994779 
L 495.861438 -306.078375 
L 488.689901 -321.038839 
L 481.518364 -265.453421 
L 474.346828 -265.697169 
L 467.175291 -335.575535 
L 460.003754 -304.421596 
L 452.832217 -296.745234 
L 445.66068 -289.373983 
L 438.489144 -301.241551 
L 431.317607 -243.12841 
L 424.14607 -240.812439 
L 416.974533 -313.556393 
L 409.802996 -286.836496 
L 402.63146 -281.105625 
L 395.459923 -275.802746 
L 388.288386 -291.900822 
L 381.116849 -233.758555 
L 373.945312 -235.081174 
L 366.773776 -309.203502 
L 359.602239 -280.51123 
L 352.430702 -274.274634 
L 345.259165 -272.250526 
L 338.087629 -289.232679 
L 330.916092 -230.816078 
L 323.744555 -226.367724 
L 316.573018 -306.176247 
L 309.401481 -277.960034 
L 302.229945 -272.557291 
L 295.058408 -258.077357 
L 287.886871 -262.019015 
L 280.715334 -192.20491 
L 273.543797 -183.840919 
L 266.372261 -246.309598 
L 259.200724 -206.308035 
L 252.029187 -187.698394 
L 244.85765 -172.612967 
L 237.686113 -188.821129 
L 230.514577 -132.623655 
L 223.34304 -131.872962 
L 216.171503 -204.887509 
L 208.999966 -174.757015 
L 201.828429 -165.912556 
L 194.656893 -164.63446 
L 187.485356 -182.480378 
L 180.313819 -128.285068 
L 173.142282 -125.496316 
L 165.970745 -200.502189 
L 158.799209 -173.934537 
L 151.627672 -165.112802 
L 144.456135 -167.278655 
L 137.284598 -184.141636 
L 130.113061 -131.218153 
L 122.941525 -123.96267 
L 115.769988 -201.425505 
L 108.598451 -176.142656 
L 101.426914 -174.366509 
L 94.255377 -179.363584 
L 87.083841 -197.890715 
L 79.912304 -146.024236 
L 72.740767 -150.008931 
z
" id="m09ce7ab48d" style="stroke:#0072b2;stroke-opacity:0.2;"/>
    </defs>
    <g clip-path="url(#p050b41dcf7)">
     <use style="fill:#0072b2;fill-opacity:0.2;stroke:#0072b2;stroke-opacity:0.2;" x="0" xlink:href="#m09ce7ab48d" y="439.274375"/>
    </g>
   </g>
   <g id="matplotlib.axis_1">
    <g id="xtick_1">
     <g id="line2d_1">
      <path clip-path="url(#p050b41dcf7)" d="M 65.56923 401.718125 
L 65.56923 22.318125 
" style="fill:none;stroke:#808080;stroke-linecap:square;stroke-opacity:0.2;"/>
     </g>
     <g id="line2d_2">
      <defs>
       <path d="M 0 0 
L 0 3.5 
" id="m4343db83ca" style="stroke:#000000;stroke-width:0.8;"/>
      </defs>
      <g>
       <use style="stroke:#000000;stroke-width:0.8;" x="65.56923" xlink:href="#m4343db83ca" y="401.718125"/>
      </g>
     </g>
     <g id="text_1">
      <!-- 2020-02-14 -->
      <defs>
       <path d="M 19.1875 8.296875 
L 53.609375 8.296875 
L 53.609375 0 
L 7.328125 0 
L 7.328125 8.296875 
Q 12.9375 14.109375 22.625 23.890625 
Q 32.328125 33.6875 34.8125 36.53125 
Q 39.546875 41.84375 41.421875 45.53125 
Q 43.3125 49.21875 43.3125 52.78125 
Q 43.3125 58.59375 39.234375 62.25 
Q 35.15625 65.921875 28.609375 65.921875 
Q 23.96875 65.921875 18.8125 64.3125 
Q 13.671875 62.703125 7.8125 59.421875 
L 7.8125 69.390625 
Q 13.765625 71.78125 18.9375 73 
Q 24.125 74.21875 28.421875 74.21875 
Q 39.75 74.21875 46.484375 68.546875 
Q 53.21875 62.890625 53.21875 53.421875 
Q 53.21875 48.921875 51.53125 44.890625 
Q 49.859375 40.875 45.40625 35.40625 
Q 44.1875 33.984375 37.640625 27.21875 
Q 31.109375 20.453125 19.1875 8.296875 
z
" id="DejaVuSans-50"/>
       <path d="M 31.78125 66.40625 
Q 24.171875 66.40625 20.328125 58.90625 
Q 16.5 51.421875 16.5 36.375 
Q 16.5 21.390625 20.328125 13.890625 
Q 24.171875 6.390625 31.78125 6.390625 
Q 39.453125 6.390625 43.28125 13.890625 
Q 47.125 21.390625 47.125 36.375 
Q 47.125 51.421875 43.28125 58.90625 
Q 39.453125 66.40625 31.78125 66.40625 
z
M 31.78125 74.21875 
Q 44.046875 74.21875 50.515625 64.515625 
Q 56.984375 54.828125 56.984375 36.375 
Q 56.984375 17.96875 50.515625 8.265625 
Q 44.046875 -1.421875 31.78125 -1.421875 
Q 19.53125 -1.421875 13.0625 8.265625 
Q 6.59375 17.96875 6.59375 36.375 
Q 6.59375 54.828125 13.0625 64.515625 
Q 19.53125 74.21875 31.78125 74.21875 
z
" id="DejaVuSans-48"/>
       <path d="M 4.890625 31.390625 
L 31.203125 31.390625 
L 31.203125 23.390625 
L 4.890625 23.390625 
z
" id="DejaVuSans-45"/>
       <path d="M 12.40625 8.296875 
L 28.515625 8.296875 
L 28.515625 63.921875 
L 10.984375 60.40625 
L 10.984375 69.390625 
L 28.421875 72.90625 
L 38.28125 72.90625 
L 38.28125 8.296875 
L 54.390625 8.296875 
L 54.390625 0 
L 12.40625 0 
z
" id="DejaVuSans-49"/>
       <path d="M 37.796875 64.3125 
L 12.890625 25.390625 
L 37.796875 25.390625 
z
M 35.203125 72.90625 
L 47.609375 72.90625 
L 47.609375 25.390625 
L 58.015625 25.390625 
L 58.015625 17.1875 
L 47.609375 17.1875 
L 47.609375 0 
L 37.796875 0 
L 37.796875 17.1875 
L 4.890625 17.1875 
L 4.890625 26.703125 
z
" id="DejaVuSans-52"/>
      </defs>
      <g transform="translate(36.511418 416.316562)scale(0.1 -0.1)">
       <use xlink:href="#DejaVuSans-50"/>
       <use x="63.623047" xlink:href="#DejaVuSans-48"/>
       <use x="127.246094" xlink:href="#DejaVuSans-50"/>
       <use x="190.869141" xlink:href="#DejaVuSans-48"/>
       <use x="254.492188" xlink:href="#DejaVuSans-45"/>
       <use x="290.576172" xlink:href="#DejaVuSans-48"/>
       <use x="354.199219" xlink:href="#DejaVuSans-50"/>
       <use x="417.822266" xlink:href="#DejaVuSans-45"/>
       <use x="453.90625" xlink:href="#DejaVuSans-49"/>
       <use x="517.529297" xlink:href="#DejaVuSans-52"/>
      </g>
     </g>
    </g>
    <g id="xtick_2">
     <g id="line2d_3">
      <path clip-path="url(#p050b41dcf7)" d="M 165.970745 401.718125 
L 165.970745 22.318125 
" style="fill:none;stroke:#808080;stroke-linecap:square;stroke-opacity:0.2;"/>
     </g>
     <g id="line2d_4">
      <g>
       <use style="stroke:#000000;stroke-width:0.8;" x="165.970745" xlink:href="#m4343db83ca" y="401.718125"/>
      </g>
     </g>
     <g id="text_2">
      <!-- 2020-02-28 -->
      <defs>
       <path d="M 31.78125 34.625 
Q 24.75 34.625 20.71875 30.859375 
Q 16.703125 27.09375 16.703125 20.515625 
Q 16.703125 13.921875 20.71875 10.15625 
Q 24.75 6.390625 31.78125 6.390625 
Q 38.8125 6.390625 42.859375 10.171875 
Q 46.921875 13.96875 46.921875 20.515625 
Q 46.921875 27.09375 42.890625 30.859375 
Q 38.875 34.625 31.78125 34.625 
z
M 21.921875 38.8125 
Q 15.578125 40.375 12.03125 44.71875 
Q 8.5 49.078125 8.5 55.328125 
Q 8.5 64.0625 14.71875 69.140625 
Q 20.953125 74.21875 31.78125 74.21875 
Q 42.671875 74.21875 48.875 69.140625 
Q 55.078125 64.0625 55.078125 55.328125 
Q 55.078125 49.078125 51.53125 44.71875 
Q 48 40.375 41.703125 38.8125 
Q 48.828125 37.15625 52.796875 32.3125 
Q 56.78125 27.484375 56.78125 20.515625 
Q 56.78125 9.90625 50.3125 4.234375 
Q 43.84375 -1.421875 31.78125 -1.421875 
Q 19.734375 -1.421875 13.25 4.234375 
Q 6.78125 9.90625 6.78125 20.515625 
Q 6.78125 27.484375 10.78125 32.3125 
Q 14.796875 37.15625 21.921875 38.8125 
z
M 18.3125 54.390625 
Q 18.3125 48.734375 21.84375 45.5625 
Q 25.390625 42.390625 31.78125 42.390625 
Q 38.140625 42.390625 41.71875 45.5625 
Q 45.3125 48.734375 45.3125 54.390625 
Q 45.3125 60.0625 41.71875 63.234375 
Q 38.140625 66.40625 31.78125 66.40625 
Q 25.390625 66.40625 21.84375 63.234375 
Q 18.3125 60.0625 18.3125 54.390625 
z
" id="DejaVuSans-56"/>
      </defs>
      <g transform="translate(136.912933 416.316562)scale(0.1 -0.1)">
       <use xlink:href="#DejaVuSans-50"/>
       <use x="63.623047" xlink:href="#DejaVuSans-48"/>
       <use x="127.246094" xlink:href="#DejaVuSans-50"/>
       <use x="190.869141" xlink:href="#DejaVuSans-48"/>
       <use x="254.492188" xlink:href="#DejaVuSans-45"/>
       <use x="290.576172" xlink:href="#DejaVuSans-48"/>
       <use x="354.199219" xlink:href="#DejaVuSans-50"/>
       <use x="417.822266" xlink:href="#DejaVuSans-45"/>
       <use x="453.90625" xlink:href="#DejaVuSans-50"/>
       <use x="517.529297" xlink:href="#DejaVuSans-56"/>
      </g>
     </g>
    </g>
    <g id="xtick_3">
     <g id="line2d_5">
      <path clip-path="url(#p050b41dcf7)" d="M 266.372261 401.718125 
L 266.372261 22.318125 
" style="fill:none;stroke:#808080;stroke-linecap:square;stroke-opacity:0.2;"/>
     </g>
     <g id="line2d_6">
      <g>
       <use style="stroke:#000000;stroke-width:0.8;" x="266.372261" xlink:href="#m4343db83ca" y="401.718125"/>
      </g>
     </g>
     <g id="text_3">
      <!-- 2020-03-13 -->
      <defs>
       <path d="M 40.578125 39.3125 
Q 47.65625 37.796875 51.625 33 
Q 55.609375 28.21875 55.609375 21.1875 
Q 55.609375 10.40625 48.1875 4.484375 
Q 40.765625 -1.421875 27.09375 -1.421875 
Q 22.515625 -1.421875 17.65625 -0.515625 
Q 12.796875 0.390625 7.625 2.203125 
L 7.625 11.71875 
Q 11.71875 9.328125 16.59375 8.109375 
Q 21.484375 6.890625 26.8125 6.890625 
Q 36.078125 6.890625 40.9375 10.546875 
Q 45.796875 14.203125 45.796875 21.1875 
Q 45.796875 27.640625 41.28125 31.265625 
Q 36.765625 34.90625 28.71875 34.90625 
L 20.21875 34.90625 
L 20.21875 43.015625 
L 29.109375 43.015625 
Q 36.375 43.015625 40.234375 45.921875 
Q 44.09375 48.828125 44.09375 54.296875 
Q 44.09375 59.90625 40.109375 62.90625 
Q 36.140625 65.921875 28.71875 65.921875 
Q 24.65625 65.921875 20.015625 65.03125 
Q 15.375 64.15625 9.8125 62.3125 
L 9.8125 71.09375 
Q 15.4375 72.65625 20.34375 73.4375 
Q 25.25 74.21875 29.59375 74.21875 
Q 40.828125 74.21875 47.359375 69.109375 
Q 53.90625 64.015625 53.90625 55.328125 
Q 53.90625 49.265625 50.4375 45.09375 
Q 46.96875 40.921875 40.578125 39.3125 
z
" id="DejaVuSans-51"/>
      </defs>
      <g transform="translate(237.314448 416.316562)scale(0.1 -0.1)">
       <use xlink:href="#DejaVuSans-50"/>
       <use x="63.623047" xlink:href="#DejaVuSans-48"/>
       <use x="127.246094" xlink:href="#DejaVuSans-50"/>
       <use x="190.869141" xlink:href="#DejaVuSans-48"/>
       <use x="254.492188" xlink:href="#DejaVuSans-45"/>
       <use x="290.576172" xlink:href="#DejaVuSans-48"/>
       <use x="354.199219" xlink:href="#DejaVuSans-51"/>
       <use x="417.822266" xlink:href="#DejaVuSans-45"/>
       <use x="453.90625" xlink:href="#DejaVuSans-49"/>
       <use x="517.529297" xlink:href="#DejaVuSans-51"/>
      </g>
     </g>
    </g>
    <g id="xtick_4">
     <g id="line2d_7">
      <path clip-path="url(#p050b41dcf7)" d="M 366.773776 401.718125 
L 366.773776 22.318125 
" style="fill:none;stroke:#808080;stroke-linecap:square;stroke-opacity:0.2;"/>
     </g>
     <g id="line2d_8">
      <g>
       <use style="stroke:#000000;stroke-width:0.8;" x="366.773776" xlink:href="#m4343db83ca" y="401.718125"/>
      </g>
     </g>
     <g id="text_4">
      <!-- 2020-03-27 -->
      <defs>
       <path d="M 8.203125 72.90625 
L 55.078125 72.90625 
L 55.078125 68.703125 
L 28.609375 0 
L 18.3125 0 
L 43.21875 64.59375 
L 8.203125 64.59375 
z
" id="DejaVuSans-55"/>
      </defs>
      <g transform="translate(337.715963 416.316562)scale(0.1 -0.1)">
       <use xlink:href="#DejaVuSans-50"/>
       <use x="63.623047" xlink:href="#DejaVuSans-48"/>
       <use x="127.246094" xlink:href="#DejaVuSans-50"/>
       <use x="190.869141" xlink:href="#DejaVuSans-48"/>
       <use x="254.492188" xlink:href="#DejaVuSans-45"/>
       <use x="290.576172" xlink:href="#DejaVuSans-48"/>
       <use x="354.199219" xlink:href="#DejaVuSans-51"/>
       <use x="417.822266" xlink:href="#DejaVuSans-45"/>
       <use x="453.90625" xlink:href="#DejaVuSans-50"/>
       <use x="517.529297" xlink:href="#DejaVuSans-55"/>
      </g>
     </g>
    </g>
    <g id="xtick_5">
     <g id="line2d_9">
      <path clip-path="url(#p050b41dcf7)" d="M 467.175291 401.718125 
L 467.175291 22.318125 
" style="fill:none;stroke:#808080;stroke-linecap:square;stroke-opacity:0.2;"/>
     </g>
     <g id="line2d_10">
      <g>
       <use style="stroke:#000000;stroke-width:0.8;" x="467.175291" xlink:href="#m4343db83ca" y="401.718125"/>
      </g>
     </g>
     <g id="text_5">
      <!-- 2020-04-10 -->
      <g transform="translate(438.117478 416.316562)scale(0.1 -0.1)">
       <use xlink:href="#DejaVuSans-50"/>
       <use x="63.623047" xlink:href="#DejaVuSans-48"/>
       <use x="127.246094" xlink:href="#DejaVuSans-50"/>
       <use x="190.869141" xlink:href="#DejaVuSans-48"/>
       <use x="254.492188" xlink:href="#DejaVuSans-45"/>
       <use x="290.576172" xlink:href="#DejaVuSans-48"/>
       <use x="354.199219" xlink:href="#DejaVuSans-52"/>
       <use x="417.822266" xlink:href="#DejaVuSans-45"/>
       <use x="453.90625" xlink:href="#DejaVuSans-49"/>
       <use x="517.529297" xlink:href="#DejaVuSans-48"/>
      </g>
     </g>
    </g>
    <g id="xtick_6">
     <g id="line2d_11">
      <path clip-path="url(#p050b41dcf7)" d="M 567.576806 401.718125 
L 567.576806 22.318125 
" style="fill:none;stroke:#808080;stroke-linecap:square;stroke-opacity:0.2;"/>
     </g>
     <g id="line2d_12">
      <g>
       <use style="stroke:#000000;stroke-width:0.8;" x="567.576806" xlink:href="#m4343db83ca" y="401.718125"/>
      </g>
     </g>
     <g id="text_6">
      <!-- 2020-04-24 -->
      <g transform="translate(538.518994 416.316562)scale(0.1 -0.1)">
       <use xlink:href="#DejaVuSans-50"/>
       <use x="63.623047" xlink:href="#DejaVuSans-48"/>
       <use x="127.246094" xlink:href="#DejaVuSans-50"/>
       <use x="190.869141" xlink:href="#DejaVuSans-48"/>
       <use x="254.492188" xlink:href="#DejaVuSans-45"/>
       <use x="290.576172" xlink:href="#DejaVuSans-48"/>
       <use x="354.199219" xlink:href="#DejaVuSans-52"/>
       <use x="417.822266" xlink:href="#DejaVuSans-45"/>
       <use x="453.90625" xlink:href="#DejaVuSans-50"/>
       <use x="517.529297" xlink:href="#DejaVuSans-52"/>
      </g>
     </g>
    </g>
    <g id="xtick_7">
     <g id="line2d_13">
      <path clip-path="url(#p050b41dcf7)" d="M 667.978321 401.718125 
L 667.978321 22.318125 
" style="fill:none;stroke:#808080;stroke-linecap:square;stroke-opacity:0.2;"/>
     </g>
     <g id="line2d_14">
      <g>
       <use style="stroke:#000000;stroke-width:0.8;" x="667.978321" xlink:href="#m4343db83ca" y="401.718125"/>
      </g>
     </g>
     <g id="text_7">
      <!-- 2020-05-08 -->
      <defs>
       <path d="M 10.796875 72.90625 
L 49.515625 72.90625 
L 49.515625 64.59375 
L 19.828125 64.59375 
L 19.828125 46.734375 
Q 21.96875 47.46875 24.109375 47.828125 
Q 26.265625 48.1875 28.421875 48.1875 
Q 40.625 48.1875 47.75 41.5 
Q 54.890625 34.8125 54.890625 23.390625 
Q 54.890625 11.625 47.5625 5.09375 
Q 40.234375 -1.421875 26.90625 -1.421875 
Q 22.3125 -1.421875 17.546875 -0.640625 
Q 12.796875 0.140625 7.71875 1.703125 
L 7.71875 11.625 
Q 12.109375 9.234375 16.796875 8.0625 
Q 21.484375 6.890625 26.703125 6.890625 
Q 35.15625 6.890625 40.078125 11.328125 
Q 45.015625 15.765625 45.015625 23.390625 
Q 45.015625 31 40.078125 35.4375 
Q 35.15625 39.890625 26.703125 39.890625 
Q 22.75 39.890625 18.8125 39.015625 
Q 14.890625 38.140625 10.796875 36.28125 
z
" id="DejaVuSans-53"/>
      </defs>
      <g transform="translate(638.920509 416.316562)scale(0.1 -0.1)">
       <use xlink:href="#DejaVuSans-50"/>
       <use x="63.623047" xlink:href="#DejaVuSans-48"/>
       <use x="127.246094" xlink:href="#DejaVuSans-50"/>
       <use x="190.869141" xlink:href="#DejaVuSans-48"/>
       <use x="254.492188" xlink:href="#DejaVuSans-45"/>
       <use x="290.576172" xlink:href="#DejaVuSans-48"/>
       <use x="354.199219" xlink:href="#DejaVuSans-53"/>
       <use x="417.822266" xlink:href="#DejaVuSans-45"/>
       <use x="453.90625" xlink:href="#DejaVuSans-48"/>
       <use x="517.529297" xlink:href="#DejaVuSans-56"/>
      </g>
     </g>
    </g>
    <g id="text_8">
     <!-- Date -->
     <defs>
      <path d="M 19.671875 64.796875 
L 19.671875 8.109375 
L 31.59375 8.109375 
Q 46.6875 8.109375 53.6875 14.9375 
Q 60.6875 21.78125 60.6875 36.53125 
Q 60.6875 51.171875 53.6875 57.984375 
Q 46.6875 64.796875 31.59375 64.796875 
z
M 9.8125 72.90625 
L 30.078125 72.90625 
Q 51.265625 72.90625 61.171875 64.09375 
Q 71.09375 55.28125 71.09375 36.53125 
Q 71.09375 17.671875 61.125 8.828125 
Q 51.171875 0 30.078125 0 
L 9.8125 0 
z
" id="DejaVuSans-68"/>
      <path d="M 34.28125 27.484375 
Q 23.390625 27.484375 19.1875 25 
Q 14.984375 22.515625 14.984375 16.5 
Q 14.984375 11.71875 18.140625 8.90625 
Q 21.296875 6.109375 26.703125 6.109375 
Q 34.1875 6.109375 38.703125 11.40625 
Q 43.21875 16.703125 43.21875 25.484375 
L 43.21875 27.484375 
z
M 52.203125 31.203125 
L 52.203125 0 
L 43.21875 0 
L 43.21875 8.296875 
Q 40.140625 3.328125 35.546875 0.953125 
Q 30.953125 -1.421875 24.3125 -1.421875 
Q 15.921875 -1.421875 10.953125 3.296875 
Q 6 8.015625 6 15.921875 
Q 6 25.140625 12.171875 29.828125 
Q 18.359375 34.515625 30.609375 34.515625 
L 43.21875 34.515625 
L 43.21875 35.40625 
Q 43.21875 41.609375 39.140625 45 
Q 35.0625 48.390625 27.6875 48.390625 
Q 23 48.390625 18.546875 47.265625 
Q 14.109375 46.140625 10.015625 43.890625 
L 10.015625 52.203125 
Q 14.9375 54.109375 19.578125 55.046875 
Q 24.21875 56 28.609375 56 
Q 40.484375 56 46.34375 49.84375 
Q 52.203125 43.703125 52.203125 31.203125 
z
" id="DejaVuSans-97"/>
      <path d="M 18.3125 70.21875 
L 18.3125 54.6875 
L 36.8125 54.6875 
L 36.8125 47.703125 
L 18.3125 47.703125 
L 18.3125 18.015625 
Q 18.3125 11.328125 20.140625 9.421875 
Q 21.96875 7.515625 27.59375 7.515625 
L 36.8125 7.515625 
L 36.8125 0 
L 27.59375 0 
Q 17.1875 0 13.234375 3.875 
Q 9.28125 7.765625 9.28125 18.015625 
L 9.28125 47.703125 
L 2.6875 47.703125 
L 2.6875 54.6875 
L 9.28125 54.6875 
L 9.28125 70.21875 
z
" id="DejaVuSans-116"/>
      <path d="M 56.203125 29.59375 
L 56.203125 25.203125 
L 14.890625 25.203125 
Q 15.484375 15.921875 20.484375 11.0625 
Q 25.484375 6.203125 34.421875 6.203125 
Q 39.59375 6.203125 44.453125 7.46875 
Q 49.3125 8.734375 54.109375 11.28125 
L 54.109375 2.78125 
Q 49.265625 0.734375 44.1875 -0.34375 
Q 39.109375 -1.421875 33.890625 -1.421875 
Q 20.796875 -1.421875 13.15625 6.1875 
Q 5.515625 13.8125 5.515625 26.8125 
Q 5.515625 40.234375 12.765625 48.109375 
Q 20.015625 56 32.328125 56 
Q 43.359375 56 49.78125 48.890625 
Q 56.203125 41.796875 56.203125 29.59375 
z
M 47.21875 32.234375 
Q 47.125 39.59375 43.09375 43.984375 
Q 39.0625 48.390625 32.421875 48.390625 
Q 24.90625 48.390625 20.390625 44.140625 
Q 15.875 39.890625 15.1875 32.171875 
z
" id="DejaVuSans-101"/>
     </defs>
     <g transform="translate(361.994531 429.994687)scale(0.1 -0.1)">
      <use xlink:href="#DejaVuSans-68"/>
      <use x="77.001953" xlink:href="#DejaVuSans-97"/>
      <use x="138.28125" xlink:href="#DejaVuSans-116"/>
      <use x="177.490234" xlink:href="#DejaVuSans-101"/>
     </g>
    </g>
   </g>
   <g id="matplotlib.axis_2">
    <g id="ytick_1">
     <g id="line2d_15">
      <path clip-path="url(#p050b41dcf7)" d="M 42.620313 382.338496 
L 705.270313 382.338496 
" style="fill:none;stroke:#808080;stroke-linecap:square;stroke-opacity:0.2;"/>
     </g>
     <g id="line2d_16">
      <defs>
       <path d="M 0 0 
L -3.5 0 
" id="mb67d4ffd9f" style="stroke:#000000;stroke-width:0.8;"/>
      </defs>
      <g>
       <use style="stroke:#000000;stroke-width:0.8;" x="42.620313" xlink:href="#mb67d4ffd9f" y="382.338496"/>
      </g>
     </g>
     <g id="text_9">
      <!-- −5 -->
      <defs>
       <path d="M 10.59375 35.5 
L 73.1875 35.5 
L 73.1875 27.203125 
L 10.59375 27.203125 
z
" id="DejaVuSans-8722"/>
      </defs>
      <g transform="translate(20.878125 386.137715)scale(0.1 -0.1)">
       <use xlink:href="#DejaVuSans-8722"/>
       <use x="83.789062" xlink:href="#DejaVuSans-53"/>
      </g>
     </g>
    </g>
    <g id="ytick_2">
     <g id="line2d_17">
      <path clip-path="url(#p050b41dcf7)" d="M 42.620313 321.128689 
L 705.270313 321.128689 
" style="fill:none;stroke:#808080;stroke-linecap:square;stroke-opacity:0.2;"/>
     </g>
     <g id="line2d_18">
      <g>
       <use style="stroke:#000000;stroke-width:0.8;" x="42.620313" xlink:href="#mb67d4ffd9f" y="321.128689"/>
      </g>
     </g>
     <g id="text_10">
      <!-- 0 -->
      <g transform="translate(29.257813 324.927908)scale(0.1 -0.1)">
       <use xlink:href="#DejaVuSans-48"/>
      </g>
     </g>
    </g>
    <g id="ytick_3">
     <g id="line2d_19">
      <path clip-path="url(#p050b41dcf7)" d="M 42.620313 259.918883 
L 705.270313 259.918883 
" style="fill:none;stroke:#808080;stroke-linecap:square;stroke-opacity:0.2;"/>
     </g>
     <g id="line2d_20">
      <g>
       <use style="stroke:#000000;stroke-width:0.8;" x="42.620313" xlink:href="#mb67d4ffd9f" y="259.918883"/>
      </g>
     </g>
     <g id="text_11">
      <!-- 5 -->
      <g transform="translate(29.257813 263.718102)scale(0.1 -0.1)">
       <use xlink:href="#DejaVuSans-53"/>
      </g>
     </g>
    </g>
    <g id="ytick_4">
     <g id="line2d_21">
      <path clip-path="url(#p050b41dcf7)" d="M 42.620313 198.709076 
L 705.270313 198.709076 
" style="fill:none;stroke:#808080;stroke-linecap:square;stroke-opacity:0.2;"/>
     </g>
     <g id="line2d_22">
      <g>
       <use style="stroke:#000000;stroke-width:0.8;" x="42.620313" xlink:href="#mb67d4ffd9f" y="198.709076"/>
      </g>
     </g>
     <g id="text_12">
      <!-- 10 -->
      <g transform="translate(22.895313 202.508295)scale(0.1 -0.1)">
       <use xlink:href="#DejaVuSans-49"/>
       <use x="63.623047" xlink:href="#DejaVuSans-48"/>
      </g>
     </g>
    </g>
    <g id="ytick_5">
     <g id="line2d_23">
      <path clip-path="url(#p050b41dcf7)" d="M 42.620313 137.49927 
L 705.270313 137.49927 
" style="fill:none;stroke:#808080;stroke-linecap:square;stroke-opacity:0.2;"/>
     </g>
     <g id="line2d_24">
      <g>
       <use style="stroke:#000000;stroke-width:0.8;" x="42.620313" xlink:href="#mb67d4ffd9f" y="137.49927"/>
      </g>
     </g>
     <g id="text_13">
      <!-- 15 -->
      <g transform="translate(22.895313 141.298489)scale(0.1 -0.1)">
       <use xlink:href="#DejaVuSans-49"/>
       <use x="63.623047" xlink:href="#DejaVuSans-53"/>
      </g>
     </g>
    </g>
    <g id="ytick_6">
     <g id="line2d_25">
      <path clip-path="url(#p050b41dcf7)" d="M 42.620313 76.289463 
L 705.270313 76.289463 
" style="fill:none;stroke:#808080;stroke-linecap:square;stroke-opacity:0.2;"/>
     </g>
     <g id="line2d_26">
      <g>
       <use style="stroke:#000000;stroke-width:0.8;" x="42.620313" xlink:href="#mb67d4ffd9f" y="76.289463"/>
      </g>
     </g>
     <g id="text_14">
      <!-- 20 -->
      <g transform="translate(22.895313 80.088682)scale(0.1 -0.1)">
       <use xlink:href="#DejaVuSans-50"/>
       <use x="63.623047" xlink:href="#DejaVuSans-48"/>
      </g>
     </g>
    </g>
    <g id="text_15">
     <!-- Residential Mobility -->
     <defs>
      <path d="M 44.390625 34.1875 
Q 47.5625 33.109375 50.5625 29.59375 
Q 53.5625 26.078125 56.59375 19.921875 
L 66.609375 0 
L 56 0 
L 46.6875 18.703125 
Q 43.0625 26.03125 39.671875 28.421875 
Q 36.28125 30.8125 30.421875 30.8125 
L 19.671875 30.8125 
L 19.671875 0 
L 9.8125 0 
L 9.8125 72.90625 
L 32.078125 72.90625 
Q 44.578125 72.90625 50.734375 67.671875 
Q 56.890625 62.453125 56.890625 51.90625 
Q 56.890625 45.015625 53.6875 40.46875 
Q 50.484375 35.9375 44.390625 34.1875 
z
M 19.671875 64.796875 
L 19.671875 38.921875 
L 32.078125 38.921875 
Q 39.203125 38.921875 42.84375 42.21875 
Q 46.484375 45.515625 46.484375 51.90625 
Q 46.484375 58.296875 42.84375 61.546875 
Q 39.203125 64.796875 32.078125 64.796875 
z
" id="DejaVuSans-82"/>
      <path d="M 44.28125 53.078125 
L 44.28125 44.578125 
Q 40.484375 46.53125 36.375 47.5 
Q 32.28125 48.484375 27.875 48.484375 
Q 21.1875 48.484375 17.84375 46.4375 
Q 14.5 44.390625 14.5 40.28125 
Q 14.5 37.15625 16.890625 35.375 
Q 19.28125 33.59375 26.515625 31.984375 
L 29.59375 31.296875 
Q 39.15625 29.25 43.1875 25.515625 
Q 47.21875 21.78125 47.21875 15.09375 
Q 47.21875 7.46875 41.1875 3.015625 
Q 35.15625 -1.421875 24.609375 -1.421875 
Q 20.21875 -1.421875 15.453125 -0.5625 
Q 10.6875 0.296875 5.421875 2 
L 5.421875 11.28125 
Q 10.40625 8.6875 15.234375 7.390625 
Q 20.0625 6.109375 24.8125 6.109375 
Q 31.15625 6.109375 34.5625 8.28125 
Q 37.984375 10.453125 37.984375 14.40625 
Q 37.984375 18.0625 35.515625 20.015625 
Q 33.0625 21.96875 24.703125 23.78125 
L 21.578125 24.515625 
Q 13.234375 26.265625 9.515625 29.90625 
Q 5.8125 33.546875 5.8125 39.890625 
Q 5.8125 47.609375 11.28125 51.796875 
Q 16.75 56 26.8125 56 
Q 31.78125 56 36.171875 55.265625 
Q 40.578125 54.546875 44.28125 53.078125 
z
" id="DejaVuSans-115"/>
      <path d="M 9.421875 54.6875 
L 18.40625 54.6875 
L 18.40625 0 
L 9.421875 0 
z
M 9.421875 75.984375 
L 18.40625 75.984375 
L 18.40625 64.59375 
L 9.421875 64.59375 
z
" id="DejaVuSans-105"/>
      <path d="M 45.40625 46.390625 
L 45.40625 75.984375 
L 54.390625 75.984375 
L 54.390625 0 
L 45.40625 0 
L 45.40625 8.203125 
Q 42.578125 3.328125 38.25 0.953125 
Q 33.9375 -1.421875 27.875 -1.421875 
Q 17.96875 -1.421875 11.734375 6.484375 
Q 5.515625 14.40625 5.515625 27.296875 
Q 5.515625 40.1875 11.734375 48.09375 
Q 17.96875 56 27.875 56 
Q 33.9375 56 38.25 53.625 
Q 42.578125 51.265625 45.40625 46.390625 
z
M 14.796875 27.296875 
Q 14.796875 17.390625 18.875 11.75 
Q 22.953125 6.109375 30.078125 6.109375 
Q 37.203125 6.109375 41.296875 11.75 
Q 45.40625 17.390625 45.40625 27.296875 
Q 45.40625 37.203125 41.296875 42.84375 
Q 37.203125 48.484375 30.078125 48.484375 
Q 22.953125 48.484375 18.875 42.84375 
Q 14.796875 37.203125 14.796875 27.296875 
z
" id="DejaVuSans-100"/>
      <path d="M 54.890625 33.015625 
L 54.890625 0 
L 45.90625 0 
L 45.90625 32.71875 
Q 45.90625 40.484375 42.875 44.328125 
Q 39.84375 48.1875 33.796875 48.1875 
Q 26.515625 48.1875 22.3125 43.546875 
Q 18.109375 38.921875 18.109375 30.90625 
L 18.109375 0 
L 9.078125 0 
L 9.078125 54.6875 
L 18.109375 54.6875 
L 18.109375 46.1875 
Q 21.34375 51.125 25.703125 53.5625 
Q 30.078125 56 35.796875 56 
Q 45.21875 56 50.046875 50.171875 
Q 54.890625 44.34375 54.890625 33.015625 
z
" id="DejaVuSans-110"/>
      <path d="M 9.421875 75.984375 
L 18.40625 75.984375 
L 18.40625 0 
L 9.421875 0 
z
" id="DejaVuSans-108"/>
      <path id="DejaVuSans-32"/>
      <path d="M 9.8125 72.90625 
L 24.515625 72.90625 
L 43.109375 23.296875 
L 61.8125 72.90625 
L 76.515625 72.90625 
L 76.515625 0 
L 66.890625 0 
L 66.890625 64.015625 
L 48.09375 14.015625 
L 38.1875 14.015625 
L 19.390625 64.015625 
L 19.390625 0 
L 9.8125 0 
z
" id="DejaVuSans-77"/>
      <path d="M 30.609375 48.390625 
Q 23.390625 48.390625 19.1875 42.75 
Q 14.984375 37.109375 14.984375 27.296875 
Q 14.984375 17.484375 19.15625 11.84375 
Q 23.34375 6.203125 30.609375 6.203125 
Q 37.796875 6.203125 41.984375 11.859375 
Q 46.1875 17.53125 46.1875 27.296875 
Q 46.1875 37.015625 41.984375 42.703125 
Q 37.796875 48.390625 30.609375 48.390625 
z
M 30.609375 56 
Q 42.328125 56 49.015625 48.375 
Q 55.71875 40.765625 55.71875 27.296875 
Q 55.71875 13.875 49.015625 6.21875 
Q 42.328125 -1.421875 30.609375 -1.421875 
Q 18.84375 -1.421875 12.171875 6.21875 
Q 5.515625 13.875 5.515625 27.296875 
Q 5.515625 40.765625 12.171875 48.375 
Q 18.84375 56 30.609375 56 
z
" id="DejaVuSans-111"/>
      <path d="M 48.6875 27.296875 
Q 48.6875 37.203125 44.609375 42.84375 
Q 40.53125 48.484375 33.40625 48.484375 
Q 26.265625 48.484375 22.1875 42.84375 
Q 18.109375 37.203125 18.109375 27.296875 
Q 18.109375 17.390625 22.1875 11.75 
Q 26.265625 6.109375 33.40625 6.109375 
Q 40.53125 6.109375 44.609375 11.75 
Q 48.6875 17.390625 48.6875 27.296875 
z
M 18.109375 46.390625 
Q 20.953125 51.265625 25.265625 53.625 
Q 29.59375 56 35.59375 56 
Q 45.5625 56 51.78125 48.09375 
Q 58.015625 40.1875 58.015625 27.296875 
Q 58.015625 14.40625 51.78125 6.484375 
Q 45.5625 -1.421875 35.59375 -1.421875 
Q 29.59375 -1.421875 25.265625 0.953125 
Q 20.953125 3.328125 18.109375 8.203125 
L 18.109375 0 
L 9.078125 0 
L 9.078125 75.984375 
L 18.109375 75.984375 
z
" id="DejaVuSans-98"/>
      <path d="M 32.171875 -5.078125 
Q 28.375 -14.84375 24.75 -17.8125 
Q 21.140625 -20.796875 15.09375 -20.796875 
L 7.90625 -20.796875 
L 7.90625 -13.28125 
L 13.1875 -13.28125 
Q 16.890625 -13.28125 18.9375 -11.515625 
Q 21 -9.765625 23.484375 -3.21875 
L 25.09375 0.875 
L 2.984375 54.6875 
L 12.5 54.6875 
L 29.59375 11.921875 
L 46.6875 54.6875 
L 56.203125 54.6875 
z
" id="DejaVuSans-121"/>
     </defs>
     <g transform="translate(14.798438 260.782969)rotate(-90)scale(0.1 -0.1)">
      <use xlink:href="#DejaVuSans-82"/>
      <use x="64.982422" xlink:href="#DejaVuSans-101"/>
      <use x="126.505859" xlink:href="#DejaVuSans-115"/>
      <use x="178.605469" xlink:href="#DejaVuSans-105"/>
      <use x="206.388672" xlink:href="#DejaVuSans-100"/>
      <use x="269.865234" xlink:href="#DejaVuSans-101"/>
      <use x="331.388672" xlink:href="#DejaVuSans-110"/>
      <use x="394.767578" xlink:href="#DejaVuSans-116"/>
      <use x="433.976562" xlink:href="#DejaVuSans-105"/>
      <use x="461.759766" xlink:href="#DejaVuSans-97"/>
      <use x="523.039062" xlink:href="#DejaVuSans-108"/>
      <use x="550.822266" xlink:href="#DejaVuSans-32"/>
      <use x="582.609375" xlink:href="#DejaVuSans-77"/>
      <use x="668.888672" xlink:href="#DejaVuSans-111"/>
      <use x="730.070312" xlink:href="#DejaVuSans-98"/>
      <use x="793.546875" xlink:href="#DejaVuSans-105"/>
      <use x="821.330078" xlink:href="#DejaVuSans-108"/>
      <use x="849.113281" xlink:href="#DejaVuSans-105"/>
      <use x="876.896484" xlink:href="#DejaVuSans-116"/>
      <use x="916.105469" xlink:href="#DejaVuSans-121"/>
     </g>
    </g>
   </g>
   <g id="line2d_27">
    <defs>
     <path d="M 0 1.5 
C 0.397805 1.5 0.77937 1.341951 1.06066 1.06066 
C 1.341951 0.77937 1.5 0.397805 1.5 0 
C 1.5 -0.397805 1.341951 -0.77937 1.06066 -1.06066 
C 0.77937 -1.341951 0.397805 -1.5 0 -1.5 
C -0.397805 -1.5 -0.77937 -1.341951 -1.06066 -1.06066 
C -1.341951 -0.77937 -1.5 -0.397805 -1.5 0 
C -1.5 0.397805 -1.341951 0.77937 -1.06066 1.06066 
C -0.77937 1.341951 -0.397805 1.5 0 1.5 
z
" id="m8a566cafa0" style="stroke:#000000;"/>
    </defs>
    <g clip-path="url(#p050b41dcf7)">
     <use style="stroke:#000000;" x="72.740767" xlink:href="#m8a566cafa0" y="321.128689"/>
     <use style="stroke:#000000;" x="79.912304" xlink:href="#m8a566cafa0" y="296.644767"/>
     <use style="stroke:#000000;" x="87.083841" xlink:href="#m8a566cafa0" y="296.644767"/>
     <use style="stroke:#000000;" x="94.255377" xlink:href="#m8a566cafa0" y="308.886728"/>
     <use style="stroke:#000000;" x="101.426914" xlink:href="#m8a566cafa0" y="308.886728"/>
     <use style="stroke:#000000;" x="108.598451" xlink:href="#m8a566cafa0" y="308.886728"/>
     <use style="stroke:#000000;" x="115.769988" xlink:href="#m8a566cafa0" y="308.886728"/>
     <use style="stroke:#000000;" x="122.941525" xlink:href="#m8a566cafa0" y="308.886728"/>
     <use style="stroke:#000000;" x="130.113061" xlink:href="#m8a566cafa0" y="321.128689"/>
     <use style="stroke:#000000;" x="137.284598" xlink:href="#m8a566cafa0" y="308.886728"/>
     <use style="stroke:#000000;" x="144.456135" xlink:href="#m8a566cafa0" y="308.886728"/>
     <use style="stroke:#000000;" x="151.627672" xlink:href="#m8a566cafa0" y="308.886728"/>
     <use style="stroke:#000000;" x="158.799209" xlink:href="#m8a566cafa0" y="308.886728"/>
     <use style="stroke:#000000;" x="165.970745" xlink:href="#m8a566cafa0" y="308.886728"/>
     <use style="stroke:#000000;" x="173.142282" xlink:href="#m8a566cafa0" y="321.128689"/>
     <use style="stroke:#000000;" x="180.313819" xlink:href="#m8a566cafa0" y="308.886728"/>
     <use style="stroke:#000000;" x="187.485356" xlink:href="#m8a566cafa0" y="308.886728"/>
     <use style="stroke:#000000;" x="194.656893" xlink:href="#m8a566cafa0" y="308.886728"/>
     <use style="stroke:#000000;" x="201.828429" xlink:href="#m8a566cafa0" y="308.886728"/>
     <use style="stroke:#000000;" x="208.999966" xlink:href="#m8a566cafa0" y="308.886728"/>
     <use style="stroke:#000000;" x="216.171503" xlink:href="#m8a566cafa0" y="308.886728"/>
     <use style="stroke:#000000;" x="223.34304" xlink:href="#m8a566cafa0" y="321.128689"/>
     <use style="stroke:#000000;" x="230.514577" xlink:href="#m8a566cafa0" y="308.886728"/>
     <use style="stroke:#000000;" x="237.686113" xlink:href="#m8a566cafa0" y="308.886728"/>
     <use style="stroke:#000000;" x="244.85765" xlink:href="#m8a566cafa0" y="308.886728"/>
     <use style="stroke:#000000;" x="252.029187" xlink:href="#m8a566cafa0" y="296.644767"/>
     <use style="stroke:#000000;" x="259.200724" xlink:href="#m8a566cafa0" y="272.160844"/>
     <use style="stroke:#000000;" x="266.372261" xlink:href="#m8a566cafa0" y="247.676922"/>
     <use style="stroke:#000000;" x="273.543797" xlink:href="#m8a566cafa0" y="284.402806"/>
     <use style="stroke:#000000;" x="280.715334" xlink:href="#m8a566cafa0" y="259.918883"/>
     <use style="stroke:#000000;" x="287.886871" xlink:href="#m8a566cafa0" y="223.192999"/>
     <use style="stroke:#000000;" x="295.058408" xlink:href="#m8a566cafa0" y="210.951038"/>
     <use style="stroke:#000000;" x="302.229945" xlink:href="#m8a566cafa0" y="186.467115"/>
     <use style="stroke:#000000;" x="309.401481" xlink:href="#m8a566cafa0" y="186.467115"/>
     <use style="stroke:#000000;" x="316.573018" xlink:href="#m8a566cafa0" y="174.225154"/>
     <use style="stroke:#000000;" x="323.744555" xlink:href="#m8a566cafa0" y="247.676922"/>
     <use style="stroke:#000000;" x="330.916092" xlink:href="#m8a566cafa0" y="259.918883"/>
     <use style="stroke:#000000;" x="338.087629" xlink:href="#m8a566cafa0" y="186.467115"/>
     <use style="stroke:#000000;" x="345.259165" xlink:href="#m8a566cafa0" y="186.467115"/>
     <use style="stroke:#000000;" x="352.430702" xlink:href="#m8a566cafa0" y="186.467115"/>
     <use style="stroke:#000000;" x="359.602239" xlink:href="#m8a566cafa0" y="186.467115"/>
     <use style="stroke:#000000;" x="366.773776" xlink:href="#m8a566cafa0" y="186.467115"/>
     <use style="stroke:#000000;" x="373.945312" xlink:href="#m8a566cafa0" y="247.676922"/>
     <use style="stroke:#000000;" x="381.116849" xlink:href="#m8a566cafa0" y="259.918883"/>
     <use style="stroke:#000000;" x="388.288386" xlink:href="#m8a566cafa0" y="186.467115"/>
     <use style="stroke:#000000;" x="395.459923" xlink:href="#m8a566cafa0" y="186.467115"/>
     <use style="stroke:#000000;" x="402.63146" xlink:href="#m8a566cafa0" y="186.467115"/>
     <use style="stroke:#000000;" x="409.802996" xlink:href="#m8a566cafa0" y="161.983193"/>
     <use style="stroke:#000000;" x="416.974533" xlink:href="#m8a566cafa0" y="161.983193"/>
     <use style="stroke:#000000;" x="424.14607" xlink:href="#m8a566cafa0" y="247.676922"/>
     <use style="stroke:#000000;" x="431.317607" xlink:href="#m8a566cafa0" y="247.676922"/>
     <use style="stroke:#000000;" x="438.489144" xlink:href="#m8a566cafa0" y="186.467115"/>
     <use style="stroke:#000000;" x="445.66068" xlink:href="#m8a566cafa0" y="186.467115"/>
     <use style="stroke:#000000;" x="452.832217" xlink:href="#m8a566cafa0" y="198.709076"/>
     <use style="stroke:#000000;" x="460.003754" xlink:href="#m8a566cafa0" y="174.225154"/>
     <use style="stroke:#000000;" x="467.175291" xlink:href="#m8a566cafa0" y="64.047502"/>
     <use style="stroke:#000000;" x="474.346828" xlink:href="#m8a566cafa0" y="247.676922"/>
     <use style="stroke:#000000;" x="481.518364" xlink:href="#m8a566cafa0" y="247.676922"/>
     <use style="stroke:#000000;" x="488.689901" xlink:href="#m8a566cafa0" y="39.56358"/>
     <use style="stroke:#000000;" x="495.861438" xlink:href="#m8a566cafa0" y="186.467115"/>
     <use style="stroke:#000000;" x="503.032975" xlink:href="#m8a566cafa0" y="186.467115"/>
     <use style="stroke:#000000;" x="510.204512" xlink:href="#m8a566cafa0" y="186.467115"/>
     <use style="stroke:#000000;" x="517.376048" xlink:href="#m8a566cafa0" y="186.467115"/>
     <use style="stroke:#000000;" x="524.547585" xlink:href="#m8a566cafa0" y="259.918883"/>
     <use style="stroke:#000000;" x="531.719122" xlink:href="#m8a566cafa0" y="272.160844"/>
     <use style="stroke:#000000;" x="538.890659" xlink:href="#m8a566cafa0" y="210.951038"/>
     <use style="stroke:#000000;" x="546.062196" xlink:href="#m8a566cafa0" y="223.192999"/>
     <use style="stroke:#000000;" x="553.233732" xlink:href="#m8a566cafa0" y="223.192999"/>
     <use style="stroke:#000000;" x="560.405269" xlink:href="#m8a566cafa0" y="210.951038"/>
     <use style="stroke:#000000;" x="567.576806" xlink:href="#m8a566cafa0" y="198.709076"/>
     <use style="stroke:#000000;" x="574.748343" xlink:href="#m8a566cafa0" y="259.918883"/>
     <use style="stroke:#000000;" x="581.91988" xlink:href="#m8a566cafa0" y="272.160844"/>
     <use style="stroke:#000000;" x="589.091416" xlink:href="#m8a566cafa0" y="198.709076"/>
     <use style="stroke:#000000;" x="596.262953" xlink:href="#m8a566cafa0" y="223.192999"/>
     <use style="stroke:#000000;" x="603.43449" xlink:href="#m8a566cafa0" y="210.951038"/>
     <use style="stroke:#000000;" x="610.606027" xlink:href="#m8a566cafa0" y="210.951038"/>
     <use style="stroke:#000000;" x="617.777564" xlink:href="#m8a566cafa0" y="39.56358"/>
     <use style="stroke:#000000;" x="624.9491" xlink:href="#m8a566cafa0" y="259.918883"/>
     <use style="stroke:#000000;" x="632.120637" xlink:href="#m8a566cafa0" y="284.402806"/>
     <use style="stroke:#000000;" x="639.292174" xlink:href="#m8a566cafa0" y="210.951038"/>
     <use style="stroke:#000000;" x="646.463711" xlink:href="#m8a566cafa0" y="210.951038"/>
     <use style="stroke:#000000;" x="653.635248" xlink:href="#m8a566cafa0" y="210.951038"/>
     <use style="stroke:#000000;" x="660.806784" xlink:href="#m8a566cafa0" y="223.192999"/>
     <use style="stroke:#000000;" x="667.978321" xlink:href="#m8a566cafa0" y="223.192999"/>
     <use style="stroke:#000000;" x="675.149858" xlink:href="#m8a566cafa0" y="296.644767"/>
    </g>
   </g>
   <g id="line2d_28">
    <path clip-path="url(#p050b41dcf7)" d="M 72.740767 326.005216 
L 79.912304 328.796739 
L 87.083841 278.1196 
L 94.255377 299.070857 
L 101.426914 301.703515 
L 108.598451 300.313682 
L 115.769988 273.647605 
L 122.941525 348.591193 
L 130.113061 347.011857 
L 137.284598 291.963859 
L 144.456135 308.544258 
L 151.627672 306.80617 
L 158.799209 301.045021 
L 165.970745 274.378372 
L 173.142282 349.320755 
L 180.313819 347.740214 
L 187.485356 292.691011 
L 194.656893 309.270204 
L 201.828429 307.530912 
L 208.999966 301.769129 
L 216.171503 273.258127 
L 223.34304 346.35679 
L 230.514577 342.932529 
L 237.686113 286.039606 
L 244.85765 300.775079 
L 252.029187 286.974456 
L 259.200724 269.151343 
L 266.372261 230.42273 
L 273.543797 293.303783 
L 280.715334 279.661911 
L 287.886871 212.551378 
L 295.058408 217.069241 
L 302.229945 203.268618 
L 309.401481 196.990233 
L 316.573018 169.806348 
L 323.744555 244.232128 
L 330.916092 242.134985 
L 338.087629 186.569179 
L 345.259165 202.63177 
L 352.430702 200.375875 
L 359.602239 194.09749 
L 366.773776 166.913605 
L 373.945312 241.339386 
L 381.116849 239.242243 
L 388.288386 182.705897 
L 395.459923 197.797946 
L 402.63146 194.57151 
L 409.802996 187.322584 
L 416.974533 159.168158 
L 424.14607 232.623363 
L 431.317607 229.555643 
L 438.489144 173.019262 
L 445.66068 185.504571 
L 452.832217 179.671394 
L 460.003754 169.815728 
L 467.175291 139.054787 
L 474.346828 209.903512 
L 481.518364 208.1699 
L 488.689901 152.967626 
L 495.861438 169.393748 
L 503.032975 177.186463 
L 510.204512 180.956688 
L 517.376048 163.821413 
L 524.547585 248.295484 
L 531.719122 256.246629 
L 538.890659 201.351034 
L 546.062196 218.083835 
L 553.233732 216.49815 
L 560.405269 210.889976 
L 567.576806 184.376302 
L 574.748343 259.472294 
L 581.91988 258.04536 
L 589.091416 203.149766 
L 596.262953 219.882567 
L 603.43449 218.296883 
L 610.606027 212.688709 
L 617.777564 186.175035 
L 624.9491 261.271026 
L 632.120637 259.844093 
L 639.292174 204.948499 
L 646.463711 221.6813 
L 653.635248 220.095616 
L 660.806784 214.487441 
L 667.978321 187.973767 
L 675.149858 263.069759 
" style="fill:none;stroke:#0072b2;stroke-linecap:square;stroke-width:1.5;"/>
   </g>
   <g id="line2d_29">
    <path clip-path="url(#p050b41dcf7)" d="M 72.740767 288.292124 
L 79.912304 292.767542 
L 87.083841 297.24296 
L 94.255377 301.718378 
L 101.426914 306.193681 
L 108.598451 310.668985 
L 115.769988 310.773543 
L 122.941525 310.878102 
L 130.113061 310.98266 
L 137.284598 311.087219 
L 144.456135 311.191778 
L 151.627672 311.296337 
L 158.799209 311.400323 
L 165.970745 311.50431 
L 173.142282 311.607664 
L 180.313819 311.711017 
L 187.485356 311.814371 
L 194.656893 311.917724 
L 201.828429 312.021078 
L 208.999966 312.124432 
L 216.171503 310.384065 
L 223.34304 308.643699 
L 230.514577 306.903333 
L 237.686113 305.162966 
L 244.85765 303.4226 
L 252.029187 291.464623 
L 259.200724 279.506646 
L 266.372261 267.548668 
L 273.543797 255.590692 
L 280.715334 243.632715 
L 287.886871 231.674738 
L 295.058408 219.716761 
L 302.229945 207.758785 
L 309.401481 207.345535 
L 316.573018 206.932286 
L 323.744555 206.519037 
L 330.916092 206.105788 
L 338.087629 205.692539 
L 345.259165 205.27929 
L 352.430702 204.866041 
L 359.602239 204.452792 
L 366.773776 204.039544 
L 373.945312 203.626295 
L 381.116849 203.213046 
L 388.288386 201.829256 
L 395.459923 200.445467 
L 402.63146 199.061677 
L 409.802996 197.677887 
L 416.974533 196.294097 
L 424.14607 194.910272 
L 431.317607 193.526447 
L 438.489144 192.142622 
L 445.66068 188.152091 
L 452.832217 184.161561 
L 460.003754 180.17103 
L 467.175291 176.180725 
L 474.346828 172.19042 
L 481.518364 172.140703 
L 488.689901 172.090986 
L 495.861438 172.041269 
L 503.032975 181.67663 
L 510.204512 191.311991 
L 517.376048 200.947352 
L 524.547585 210.582392 
L 531.719122 220.217433 
L 538.890659 220.474394 
L 546.062196 220.731355 
L 553.233732 220.988317 
L 560.405269 221.245279 
L 567.576806 221.50224 
L 574.748343 221.759202 
L 581.91988 222.016164 
L 589.091416 222.273126 
L 596.262953 222.530088 
L 603.43449 222.787049 
L 610.606027 223.044011 
L 617.777564 223.300973 
L 624.9491 223.557935 
L 632.120637 223.814897 
L 639.292174 224.071858 
L 646.463711 224.32882 
L 653.635248 224.585782 
L 660.806784 224.842744 
L 667.978321 225.099706 
L 675.149858 225.356668 
" style="fill:none;stroke:#0000ff;stroke-linecap:square;stroke-width:1.5;"/>
   </g>
   <g id="line2d_30">
    <path clip-path="url(#p050b41dcf7)" d="M 108.598451 401.718125 
L 108.598451 22.318125 
" style="fill:none;stroke:#0000ff;stroke-dasharray:5.55,2.4;stroke-dashoffset:0;stroke-width:1.5;"/>
   </g>
   <g id="line2d_31">
    <path clip-path="url(#p050b41dcf7)" d="M 208.999966 401.718125 
L 208.999966 22.318125 
" style="fill:none;stroke:#0000ff;stroke-dasharray:5.55,2.4;stroke-dashoffset:0;stroke-width:1.5;"/>
   </g>
   <g id="line2d_32">
    <path clip-path="url(#p050b41dcf7)" d="M 244.85765 401.718125 
L 244.85765 22.318125 
" style="fill:none;stroke:#0000ff;stroke-dasharray:5.55,2.4;stroke-dashoffset:0;stroke-width:1.5;"/>
   </g>
   <g id="line2d_33">
    <path clip-path="url(#p050b41dcf7)" d="M 302.229945 401.718125 
L 302.229945 22.318125 
" style="fill:none;stroke:#0000ff;stroke-dasharray:5.55,2.4;stroke-dashoffset:0;stroke-width:1.5;"/>
   </g>
   <g id="line2d_34">
    <path clip-path="url(#p050b41dcf7)" d="M 381.116849 401.718125 
L 381.116849 22.318125 
" style="fill:none;stroke:#0000ff;stroke-dasharray:5.55,2.4;stroke-dashoffset:0;stroke-width:1.5;"/>
   </g>
   <g id="line2d_35">
    <path clip-path="url(#p050b41dcf7)" d="M 438.489144 401.718125 
L 438.489144 22.318125 
" style="fill:none;stroke:#0000ff;stroke-dasharray:5.55,2.4;stroke-dashoffset:0;stroke-width:1.5;"/>
   </g>
   <g id="line2d_36">
    <path clip-path="url(#p050b41dcf7)" d="M 474.346828 401.718125 
L 474.346828 22.318125 
" style="fill:none;stroke:#0000ff;stroke-dasharray:5.55,2.4;stroke-dashoffset:0;stroke-width:1.5;"/>
   </g>
   <g id="line2d_37">
    <path clip-path="url(#p050b41dcf7)" d="M 495.861438 401.718125 
L 495.861438 22.318125 
" style="fill:none;stroke:#0000ff;stroke-dasharray:5.55,2.4;stroke-dashoffset:0;stroke-width:1.5;"/>
   </g>
   <g id="line2d_38">
    <path clip-path="url(#p050b41dcf7)" d="M 531.719122 401.718125 
L 531.719122 22.318125 
" style="fill:none;stroke:#0000ff;stroke-dasharray:5.55,2.4;stroke-dashoffset:0;stroke-width:1.5;"/>
   </g>
   <g id="line2d_39">
    <path clip-path="url(#p050b41dcf7)" d="M 244.85765 401.718125 
L 244.85765 22.318125 
" style="fill:none;stroke:#ff0000;stroke-linecap:square;stroke-width:3;"/>
   </g>
   <g id="patch_3">
    <path d="M 42.620313 401.718125 
L 42.620313 22.318125 
" style="fill:none;stroke:#000000;stroke-linecap:square;stroke-linejoin:miter;stroke-width:0.8;"/>
   </g>
   <g id="patch_4">
    <path d="M 705.270313 401.718125 
L 705.270313 22.318125 
" style="fill:none;stroke:#000000;stroke-linecap:square;stroke-linejoin:miter;stroke-width:0.8;"/>
   </g>
   <g id="patch_5">
    <path d="M 42.620312 401.718125 
L 705.270313 401.718125 
" style="fill:none;stroke:#000000;stroke-linecap:square;stroke-linejoin:miter;stroke-width:0.8;"/>
   </g>
   <g id="patch_6">
    <path d="M 42.620312 22.318125 
L 705.270313 22.318125 
" style="fill:none;stroke:#000000;stroke-linecap:square;stroke-linejoin:miter;stroke-width:0.8;"/>
   </g>
   <g id="text_16">
    <!-- Residential Mobility Graph for Sweden -->
    <defs>
     <path d="M 59.515625 10.40625 
L 59.515625 29.984375 
L 43.40625 29.984375 
L 43.40625 38.09375 
L 69.28125 38.09375 
L 69.28125 6.78125 
Q 63.578125 2.734375 56.6875 0.65625 
Q 49.8125 -1.421875 42 -1.421875 
Q 24.90625 -1.421875 15.25 8.5625 
Q 5.609375 18.5625 5.609375 36.375 
Q 5.609375 54.25 15.25 64.234375 
Q 24.90625 74.21875 42 74.21875 
Q 49.125 74.21875 55.546875 72.453125 
Q 61.96875 70.703125 67.390625 67.28125 
L 67.390625 56.78125 
Q 61.921875 61.421875 55.765625 63.765625 
Q 49.609375 66.109375 42.828125 66.109375 
Q 29.4375 66.109375 22.71875 58.640625 
Q 16.015625 51.171875 16.015625 36.375 
Q 16.015625 21.625 22.71875 14.15625 
Q 29.4375 6.6875 42.828125 6.6875 
Q 48.046875 6.6875 52.140625 7.59375 
Q 56.25 8.5 59.515625 10.40625 
z
" id="DejaVuSans-71"/>
     <path d="M 41.109375 46.296875 
Q 39.59375 47.171875 37.8125 47.578125 
Q 36.03125 48 33.890625 48 
Q 26.265625 48 22.1875 43.046875 
Q 18.109375 38.09375 18.109375 28.8125 
L 18.109375 0 
L 9.078125 0 
L 9.078125 54.6875 
L 18.109375 54.6875 
L 18.109375 46.1875 
Q 20.953125 51.171875 25.484375 53.578125 
Q 30.03125 56 36.53125 56 
Q 37.453125 56 38.578125 55.875 
Q 39.703125 55.765625 41.0625 55.515625 
z
" id="DejaVuSans-114"/>
     <path d="M 18.109375 8.203125 
L 18.109375 -20.796875 
L 9.078125 -20.796875 
L 9.078125 54.6875 
L 18.109375 54.6875 
L 18.109375 46.390625 
Q 20.953125 51.265625 25.265625 53.625 
Q 29.59375 56 35.59375 56 
Q 45.5625 56 51.78125 48.09375 
Q 58.015625 40.1875 58.015625 27.296875 
Q 58.015625 14.40625 51.78125 6.484375 
Q 45.5625 -1.421875 35.59375 -1.421875 
Q 29.59375 -1.421875 25.265625 0.953125 
Q 20.953125 3.328125 18.109375 8.203125 
z
M 48.6875 27.296875 
Q 48.6875 37.203125 44.609375 42.84375 
Q 40.53125 48.484375 33.40625 48.484375 
Q 26.265625 48.484375 22.1875 42.84375 
Q 18.109375 37.203125 18.109375 27.296875 
Q 18.109375 17.390625 22.1875 11.75 
Q 26.265625 6.109375 33.40625 6.109375 
Q 40.53125 6.109375 44.609375 11.75 
Q 48.6875 17.390625 48.6875 27.296875 
z
" id="DejaVuSans-112"/>
     <path d="M 54.890625 33.015625 
L 54.890625 0 
L 45.90625 0 
L 45.90625 32.71875 
Q 45.90625 40.484375 42.875 44.328125 
Q 39.84375 48.1875 33.796875 48.1875 
Q 26.515625 48.1875 22.3125 43.546875 
Q 18.109375 38.921875 18.109375 30.90625 
L 18.109375 0 
L 9.078125 0 
L 9.078125 75.984375 
L 18.109375 75.984375 
L 18.109375 46.1875 
Q 21.34375 51.125 25.703125 53.5625 
Q 30.078125 56 35.796875 56 
Q 45.21875 56 50.046875 50.171875 
Q 54.890625 44.34375 54.890625 33.015625 
z
" id="DejaVuSans-104"/>
     <path d="M 37.109375 75.984375 
L 37.109375 68.5 
L 28.515625 68.5 
Q 23.6875 68.5 21.796875 66.546875 
Q 19.921875 64.59375 19.921875 59.515625 
L 19.921875 54.6875 
L 34.71875 54.6875 
L 34.71875 47.703125 
L 19.921875 47.703125 
L 19.921875 0 
L 10.890625 0 
L 10.890625 47.703125 
L 2.296875 47.703125 
L 2.296875 54.6875 
L 10.890625 54.6875 
L 10.890625 58.5 
Q 10.890625 67.625 15.140625 71.796875 
Q 19.390625 75.984375 28.609375 75.984375 
z
" id="DejaVuSans-102"/>
     <path d="M 53.515625 70.515625 
L 53.515625 60.890625 
Q 47.90625 63.578125 42.921875 64.890625 
Q 37.9375 66.21875 33.296875 66.21875 
Q 25.25 66.21875 20.875 63.09375 
Q 16.5 59.96875 16.5 54.203125 
Q 16.5 49.359375 19.40625 46.890625 
Q 22.3125 44.4375 30.421875 42.921875 
L 36.375 41.703125 
Q 47.40625 39.59375 52.65625 34.296875 
Q 57.90625 29 57.90625 20.125 
Q 57.90625 9.515625 50.796875 4.046875 
Q 43.703125 -1.421875 29.984375 -1.421875 
Q 24.8125 -1.421875 18.96875 -0.25 
Q 13.140625 0.921875 6.890625 3.21875 
L 6.890625 13.375 
Q 12.890625 10.015625 18.65625 8.296875 
Q 24.421875 6.59375 29.984375 6.59375 
Q 38.421875 6.59375 43.015625 9.90625 
Q 47.609375 13.234375 47.609375 19.390625 
Q 47.609375 24.75 44.3125 27.78125 
Q 41.015625 30.8125 33.5 32.328125 
L 27.484375 33.5 
Q 16.453125 35.6875 11.515625 40.375 
Q 6.59375 45.0625 6.59375 53.421875 
Q 6.59375 63.09375 13.40625 68.65625 
Q 20.21875 74.21875 32.171875 74.21875 
Q 37.3125 74.21875 42.625 73.28125 
Q 47.953125 72.359375 53.515625 70.515625 
z
" id="DejaVuSans-83"/>
     <path d="M 4.203125 54.6875 
L 13.1875 54.6875 
L 24.421875 12.015625 
L 35.59375 54.6875 
L 46.1875 54.6875 
L 57.421875 12.015625 
L 68.609375 54.6875 
L 77.59375 54.6875 
L 63.28125 0 
L 52.6875 0 
L 40.921875 44.828125 
L 29.109375 0 
L 18.5 0 
z
" id="DejaVuSans-119"/>
    </defs>
    <g transform="translate(259.341563 16.318125)scale(0.12 -0.12)">
     <use xlink:href="#DejaVuSans-82"/>
     <use x="64.982422" xlink:href="#DejaVuSans-101"/>
     <use x="126.505859" xlink:href="#DejaVuSans-115"/>
     <use x="178.605469" xlink:href="#DejaVuSans-105"/>
     <use x="206.388672" xlink:href="#DejaVuSans-100"/>
     <use x="269.865234" xlink:href="#DejaVuSans-101"/>
     <use x="331.388672" xlink:href="#DejaVuSans-110"/>
     <use x="394.767578" xlink:href="#DejaVuSans-116"/>
     <use x="433.976562" xlink:href="#DejaVuSans-105"/>
     <use x="461.759766" xlink:href="#DejaVuSans-97"/>
     <use x="523.039062" xlink:href="#DejaVuSans-108"/>
     <use x="550.822266" xlink:href="#DejaVuSans-32"/>
     <use x="582.609375" xlink:href="#DejaVuSans-77"/>
     <use x="668.888672" xlink:href="#DejaVuSans-111"/>
     <use x="730.070312" xlink:href="#DejaVuSans-98"/>
     <use x="793.546875" xlink:href="#DejaVuSans-105"/>
     <use x="821.330078" xlink:href="#DejaVuSans-108"/>
     <use x="849.113281" xlink:href="#DejaVuSans-105"/>
     <use x="876.896484" xlink:href="#DejaVuSans-116"/>
     <use x="916.105469" xlink:href="#DejaVuSans-121"/>
     <use x="975.285156" xlink:href="#DejaVuSans-32"/>
     <use x="1007.072266" xlink:href="#DejaVuSans-71"/>
     <use x="1084.5625" xlink:href="#DejaVuSans-114"/>
     <use x="1125.675781" xlink:href="#DejaVuSans-97"/>
     <use x="1186.955078" xlink:href="#DejaVuSans-112"/>
     <use x="1250.431641" xlink:href="#DejaVuSans-104"/>
     <use x="1313.810547" xlink:href="#DejaVuSans-32"/>
     <use x="1345.597656" xlink:href="#DejaVuSans-102"/>
     <use x="1380.802734" xlink:href="#DejaVuSans-111"/>
     <use x="1441.984375" xlink:href="#DejaVuSans-114"/>
     <use x="1483.097656" xlink:href="#DejaVuSans-32"/>
     <use x="1514.884766" xlink:href="#DejaVuSans-83"/>
     <use x="1578.361328" xlink:href="#DejaVuSans-119"/>
     <use x="1660.148438" xlink:href="#DejaVuSans-101"/>
     <use x="1721.671875" xlink:href="#DejaVuSans-100"/>
     <use x="1785.148438" xlink:href="#DejaVuSans-101"/>
     <use x="1846.671875" xlink:href="#DejaVuSans-110"/>
    </g>
   </g>
   <g id="legend_1">
    <g id="patch_7">
     <path d="M 543.795313 396.718125 
L 698.270313 396.718125 
Q 700.270313 396.718125 700.270313 394.718125 
L 700.270313 381.04 
Q 700.270313 379.04 698.270313 379.04 
L 543.795313 379.04 
Q 541.795313 379.04 541.795313 381.04 
L 541.795313 394.718125 
Q 541.795313 396.718125 543.795313 396.718125 
z
" style="fill:#ffffff;opacity:0.8;stroke:#cccccc;stroke-linejoin:miter;"/>
    </g>
    <g id="line2d_40">
     <path d="M 545.795313 387.138437 
L 565.795313 387.138437 
" style="fill:none;stroke:#ff0000;stroke-linecap:square;stroke-width:3;"/>
    </g>
    <g id="line2d_41"/>
    <g id="text_17">
     <!-- Effective Lockdown date -->
     <defs>
      <path d="M 9.8125 72.90625 
L 55.90625 72.90625 
L 55.90625 64.59375 
L 19.671875 64.59375 
L 19.671875 43.015625 
L 54.390625 43.015625 
L 54.390625 34.71875 
L 19.671875 34.71875 
L 19.671875 8.296875 
L 56.78125 8.296875 
L 56.78125 0 
L 9.8125 0 
z
" id="DejaVuSans-69"/>
      <path d="M 48.78125 52.59375 
L 48.78125 44.1875 
Q 44.96875 46.296875 41.140625 47.34375 
Q 37.3125 48.390625 33.40625 48.390625 
Q 24.65625 48.390625 19.8125 42.84375 
Q 14.984375 37.3125 14.984375 27.296875 
Q 14.984375 17.28125 19.8125 11.734375 
Q 24.65625 6.203125 33.40625 6.203125 
Q 37.3125 6.203125 41.140625 7.25 
Q 44.96875 8.296875 48.78125 10.40625 
L 48.78125 2.09375 
Q 45.015625 0.34375 40.984375 -0.53125 
Q 36.96875 -1.421875 32.421875 -1.421875 
Q 20.0625 -1.421875 12.78125 6.34375 
Q 5.515625 14.109375 5.515625 27.296875 
Q 5.515625 40.671875 12.859375 48.328125 
Q 20.21875 56 33.015625 56 
Q 37.15625 56 41.109375 55.140625 
Q 45.0625 54.296875 48.78125 52.59375 
z
" id="DejaVuSans-99"/>
      <path d="M 2.984375 54.6875 
L 12.5 54.6875 
L 29.59375 8.796875 
L 46.6875 54.6875 
L 56.203125 54.6875 
L 35.6875 0 
L 23.484375 0 
z
" id="DejaVuSans-118"/>
      <path d="M 9.8125 72.90625 
L 19.671875 72.90625 
L 19.671875 8.296875 
L 55.171875 8.296875 
L 55.171875 0 
L 9.8125 0 
z
" id="DejaVuSans-76"/>
      <path d="M 9.078125 75.984375 
L 18.109375 75.984375 
L 18.109375 31.109375 
L 44.921875 54.6875 
L 56.390625 54.6875 
L 27.390625 29.109375 
L 57.625 0 
L 45.90625 0 
L 18.109375 26.703125 
L 18.109375 0 
L 9.078125 0 
z
" id="DejaVuSans-107"/>
     </defs>
     <g transform="translate(573.795313 390.638437)scale(0.1 -0.1)">
      <use xlink:href="#DejaVuSans-69"/>
      <use x="63.183594" xlink:href="#DejaVuSans-102"/>
      <use x="98.388672" xlink:href="#DejaVuSans-102"/>
      <use x="133.59375" xlink:href="#DejaVuSans-101"/>
      <use x="195.117188" xlink:href="#DejaVuSans-99"/>
      <use x="250.097656" xlink:href="#DejaVuSans-116"/>
      <use x="289.306641" xlink:href="#DejaVuSans-105"/>
      <use x="317.089844" xlink:href="#DejaVuSans-118"/>
      <use x="376.269531" xlink:href="#DejaVuSans-101"/>
      <use x="437.792969" xlink:href="#DejaVuSans-32"/>
      <use x="469.580078" xlink:href="#DejaVuSans-76"/>
      <use x="523.542969" xlink:href="#DejaVuSans-111"/>
      <use x="584.724609" xlink:href="#DejaVuSans-99"/>
      <use x="639.705078" xlink:href="#DejaVuSans-107"/>
      <use x="697.615234" xlink:href="#DejaVuSans-100"/>
      <use x="761.091797" xlink:href="#DejaVuSans-111"/>
      <use x="822.273438" xlink:href="#DejaVuSans-119"/>
      <use x="904.060547" xlink:href="#DejaVuSans-110"/>
      <use x="967.439453" xlink:href="#DejaVuSans-32"/>
      <use x="999.226562" xlink:href="#DejaVuSans-100"/>
      <use x="1062.703125" xlink:href="#DejaVuSans-97"/>
      <use x="1123.982422" xlink:href="#DejaVuSans-116"/>
      <use x="1163.191406" xlink:href="#DejaVuSans-101"/>
     </g>
    </g>
   </g>
  </g>
 </g>
 <defs>
  <clipPath id="p050b41dcf7">
   <rect height="379.4" width="662.65" x="42.620313" y="22.318125"/>
  </clipPath>
 </defs>
</svg>
