<?xml version="1.0" encoding="utf-8" standalone="no"?>
<!DOCTYPE svg PUBLIC "-//W3C//DTD SVG 1.1//EN"
  "http://www.w3.org/Graphics/SVG/1.1/DTD/svg11.dtd">
<!-- Created with matplotlib (https://matplotlib.org/) -->
<svg height="439.274375pt" version="1.1" viewBox="0 0 712.470313 439.274375" width="712.470313pt" xmlns="http://www.w3.org/2000/svg" xmlns:xlink="http://www.w3.org/1999/xlink">
 <defs>
  <style type="text/css">
*{stroke-linecap:butt;stroke-linejoin:round;}
  </style>
 </defs>
 <g id="figure_1">
  <g id="patch_1">
   <path d="M 0 439.274375 
L 712.470313 439.274375 
L 712.470313 0 
L 0 0 
z
" style="fill:#ffffff;"/>
  </g>
  <g id="axes_1">
   <g id="patch_2">
    <path d="M 42.620313 401.718125 
L 705.270313 401.718125 
L 705.270313 22.318125 
L 42.620313 22.318125 
z
" style="fill:#ffffff;"/>
   </g>
   <g id="PolyCollection_1">
    <defs>
     <path d="M 72.740767 -145.508755 
L 72.740767 -99.327932 
L 79.912304 -82.117292 
L 87.083841 -138.059965 
L 94.255377 -133.971794 
L 101.426914 -134.149202 
L 108.598451 -138.552187 
L 115.769988 -142.437843 
L 122.941525 -78.97583 
L 130.113061 -67.788473 
L 137.284598 -121.334234 
L 144.456135 -115.072825 
L 151.627672 -114.987447 
L 158.799209 -121.633121 
L 165.970745 -126.143338 
L 173.142282 -64.68729 
L 180.313819 -54.801705 
L 187.485356 -112.05794 
L 194.656893 -109.453763 
L 201.828429 -111.922847 
L 208.999966 -116.59485 
L 216.171503 -123.467378 
L 223.34304 -67.447341 
L 230.514577 -58.273683 
L 237.686113 -117.798547 
L 244.85765 -119.51363 
L 252.029187 -135.372001 
L 259.200724 -158.782292 
L 266.372261 -176.155517 
L 273.543797 -134.260692 
L 280.715334 -136.721715 
L 287.886871 -208.522677 
L 295.058408 -220.135321 
L 302.229945 -241.239657 
L 309.401481 -262.758406 
L 316.573018 -280.408314 
L 323.744555 -235.832904 
L 330.916092 -236.426594 
L 338.087629 -304.915987 
L 345.259165 -315.974783 
L 352.430702 -318.712798 
L 359.602239 -329.168109 
L 366.773776 -332.737616 
L 373.945312 -275.679436 
L 381.116849 -266.021401 
L 388.288386 -323.587314 
L 395.459923 -322.793124 
L 402.63146 -330.007332 
L 409.802996 -338.227046 
L 416.974533 -342.204332 
L 424.14607 -285.248364 
L 431.317607 -277.055155 
L 438.489144 -334.487716 
L 445.66068 -333.867879 
L 452.832217 -338.104262 
L 460.003754 -347.62118 
L 467.175291 -350.983017 
L 474.346828 -289.59613 
L 481.518364 -275.555468 
L 488.689901 -332.348097 
L 495.861438 -326.661689 
L 503.032975 -330.469637 
L 510.204512 -335.672988 
L 517.376048 -337.52584 
L 524.547585 -276.454754 
L 531.719122 -262.909828 
L 538.890659 -317.496349 
L 546.062196 -313.89908 
L 553.233732 -316.189268 
L 560.405269 -320.198935 
L 567.576806 -321.137002 
L 574.748343 -261.457935 
L 581.91988 -248.432188 
L 589.091416 -303.024111 
L 596.262953 -298.468516 
L 603.43449 -301.325752 
L 610.606027 -304.760942 
L 617.777564 -306.333478 
L 624.9491 -245.667331 
L 632.120637 -232.996494 
L 639.292174 -288.537691 
L 646.463711 -283.561912 
L 653.635248 -284.296664 
L 660.806784 -291.189403 
L 667.978321 -292.12036 
L 675.149858 -228.519401 
L 675.149858 -277.580988 
L 675.149858 -277.580988 
L 667.978321 -338.900768 
L 660.806784 -338.730229 
L 653.635248 -332.434423 
L 646.463711 -330.145289 
L 639.292174 -335.011128 
L 632.120637 -282.583356 
L 624.9491 -292.346378 
L 617.777564 -354.398304 
L 610.606027 -354.623859 
L 603.43449 -349.447206 
L 596.262953 -346.500732 
L 589.091416 -351.355368 
L 581.91988 -295.146941 
L 574.748343 -309.060798 
L 567.576806 -368.487454 
L 560.405269 -368.969095 
L 553.233732 -364.520285 
L 546.062196 -361.767316 
L 538.890659 -365.472118 
L 531.719122 -310.031783 
L 524.547585 -324.531567 
L 517.376048 -385.870662 
L 510.204512 -382.915231 
L 503.032975 -377.662898 
L 495.861438 -374.362991 
L 488.689901 -380.900776 
L 481.518364 -323.027162 
L 474.346828 -336.110147 
L 467.175291 -396.982831 
L 460.003754 -396.911514 
L 452.832217 -387.764167 
L 445.66068 -381.770593 
L 438.489144 -383.674248 
L 431.317607 -324.67743 
L 424.14607 -332.207018 
L 416.974533 -391.684778 
L 409.802996 -384.754731 
L 402.63146 -377.113414 
L 395.459923 -373.741063 
L 388.288386 -370.663714 
L 381.116849 -312.572414 
L 373.945312 -323.83826 
L 366.773776 -381.94438 
L 359.602239 -376.667578 
L 352.430702 -367.470807 
L 345.259165 -362.29785 
L 338.087629 -353.730452 
L 330.916092 -283.20114 
L 323.744555 -283.399109 
L 316.573018 -328.140506 
L 309.401481 -310.756218 
L 302.229945 -289.336891 
L 295.058408 -267.178584 
L 287.886871 -258.064181 
L 280.715334 -183.693461 
L 273.543797 -181.889817 
L 266.372261 -224.368776 
L 259.200724 -207.027915 
L 252.029187 -185.135888 
L 244.85765 -165.333406 
L 237.686113 -167.140584 
L 230.514577 -106.112956 
L 223.34304 -115.821325 
L 216.171503 -172.487738 
L 208.999966 -165.014544 
L 201.828429 -158.691103 
L 194.656893 -154.714503 
L 187.485356 -160.876078 
L 180.313819 -102.127686 
L 173.142282 -113.562381 
L 165.970745 -175.918248 
L 158.799209 -171.361673 
L 151.627672 -164.812616 
L 144.456135 -164.852998 
L 137.284598 -169.997683 
L 130.113061 -112.436544 
L 122.941525 -128.118901 
L 115.769988 -188.480344 
L 108.598451 -186.379654 
L 101.426914 -182.199069 
L 94.255377 -181.20257 
L 87.083841 -188.084031 
L 79.912304 -132.730079 
L 72.740767 -145.508755 
z
" id="ma2b7b4ede7" style="stroke:#0072b2;stroke-opacity:0.2;"/>
    </defs>
    <g clip-path="url(#pe246e4e07a)">
     <use style="fill:#0072b2;fill-opacity:0.2;stroke:#0072b2;stroke-opacity:0.2;" x="0" xlink:href="#ma2b7b4ede7" y="439.274375"/>
    </g>
   </g>
   <g id="matplotlib.axis_1">
    <g id="xtick_1">
     <g id="line2d_1">
      <path clip-path="url(#pe246e4e07a)" d="M 65.56923 401.718125 
L 65.56923 22.318125 
" style="fill:none;stroke:#808080;stroke-linecap:square;stroke-opacity:0.2;"/>
     </g>
     <g id="line2d_2">
      <defs>
       <path d="M 0 0 
L 0 3.5 
" id="m8f1b1004cf" style="stroke:#000000;stroke-width:0.8;"/>
      </defs>
      <g>
       <use style="stroke:#000000;stroke-width:0.8;" x="65.56923" xlink:href="#m8f1b1004cf" y="401.718125"/>
      </g>
     </g>
     <g id="text_1">
      <!-- 2020-02-14 -->
      <defs>
       <path d="M 19.1875 8.296875 
L 53.609375 8.296875 
L 53.609375 0 
L 7.328125 0 
L 7.328125 8.296875 
Q 12.9375 14.109375 22.625 23.890625 
Q 32.328125 33.6875 34.8125 36.53125 
Q 39.546875 41.84375 41.421875 45.53125 
Q 43.3125 49.21875 43.3125 52.78125 
Q 43.3125 58.59375 39.234375 62.25 
Q 35.15625 65.921875 28.609375 65.921875 
Q 23.96875 65.921875 18.8125 64.3125 
Q 13.671875 62.703125 7.8125 59.421875 
L 7.8125 69.390625 
Q 13.765625 71.78125 18.9375 73 
Q 24.125 74.21875 28.421875 74.21875 
Q 39.75 74.21875 46.484375 68.546875 
Q 53.21875 62.890625 53.21875 53.421875 
Q 53.21875 48.921875 51.53125 44.890625 
Q 49.859375 40.875 45.40625 35.40625 
Q 44.1875 33.984375 37.640625 27.21875 
Q 31.109375 20.453125 19.1875 8.296875 
z
" id="DejaVuSans-50"/>
       <path d="M 31.78125 66.40625 
Q 24.171875 66.40625 20.328125 58.90625 
Q 16.5 51.421875 16.5 36.375 
Q 16.5 21.390625 20.328125 13.890625 
Q 24.171875 6.390625 31.78125 6.390625 
Q 39.453125 6.390625 43.28125 13.890625 
Q 47.125 21.390625 47.125 36.375 
Q 47.125 51.421875 43.28125 58.90625 
Q 39.453125 66.40625 31.78125 66.40625 
z
M 31.78125 74.21875 
Q 44.046875 74.21875 50.515625 64.515625 
Q 56.984375 54.828125 56.984375 36.375 
Q 56.984375 17.96875 50.515625 8.265625 
Q 44.046875 -1.421875 31.78125 -1.421875 
Q 19.53125 -1.421875 13.0625 8.265625 
Q 6.59375 17.96875 6.59375 36.375 
Q 6.59375 54.828125 13.0625 64.515625 
Q 19.53125 74.21875 31.78125 74.21875 
z
" id="DejaVuSans-48"/>
       <path d="M 4.890625 31.390625 
L 31.203125 31.390625 
L 31.203125 23.390625 
L 4.890625 23.390625 
z
" id="DejaVuSans-45"/>
       <path d="M 12.40625 8.296875 
L 28.515625 8.296875 
L 28.515625 63.921875 
L 10.984375 60.40625 
L 10.984375 69.390625 
L 28.421875 72.90625 
L 38.28125 72.90625 
L 38.28125 8.296875 
L 54.390625 8.296875 
L 54.390625 0 
L 12.40625 0 
z
" id="DejaVuSans-49"/>
       <path d="M 37.796875 64.3125 
L 12.890625 25.390625 
L 37.796875 25.390625 
z
M 35.203125 72.90625 
L 47.609375 72.90625 
L 47.609375 25.390625 
L 58.015625 25.390625 
L 58.015625 17.1875 
L 47.609375 17.1875 
L 47.609375 0 
L 37.796875 0 
L 37.796875 17.1875 
L 4.890625 17.1875 
L 4.890625 26.703125 
z
" id="DejaVuSans-52"/>
      </defs>
      <g transform="translate(36.511418 416.316562)scale(0.1 -0.1)">
       <use xlink:href="#DejaVuSans-50"/>
       <use x="63.623047" xlink:href="#DejaVuSans-48"/>
       <use x="127.246094" xlink:href="#DejaVuSans-50"/>
       <use x="190.869141" xlink:href="#DejaVuSans-48"/>
       <use x="254.492188" xlink:href="#DejaVuSans-45"/>
       <use x="290.576172" xlink:href="#DejaVuSans-48"/>
       <use x="354.199219" xlink:href="#DejaVuSans-50"/>
       <use x="417.822266" xlink:href="#DejaVuSans-45"/>
       <use x="453.90625" xlink:href="#DejaVuSans-49"/>
       <use x="517.529297" xlink:href="#DejaVuSans-52"/>
      </g>
     </g>
    </g>
    <g id="xtick_2">
     <g id="line2d_3">
      <path clip-path="url(#pe246e4e07a)" d="M 165.970745 401.718125 
L 165.970745 22.318125 
" style="fill:none;stroke:#808080;stroke-linecap:square;stroke-opacity:0.2;"/>
     </g>
     <g id="line2d_4">
      <g>
       <use style="stroke:#000000;stroke-width:0.8;" x="165.970745" xlink:href="#m8f1b1004cf" y="401.718125"/>
      </g>
     </g>
     <g id="text_2">
      <!-- 2020-02-28 -->
      <defs>
       <path d="M 31.78125 34.625 
Q 24.75 34.625 20.71875 30.859375 
Q 16.703125 27.09375 16.703125 20.515625 
Q 16.703125 13.921875 20.71875 10.15625 
Q 24.75 6.390625 31.78125 6.390625 
Q 38.8125 6.390625 42.859375 10.171875 
Q 46.921875 13.96875 46.921875 20.515625 
Q 46.921875 27.09375 42.890625 30.859375 
Q 38.875 34.625 31.78125 34.625 
z
M 21.921875 38.8125 
Q 15.578125 40.375 12.03125 44.71875 
Q 8.5 49.078125 8.5 55.328125 
Q 8.5 64.0625 14.71875 69.140625 
Q 20.953125 74.21875 31.78125 74.21875 
Q 42.671875 74.21875 48.875 69.140625 
Q 55.078125 64.0625 55.078125 55.328125 
Q 55.078125 49.078125 51.53125 44.71875 
Q 48 40.375 41.703125 38.8125 
Q 48.828125 37.15625 52.796875 32.3125 
Q 56.78125 27.484375 56.78125 20.515625 
Q 56.78125 9.90625 50.3125 4.234375 
Q 43.84375 -1.421875 31.78125 -1.421875 
Q 19.734375 -1.421875 13.25 4.234375 
Q 6.78125 9.90625 6.78125 20.515625 
Q 6.78125 27.484375 10.78125 32.3125 
Q 14.796875 37.15625 21.921875 38.8125 
z
M 18.3125 54.390625 
Q 18.3125 48.734375 21.84375 45.5625 
Q 25.390625 42.390625 31.78125 42.390625 
Q 38.140625 42.390625 41.71875 45.5625 
Q 45.3125 48.734375 45.3125 54.390625 
Q 45.3125 60.0625 41.71875 63.234375 
Q 38.140625 66.40625 31.78125 66.40625 
Q 25.390625 66.40625 21.84375 63.234375 
Q 18.3125 60.0625 18.3125 54.390625 
z
" id="DejaVuSans-56"/>
      </defs>
      <g transform="translate(136.912933 416.316562)scale(0.1 -0.1)">
       <use xlink:href="#DejaVuSans-50"/>
       <use x="63.623047" xlink:href="#DejaVuSans-48"/>
       <use x="127.246094" xlink:href="#DejaVuSans-50"/>
       <use x="190.869141" xlink:href="#DejaVuSans-48"/>
       <use x="254.492188" xlink:href="#DejaVuSans-45"/>
       <use x="290.576172" xlink:href="#DejaVuSans-48"/>
       <use x="354.199219" xlink:href="#DejaVuSans-50"/>
       <use x="417.822266" xlink:href="#DejaVuSans-45"/>
       <use x="453.90625" xlink:href="#DejaVuSans-50"/>
       <use x="517.529297" xlink:href="#DejaVuSans-56"/>
      </g>
     </g>
    </g>
    <g id="xtick_3">
     <g id="line2d_5">
      <path clip-path="url(#pe246e4e07a)" d="M 266.372261 401.718125 
L 266.372261 22.318125 
" style="fill:none;stroke:#808080;stroke-linecap:square;stroke-opacity:0.2;"/>
     </g>
     <g id="line2d_6">
      <g>
       <use style="stroke:#000000;stroke-width:0.8;" x="266.372261" xlink:href="#m8f1b1004cf" y="401.718125"/>
      </g>
     </g>
     <g id="text_3">
      <!-- 2020-03-13 -->
      <defs>
       <path d="M 40.578125 39.3125 
Q 47.65625 37.796875 51.625 33 
Q 55.609375 28.21875 55.609375 21.1875 
Q 55.609375 10.40625 48.1875 4.484375 
Q 40.765625 -1.421875 27.09375 -1.421875 
Q 22.515625 -1.421875 17.65625 -0.515625 
Q 12.796875 0.390625 7.625 2.203125 
L 7.625 11.71875 
Q 11.71875 9.328125 16.59375 8.109375 
Q 21.484375 6.890625 26.8125 6.890625 
Q 36.078125 6.890625 40.9375 10.546875 
Q 45.796875 14.203125 45.796875 21.1875 
Q 45.796875 27.640625 41.28125 31.265625 
Q 36.765625 34.90625 28.71875 34.90625 
L 20.21875 34.90625 
L 20.21875 43.015625 
L 29.109375 43.015625 
Q 36.375 43.015625 40.234375 45.921875 
Q 44.09375 48.828125 44.09375 54.296875 
Q 44.09375 59.90625 40.109375 62.90625 
Q 36.140625 65.921875 28.71875 65.921875 
Q 24.65625 65.921875 20.015625 65.03125 
Q 15.375 64.15625 9.8125 62.3125 
L 9.8125 71.09375 
Q 15.4375 72.65625 20.34375 73.4375 
Q 25.25 74.21875 29.59375 74.21875 
Q 40.828125 74.21875 47.359375 69.109375 
Q 53.90625 64.015625 53.90625 55.328125 
Q 53.90625 49.265625 50.4375 45.09375 
Q 46.96875 40.921875 40.578125 39.3125 
z
" id="DejaVuSans-51"/>
      </defs>
      <g transform="translate(237.314448 416.316562)scale(0.1 -0.1)">
       <use xlink:href="#DejaVuSans-50"/>
       <use x="63.623047" xlink:href="#DejaVuSans-48"/>
       <use x="127.246094" xlink:href="#DejaVuSans-50"/>
       <use x="190.869141" xlink:href="#DejaVuSans-48"/>
       <use x="254.492188" xlink:href="#DejaVuSans-45"/>
       <use x="290.576172" xlink:href="#DejaVuSans-48"/>
       <use x="354.199219" xlink:href="#DejaVuSans-51"/>
       <use x="417.822266" xlink:href="#DejaVuSans-45"/>
       <use x="453.90625" xlink:href="#DejaVuSans-49"/>
       <use x="517.529297" xlink:href="#DejaVuSans-51"/>
      </g>
     </g>
    </g>
    <g id="xtick_4">
     <g id="line2d_7">
      <path clip-path="url(#pe246e4e07a)" d="M 366.773776 401.718125 
L 366.773776 22.318125 
" style="fill:none;stroke:#808080;stroke-linecap:square;stroke-opacity:0.2;"/>
     </g>
     <g id="line2d_8">
      <g>
       <use style="stroke:#000000;stroke-width:0.8;" x="366.773776" xlink:href="#m8f1b1004cf" y="401.718125"/>
      </g>
     </g>
     <g id="text_4">
      <!-- 2020-03-27 -->
      <defs>
       <path d="M 8.203125 72.90625 
L 55.078125 72.90625 
L 55.078125 68.703125 
L 28.609375 0 
L 18.3125 0 
L 43.21875 64.59375 
L 8.203125 64.59375 
z
" id="DejaVuSans-55"/>
      </defs>
      <g transform="translate(337.715963 416.316562)scale(0.1 -0.1)">
       <use xlink:href="#DejaVuSans-50"/>
       <use x="63.623047" xlink:href="#DejaVuSans-48"/>
       <use x="127.246094" xlink:href="#DejaVuSans-50"/>
       <use x="190.869141" xlink:href="#DejaVuSans-48"/>
       <use x="254.492188" xlink:href="#DejaVuSans-45"/>
       <use x="290.576172" xlink:href="#DejaVuSans-48"/>
       <use x="354.199219" xlink:href="#DejaVuSans-51"/>
       <use x="417.822266" xlink:href="#DejaVuSans-45"/>
       <use x="453.90625" xlink:href="#DejaVuSans-50"/>
       <use x="517.529297" xlink:href="#DejaVuSans-55"/>
      </g>
     </g>
    </g>
    <g id="xtick_5">
     <g id="line2d_9">
      <path clip-path="url(#pe246e4e07a)" d="M 467.175291 401.718125 
L 467.175291 22.318125 
" style="fill:none;stroke:#808080;stroke-linecap:square;stroke-opacity:0.2;"/>
     </g>
     <g id="line2d_10">
      <g>
       <use style="stroke:#000000;stroke-width:0.8;" x="467.175291" xlink:href="#m8f1b1004cf" y="401.718125"/>
      </g>
     </g>
     <g id="text_5">
      <!-- 2020-04-10 -->
      <g transform="translate(438.117478 416.316562)scale(0.1 -0.1)">
       <use xlink:href="#DejaVuSans-50"/>
       <use x="63.623047" xlink:href="#DejaVuSans-48"/>
       <use x="127.246094" xlink:href="#DejaVuSans-50"/>
       <use x="190.869141" xlink:href="#DejaVuSans-48"/>
       <use x="254.492188" xlink:href="#DejaVuSans-45"/>
       <use x="290.576172" xlink:href="#DejaVuSans-48"/>
       <use x="354.199219" xlink:href="#DejaVuSans-52"/>
       <use x="417.822266" xlink:href="#DejaVuSans-45"/>
       <use x="453.90625" xlink:href="#DejaVuSans-49"/>
       <use x="517.529297" xlink:href="#DejaVuSans-48"/>
      </g>
     </g>
    </g>
    <g id="xtick_6">
     <g id="line2d_11">
      <path clip-path="url(#pe246e4e07a)" d="M 567.576806 401.718125 
L 567.576806 22.318125 
" style="fill:none;stroke:#808080;stroke-linecap:square;stroke-opacity:0.2;"/>
     </g>
     <g id="line2d_12">
      <g>
       <use style="stroke:#000000;stroke-width:0.8;" x="567.576806" xlink:href="#m8f1b1004cf" y="401.718125"/>
      </g>
     </g>
     <g id="text_6">
      <!-- 2020-04-24 -->
      <g transform="translate(538.518994 416.316562)scale(0.1 -0.1)">
       <use xlink:href="#DejaVuSans-50"/>
       <use x="63.623047" xlink:href="#DejaVuSans-48"/>
       <use x="127.246094" xlink:href="#DejaVuSans-50"/>
       <use x="190.869141" xlink:href="#DejaVuSans-48"/>
       <use x="254.492188" xlink:href="#DejaVuSans-45"/>
       <use x="290.576172" xlink:href="#DejaVuSans-48"/>
       <use x="354.199219" xlink:href="#DejaVuSans-52"/>
       <use x="417.822266" xlink:href="#DejaVuSans-45"/>
       <use x="453.90625" xlink:href="#DejaVuSans-50"/>
       <use x="517.529297" xlink:href="#DejaVuSans-52"/>
      </g>
     </g>
    </g>
    <g id="xtick_7">
     <g id="line2d_13">
      <path clip-path="url(#pe246e4e07a)" d="M 667.978321 401.718125 
L 667.978321 22.318125 
" style="fill:none;stroke:#808080;stroke-linecap:square;stroke-opacity:0.2;"/>
     </g>
     <g id="line2d_14">
      <g>
       <use style="stroke:#000000;stroke-width:0.8;" x="667.978321" xlink:href="#m8f1b1004cf" y="401.718125"/>
      </g>
     </g>
     <g id="text_7">
      <!-- 2020-05-08 -->
      <defs>
       <path d="M 10.796875 72.90625 
L 49.515625 72.90625 
L 49.515625 64.59375 
L 19.828125 64.59375 
L 19.828125 46.734375 
Q 21.96875 47.46875 24.109375 47.828125 
Q 26.265625 48.1875 28.421875 48.1875 
Q 40.625 48.1875 47.75 41.5 
Q 54.890625 34.8125 54.890625 23.390625 
Q 54.890625 11.625 47.5625 5.09375 
Q 40.234375 -1.421875 26.90625 -1.421875 
Q 22.3125 -1.421875 17.546875 -0.640625 
Q 12.796875 0.140625 7.71875 1.703125 
L 7.71875 11.625 
Q 12.109375 9.234375 16.796875 8.0625 
Q 21.484375 6.890625 26.703125 6.890625 
Q 35.15625 6.890625 40.078125 11.328125 
Q 45.015625 15.765625 45.015625 23.390625 
Q 45.015625 31 40.078125 35.4375 
Q 35.15625 39.890625 26.703125 39.890625 
Q 22.75 39.890625 18.8125 39.015625 
Q 14.890625 38.140625 10.796875 36.28125 
z
" id="DejaVuSans-53"/>
      </defs>
      <g transform="translate(638.920509 416.316562)scale(0.1 -0.1)">
       <use xlink:href="#DejaVuSans-50"/>
       <use x="63.623047" xlink:href="#DejaVuSans-48"/>
       <use x="127.246094" xlink:href="#DejaVuSans-50"/>
       <use x="190.869141" xlink:href="#DejaVuSans-48"/>
       <use x="254.492188" xlink:href="#DejaVuSans-45"/>
       <use x="290.576172" xlink:href="#DejaVuSans-48"/>
       <use x="354.199219" xlink:href="#DejaVuSans-53"/>
       <use x="417.822266" xlink:href="#DejaVuSans-45"/>
       <use x="453.90625" xlink:href="#DejaVuSans-48"/>
       <use x="517.529297" xlink:href="#DejaVuSans-56"/>
      </g>
     </g>
    </g>
    <g id="text_8">
     <!-- Date -->
     <defs>
      <path d="M 19.671875 64.796875 
L 19.671875 8.109375 
L 31.59375 8.109375 
Q 46.6875 8.109375 53.6875 14.9375 
Q 60.6875 21.78125 60.6875 36.53125 
Q 60.6875 51.171875 53.6875 57.984375 
Q 46.6875 64.796875 31.59375 64.796875 
z
M 9.8125 72.90625 
L 30.078125 72.90625 
Q 51.265625 72.90625 61.171875 64.09375 
Q 71.09375 55.28125 71.09375 36.53125 
Q 71.09375 17.671875 61.125 8.828125 
Q 51.171875 0 30.078125 0 
L 9.8125 0 
z
" id="DejaVuSans-68"/>
      <path d="M 34.28125 27.484375 
Q 23.390625 27.484375 19.1875 25 
Q 14.984375 22.515625 14.984375 16.5 
Q 14.984375 11.71875 18.140625 8.90625 
Q 21.296875 6.109375 26.703125 6.109375 
Q 34.1875 6.109375 38.703125 11.40625 
Q 43.21875 16.703125 43.21875 25.484375 
L 43.21875 27.484375 
z
M 52.203125 31.203125 
L 52.203125 0 
L 43.21875 0 
L 43.21875 8.296875 
Q 40.140625 3.328125 35.546875 0.953125 
Q 30.953125 -1.421875 24.3125 -1.421875 
Q 15.921875 -1.421875 10.953125 3.296875 
Q 6 8.015625 6 15.921875 
Q 6 25.140625 12.171875 29.828125 
Q 18.359375 34.515625 30.609375 34.515625 
L 43.21875 34.515625 
L 43.21875 35.40625 
Q 43.21875 41.609375 39.140625 45 
Q 35.0625 48.390625 27.6875 48.390625 
Q 23 48.390625 18.546875 47.265625 
Q 14.109375 46.140625 10.015625 43.890625 
L 10.015625 52.203125 
Q 14.9375 54.109375 19.578125 55.046875 
Q 24.21875 56 28.609375 56 
Q 40.484375 56 46.34375 49.84375 
Q 52.203125 43.703125 52.203125 31.203125 
z
" id="DejaVuSans-97"/>
      <path d="M 18.3125 70.21875 
L 18.3125 54.6875 
L 36.8125 54.6875 
L 36.8125 47.703125 
L 18.3125 47.703125 
L 18.3125 18.015625 
Q 18.3125 11.328125 20.140625 9.421875 
Q 21.96875 7.515625 27.59375 7.515625 
L 36.8125 7.515625 
L 36.8125 0 
L 27.59375 0 
Q 17.1875 0 13.234375 3.875 
Q 9.28125 7.765625 9.28125 18.015625 
L 9.28125 47.703125 
L 2.6875 47.703125 
L 2.6875 54.6875 
L 9.28125 54.6875 
L 9.28125 70.21875 
z
" id="DejaVuSans-116"/>
      <path d="M 56.203125 29.59375 
L 56.203125 25.203125 
L 14.890625 25.203125 
Q 15.484375 15.921875 20.484375 11.0625 
Q 25.484375 6.203125 34.421875 6.203125 
Q 39.59375 6.203125 44.453125 7.46875 
Q 49.3125 8.734375 54.109375 11.28125 
L 54.109375 2.78125 
Q 49.265625 0.734375 44.1875 -0.34375 
Q 39.109375 -1.421875 33.890625 -1.421875 
Q 20.796875 -1.421875 13.15625 6.1875 
Q 5.515625 13.8125 5.515625 26.8125 
Q 5.515625 40.234375 12.765625 48.109375 
Q 20.015625 56 32.328125 56 
Q 43.359375 56 49.78125 48.890625 
Q 56.203125 41.796875 56.203125 29.59375 
z
M 47.21875 32.234375 
Q 47.125 39.59375 43.09375 43.984375 
Q 39.0625 48.390625 32.421875 48.390625 
Q 24.90625 48.390625 20.390625 44.140625 
Q 15.875 39.890625 15.1875 32.171875 
z
" id="DejaVuSans-101"/>
     </defs>
     <g transform="translate(361.994531 429.994687)scale(0.1 -0.1)">
      <use xlink:href="#DejaVuSans-68"/>
      <use x="77.001953" xlink:href="#DejaVuSans-97"/>
      <use x="138.28125" xlink:href="#DejaVuSans-116"/>
      <use x="177.490234" xlink:href="#DejaVuSans-101"/>
     </g>
    </g>
   </g>
   <g id="matplotlib.axis_2">
    <g id="ytick_1">
     <g id="line2d_15">
      <path clip-path="url(#pe246e4e07a)" d="M 42.620313 358.787336 
L 705.270313 358.787336 
" style="fill:none;stroke:#808080;stroke-linecap:square;stroke-opacity:0.2;"/>
     </g>
     <g id="line2d_16">
      <defs>
       <path d="M 0 0 
L -3.5 0 
" id="m5200992aaf" style="stroke:#000000;stroke-width:0.8;"/>
      </defs>
      <g>
       <use style="stroke:#000000;stroke-width:0.8;" x="42.620313" xlink:href="#m5200992aaf" y="358.787336"/>
      </g>
     </g>
     <g id="text_9">
      <!-- −5 -->
      <defs>
       <path d="M 10.59375 35.5 
L 73.1875 35.5 
L 73.1875 27.203125 
L 10.59375 27.203125 
z
" id="DejaVuSans-8722"/>
      </defs>
      <g transform="translate(20.878125 362.586555)scale(0.1 -0.1)">
       <use xlink:href="#DejaVuSans-8722"/>
       <use x="83.789062" xlink:href="#DejaVuSans-53"/>
      </g>
     </g>
    </g>
    <g id="ytick_2">
     <g id="line2d_17">
      <path clip-path="url(#pe246e4e07a)" d="M 42.620313 303.748757 
L 705.270313 303.748757 
" style="fill:none;stroke:#808080;stroke-linecap:square;stroke-opacity:0.2;"/>
     </g>
     <g id="line2d_18">
      <g>
       <use style="stroke:#000000;stroke-width:0.8;" x="42.620313" xlink:href="#m5200992aaf" y="303.748757"/>
      </g>
     </g>
     <g id="text_10">
      <!-- 0 -->
      <g transform="translate(29.257813 307.547976)scale(0.1 -0.1)">
       <use xlink:href="#DejaVuSans-48"/>
      </g>
     </g>
    </g>
    <g id="ytick_3">
     <g id="line2d_19">
      <path clip-path="url(#pe246e4e07a)" d="M 42.620313 248.710179 
L 705.270313 248.710179 
" style="fill:none;stroke:#808080;stroke-linecap:square;stroke-opacity:0.2;"/>
     </g>
     <g id="line2d_20">
      <g>
       <use style="stroke:#000000;stroke-width:0.8;" x="42.620313" xlink:href="#m5200992aaf" y="248.710179"/>
      </g>
     </g>
     <g id="text_11">
      <!-- 5 -->
      <g transform="translate(29.257813 252.509397)scale(0.1 -0.1)">
       <use xlink:href="#DejaVuSans-53"/>
      </g>
     </g>
    </g>
    <g id="ytick_4">
     <g id="line2d_21">
      <path clip-path="url(#pe246e4e07a)" d="M 42.620313 193.6716 
L 705.270313 193.6716 
" style="fill:none;stroke:#808080;stroke-linecap:square;stroke-opacity:0.2;"/>
     </g>
     <g id="line2d_22">
      <g>
       <use style="stroke:#000000;stroke-width:0.8;" x="42.620313" xlink:href="#m5200992aaf" y="193.6716"/>
      </g>
     </g>
     <g id="text_12">
      <!-- 10 -->
      <g transform="translate(22.895313 197.470819)scale(0.1 -0.1)">
       <use xlink:href="#DejaVuSans-49"/>
       <use x="63.623047" xlink:href="#DejaVuSans-48"/>
      </g>
     </g>
    </g>
    <g id="ytick_5">
     <g id="line2d_23">
      <path clip-path="url(#pe246e4e07a)" d="M 42.620313 138.633021 
L 705.270313 138.633021 
" style="fill:none;stroke:#808080;stroke-linecap:square;stroke-opacity:0.2;"/>
     </g>
     <g id="line2d_24">
      <g>
       <use style="stroke:#000000;stroke-width:0.8;" x="42.620313" xlink:href="#m5200992aaf" y="138.633021"/>
      </g>
     </g>
     <g id="text_13">
      <!-- 15 -->
      <g transform="translate(22.895313 142.43224)scale(0.1 -0.1)">
       <use xlink:href="#DejaVuSans-49"/>
       <use x="63.623047" xlink:href="#DejaVuSans-53"/>
      </g>
     </g>
    </g>
    <g id="ytick_6">
     <g id="line2d_25">
      <path clip-path="url(#pe246e4e07a)" d="M 42.620313 83.594443 
L 705.270313 83.594443 
" style="fill:none;stroke:#808080;stroke-linecap:square;stroke-opacity:0.2;"/>
     </g>
     <g id="line2d_26">
      <g>
       <use style="stroke:#000000;stroke-width:0.8;" x="42.620313" xlink:href="#m5200992aaf" y="83.594443"/>
      </g>
     </g>
     <g id="text_14">
      <!-- 20 -->
      <g transform="translate(22.895313 87.393661)scale(0.1 -0.1)">
       <use xlink:href="#DejaVuSans-50"/>
       <use x="63.623047" xlink:href="#DejaVuSans-48"/>
      </g>
     </g>
    </g>
    <g id="ytick_7">
     <g id="line2d_27">
      <path clip-path="url(#pe246e4e07a)" d="M 42.620313 28.555864 
L 705.270313 28.555864 
" style="fill:none;stroke:#808080;stroke-linecap:square;stroke-opacity:0.2;"/>
     </g>
     <g id="line2d_28">
      <g>
       <use style="stroke:#000000;stroke-width:0.8;" x="42.620313" xlink:href="#m5200992aaf" y="28.555864"/>
      </g>
     </g>
     <g id="text_15">
      <!-- 25 -->
      <g transform="translate(22.895313 32.355083)scale(0.1 -0.1)">
       <use xlink:href="#DejaVuSans-50"/>
       <use x="63.623047" xlink:href="#DejaVuSans-53"/>
      </g>
     </g>
    </g>
    <g id="text_16">
     <!-- Residential Mobility -->
     <defs>
      <path d="M 44.390625 34.1875 
Q 47.5625 33.109375 50.5625 29.59375 
Q 53.5625 26.078125 56.59375 19.921875 
L 66.609375 0 
L 56 0 
L 46.6875 18.703125 
Q 43.0625 26.03125 39.671875 28.421875 
Q 36.28125 30.8125 30.421875 30.8125 
L 19.671875 30.8125 
L 19.671875 0 
L 9.8125 0 
L 9.8125 72.90625 
L 32.078125 72.90625 
Q 44.578125 72.90625 50.734375 67.671875 
Q 56.890625 62.453125 56.890625 51.90625 
Q 56.890625 45.015625 53.6875 40.46875 
Q 50.484375 35.9375 44.390625 34.1875 
z
M 19.671875 64.796875 
L 19.671875 38.921875 
L 32.078125 38.921875 
Q 39.203125 38.921875 42.84375 42.21875 
Q 46.484375 45.515625 46.484375 51.90625 
Q 46.484375 58.296875 42.84375 61.546875 
Q 39.203125 64.796875 32.078125 64.796875 
z
" id="DejaVuSans-82"/>
      <path d="M 44.28125 53.078125 
L 44.28125 44.578125 
Q 40.484375 46.53125 36.375 47.5 
Q 32.28125 48.484375 27.875 48.484375 
Q 21.1875 48.484375 17.84375 46.4375 
Q 14.5 44.390625 14.5 40.28125 
Q 14.5 37.15625 16.890625 35.375 
Q 19.28125 33.59375 26.515625 31.984375 
L 29.59375 31.296875 
Q 39.15625 29.25 43.1875 25.515625 
Q 47.21875 21.78125 47.21875 15.09375 
Q 47.21875 7.46875 41.1875 3.015625 
Q 35.15625 -1.421875 24.609375 -1.421875 
Q 20.21875 -1.421875 15.453125 -0.5625 
Q 10.6875 0.296875 5.421875 2 
L 5.421875 11.28125 
Q 10.40625 8.6875 15.234375 7.390625 
Q 20.0625 6.109375 24.8125 6.109375 
Q 31.15625 6.109375 34.5625 8.28125 
Q 37.984375 10.453125 37.984375 14.40625 
Q 37.984375 18.0625 35.515625 20.015625 
Q 33.0625 21.96875 24.703125 23.78125 
L 21.578125 24.515625 
Q 13.234375 26.265625 9.515625 29.90625 
Q 5.8125 33.546875 5.8125 39.890625 
Q 5.8125 47.609375 11.28125 51.796875 
Q 16.75 56 26.8125 56 
Q 31.78125 56 36.171875 55.265625 
Q 40.578125 54.546875 44.28125 53.078125 
z
" id="DejaVuSans-115"/>
      <path d="M 9.421875 54.6875 
L 18.40625 54.6875 
L 18.40625 0 
L 9.421875 0 
z
M 9.421875 75.984375 
L 18.40625 75.984375 
L 18.40625 64.59375 
L 9.421875 64.59375 
z
" id="DejaVuSans-105"/>
      <path d="M 45.40625 46.390625 
L 45.40625 75.984375 
L 54.390625 75.984375 
L 54.390625 0 
L 45.40625 0 
L 45.40625 8.203125 
Q 42.578125 3.328125 38.25 0.953125 
Q 33.9375 -1.421875 27.875 -1.421875 
Q 17.96875 -1.421875 11.734375 6.484375 
Q 5.515625 14.40625 5.515625 27.296875 
Q 5.515625 40.1875 11.734375 48.09375 
Q 17.96875 56 27.875 56 
Q 33.9375 56 38.25 53.625 
Q 42.578125 51.265625 45.40625 46.390625 
z
M 14.796875 27.296875 
Q 14.796875 17.390625 18.875 11.75 
Q 22.953125 6.109375 30.078125 6.109375 
Q 37.203125 6.109375 41.296875 11.75 
Q 45.40625 17.390625 45.40625 27.296875 
Q 45.40625 37.203125 41.296875 42.84375 
Q 37.203125 48.484375 30.078125 48.484375 
Q 22.953125 48.484375 18.875 42.84375 
Q 14.796875 37.203125 14.796875 27.296875 
z
" id="DejaVuSans-100"/>
      <path d="M 54.890625 33.015625 
L 54.890625 0 
L 45.90625 0 
L 45.90625 32.71875 
Q 45.90625 40.484375 42.875 44.328125 
Q 39.84375 48.1875 33.796875 48.1875 
Q 26.515625 48.1875 22.3125 43.546875 
Q 18.109375 38.921875 18.109375 30.90625 
L 18.109375 0 
L 9.078125 0 
L 9.078125 54.6875 
L 18.109375 54.6875 
L 18.109375 46.1875 
Q 21.34375 51.125 25.703125 53.5625 
Q 30.078125 56 35.796875 56 
Q 45.21875 56 50.046875 50.171875 
Q 54.890625 44.34375 54.890625 33.015625 
z
" id="DejaVuSans-110"/>
      <path d="M 9.421875 75.984375 
L 18.40625 75.984375 
L 18.40625 0 
L 9.421875 0 
z
" id="DejaVuSans-108"/>
      <path id="DejaVuSans-32"/>
      <path d="M 9.8125 72.90625 
L 24.515625 72.90625 
L 43.109375 23.296875 
L 61.8125 72.90625 
L 76.515625 72.90625 
L 76.515625 0 
L 66.890625 0 
L 66.890625 64.015625 
L 48.09375 14.015625 
L 38.1875 14.015625 
L 19.390625 64.015625 
L 19.390625 0 
L 9.8125 0 
z
" id="DejaVuSans-77"/>
      <path d="M 30.609375 48.390625 
Q 23.390625 48.390625 19.1875 42.75 
Q 14.984375 37.109375 14.984375 27.296875 
Q 14.984375 17.484375 19.15625 11.84375 
Q 23.34375 6.203125 30.609375 6.203125 
Q 37.796875 6.203125 41.984375 11.859375 
Q 46.1875 17.53125 46.1875 27.296875 
Q 46.1875 37.015625 41.984375 42.703125 
Q 37.796875 48.390625 30.609375 48.390625 
z
M 30.609375 56 
Q 42.328125 56 49.015625 48.375 
Q 55.71875 40.765625 55.71875 27.296875 
Q 55.71875 13.875 49.015625 6.21875 
Q 42.328125 -1.421875 30.609375 -1.421875 
Q 18.84375 -1.421875 12.171875 6.21875 
Q 5.515625 13.875 5.515625 27.296875 
Q 5.515625 40.765625 12.171875 48.375 
Q 18.84375 56 30.609375 56 
z
" id="DejaVuSans-111"/>
      <path d="M 48.6875 27.296875 
Q 48.6875 37.203125 44.609375 42.84375 
Q 40.53125 48.484375 33.40625 48.484375 
Q 26.265625 48.484375 22.1875 42.84375 
Q 18.109375 37.203125 18.109375 27.296875 
Q 18.109375 17.390625 22.1875 11.75 
Q 26.265625 6.109375 33.40625 6.109375 
Q 40.53125 6.109375 44.609375 11.75 
Q 48.6875 17.390625 48.6875 27.296875 
z
M 18.109375 46.390625 
Q 20.953125 51.265625 25.265625 53.625 
Q 29.59375 56 35.59375 56 
Q 45.5625 56 51.78125 48.09375 
Q 58.015625 40.1875 58.015625 27.296875 
Q 58.015625 14.40625 51.78125 6.484375 
Q 45.5625 -1.421875 35.59375 -1.421875 
Q 29.59375 -1.421875 25.265625 0.953125 
Q 20.953125 3.328125 18.109375 8.203125 
L 18.109375 0 
L 9.078125 0 
L 9.078125 75.984375 
L 18.109375 75.984375 
z
" id="DejaVuSans-98"/>
      <path d="M 32.171875 -5.078125 
Q 28.375 -14.84375 24.75 -17.8125 
Q 21.140625 -20.796875 15.09375 -20.796875 
L 7.90625 -20.796875 
L 7.90625 -13.28125 
L 13.1875 -13.28125 
Q 16.890625 -13.28125 18.9375 -11.515625 
Q 21 -9.765625 23.484375 -3.21875 
L 25.09375 0.875 
L 2.984375 54.6875 
L 12.5 54.6875 
L 29.59375 11.921875 
L 46.6875 54.6875 
L 56.203125 54.6875 
z
" id="DejaVuSans-121"/>
     </defs>
     <g transform="translate(14.798438 260.782969)rotate(-90)scale(0.1 -0.1)">
      <use xlink:href="#DejaVuSans-82"/>
      <use x="64.982422" xlink:href="#DejaVuSans-101"/>
      <use x="126.505859" xlink:href="#DejaVuSans-115"/>
      <use x="178.605469" xlink:href="#DejaVuSans-105"/>
      <use x="206.388672" xlink:href="#DejaVuSans-100"/>
      <use x="269.865234" xlink:href="#DejaVuSans-101"/>
      <use x="331.388672" xlink:href="#DejaVuSans-110"/>
      <use x="394.767578" xlink:href="#DejaVuSans-116"/>
      <use x="433.976562" xlink:href="#DejaVuSans-105"/>
      <use x="461.759766" xlink:href="#DejaVuSans-97"/>
      <use x="523.039062" xlink:href="#DejaVuSans-108"/>
      <use x="550.822266" xlink:href="#DejaVuSans-32"/>
      <use x="582.609375" xlink:href="#DejaVuSans-77"/>
      <use x="668.888672" xlink:href="#DejaVuSans-111"/>
      <use x="730.070312" xlink:href="#DejaVuSans-98"/>
      <use x="793.546875" xlink:href="#DejaVuSans-105"/>
      <use x="821.330078" xlink:href="#DejaVuSans-108"/>
      <use x="849.113281" xlink:href="#DejaVuSans-105"/>
      <use x="876.896484" xlink:href="#DejaVuSans-116"/>
      <use x="916.105469" xlink:href="#DejaVuSans-121"/>
     </g>
    </g>
   </g>
   <g id="line2d_29">
    <defs>
     <path d="M 0 1.5 
C 0.397805 1.5 0.77937 1.341951 1.06066 1.06066 
C 1.341951 0.77937 1.5 0.397805 1.5 0 
C 1.5 -0.397805 1.341951 -0.77937 1.06066 -1.06066 
C 0.77937 -1.341951 0.397805 -1.5 0 -1.5 
C -0.397805 -1.5 -0.77937 -1.341951 -1.06066 -1.06066 
C -1.341951 -0.77937 -1.5 -0.397805 -1.5 0 
C -1.5 0.397805 -1.341951 0.77937 -1.06066 1.06066 
C -0.77937 1.341951 -0.397805 1.5 0 1.5 
z
" id="mba3a26c3e7" style="stroke:#000000;"/>
    </defs>
    <g clip-path="url(#pe246e4e07a)">
     <use style="stroke:#000000;" x="72.740767" xlink:href="#mba3a26c3e7" y="314.756473"/>
     <use style="stroke:#000000;" x="79.912304" xlink:href="#mba3a26c3e7" y="314.756473"/>
     <use style="stroke:#000000;" x="87.083841" xlink:href="#mba3a26c3e7" y="248.710179"/>
     <use style="stroke:#000000;" x="94.255377" xlink:href="#mba3a26c3e7" y="292.741042"/>
     <use style="stroke:#000000;" x="101.426914" xlink:href="#mba3a26c3e7" y="303.748757"/>
     <use style="stroke:#000000;" x="108.598451" xlink:href="#mba3a26c3e7" y="292.741042"/>
     <use style="stroke:#000000;" x="115.769988" xlink:href="#mba3a26c3e7" y="303.748757"/>
     <use style="stroke:#000000;" x="122.941525" xlink:href="#mba3a26c3e7" y="314.756473"/>
     <use style="stroke:#000000;" x="130.113061" xlink:href="#mba3a26c3e7" y="314.756473"/>
     <use style="stroke:#000000;" x="137.284598" xlink:href="#mba3a26c3e7" y="303.748757"/>
     <use style="stroke:#000000;" x="144.456135" xlink:href="#mba3a26c3e7" y="303.748757"/>
     <use style="stroke:#000000;" x="151.627672" xlink:href="#mba3a26c3e7" y="314.756473"/>
     <use style="stroke:#000000;" x="158.799209" xlink:href="#mba3a26c3e7" y="303.748757"/>
     <use style="stroke:#000000;" x="165.970745" xlink:href="#mba3a26c3e7" y="314.756473"/>
     <use style="stroke:#000000;" x="173.142282" xlink:href="#mba3a26c3e7" y="325.764189"/>
     <use style="stroke:#000000;" x="180.313819" xlink:href="#mba3a26c3e7" y="314.756473"/>
     <use style="stroke:#000000;" x="187.485356" xlink:href="#mba3a26c3e7" y="314.756473"/>
     <use style="stroke:#000000;" x="194.656893" xlink:href="#mba3a26c3e7" y="314.756473"/>
     <use style="stroke:#000000;" x="201.828429" xlink:href="#mba3a26c3e7" y="314.756473"/>
     <use style="stroke:#000000;" x="208.999966" xlink:href="#mba3a26c3e7" y="314.756473"/>
     <use style="stroke:#000000;" x="216.171503" xlink:href="#mba3a26c3e7" y="314.756473"/>
     <use style="stroke:#000000;" x="223.34304" xlink:href="#mba3a26c3e7" y="314.756473"/>
     <use style="stroke:#000000;" x="230.514577" xlink:href="#mba3a26c3e7" y="314.756473"/>
     <use style="stroke:#000000;" x="237.686113" xlink:href="#mba3a26c3e7" y="303.748757"/>
     <use style="stroke:#000000;" x="244.85765" xlink:href="#mba3a26c3e7" y="292.741042"/>
     <use style="stroke:#000000;" x="252.029187" xlink:href="#mba3a26c3e7" y="303.748757"/>
     <use style="stroke:#000000;" x="259.200724" xlink:href="#mba3a26c3e7" y="292.741042"/>
     <use style="stroke:#000000;" x="266.372261" xlink:href="#mba3a26c3e7" y="270.72561"/>
     <use style="stroke:#000000;" x="273.543797" xlink:href="#mba3a26c3e7" y="270.72561"/>
     <use style="stroke:#000000;" x="280.715334" xlink:href="#mba3a26c3e7" y="270.72561"/>
     <use style="stroke:#000000;" x="287.886871" xlink:href="#mba3a26c3e7" y="215.687031"/>
     <use style="stroke:#000000;" x="295.058408" xlink:href="#mba3a26c3e7" y="182.663884"/>
     <use style="stroke:#000000;" x="302.229945" xlink:href="#mba3a26c3e7" y="160.648453"/>
     <use style="stroke:#000000;" x="309.401481" xlink:href="#mba3a26c3e7" y="138.633021"/>
     <use style="stroke:#000000;" x="316.573018" xlink:href="#mba3a26c3e7" y="127.625305"/>
     <use style="stroke:#000000;" x="323.744555" xlink:href="#mba3a26c3e7" y="171.656168"/>
     <use style="stroke:#000000;" x="330.916092" xlink:href="#mba3a26c3e7" y="182.663884"/>
     <use style="stroke:#000000;" x="338.087629" xlink:href="#mba3a26c3e7" y="116.61759"/>
     <use style="stroke:#000000;" x="345.259165" xlink:href="#mba3a26c3e7" y="94.602158"/>
     <use style="stroke:#000000;" x="352.430702" xlink:href="#mba3a26c3e7" y="94.602158"/>
     <use style="stroke:#000000;" x="359.602239" xlink:href="#mba3a26c3e7" y="83.594443"/>
     <use style="stroke:#000000;" x="366.773776" xlink:href="#mba3a26c3e7" y="72.586727"/>
     <use style="stroke:#000000;" x="373.945312" xlink:href="#mba3a26c3e7" y="138.633021"/>
     <use style="stroke:#000000;" x="381.116849" xlink:href="#mba3a26c3e7" y="171.656168"/>
     <use style="stroke:#000000;" x="388.288386" xlink:href="#mba3a26c3e7" y="94.602158"/>
     <use style="stroke:#000000;" x="395.459923" xlink:href="#mba3a26c3e7" y="83.594443"/>
     <use style="stroke:#000000;" x="402.63146" xlink:href="#mba3a26c3e7" y="83.594443"/>
     <use style="stroke:#000000;" x="409.802996" xlink:href="#mba3a26c3e7" y="72.586727"/>
     <use style="stroke:#000000;" x="416.974533" xlink:href="#mba3a26c3e7" y="61.579011"/>
     <use style="stroke:#000000;" x="424.14607" xlink:href="#mba3a26c3e7" y="138.633021"/>
     <use style="stroke:#000000;" x="431.317607" xlink:href="#mba3a26c3e7" y="160.648453"/>
     <use style="stroke:#000000;" x="438.489144" xlink:href="#mba3a26c3e7" y="83.594443"/>
     <use style="stroke:#000000;" x="445.66068" xlink:href="#mba3a26c3e7" y="72.586727"/>
     <use style="stroke:#000000;" x="452.832217" xlink:href="#mba3a26c3e7" y="72.586727"/>
     <use style="stroke:#000000;" x="460.003754" xlink:href="#mba3a26c3e7" y="61.579011"/>
     <use style="stroke:#000000;" x="467.175291" xlink:href="#mba3a26c3e7" y="39.56358"/>
     <use style="stroke:#000000;" x="474.346828" xlink:href="#mba3a26c3e7" y="149.640737"/>
     <use style="stroke:#000000;" x="481.518364" xlink:href="#mba3a26c3e7" y="160.648453"/>
     <use style="stroke:#000000;" x="488.689901" xlink:href="#mba3a26c3e7" y="72.586727"/>
     <use style="stroke:#000000;" x="495.861438" xlink:href="#mba3a26c3e7" y="83.594443"/>
     <use style="stroke:#000000;" x="503.032975" xlink:href="#mba3a26c3e7" y="83.594443"/>
     <use style="stroke:#000000;" x="510.204512" xlink:href="#mba3a26c3e7" y="72.586727"/>
     <use style="stroke:#000000;" x="517.376048" xlink:href="#mba3a26c3e7" y="61.579011"/>
     <use style="stroke:#000000;" x="524.547585" xlink:href="#mba3a26c3e7" y="149.640737"/>
     <use style="stroke:#000000;" x="531.719122" xlink:href="#mba3a26c3e7" y="182.663884"/>
     <use style="stroke:#000000;" x="538.890659" xlink:href="#mba3a26c3e7" y="94.602158"/>
     <use style="stroke:#000000;" x="546.062196" xlink:href="#mba3a26c3e7" y="83.594443"/>
     <use style="stroke:#000000;" x="553.233732" xlink:href="#mba3a26c3e7" y="83.594443"/>
     <use style="stroke:#000000;" x="560.405269" xlink:href="#mba3a26c3e7" y="72.586727"/>
     <use style="stroke:#000000;" x="567.576806" xlink:href="#mba3a26c3e7" y="72.586727"/>
     <use style="stroke:#000000;" x="574.748343" xlink:href="#mba3a26c3e7" y="171.656168"/>
     <use style="stroke:#000000;" x="581.91988" xlink:href="#mba3a26c3e7" y="182.663884"/>
     <use style="stroke:#000000;" x="589.091416" xlink:href="#mba3a26c3e7" y="105.609874"/>
     <use style="stroke:#000000;" x="596.262953" xlink:href="#mba3a26c3e7" y="171.656168"/>
     <use style="stroke:#000000;" x="603.43449" xlink:href="#mba3a26c3e7" y="94.602158"/>
     <use style="stroke:#000000;" x="610.606027" xlink:href="#mba3a26c3e7" y="94.602158"/>
     <use style="stroke:#000000;" x="617.777564" xlink:href="#mba3a26c3e7" y="105.609874"/>
     <use style="stroke:#000000;" x="624.9491" xlink:href="#mba3a26c3e7" y="193.6716"/>
     <use style="stroke:#000000;" x="632.120637" xlink:href="#mba3a26c3e7" y="215.687031"/>
     <use style="stroke:#000000;" x="639.292174" xlink:href="#mba3a26c3e7" y="127.625305"/>
     <use style="stroke:#000000;" x="646.463711" xlink:href="#mba3a26c3e7" y="116.61759"/>
     <use style="stroke:#000000;" x="653.635248" xlink:href="#mba3a26c3e7" y="116.61759"/>
     <use style="stroke:#000000;" x="660.806784" xlink:href="#mba3a26c3e7" y="116.61759"/>
     <use style="stroke:#000000;" x="667.978321" xlink:href="#mba3a26c3e7" y="105.609874"/>
     <use style="stroke:#000000;" x="675.149858" xlink:href="#mba3a26c3e7" y="204.679316"/>
    </g>
   </g>
   <g id="line2d_30">
    <path clip-path="url(#pe246e4e07a)" d="M 72.740767 318.26438 
L 79.912304 331.692265 
L 87.083841 277.018338 
L 94.255377 281.969466 
L 101.426914 280.701849 
L 108.598451 275.928357 
L 115.769988 274.80168 
L 122.941525 336.642245 
L 130.113061 350.06917 
L 137.284598 295.394284 
L 144.456135 300.344452 
L 151.627672 299.075876 
L 158.799209 292.340232 
L 165.970745 289.252364 
L 173.142282 349.130385 
L 180.313819 360.594766 
L 187.485356 303.957335 
L 194.656893 306.944958 
L 201.828429 303.713837 
L 208.999966 296.97684 
L 216.171503 290.965637 
L 223.34304 347.921677 
L 230.514577 356.464077 
L 237.686113 296.904664 
L 244.85765 296.970307 
L 252.029187 278.393941 
L 259.200724 256.3117 
L 266.372261 237.877234 
L 273.543797 282.404983 
L 280.715334 278.519093 
L 287.886871 206.531391 
L 295.058408 194.168743 
L 302.229945 175.587351 
L 309.401481 153.500083 
L 316.573018 135.060591 
L 323.744555 179.588341 
L 330.916092 178.98761 
L 338.087629 110.285067 
L 345.259165 101.207578 
L 352.430702 95.903263 
L 359.602239 87.093072 
L 366.773776 81.932937 
L 373.945312 139.740045 
L 381.116849 149.133512 
L 388.288386 90.425177 
L 395.459923 91.341896 
L 402.63146 86.03987 
L 409.802996 77.232196 
L 416.974533 72.072297 
L 424.14607 129.879697 
L 431.317607 139.273456 
L 438.489144 80.565404 
L 445.66068 81.482418 
L 452.832217 76.180687 
L 460.003754 67.373081 
L 467.175291 65.391421 
L 474.346828 126.377002 
L 481.518364 138.948944 
L 488.689901 83.419074 
L 495.861438 87.514258 
L 503.032975 85.393068 
L 510.204512 79.766003 
L 517.376048 77.786713 
L 524.547585 139.197524 
L 531.719122 152.194695 
L 538.890659 97.090643 
L 546.062196 101.611645 
L 553.233732 99.913903 
L 560.405269 94.710954 
L 567.576806 93.155781 
L 574.748343 154.56785 
L 581.91988 167.566279 
L 589.091416 112.462896 
L 596.262953 116.984567 
L 603.43449 115.287494 
L 610.606027 110.084545 
L 617.777564 108.529372 
L 624.9491 169.941441 
L 632.120637 182.93987 
L 639.292174 127.836487 
L 646.463711 132.358159 
L 653.635248 130.661086 
L 660.806784 125.458137 
L 667.978321 123.902964 
L 675.149858 185.315033 
" style="fill:none;stroke:#0072b2;stroke-linecap:square;stroke-width:1.5;"/>
   </g>
   <g id="line2d_31">
    <path clip-path="url(#pe246e4e07a)" d="M 72.740767 283.60542 
L 79.912304 286.231104 
L 87.083841 288.856787 
L 94.255377 291.482471 
L 101.426914 294.108154 
L 108.598451 296.733838 
L 115.769988 299.358562 
L 122.941525 301.983285 
L 130.113061 304.608009 
L 137.284598 307.232733 
L 144.456135 309.857457 
L 151.627672 312.482181 
L 158.799209 313.145713 
L 165.970745 313.809245 
L 173.142282 314.471425 
L 180.313819 315.133604 
L 187.485356 315.795783 
L 194.656893 316.457963 
L 201.828429 317.120142 
L 208.999966 317.782321 
L 216.171503 315.522519 
L 223.34304 313.262717 
L 230.514577 311.002915 
L 237.686113 308.743113 
L 244.85765 306.483311 
L 252.029187 291.800246 
L 259.200724 277.117181 
L 266.372261 262.434116 
L 273.543797 247.746023 
L 280.715334 233.057931 
L 287.886871 218.36984 
L 295.058408 203.681748 
L 302.229945 188.993656 
L 309.401481 174.305564 
L 316.573018 159.617473 
L 323.744555 144.929381 
L 330.916092 133.526448 
L 338.087629 122.123515 
L 345.259165 110.720582 
L 352.430702 109.309568 
L 359.602239 107.898553 
L 366.773776 106.489819 
L 373.945312 105.081085 
L 381.116849 103.672351 
L 388.288386 102.263625 
L 395.459923 100.8549 
L 402.63146 99.446175 
L 409.802996 98.037677 
L 416.974533 96.629179 
L 424.14607 95.220737 
L 431.317607 93.812295 
L 438.489144 92.403853 
L 445.66068 90.995423 
L 452.832217 89.586992 
L 460.003754 88.178562 
L 467.175291 89.948302 
L 474.346828 91.718042 
L 481.518364 93.487783 
L 488.689901 95.257523 
L 495.861438 97.027263 
L 503.032975 98.799373 
L 510.204512 100.571484 
L 517.376048 102.343594 
L 524.547585 104.538564 
L 531.719122 106.733534 
L 538.890659 108.929092 
L 546.062196 111.12465 
L 553.233732 113.320208 
L 560.405269 115.516435 
L 567.576806 117.712663 
L 574.748343 119.90889 
L 581.91988 122.105117 
L 589.091416 124.301345 
L 596.262953 126.497572 
L 603.43449 128.693799 
L 610.606027 130.890027 
L 617.777564 133.086254 
L 624.9491 135.282481 
L 632.120637 137.478709 
L 639.292174 139.674936 
L 646.463711 141.871163 
L 653.635248 144.067391 
L 660.806784 146.263618 
L 667.978321 148.459846 
L 675.149858 150.656073 
" style="fill:none;stroke:#0000ff;stroke-linecap:square;stroke-width:1.5;"/>
   </g>
   <g id="line2d_32">
    <path clip-path="url(#pe246e4e07a)" d="M 151.627672 401.718125 
L 151.627672 22.318125 
" style="fill:none;stroke:#0000ff;stroke-dasharray:5.55,2.4;stroke-dashoffset:0;stroke-width:1.5;"/>
   </g>
   <g id="line2d_33">
    <path clip-path="url(#pe246e4e07a)" d="M 208.999966 401.718125 
L 208.999966 22.318125 
" style="fill:none;stroke:#0000ff;stroke-dasharray:5.55,2.4;stroke-dashoffset:0;stroke-width:1.5;"/>
   </g>
   <g id="line2d_34">
    <path clip-path="url(#pe246e4e07a)" d="M 244.85765 401.718125 
L 244.85765 22.318125 
" style="fill:none;stroke:#0000ff;stroke-dasharray:5.55,2.4;stroke-dashoffset:0;stroke-width:1.5;"/>
   </g>
   <g id="line2d_35">
    <path clip-path="url(#pe246e4e07a)" d="M 323.744555 401.718125 
L 323.744555 22.318125 
" style="fill:none;stroke:#0000ff;stroke-dasharray:5.55,2.4;stroke-dashoffset:0;stroke-width:1.5;"/>
   </g>
   <g id="line2d_36">
    <path clip-path="url(#pe246e4e07a)" d="M 345.259165 401.718125 
L 345.259165 22.318125 
" style="fill:none;stroke:#0000ff;stroke-dasharray:5.55,2.4;stroke-dashoffset:0;stroke-width:1.5;"/>
   </g>
   <g id="line2d_37">
    <path clip-path="url(#pe246e4e07a)" d="M 460.003754 401.718125 
L 460.003754 22.318125 
" style="fill:none;stroke:#0000ff;stroke-dasharray:5.55,2.4;stroke-dashoffset:0;stroke-width:1.5;"/>
   </g>
   <g id="line2d_38">
    <path clip-path="url(#pe246e4e07a)" d="M 517.376048 401.718125 
L 517.376048 22.318125 
" style="fill:none;stroke:#0000ff;stroke-dasharray:5.55,2.4;stroke-dashoffset:0;stroke-width:1.5;"/>
   </g>
   <g id="line2d_39">
    <path clip-path="url(#pe246e4e07a)" d="M 244.85765 401.718125 
L 244.85765 22.318125 
" style="fill:none;stroke:#ff0000;stroke-linecap:square;stroke-width:3;"/>
   </g>
   <g id="patch_3">
    <path d="M 42.620313 401.718125 
L 42.620313 22.318125 
" style="fill:none;stroke:#000000;stroke-linecap:square;stroke-linejoin:miter;stroke-width:0.8;"/>
   </g>
   <g id="patch_4">
    <path d="M 705.270313 401.718125 
L 705.270313 22.318125 
" style="fill:none;stroke:#000000;stroke-linecap:square;stroke-linejoin:miter;stroke-width:0.8;"/>
   </g>
   <g id="patch_5">
    <path d="M 42.620312 401.718125 
L 705.270313 401.718125 
" style="fill:none;stroke:#000000;stroke-linecap:square;stroke-linejoin:miter;stroke-width:0.8;"/>
   </g>
   <g id="patch_6">
    <path d="M 42.620312 22.318125 
L 705.270313 22.318125 
" style="fill:none;stroke:#000000;stroke-linecap:square;stroke-linejoin:miter;stroke-width:0.8;"/>
   </g>
   <g id="text_17">
    <!-- Residential Mobility Graph for United States -->
    <defs>
     <path d="M 59.515625 10.40625 
L 59.515625 29.984375 
L 43.40625 29.984375 
L 43.40625 38.09375 
L 69.28125 38.09375 
L 69.28125 6.78125 
Q 63.578125 2.734375 56.6875 0.65625 
Q 49.8125 -1.421875 42 -1.421875 
Q 24.90625 -1.421875 15.25 8.5625 
Q 5.609375 18.5625 5.609375 36.375 
Q 5.609375 54.25 15.25 64.234375 
Q 24.90625 74.21875 42 74.21875 
Q 49.125 74.21875 55.546875 72.453125 
Q 61.96875 70.703125 67.390625 67.28125 
L 67.390625 56.78125 
Q 61.921875 61.421875 55.765625 63.765625 
Q 49.609375 66.109375 42.828125 66.109375 
Q 29.4375 66.109375 22.71875 58.640625 
Q 16.015625 51.171875 16.015625 36.375 
Q 16.015625 21.625 22.71875 14.15625 
Q 29.4375 6.6875 42.828125 6.6875 
Q 48.046875 6.6875 52.140625 7.59375 
Q 56.25 8.5 59.515625 10.40625 
z
" id="DejaVuSans-71"/>
     <path d="M 41.109375 46.296875 
Q 39.59375 47.171875 37.8125 47.578125 
Q 36.03125 48 33.890625 48 
Q 26.265625 48 22.1875 43.046875 
Q 18.109375 38.09375 18.109375 28.8125 
L 18.109375 0 
L 9.078125 0 
L 9.078125 54.6875 
L 18.109375 54.6875 
L 18.109375 46.1875 
Q 20.953125 51.171875 25.484375 53.578125 
Q 30.03125 56 36.53125 56 
Q 37.453125 56 38.578125 55.875 
Q 39.703125 55.765625 41.0625 55.515625 
z
" id="DejaVuSans-114"/>
     <path d="M 18.109375 8.203125 
L 18.109375 -20.796875 
L 9.078125 -20.796875 
L 9.078125 54.6875 
L 18.109375 54.6875 
L 18.109375 46.390625 
Q 20.953125 51.265625 25.265625 53.625 
Q 29.59375 56 35.59375 56 
Q 45.5625 56 51.78125 48.09375 
Q 58.015625 40.1875 58.015625 27.296875 
Q 58.015625 14.40625 51.78125 6.484375 
Q 45.5625 -1.421875 35.59375 -1.421875 
Q 29.59375 -1.421875 25.265625 0.953125 
Q 20.953125 3.328125 18.109375 8.203125 
z
M 48.6875 27.296875 
Q 48.6875 37.203125 44.609375 42.84375 
Q 40.53125 48.484375 33.40625 48.484375 
Q 26.265625 48.484375 22.1875 42.84375 
Q 18.109375 37.203125 18.109375 27.296875 
Q 18.109375 17.390625 22.1875 11.75 
Q 26.265625 6.109375 33.40625 6.109375 
Q 40.53125 6.109375 44.609375 11.75 
Q 48.6875 17.390625 48.6875 27.296875 
z
" id="DejaVuSans-112"/>
     <path d="M 54.890625 33.015625 
L 54.890625 0 
L 45.90625 0 
L 45.90625 32.71875 
Q 45.90625 40.484375 42.875 44.328125 
Q 39.84375 48.1875 33.796875 48.1875 
Q 26.515625 48.1875 22.3125 43.546875 
Q 18.109375 38.921875 18.109375 30.90625 
L 18.109375 0 
L 9.078125 0 
L 9.078125 75.984375 
L 18.109375 75.984375 
L 18.109375 46.1875 
Q 21.34375 51.125 25.703125 53.5625 
Q 30.078125 56 35.796875 56 
Q 45.21875 56 50.046875 50.171875 
Q 54.890625 44.34375 54.890625 33.015625 
z
" id="DejaVuSans-104"/>
     <path d="M 37.109375 75.984375 
L 37.109375 68.5 
L 28.515625 68.5 
Q 23.6875 68.5 21.796875 66.546875 
Q 19.921875 64.59375 19.921875 59.515625 
L 19.921875 54.6875 
L 34.71875 54.6875 
L 34.71875 47.703125 
L 19.921875 47.703125 
L 19.921875 0 
L 10.890625 0 
L 10.890625 47.703125 
L 2.296875 47.703125 
L 2.296875 54.6875 
L 10.890625 54.6875 
L 10.890625 58.5 
Q 10.890625 67.625 15.140625 71.796875 
Q 19.390625 75.984375 28.609375 75.984375 
z
" id="DejaVuSans-102"/>
     <path d="M 8.6875 72.90625 
L 18.609375 72.90625 
L 18.609375 28.609375 
Q 18.609375 16.890625 22.84375 11.734375 
Q 27.09375 6.59375 36.625 6.59375 
Q 46.09375 6.59375 50.34375 11.734375 
Q 54.59375 16.890625 54.59375 28.609375 
L 54.59375 72.90625 
L 64.5 72.90625 
L 64.5 27.390625 
Q 64.5 13.140625 57.4375 5.859375 
Q 50.390625 -1.421875 36.625 -1.421875 
Q 22.796875 -1.421875 15.734375 5.859375 
Q 8.6875 13.140625 8.6875 27.390625 
z
" id="DejaVuSans-85"/>
     <path d="M 53.515625 70.515625 
L 53.515625 60.890625 
Q 47.90625 63.578125 42.921875 64.890625 
Q 37.9375 66.21875 33.296875 66.21875 
Q 25.25 66.21875 20.875 63.09375 
Q 16.5 59.96875 16.5 54.203125 
Q 16.5 49.359375 19.40625 46.890625 
Q 22.3125 44.4375 30.421875 42.921875 
L 36.375 41.703125 
Q 47.40625 39.59375 52.65625 34.296875 
Q 57.90625 29 57.90625 20.125 
Q 57.90625 9.515625 50.796875 4.046875 
Q 43.703125 -1.421875 29.984375 -1.421875 
Q 24.8125 -1.421875 18.96875 -0.25 
Q 13.140625 0.921875 6.890625 3.21875 
L 6.890625 13.375 
Q 12.890625 10.015625 18.65625 8.296875 
Q 24.421875 6.59375 29.984375 6.59375 
Q 38.421875 6.59375 43.015625 9.90625 
Q 47.609375 13.234375 47.609375 19.390625 
Q 47.609375 24.75 44.3125 27.78125 
Q 41.015625 30.8125 33.5 32.328125 
L 27.484375 33.5 
Q 16.453125 35.6875 11.515625 40.375 
Q 6.59375 45.0625 6.59375 53.421875 
Q 6.59375 63.09375 13.40625 68.65625 
Q 20.21875 74.21875 32.171875 74.21875 
Q 37.3125 74.21875 42.625 73.28125 
Q 47.953125 72.359375 53.515625 70.515625 
z
" id="DejaVuSans-83"/>
    </defs>
    <g transform="translate(242.424375 16.318125)scale(0.12 -0.12)">
     <use xlink:href="#DejaVuSans-82"/>
     <use x="64.982422" xlink:href="#DejaVuSans-101"/>
     <use x="126.505859" xlink:href="#DejaVuSans-115"/>
     <use x="178.605469" xlink:href="#DejaVuSans-105"/>
     <use x="206.388672" xlink:href="#DejaVuSans-100"/>
     <use x="269.865234" xlink:href="#DejaVuSans-101"/>
     <use x="331.388672" xlink:href="#DejaVuSans-110"/>
     <use x="394.767578" xlink:href="#DejaVuSans-116"/>
     <use x="433.976562" xlink:href="#DejaVuSans-105"/>
     <use x="461.759766" xlink:href="#DejaVuSans-97"/>
     <use x="523.039062" xlink:href="#DejaVuSans-108"/>
     <use x="550.822266" xlink:href="#DejaVuSans-32"/>
     <use x="582.609375" xlink:href="#DejaVuSans-77"/>
     <use x="668.888672" xlink:href="#DejaVuSans-111"/>
     <use x="730.070312" xlink:href="#DejaVuSans-98"/>
     <use x="793.546875" xlink:href="#DejaVuSans-105"/>
     <use x="821.330078" xlink:href="#DejaVuSans-108"/>
     <use x="849.113281" xlink:href="#DejaVuSans-105"/>
     <use x="876.896484" xlink:href="#DejaVuSans-116"/>
     <use x="916.105469" xlink:href="#DejaVuSans-121"/>
     <use x="975.285156" xlink:href="#DejaVuSans-32"/>
     <use x="1007.072266" xlink:href="#DejaVuSans-71"/>
     <use x="1084.5625" xlink:href="#DejaVuSans-114"/>
     <use x="1125.675781" xlink:href="#DejaVuSans-97"/>
     <use x="1186.955078" xlink:href="#DejaVuSans-112"/>
     <use x="1250.431641" xlink:href="#DejaVuSans-104"/>
     <use x="1313.810547" xlink:href="#DejaVuSans-32"/>
     <use x="1345.597656" xlink:href="#DejaVuSans-102"/>
     <use x="1380.802734" xlink:href="#DejaVuSans-111"/>
     <use x="1441.984375" xlink:href="#DejaVuSans-114"/>
     <use x="1483.097656" xlink:href="#DejaVuSans-32"/>
     <use x="1514.884766" xlink:href="#DejaVuSans-85"/>
     <use x="1588.078125" xlink:href="#DejaVuSans-110"/>
     <use x="1651.457031" xlink:href="#DejaVuSans-105"/>
     <use x="1679.240234" xlink:href="#DejaVuSans-116"/>
     <use x="1718.449219" xlink:href="#DejaVuSans-101"/>
     <use x="1779.972656" xlink:href="#DejaVuSans-100"/>
     <use x="1843.449219" xlink:href="#DejaVuSans-32"/>
     <use x="1875.236328" xlink:href="#DejaVuSans-83"/>
     <use x="1938.712891" xlink:href="#DejaVuSans-116"/>
     <use x="1977.921875" xlink:href="#DejaVuSans-97"/>
     <use x="2039.201172" xlink:href="#DejaVuSans-116"/>
     <use x="2078.410156" xlink:href="#DejaVuSans-101"/>
     <use x="2139.933594" xlink:href="#DejaVuSans-115"/>
    </g>
   </g>
   <g id="legend_1">
    <g id="patch_7">
     <path d="M 543.795313 44.99625 
L 698.270313 44.99625 
Q 700.270313 44.99625 700.270313 42.99625 
L 700.270313 29.318125 
Q 700.270313 27.318125 698.270313 27.318125 
L 543.795313 27.318125 
Q 541.795313 27.318125 541.795313 29.318125 
L 541.795313 42.99625 
Q 541.795313 44.99625 543.795313 44.99625 
z
" style="fill:#ffffff;opacity:0.8;stroke:#cccccc;stroke-linejoin:miter;"/>
    </g>
    <g id="line2d_40">
     <path d="M 545.795313 35.416562 
L 565.795313 35.416562 
" style="fill:none;stroke:#ff0000;stroke-linecap:square;stroke-width:3;"/>
    </g>
    <g id="line2d_41"/>
    <g id="text_18">
     <!-- Effective Lockdown date -->
     <defs>
      <path d="M 9.8125 72.90625 
L 55.90625 72.90625 
L 55.90625 64.59375 
L 19.671875 64.59375 
L 19.671875 43.015625 
L 54.390625 43.015625 
L 54.390625 34.71875 
L 19.671875 34.71875 
L 19.671875 8.296875 
L 56.78125 8.296875 
L 56.78125 0 
L 9.8125 0 
z
" id="DejaVuSans-69"/>
      <path d="M 48.78125 52.59375 
L 48.78125 44.1875 
Q 44.96875 46.296875 41.140625 47.34375 
Q 37.3125 48.390625 33.40625 48.390625 
Q 24.65625 48.390625 19.8125 42.84375 
Q 14.984375 37.3125 14.984375 27.296875 
Q 14.984375 17.28125 19.8125 11.734375 
Q 24.65625 6.203125 33.40625 6.203125 
Q 37.3125 6.203125 41.140625 7.25 
Q 44.96875 8.296875 48.78125 10.40625 
L 48.78125 2.09375 
Q 45.015625 0.34375 40.984375 -0.53125 
Q 36.96875 -1.421875 32.421875 -1.421875 
Q 20.0625 -1.421875 12.78125 6.34375 
Q 5.515625 14.109375 5.515625 27.296875 
Q 5.515625 40.671875 12.859375 48.328125 
Q 20.21875 56 33.015625 56 
Q 37.15625 56 41.109375 55.140625 
Q 45.0625 54.296875 48.78125 52.59375 
z
" id="DejaVuSans-99"/>
      <path d="M 2.984375 54.6875 
L 12.5 54.6875 
L 29.59375 8.796875 
L 46.6875 54.6875 
L 56.203125 54.6875 
L 35.6875 0 
L 23.484375 0 
z
" id="DejaVuSans-118"/>
      <path d="M 9.8125 72.90625 
L 19.671875 72.90625 
L 19.671875 8.296875 
L 55.171875 8.296875 
L 55.171875 0 
L 9.8125 0 
z
" id="DejaVuSans-76"/>
      <path d="M 9.078125 75.984375 
L 18.109375 75.984375 
L 18.109375 31.109375 
L 44.921875 54.6875 
L 56.390625 54.6875 
L 27.390625 29.109375 
L 57.625 0 
L 45.90625 0 
L 18.109375 26.703125 
L 18.109375 0 
L 9.078125 0 
z
" id="DejaVuSans-107"/>
      <path d="M 4.203125 54.6875 
L 13.1875 54.6875 
L 24.421875 12.015625 
L 35.59375 54.6875 
L 46.1875 54.6875 
L 57.421875 12.015625 
L 68.609375 54.6875 
L 77.59375 54.6875 
L 63.28125 0 
L 52.6875 0 
L 40.921875 44.828125 
L 29.109375 0 
L 18.5 0 
z
" id="DejaVuSans-119"/>
     </defs>
     <g transform="translate(573.795313 38.916562)scale(0.1 -0.1)">
      <use xlink:href="#DejaVuSans-69"/>
      <use x="63.183594" xlink:href="#DejaVuSans-102"/>
      <use x="98.388672" xlink:href="#DejaVuSans-102"/>
      <use x="133.59375" xlink:href="#DejaVuSans-101"/>
      <use x="195.117188" xlink:href="#DejaVuSans-99"/>
      <use x="250.097656" xlink:href="#DejaVuSans-116"/>
      <use x="289.306641" xlink:href="#DejaVuSans-105"/>
      <use x="317.089844" xlink:href="#DejaVuSans-118"/>
      <use x="376.269531" xlink:href="#DejaVuSans-101"/>
      <use x="437.792969" xlink:href="#DejaVuSans-32"/>
      <use x="469.580078" xlink:href="#DejaVuSans-76"/>
      <use x="523.542969" xlink:href="#DejaVuSans-111"/>
      <use x="584.724609" xlink:href="#DejaVuSans-99"/>
      <use x="639.705078" xlink:href="#DejaVuSans-107"/>
      <use x="697.615234" xlink:href="#DejaVuSans-100"/>
      <use x="761.091797" xlink:href="#DejaVuSans-111"/>
      <use x="822.273438" xlink:href="#DejaVuSans-119"/>
      <use x="904.060547" xlink:href="#DejaVuSans-110"/>
      <use x="967.439453" xlink:href="#DejaVuSans-32"/>
      <use x="999.226562" xlink:href="#DejaVuSans-100"/>
      <use x="1062.703125" xlink:href="#DejaVuSans-97"/>
      <use x="1123.982422" xlink:href="#DejaVuSans-116"/>
      <use x="1163.191406" xlink:href="#DejaVuSans-101"/>
     </g>
    </g>
   </g>
  </g>
 </g>
 <defs>
  <clipPath id="pe246e4e07a">
   <rect height="379.4" width="662.65" x="42.620313" y="22.318125"/>
  </clipPath>
 </defs>
</svg>
