<?xml version="1.0" encoding="utf-8" standalone="no"?>
<!DOCTYPE svg PUBLIC "-//W3C//DTD SVG 1.1//EN"
  "http://www.w3.org/Graphics/SVG/1.1/DTD/svg11.dtd">
<!-- Created with matplotlib (https://matplotlib.org/) -->
<svg height="439.274375pt" version="1.1" viewBox="0 0 712.470313 439.274375" width="712.470313pt" xmlns="http://www.w3.org/2000/svg" xmlns:xlink="http://www.w3.org/1999/xlink">
 <defs>
  <style type="text/css">
*{stroke-linecap:butt;stroke-linejoin:round;}
  </style>
 </defs>
 <g id="figure_1">
  <g id="patch_1">
   <path d="M 0 439.274375 
L 712.470313 439.274375 
L 712.470313 0 
L 0 0 
z
" style="fill:#ffffff;"/>
  </g>
  <g id="axes_1">
   <g id="patch_2">
    <path d="M 42.620313 401.718125 
L 705.270313 401.718125 
L 705.270313 22.318125 
L 42.620313 22.318125 
z
" style="fill:#ffffff;"/>
   </g>
   <g id="PolyCollection_1">
    <defs>
     <path d="M 72.740767 -144.073115 
L 72.740767 -96.257096 
L 79.912304 -83.313551 
L 87.083841 -138.182587 
L 94.255377 -134.075598 
L 101.426914 -133.961114 
L 108.598451 -140.597097 
L 115.769988 -138.674972 
L 122.941525 -79.045595 
L 130.113061 -63.718825 
L 137.284598 -117.992862 
L 144.456135 -113.819801 
L 151.627672 -115.64642 
L 158.799209 -122.342919 
L 165.970745 -125.6765 
L 173.142282 -65.686159 
L 180.313819 -54.801705 
L 187.485356 -110.413368 
L 194.656893 -108.164515 
L 201.828429 -111.765582 
L 208.999966 -117.619008 
L 216.171503 -123.884805 
L 223.34304 -65.537155 
L 230.514577 -58.881157 
L 237.686113 -118.37432 
L 244.85765 -118.424322 
L 252.029187 -135.895076 
L 259.200724 -157.051814 
L 266.372261 -176.129873 
L 273.543797 -133.423927 
L 280.715334 -135.889295 
L 287.886871 -208.655737 
L 295.058408 -220.668427 
L 302.229945 -237.636152 
L 309.401481 -260.929113 
L 316.573018 -280.135 
L 323.744555 -235.6704 
L 330.916092 -235.771057 
L 338.087629 -306.078911 
L 345.259165 -314.469112 
L 352.430702 -318.694775 
L 359.602239 -328.769528 
L 366.773776 -333.13881 
L 373.945312 -275.842545 
L 381.116849 -266.178919 
L 388.288386 -324.5433 
L 395.459923 -324.329431 
L 402.63146 -330.91678 
L 409.802996 -336.476037 
L 416.974533 -341.167518 
L 424.14607 -283.332003 
L 431.317607 -275.37792 
L 438.489144 -336.596776 
L 445.66068 -331.169594 
L 452.832217 -339.900535 
L 460.003754 -348.165291 
L 467.175291 -349.256887 
L 474.346828 -288.5794 
L 481.518364 -275.182782 
L 488.689901 -331.720706 
L 495.861438 -327.214376 
L 503.032975 -328.554224 
L 510.204512 -334.236584 
L 517.376048 -338.332288 
L 524.547585 -275.342455 
L 531.719122 -263.482668 
L 538.890659 -319.371104 
L 546.062196 -313.096414 
L 553.233732 -315.23239 
L 560.405269 -321.177847 
L 567.576806 -322.005192 
L 574.748343 -260.336378 
L 581.91988 -246.303964 
L 589.091416 -302.525289 
L 596.262953 -297.688562 
L 603.43449 -297.529702 
L 610.606027 -307.527003 
L 617.777564 -306.596522 
L 624.9491 -245.873281 
L 632.120637 -232.305755 
L 639.292174 -286.370959 
L 646.463711 -282.044069 
L 653.635248 -284.330649 
L 660.806784 -289.388346 
L 667.978321 -292.209794 
L 675.149858 -230.662847 
L 675.149858 -276.992224 
L 675.149858 -276.992224 
L 667.978321 -338.290815 
L 660.806784 -337.941243 
L 653.635248 -332.29193 
L 646.463711 -330.681997 
L 639.292174 -335.861332 
L 632.120637 -281.263578 
L 624.9491 -292.031026 
L 617.777564 -356.950434 
L 610.606027 -353.561623 
L 603.43449 -347.561358 
L 596.262953 -346.533519 
L 589.091416 -351.439116 
L 581.91988 -294.969035 
L 574.748343 -308.662227 
L 567.576806 -369.811763 
L 560.405269 -366.711999 
L 553.233732 -362.772621 
L 546.062196 -362.502581 
L 538.890659 -366.058895 
L 531.719122 -310.629562 
L 524.547585 -323.457748 
L 517.376048 -386.036706 
L 510.204512 -382.855052 
L 503.032975 -376.553691 
L 495.861438 -374.615858 
L 488.689901 -377.348464 
L 481.518364 -324.87256 
L 474.346828 -336.44981 
L 467.175291 -396.086023 
L 460.003754 -397.901994 
L 452.832217 -385.809101 
L 445.66068 -381.501858 
L 438.489144 -382.012416 
L 431.317607 -324.286441 
L 424.14607 -333.053374 
L 416.974533 -390.395811 
L 409.802996 -385.861633 
L 402.63146 -376.783929 
L 395.459923 -371.958219 
L 388.288386 -373.356967 
L 381.116849 -313.109054 
L 373.945312 -321.622336 
L 366.773776 -380.344128 
L 359.602239 -377.553763 
L 352.430702 -367.211773 
L 345.259165 -362.4811 
L 338.087629 -351.031428 
L 330.916092 -285.606284 
L 323.744555 -282.592772 
L 316.573018 -329.50887 
L 309.401481 -309.790022 
L 302.229945 -289.256693 
L 295.058408 -270.346741 
L 287.886871 -257.129027 
L 280.715334 -185.288012 
L 273.543797 -179.726221 
L 266.372261 -226.733047 
L 259.200724 -204.975129 
L 252.029187 -184.850401 
L 244.85765 -166.124402 
L 237.686113 -165.596746 
L 230.514577 -105.661307 
L 223.34304 -116.436842 
L 216.171503 -172.060139 
L 208.999966 -164.047246 
L 201.828429 -159.368594 
L 194.656893 -157.802105 
L 187.485356 -159.462647 
L 180.313819 -101.485388 
L 173.142282 -114.36564 
L 165.970745 -173.356345 
L 158.799209 -169.396183 
L 151.627672 -163.958479 
L 144.456135 -162.21102 
L 137.284598 -165.810142 
L 130.113061 -112.521269 
L 122.941525 -127.06131 
L 115.769988 -187.189923 
L 108.598451 -188.474826 
L 101.426914 -182.553813 
L 94.255377 -181.164307 
L 87.083841 -184.944343 
L 79.912304 -132.178333 
L 72.740767 -144.073115 
z
" id="md3273e6951" style="stroke:#0072b2;stroke-opacity:0.2;"/>
    </defs>
    <g clip-path="url(#p557fa77271)">
     <use style="fill:#0072b2;fill-opacity:0.2;stroke:#0072b2;stroke-opacity:0.2;" x="0" xlink:href="#md3273e6951" y="439.274375"/>
    </g>
   </g>
   <g id="matplotlib.axis_1">
    <g id="xtick_1">
     <g id="line2d_1">
      <path clip-path="url(#p557fa77271)" d="M 65.56923 401.718125 
L 65.56923 22.318125 
" style="fill:none;stroke:#808080;stroke-linecap:square;stroke-opacity:0.2;"/>
     </g>
     <g id="line2d_2">
      <defs>
       <path d="M 0 0 
L 0 3.5 
" id="m6dbd69c1a8" style="stroke:#000000;stroke-width:0.8;"/>
      </defs>
      <g>
       <use style="stroke:#000000;stroke-width:0.8;" x="65.56923" xlink:href="#m6dbd69c1a8" y="401.718125"/>
      </g>
     </g>
     <g id="text_1">
      <!-- 2020-02-14 -->
      <defs>
       <path d="M 19.1875 8.296875 
L 53.609375 8.296875 
L 53.609375 0 
L 7.328125 0 
L 7.328125 8.296875 
Q 12.9375 14.109375 22.625 23.890625 
Q 32.328125 33.6875 34.8125 36.53125 
Q 39.546875 41.84375 41.421875 45.53125 
Q 43.3125 49.21875 43.3125 52.78125 
Q 43.3125 58.59375 39.234375 62.25 
Q 35.15625 65.921875 28.609375 65.921875 
Q 23.96875 65.921875 18.8125 64.3125 
Q 13.671875 62.703125 7.8125 59.421875 
L 7.8125 69.390625 
Q 13.765625 71.78125 18.9375 73 
Q 24.125 74.21875 28.421875 74.21875 
Q 39.75 74.21875 46.484375 68.546875 
Q 53.21875 62.890625 53.21875 53.421875 
Q 53.21875 48.921875 51.53125 44.890625 
Q 49.859375 40.875 45.40625 35.40625 
Q 44.1875 33.984375 37.640625 27.21875 
Q 31.109375 20.453125 19.1875 8.296875 
z
" id="DejaVuSans-50"/>
       <path d="M 31.78125 66.40625 
Q 24.171875 66.40625 20.328125 58.90625 
Q 16.5 51.421875 16.5 36.375 
Q 16.5 21.390625 20.328125 13.890625 
Q 24.171875 6.390625 31.78125 6.390625 
Q 39.453125 6.390625 43.28125 13.890625 
Q 47.125 21.390625 47.125 36.375 
Q 47.125 51.421875 43.28125 58.90625 
Q 39.453125 66.40625 31.78125 66.40625 
z
M 31.78125 74.21875 
Q 44.046875 74.21875 50.515625 64.515625 
Q 56.984375 54.828125 56.984375 36.375 
Q 56.984375 17.96875 50.515625 8.265625 
Q 44.046875 -1.421875 31.78125 -1.421875 
Q 19.53125 -1.421875 13.0625 8.265625 
Q 6.59375 17.96875 6.59375 36.375 
Q 6.59375 54.828125 13.0625 64.515625 
Q 19.53125 74.21875 31.78125 74.21875 
z
" id="DejaVuSans-48"/>
       <path d="M 4.890625 31.390625 
L 31.203125 31.390625 
L 31.203125 23.390625 
L 4.890625 23.390625 
z
" id="DejaVuSans-45"/>
       <path d="M 12.40625 8.296875 
L 28.515625 8.296875 
L 28.515625 63.921875 
L 10.984375 60.40625 
L 10.984375 69.390625 
L 28.421875 72.90625 
L 38.28125 72.90625 
L 38.28125 8.296875 
L 54.390625 8.296875 
L 54.390625 0 
L 12.40625 0 
z
" id="DejaVuSans-49"/>
       <path d="M 37.796875 64.3125 
L 12.890625 25.390625 
L 37.796875 25.390625 
z
M 35.203125 72.90625 
L 47.609375 72.90625 
L 47.609375 25.390625 
L 58.015625 25.390625 
L 58.015625 17.1875 
L 47.609375 17.1875 
L 47.609375 0 
L 37.796875 0 
L 37.796875 17.1875 
L 4.890625 17.1875 
L 4.890625 26.703125 
z
" id="DejaVuSans-52"/>
      </defs>
      <g transform="translate(36.511418 416.316562)scale(0.1 -0.1)">
       <use xlink:href="#DejaVuSans-50"/>
       <use x="63.623047" xlink:href="#DejaVuSans-48"/>
       <use x="127.246094" xlink:href="#DejaVuSans-50"/>
       <use x="190.869141" xlink:href="#DejaVuSans-48"/>
       <use x="254.492188" xlink:href="#DejaVuSans-45"/>
       <use x="290.576172" xlink:href="#DejaVuSans-48"/>
       <use x="354.199219" xlink:href="#DejaVuSans-50"/>
       <use x="417.822266" xlink:href="#DejaVuSans-45"/>
       <use x="453.90625" xlink:href="#DejaVuSans-49"/>
       <use x="517.529297" xlink:href="#DejaVuSans-52"/>
      </g>
     </g>
    </g>
    <g id="xtick_2">
     <g id="line2d_3">
      <path clip-path="url(#p557fa77271)" d="M 165.970745 401.718125 
L 165.970745 22.318125 
" style="fill:none;stroke:#808080;stroke-linecap:square;stroke-opacity:0.2;"/>
     </g>
     <g id="line2d_4">
      <g>
       <use style="stroke:#000000;stroke-width:0.8;" x="165.970745" xlink:href="#m6dbd69c1a8" y="401.718125"/>
      </g>
     </g>
     <g id="text_2">
      <!-- 2020-02-28 -->
      <defs>
       <path d="M 31.78125 34.625 
Q 24.75 34.625 20.71875 30.859375 
Q 16.703125 27.09375 16.703125 20.515625 
Q 16.703125 13.921875 20.71875 10.15625 
Q 24.75 6.390625 31.78125 6.390625 
Q 38.8125 6.390625 42.859375 10.171875 
Q 46.921875 13.96875 46.921875 20.515625 
Q 46.921875 27.09375 42.890625 30.859375 
Q 38.875 34.625 31.78125 34.625 
z
M 21.921875 38.8125 
Q 15.578125 40.375 12.03125 44.71875 
Q 8.5 49.078125 8.5 55.328125 
Q 8.5 64.0625 14.71875 69.140625 
Q 20.953125 74.21875 31.78125 74.21875 
Q 42.671875 74.21875 48.875 69.140625 
Q 55.078125 64.0625 55.078125 55.328125 
Q 55.078125 49.078125 51.53125 44.71875 
Q 48 40.375 41.703125 38.8125 
Q 48.828125 37.15625 52.796875 32.3125 
Q 56.78125 27.484375 56.78125 20.515625 
Q 56.78125 9.90625 50.3125 4.234375 
Q 43.84375 -1.421875 31.78125 -1.421875 
Q 19.734375 -1.421875 13.25 4.234375 
Q 6.78125 9.90625 6.78125 20.515625 
Q 6.78125 27.484375 10.78125 32.3125 
Q 14.796875 37.15625 21.921875 38.8125 
z
M 18.3125 54.390625 
Q 18.3125 48.734375 21.84375 45.5625 
Q 25.390625 42.390625 31.78125 42.390625 
Q 38.140625 42.390625 41.71875 45.5625 
Q 45.3125 48.734375 45.3125 54.390625 
Q 45.3125 60.0625 41.71875 63.234375 
Q 38.140625 66.40625 31.78125 66.40625 
Q 25.390625 66.40625 21.84375 63.234375 
Q 18.3125 60.0625 18.3125 54.390625 
z
" id="DejaVuSans-56"/>
      </defs>
      <g transform="translate(136.912933 416.316562)scale(0.1 -0.1)">
       <use xlink:href="#DejaVuSans-50"/>
       <use x="63.623047" xlink:href="#DejaVuSans-48"/>
       <use x="127.246094" xlink:href="#DejaVuSans-50"/>
       <use x="190.869141" xlink:href="#DejaVuSans-48"/>
       <use x="254.492188" xlink:href="#DejaVuSans-45"/>
       <use x="290.576172" xlink:href="#DejaVuSans-48"/>
       <use x="354.199219" xlink:href="#DejaVuSans-50"/>
       <use x="417.822266" xlink:href="#DejaVuSans-45"/>
       <use x="453.90625" xlink:href="#DejaVuSans-50"/>
       <use x="517.529297" xlink:href="#DejaVuSans-56"/>
      </g>
     </g>
    </g>
    <g id="xtick_3">
     <g id="line2d_5">
      <path clip-path="url(#p557fa77271)" d="M 266.372261 401.718125 
L 266.372261 22.318125 
" style="fill:none;stroke:#808080;stroke-linecap:square;stroke-opacity:0.2;"/>
     </g>
     <g id="line2d_6">
      <g>
       <use style="stroke:#000000;stroke-width:0.8;" x="266.372261" xlink:href="#m6dbd69c1a8" y="401.718125"/>
      </g>
     </g>
     <g id="text_3">
      <!-- 2020-03-13 -->
      <defs>
       <path d="M 40.578125 39.3125 
Q 47.65625 37.796875 51.625 33 
Q 55.609375 28.21875 55.609375 21.1875 
Q 55.609375 10.40625 48.1875 4.484375 
Q 40.765625 -1.421875 27.09375 -1.421875 
Q 22.515625 -1.421875 17.65625 -0.515625 
Q 12.796875 0.390625 7.625 2.203125 
L 7.625 11.71875 
Q 11.71875 9.328125 16.59375 8.109375 
Q 21.484375 6.890625 26.8125 6.890625 
Q 36.078125 6.890625 40.9375 10.546875 
Q 45.796875 14.203125 45.796875 21.1875 
Q 45.796875 27.640625 41.28125 31.265625 
Q 36.765625 34.90625 28.71875 34.90625 
L 20.21875 34.90625 
L 20.21875 43.015625 
L 29.109375 43.015625 
Q 36.375 43.015625 40.234375 45.921875 
Q 44.09375 48.828125 44.09375 54.296875 
Q 44.09375 59.90625 40.109375 62.90625 
Q 36.140625 65.921875 28.71875 65.921875 
Q 24.65625 65.921875 20.015625 65.03125 
Q 15.375 64.15625 9.8125 62.3125 
L 9.8125 71.09375 
Q 15.4375 72.65625 20.34375 73.4375 
Q 25.25 74.21875 29.59375 74.21875 
Q 40.828125 74.21875 47.359375 69.109375 
Q 53.90625 64.015625 53.90625 55.328125 
Q 53.90625 49.265625 50.4375 45.09375 
Q 46.96875 40.921875 40.578125 39.3125 
z
" id="DejaVuSans-51"/>
      </defs>
      <g transform="translate(237.314448 416.316562)scale(0.1 -0.1)">
       <use xlink:href="#DejaVuSans-50"/>
       <use x="63.623047" xlink:href="#DejaVuSans-48"/>
       <use x="127.246094" xlink:href="#DejaVuSans-50"/>
       <use x="190.869141" xlink:href="#DejaVuSans-48"/>
       <use x="254.492188" xlink:href="#DejaVuSans-45"/>
       <use x="290.576172" xlink:href="#DejaVuSans-48"/>
       <use x="354.199219" xlink:href="#DejaVuSans-51"/>
       <use x="417.822266" xlink:href="#DejaVuSans-45"/>
       <use x="453.90625" xlink:href="#DejaVuSans-49"/>
       <use x="517.529297" xlink:href="#DejaVuSans-51"/>
      </g>
     </g>
    </g>
    <g id="xtick_4">
     <g id="line2d_7">
      <path clip-path="url(#p557fa77271)" d="M 366.773776 401.718125 
L 366.773776 22.318125 
" style="fill:none;stroke:#808080;stroke-linecap:square;stroke-opacity:0.2;"/>
     </g>
     <g id="line2d_8">
      <g>
       <use style="stroke:#000000;stroke-width:0.8;" x="366.773776" xlink:href="#m6dbd69c1a8" y="401.718125"/>
      </g>
     </g>
     <g id="text_4">
      <!-- 2020-03-27 -->
      <defs>
       <path d="M 8.203125 72.90625 
L 55.078125 72.90625 
L 55.078125 68.703125 
L 28.609375 0 
L 18.3125 0 
L 43.21875 64.59375 
L 8.203125 64.59375 
z
" id="DejaVuSans-55"/>
      </defs>
      <g transform="translate(337.715963 416.316562)scale(0.1 -0.1)">
       <use xlink:href="#DejaVuSans-50"/>
       <use x="63.623047" xlink:href="#DejaVuSans-48"/>
       <use x="127.246094" xlink:href="#DejaVuSans-50"/>
       <use x="190.869141" xlink:href="#DejaVuSans-48"/>
       <use x="254.492188" xlink:href="#DejaVuSans-45"/>
       <use x="290.576172" xlink:href="#DejaVuSans-48"/>
       <use x="354.199219" xlink:href="#DejaVuSans-51"/>
       <use x="417.822266" xlink:href="#DejaVuSans-45"/>
       <use x="453.90625" xlink:href="#DejaVuSans-50"/>
       <use x="517.529297" xlink:href="#DejaVuSans-55"/>
      </g>
     </g>
    </g>
    <g id="xtick_5">
     <g id="line2d_9">
      <path clip-path="url(#p557fa77271)" d="M 467.175291 401.718125 
L 467.175291 22.318125 
" style="fill:none;stroke:#808080;stroke-linecap:square;stroke-opacity:0.2;"/>
     </g>
     <g id="line2d_10">
      <g>
       <use style="stroke:#000000;stroke-width:0.8;" x="467.175291" xlink:href="#m6dbd69c1a8" y="401.718125"/>
      </g>
     </g>
     <g id="text_5">
      <!-- 2020-04-10 -->
      <g transform="translate(438.117478 416.316562)scale(0.1 -0.1)">
       <use xlink:href="#DejaVuSans-50"/>
       <use x="63.623047" xlink:href="#DejaVuSans-48"/>
       <use x="127.246094" xlink:href="#DejaVuSans-50"/>
       <use x="190.869141" xlink:href="#DejaVuSans-48"/>
       <use x="254.492188" xlink:href="#DejaVuSans-45"/>
       <use x="290.576172" xlink:href="#DejaVuSans-48"/>
       <use x="354.199219" xlink:href="#DejaVuSans-52"/>
       <use x="417.822266" xlink:href="#DejaVuSans-45"/>
       <use x="453.90625" xlink:href="#DejaVuSans-49"/>
       <use x="517.529297" xlink:href="#DejaVuSans-48"/>
      </g>
     </g>
    </g>
    <g id="xtick_6">
     <g id="line2d_11">
      <path clip-path="url(#p557fa77271)" d="M 567.576806 401.718125 
L 567.576806 22.318125 
" style="fill:none;stroke:#808080;stroke-linecap:square;stroke-opacity:0.2;"/>
     </g>
     <g id="line2d_12">
      <g>
       <use style="stroke:#000000;stroke-width:0.8;" x="567.576806" xlink:href="#m6dbd69c1a8" y="401.718125"/>
      </g>
     </g>
     <g id="text_6">
      <!-- 2020-04-24 -->
      <g transform="translate(538.518994 416.316562)scale(0.1 -0.1)">
       <use xlink:href="#DejaVuSans-50"/>
       <use x="63.623047" xlink:href="#DejaVuSans-48"/>
       <use x="127.246094" xlink:href="#DejaVuSans-50"/>
       <use x="190.869141" xlink:href="#DejaVuSans-48"/>
       <use x="254.492188" xlink:href="#DejaVuSans-45"/>
       <use x="290.576172" xlink:href="#DejaVuSans-48"/>
       <use x="354.199219" xlink:href="#DejaVuSans-52"/>
       <use x="417.822266" xlink:href="#DejaVuSans-45"/>
       <use x="453.90625" xlink:href="#DejaVuSans-50"/>
       <use x="517.529297" xlink:href="#DejaVuSans-52"/>
      </g>
     </g>
    </g>
    <g id="xtick_7">
     <g id="line2d_13">
      <path clip-path="url(#p557fa77271)" d="M 667.978321 401.718125 
L 667.978321 22.318125 
" style="fill:none;stroke:#808080;stroke-linecap:square;stroke-opacity:0.2;"/>
     </g>
     <g id="line2d_14">
      <g>
       <use style="stroke:#000000;stroke-width:0.8;" x="667.978321" xlink:href="#m6dbd69c1a8" y="401.718125"/>
      </g>
     </g>
     <g id="text_7">
      <!-- 2020-05-08 -->
      <defs>
       <path d="M 10.796875 72.90625 
L 49.515625 72.90625 
L 49.515625 64.59375 
L 19.828125 64.59375 
L 19.828125 46.734375 
Q 21.96875 47.46875 24.109375 47.828125 
Q 26.265625 48.1875 28.421875 48.1875 
Q 40.625 48.1875 47.75 41.5 
Q 54.890625 34.8125 54.890625 23.390625 
Q 54.890625 11.625 47.5625 5.09375 
Q 40.234375 -1.421875 26.90625 -1.421875 
Q 22.3125 -1.421875 17.546875 -0.640625 
Q 12.796875 0.140625 7.71875 1.703125 
L 7.71875 11.625 
Q 12.109375 9.234375 16.796875 8.0625 
Q 21.484375 6.890625 26.703125 6.890625 
Q 35.15625 6.890625 40.078125 11.328125 
Q 45.015625 15.765625 45.015625 23.390625 
Q 45.015625 31 40.078125 35.4375 
Q 35.15625 39.890625 26.703125 39.890625 
Q 22.75 39.890625 18.8125 39.015625 
Q 14.890625 38.140625 10.796875 36.28125 
z
" id="DejaVuSans-53"/>
      </defs>
      <g transform="translate(638.920509 416.316562)scale(0.1 -0.1)">
       <use xlink:href="#DejaVuSans-50"/>
       <use x="63.623047" xlink:href="#DejaVuSans-48"/>
       <use x="127.246094" xlink:href="#DejaVuSans-50"/>
       <use x="190.869141" xlink:href="#DejaVuSans-48"/>
       <use x="254.492188" xlink:href="#DejaVuSans-45"/>
       <use x="290.576172" xlink:href="#DejaVuSans-48"/>
       <use x="354.199219" xlink:href="#DejaVuSans-53"/>
       <use x="417.822266" xlink:href="#DejaVuSans-45"/>
       <use x="453.90625" xlink:href="#DejaVuSans-48"/>
       <use x="517.529297" xlink:href="#DejaVuSans-56"/>
      </g>
     </g>
    </g>
    <g id="text_8">
     <!-- Date -->
     <defs>
      <path d="M 19.671875 64.796875 
L 19.671875 8.109375 
L 31.59375 8.109375 
Q 46.6875 8.109375 53.6875 14.9375 
Q 60.6875 21.78125 60.6875 36.53125 
Q 60.6875 51.171875 53.6875 57.984375 
Q 46.6875 64.796875 31.59375 64.796875 
z
M 9.8125 72.90625 
L 30.078125 72.90625 
Q 51.265625 72.90625 61.171875 64.09375 
Q 71.09375 55.28125 71.09375 36.53125 
Q 71.09375 17.671875 61.125 8.828125 
Q 51.171875 0 30.078125 0 
L 9.8125 0 
z
" id="DejaVuSans-68"/>
      <path d="M 34.28125 27.484375 
Q 23.390625 27.484375 19.1875 25 
Q 14.984375 22.515625 14.984375 16.5 
Q 14.984375 11.71875 18.140625 8.90625 
Q 21.296875 6.109375 26.703125 6.109375 
Q 34.1875 6.109375 38.703125 11.40625 
Q 43.21875 16.703125 43.21875 25.484375 
L 43.21875 27.484375 
z
M 52.203125 31.203125 
L 52.203125 0 
L 43.21875 0 
L 43.21875 8.296875 
Q 40.140625 3.328125 35.546875 0.953125 
Q 30.953125 -1.421875 24.3125 -1.421875 
Q 15.921875 -1.421875 10.953125 3.296875 
Q 6 8.015625 6 15.921875 
Q 6 25.140625 12.171875 29.828125 
Q 18.359375 34.515625 30.609375 34.515625 
L 43.21875 34.515625 
L 43.21875 35.40625 
Q 43.21875 41.609375 39.140625 45 
Q 35.0625 48.390625 27.6875 48.390625 
Q 23 48.390625 18.546875 47.265625 
Q 14.109375 46.140625 10.015625 43.890625 
L 10.015625 52.203125 
Q 14.9375 54.109375 19.578125 55.046875 
Q 24.21875 56 28.609375 56 
Q 40.484375 56 46.34375 49.84375 
Q 52.203125 43.703125 52.203125 31.203125 
z
" id="DejaVuSans-97"/>
      <path d="M 18.3125 70.21875 
L 18.3125 54.6875 
L 36.8125 54.6875 
L 36.8125 47.703125 
L 18.3125 47.703125 
L 18.3125 18.015625 
Q 18.3125 11.328125 20.140625 9.421875 
Q 21.96875 7.515625 27.59375 7.515625 
L 36.8125 7.515625 
L 36.8125 0 
L 27.59375 0 
Q 17.1875 0 13.234375 3.875 
Q 9.28125 7.765625 9.28125 18.015625 
L 9.28125 47.703125 
L 2.6875 47.703125 
L 2.6875 54.6875 
L 9.28125 54.6875 
L 9.28125 70.21875 
z
" id="DejaVuSans-116"/>
      <path d="M 56.203125 29.59375 
L 56.203125 25.203125 
L 14.890625 25.203125 
Q 15.484375 15.921875 20.484375 11.0625 
Q 25.484375 6.203125 34.421875 6.203125 
Q 39.59375 6.203125 44.453125 7.46875 
Q 49.3125 8.734375 54.109375 11.28125 
L 54.109375 2.78125 
Q 49.265625 0.734375 44.1875 -0.34375 
Q 39.109375 -1.421875 33.890625 -1.421875 
Q 20.796875 -1.421875 13.15625 6.1875 
Q 5.515625 13.8125 5.515625 26.8125 
Q 5.515625 40.234375 12.765625 48.109375 
Q 20.015625 56 32.328125 56 
Q 43.359375 56 49.78125 48.890625 
Q 56.203125 41.796875 56.203125 29.59375 
z
M 47.21875 32.234375 
Q 47.125 39.59375 43.09375 43.984375 
Q 39.0625 48.390625 32.421875 48.390625 
Q 24.90625 48.390625 20.390625 44.140625 
Q 15.875 39.890625 15.1875 32.171875 
z
" id="DejaVuSans-101"/>
     </defs>
     <g transform="translate(361.994531 429.994687)scale(0.1 -0.1)">
      <use xlink:href="#DejaVuSans-68"/>
      <use x="77.001953" xlink:href="#DejaVuSans-97"/>
      <use x="138.28125" xlink:href="#DejaVuSans-116"/>
      <use x="177.490234" xlink:href="#DejaVuSans-101"/>
     </g>
    </g>
   </g>
   <g id="matplotlib.axis_2">
    <g id="ytick_1">
     <g id="line2d_15">
      <path clip-path="url(#p557fa77271)" d="M 42.620313 359.281425 
L 705.270313 359.281425 
" style="fill:none;stroke:#808080;stroke-linecap:square;stroke-opacity:0.2;"/>
     </g>
     <g id="line2d_16">
      <defs>
       <path d="M 0 0 
L -3.5 0 
" id="mdc7ac70630" style="stroke:#000000;stroke-width:0.8;"/>
      </defs>
      <g>
       <use style="stroke:#000000;stroke-width:0.8;" x="42.620313" xlink:href="#mdc7ac70630" y="359.281425"/>
      </g>
     </g>
     <g id="text_9">
      <!-- −5 -->
      <defs>
       <path d="M 10.59375 35.5 
L 73.1875 35.5 
L 73.1875 27.203125 
L 10.59375 27.203125 
z
" id="DejaVuSans-8722"/>
      </defs>
      <g transform="translate(20.878125 363.080644)scale(0.1 -0.1)">
       <use xlink:href="#DejaVuSans-8722"/>
       <use x="83.789062" xlink:href="#DejaVuSans-53"/>
      </g>
     </g>
    </g>
    <g id="ytick_2">
     <g id="line2d_17">
      <path clip-path="url(#p557fa77271)" d="M 42.620313 304.157659 
L 705.270313 304.157659 
" style="fill:none;stroke:#808080;stroke-linecap:square;stroke-opacity:0.2;"/>
     </g>
     <g id="line2d_18">
      <g>
       <use style="stroke:#000000;stroke-width:0.8;" x="42.620313" xlink:href="#mdc7ac70630" y="304.157659"/>
      </g>
     </g>
     <g id="text_10">
      <!-- 0 -->
      <g transform="translate(29.257813 307.956878)scale(0.1 -0.1)">
       <use xlink:href="#DejaVuSans-48"/>
      </g>
     </g>
    </g>
    <g id="ytick_3">
     <g id="line2d_19">
      <path clip-path="url(#p557fa77271)" d="M 42.620313 249.033892 
L 705.270313 249.033892 
" style="fill:none;stroke:#808080;stroke-linecap:square;stroke-opacity:0.2;"/>
     </g>
     <g id="line2d_20">
      <g>
       <use style="stroke:#000000;stroke-width:0.8;" x="42.620313" xlink:href="#mdc7ac70630" y="249.033892"/>
      </g>
     </g>
     <g id="text_11">
      <!-- 5 -->
      <g transform="translate(29.257813 252.833111)scale(0.1 -0.1)">
       <use xlink:href="#DejaVuSans-53"/>
      </g>
     </g>
    </g>
    <g id="ytick_4">
     <g id="line2d_21">
      <path clip-path="url(#p557fa77271)" d="M 42.620313 193.910126 
L 705.270313 193.910126 
" style="fill:none;stroke:#808080;stroke-linecap:square;stroke-opacity:0.2;"/>
     </g>
     <g id="line2d_22">
      <g>
       <use style="stroke:#000000;stroke-width:0.8;" x="42.620313" xlink:href="#mdc7ac70630" y="193.910126"/>
      </g>
     </g>
     <g id="text_12">
      <!-- 10 -->
      <g transform="translate(22.895313 197.709345)scale(0.1 -0.1)">
       <use xlink:href="#DejaVuSans-49"/>
       <use x="63.623047" xlink:href="#DejaVuSans-48"/>
      </g>
     </g>
    </g>
    <g id="ytick_5">
     <g id="line2d_23">
      <path clip-path="url(#p557fa77271)" d="M 42.620313 138.786359 
L 705.270313 138.786359 
" style="fill:none;stroke:#808080;stroke-linecap:square;stroke-opacity:0.2;"/>
     </g>
     <g id="line2d_24">
      <g>
       <use style="stroke:#000000;stroke-width:0.8;" x="42.620313" xlink:href="#mdc7ac70630" y="138.786359"/>
      </g>
     </g>
     <g id="text_13">
      <!-- 15 -->
      <g transform="translate(22.895313 142.585578)scale(0.1 -0.1)">
       <use xlink:href="#DejaVuSans-49"/>
       <use x="63.623047" xlink:href="#DejaVuSans-53"/>
      </g>
     </g>
    </g>
    <g id="ytick_6">
     <g id="line2d_25">
      <path clip-path="url(#p557fa77271)" d="M 42.620313 83.662593 
L 705.270313 83.662593 
" style="fill:none;stroke:#808080;stroke-linecap:square;stroke-opacity:0.2;"/>
     </g>
     <g id="line2d_26">
      <g>
       <use style="stroke:#000000;stroke-width:0.8;" x="42.620313" xlink:href="#mdc7ac70630" y="83.662593"/>
      </g>
     </g>
     <g id="text_14">
      <!-- 20 -->
      <g transform="translate(22.895313 87.461812)scale(0.1 -0.1)">
       <use xlink:href="#DejaVuSans-50"/>
       <use x="63.623047" xlink:href="#DejaVuSans-48"/>
      </g>
     </g>
    </g>
    <g id="ytick_7">
     <g id="line2d_27">
      <path clip-path="url(#p557fa77271)" d="M 42.620313 28.538826 
L 705.270313 28.538826 
" style="fill:none;stroke:#808080;stroke-linecap:square;stroke-opacity:0.2;"/>
     </g>
     <g id="line2d_28">
      <g>
       <use style="stroke:#000000;stroke-width:0.8;" x="42.620313" xlink:href="#mdc7ac70630" y="28.538826"/>
      </g>
     </g>
     <g id="text_15">
      <!-- 25 -->
      <g transform="translate(22.895313 32.338045)scale(0.1 -0.1)">
       <use xlink:href="#DejaVuSans-50"/>
       <use x="63.623047" xlink:href="#DejaVuSans-53"/>
      </g>
     </g>
    </g>
    <g id="text_16">
     <!-- Residential Mobility -->
     <defs>
      <path d="M 44.390625 34.1875 
Q 47.5625 33.109375 50.5625 29.59375 
Q 53.5625 26.078125 56.59375 19.921875 
L 66.609375 0 
L 56 0 
L 46.6875 18.703125 
Q 43.0625 26.03125 39.671875 28.421875 
Q 36.28125 30.8125 30.421875 30.8125 
L 19.671875 30.8125 
L 19.671875 0 
L 9.8125 0 
L 9.8125 72.90625 
L 32.078125 72.90625 
Q 44.578125 72.90625 50.734375 67.671875 
Q 56.890625 62.453125 56.890625 51.90625 
Q 56.890625 45.015625 53.6875 40.46875 
Q 50.484375 35.9375 44.390625 34.1875 
z
M 19.671875 64.796875 
L 19.671875 38.921875 
L 32.078125 38.921875 
Q 39.203125 38.921875 42.84375 42.21875 
Q 46.484375 45.515625 46.484375 51.90625 
Q 46.484375 58.296875 42.84375 61.546875 
Q 39.203125 64.796875 32.078125 64.796875 
z
" id="DejaVuSans-82"/>
      <path d="M 44.28125 53.078125 
L 44.28125 44.578125 
Q 40.484375 46.53125 36.375 47.5 
Q 32.28125 48.484375 27.875 48.484375 
Q 21.1875 48.484375 17.84375 46.4375 
Q 14.5 44.390625 14.5 40.28125 
Q 14.5 37.15625 16.890625 35.375 
Q 19.28125 33.59375 26.515625 31.984375 
L 29.59375 31.296875 
Q 39.15625 29.25 43.1875 25.515625 
Q 47.21875 21.78125 47.21875 15.09375 
Q 47.21875 7.46875 41.1875 3.015625 
Q 35.15625 -1.421875 24.609375 -1.421875 
Q 20.21875 -1.421875 15.453125 -0.5625 
Q 10.6875 0.296875 5.421875 2 
L 5.421875 11.28125 
Q 10.40625 8.6875 15.234375 7.390625 
Q 20.0625 6.109375 24.8125 6.109375 
Q 31.15625 6.109375 34.5625 8.28125 
Q 37.984375 10.453125 37.984375 14.40625 
Q 37.984375 18.0625 35.515625 20.015625 
Q 33.0625 21.96875 24.703125 23.78125 
L 21.578125 24.515625 
Q 13.234375 26.265625 9.515625 29.90625 
Q 5.8125 33.546875 5.8125 39.890625 
Q 5.8125 47.609375 11.28125 51.796875 
Q 16.75 56 26.8125 56 
Q 31.78125 56 36.171875 55.265625 
Q 40.578125 54.546875 44.28125 53.078125 
z
" id="DejaVuSans-115"/>
      <path d="M 9.421875 54.6875 
L 18.40625 54.6875 
L 18.40625 0 
L 9.421875 0 
z
M 9.421875 75.984375 
L 18.40625 75.984375 
L 18.40625 64.59375 
L 9.421875 64.59375 
z
" id="DejaVuSans-105"/>
      <path d="M 45.40625 46.390625 
L 45.40625 75.984375 
L 54.390625 75.984375 
L 54.390625 0 
L 45.40625 0 
L 45.40625 8.203125 
Q 42.578125 3.328125 38.25 0.953125 
Q 33.9375 -1.421875 27.875 -1.421875 
Q 17.96875 -1.421875 11.734375 6.484375 
Q 5.515625 14.40625 5.515625 27.296875 
Q 5.515625 40.1875 11.734375 48.09375 
Q 17.96875 56 27.875 56 
Q 33.9375 56 38.25 53.625 
Q 42.578125 51.265625 45.40625 46.390625 
z
M 14.796875 27.296875 
Q 14.796875 17.390625 18.875 11.75 
Q 22.953125 6.109375 30.078125 6.109375 
Q 37.203125 6.109375 41.296875 11.75 
Q 45.40625 17.390625 45.40625 27.296875 
Q 45.40625 37.203125 41.296875 42.84375 
Q 37.203125 48.484375 30.078125 48.484375 
Q 22.953125 48.484375 18.875 42.84375 
Q 14.796875 37.203125 14.796875 27.296875 
z
" id="DejaVuSans-100"/>
      <path d="M 54.890625 33.015625 
L 54.890625 0 
L 45.90625 0 
L 45.90625 32.71875 
Q 45.90625 40.484375 42.875 44.328125 
Q 39.84375 48.1875 33.796875 48.1875 
Q 26.515625 48.1875 22.3125 43.546875 
Q 18.109375 38.921875 18.109375 30.90625 
L 18.109375 0 
L 9.078125 0 
L 9.078125 54.6875 
L 18.109375 54.6875 
L 18.109375 46.1875 
Q 21.34375 51.125 25.703125 53.5625 
Q 30.078125 56 35.796875 56 
Q 45.21875 56 50.046875 50.171875 
Q 54.890625 44.34375 54.890625 33.015625 
z
" id="DejaVuSans-110"/>
      <path d="M 9.421875 75.984375 
L 18.40625 75.984375 
L 18.40625 0 
L 9.421875 0 
z
" id="DejaVuSans-108"/>
      <path id="DejaVuSans-32"/>
      <path d="M 9.8125 72.90625 
L 24.515625 72.90625 
L 43.109375 23.296875 
L 61.8125 72.90625 
L 76.515625 72.90625 
L 76.515625 0 
L 66.890625 0 
L 66.890625 64.015625 
L 48.09375 14.015625 
L 38.1875 14.015625 
L 19.390625 64.015625 
L 19.390625 0 
L 9.8125 0 
z
" id="DejaVuSans-77"/>
      <path d="M 30.609375 48.390625 
Q 23.390625 48.390625 19.1875 42.75 
Q 14.984375 37.109375 14.984375 27.296875 
Q 14.984375 17.484375 19.15625 11.84375 
Q 23.34375 6.203125 30.609375 6.203125 
Q 37.796875 6.203125 41.984375 11.859375 
Q 46.1875 17.53125 46.1875 27.296875 
Q 46.1875 37.015625 41.984375 42.703125 
Q 37.796875 48.390625 30.609375 48.390625 
z
M 30.609375 56 
Q 42.328125 56 49.015625 48.375 
Q 55.71875 40.765625 55.71875 27.296875 
Q 55.71875 13.875 49.015625 6.21875 
Q 42.328125 -1.421875 30.609375 -1.421875 
Q 18.84375 -1.421875 12.171875 6.21875 
Q 5.515625 13.875 5.515625 27.296875 
Q 5.515625 40.765625 12.171875 48.375 
Q 18.84375 56 30.609375 56 
z
" id="DejaVuSans-111"/>
      <path d="M 48.6875 27.296875 
Q 48.6875 37.203125 44.609375 42.84375 
Q 40.53125 48.484375 33.40625 48.484375 
Q 26.265625 48.484375 22.1875 42.84375 
Q 18.109375 37.203125 18.109375 27.296875 
Q 18.109375 17.390625 22.1875 11.75 
Q 26.265625 6.109375 33.40625 6.109375 
Q 40.53125 6.109375 44.609375 11.75 
Q 48.6875 17.390625 48.6875 27.296875 
z
M 18.109375 46.390625 
Q 20.953125 51.265625 25.265625 53.625 
Q 29.59375 56 35.59375 56 
Q 45.5625 56 51.78125 48.09375 
Q 58.015625 40.1875 58.015625 27.296875 
Q 58.015625 14.40625 51.78125 6.484375 
Q 45.5625 -1.421875 35.59375 -1.421875 
Q 29.59375 -1.421875 25.265625 0.953125 
Q 20.953125 3.328125 18.109375 8.203125 
L 18.109375 0 
L 9.078125 0 
L 9.078125 75.984375 
L 18.109375 75.984375 
z
" id="DejaVuSans-98"/>
      <path d="M 32.171875 -5.078125 
Q 28.375 -14.84375 24.75 -17.8125 
Q 21.140625 -20.796875 15.09375 -20.796875 
L 7.90625 -20.796875 
L 7.90625 -13.28125 
L 13.1875 -13.28125 
Q 16.890625 -13.28125 18.9375 -11.515625 
Q 21 -9.765625 23.484375 -3.21875 
L 25.09375 0.875 
L 2.984375 54.6875 
L 12.5 54.6875 
L 29.59375 11.921875 
L 46.6875 54.6875 
L 56.203125 54.6875 
z
" id="DejaVuSans-121"/>
     </defs>
     <g transform="translate(14.798438 260.782969)rotate(-90)scale(0.1 -0.1)">
      <use xlink:href="#DejaVuSans-82"/>
      <use x="64.982422" xlink:href="#DejaVuSans-101"/>
      <use x="126.505859" xlink:href="#DejaVuSans-115"/>
      <use x="178.605469" xlink:href="#DejaVuSans-105"/>
      <use x="206.388672" xlink:href="#DejaVuSans-100"/>
      <use x="269.865234" xlink:href="#DejaVuSans-101"/>
      <use x="331.388672" xlink:href="#DejaVuSans-110"/>
      <use x="394.767578" xlink:href="#DejaVuSans-116"/>
      <use x="433.976562" xlink:href="#DejaVuSans-105"/>
      <use x="461.759766" xlink:href="#DejaVuSans-97"/>
      <use x="523.039062" xlink:href="#DejaVuSans-108"/>
      <use x="550.822266" xlink:href="#DejaVuSans-32"/>
      <use x="582.609375" xlink:href="#DejaVuSans-77"/>
      <use x="668.888672" xlink:href="#DejaVuSans-111"/>
      <use x="730.070312" xlink:href="#DejaVuSans-98"/>
      <use x="793.546875" xlink:href="#DejaVuSans-105"/>
      <use x="821.330078" xlink:href="#DejaVuSans-108"/>
      <use x="849.113281" xlink:href="#DejaVuSans-105"/>
      <use x="876.896484" xlink:href="#DejaVuSans-116"/>
      <use x="916.105469" xlink:href="#DejaVuSans-121"/>
     </g>
    </g>
   </g>
   <g id="line2d_29">
    <defs>
     <path d="M 0 1.5 
C 0.397805 1.5 0.77937 1.341951 1.06066 1.06066 
C 1.341951 0.77937 1.5 0.397805 1.5 0 
C 1.5 -0.397805 1.341951 -0.77937 1.06066 -1.06066 
C 0.77937 -1.341951 0.397805 -1.5 0 -1.5 
C -0.397805 -1.5 -0.77937 -1.341951 -1.06066 -1.06066 
C -1.341951 -0.77937 -1.5 -0.397805 -1.5 0 
C -1.5 0.397805 -1.341951 0.77937 -1.06066 1.06066 
C -0.77937 1.341951 -0.397805 1.5 0 1.5 
z
" id="m7d60221dad" style="stroke:#000000;"/>
    </defs>
    <g clip-path="url(#p557fa77271)">
     <use style="stroke:#000000;" x="72.740767" xlink:href="#m7d60221dad" y="315.182412"/>
     <use style="stroke:#000000;" x="79.912304" xlink:href="#m7d60221dad" y="315.182412"/>
     <use style="stroke:#000000;" x="87.083841" xlink:href="#m7d60221dad" y="249.033892"/>
     <use style="stroke:#000000;" x="94.255377" xlink:href="#m7d60221dad" y="293.132906"/>
     <use style="stroke:#000000;" x="101.426914" xlink:href="#m7d60221dad" y="304.157659"/>
     <use style="stroke:#000000;" x="108.598451" xlink:href="#m7d60221dad" y="293.132906"/>
     <use style="stroke:#000000;" x="115.769988" xlink:href="#m7d60221dad" y="304.157659"/>
     <use style="stroke:#000000;" x="122.941525" xlink:href="#m7d60221dad" y="315.182412"/>
     <use style="stroke:#000000;" x="130.113061" xlink:href="#m7d60221dad" y="315.182412"/>
     <use style="stroke:#000000;" x="137.284598" xlink:href="#m7d60221dad" y="304.157659"/>
     <use style="stroke:#000000;" x="144.456135" xlink:href="#m7d60221dad" y="304.157659"/>
     <use style="stroke:#000000;" x="151.627672" xlink:href="#m7d60221dad" y="315.182412"/>
     <use style="stroke:#000000;" x="158.799209" xlink:href="#m7d60221dad" y="304.157659"/>
     <use style="stroke:#000000;" x="165.970745" xlink:href="#m7d60221dad" y="315.182412"/>
     <use style="stroke:#000000;" x="173.142282" xlink:href="#m7d60221dad" y="326.207166"/>
     <use style="stroke:#000000;" x="180.313819" xlink:href="#m7d60221dad" y="315.182412"/>
     <use style="stroke:#000000;" x="187.485356" xlink:href="#m7d60221dad" y="315.182412"/>
     <use style="stroke:#000000;" x="194.656893" xlink:href="#m7d60221dad" y="315.182412"/>
     <use style="stroke:#000000;" x="201.828429" xlink:href="#m7d60221dad" y="315.182412"/>
     <use style="stroke:#000000;" x="208.999966" xlink:href="#m7d60221dad" y="315.182412"/>
     <use style="stroke:#000000;" x="216.171503" xlink:href="#m7d60221dad" y="315.182412"/>
     <use style="stroke:#000000;" x="223.34304" xlink:href="#m7d60221dad" y="315.182412"/>
     <use style="stroke:#000000;" x="230.514577" xlink:href="#m7d60221dad" y="315.182412"/>
     <use style="stroke:#000000;" x="237.686113" xlink:href="#m7d60221dad" y="304.157659"/>
     <use style="stroke:#000000;" x="244.85765" xlink:href="#m7d60221dad" y="293.132906"/>
     <use style="stroke:#000000;" x="252.029187" xlink:href="#m7d60221dad" y="304.157659"/>
     <use style="stroke:#000000;" x="259.200724" xlink:href="#m7d60221dad" y="293.132906"/>
     <use style="stroke:#000000;" x="266.372261" xlink:href="#m7d60221dad" y="271.083399"/>
     <use style="stroke:#000000;" x="273.543797" xlink:href="#m7d60221dad" y="271.083399"/>
     <use style="stroke:#000000;" x="280.715334" xlink:href="#m7d60221dad" y="271.083399"/>
     <use style="stroke:#000000;" x="287.886871" xlink:href="#m7d60221dad" y="215.959632"/>
     <use style="stroke:#000000;" x="295.058408" xlink:href="#m7d60221dad" y="182.885373"/>
     <use style="stroke:#000000;" x="302.229945" xlink:href="#m7d60221dad" y="160.835866"/>
     <use style="stroke:#000000;" x="309.401481" xlink:href="#m7d60221dad" y="138.786359"/>
     <use style="stroke:#000000;" x="316.573018" xlink:href="#m7d60221dad" y="127.761606"/>
     <use style="stroke:#000000;" x="323.744555" xlink:href="#m7d60221dad" y="171.860619"/>
     <use style="stroke:#000000;" x="330.916092" xlink:href="#m7d60221dad" y="182.885373"/>
     <use style="stroke:#000000;" x="338.087629" xlink:href="#m7d60221dad" y="116.736853"/>
     <use style="stroke:#000000;" x="345.259165" xlink:href="#m7d60221dad" y="94.687346"/>
     <use style="stroke:#000000;" x="352.430702" xlink:href="#m7d60221dad" y="94.687346"/>
     <use style="stroke:#000000;" x="359.602239" xlink:href="#m7d60221dad" y="83.662593"/>
     <use style="stroke:#000000;" x="366.773776" xlink:href="#m7d60221dad" y="72.637839"/>
     <use style="stroke:#000000;" x="373.945312" xlink:href="#m7d60221dad" y="138.786359"/>
     <use style="stroke:#000000;" x="381.116849" xlink:href="#m7d60221dad" y="171.860619"/>
     <use style="stroke:#000000;" x="388.288386" xlink:href="#m7d60221dad" y="94.687346"/>
     <use style="stroke:#000000;" x="395.459923" xlink:href="#m7d60221dad" y="83.662593"/>
     <use style="stroke:#000000;" x="402.63146" xlink:href="#m7d60221dad" y="83.662593"/>
     <use style="stroke:#000000;" x="409.802996" xlink:href="#m7d60221dad" y="72.637839"/>
     <use style="stroke:#000000;" x="416.974533" xlink:href="#m7d60221dad" y="61.613086"/>
     <use style="stroke:#000000;" x="424.14607" xlink:href="#m7d60221dad" y="138.786359"/>
     <use style="stroke:#000000;" x="431.317607" xlink:href="#m7d60221dad" y="160.835866"/>
     <use style="stroke:#000000;" x="438.489144" xlink:href="#m7d60221dad" y="83.662593"/>
     <use style="stroke:#000000;" x="445.66068" xlink:href="#m7d60221dad" y="72.637839"/>
     <use style="stroke:#000000;" x="452.832217" xlink:href="#m7d60221dad" y="72.637839"/>
     <use style="stroke:#000000;" x="460.003754" xlink:href="#m7d60221dad" y="61.613086"/>
     <use style="stroke:#000000;" x="467.175291" xlink:href="#m7d60221dad" y="39.56358"/>
     <use style="stroke:#000000;" x="474.346828" xlink:href="#m7d60221dad" y="149.811113"/>
     <use style="stroke:#000000;" x="481.518364" xlink:href="#m7d60221dad" y="160.835866"/>
     <use style="stroke:#000000;" x="488.689901" xlink:href="#m7d60221dad" y="72.637839"/>
     <use style="stroke:#000000;" x="495.861438" xlink:href="#m7d60221dad" y="83.662593"/>
     <use style="stroke:#000000;" x="503.032975" xlink:href="#m7d60221dad" y="83.662593"/>
     <use style="stroke:#000000;" x="510.204512" xlink:href="#m7d60221dad" y="72.637839"/>
     <use style="stroke:#000000;" x="517.376048" xlink:href="#m7d60221dad" y="61.613086"/>
     <use style="stroke:#000000;" x="524.547585" xlink:href="#m7d60221dad" y="149.811113"/>
     <use style="stroke:#000000;" x="531.719122" xlink:href="#m7d60221dad" y="182.885373"/>
     <use style="stroke:#000000;" x="538.890659" xlink:href="#m7d60221dad" y="94.687346"/>
     <use style="stroke:#000000;" x="546.062196" xlink:href="#m7d60221dad" y="83.662593"/>
     <use style="stroke:#000000;" x="553.233732" xlink:href="#m7d60221dad" y="83.662593"/>
     <use style="stroke:#000000;" x="560.405269" xlink:href="#m7d60221dad" y="72.637839"/>
     <use style="stroke:#000000;" x="567.576806" xlink:href="#m7d60221dad" y="72.637839"/>
     <use style="stroke:#000000;" x="574.748343" xlink:href="#m7d60221dad" y="171.860619"/>
     <use style="stroke:#000000;" x="581.91988" xlink:href="#m7d60221dad" y="182.885373"/>
     <use style="stroke:#000000;" x="589.091416" xlink:href="#m7d60221dad" y="105.712099"/>
     <use style="stroke:#000000;" x="596.262953" xlink:href="#m7d60221dad" y="171.860619"/>
     <use style="stroke:#000000;" x="603.43449" xlink:href="#m7d60221dad" y="94.687346"/>
     <use style="stroke:#000000;" x="610.606027" xlink:href="#m7d60221dad" y="94.687346"/>
     <use style="stroke:#000000;" x="617.777564" xlink:href="#m7d60221dad" y="105.712099"/>
     <use style="stroke:#000000;" x="624.9491" xlink:href="#m7d60221dad" y="193.910126"/>
     <use style="stroke:#000000;" x="632.120637" xlink:href="#m7d60221dad" y="215.959632"/>
     <use style="stroke:#000000;" x="639.292174" xlink:href="#m7d60221dad" y="127.761606"/>
     <use style="stroke:#000000;" x="646.463711" xlink:href="#m7d60221dad" y="116.736853"/>
     <use style="stroke:#000000;" x="653.635248" xlink:href="#m7d60221dad" y="116.736853"/>
     <use style="stroke:#000000;" x="660.806784" xlink:href="#m7d60221dad" y="116.736853"/>
     <use style="stroke:#000000;" x="667.978321" xlink:href="#m7d60221dad" y="105.712099"/>
     <use style="stroke:#000000;" x="675.149858" xlink:href="#m7d60221dad" y="204.934879"/>
    </g>
   </g>
   <g id="line2d_30">
    <path clip-path="url(#p557fa77271)" d="M 72.740767 318.695749 
L 79.912304 332.144417 
L 87.083841 277.385867 
L 94.255377 282.344658 
L 101.426914 281.075079 
L 108.598451 276.294198 
L 115.769988 275.165778 
L 122.941525 337.102059 
L 130.113061 350.549766 
L 137.284598 295.790255 
L 144.456135 300.748085 
L 151.627672 299.477545 
L 158.799209 292.731475 
L 165.970745 289.638828 
L 173.142282 349.609527 
L 180.313819 361.091652 
L 187.485356 304.366559 
L 194.656893 307.358806 
L 201.828429 304.122684 
L 208.999966 297.37526 
L 216.171503 291.354753 
L 223.34304 348.398949 
L 230.514577 356.95457 
L 237.686113 297.302973 
L 244.85765 297.368717 
L 252.029187 278.763599 
L 259.200724 256.647179 
L 266.372261 238.18418 
L 273.543797 282.780849 
L 280.715334 278.888945 
L 287.886871 206.789821 
L 295.058408 194.408039 
L 302.229945 175.797886 
L 309.401481 153.676432 
L 316.573018 135.2084 
L 323.744555 179.805069 
L 330.916092 179.203408 
L 338.087629 110.394528 
L 345.259165 101.302989 
L 352.430702 95.990464 
L 359.602239 87.166637 
L 366.773776 81.998516 
L 373.945312 139.895096 
L 381.116849 149.303103 
L 388.288386 90.503899 
L 395.459923 91.422037 
L 402.63146 86.111805 
L 409.802996 77.290498 
L 416.974533 72.122613 
L 424.14607 130.019487 
L 431.317607 139.427786 
L 438.489144 80.628866 
L 445.66068 81.547299 
L 452.832217 76.237363 
L 460.003754 67.416124 
L 467.175291 65.431396 
L 474.346828 126.511371 
L 481.518364 139.102771 
L 488.689901 83.486953 
L 495.861438 87.588476 
L 503.032975 85.464003 
L 510.204512 79.828227 
L 517.376048 77.845874 
L 524.547585 139.351736 
L 531.719122 152.369024 
L 538.890659 97.179683 
L 546.062196 101.707682 
L 553.233732 100.007312 
L 560.405269 94.79631 
L 567.576806 93.23873 
L 574.748343 154.745852 
L 581.91988 167.764399 
L 589.091416 112.575728 
L 596.262953 117.104398 
L 603.43449 115.404699 
L 610.606027 110.193697 
L 617.777564 108.636116 
L 624.9491 170.143238 
L 632.120637 183.161786 
L 639.292174 127.973115 
L 646.463711 132.501785 
L 653.635248 130.802085 
L 660.806784 125.591083 
L 667.978321 124.033503 
L 675.149858 185.540625 
" style="fill:none;stroke:#0072b2;stroke-linecap:square;stroke-width:1.5;"/>
   </g>
   <g id="line2d_31">
    <path clip-path="url(#p557fa77271)" d="M 72.740767 283.983144 
L 79.912304 286.612892 
L 87.083841 289.242639 
L 94.255377 291.872387 
L 101.426914 294.502134 
L 108.598451 297.131882 
L 115.769988 299.760668 
L 122.941525 302.389454 
L 130.113061 305.01824 
L 137.284598 307.647027 
L 144.456135 310.275813 
L 151.627672 312.9046 
L 158.799209 313.569159 
L 165.970745 314.233718 
L 173.142282 314.896923 
L 180.313819 315.560127 
L 187.485356 316.223331 
L 194.656893 316.886535 
L 201.828429 317.549739 
L 208.999966 318.212943 
L 216.171503 315.949644 
L 223.34304 313.686344 
L 230.514577 311.423045 
L 237.686113 309.159745 
L 244.85765 306.896445 
L 252.029187 292.190654 
L 259.200724 277.484862 
L 266.372261 262.779071 
L 273.543797 248.068245 
L 280.715334 233.357419 
L 287.886871 218.646593 
L 295.058408 203.935767 
L 302.229945 189.224941 
L 309.401481 174.514116 
L 316.573018 159.80329 
L 323.744555 145.092465 
L 330.916092 133.671883 
L 338.087629 122.2513 
L 345.259165 110.830718 
L 352.430702 109.417519 
L 359.602239 108.004321 
L 366.773776 106.593406 
L 373.945312 105.182492 
L 381.116849 103.771577 
L 388.288386 102.360672 
L 395.459923 100.949766 
L 402.63146 99.53886 
L 409.802996 98.128182 
L 416.974533 96.717504 
L 424.14607 95.306882 
L 431.317607 93.89626 
L 438.489144 92.485638 
L 445.66068 91.075028 
L 452.832217 89.664418 
L 460.003754 88.253808 
L 467.175291 90.026287 
L 474.346828 91.798766 
L 481.518364 93.571246 
L 488.689901 95.343725 
L 495.861438 97.116204 
L 503.032975 98.891058 
L 510.204512 100.665911 
L 517.376048 102.440764 
L 524.547585 104.639131 
L 531.719122 106.837499 
L 538.890659 109.036455 
L 546.062196 111.235411 
L 553.233732 113.434367 
L 560.405269 115.633994 
L 567.576806 117.83362 
L 574.748343 120.033247 
L 581.91988 122.232874 
L 589.091416 124.4325 
L 596.262953 126.632127 
L 603.43449 128.831754 
L 610.606027 131.03138 
L 617.777564 133.231007 
L 624.9491 135.430634 
L 632.120637 137.63026 
L 639.292174 139.829887 
L 646.463711 142.029514 
L 653.635248 144.22914 
L 660.806784 146.428767 
L 667.978321 148.628393 
L 675.149858 150.82802 
" style="fill:none;stroke:#0000ff;stroke-linecap:square;stroke-width:1.5;"/>
   </g>
   <g id="line2d_32">
    <path clip-path="url(#p557fa77271)" d="M 151.627672 401.718125 
L 151.627672 22.318125 
" style="fill:none;stroke:#0000ff;stroke-dasharray:5.55,2.4;stroke-dashoffset:0;stroke-width:1.5;"/>
   </g>
   <g id="line2d_33">
    <path clip-path="url(#p557fa77271)" d="M 208.999966 401.718125 
L 208.999966 22.318125 
" style="fill:none;stroke:#0000ff;stroke-dasharray:5.55,2.4;stroke-dashoffset:0;stroke-width:1.5;"/>
   </g>
   <g id="line2d_34">
    <path clip-path="url(#p557fa77271)" d="M 244.85765 401.718125 
L 244.85765 22.318125 
" style="fill:none;stroke:#0000ff;stroke-dasharray:5.55,2.4;stroke-dashoffset:0;stroke-width:1.5;"/>
   </g>
   <g id="line2d_35">
    <path clip-path="url(#p557fa77271)" d="M 323.744555 401.718125 
L 323.744555 22.318125 
" style="fill:none;stroke:#0000ff;stroke-dasharray:5.55,2.4;stroke-dashoffset:0;stroke-width:1.5;"/>
   </g>
   <g id="line2d_36">
    <path clip-path="url(#p557fa77271)" d="M 345.259165 401.718125 
L 345.259165 22.318125 
" style="fill:none;stroke:#0000ff;stroke-dasharray:5.55,2.4;stroke-dashoffset:0;stroke-width:1.5;"/>
   </g>
   <g id="line2d_37">
    <path clip-path="url(#p557fa77271)" d="M 460.003754 401.718125 
L 460.003754 22.318125 
" style="fill:none;stroke:#0000ff;stroke-dasharray:5.55,2.4;stroke-dashoffset:0;stroke-width:1.5;"/>
   </g>
   <g id="line2d_38">
    <path clip-path="url(#p557fa77271)" d="M 517.376048 401.718125 
L 517.376048 22.318125 
" style="fill:none;stroke:#0000ff;stroke-dasharray:5.55,2.4;stroke-dashoffset:0;stroke-width:1.5;"/>
   </g>
   <g id="line2d_39">
    <path clip-path="url(#p557fa77271)" d="M 244.85765 401.718125 
L 244.85765 22.318125 
" style="fill:none;stroke:#ff0000;stroke-linecap:square;stroke-width:3;"/>
   </g>
   <g id="patch_3">
    <path d="M 42.620313 401.718125 
L 42.620313 22.318125 
" style="fill:none;stroke:#000000;stroke-linecap:square;stroke-linejoin:miter;stroke-width:0.8;"/>
   </g>
   <g id="patch_4">
    <path d="M 705.270313 401.718125 
L 705.270313 22.318125 
" style="fill:none;stroke:#000000;stroke-linecap:square;stroke-linejoin:miter;stroke-width:0.8;"/>
   </g>
   <g id="patch_5">
    <path d="M 42.620312 401.718125 
L 705.270313 401.718125 
" style="fill:none;stroke:#000000;stroke-linecap:square;stroke-linejoin:miter;stroke-width:0.8;"/>
   </g>
   <g id="patch_6">
    <path d="M 42.620312 22.318125 
L 705.270313 22.318125 
" style="fill:none;stroke:#000000;stroke-linecap:square;stroke-linejoin:miter;stroke-width:0.8;"/>
   </g>
   <g id="text_17">
    <!-- Residential Mobility Graph for United States -->
    <defs>
     <path d="M 59.515625 10.40625 
L 59.515625 29.984375 
L 43.40625 29.984375 
L 43.40625 38.09375 
L 69.28125 38.09375 
L 69.28125 6.78125 
Q 63.578125 2.734375 56.6875 0.65625 
Q 49.8125 -1.421875 42 -1.421875 
Q 24.90625 -1.421875 15.25 8.5625 
Q 5.609375 18.5625 5.609375 36.375 
Q 5.609375 54.25 15.25 64.234375 
Q 24.90625 74.21875 42 74.21875 
Q 49.125 74.21875 55.546875 72.453125 
Q 61.96875 70.703125 67.390625 67.28125 
L 67.390625 56.78125 
Q 61.921875 61.421875 55.765625 63.765625 
Q 49.609375 66.109375 42.828125 66.109375 
Q 29.4375 66.109375 22.71875 58.640625 
Q 16.015625 51.171875 16.015625 36.375 
Q 16.015625 21.625 22.71875 14.15625 
Q 29.4375 6.6875 42.828125 6.6875 
Q 48.046875 6.6875 52.140625 7.59375 
Q 56.25 8.5 59.515625 10.40625 
z
" id="DejaVuSans-71"/>
     <path d="M 41.109375 46.296875 
Q 39.59375 47.171875 37.8125 47.578125 
Q 36.03125 48 33.890625 48 
Q 26.265625 48 22.1875 43.046875 
Q 18.109375 38.09375 18.109375 28.8125 
L 18.109375 0 
L 9.078125 0 
L 9.078125 54.6875 
L 18.109375 54.6875 
L 18.109375 46.1875 
Q 20.953125 51.171875 25.484375 53.578125 
Q 30.03125 56 36.53125 56 
Q 37.453125 56 38.578125 55.875 
Q 39.703125 55.765625 41.0625 55.515625 
z
" id="DejaVuSans-114"/>
     <path d="M 18.109375 8.203125 
L 18.109375 -20.796875 
L 9.078125 -20.796875 
L 9.078125 54.6875 
L 18.109375 54.6875 
L 18.109375 46.390625 
Q 20.953125 51.265625 25.265625 53.625 
Q 29.59375 56 35.59375 56 
Q 45.5625 56 51.78125 48.09375 
Q 58.015625 40.1875 58.015625 27.296875 
Q 58.015625 14.40625 51.78125 6.484375 
Q 45.5625 -1.421875 35.59375 -1.421875 
Q 29.59375 -1.421875 25.265625 0.953125 
Q 20.953125 3.328125 18.109375 8.203125 
z
M 48.6875 27.296875 
Q 48.6875 37.203125 44.609375 42.84375 
Q 40.53125 48.484375 33.40625 48.484375 
Q 26.265625 48.484375 22.1875 42.84375 
Q 18.109375 37.203125 18.109375 27.296875 
Q 18.109375 17.390625 22.1875 11.75 
Q 26.265625 6.109375 33.40625 6.109375 
Q 40.53125 6.109375 44.609375 11.75 
Q 48.6875 17.390625 48.6875 27.296875 
z
" id="DejaVuSans-112"/>
     <path d="M 54.890625 33.015625 
L 54.890625 0 
L 45.90625 0 
L 45.90625 32.71875 
Q 45.90625 40.484375 42.875 44.328125 
Q 39.84375 48.1875 33.796875 48.1875 
Q 26.515625 48.1875 22.3125 43.546875 
Q 18.109375 38.921875 18.109375 30.90625 
L 18.109375 0 
L 9.078125 0 
L 9.078125 75.984375 
L 18.109375 75.984375 
L 18.109375 46.1875 
Q 21.34375 51.125 25.703125 53.5625 
Q 30.078125 56 35.796875 56 
Q 45.21875 56 50.046875 50.171875 
Q 54.890625 44.34375 54.890625 33.015625 
z
" id="DejaVuSans-104"/>
     <path d="M 37.109375 75.984375 
L 37.109375 68.5 
L 28.515625 68.5 
Q 23.6875 68.5 21.796875 66.546875 
Q 19.921875 64.59375 19.921875 59.515625 
L 19.921875 54.6875 
L 34.71875 54.6875 
L 34.71875 47.703125 
L 19.921875 47.703125 
L 19.921875 0 
L 10.890625 0 
L 10.890625 47.703125 
L 2.296875 47.703125 
L 2.296875 54.6875 
L 10.890625 54.6875 
L 10.890625 58.5 
Q 10.890625 67.625 15.140625 71.796875 
Q 19.390625 75.984375 28.609375 75.984375 
z
" id="DejaVuSans-102"/>
     <path d="M 8.6875 72.90625 
L 18.609375 72.90625 
L 18.609375 28.609375 
Q 18.609375 16.890625 22.84375 11.734375 
Q 27.09375 6.59375 36.625 6.59375 
Q 46.09375 6.59375 50.34375 11.734375 
Q 54.59375 16.890625 54.59375 28.609375 
L 54.59375 72.90625 
L 64.5 72.90625 
L 64.5 27.390625 
Q 64.5 13.140625 57.4375 5.859375 
Q 50.390625 -1.421875 36.625 -1.421875 
Q 22.796875 -1.421875 15.734375 5.859375 
Q 8.6875 13.140625 8.6875 27.390625 
z
" id="DejaVuSans-85"/>
     <path d="M 53.515625 70.515625 
L 53.515625 60.890625 
Q 47.90625 63.578125 42.921875 64.890625 
Q 37.9375 66.21875 33.296875 66.21875 
Q 25.25 66.21875 20.875 63.09375 
Q 16.5 59.96875 16.5 54.203125 
Q 16.5 49.359375 19.40625 46.890625 
Q 22.3125 44.4375 30.421875 42.921875 
L 36.375 41.703125 
Q 47.40625 39.59375 52.65625 34.296875 
Q 57.90625 29 57.90625 20.125 
Q 57.90625 9.515625 50.796875 4.046875 
Q 43.703125 -1.421875 29.984375 -1.421875 
Q 24.8125 -1.421875 18.96875 -0.25 
Q 13.140625 0.921875 6.890625 3.21875 
L 6.890625 13.375 
Q 12.890625 10.015625 18.65625 8.296875 
Q 24.421875 6.59375 29.984375 6.59375 
Q 38.421875 6.59375 43.015625 9.90625 
Q 47.609375 13.234375 47.609375 19.390625 
Q 47.609375 24.75 44.3125 27.78125 
Q 41.015625 30.8125 33.5 32.328125 
L 27.484375 33.5 
Q 16.453125 35.6875 11.515625 40.375 
Q 6.59375 45.0625 6.59375 53.421875 
Q 6.59375 63.09375 13.40625 68.65625 
Q 20.21875 74.21875 32.171875 74.21875 
Q 37.3125 74.21875 42.625 73.28125 
Q 47.953125 72.359375 53.515625 70.515625 
z
" id="DejaVuSans-83"/>
    </defs>
    <g transform="translate(242.424375 16.318125)scale(0.12 -0.12)">
     <use xlink:href="#DejaVuSans-82"/>
     <use x="64.982422" xlink:href="#DejaVuSans-101"/>
     <use x="126.505859" xlink:href="#DejaVuSans-115"/>
     <use x="178.605469" xlink:href="#DejaVuSans-105"/>
     <use x="206.388672" xlink:href="#DejaVuSans-100"/>
     <use x="269.865234" xlink:href="#DejaVuSans-101"/>
     <use x="331.388672" xlink:href="#DejaVuSans-110"/>
     <use x="394.767578" xlink:href="#DejaVuSans-116"/>
     <use x="433.976562" xlink:href="#DejaVuSans-105"/>
     <use x="461.759766" xlink:href="#DejaVuSans-97"/>
     <use x="523.039062" xlink:href="#DejaVuSans-108"/>
     <use x="550.822266" xlink:href="#DejaVuSans-32"/>
     <use x="582.609375" xlink:href="#DejaVuSans-77"/>
     <use x="668.888672" xlink:href="#DejaVuSans-111"/>
     <use x="730.070312" xlink:href="#DejaVuSans-98"/>
     <use x="793.546875" xlink:href="#DejaVuSans-105"/>
     <use x="821.330078" xlink:href="#DejaVuSans-108"/>
     <use x="849.113281" xlink:href="#DejaVuSans-105"/>
     <use x="876.896484" xlink:href="#DejaVuSans-116"/>
     <use x="916.105469" xlink:href="#DejaVuSans-121"/>
     <use x="975.285156" xlink:href="#DejaVuSans-32"/>
     <use x="1007.072266" xlink:href="#DejaVuSans-71"/>
     <use x="1084.5625" xlink:href="#DejaVuSans-114"/>
     <use x="1125.675781" xlink:href="#DejaVuSans-97"/>
     <use x="1186.955078" xlink:href="#DejaVuSans-112"/>
     <use x="1250.431641" xlink:href="#DejaVuSans-104"/>
     <use x="1313.810547" xlink:href="#DejaVuSans-32"/>
     <use x="1345.597656" xlink:href="#DejaVuSans-102"/>
     <use x="1380.802734" xlink:href="#DejaVuSans-111"/>
     <use x="1441.984375" xlink:href="#DejaVuSans-114"/>
     <use x="1483.097656" xlink:href="#DejaVuSans-32"/>
     <use x="1514.884766" xlink:href="#DejaVuSans-85"/>
     <use x="1588.078125" xlink:href="#DejaVuSans-110"/>
     <use x="1651.457031" xlink:href="#DejaVuSans-105"/>
     <use x="1679.240234" xlink:href="#DejaVuSans-116"/>
     <use x="1718.449219" xlink:href="#DejaVuSans-101"/>
     <use x="1779.972656" xlink:href="#DejaVuSans-100"/>
     <use x="1843.449219" xlink:href="#DejaVuSans-32"/>
     <use x="1875.236328" xlink:href="#DejaVuSans-83"/>
     <use x="1938.712891" xlink:href="#DejaVuSans-116"/>
     <use x="1977.921875" xlink:href="#DejaVuSans-97"/>
     <use x="2039.201172" xlink:href="#DejaVuSans-116"/>
     <use x="2078.410156" xlink:href="#DejaVuSans-101"/>
     <use x="2139.933594" xlink:href="#DejaVuSans-115"/>
    </g>
   </g>
   <g id="legend_1">
    <g id="patch_7">
     <path d="M 543.795313 44.99625 
L 698.270313 44.99625 
Q 700.270313 44.99625 700.270313 42.99625 
L 700.270313 29.318125 
Q 700.270313 27.318125 698.270313 27.318125 
L 543.795313 27.318125 
Q 541.795313 27.318125 541.795313 29.318125 
L 541.795313 42.99625 
Q 541.795313 44.99625 543.795313 44.99625 
z
" style="fill:#ffffff;opacity:0.8;stroke:#cccccc;stroke-linejoin:miter;"/>
    </g>
    <g id="line2d_40">
     <path d="M 545.795313 35.416562 
L 565.795313 35.416562 
" style="fill:none;stroke:#ff0000;stroke-linecap:square;stroke-width:3;"/>
    </g>
    <g id="line2d_41"/>
    <g id="text_18">
     <!-- Effective Lockdown date -->
     <defs>
      <path d="M 9.8125 72.90625 
L 55.90625 72.90625 
L 55.90625 64.59375 
L 19.671875 64.59375 
L 19.671875 43.015625 
L 54.390625 43.015625 
L 54.390625 34.71875 
L 19.671875 34.71875 
L 19.671875 8.296875 
L 56.78125 8.296875 
L 56.78125 0 
L 9.8125 0 
z
" id="DejaVuSans-69"/>
      <path d="M 48.78125 52.59375 
L 48.78125 44.1875 
Q 44.96875 46.296875 41.140625 47.34375 
Q 37.3125 48.390625 33.40625 48.390625 
Q 24.65625 48.390625 19.8125 42.84375 
Q 14.984375 37.3125 14.984375 27.296875 
Q 14.984375 17.28125 19.8125 11.734375 
Q 24.65625 6.203125 33.40625 6.203125 
Q 37.3125 6.203125 41.140625 7.25 
Q 44.96875 8.296875 48.78125 10.40625 
L 48.78125 2.09375 
Q 45.015625 0.34375 40.984375 -0.53125 
Q 36.96875 -1.421875 32.421875 -1.421875 
Q 20.0625 -1.421875 12.78125 6.34375 
Q 5.515625 14.109375 5.515625 27.296875 
Q 5.515625 40.671875 12.859375 48.328125 
Q 20.21875 56 33.015625 56 
Q 37.15625 56 41.109375 55.140625 
Q 45.0625 54.296875 48.78125 52.59375 
z
" id="DejaVuSans-99"/>
      <path d="M 2.984375 54.6875 
L 12.5 54.6875 
L 29.59375 8.796875 
L 46.6875 54.6875 
L 56.203125 54.6875 
L 35.6875 0 
L 23.484375 0 
z
" id="DejaVuSans-118"/>
      <path d="M 9.8125 72.90625 
L 19.671875 72.90625 
L 19.671875 8.296875 
L 55.171875 8.296875 
L 55.171875 0 
L 9.8125 0 
z
" id="DejaVuSans-76"/>
      <path d="M 9.078125 75.984375 
L 18.109375 75.984375 
L 18.109375 31.109375 
L 44.921875 54.6875 
L 56.390625 54.6875 
L 27.390625 29.109375 
L 57.625 0 
L 45.90625 0 
L 18.109375 26.703125 
L 18.109375 0 
L 9.078125 0 
z
" id="DejaVuSans-107"/>
      <path d="M 4.203125 54.6875 
L 13.1875 54.6875 
L 24.421875 12.015625 
L 35.59375 54.6875 
L 46.1875 54.6875 
L 57.421875 12.015625 
L 68.609375 54.6875 
L 77.59375 54.6875 
L 63.28125 0 
L 52.6875 0 
L 40.921875 44.828125 
L 29.109375 0 
L 18.5 0 
z
" id="DejaVuSans-119"/>
     </defs>
     <g transform="translate(573.795313 38.916562)scale(0.1 -0.1)">
      <use xlink:href="#DejaVuSans-69"/>
      <use x="63.183594" xlink:href="#DejaVuSans-102"/>
      <use x="98.388672" xlink:href="#DejaVuSans-102"/>
      <use x="133.59375" xlink:href="#DejaVuSans-101"/>
      <use x="195.117188" xlink:href="#DejaVuSans-99"/>
      <use x="250.097656" xlink:href="#DejaVuSans-116"/>
      <use x="289.306641" xlink:href="#DejaVuSans-105"/>
      <use x="317.089844" xlink:href="#DejaVuSans-118"/>
      <use x="376.269531" xlink:href="#DejaVuSans-101"/>
      <use x="437.792969" xlink:href="#DejaVuSans-32"/>
      <use x="469.580078" xlink:href="#DejaVuSans-76"/>
      <use x="523.542969" xlink:href="#DejaVuSans-111"/>
      <use x="584.724609" xlink:href="#DejaVuSans-99"/>
      <use x="639.705078" xlink:href="#DejaVuSans-107"/>
      <use x="697.615234" xlink:href="#DejaVuSans-100"/>
      <use x="761.091797" xlink:href="#DejaVuSans-111"/>
      <use x="822.273438" xlink:href="#DejaVuSans-119"/>
      <use x="904.060547" xlink:href="#DejaVuSans-110"/>
      <use x="967.439453" xlink:href="#DejaVuSans-32"/>
      <use x="999.226562" xlink:href="#DejaVuSans-100"/>
      <use x="1062.703125" xlink:href="#DejaVuSans-97"/>
      <use x="1123.982422" xlink:href="#DejaVuSans-116"/>
      <use x="1163.191406" xlink:href="#DejaVuSans-101"/>
     </g>
    </g>
   </g>
  </g>
 </g>
 <defs>
  <clipPath id="p557fa77271">
   <rect height="379.4" width="662.65" x="42.620313" y="22.318125"/>
  </clipPath>
 </defs>
</svg>
